<?xml version="1.0" encoding="UTF-8" standalone="no"?>
<!-- Created with Inkscape (http://www.inkscape.org/) -->

<svg
   xmlns:i="http://ns.adobe.com/AdobeIllustrator/10.0/"
   xmlns:dc="http://purl.org/dc/elements/1.1/"
   xmlns:cc="http://creativecommons.org/ns#"
   xmlns:rdf="http://www.w3.org/1999/02/22-rdf-syntax-ns#"
   xmlns:svg="http://www.w3.org/2000/svg"
   xmlns="http://www.w3.org/2000/svg"
   xmlns:xlink="http://www.w3.org/1999/xlink"
   xmlns:sodipodi="http://sodipodi.sourceforge.net/DTD/sodipodi-0.dtd"
   xmlns:inkscape="http://www.inkscape.org/namespaces/inkscape"
   width="52.509098"
   height="52.52018"
   viewBox="0 0 52.509098 52.52018"
   id="svg5160"
   sodipodi:version="0.32"
   inkscape:version="0.48.5 r10040"
   sodipodi:docname="os_ubuntu.svg"
   version="1.0"
   inkscape:export-xdpi="27.42"
   inkscape:export-ydpi="27.42">
  <defs
     id="defs5162">
    <linearGradient
       inkscape:collect="always"
       id="linearGradient13960">
      <stop
         style="stop-color:white;stop-opacity:1;"
         offset="0"
         id="stop13962" />
      <stop
         style="stop-color:white;stop-opacity:0;"
         offset="1"
         id="stop13964" />
    </linearGradient>
    <linearGradient
       id="linearGradient3898">
      <stop
         style="stop-color:#d6860a;stop-opacity:1;"
         offset="0"
         id="stop3900" />
      <stop
         style="stop-color:white;stop-opacity:1;"
         offset="1"
         id="stop3902" />
    </linearGradient>
    <linearGradient
       inkscape:collect="always"
       xlink:href="#linearGradient3898"
       id="linearGradient13956"
       x1="46.591862"
       y1="89.585007"
       x2="43.591812"
       y2="-74.733185"
       gradientUnits="userSpaceOnUse" />
    <linearGradient
       inkscape:collect="always"
       xlink:href="#linearGradient13960"
       id="linearGradient13966"
       x1="26.48"
       y1="1.3939171"
       x2="26.48"
       y2="52.84341"
       gradientUnits="userSpaceOnUse" />
  </defs>
  <sodipodi:namedview
     id="base"
     pagecolor="#ffffff"
     bordercolor="#666666"
     borderopacity="1.0"
     inkscape:pageopacity="0.0"
     inkscape:pageshadow="2"
     inkscape:zoom="3.8890873"
     inkscape:cx="78.674433"
     inkscape:cy="-2.4418816"
     inkscape:current-layer="layer1"
     showgrid="false"
     inkscape:document-units="px"
     inkscape:grid-bbox="true"
     inkscape:window-width="1680"
     inkscape:window-height="1030"
     inkscape:window-x="-3"
     inkscape:window-y="-3"
     showguides="true"
     inkscape:guide-bbox="true"
     inkscape:window-maximized="1">
    <sodipodi:guide
       orientation="vertical"
       position="393.92276"
       id="guide5230" />
    <sodipodi:guide
       orientation="vertical"
       position="438.14907"
       id="guide5236" />
  </sodipodi:namedview>
  <metadata
     id="metadata5165">
    <rdf:RDF>
      <cc:Work
         rdf:about="">
        <dc:format>image/svg+xml</dc:format>
        <dc:type
           rdf:resource="http://purl.org/dc/dcmitype/StillImage" />
        <dc:title />
      </cc:Work>
    </rdf:RDF>
  </metadata>
  <g
     id="layer1"
     inkscape:label="Layer 1"
     inkscape:groupmode="layer"
     transform="translate(-3.819132,-6.155729)">
    <g
       inkscape:label="shadow"
       style="display:inline"
       id="layer4"
       transform="translate(-392.7904,328.2799)" />
    <g
       inkscape:label="shadow"
       id="g3039"
       transform="translate(-840.833,182.2722)" />
    <g
       inkscape:label="color"
       id="g3041"
       transform="translate(-840.833,182.2722)">
      <path
         style="opacity:1;fill:#71c000;fill-opacity:1;stroke:#71c000;stroke-width:3.37896037;stroke-linejoin:bevel;stroke-miterlimit:4;stroke-dasharray:none;stroke-opacity:1"
         d=""
         id="path3043" />
      <path
         style="opacity:1;fill:#71c000;fill-opacity:1;stroke:#71c000;stroke-width:3.37896037;stroke-linejoin:bevel;stroke-miterlimit:4;stroke-dasharray:none;stroke-opacity:1"
         d=""
         id="path3045" />
      <path
         style="opacity:1;fill:#71c000;fill-opacity:1;stroke:#71c000;stroke-width:3.37896037;stroke-linejoin:bevel;stroke-miterlimit:4;stroke-dasharray:none;stroke-opacity:1"
         d=""
         id="path3047" />
    </g>
    <g
       inkscape:label="highlight"
       id="g3049"
       transform="translate(-840.833,182.2722)" />
    <g
       inkscape:label="text"
       id="g3089"
       transform="translate(-840.833,182.2722)" />
    <g
       id="g4774"
       inkscape:label="shadow"
       transform="translate(-1426.607,-26.2895)" />
    <g
       id="layer2"
       inkscape:label="color"
       transform="translate(-1426.607,-26.2895)">
      <path
         style="opacity:1;fill:#71c000;fill-opacity:1;stroke:#71c000;stroke-width:3.37896037;stroke-linejoin:bevel;stroke-miterlimit:4;stroke-dasharray:none;stroke-opacity:1"
         d=""
         id="path3422" />
      <path
         style="opacity:1;fill:#71c000;fill-opacity:1;stroke:#71c000;stroke-width:3.37896037;stroke-linejoin:bevel;stroke-miterlimit:4;stroke-dasharray:none;stroke-opacity:1"
         d=""
         id="path3426" />
      <path
         style="opacity:1;fill:#71c000;fill-opacity:1;stroke:#71c000;stroke-width:3.37896037;stroke-linejoin:bevel;stroke-miterlimit:4;stroke-dasharray:none;stroke-opacity:1"
         d=""
         id="path3428" />
    </g>
    <g
       id="g5777"
       inkscape:label="highlight"
       transform="translate(-1426.607,-26.2895)" />
    <g
       id="layer5"
       inkscape:label="text"
       transform="translate(-1426.607,-26.2895)" />
    <rect
       style="opacity:1;color:black;fill:url(#linearGradient13956);fill-opacity:1;fill-rule:evenodd;stroke:#2b2b2b;stroke-width:0.997;stroke-linecap:butt;stroke-linejoin:miter;marker:none;marker-start:none;marker-mid:none;marker-end:none;stroke-miterlimit:4;stroke-dasharray:none;stroke-dashoffset:0;stroke-opacity:1;visibility:visible;display:inline;overflow:visible"
       id="rect13948"
       width="50.730724"
       height="50.548958"
       x="4.9082928"
       y="7.219615"
       ry="7.0913997" />
    <g
       id="g6007"
       transform="matrix(-3.973892e-3,0.629601,-0.629601,-3.973892e-3,295.5792,-273.6194)"
       inkscape:export-xdpi="27.42"
       inkscape:export-ydpi="27.42"
       style="fill:white">
      <g
         transform="translate(415.3267,354.416)"
         id="g6011"
         style="fill:white" />
    </g>
    <g
       id="g3192"
       inkscape:label="openvaslogo"
       style="display:inline"
       transform="translate(-996.7028,556.527)" />
    <path
       style="opacity:1;color:black;fill:none;fill-opacity:1;fill-rule:evenodd;stroke:url(#linearGradient13966);stroke-width:1;stroke-linecap:butt;stroke-linejoin:miter;marker:none;marker-start:none;marker-mid:none;marker-end:none;stroke-miterlimit:4;stroke-dasharray:none;stroke-dashoffset:0;stroke-opacity:1;visibility:visible;display:inline;overflow:visible"
       d="M 2.1818182,45.429271 L 2,7.792907 C 2,7.792907 3.0909091,2.1565434 7.4545455,1.9747252 C 11.818182,1.792907 44.909091,1.9747252 44.909091,1.9747252 C 44.909091,1.9747252 50.727273,1.9747252 50.909091,9.2474525 C 51.090909,16.52018 50.727273,45.974725 50.727273,45.974725"
       id="path13958"
       transform="translate(3.819132,6.155729)" />
    <g
       id="layer1-1"
       inkscape:label="Layer 1"
       transform="matrix(0.14539467,0,0,0.14539467,6.9788221,10.606648)"
       style="fill:#ffffff">
      <g
         transform="matrix(3.03134,0,0,2.93211,12.5,12.4941)"
         id="g67"
         style="fill:#ffffff">
        <circle
           style="fill:#ffffff"
           sodipodi:ry="9.1239996"
           sodipodi:rx="9.1239996"
           sodipodi:cy="46.903999"
           sodipodi:cx="9.1239996"
           id="circle69"
           r="9.1239996"
           cy="46.903999"
           cx="9.1239996"
           i:knockout="Off"
           d="m 18.247999,46.903999 c 0,5.039046 -4.084954,9.124 -9.1239994,9.124 C 4.0849538,56.027999 0,51.943045 0,46.903999 0,41.864953 4.0849538,37.78 9.1239996,37.78 c 5.0390454,0 9.1239994,4.084953 9.1239994,9.123999 z" />
        <circle
           style="fill:#ffffff"
           sodipodi:ry="9.1239996"
           sodipodi:rx="9.1239996"
           sodipodi:cy="84.667"
           sodipodi:cx="74.547997"
           id="circle71"
           r="9.1239996"
           cy="84.667"
           cx="74.547997"
           i:knockout="Off"
           d="m 83.671996,84.667 c 0,5.039046 -4.084954,9.123999 -9.123999,9.123999 -5.039046,0 -9.124,-4.084953 -9.124,-9.123999 0,-5.039046 4.084954,-9.124 9.124,-9.124 5.039045,0 9.123999,4.084954 9.123999,9.124 z" />
        <path
           style="fill:#ffffff"
           id="path73"
           d="m 52.739,24.327 c 11.361,0 20.787,8.436 22.348,19.373 l 15.632,0 C 90.009,35.106 86.446,27.096 80.489,20.779 76.674,22.722 71.983,22.759 67.998,20.459 64.01,18.156 61.696,14.072 61.474,9.792 58.643,9.132 55.718,8.79 52.739,8.79 c -5.704,0 -11.216,1.245 -16.229,3.606 l 7.826,13.555 c 2.599,-1.046 5.435,-1.624 8.403,-1.624 z"
           i:knockout="Off" />
        <path
           style="fill:#ffffff"
           id="path75"
           d="M 75.088,50.098 C 73.531,61.039 64.103,69.48 52.739,69.48 c -2.97,0 -5.807,-0.578 -8.406,-1.626 L 36.506,81.41 c 5.012,2.362 10.526,3.608 16.232,3.608 2.981,0 5.91,-0.344 8.742,-1.004 0.218,-4.285 2.533,-8.376 6.524,-10.68 3.986,-2.302 8.679,-2.265 12.495,-0.318 5.952,-6.318 9.511,-14.327 10.219,-22.918 l -15.63,0 0,0 z"
           i:knockout="Off" />
        <path
           style="fill:#ffffff"
           id="path77"
           d="m 30.163,46.904 c 0,-7.193 3.381,-13.61 8.636,-17.747 L 30.975,15.604 c -1.835,1.282 -3.571,2.733 -5.188,4.349 -4.528,4.528 -7.775,9.995 -9.562,15.962 3.6,2.332 5.984,6.38 5.984,10.989 0,4.608 -2.384,8.657 -5.984,10.988 1.787,5.967 5.034,11.434 9.562,15.962 1.616,1.616 3.35,3.065 5.184,4.348 L 38.796,64.648 C 33.542,60.511 30.163,54.094 30.163,46.904 z"
           i:knockout="Off" />
        <circle
           style="fill:#ffffff"
           sodipodi:ry="9.1239996"
           sodipodi:rx="9.1239996"
           sodipodi:cy="9.1260004"
           sodipodi:cx="74.540001"
           id="circle79"
           r="9.1239996"
           cy="9.1260004"
           cx="74.540001"
           i:knockout="Off"
           d="m 83.664001,9.1260004 c 0,5.0390456 -4.084954,9.1239996 -9.124,9.1239996 -5.039046,0 -9.124,-4.084954 -9.124,-9.1239996 0,-5.0390458 4.084954,-9.12399959 9.124,-9.12399959 5.039046,0 9.124,4.08495379 9.124,9.12399959 z" />
      </g>
    </g>
  </g>
</svg>
