<?xml version="1.0" encoding="UTF-8" standalone="no"?>
<!-- Created with Inkscape (http://www.inkscape.org/) -->

<svg
   xmlns:dc="http://purl.org/dc/elements/1.1/"
   xmlns:cc="http://creativecommons.org/ns#"
   xmlns:rdf="http://www.w3.org/1999/02/22-rdf-syntax-ns#"
   xmlns:svg="http://www.w3.org/2000/svg"
   xmlns="http://www.w3.org/2000/svg"
   xmlns:xlink="http://www.w3.org/1999/xlink"
   xmlns:sodipodi="http://sodipodi.sourceforge.net/DTD/sodipodi-0.dtd"
   xmlns:inkscape="http://www.inkscape.org/namespaces/inkscape"
   width="52.509098"
   height="52.52018"
   viewBox="0 0 52.509098 52.52018"
   id="svg5160"
   sodipodi:version="0.32"
   inkscape:version="0.48.5 r10040"
   sodipodi:docname="a:gnu.svg"
   version="1.0"
   inkscape:export-xdpi="27.42"
   inkscape:export-ydpi="27.42">
  <defs
     id="defs5162">
    <linearGradient
       inkscape:collect="always"
       id="linearGradient13960">
      <stop
         style="stop-color:white;stop-opacity:1;"
         offset="0"
         id="stop13962" />
      <stop
         style="stop-color:white;stop-opacity:0;"
         offset="1"
         id="stop13964" />
    </linearGradient>
    <linearGradient
       id="linearGradient3898">
      <stop
         style="stop-color:#e6e6e6;stop-opacity:1;"
         offset="0"
         id="stop3900" />
      <stop
         style="stop-color:white;stop-opacity:1;"
         offset="1"
         id="stop3902" />
    </linearGradient>
    <linearGradient
       inkscape:collect="always"
       xlink:href="#linearGradient3898"
       id="linearGradient13956"
       x1="46.591862"
       y1="89.585007"
       x2="43.591812"
       y2="-74.733185"
       gradientUnits="userSpaceOnUse" />
    <linearGradient
       inkscape:collect="always"
       xlink:href="#linearGradient13960"
       id="linearGradient13966"
       x1="26.48"
       y1="1.3939171"
       x2="26.48"
       y2="52.84341"
       gradientUnits="userSpaceOnUse" />
  </defs>
  <sodipodi:namedview
     id="base"
     pagecolor="#ffffff"
     bordercolor="#666666"
     borderopacity="1.0"
     inkscape:pageopacity="0.0"
     inkscape:pageshadow="2"
     inkscape:zoom="8"
     inkscape:cx="5.5938479"
     inkscape:cy="51.582164"
     inkscape:current-layer="layer1"
     showgrid="false"
     inkscape:document-units="px"
     inkscape:grid-bbox="true"
     inkscape:window-width="1680"
     inkscape:window-height="1030"
     inkscape:window-x="-3"
     inkscape:window-y="-3"
     showguides="true"
     inkscape:guide-bbox="true"
     inkscape:window-maximized="1">
    <sodipodi:guide
       orientation="vertical"
       position="393.92276"
       id="guide5230" />
    <sodipodi:guide
       orientation="vertical"
       position="438.14907"
       id="guide5236" />
  </sodipodi:namedview>
  <metadata
     id="metadata5165">
    <rdf:RDF>
      <cc:Work
         rdf:about="">
        <dc:format>image/svg+xml</dc:format>
        <dc:type
           rdf:resource="http://purl.org/dc/dcmitype/StillImage" />
        <dc:title />
      </cc:Work>
    </rdf:RDF>
  </metadata>
  <g
     id="layer1"
     inkscape:label="Layer 1"
     inkscape:groupmode="layer"
     transform="translate(-3.819132,-6.155729)">
    <g
       inkscape:label="shadow"
       style="display:inline"
       id="layer4"
       transform="translate(-392.7904,328.2799)" />
    <g
       inkscape:label="shadow"
       id="g3039"
       transform="translate(-840.833,182.2722)" />
    <g
       inkscape:label="color"
       id="g3041"
       transform="translate(-840.833,182.2722)">
      <path
         style="opacity:1;fill:#71c000;fill-opacity:1;stroke:#71c000;stroke-width:3.37896037;stroke-linejoin:bevel;stroke-miterlimit:4;stroke-dasharray:none;stroke-opacity:1"
         d=""
         id="path3043" />
      <path
         style="opacity:1;fill:#71c000;fill-opacity:1;stroke:#71c000;stroke-width:3.37896037;stroke-linejoin:bevel;stroke-miterlimit:4;stroke-dasharray:none;stroke-opacity:1"
         d=""
         id="path3045" />
      <path
         style="opacity:1;fill:#71c000;fill-opacity:1;stroke:#71c000;stroke-width:3.37896037;stroke-linejoin:bevel;stroke-miterlimit:4;stroke-dasharray:none;stroke-opacity:1"
         d=""
         id="path3047" />
    </g>
    <g
       inkscape:label="highlight"
       id="g3049"
       transform="translate(-840.833,182.2722)" />
    <g
       inkscape:label="text"
       id="g3089"
       transform="translate(-840.833,182.2722)" />
    <g
       id="g4774"
       inkscape:label="shadow"
       transform="translate(-1426.607,-26.2895)" />
    <g
       id="layer2"
       inkscape:label="color"
       transform="translate(-1426.607,-26.2895)">
      <path
         style="opacity:1;fill:#71c000;fill-opacity:1;stroke:#71c000;stroke-width:3.37896037;stroke-linejoin:bevel;stroke-miterlimit:4;stroke-dasharray:none;stroke-opacity:1"
         d=""
         id="path3422" />
      <path
         style="opacity:1;fill:#71c000;fill-opacity:1;stroke:#71c000;stroke-width:3.37896037;stroke-linejoin:bevel;stroke-miterlimit:4;stroke-dasharray:none;stroke-opacity:1"
         d=""
         id="path3426" />
      <path
         style="opacity:1;fill:#71c000;fill-opacity:1;stroke:#71c000;stroke-width:3.37896037;stroke-linejoin:bevel;stroke-miterlimit:4;stroke-dasharray:none;stroke-opacity:1"
         d=""
         id="path3428" />
    </g>
    <g
       id="g5777"
       inkscape:label="highlight"
       transform="translate(-1426.607,-26.2895)" />
    <g
       id="layer5"
       inkscape:label="text"
       transform="translate(-1426.607,-26.2895)" />
    <rect
       style="opacity:1;color:black;fill:url(#linearGradient13956);fill-opacity:1;fill-rule:evenodd;stroke:#2b2b2b;stroke-width:0.997;stroke-linecap:butt;stroke-linejoin:miter;marker:none;marker-start:none;marker-mid:none;marker-end:none;stroke-miterlimit:4;stroke-dasharray:none;stroke-dashoffset:0;stroke-opacity:1;visibility:visible;display:inline;overflow:visible"
       id="rect13948"
       width="50.730724"
       height="50.548958"
       x="4.9082928"
       y="7.219615"
       ry="7.0913997" />
    <g
       id="g6007"
       transform="matrix(-3.973892e-3,0.629601,-0.629601,-3.973892e-3,295.5792,-273.6194)"
       inkscape:export-xdpi="27.42"
       inkscape:export-ydpi="27.42"
       style="fill:white">
      <g
         transform="translate(415.3267,354.416)"
         id="g6011"
         style="fill:white" />
    </g>
    <g
       id="g3192"
       inkscape:label="openvaslogo"
       style="display:inline"
       transform="translate(-996.7028,556.527)" />
    <path
       style="opacity:1;color:black;fill:none;fill-opacity:1;fill-rule:evenodd;stroke:url(#linearGradient13966);stroke-width:1;stroke-linecap:butt;stroke-linejoin:miter;marker:none;marker-start:none;marker-mid:none;marker-end:none;stroke-miterlimit:4;stroke-dasharray:none;stroke-dashoffset:0;stroke-opacity:1;visibility:visible;display:inline;overflow:visible"
       d="M 2.1818182,45.429271 L 2,7.792907 C 2,7.792907 3.0909091,2.1565434 7.4545455,1.9747252 C 11.818182,1.792907 44.909091,1.9747252 44.909091,1.9747252 C 44.909091,1.9747252 50.727273,1.9747252 50.909091,9.2474525 C 51.090909,16.52018 50.727273,45.974725 50.727273,45.974725"
       id="path13958"
       transform="translate(3.819132,6.155729)" />
    <path
       style="fill:#ffffff"
       inkscape:connector-curvature="0"
       d="m 15.311424,36.976485 c 0,-2.52e-4 -2.383136,0.529923 -2.383136,0.529923 0,0 1.405355,-2.182901 1.405355,-2.182901 0,0 1.609042,-3.65054 1.609042,-3.65054 0,0 -4.814922,-2.098985 -4.814922,-2.098985 0,0 -2.9570794,-4.661064 -2.9570794,-4.661064 0,0 -0.3664681,-5.898503 -0.3664681,-5.898503 0,0 2.2359265,-4.642125 2.2359265,-4.642125 0,0 4.66039,-2.867188 4.66039,-2.867188 0,0 5.799858,-0.305025 5.799858,-0.305025 0,0 3.536072,1.780997 3.536072,1.780997 0,0 2.003707,0.131724 2.003707,0.131724 0,0 -1.520834,1.412341 -1.520834,1.412341 0,0 -4.629164,-0.467638 -4.629164,-0.467638 0,0 -4.111782,1.107737 -4.111782,1.107737 0,0 -2.311089,2.649192 -2.311089,2.649192 0,0 -0.748759,3.713077 -0.748759,3.713077 0,0 1.526557,2.799601 1.526557,2.799601 0,0 2.09242,0.249474 2.09242,0.249474 0,0 7.438023,-7.397032 7.438023,-7.397032 0,0 3.906075,-0.540781 3.906075,-0.540781 0,0 3.868452,2.191823 3.868452,2.191823 0,0 1.740765,-1.335833 1.740765,-1.335833 0,0 2.584383,-0.880146 2.584383,-0.880146 0,0 3.165985,1.073144 3.165985,1.073144 0,0 5.291398,6.387099 5.291398,6.387099 0,0 1.919034,0.356536 1.919034,0.356536 0,0 1.590778,-2.143931 1.590778,-2.143931 0,0 -0.148894,-3.912135 -0.148894,-3.912135 0,0 -2.138881,-3.052694 -2.138881,-3.052694 0,0 -2.997985,-1.012627 -2.997985,-1.012627 0,0 -2.425389,0.420925 -2.425389,0.420925 0,0 -3.028706,-0.239879 -3.028706,-0.239879 0,0 -0.429258,-0.955393 -0.429258,-0.955393 0,0 2.508211,-0.984767 2.508211,-0.984767 0,0 2.011618,-1.018434 2.011618,-1.018434 0,0 3.080554,-0.209106 3.080554,-0.209106 0,0 4.536663,1.766216 4.536663,1.766216 0,0 3.189973,4.418827 3.189973,4.418827 0,0 0.412424,6.270527 0.412424,6.270527 0,0 -2.752299,5.100589 -2.752299,5.100589 0,0 -3.871734,1.944284 -3.871734,1.944284 0,0 0.101002,1.489776 0.101002,1.489776 0,0 1.077352,0.134669 1.077352,0.134669 0,0 -0.446091,1.001601 -0.446091,1.001601 0,0 -2.516628,0.09258 -2.516628,0.09258 0,0 -4.848085,-2.146287 -4.848085,-2.146287 0,0 0.698596,2.912217 0.698596,2.912217 0,0 2.381958,0 2.381958,0 0,0 0.707013,2.466127 0.707013,2.466127 0,0 -2.381959,2.785965 -2.381959,2.785965 0,0 1.287773,1.53186 1.287773,1.53186 0,0 -1.641279,1.53186 -1.641279,1.53186 0,0 -0.252504,2.331458 -0.252504,2.331458 0,0 -3.316225,0.97635 -3.316225,0.97635 0,0 0.808014,2.609213 0.808014,2.609213 0,0 -5.142673,4.612414 -5.142673,4.612414 0,0 -3.530854,-4.393577 -3.530854,-4.393577 0,0 -2.543729,-0.218416 -2.543729,-0.218416 0,0 0.72494,-2.608876 0.72494,-2.608876 0,0 -2.903969,-1.333981 -2.903969,-1.333981 0,0 0.05084,-1.969029 0.05084,-1.969029 0,0 -2.010187,-1.997479 -2.010187,-1.997479 l -1.587916,-5.499041 c 0,0 -5.19267,1.84303 -5.19267,1.84303 l 0,2.52e-4 z"
       id="path3142" />
    <path
       inkscape:connector-curvature="0"
       d="m 39.651338,32.436454 c 0.06313,0.27868 0.03619,0.536824 0.06969,0.75987 0.03333,0.222877 0.09519,0.396179 0.131218,0.576972 0.145611,0.130208 0.192156,0.328256 0.436748,0.390541 0.244761,0.0622 0.627979,-0.03468 0.878379,-0.06835 0.2504,-0.03367 0.418231,-0.170104 0.61468,-0.132733 0.196617,0.03729 0.382881,0.178015 0.547598,0.309907 0.164717,0.131891 0.306288,0.151166 0.43961,0.480263 0.133322,0.329098 0.255619,1.003032 0.273883,1.4535 0.01826,0.450468 -0.03224,0.857084 -0.165727,1.214546 -0.133491,0.357462 -0.250821,0.515951 -0.612323,0.869962 -0.361502,0.354095 -0.950174,0.873665 -1.537584,1.235588 0.108156,0.160172 0.156132,0.306793 0.324805,0.4806 0.168673,0.173892 0.520328,0.368741 0.676796,0.552143 0.1563,0.183403 0.235587,0.314958 0.237859,0.520665 0.0024,0.205622 -0.0076,0.47294 -0.174564,0.697164 -0.415875,0.558288 -0.907754,0.658279 -1.505853,0.920884 0.100581,0.628063 0.182645,1.076763 0.03729,1.7039 -0.05934,0.255534 -0.191146,0.834948 -0.506356,0.983589 -0.315293,0.148641 -0.92324,0.07668 -1.308057,0.137783 -0.384816,0.06119 -0.600203,0.119266 -0.900178,0.178857 -0.182308,0.263531 -0.45375,0.554332 -0.546756,0.790507 -0.09317,0.23626 -0.06506,0.320933 0.01313,0.562159 0.07819,0.241226 0.344416,0.59246 0.419831,0.874928 0.07541,0.282468 0.09006,0.586568 0.0197,0.869794 -0.07053,0.283226 -0.191146,0.488764 -0.43254,0.740259 -0.24131,0.251578 -0.716103,0.449121 -0.952615,0.652976 -0.236681,0.203939 -0.472267,0.228432 -0.40771,0.565862 0.0888,0.46343 0.76593,1.215052 1.255788,1.393993 0.293579,0.107314 0.687654,0.07348 1.04419,-0.07701 -0.02416,0.395843 -0.36672,0.662656 -0.590524,0.925513 0.606095,-0.173302 1.193841,-0.505093 1.600373,-0.944871 -0.126083,0.381955 -0.559886,0.995119 -1.208738,1.533543 -0.648852,0.538424 -0.644896,0.428248 -0.967429,0.642455 0.588504,0.118257 1.135765,0.08627 1.59162,0.0044 -0.249895,0.137783 -0.659542,0.331539 -1.202174,0.38852 -0.542632,0.0569 -0.8772,0.01667 -1.366217,-0.102096 -0.489101,-0.118845 -0.935529,-0.563421 -1.528157,-0.869877 0.05774,0.219847 0.09881,0.484219 0.348035,0.710295 0.249222,0.226075 0.626296,0.341049 1.027104,0.536572 -0.510227,-0.05791 -1.046378,-0.07541 -1.547768,-0.185928 -0.371181,-0.0819 -0.620571,-0.168757 -0.892182,-0.303258 -0.271442,-0.1345 -0.481021,-0.330696 -0.721489,-0.496003 0.115226,0.2201 0.149398,0.479001 0.34551,0.660468 0.196112,0.181466 0.514856,0.249053 0.772663,0.373706 -0.268917,-0.0059 -0.527565,0.05244 -0.80633,-0.01767 -0.278934,-0.07011 -0.540528,-0.180288 -0.830487,-0.393907 -0.28996,-0.213619 -0.589009,-0.476644 -0.836463,-0.745561 -0.247286,-0.268917 -0.552648,-0.617542 -0.645065,-0.865501 -0.09258,-0.248044 0.05555,-0.421514 0.08333,-0.632019 -0.170778,0.112196 -0.380861,0.173976 -0.512079,0.336841 -0.131219,0.162865 -0.247539,0.311591 -0.189463,0.59549 0.05816,0.283899 0.320176,0.630924 0.50543,0.946723 -0.552817,-0.452067 -0.861545,-0.626127 -0.9931,-1.171452 -0.123138,-0.510564 0.195438,-0.973994 0.43759,-1.360073 0.120276,-0.191735 0.300228,-0.370172 0.412676,-0.555257 -0.249726,-0.244341 -0.535141,-0.45434 -0.74918,-0.733021 -0.213956,-0.278596 -0.303847,-0.65567 -0.522263,-0.92223 -0.218501,-0.266645 -0.512416,-0.435402 -0.768371,-0.652808 0.224981,0.483293 0.594732,1.07609 0.675028,1.450133 0.08021,0.374043 -0.08998,0.60298 -0.222709,0.8049 -0.132817,0.201919 -0.347109,0.246949 -0.550375,0.371013 -0.203266,0.124148 -0.519402,0.02626 -0.64052,0.210504 -0.121034,0.18416 -0.153523,0.461242 -0.03779,0.643718 l 0.474708,0.749265 c -0.174901,-0.08829 -0.476223,-0.345089 -0.612071,-0.527229 -0.135847,-0.18214 -0.344247,-0.350392 -0.37278,-0.596668 -0.02853,-0.246192 -0.04242,-0.459895 0.117077,-0.679237 0.159583,-0.219258 0.596416,-0.292653 0.791938,-0.461241 0.195523,-0.168589 0.305194,-0.278344 0.294,-0.496256 -0.01111,-0.217911 -0.223972,-0.37379 -0.406953,-0.511153 -0.558624,-0.418989 -1.275232,-0.805068 -1.749603,-1.310077 -0.267992,-0.28533 -0.396601,-0.515698 -0.450468,-0.712567 -0.05378,-0.196786 0.0031,-0.350308 0.136268,-0.592376 0.133154,-0.242152 0.589766,-0.565441 0.645317,-0.828467 0.05547,-0.262941 -0.175154,-0.319418 -0.383302,-0.412171 -0.208147,-0.09275 -0.603485,0.04755 -0.796567,-0.113796 -0.192997,-0.16135 0.05673,-0.500379 -0.160845,-0.686307 -0.217491,-0.185927 -0.715345,-0.08215 -0.972311,-0.282131 -0.256965,-0.200068 -0.363185,-0.448364 -0.45173,-0.738576 -0.08855,-0.290211 -0.09856,-0.608114 -0.03855,-0.818282 0.06001,-0.210168 0.2403,-0.24695 0.349045,-0.355863 0.108746,-0.108914 0.203098,-0.199226 0.05816,-0.361671 -0.144938,-0.16236 -0.619899,0.0091 -0.89294,-0.199394 -0.273042,-0.208484 -0.105884,-0.707854 -0.298965,-0.918359 -0.192998,-0.210504 -0.539434,-0.128103 -0.722247,-0.195354 -0.182729,-0.06725 -0.254441,0.17002 -0.366553,-0.205202 -0.112112,-0.375305 -0.115142,-1.493984 -0.265971,-1.911458 -0.150829,-0.417474 -0.447017,-0.0282 -0.584548,-0.443145 -0.13753,-0.414865 -0.0072,-1.078363 -0.0691,-1.704994 l -0.2807,-1.704994 c -0.260643,1.567052 -3.089427,0.995028 -4.333831,1.982471 -0.21808,0.391045 -0.72898,0.453414 -0.967513,0.374632 -0.397357,-0.131302 -0.905228,-0.222372 -1.397191,0.128188 -0.491963,0.350477 -1.023232,0.08543 -0.930058,-0.553489 0.09317,-0.638836 0.323963,-1.207897 0.936539,-1.560309 1.337853,-0.769634 0.408047,-1.30528 1.14233,-2.077691 0.735714,-0.773926 0.573185,-1.010775 0.548776,-2.061867 -2.486579,-0.373538 -3.89589,-1.09023 -5.469582,-3.056397 C 8.4388433,26.450418 7.8287926,24.831949 7.6656747,22.366832 7.5025569,19.901716 7.6439594,18.30412 8.709023,16.257908 c 1.0650636,-2.046211 2.186436,-3.031231 4.12971,-4.052948 1.943274,-1.021549 3.847325,-1.266226 5.607281,-1.23643 1.759956,0.02971 2.932671,0.158657 3.927117,0.726034 0.994363,0.567378 1.904052,1.281376 2.483971,1.28651 0.580002,0.0051 0.974835,-0.146789 1.256714,-0.362764 0.07525,1.910869 -1.644561,2.076849 -3.183155,2.117249 -1.538678,0.04032 -2.484138,-0.596163 -3.901277,-0.359398 -1.417139,0.236765 -3.737402,0.881662 -4.867696,2.849092 -1.130294,1.96743 -1.168843,2.662911 -1.074912,4.312775 0.09393,1.649948 1.514017,2.880907 2.315634,2.89429 0.801533,0.01338 0.980475,-0.218753 1.6821,-0.676375 0.70171,-0.457706 4.283822,-4.892021 5.506112,-5.888066 1.222374,-0.996046 2.428587,-1.303597 3.731005,-1.319588 1.302418,-0.01599 1.635219,0.0282 2.685637,0.458716 1.050419,0.430436 1.695904,1.223215 2.542804,1.707856 0.432877,-0.254777 0.701794,-0.635217 1.098983,-0.925513 1.420506,-1.038214 2.158576,-1.317989 3.846905,-1.153693 0.970375,0.09444 2.193927,0.648768 2.924001,1.283564 1.299977,1.130294 2.373963,2.703902 3.24182,3.899342 0.675786,0.930984 1.471007,2.044865 2.606267,2.393068 1.239544,0.380019 2.172295,-1.225404 2.309237,-2.115903 0.0776,-0.504588 0.178857,-0.946807 0.179699,-1.502148 8.42e-4,-0.555426 -0.05589,-1.229444 -0.215976,-1.808269 -0.160087,-0.578824 -0.434307,-1.154787 -0.731252,-1.632357 -0.483294,-0.777292 -1.180304,-1.590693 -2.003047,-2.009177 -0.461747,-0.234829 -1.548105,-0.661814 -2.232897,-0.676796 -0.839072,-0.01818 -1.478329,0.263699 -2.254107,0.316556 -0.938979,0.06405 -2.616282,0.275146 -3.352417,-0.450299 -0.46848,-0.461663 -0.527397,-0.769634 -0.607441,-1.371604 0.206969,0.170524 0.496424,0.282636 0.754062,0.304436 0.587999,0.04966 1.138543,-0.430436 1.613167,-0.708612 0.390961,-0.22919 0.944619,-0.638752 1.458129,-0.845721 1.319419,-0.531943 2.940161,-0.516624 4.332976,-0.374128 1.116406,0.114132 2.470095,0.610808 3.449223,1.164887 0.983757,0.55652 1.931743,1.494911 2.62613,2.379518 0.873581,1.113039 1.351151,2.068011 1.66754,3.456196 0.404427,1.77275 0.516539,4.435829 0.02761,6.183749 -0.385322,1.377412 -1.664762,3.493315 -2.753898,4.530519 -1.074153,1.023063 -2.314455,1.516878 -3.724945,1.786974 0.05521,0.284656 0.0643,0.550122 0.137278,0.783521 0.103695,0.331286 0.301996,0.700615 0.709369,0.58379 0.162445,-0.04655 0.249391,-0.08686 0.463599,0.100497 0.214039,0.187358 0.102601,0.91112 -0.499791,1.235925 -0.305446,0.164717 -0.62781,0.200488 -1.116995,0.210252 -0.489185,0.0098 -1.252675,0.01187 -1.783776,-0.08114 -0.531016,-0.09292 -0.848246,-0.514352 -1.436413,-0.58034 -0.908932,-0.101675 -2.021585,-0.966688 -2.750397,-1.436346 m -10.668034,3.385009 c 0.03038,-0.618215 0.253514,-1.139552 0.807509,-1.442726 0.286508,-0.156721 0.727886,-0.359398 1.133492,-0.407037 2.156544,-0.441332 3.484855,0.357277 5.112094,1.400019 0.561738,0.391466 0.891004,0.822491 1.28045,1.080887 0.187274,0.124148 0.45072,0.105715 0.699353,0.181635 -0.193334,0.0574 -0.446007,0.120697 -0.654576,0.05404 -1.052534,-0.114791 -1.861885,-0.94264 -2.626046,-1.407009 -1.027897,-0.769682 -2.026285,-0.676085 -3.226054,-0.668687 -1.56253,0.189456 -1.912545,1.44364 -1.818962,2.423758 0.02828,0.156132 0.104368,0.341638 0.156468,0.512416 -0.234408,-0.234488 -0.474287,-0.45282 -0.625706,-0.755573 -0.151586,-0.302921 -0.254272,-0.639088 -0.238022,-0.971723 z m -0.07053,-7.4525 c 0.251579,-0.02205 0.564011,0.04537 0.799598,0.03198 0.235586,-0.01338 0.403754,-0.07449 0.605674,-0.111775 -0.03745,-0.354853 -0.0019,-1.006819 -0.329519,-1.243753 -0.211598,-0.153017 -1.080634,-0.03779 -1.31277,0.01229 -0.522348,0.112617 -1.130631,0.424376 -1.635808,0.619309 0.484135,-0.338187 0.902367,-0.65163 1.483043,-0.826194 0.349045,-0.104958 1.163624,-0.241395 1.523864,-0.144096 0.164464,0.04436 0.197711,0.112448 0.29745,0.251831 0.342901,0.478748 0.341891,0.892519 0.430857,1.450217 0.08745,0.136268 0.180625,0.22717 0.251494,0.367731 0.0707,0.14056 0.110766,0.361754 0.130545,0.542547 -0.08972,-0.130124 -0.03485,-0.293326 -0.283394,-0.390203 -0.248717,-0.09688 -0.629494,-0.0064 -0.964567,0.02862 0.244256,0.176248 0.365626,0.346015 0.374969,0.718628 0.01094,0.437506 -0.359482,0.752379 -0.746235,0.782342 -0.536908,0.04166 -0.813737,-0.07626 -1.030891,-0.535141 -0.09511,-0.200993 -0.02618,-0.442808 -0.03409,-0.638752 -0.645149,0.04486 -0.634628,0.02382 -1.106138,0.416969 0.256292,0.375474 0.417727,0.591366 0.841261,0.816011 0.237522,0.126083 0.506439,0.248632 0.800775,0.298712 0.294421,0.05008 0.777293,0.09848 1.086527,0.05101 0.309318,-0.04747 0.484556,-0.135763 0.71383,-0.347783 0.229358,-0.212103 0.2504,-0.515782 0.339955,-0.75583 -0.02037,0.231042 -0.04688,0.525294 -0.132649,0.692873 -0.260921,0.509469 -0.712147,0.660467 -1.250907,0.66215 -0.517129,0.0017 -1.156807,-0.117583 -1.637912,-0.317061 -0.384648,-0.159414 -1.022306,-0.610892 -1.17364,-1.003116 -0.103443,-0.267991 -0.02155,-0.596836 -0.03241,-0.895296 0.532616,-0.35418 0.664423,-0.267066 1.29459,-0.370761 0.263615,-0.04343 0.444913,-0.141318 0.696498,-0.163459 z m 8.263376,0.589682 c -0.334737,0.0218 -0.414107,-0.02222 -0.68193,0.166653 0.14519,0.225908 0.290296,0.451815 0.435317,0.677722 -0.01279,-0.445923 0.03064,-0.535309 0.246613,-0.844375 z m -0.877032,-0.324047 c 0.463598,-0.197458 0.867521,-0.35721 1.371856,-0.388773 0.202172,-0.01271 0.516035,0.0186 0.720227,0.02786 0.173892,-0.256039 0.395506,-0.457959 0.476729,-0.750191 0.05378,-0.193839 0.02727,-1.093512 -0.06792,-1.327079 -0.277334,-0.679742 -0.546925,-0.708443 -0.928627,-1.097805 -0.276998,-0.282384 -0.288024,-0.712399 -0.370845,-1.194261 -0.03038,-0.177006 -0.117246,-0.400977 -0.157984,-0.583622 -0.498948,-0.08408 -1.03552,-0.111776 -1.609547,-0.08307 0.278344,-0.266982 0.54743,-0.510901 0.627305,-0.91171 0.07971,-0.400808 0.01481,-0.893613 -0.213029,-1.253011 -0.227844,-0.359398 -0.591787,-0.672503 -0.92585,-0.965324 -0.334232,-0.292821 -0.813233,-0.534552 -1.129873,-0.774094 0.411835,-0.147463 0.832339,-0.364112 1.235757,-0.442304 1.050923,-0.203855 1.956404,0.107904 2.970041,0.720732 0.589345,0.356452 1.076763,0.69506 1.692873,1.340041 0.615943,0.644896 1.379937,1.827879 1.976268,2.529421 0.596332,0.701541 1.077773,1.256378 1.598017,1.674777 0.520327,0.418484 0.991248,0.537666 1.486746,0.806415 l 0.772327,0.820135 0.625032,-0.773421 1.005725,0.113711 0.207811,-1.128863 0.923072,-0.252926 -0.150576,-1.52176 0.663665,-0.471004 -0.49878,-0.946808 0.506776,-1.034595 -0.660719,-1.182646 0.254776,-1.138711 -0.76492,-0.651882 -0.09982,-1.210086 -1.067084,-0.407037 -0.428079,-1.052775 -1.105983,-0.01347 -0.588503,-0.781501 -0.807678,0.05656 -0.900346,-0.09806 -0.509133,-0.375895 -0.738912,0.490532 -0.894119,-0.466207 -1.777378,0.674776 1.158658,-1.007661 1.200406,-0.191735 0.919622,-0.234408 1.241985,0.407878 1.093175,-0.276913 0.960288,0.623097 1.115396,-0.0617 0.547935,0.983168 1.110598,0.128188 0.600877,1.093092 0.698511,0.381365 0.185423,1.400306 0.622086,0.590018 -0.273546,1.225236 0.732852,0.92787 -0.687149,0.994194 0.734788,0.621413 -0.939316,0.832507 0.951352,0.990743 -1.148895,0.370508 0.748339,1.062623 -0.938475,0.16194 0.615438,1.168422 -1.057657,-0.01406 0.532784,0.87518 -1.160089,-0.139635 0.277502,1.259071 -0.876695,-0.771232 -0.300312,1.525968 -0.605001,-1.095701 -0.327666,1.366638 -0.746824,-1.007745 0.02037,1.433047 -0.825437,-1.28853 c 0.17406,0.731084 0.139214,1.531607 0.619394,2.22086 1.487756,-0.20133 2.46015,-0.576215 3.599955,-1.67301 1.03813,-0.998907 2.278937,-3.081648 2.614936,-4.402667 0.383386,-1.507451 0.395169,-4.27995 0.01759,-5.814672 -0.363438,-1.477655 -0.83579,-2.183489 -1.679743,-3.389282 -0.806668,-0.856748 -1.600037,-1.761808 -2.623858,-2.372784 -1.502906,-0.896812 -3.33627,-1.138627 -5.049092,-1.115312 -0.948406,0.01296 -1.583707,0.195101 -2.150748,0.401313 -0.991585,0.360577 -1.784617,1.147128 -2.792699,1.535816 -0.328761,0.126673 -0.592291,0.130629 -0.851192,-0.0077 0.253514,0.507197 0.529333,0.734704 1.161604,0.919285 0.45737,0.13349 1.548694,0.04907 2.299979,-0.02028 0.806499,-0.07449 1.227171,-0.314284 2.324808,-0.299218 1.071965,0.01473 1.92139,0.421935 2.38583,0.687486 0.958254,0.547934 1.551653,1.155797 2.148742,2.11868 0.327919,0.528744 0.557614,1.125328 0.719385,1.734116 0.161771,0.608788 0.23264,1.290635 0.242993,1.886629 0.01035,0.595995 -0.03518,1.128022 -0.180961,1.664341 -0.340965,1.25562 -1.093176,2.533293 -2.638335,2.335918 -0.945545,-0.120865 -2.371016,-1.895635 -2.848418,-2.546759 -0.963304,-1.314117 -1.954468,-2.76829 -3.16489,-3.862645 -0.737987,-0.667032 -1.748425,-1.126085 -2.740683,-1.216903 -1.861547,-0.170356 -2.413606,0.183235 -3.814837,1.33819 0.285077,0.0909 0.563337,0.141066 0.855485,0.272705 0.648347,0.292147 1.241311,0.669725 1.758525,1.154029 0.541958,0.507618 0.78512,0.828888 0.804395,1.555764 -1.331472,2.466546 -2.93971,1.598532 -5.223896,0.715345 -0.318576,0.03333 -0.611902,0.04065 -1.037877,0.181719 -0.425975,0.140981 -0.896728,0.476644 -1.28348,0.559718 -0.973994,0.209579 -1.168086,0.147463 -1.701123,0.0095 -0.938474,-0.242909 -2.160427,0.172965 -3.3743,0.561233 -0.201835,0.06456 -1.018182,0.0022 -1.567716,0.195018 -0.848752,0.297787 -2.039647,1.018939 -2.727469,1.598184 -1.04217,0.87779 -2.411754,3.504762 -3.185595,6.520001 -0.08131,0.916591 0.179362,1.534133 -0.398032,1.981823 -0.577393,0.44769 -0.561401,1.59465 -0.757176,1.91634 -0.195775,0.321607 -0.42244,0.179447 -0.84387,0.631177 -0.42143,0.451731 -0.635974,0.376232 -0.625369,1.23037 0.363185,-0.238785 0.892687,-0.516371 1.357632,-0.533121 0.41175,-0.0149 0.416127,0.527229 1.472942,-0.51755 0.565189,-0.55896 1.651043,-0.576047 2.404432,-0.822575 0.753473,-0.246529 2.111189,-0.754567 3.47101,-2.274812 -0.167022,-0.821899 0.94566,-0.08924 -0.846732,1.501054 -0.04966,0.626548 -0.06186,1.280029 0.142918,1.879559 0.204781,0.599445 -0.121623,1.290466 0.03417,1.685299 0.155795,0.394832 0.516119,0.170103 0.633786,0.569818 0.117667,0.399714 -0.06144,1.189969 0.121034,1.579583 0.182476,0.389615 0.630167,0.153186 0.847152,0.279018 0.216985,0.125915 0.287939,0.29846 0.404007,0.464019 0.115984,0.165474 -0.04537,0.556688 0.190641,0.683698 0.235923,0.127093 0.603991,0.01944 0.849509,0.141402 0.245518,0.12196 0.282805,0.415117 0.223971,0.677806 -0.05892,0.262689 -0.321269,0.383218 -0.436496,0.650283 -0.115142,0.26715 -0.102264,0.453077 0.03611,0.698343 0.138372,0.24535 0.444744,0.38044 0.750106,0.504252 0.305362,0.123811 0.734451,0.05429 1.049577,0.225486 0.315125,0.171198 0.598351,0.512331 0.764751,0.760291 0.166401,0.247875 0.212609,0.422776 0.204108,0.683445 -0.0086,0.260585 -0.1143,0.560812 -0.25343,0.812559 -0.13913,0.251747 -0.446091,0.558119 0.03316,1.038888 0.479254,0.480684 0.461578,0.273462 0.736135,0.585305 -0.02988,-0.539434 -0.252757,-0.978876 -0.08981,-1.384987 0.163034,-0.406111 0.652472,-0.476728 0.910447,-0.659373 0.257975,-0.182729 0.406532,-0.433718 0.609882,-0.650536 -0.0029,0.279018 0.02693,0.578993 -0.0048,0.789077 -0.06464,0.427153 -0.190725,0.806331 0.445838,0.874843 0.286761,0.03081 0.559045,-0.155122 0.860788,-0.266728 -0.158068,0.283057 -0.432961,0.510648 -0.474287,0.849424 -0.04133,0.338609 0.0083,0.710632 0.242825,1.046715 0.234576,0.335915 0.639593,0.58539 0.93637,0.782848 0.663872,0.549556 1.568491,0.02072 3.348633,-0.161771 0.396011,-0.317398 0.523778,-0.511826 0.665938,-0.819966 0.14216,-0.308139 0.102601,-0.804563 0.128861,-1.081561 0.130377,0.388016 0.148978,0.508629 0.191315,0.914571 0.04259,0.406028 -0.236597,0.975509 -0.354769,1.276074 0.489858,-0.236597 0.800776,-0.614764 0.957749,-0.984347 0.105042,0.06229 0.0521,0.233062 0.09073,0.562159 0.174565,-0.173723 0.373034,-0.307382 0.548777,-0.471341 0.175911,-0.163792 0.368572,-0.307887 0.455854,-0.536572 0.08711,-0.228685 0.05143,-0.471847 -0.01347,-0.737566 -0.06489,-0.265718 -0.361838,-0.573858 -0.521758,-0.864491 -0.159751,-0.290548 0.02828,-0.575794 0.01742,-0.925933 -0.319923,-0.05496 -0.591618,-0.217912 -0.959349,-0.16497 -0.367898,0.05286 -0.789244,0.465702 -1.165223,0.4705 -0.375979,0.0048 -0.587073,-0.347446 -0.895297,-0.444239 -0.308223,-0.09679 -0.620066,-0.08619 -0.929974,-0.129283 0.392561,-0.376063 1.916172,-0.555173 2.958342,-0.725108 0.917012,-0.149567 1.827038,-0.236008 2.75617,-0.249054 0.414949,-0.0059 0.948238,0.131134 1.236346,0.04831 0.28836,-0.08265 0.226833,-0.279018 0.312348,-0.493057 0.239206,-0.598267 0.121286,-1.131052 -0.0088,-1.733527 -0.834106,-0.0978 -1.703226,-0.217491 -2.543645,-0.152934 -0.821649,0.06313 -1.794633,0.453751 -2.642122,0.48018 -0.736808,0.02289 -1.82788,-0.14115 -2.460572,-0.526809 -0.879499,-0.333885 -1.295537,-0.510012 -2.05674,-1.110906 -1.055142,-0.852666 -2.060045,-1.024073 -0.424712,-1.033665 0.875814,0.209189 0.715723,0.834418 2.958349,1.821959 0.345679,0.137951 0.939317,0.224476 1.313023,0.270684 1.163035,0.144012 2.284828,-0.22456 3.427074,-0.506608 0.834948,-0.206212 1.682185,-0.123138 2.697673,-0.06346 0.344753,0.0202 1.157649,-0.18719 1.325985,-0.535899 0.0909,-0.188116 0.08417,-0.414191 -0.04638,-0.61468 -0.130714,-0.200488 -0.478833,-0.29745 -0.665434,-0.477907 -0.186601,-0.180456 -0.293915,-0.394664 -0.440872,-0.592038 -0.77561,0.148809 -1.413604,0.205959 -1.989314,0.221614 0.412928,-0.170103 0.809108,-0.267149 1.23887,-0.435233 0.429763,-0.168084 0.91777,-0.443987 1.264627,-0.672924 0.346857,-0.229022 0.568303,-0.361839 0.819292,-0.628315 0.250821,-0.266645 0.572596,-0.541286 0.757514,-0.867185 0.185085,-0.325899 0.213703,-0.690431 0.224055,-1.093765 0.01035,-0.403249 -0.0071,-0.969112 -0.162613,-1.294001 -0.155374,-0.324805 -0.455013,-0.423365 -0.695733,-0.500211 -0.240806,-0.07685 -0.405691,0.117499 -0.656091,0.143759 -0.250569,0.02626 -0.48464,0.18416 -0.8469,0.0138 -0.36226,-0.170357 -0.791685,-0.517129 -1.157985,-1.031817 -0.366132,-0.514773 -0.627979,-1.356118 -1.001264,-2.003371 -0.643466,-1.115732 -1.445336,-2.157986 -2.212192,-3.191824 -0.06313,-0.254945 -0.157983,-0.607273 -0.189546,-0.95312 -0.05505,-0.602644 -0.0654,-1.228686 0.121623,-1.81618 0.143338,-0.450047 0.351822,-0.925429 0.82308,-1.110009 0.188537,-0.0739 0.427069,-0.10319 0.595574,-0.04074 0.168673,0.06237 0.334063,0.252673 0.267823,0.47252 -0.07281,0.241731 -0.2403,0.248296 -0.354096,0.37034 -0.735517,0.201618 -0.801831,0.974366 -0.970812,1.749645 -0.06515,0.185338 0.0092,0.549665 0.04201,0.793332 z m 3.980571,3.670577 c 0.233556,0.115596 0.788403,0.612828 1.255283,0.827204 0.466881,0.214376 0.744888,0.331033 1.232727,0.423029 0.487754,0.092 0.875854,0.487081 1.355865,0.551302 0.48001,0.06422 1.376569,0.07718 1.746488,0.04107 0.419999,-0.04099 0.965661,-0.257723 1.014647,-0.718207 -0.352159,0.08686 -0.889994,0.0089 -1.161604,-0.653734 -0.120529,-0.294252 -0.06144,-0.835369 -0.245939,-1.18332 -0.184413,-0.348035 -0.441547,-0.459726 -0.74876,-0.888479 -0.307214,-0.428752 -0.809782,-1.105043 -1.091914,-1.679491 -0.281963,-0.574363 -0.348371,-1.224983 -0.586904,-1.739671 -0.238532,-0.514604 -0.598351,-0.930311 -0.8772,-1.326995 -0.608873,-0.866932 -1.09991,-1.459391 -2.103025,-1.896729 -0.482452,-0.210336 -1.031734,-0.266392 -1.5476,-0.39963 -0.209915,0.09401 -0.49777,0.197879 -0.54886,0.443397 -0.05109,0.245519 0.04705,0.608115 0.225233,0.792443 0.298208,0.30814 0.740091,0.641193 0.913814,1.130968 0.111607,0.314283 0.144012,1.3679 0.0473,1.653819 -0.100328,0.296861 -0.333558,0.476392 -0.527402,0.674103 0.102264,0.04032 0.141234,0.04915 0.270769,0.147715 0.129535,0.09856 0.308224,0.196954 0.410824,0.432456 0.10277,0.235587 0.09797,0.599866 0.07609,0.748255 -0.09006,-0.02643 -0.212861,-0.0086 -0.306287,-0.08846 -0.09317,-0.07987 -0.14881,-0.260753 -0.268328,-0.338188 -0.119688,-0.07735 -0.219427,-0.06043 -0.351655,-0.07718 0.06792,0.19325 0.100918,0.386585 0.06936,0.561823 -0.06851,0.382544 -0.29341,0.576299 -0.657522,0.622086 -0.158993,0.01995 -0.411498,-0.0324 -0.54987,-0.05757 0.06414,0.143255 1.94363,2.518749 1.862017,2.870336 -0.345679,-1.752306 1.092453,-0.872352 1.092453,-0.872352 z m -9.04884,-10.993373 c -0.03931,0.426732 0.03291,1.093849 0.121286,1.511659 1.722529,0.385097 4.156863,1.180659 4.233574,-1.179364 -0.324805,-0.835368 -1.579668,-1.505683 -2.3307,-1.833518 -0.447463,-0.327529 -1.165269,0.288784 -2.041756,-0.03283 l 0.132725,0.0571 c -0.697501,-0.636563 -1.31536,-1.223683 -2.293814,-1.661189 -0.978455,-0.437422 -1.460654,-0.503663 -2.582531,-0.478749 -1.121877,0.02483 -2.235253,0.118677 -3.534641,1.239208 -1.299304,1.12053 -4.648102,5.411338 -5.46024,5.954391 -0.812054,0.543053 -0.991921,0.727044 -2.006653,0.727297 -1.014731,2.52e-4 -2.598438,-1.435067 -2.66047,-3.228859 -0.06212,-1.793875 -0.08703,-2.431449 1.159921,-4.592466 1.247035,-2.161101 3.506108,-2.824683 5.182232,-3.048738 1.676209,-0.224056 2.683449,0.3663 3.92333,0.369077 1.239796,0.0029 2.465116,-0.211178 2.82645,-1.197208 -0.176837,0.105295 -0.413771,0.223972 -1.080046,0.189042 -0.666275,-0.03493 -1.590104,-0.806331 -2.629328,-1.323207 -1.039224,-0.516793 -2.195694,-0.57731 -3.678989,-0.605337 -1.483296,-0.02803 -3.334153,0.08535 -5.16784,1.075247 -1.833687,0.989902 -3.085352,2.040236 -4.1489002,3.977618 -1.0635487,1.937467 -1.2224581,3.519323 -1.0510076,5.865173 0.1714505,2.34585 0.8949598,4.090488 2.2880268,5.807433 1.393067,1.716946 2.785292,2.557029 5.295691,2.869377 l 0.528492,-2.331121 -0.943441,1.353928 0.02332,-1.505852 -0.853381,1.05892 -0.374296,-1.436077 -0.691357,1.151336 -0.343406,-1.603403 -1.001853,0.810286 0.317145,-1.323039 -1.325648,0.146705 0.608956,-0.919621 -1.208738,0.01473 0.703309,-1.227761 L 9.9751643,25.01089 10.830313,23.894231 9.5172897,23.504954 10.604405,22.463962 9.5310091,21.589203 10.370586,20.936226 9.5854658,19.891531 l 0.8374732,-0.974919 -0.312601,-1.287436 0.711137,-0.619899 0.211683,-1.471343 0.798082,-0.400809 0.686644,-1.148558 1.269171,-0.134753 0.626211,-1.03308 1.274727,0.06489 1.204614,-0.654744 1.249308,0.290969 1.419075,-0.428584 1.051007,0.246276 1.371604,0.201583 1.324218,1.058835 -2.03123,-0.709033 -1.021801,0.489943 -0.844628,-0.51553 -0.581517,0.395001 -1.028956,0.103022 -0.922735,-0.05959 -0.672672,0.821144 -1.371183,0.01414 -0.489101,1.106222 -1.21926,0.427742 -0.114048,1.271528 -0.874338,0.68496 0.291306,1.196535 -0.755073,1.242742 0.579245,1.087032 -0.57007,0.994867 0.758439,0.494909 -0.17204,1.599026 1.054795,0.265803 0.237607,1.186182 1.1494,-0.119435 0.714082,0.812728 0.882587,-0.861798 c 1.608959,-0.802291 2.27153,-1.251075 3.525467,-2.607276 1.427408,-1.543896 2.245522,-2.971304 4.14688,-4.028372 1.363693,-0.758186 2.475974,-1.031059 4.007835,-0.766351 1.90376,0.446145 2.59855,1.804598 3.125412,2.404857 z"
       id="path3144"
       sodipodi:nodetypes="ccccscssssccccccccccccscccccccccscccccsccccsccscccsccccccccccccccsccsccccccsccccsscccccsccccccccsccssccccccssssccsccscsccssscccccccccccccccccccccccccccccccccccccccccccccccccccccccccccsccccccccccccccccccccccscccccsccccccccccccccccccccccccccccccccccccccccccccccccccccccccccccccccccccccccccssccccccscccccsscccscscccccccssscccscccssccsccccccccccccscccccccccccsscccccccccccccccccsccscccscccscscccccccccccscsccccscccscscccccccccccccccccccccccccsccsccscsscssccccccccccccccccccccccccccccccccccccccccccccccccccccccccccccccc" />
  </g>
</svg>
