<?xml version="1.0" encoding="UTF-8" standalone="no"?>
<!-- Created with Inkscape (http://www.inkscape.org/) -->

<svg
   xmlns:dc="http://purl.org/dc/elements/1.1/"
   xmlns:cc="http://creativecommons.org/ns#"
   xmlns:rdf="http://www.w3.org/1999/02/22-rdf-syntax-ns#"
   xmlns:svg="http://www.w3.org/2000/svg"
   xmlns="http://www.w3.org/2000/svg"
   xmlns:xlink="http://www.w3.org/1999/xlink"
   xmlns:sodipodi="http://sodipodi.sourceforge.net/DTD/sodipodi-0.dtd"
   xmlns:inkscape="http://www.inkscape.org/namespaces/inkscape"
   width="52.509098"
   height="52.52018"
   viewBox="0 0 52.509098 52.52018"
   id="svg5160"
   sodipodi:version="0.32"
   inkscape:version="0.48.5 r10040"
   sodipodi:docname="a:google.svg"
   version="1.0"
   inkscape:export-xdpi="27.42"
   inkscape:export-ydpi="27.42">
  <defs
     id="defs5162">
    <linearGradient
       inkscape:collect="always"
       id="linearGradient13960">
      <stop
         style="stop-color:white;stop-opacity:1;"
         offset="0"
         id="stop13962" />
      <stop
         style="stop-color:white;stop-opacity:0;"
         offset="1"
         id="stop13964" />
    </linearGradient>
    <linearGradient
       id="linearGradient3898">
      <stop
         style="stop-color:#f0f0f0;stop-opacity:1;"
         offset="0"
         id="stop3900" />
      <stop
         style="stop-color:white;stop-opacity:1;"
         offset="1"
         id="stop3902" />
    </linearGradient>
    <linearGradient
       inkscape:collect="always"
       xlink:href="#linearGradient3898"
       id="linearGradient13956"
       x1="46.591862"
       y1="89.585007"
       x2="43.591812"
       y2="-74.733185"
       gradientUnits="userSpaceOnUse" />
    <linearGradient
       inkscape:collect="always"
       xlink:href="#linearGradient13960"
       id="linearGradient13966"
       x1="26.48"
       y1="1.3939171"
       x2="26.48"
       y2="52.84341"
       gradientUnits="userSpaceOnUse" />
  </defs>
  <sodipodi:namedview
     id="base"
     pagecolor="#ffffff"
     bordercolor="#666666"
     borderopacity="1.0"
     inkscape:pageopacity="0.0"
     inkscape:pageshadow="2"
     inkscape:zoom="7.9999999"
     inkscape:cx="8.0347023"
     inkscape:cy="17.039013"
     inkscape:current-layer="layer1"
     showgrid="false"
     inkscape:document-units="px"
     inkscape:grid-bbox="true"
     inkscape:window-width="1680"
     inkscape:window-height="1030"
     inkscape:window-x="-3"
     inkscape:window-y="-3"
     showguides="true"
     inkscape:guide-bbox="true"
     inkscape:window-maximized="1">
    <sodipodi:guide
       orientation="vertical"
       position="393.92276"
       id="guide5230" />
    <sodipodi:guide
       orientation="vertical"
       position="438.14907"
       id="guide5236" />
  </sodipodi:namedview>
  <metadata
     id="metadata5165">
    <rdf:RDF>
      <cc:Work
         rdf:about="">
        <dc:format>image/svg+xml</dc:format>
        <dc:type
           rdf:resource="http://purl.org/dc/dcmitype/StillImage" />
        <dc:title />
      </cc:Work>
    </rdf:RDF>
  </metadata>
  <g
     id="layer1"
     inkscape:label="Layer 1"
     inkscape:groupmode="layer"
     transform="translate(-3.819132,-6.155729)">
    <g
       inkscape:label="shadow"
       style="display:inline"
       id="layer4"
       transform="translate(-392.7904,328.2799)" />
    <g
       inkscape:label="shadow"
       id="g3039"
       transform="translate(-840.833,182.2722)" />
    <g
       inkscape:label="color"
       id="g3041"
       transform="translate(-840.833,182.2722)">
      <path
         style="opacity:1;fill:#71c000;fill-opacity:1;stroke:#71c000;stroke-width:3.37896037;stroke-linejoin:bevel;stroke-miterlimit:4;stroke-dasharray:none;stroke-opacity:1"
         d=""
         id="path3043" />
      <path
         style="opacity:1;fill:#71c000;fill-opacity:1;stroke:#71c000;stroke-width:3.37896037;stroke-linejoin:bevel;stroke-miterlimit:4;stroke-dasharray:none;stroke-opacity:1"
         d=""
         id="path3045" />
      <path
         style="opacity:1;fill:#71c000;fill-opacity:1;stroke:#71c000;stroke-width:3.37896037;stroke-linejoin:bevel;stroke-miterlimit:4;stroke-dasharray:none;stroke-opacity:1"
         d=""
         id="path3047" />
    </g>
    <g
       inkscape:label="highlight"
       id="g3049"
       transform="translate(-840.833,182.2722)" />
    <g
       inkscape:label="text"
       id="g3089"
       transform="translate(-840.833,182.2722)" />
    <g
       id="g4774"
       inkscape:label="shadow"
       transform="translate(-1426.607,-26.2895)" />
    <g
       id="layer2"
       inkscape:label="color"
       transform="translate(-1426.607,-26.2895)">
      <path
         style="opacity:1;fill:#71c000;fill-opacity:1;stroke:#71c000;stroke-width:3.37896037;stroke-linejoin:bevel;stroke-miterlimit:4;stroke-dasharray:none;stroke-opacity:1"
         d=""
         id="path3422" />
      <path
         style="opacity:1;fill:#71c000;fill-opacity:1;stroke:#71c000;stroke-width:3.37896037;stroke-linejoin:bevel;stroke-miterlimit:4;stroke-dasharray:none;stroke-opacity:1"
         d=""
         id="path3426" />
      <path
         style="opacity:1;fill:#71c000;fill-opacity:1;stroke:#71c000;stroke-width:3.37896037;stroke-linejoin:bevel;stroke-miterlimit:4;stroke-dasharray:none;stroke-opacity:1"
         d=""
         id="path3428" />
    </g>
    <g
       id="g5777"
       inkscape:label="highlight"
       transform="translate(-1426.607,-26.2895)" />
    <g
       id="layer5"
       inkscape:label="text"
       transform="translate(-1426.607,-26.2895)" />
    <rect
       style="opacity:1;color:black;fill:url(#linearGradient13956);fill-opacity:1;fill-rule:evenodd;stroke:#2b2b2b;stroke-width:0.997;stroke-linecap:butt;stroke-linejoin:miter;marker:none;marker-start:none;marker-mid:none;marker-end:none;stroke-miterlimit:4;stroke-dasharray:none;stroke-dashoffset:0;stroke-opacity:1;visibility:visible;display:inline;overflow:visible"
       id="rect13948"
       width="50.730724"
       height="50.548958"
       x="4.9082928"
       y="7.219615"
       ry="7.0913997" />
    <g
       id="g6007"
       transform="matrix(-3.973892e-3,0.629601,-0.629601,-3.973892e-3,295.5792,-273.6194)"
       inkscape:export-xdpi="27.42"
       inkscape:export-ydpi="27.42"
       style="fill:white">
      <g
         transform="translate(415.3267,354.416)"
         id="g6011"
         style="fill:white" />
    </g>
    <g
       id="g3192"
       inkscape:label="openvaslogo"
       style="display:inline"
       transform="translate(-996.7028,556.527)" />
    <path
       style="opacity:1;color:black;fill:none;fill-opacity:1;fill-rule:evenodd;stroke:url(#linearGradient13966);stroke-width:1;stroke-linecap:butt;stroke-linejoin:miter;marker:none;marker-start:none;marker-mid:none;marker-end:none;stroke-miterlimit:4;stroke-dasharray:none;stroke-dashoffset:0;stroke-opacity:1;visibility:visible;display:inline;overflow:visible"
       d="M 2.1818182,45.429271 L 2,7.792907 C 2,7.792907 3.0909091,2.1565434 7.4545455,1.9747252 C 11.818182,1.792907 44.909091,1.9747252 44.909091,1.9747252 C 44.909091,1.9747252 50.727273,1.9747252 50.909091,9.2474525 C 51.090909,16.52018 50.727273,45.974725 50.727273,45.974725"
       id="path13958"
       transform="translate(3.819132,6.155729)" />
    <g
       id="Layer_1"
       transform="translate(-322.18087,-160.58559)" />
    <rect
       style="fill:#ffffff;fill-opacity:1;stroke:none"
       id="rect4210"
       width="42"
       height="42"
       x="9.1224356"
       y="11.653307"
       rx="3"
       ry="3" />
    <path
       inkscape:connector-curvature="0"
       d="m 20.748158,36.829972 c 0.0317,0.02994 0.01109,0.05831 0.01109,0.05831 0,0 -7.423677,0.07604 -11.4974011,2.889238 -0.1673357,0.116051 -0.150844,0.09189 -0.150844,0.09189 l 0,-13.888703 c 0,0 2.7009891,5.833981 10.3935661,4.647152 0.09118,-0.01331 0.09289,0.04205 0.09289,0.04205 0,0 -1.991683,3.152539 1.150719,6.160062"
       style="fill:#3a63ac;fill-opacity:1;fill-rule:nonzero;stroke:none"
       id="path3108" />
    <path
       inkscape:connector-curvature="0"
       d="m 15.661816,43.005355 c -2.283958,0.883576 -3.88702,2.954762 -3.88702,5.369201 0,2.317068 1.479525,4.383634 3.619258,5.322695 0,0 0.195272,0.07946 0.222675,0.08048 0.02737,3.4e-4 11.52567,0 11.52567,0 0,0 0.08777,-0.0564 0.133763,-0.0964 5.485275,-4.892633 1.223138,-8.668422 -3.476617,-11.863157 -0.08481,-0.0577 -0.202817,-0.07041 -0.202817,-0.07041 l -0.01447,-0.0036 c -0.976061,-0.116134 -2.432373,-0.05685 -4.035154,0.199139 -1.560425,0.25089 -2.932213,0.635096 -3.826807,1.038606 l -0.05849,0.02339 z"
       style="fill:#f2b904;fill-opacity:1;fill-rule:nonzero;stroke:none"
       id="path3110" />
    <path
       inkscape:connector-curvature="0"
       d="m 51.044355,14.88118 c 0,-1.841337 -1.377663,-3.334444 -3.075898,-3.334444 l -0.01097,3.96e-4 -16.82624,0 -0.08662,-0.0079 c 2.291543,2.073222 3.760669,4.879471 3.760669,8.122758 0,2.312169 -0.808364,4.281114 -1.758415,5.826873 l 0.01347,-0.0065 c 1.217693,-0.936855 5.521147,-2.554402 9.675913,-1.838151 3.674913,0.635102 6.527517,2.439142 8.182285,4.232199 l 0.125807,0.133958 0,-13.129183 z"
       style="fill:#e22025;fill-opacity:1;fill-rule:nonzero;stroke:none"
       id="path3112" />
    <path
       inkscape:connector-curvature="0"
       d="m 51.042186,50.183605 0,-22.125357 0.0026,-0.04789 -0.125807,-0.133959 c -1.654769,-1.793057 -4.507372,-3.597096 -8.182286,-4.2322 -4.154766,-0.716249 -8.458227,0.901299 -9.675909,1.838154 l -0.04954,0.04594 -0.182184,0.206793 c 0,0 -0.682545,0.796863 -1.428282,1.571067 -0.744731,0.774305 -1.828949,1.731679 -1.828949,1.731679 -0.934633,0.761818 -1.503294,1.770065 -1.503294,2.875979 0,1.109556 0.653989,2.173562 1.594219,2.935817 0,0 1.561052,1.237893 2.607817,2.18848 1.046363,0.95116 2.282912,2.254174 2.282912,2.254174 1.4172,1.445242 2.332662,3.734359 2.332662,6.310407 0,2.218557 -0.678088,4.222563 -1.771236,5.659456 l -1.674961,2.277106 14.508935,0 0.01795,-0.0014 c 1.698567,0 3.075788,-1.49376 3.075788,-3.335909 l 0,-0.01835 z"
       style="fill:#1b813e;fill-opacity:1;fill-rule:nonzero;stroke:none"
       id="path3114" />
    <path
       inkscape:connector-curvature="0"
       d="m 17.730358,11.700337 c -2.782525,1.460977 -3.207487,5.061752 -2.294075,8.400579 1.207275,4.412693 4.394792,7.493223 7.630917,6.47602 4.513985,-1.419228 4.465884,-5.089058 3.25809,-9.501853 -0.627137,-2.294588 -2.265198,-4.451535 -3.883775,-5.376326 l -0.01198,-0.0083 -4.677616,0 -0.02155,0.0099 z"
       style="fill:#3a63ac;fill-opacity:1;fill-rule:nonzero;stroke:none"
       id="path3116" />
  </g>
</svg>
