<svg width="1088" height="412" viewBox="0 0 1088 412" fill="none" xmlns="http://www.w3.org/2000/svg">
<path fill-rule="evenodd" clip-rule="evenodd" d="M216.906 90C214.595 101.137 209.296 122.798 206.204 135.175C183.438 149.055 154.485 178.918 138.64 198.83C120.682 221.397 83.6155 250.54 90.9475 267.348C99.3615 286.636 112.443 296.912 131.182 305.682C137.808 281.433 184.333 266.074 198.134 256.296C201.255 254.085 203.575 252.053 204.97 248.317C206.366 244.58 196.808 233.379 200.464 224.027C204.438 213.86 217.244 201.628 230.492 201.628C219.894 204.577 210.179 216.954 208.854 225.353C207.348 234.898 221.766 246.001 216.16 255.342C214.917 257.335 212.319 260.352 209.616 262.497C192.041 276.448 147.914 290.776 144.77 307.145C152.154 314.193 176.916 325.87 184.858 320.732C217.976 299.309 317.045 252.76 253.014 201.628C277.743 204.722 288.293 225.034 289.225 247.013C309.49 233.874 315.452 213.336 307.772 195.874C297.079 171.561 279.49 149.32 253.014 135.175C249.923 117.051 237.558 98.9269 216.906 90ZM113.517 247.661C115.023 247.29 116.512 258.181 114.352 260.172C112.47 261.908 105.2 262.31 103.802 260.94C102.394 259.56 110.682 248.359 113.517 247.661ZM187.697 175.956C191.409 174.596 195.678 179.909 196.489 183.8C197.427 188.296 192.853 193.886 191.19 195.736C189.998 197.062 181.917 208.997 166.942 201.628C162.928 199.653 178.384 179.366 187.697 175.956Z" fill="white"/>
<path d="M168.669 102.021C175.478 104.993 192.8 115.689 197.627 129.24C186.556 136.468 174.501 146.752 163.237 157.632C165.733 138.686 167.723 112.977 168.669 102.021Z" fill="white"/>
<path d="M425.483 199.764V250.348H411.204L409.419 241.578C404.829 246.281 396.16 252 384.048 252C364.287 252 356 238.401 356 206.246C356 171.549 366.454 161 395.395 161C405.722 161 414.136 161.763 422.423 164.05L420.893 178.285C412.224 177.904 403.682 177.649 396.032 177.649C381.371 177.649 376.526 181.462 376.526 206.881C376.526 228.742 379.968 235.478 390.933 235.478C397.18 235.478 402.28 233.444 406.742 231.029V199.764H425.483Z" fill="white"/>
<path d="M485.089 185.911L483.177 203.323H478.077C472.723 203.323 467.241 204.848 458.826 207.644V250.348H439.957V187.69H454.619L456.276 196.841C464.691 189.723 473.615 185.911 481.775 185.911H485.089Z" fill="white"/>
<path d="M533.277 225.31H510.584C511.731 234.715 515.938 236.876 525.5 236.876C531.238 236.876 540.417 236.367 548.959 235.478L550.744 247.17C543.349 250.729 532.257 251.873 523.333 251.873C499.492 251.873 490.568 242.214 490.568 219.082C490.568 194.299 499.747 185.911 522.568 185.911C543.987 185.911 552.274 193.409 552.401 207.771C552.401 219.209 546.919 225.31 533.277 225.31ZM510.201 213.999H528.05C533.15 213.999 533.915 211.075 533.915 207.517C533.915 201.67 531.365 199.637 523.206 199.637C513.771 199.637 510.711 202.179 510.201 213.999Z" fill="white"/>
<path d="M604.618 225.31H581.924C583.072 234.715 587.279 236.876 596.841 236.876C602.578 236.876 611.758 236.367 620.3 235.478L622.084 247.17C614.69 250.729 603.598 251.873 594.674 251.873C570.833 251.873 561.908 242.214 561.908 219.082C561.908 194.299 571.088 185.911 593.909 185.911C615.327 185.911 623.614 193.409 623.742 207.771C623.742 219.209 618.26 225.31 604.618 225.31ZM581.542 213.999H599.391C604.491 213.999 605.255 211.075 605.255 207.517C605.255 201.67 602.706 199.637 594.546 199.637C585.112 199.637 582.052 202.179 581.542 213.999Z" fill="white"/>
<path d="M651.225 187.69L652.628 196.968C661.425 189.851 670.604 185.911 679.528 185.911C691.003 185.911 697.122 192.011 697.122 203.323V250.348H678.381V209.169C678.381 203.45 676.851 201.797 672.261 201.797C667.162 201.797 662.19 203.831 654.795 207.517V250.348H635.926V187.69H651.225Z" fill="white"/>
<path d="M730.988 161.381V181.335C730.988 186.546 730.606 191.503 729.331 196.078C735.323 189.978 743.355 185.911 751.642 185.911C767.833 185.911 774.718 195.189 774.718 218.447C774.718 237.638 769.108 251.873 743.992 251.873C735.068 251.873 719.769 250.348 711.992 247.043V161.381H730.988ZM730.861 206.246V236.749C735.068 237.638 740.04 238.02 743.61 237.892C752.152 237.638 755.339 233.444 755.339 218.574C755.339 204.975 753.427 200.908 744.12 200.908C739.148 200.908 735.451 203.196 730.861 206.246Z" fill="white"/>
<path d="M817.402 185.911C840.86 185.911 849.657 194.934 849.657 219.082C849.657 243.103 840.86 252 817.402 252C793.816 252 785.019 243.103 785.019 219.082C785.019 194.934 793.816 185.911 817.402 185.911ZM817.402 200.018C807.457 200.018 804.78 203.831 804.78 219.082C804.78 234.08 807.457 237.892 817.402 237.892C827.091 237.892 829.896 234.08 829.896 219.082C829.896 203.831 827.091 200.018 817.402 200.018Z" fill="white"/>
<path d="M877.822 187.69L879.224 196.968C888.021 189.851 897.201 185.911 906.125 185.911C917.6 185.911 923.719 192.011 923.719 203.323V250.348H904.978V209.169C904.978 203.45 903.448 201.797 898.858 201.797C893.759 201.797 888.786 203.831 881.392 207.517V250.348H862.523V187.69H877.822Z" fill="white"/>
<path d="M978.876 225.31H956.183C957.33 234.715 961.537 236.876 971.099 236.876C976.836 236.876 986.016 236.367 994.558 235.478L996.343 247.17C988.948 250.729 977.856 251.873 968.932 251.873C945.091 251.873 936.166 242.214 936.166 219.082C936.166 194.299 945.346 185.911 968.167 185.911C989.586 185.911 997.873 193.409 998 207.771C998 219.209 992.518 225.31 978.876 225.31ZM955.8 213.999H973.649C978.749 213.999 979.514 211.075 979.514 207.517C979.514 201.67 976.964 199.637 968.804 199.637C959.37 199.637 956.31 202.179 955.8 213.999Z" fill="white"/>
</svg>
