<?xml version="1.0" encoding="UTF-8" standalone="no"?>
<svg xmlns="http://www.w3.org/2000/svg" width="256" height="256" version="1.1" viewBox="0 0 67.733 67.733">
  <style
     id="style2">.gui_icon_class {
    opacity:1;
    stroke-linejoin:miter;
    stroke-opacity:1;
    fill-opacity:1;
    fill-rule:nonzero;
    paint-order:stroke fill markers;
    stroke:none;
    stroke-linecap:butt;
    stroke-miterlimit:4;
    stroke-dasharray:none;
    stroke-width:11.33858299;
    fill:#000000;
}</style>
  <g
     transform="translate(0 -229.27)"
     id="g8">
    <g
       transform="matrix(2.0878 0 0 2.2337 41.673 -337.41)"
       id="g6" />
    <path
       d="m 19.050769,271.62467 c -6.10533,1.03197 -10.5765503,6.31629 -10.5834703,12.50811 0,7.01397 5.6860603,12.69992 12.7001703,12.69992 7.01411,0 12.70017,-5.68595 12.70017,-12.69992 -10e-4,-6.19632 -4.47371,-11.48729 -10.58348,-12.52001 z m 2.1167,4.04149 c 4.67607,0 8.46678,3.79063 8.46678,8.46662 0,4.67598 -3.79071,8.46661 -8.46678,8.46661 -4.67607,0 -8.46678,-3.79063 -8.46678,-8.46661 0,-4.67599 3.79071,-8.46662 8.46678,-8.46662 z m -8.466786,-46.38647 c -7.0141108,0 -12.700171,5.68595 -12.700171,12.69992 0,7.01398 5.6860602,12.69993 12.700171,12.69993 5.376888,-0.006 10.167298,-3.39733 11.959592,-8.46662 h 13.44075 v 12.69993 H 19.050768 v 4.23331 8.46661 h 4.233391 v -8.46661 h 29.633732 v 8.65843 c -6.105335,1.03197 -10.576557,6.31629 -10.583476,12.50811 0,7.01397 5.68606,12.69992 12.700171,12.69992 7.014111,0 12.700171,-5.68595 12.700171,-12.69992 -0.0011,-6.19632 -4.473707,-11.48729 -10.583476,-12.52001 v -8.64653 -4.23331 H 42.334415 V 241.97961 H 25.400854 c 0,-7.01397 -5.68606,-12.69992 -12.700171,-12.69992 z m 0,4.23331 c 4.676074,0 8.466781,3.79063 8.466781,8.46661 0,4.67599 -3.790707,8.46662 -8.466781,8.46662 -4.6760739,0 -8.4667807,-3.79063 -8.4667807,-8.46662 0,-4.67598 3.7907068,-8.46661 8.4667807,-8.46661 z m 42.333903,42.33308 c 4.676073,0 8.466781,3.79063 8.466781,8.46662 0,4.67598 -3.790708,8.46661 -8.466781,8.46661 -4.676073,0 -8.466781,-3.79063 -8.466781,-8.46661 0,-4.67599 3.790708,-8.46662 8.466781,-8.46662 z"
       style="opacity:1;fill:#000000;fill-opacity:1;fill-rule:nonzero;stroke:none;stroke-width:3.00001121;stroke-linecap:butt;stroke-linejoin:miter;stroke-miterlimit:4;stroke-dasharray:none;stroke-opacity:1;paint-order:stroke fill markers"
       id="path4-3-6" />
  </g>
</svg>
