<?xml version="1.0" encoding="UTF-8"?>
<svg width="256" height="256" version="1.1" viewBox="0 0 67.733 67.733" xmlns="http://www.w3.org/2000/svg">
 <g transform="translate(0 -229.27)">
  <g>
   <path d="m10.72 267.04v3.8224h-0.31718q-0.35784-1.4964-1.3338-2.2935-0.97594-0.79701-2.2121-0.79701-1.0329 0-1.8949 0.59369-0.86208 0.5937-1.2606 1.5534-0.51237 1.2281-0.51237 2.7326 0 1.4802 0.37411 2.7001 0.37411 1.2118 1.1711 1.838 0.79702 0.61809 2.0657 0.61809 1.041 0 1.9031-0.45543 0.87021-0.45544 1.8299-1.5696v0.95154q-0.92714 0.96781-1.9356 1.407-1.0003 0.43104-2.3423 0.43104-1.7648 0-3.1393-0.70756-1.3663-0.70755-2.1145-2.0332-0.74008-1.3256-0.74008-2.8221 0-1.5778 0.82141-2.9929 0.82955-1.4151 2.2284-2.1959 1.407-0.78075 2.9847-0.78075 1.163 0 2.4561 0.50424 0.74822 0.29278 0.95154 0.29278 0.26025 0 0.4473-0.18706 0.19518-0.19519 0.25212-0.60996z"/>
   <path d="m16.177 267.93v4.4893h0.21959q1.0491 0 1.5208-0.65876 0.4717-0.65876 0.60183-1.9438h0.30905v5.7743h-0.30905q-0.0976-0.94341-0.41477-1.5452-0.30905-0.60183-0.72382-0.80515-0.41477-0.21145-1.2037-0.21145v3.1067q0 0.91087 0.07319 1.1142 0.08133 0.20333 0.29278 0.33345 0.21145 0.13011 0.68316 0.13011h0.65876q1.5452 0 2.4724-0.71568 0.93527-0.71569 1.3419-2.1796h0.30092l-0.4961 3.5052h-9.5317v-0.30092h0.36598q0.47984 0 0.77262-0.17079 0.21145-0.11387 0.32531-0.39038 0.08946-0.19518 0.08946-1.0247v-7.2545q0-0.74822-0.04066-0.91901-0.08133-0.28463-0.30091-0.43916-0.30905-0.22771-0.84581-0.22771h-0.36597v-0.30092h9.2307v3.2613h-0.30905q-0.23585-1.1955-0.66689-1.716-0.42291-0.52051-1.2037-0.76449-0.45544-0.14638-1.7079-0.14638h-1.1386z"/>
   <path d="m27.189 273.3v3.0905q0 0.89461 0.10573 1.1305 0.11385 0.22772 0.39037 0.36598 0.27652 0.13826 1.0329 0.13826v0.30092h-5.6442v-0.30092q0.76448 0 1.0329-0.13826 0.27652-0.14638 0.38224-0.37411 0.11387-0.22772 0.11387-1.1223v-7.1569q0-0.89461-0.11387-1.1223-0.10573-0.23585-0.38224-0.37411-0.27652-0.13826-1.0329-0.13826v-0.30091h5.1237q2.0007 0 2.9278 0.27651 0.92714 0.27652 1.5127 1.0247 0.58556 0.74008 0.58556 1.7404 0 1.2199-0.87834 2.0169-0.56116 0.50424-1.5696 0.75635l2.6513 3.733q0.5205 0.72382 0.74009 0.90274 0.33344 0.25212 0.77262 0.27652v0.30091h-3.4727l-3.554-5.0261h-0.72382zm0-5.4083v4.8309h0.46357q1.1305 0 1.6916-0.20333 0.56117-0.21145 0.87834-0.74822 0.32531-0.54489 0.32531-1.4151 0-1.2606-0.5937-1.8624-0.58556-0.60183-1.8949-0.60183h-0.87021z"/>
   <path d="m44.723 267.3v2.9848h-0.29278q-0.26025-1.0329-0.57743-1.4802-0.31718-0.45544-0.87021-0.72382-0.30905-0.14638-1.0817-0.14638h-0.82141v8.5069q0 0.84581 0.08946 1.0573 0.0976 0.21146 0.36598 0.37411 0.27652 0.15453 0.74822 0.15453h0.36598v0.30092h-5.7743v-0.30092h0.36598q0.47984 0 0.77262-0.17079 0.21145-0.11387 0.33345-0.39038 0.08946-0.19518 0.08946-1.0247v-8.5069h-0.79702q-1.1142 0-1.6184 0.4717-0.70755 0.65876-0.89461 1.8787h-0.30905v-2.9847h9.9058z"/>
   <path d="m8.0219 290.1q1.7837 0.41588 2.5045 1.0074 1.0351 0.84101 1.0351 2.1811 0 1.414-1.1367 2.3382-1.3955 1.1183-4.0572 1.1183h-6.3676v-0.34195q0.86873 0 1.1737-0.15709 0.31422-0.16636 0.43437-0.42513 0.12939-0.25877 0.12939-1.2754v-8.1328q0-1.0166-0.12939-1.2754-0.12015-0.26801-0.43437-0.42512-0.31422-0.15712-1.1737-0.15712v-0.34195h6.0072q2.1533 0 3.0498 0.38816 0.89646 0.37891 1.414 1.146 0.51754 0.75783 0.51754 1.6173 0 0.9057-0.65617 1.6173-0.65617 0.70238-2.3105 1.1183zm-3.364-0.24953q1.3123 0 1.9315-0.29574 0.62845-0.29574 0.96115-0.83176 0.33271-0.53603 0.33271-1.3678 0-0.83176-0.33271-1.3586-0.32346-0.53602-0.93343-0.81328-0.60996-0.27725-1.9593-0.26801zm0 0.72086v4.0202l-0.00922 0.4621q0 0.49905 0.24953 0.75783 0.25877 0.24953 0.75783 0.24953 0.73935 0 1.3585-0.32347 0.62845-0.33271 0.96115-0.95191 0.33271-0.62844 0.33271-1.3955 0-0.87797-0.40664-1.5711-0.40664-0.70238-1.1183-0.97963-0.71162-0.27726-2.1256-0.26802z"/>
   <path d="m21.229 288.1v6.765q0 0.98888 0.18483 1.2384 0.18483 0.24028 0.74859 0.30498v0.3327h-3.5211v-1.1552q-0.6192 0.73935-1.2384 1.0813-0.6192 0.33271-1.3863 0.33271-0.73011 0-1.3031-0.44361-0.56375-0.45285-0.75783-1.0536-0.19407-0.60072-0.19407-2.0979v-3.4287q0-0.97964-0.18483-1.2199-0.1756-0.24028-0.74859-0.31422v-0.34195h3.5211v5.9055q0 0.92418 0.08318 1.1922 0.09242 0.26801 0.27725 0.40664 0.19407 0.13862 0.44361 0.13862 0.33271 0 0.60072-0.17559 0.36967-0.24029 0.88722-0.9704v-4.6209q0-0.97963-0.18483-1.2199-0.17559-0.24029-0.74859-0.31422v-0.34195h3.5211z"/>
   <path d="m26.949 288.1v1.1183q0.66541-0.72087 1.2754-1.0443 0.60996-0.33271 1.3123-0.33271 0.84101 0 1.3955 0.47134 0.55451 0.46209 0.73935 1.1552 0.14786 0.52679 0.14786 2.024v3.364q0 0.99812 0.1756 1.2476 0.18483 0.24028 0.75783 0.30498v0.3327h-4.3714v-0.3327q0.48982-0.0647 0.70238-0.40664 0.14786-0.23105 0.14786-1.146v-3.8446q0-1.0628-0.08318-1.3401-0.08318-0.27726-0.2865-0.42513-0.19409-0.15712-0.43437-0.15712-0.7948 0-1.4787 1.1368v4.6302q0 0.97039 0.17559 1.2292 0.18483 0.25878 0.67465 0.32347v0.33271h-4.3714v-0.33271q0.54527-0.0555 0.77631-0.35119 0.15712-0.20333 0.15712-1.2014v-4.8797q0-0.97964-0.18483-1.2199-0.1756-0.24028-0.74859-0.31422v-0.34195h3.5211z"/>
   <path d="m42.355 284.21v9.9442q0 1.0074 0.05544 1.1922 0.07394 0.30497 0.27726 0.45284 0.21256 0.14787 0.7301 0.18484v0.30498l-3.6505 0.71162v-1.3678q-0.65617 0.7948-1.1737 1.0813-0.5083 0.2865-1.1552 0.2865-1.6543 0-2.6154-1.4787-0.77631-1.2014-0.77631-2.9482 0-1.3955 0.48057-2.4953 0.48058-1.109 1.3123-1.6728 0.84101-0.56375 1.8022-0.56375 0.6192 0 1.0998 0.24028 0.48057 0.24029 1.0258 0.84101v-2.6062q0-0.98887-0.08318-1.1922-0.11091-0.26802-0.33271-0.3974-0.2218-0.12939-0.83177-0.12939v-0.38816h3.8354zm-2.5877 5.8593q-0.6839-1.3124-1.6728-1.3124-0.34195 0-0.56375 0.18484-0.34195 0.28649-0.56375 1.0074-0.21256 0.72086-0.21256 2.2088 0 1.6358 0.24029 2.4214 0.24029 0.78555 0.65617 1.1367 0.21256 0.1756 0.58224 0.1756 0.81328 0 1.5341-1.2754v-4.547z"/>
  </g>
  <path transform="matrix(.26458 0 0 .26458 0 229.27)" d="m126.38 0.0019531c-1.0611-2.7957e-4 -2.1232 0.013213-3.1856 0.039062-11.331 0.27591-22.721 2.0402-33.875 5.3652-44.615 13.3-78.681 49.514-89.232 94.857a2.8693 2.8693 0 1 0 5.5879 1.3008c0.77964-3.3503 1.7077-6.6431 2.75-9.8828 4.144 6.3212 9.4533 12.248 18.117 14.68a2.8692 2.8692 0 0 0 1.3711 0.08789 2.8692 2.8692 0 0 0 1.7168-0.01953 2.8708 2.8708 0 0 0 2.1016-0.4668c15.266-10.547 30.212-18.848 44.852-24.979 1.0294 7.0956 2.6531 14.178 4.9688 21.406a2.8692 2.8692 0 1 0 5.4629-1.75c-2.3671-7.3887-3.9828-14.599-4.959-21.846 9.0299-3.4649 17.945-6.106 26.746-7.9219 7.2732 16.503 16.856 30.869 28.838 43.07 0.78463 0.79903 1.5799 1.587 2.3848 2.3672-7.3238 1.6957-14.897 2.9948-22.729 3.8926a2.8692 2.8692 0 1 0 0.65625 5.6992c9.3706-1.0742 18.416-2.719 27.127-4.9336 18.95 16.612 42.993 28.52 72.234 35.842-0.02596 1.3313-0.0433 2.658-0.08984 4a2.8692 2.8692 0 1 0 5.7285 0.19922c0.03314-0.95567 0.04149-1.9004 0.06445-2.8516 7.4846 1.685 15.288 3.0897 23.426 4.2031a2.8692 2.8692 0 0 0 0.82227 0.00586 2.8693 2.8693 0 0 0 4.8828-1.3574c3.7326-14.971 4.695-30.223 3.1074-45.1a2.8701 2.8701 0 0 0-0.09375-0.90235c-3.3774-29.68-16.959-57.803-39.236-79.092-24.455-23.369-56.651-35.905-89.545-35.914zm4.2148 5.8184c29.96 1.027 59.037 12.905 81.367 34.244 6.4411 6.1552 12.107 12.916 16.988 20.125a2.8692 2.8692 0 0 0-0.70508 0.65625c-5.7378 7.3362-11.902 13.948-18.471 19.885-2.2285-5.0979-4.7567-10.057-7.6172-14.859-14.637-24.572-37.781-45.004-71.562-60.051zm-14.215 0.33398a2.8692 2.8692 0 0 0 0.22266 0.09375c39.433 15.023 65.036 36.392 80.625 62.563 1.571 2.6374 3.0347 5.3276 4.4062 8.0645-17.731-8.4471-35.954-13.343-54.656-14.518-11.41-0.71638-22.98-0.038053-34.707 2.0254-6.6518-16.327-11.1-34.821-13.406-55.551 5.8084-1.3229 11.661-2.2043 17.516-2.6777zm-23.129 4.1113c2.3306 20.397 6.7393 38.813 13.301 55.229-8.3052 1.7749-16.688 4.2406-25.148 7.4121-1.607-18.462 0.77244-37.542 5.5391-60.727 1.3283-0.44548 2.6668-0.87132 4.0156-1.2734 0.76245-0.2273 1.5284-0.42854 2.293-0.64062zm-12.627 4.2402c-4.4755 22.565-6.6245 41.788-4.7617 60.582-14.824 6.0682-29.885 14.272-45.176 24.643-3.7251-16.59-0.27983-35.155 3.2598-51.441a2.8692 2.8692 0 0 0 0.021485-1.1934c12.666-14.174 28.574-25.412 46.656-32.59zm-54.236 41.949c-2.6622 13.701-4.5254 28.764-1.5879 43.168-5.8683-2.7037-9.529-7.6269-13.088-13.488a2.8692 2.8692 0 0 0-0.98438-1c3.9614-10.295 9.2474-19.923 15.66-28.68zm205.76 8.6973c8.0934 13.277 13.58 27.922 16.244 43.135-10.976-9.6067-22.168-17.758-33.568-24.418 6.1369-5.6518 11.917-11.885 17.324-18.717zm-95.773 2.6777c3.4324-0.04224 6.8482 0.042517 10.246 0.25586 19.947 1.2524 39.363 6.8998 58.305 16.84-16.927 14.021-36.405 23.796-58.293 29.732-1.6789-1.5407-3.3159-3.1187-4.9062-4.7383-11.17-11.375-20.192-24.732-27.135-40.121 7.3386-1.222 14.599-1.8803 21.783-1.9688zm76.928 21.789c12.298 7.3332 24.395 16.502 36.307 27.484 1.3302 13.059 0.59569 26.412-2.3496 39.578a2.8692 2.8692 0 0 0-0.03906-0.00586c-8.423-1.1524-16.46-2.6128-24.129-4.377 0.03558-22.393-2.8987-43.455-9.7891-62.68zm-5.875 0.63867c6.82 18.434 9.8405 38.779 9.9297 60.643-26.395-6.7707-48.155-17.352-65.572-31.76 20.652-6.0908 39.284-15.626 55.643-28.883z" color="#000000" color-rendering="auto" dominant-baseline="auto" fill="#5f899b" fill-rule="evenodd" image-rendering="auto" shape-rendering="auto" solid-color="#000000" style="font-feature-settings:normal;font-variant-alternates:normal;font-variant-caps:normal;font-variant-ligatures:normal;font-variant-numeric:normal;font-variant-position:normal;isolation:auto;mix-blend-mode:normal;shape-padding:0;text-decoration-color:#000000;text-decoration-line:none;text-decoration-style:solid;text-indent:0;text-orientation:mixed;text-transform:none;white-space:normal"/>
  <path d="m58.467 251.44a3.3761 3.3761 0 0 1-3.3761 3.3761 3.3761 3.3761 0 0 1-3.3761-3.3761 3.3761 3.3761 0 0 1 3.3761-3.3761 3.3761 3.3761 0 0 1 3.3761 3.3761z" fill="#ff0"/>
  <path d="m41.545 260.09a3.3761 3.3761 0 0 1-3.3761 3.3761 3.3761 3.3761 0 0 1-3.3761-3.3761 3.3761 3.3761 0 0 1 3.3761-3.3761 3.3761 3.3761 0 0 1 3.3761 3.3761z" fill="#f00"/>
  <g>
   <path d="m32.815 246.78a3.3761 3.3761 0 0 1-3.3761 3.3761 3.3761 3.3761 0 0 1-3.3761-3.3761 3.3761 3.3761 0 0 1 3.3761-3.3761 3.3761 3.3761 0 0 1 3.3761 3.3761z"/>
   <path d="m55.033 280.07h8.4667v16.933h-8.4667z" style="paint-order:normal"/>
   <path d="m55.033 267.37h8.4667v8.4667h-8.4667z" style="paint-order:normal"/>
  </g>
 </g>
</svg>
