<?xml version="1.0" encoding="UTF-8"?>
<svg width="256" height="256" version="1.1" viewBox="0 0 67.733 67.733" xmlns="http://www.w3.org/2000/svg">
 <g transform="translate(0 -229.27)">
  <g transform="matrix(2.0878 0 0 2.2337 41.673 -337.41)">
   <path class="gui_icon_class" transform="matrix(.12673 0 0 .11845 -19.96 253.7)" d="m126 0v0.033203c-68.692 1.0632-124.92 56.609-125.98 125.97h-0.019531v1.5391c-5.26e-4 0.15137-0.0058593 0.30163-0.0058594 0.45313 3.37e-8 0.15149 0.0053334 0.30176 0.0058594 0.45312v1.5547h0.019531c1.0782 70.024 58.387 125.99 127.98 125.99v-18.617c-60.826-0.00206-109.49-48.154-110.56-107.38h30.592c1.0689 43.394 36.696 77.992 79.973 77.994v-10.338c-38.394-0.00206-69.212-30.256-70.283-67.656h30.33c1.054 21.303 18.776 37.992 39.953 37.994v-10.338c-16.294-0.00199-29.201-12.355-30.248-27.656h30.248v-2h2v-0.93359l25.395-11.842c1.8884 3.8788 2.9395 8.2136 2.9394 12.768 0 0.00261 1e-5 0.00519 0 0.00781h9.6641v-0.00781c0-6.057-1.3542-11.774-3.752-16.895l27.398-12.775c4.2841 9.0136 6.6836 19.071 6.6836 29.67 0 0.00261 1e-5 0.00519 0 0.00781h9.6777v-0.00781c0-12.099-2.7025-23.542-7.502-33.801l27.566-12.855c6.7554 14.172 10.529 29.994 10.529 46.656v0.00781h17.398v-0.00781c-1e-5 -23.267-6.2075-45.034-17.027-63.785-2.0767-3.599-4.3212-7.0872-6.7266-10.453a128 128 0 0 0-0.54102-0.73828c-2.2499-3.1016-4.6306-6.1019-7.1426-8.9844a128 128 0 0 0-1.1602-1.3008c-2.3961-2.6756-4.8982-5.2534-7.5078-7.7188a128 128 0 0 0-1.5645-1.4512c-2.6212-2.3954-5.3416-4.6823-8.1543-6.8555a128 128 0 0 0-1.5723-1.1992c-2.9348-2.1964-5.9679-4.2644-9.0879-6.207a128 128 0 0 0-1.2734-0.79102c-3.3408-2.0264-6.7832-3.901-10.312-5.6211a128 128 0 0 0-0.5957-0.29492c-3.7477-1.8024-7.5953-3.4262-11.531-4.8633a128 128 0 0 0-0.02148-0.0097656v0.0019531c-13.085-4.7749-27.151-7.4621-41.779-7.6875v-0.033203h-4zm4 18.646c12.46 0.21639 24.388 2.4537 35.477 6.3887l-10.115 27.789c-7.9536-2.9007-16.486-4.5744-25.361-4.793v-29.385zm-4 0.001954v29.383c-42.374 1.0487-76.93 35.239-77.975 77.969h-30.59c1.0589-58.579 48.671-106.31 108.56-107.35zm0 39.746v29.664c-20.287 1.013-36.94 17.307-37.953 37.941h-30.33c1.0449-36.753 30.821-66.572 68.283-67.605zm4 0c7.6685 0.2107 15.017 1.6139 21.861 4.0508l-10.184 27.977c-3.6813-1.3451-7.6061-2.1629-11.678-2.3652v-29.662zm-4 40.021v27.584h-28.25c0.99649-14.674 12.906-26.619 28.25-27.584zm4 0c2.8611 0.17902 5.6015 0.73755 8.1758 1.627l-8.1758 22.463v-24.09zm84.602 37.611c-10.988-0.14114-21.793 4.0785-29.832 12.129-11.662 11.724-15.248 29.305-9.1367 44.785l-34.609 34.445c-6.4984 6.516-6.4645 17.114 0.07617 23.672 6.5406 6.5579 17.111 6.5921 23.609 0.07618l34.615-34.451c15.43 6.0834 32.93 2.4662 44.598-9.2188 11.637-11.7 15.235-29.234 9.1719-44.695l-26.844 26.916c-6.4984 6.5162-17.069 6.4818-23.609-0.07617-6.5406-6.558-6.5745-17.156-0.07617-23.672l26.893-26.965c-4.8278-1.9162-9.8608-2.8812-14.855-2.9453z"/>
  </g>
 </g>
</svg>
