<?xml version="1.0" encoding="UTF-8"?>
<svg width="256" height="256" version="1.1" viewBox="0 0 67.733 67.733" xmlns="http://www.w3.org/2000/svg">
 <g transform="translate(0 -229.27)">
  <path d="m55.033 280.07h8.4667v16.933h-8.4667z" style="paint-order:normal"/>
  <path d="m55.033 267.37h8.4667v8.4667h-8.4667z" style="paint-order:normal"/>
  <g fill="#f7961c" fill-rule="evenodd">
   <path d="m62.753 255.02 0.87337-5.1386-11.572 0.10943 1.5284-5.5759h10.262l0.87337-4.92h-10.262l1.0917-5.248 11.245 0.10944 0.87337-5.0293-17.795 0.10943-5.4585 25.475z"/>
   <path d="m39.936 229.32-10.951 0.10943-5.1152 25.693 5.3534 0.12496 1.9793-8.8708 6.4419-0.11007c7.1237 0.1554 10.105-14.854 2.2914-16.947zm-6.3311 4.9206c3.3958-0.10425 5.8339 0.0388 5.676 3.7173-0.8731 3.8091-3.9028 3.3155-7.2039 3.2801z"/>
   <path d="m20.614 249.9-0.76419 5.0936c-14.513 3.7765-21.776-6.8236-19.323-14.541 3.1794-11.48 12.807-12.568 24.236-9.9493l-1.6376 4.2983c-8.5227-2.8201-15.164 0.79035-15.939 6.8537-1.8992 7.1932 3.4556 11.654 13.428 8.245z"/>
  </g>
  <g transform="matrix(1.0384 0 0 1.0399 -254.12 284.49)" stroke-width=".11765">
   <g stroke="#f7981c" stroke-width=".17648">
    <path d="m253.02 2.7654 11.182-3.8339" fill="none"/>
    <path d="m275.07 1.8069 7.9872 7.0288" fill="#0055a4" fill-rule="evenodd"/>
    <path d="m286.25-13.848-10.224 7.6677" fill="none"/>
    <path d="m259.09-13.529 7.6677 7.3482" fill="none"/>
   </g>
   <g fill="#0055a4">
    <path d="m277.21-3.1452a7.1417 7.508 0 0 1-7.1418 7.508 7.1417 7.508 0 0 1-7.1417-7.508 7.1417 7.508 0 0 1 7.1417-7.508 7.1417 7.508 0 0 1 7.1418 7.508z"/>
    <path d="m291.44-15.166a3.2375 3.235 0 0 1-3.2375 3.235 3.2375 3.235 0 0 1-3.2375-3.235 3.2375 3.235 0 0 1 3.2375-3.235 3.2375 3.235 0 0 1 3.2375 3.235z"/>
    <path d="m285.85 9.4746a2.3593 2.5559 0 0 1-2.3593 2.5559 2.3593 2.5559 0 0 1-2.3593-2.5559 2.3593 2.5559 0 0 1 2.3593-2.5559 2.3593 2.5559 0 0 1 2.3593 2.5559z"/>
    <path d="m254.26 4.2031a4.7752 4.9521 0 0 1-4.7752 4.9521 4.7752 4.9521 0 0 1-4.7752-4.9521 4.7752 4.9521 0 0 1 4.7752-4.9521 4.7752 4.9521 0 0 1 4.7752 4.9521z"/>
    <path d="m260.69-14.168a2.2364 2.2364 0 0 1-2.2364 2.2364 2.2364 2.2364 0 0 1-2.2364-2.2364 2.2364 2.2364 0 0 1 2.2364-2.2364 2.2364 2.2364 0 0 1 2.2364 2.2364z"/>
   </g>
  </g>
 </g>
</svg>
