<?xml version="1.0" encoding="UTF-8"?>
<svg width="256" height="256" version="1.1" viewBox="0 0 67.733 67.733" xmlns="http://www.w3.org/2000/svg">
 <g transform="translate(0 -229.27)">
  <g transform="matrix(2.0878 0 0 2.2337 41.673 -337.41)">
   <path class="gui_icon_class" transform="matrix(.12673 0 0 .11845 -19.96 253.7)" d="m87.996 0.27148c-48.048 0-88.002 39.04-88.002 88s39.954 88 88.002 88c20.271 0 39.101-6.949 54.098-18.66l99.619 98.729 14.455-16.703-98.523-97.645c11.474-14.816 18.352-33.413 18.352-53.721 0-48.96-39.952-88-88-88zm0 22.754c37.407 0 66.732 29.571 66.732 65.246s-29.325 65.229-66.732 65.229-66.734-29.554-66.734-65.229 29.327-65.246 66.734-65.246zm-7.9961 24.975v32h-32v16h32v32h16v-32h32v-16h-32v-32h-16z"/>
  </g>
 </g>
</svg>
