<?xml version="1.0" encoding="UTF-8"?>
<svg width="256" height="256" version="1.1" viewBox="0 0 67.733 67.733" xmlns="http://www.w3.org/2000/svg">
 <g transform="translate(0 -229.27)">
  <g>
   <path d="m55.033 280.07h8.4667v16.933h-8.4667z" style="paint-order:normal"/>
   <path d="m55.033 267.37h8.4667v8.4667h-8.4667z" style="paint-order:normal"/>
   <path d="m19.985 251.96v-6.075l10.541-0.0477-0.02621 1.4727-9.0662 0.0477v3.6818h8.0585v1.4727h-8.0585v4.05l9.0287-0.0477-0.01131 1.4727-10.466 0.0477zm17.378 3e-3v-6.1229l5.5577-0.0302c5.4111-0.0294 5.0579-0.11991 5.9971 0.94742 0.82441 1.2818 0.79815 5.2369-0.78205 5.7926l0.71177 0.9048c0.59114 0.75146 0.63997 1.2006 0.65202 4.5656l-1.3915-0.0148c-0.0853-4.578-0.02545-4.7571-4.9486-4.7571h-4.3205l0.02746 4.7584-1.5033 7e-3v-6.0506zm10.156-0.56852c0.64717-0.44027 0.77401-2.8406 0.21267-3.5952-0.49486-0.66519-1.6863-0.44182-4.6342-0.44182h-4.2866v4.4182h4.0739c2.2544 0 4.2673 0.19113 4.6342-0.38113zm13.304 1.3016v-5.3386l-5.5089-0.0361 6e-3 -1.3868 12.371-0.0198 0.04144 1.4006-5.4616 0.0697v10.65h-1.4481zm-60.823-23.379 6.0099 0.00204c8.5008-9.3e-4 9.3506-1.054 9.3407 6.0729-0.11255 7.1372-0.85198 6.075-9.717 6.075h-5.6336zm11.875 6.0276c0-3.6531-0.70584-3.0822-4.6549-3.0822h-3.7446v5.8909h3.8521c3.5815-0.0232 4.5107 0.44771 4.5473-2.8087zm6.5546 6.0199 0.10703-12.048h12.2l0.0077 2.9044-8.7318 0.0607v2.1894h8.1098v2.9454h-8.1098l-0.03752 3.9546zm15.458-12.048h5.459l6.5817 8.4682-0.02615-8.4682 3.565-0.0477-0.0091 12.061-5.2055 0.0667-6.8894-8.7048 0.03752 8.6314h-3.4756z"/>
   <path d="m11.255 249.81h1.4439l-0.0361-1.6978c0.02643-1.9718-1.5035-2.2217-2.6352-2.2944l-7.4362 0.0459c-1.2914-0.0177-2.4513 0.67741-2.4547 2.8909l-0.036101 6.6996c0.002414 1.2105 1.0577 2.5214 2.4547 2.4779l7.5445 1e-5c1.7023 0.0175 2.6246-0.51469 2.5991-2.3861l0.0014-1.6281-1.3717 0.022-0.0014 1.239c-0.0095 1.2682-0.45567 1.2716-1.2634 1.2848l-7.4362-0.0459c-0.92907 0.0139-1.1612-0.82727-1.1551-1.7896l-0.036101-5.1853c-0.00362-1.6745 0.4034-2.088 1.1912-2.0649l7.364-0.0459c0.5775 5e-3 1.2957-0.12721 1.2273 1.2848z" fill-rule="evenodd"/>
  </g>
  <g>
   <path d="m63.889 236.63h3.7217v4.731h-3.7217z" fill="#00f"/>
   <path d="m57.837 236.64h3.7217v4.731h-3.7217z" fill="#00ff01"/>
   <path d="m51.948 236.64h3.7217v4.731h-3.7217z" fill="#fc0"/>
  </g>
 </g>
</svg>
