<svg width="140" height="30" viewBox="0 0 140 30" fill="none" xmlns="http://www.w3.org/2000/svg"
data-testid="EnterpriseExa">
<mask id="mask0_4211_540" style="mask-type:alpha" maskUnits="userSpaceOnUse" x="0" y="0" width="30" height="30">
<circle cx="15" cy="15" r="15" fill="#C4C4C4"/>
</mask>
<g mask="url(#mask0_4211_540)">
</g>
<g clip-path="url(#clip0_4211_540)">
<path d="M26.8508 17.8029V17.819C26.837 18.116 26.7227 18.3986 26.5276 18.6181C26.3325 18.8375 26.0689 18.9799 25.7825 19.0206C25.2304 19.0206 24.9313 18.5267 25.2488 18.1293C25.3856 17.8574 25.4423 17.5503 25.4117 17.2457C25.3948 16.9167 25.458 16.5885 25.5957 16.291C25.6096 16.2635 25.6253 16.2369 25.6426 16.2115C26.2463 15.5275 26.7726 16.2749 26.8656 17.1747C26.8839 17.384 26.879 17.5948 26.8508 17.8029V17.8029Z" fill="#11AB51"/>
<path d="M25.4345 15.009C25.2766 15.1377 25.1336 15.2847 25.0085 15.4471C24.8309 15.6779 24.9385 15.5899 24.2502 15.272C23.6309 15.2323 23.3834 14.8179 23.6383 13.8633C23.6696 13.7601 23.6926 13.674 23.7239 13.5927C23.9484 12.9635 24.184 13.1385 24.6441 13.3855C24.8722 13.508 25.1106 13.6093 25.3563 13.6882C25.7833 13.8387 25.8376 14.7621 25.4345 15.009Z" fill="#11AB51"/>
<path d="M19.5129 24.6643C17.3375 26.1364 14.6128 28.9701 11.8338 28.4053C11.2458 28.1668 11.0756 27.848 11.439 27.7922C11.485 27.7852 11.5315 27.7827 11.578 27.7846C13.2187 26.9889 17.3992 23.598 19.1411 22.2687C19.3997 22.103 19.6111 21.8699 19.7538 21.593C19.8966 21.3162 19.9655 21.0055 19.9537 20.6924C19.9537 19.5069 19.3344 18.2088 18.785 18.2088C18.5605 18.2088 18.5145 18.1057 18.6148 17.8502C18.774 17.5534 18.854 17.2184 18.8467 16.8795C18.7868 16.6223 18.6384 16.3961 18.4289 16.2427C18.0968 15.8881 17.8981 15.4237 17.8683 14.9324C17.8384 14.441 17.9794 13.9548 18.266 13.5605C19.2099 12.9681 20.2559 12.5682 21.3468 12.3825C21.7959 12.3825 22.0664 13.147 21.8732 13.9105C21.7729 14.3325 21.8962 14.4839 22.7096 14.9693C23.1891 15.2466 23.6426 15.569 24.0642 15.9324C26.1217 19.2193 22.083 22.825 19.5129 24.6643Z" fill="#11AB51"/>
<path d="M23.3834 12.1753C23.3094 12.2404 23.2444 12.3155 23.1902 12.3986C23.0425 12.6295 22.9544 12.8952 22.9343 13.1707C22.8883 14.2294 22.6868 14.1338 22.5856 12.9956C22.5745 12.5968 22.504 12.2021 22.3767 11.8253C21.9692 11.6965 21.5481 11.6189 21.1225 11.5944C20.7111 11.5024 20.284 11.5176 19.8798 11.6386C19.4756 11.7595 19.1072 11.9824 18.8082 12.287C16.8647 13.6324 16.5399 14.6031 17.5696 15.9769C17.8253 16.2818 18.0136 16.6401 18.1217 17.0271C18.1217 17.3109 17.4021 17.8625 16.1709 18.5239C14.739 19.6857 14.2201 21.7956 12.1376 22.1457C11.3095 22.4238 10.427 22.7748 10.1712 22.8941C9.1884 23.651 8.9013 24.7163 8.20471 25.6482C6.21524 27.0012 3.69573 25.3057 2.70836 22.6395C2.64671 22.4645 2.58413 22.281 2.53076 22.0984C5.83612 14.0676 9.8077 10.2386 16.4028 5.56662C16.4059 5.97567 16.3214 6.38042 16.1552 6.75212C16.1197 6.81878 16.0889 6.88803 16.0632 6.95932V6.95932C15.8617 7.46077 15.939 7.78718 16.2721 7.78718C16.2981 7.78861 16.3241 7.78606 16.3494 7.77962C16.7598 7.6604 16.9935 6.52221 17.4334 2.82851C17.519 2.10377 17.5493 1.96848 17.7739 2.15203C17.8279 2.19407 17.8795 2.23924 17.9285 2.28733C18.3562 2.89366 18.7515 3.52345 19.1128 4.17391C20.0231 5.34816 20.4731 6.83016 20.3743 8.32837C20.3743 9.72108 20.5915 10.3503 20.9393 9.99167C21.0603 9.63652 21.118 9.26184 21.1096 8.88564C21.1326 8.21673 21.0479 7.19869 21.2412 7.19869C21.3332 7.19869 21.4813 7.35007 21.6589 7.5885C22.2771 8.43508 22.7413 9.38963 23.0291 10.4061C23.0661 10.7563 23.2006 11.0881 23.4165 11.3617C23.7929 11.8253 23.7929 11.8414 23.3834 12.1753Z" fill="#11AB51"/>
<path d="M14.5879 6.53168C14.3947 6.53168 14.4039 5.52878 14.6036 3.72167L14.7425 2.47183L15.1916 3.42742C15.3872 3.87546 15.6482 4.29021 15.9654 4.65739C16.3841 5.36983 15.1051 6.12579 14.5879 6.53168Z" fill="#11AB51"/>
<path d="M11.6461 8.7446C11.5458 8.83259 11.4445 8.91206 11.3442 8.9991C11.4298 8.91963 11.4915 8.85624 11.6001 8.76825L11.6461 8.7446Z" fill="#49BE7A"/>
<path d="M5.96545 19.7614C5.69491 19.4908 5.3848 19.3233 5.26058 19.4113C4.86601 19.9833 4.62828 20.6539 4.57227 21.3528C4.57227 21.7747 4.78943 21.8542 5.09126 21.56C5.30546 21.4164 5.54938 21.3263 5.80349 21.297C6.51573 21.1853 6.5967 20.3981 5.96545 19.7614ZM13.5672 10.6956C13.3353 10.6956 12.9323 10.5924 12.9323 10.337C12.9323 9.60467 12.8237 9.64441 12.0728 10.5357C11.78 10.8423 11.532 11.1909 11.3367 11.5707C11.1687 12.0856 10.9617 12.5861 10.7174 13.0675C10.0981 14.3732 9.95911 15.0733 10.2453 15.36C10.3309 15.4395 10.5158 15.3524 10.6631 15.1528C11.9789 14.1896 13.3961 16.3468 14.8205 12.5575C14.8371 11.5783 14.2344 10.6956 13.5672 10.6956V10.6956ZM11.8952 14.6352C11.1213 14.6352 10.9198 14.412 11.044 13.973C11.3771 12.8669 12.3056 11.426 12.7317 11.3541C13.5056 11.2424 14.0089 11.0437 14.3107 12.1185C14.6126 13.1933 13.2507 14.6267 11.8952 14.6352V14.6352ZM13.5672 10.6956C13.3353 10.6956 12.9323 10.5924 12.9323 10.337C12.9323 9.60467 12.8237 9.64441 12.0728 10.5357C11.78 10.8423 11.532 11.1909 11.3367 11.5707C11.1687 12.0856 10.9617 12.5861 10.7174 13.0675C10.0981 14.3732 9.95911 15.0733 10.2453 15.36C10.3309 15.4395 10.5158 15.3524 10.6631 15.1528C11.9789 14.1896 13.3961 16.3468 14.8205 12.5575C14.8371 11.5783 14.2344 10.6956 13.5672 10.6956V10.6956ZM11.8952 14.6352C11.1213 14.6352 10.9198 14.412 11.044 13.973C11.3771 12.8669 12.3056 11.426 12.7317 11.3541C13.5056 11.2424 14.0089 11.0437 14.3107 12.1185C14.6126 13.1933 13.2507 14.6267 11.8952 14.6352V14.6352ZM5.96545 19.7614C5.69491 19.4908 5.3848 19.3233 5.26058 19.4113C4.86601 19.9833 4.62828 20.6539 4.57227 21.3528C4.57227 21.7747 4.78943 21.8542 5.09126 21.56C5.30546 21.4164 5.54938 21.3263 5.80349 21.297C6.51573 21.1853 6.5967 20.3981 5.96545 19.7614ZM5.96545 19.7614C5.69491 19.4908 5.3848 19.3233 5.26058 19.4113C4.86601 19.9833 4.62828 20.6539 4.57227 21.3528C4.57227 21.7747 4.78943 21.8542 5.09126 21.56C5.30546 21.4164 5.54938 21.3263 5.80349 21.297C6.51573 21.1853 6.5967 20.3981 5.96545 19.7614ZM13.5672 10.6956C13.3353 10.6956 12.9323 10.5924 12.9323 10.337C12.9323 9.60467 12.8237 9.64441 12.0728 10.5357C11.78 10.8423 11.532 11.1909 11.3367 11.5707C11.1687 12.0856 10.9617 12.5861 10.7174 13.0675C10.0981 14.3732 9.95911 15.0733 10.2453 15.36C10.3309 15.4395 10.5158 15.3524 10.6631 15.1528C11.9789 14.1896 13.3961 16.3468 14.8205 12.5575C14.8371 11.5783 14.2344 10.6956 13.5672 10.6956V10.6956ZM11.8952 14.6352C11.1213 14.6352 10.9198 14.412 11.044 13.973C11.3771 12.8669 12.3056 11.426 12.7317 11.3541C13.5056 11.2424 14.0089 11.0437 14.3107 12.1185C14.6126 13.1933 13.2507 14.6267 11.8952 14.6352V14.6352ZM13.5672 10.6956C13.3353 10.6956 12.9323 10.5924 12.9323 10.337C12.9323 9.60467 12.8237 9.64441 12.0728 10.5357C11.78 10.8423 11.532 11.1909 11.3367 11.5707C11.1687 12.0856 10.9617 12.5861 10.7174 13.0675C10.0981 14.3732 9.95911 15.0733 10.2453 15.36C10.3309 15.4395 10.5158 15.3524 10.6631 15.1528C11.9789 14.1896 13.3961 16.3468 14.8205 12.5575C14.8371 11.5783 14.2344 10.6956 13.5672 10.6956V10.6956ZM11.8952 14.6352C11.1213 14.6352 10.9198 14.412 11.044 13.973C11.3771 12.8669 12.3056 11.426 12.7317 11.3541C13.5056 11.2424 14.0089 11.0437 14.3107 12.1185C14.6126 13.1933 13.2507 14.6267 11.8952 14.6352V14.6352ZM5.96545 19.7614C5.69491 19.4908 5.3848 19.3233 5.26058 19.4113C4.86601 19.9833 4.62828 20.6539 4.57227 21.3528C4.57227 21.7747 4.78943 21.8542 5.09126 21.56C5.30546 21.4164 5.54938 21.3263 5.80349 21.297C6.51573 21.1853 6.5967 20.3981 5.96545 19.7614ZM5.96545 19.7614C5.69491 19.4908 5.3848 19.3233 5.26058 19.4113C4.86601 19.9833 4.62828 20.6539 4.57227 21.3528C4.57227 21.7747 4.78943 21.8542 5.09126 21.56C5.30546 21.4164 5.54938 21.3263 5.80349 21.297C6.51573 21.1853 6.5967 20.3981 5.96545 19.7614ZM13.5672 10.6956C13.3353 10.6956 12.9323 10.5924 12.9323 10.337C12.9323 9.60467 12.8237 9.64441 12.0728 10.5357C11.78 10.8423 11.532 11.1909 11.3367 11.5707C11.1687 12.0856 10.9617 12.5861 10.7174 13.0675C10.0981 14.3732 9.95911 15.0733 10.2453 15.36C10.3309 15.4395 10.5158 15.3524 10.6631 15.1528C11.9789 14.1896 13.3961 16.3468 14.8205 12.5575C14.8371 11.5783 14.2344 10.6956 13.5672 10.6956V10.6956ZM11.8952 14.6352C11.1213 14.6352 10.9198 14.412 11.044 13.973C11.3771 12.8669 12.3056 11.426 12.7317 11.3541C13.5056 11.2424 14.0089 11.0437 14.3107 12.1185C14.6126 13.1933 13.2507 14.6267 11.8952 14.6352V14.6352ZM13.5672 10.6956C13.3353 10.6956 12.9323 10.5924 12.9323 10.337C12.9323 9.60467 12.8237 9.64441 12.0728 10.5357C11.78 10.8423 11.532 11.1909 11.3367 11.5707C11.1687 12.0856 10.9617 12.5861 10.7174 13.0675C10.0981 14.3732 9.95911 15.0733 10.2453 15.36C10.3309 15.4395 10.5158 15.3524 10.6631 15.1528C11.9789 14.1896 13.3961 16.3468 14.8205 12.5575C14.8371 11.5783 14.2344 10.6956 13.5672 10.6956V10.6956ZM11.8952 14.6352C11.1213 14.6352 10.9198 14.412 11.044 13.973C11.3771 12.8669 12.3056 11.426 12.7317 11.3541C13.5056 11.2424 14.0089 11.0437 14.3107 12.1185C14.6126 13.1933 13.2507 14.6267 11.8952 14.6352V14.6352ZM5.96545 19.7614C5.69491 19.4908 5.3848 19.3233 5.26058 19.4113C4.86601 19.9833 4.62828 20.6539 4.57227 21.3528C4.57227 21.7747 4.78943 21.8542 5.09126 21.56C5.30546 21.4164 5.54938 21.3263 5.80349 21.297C6.51573 21.1853 6.5967 20.3981 5.96545 19.7614ZM5.96545 19.7614C5.69491 19.4908 5.3848 19.3233 5.26058 19.4113C4.86601 19.9833 4.62828 20.6539 4.57227 21.3528C4.57227 21.7747 4.78943 21.8542 5.09126 21.56C5.30546 21.4164 5.54938 21.3263 5.80349 21.297C6.51573 21.1853 6.5967 20.3981 5.96545 19.7614ZM13.5672 10.6956C13.3353 10.6956 12.9323 10.5924 12.9323 10.337C12.9323 9.60467 12.8237 9.64441 12.0728 10.5357C11.78 10.8423 11.532 11.1909 11.3367 11.5707C11.1687 12.0856 10.9617 12.5861 10.7174 13.0675C10.0981 14.3732 9.95911 15.0733 10.2453 15.36C10.3309 15.4395 10.5158 15.3524 10.6631 15.1528C11.9789 14.1896 13.3961 16.3468 14.8205 12.5575C14.8371 11.5783 14.2344 10.6956 13.5672 10.6956V10.6956ZM11.8952 14.6352C11.1213 14.6352 10.9198 14.412 11.044 13.973C11.3771 12.8669 12.3056 11.426 12.7317 11.3541C13.5056 11.2424 14.0089 11.0437 14.3107 12.1185C14.6126 13.1933 13.2507 14.6267 11.8952 14.6352V14.6352ZM13.5672 10.6956C13.3353 10.6956 12.9323 10.5924 12.9323 10.337C12.9323 9.60467 12.8237 9.64441 12.0728 10.5357C11.78 10.8423 11.532 11.1909 11.3367 11.5707C11.1687 12.0856 10.9617 12.5861 10.7174 13.0675C10.0981 14.3732 9.95911 15.0733 10.2453 15.36C10.3309 15.4395 10.5158 15.3524 10.6631 15.1528C11.9789 14.1896 13.3961 16.3468 14.8205 12.5575C14.8371 11.5783 14.2344 10.6956 13.5672 10.6956V10.6956ZM11.8952 14.6352C11.1213 14.6352 10.9198 14.412 11.044 13.973C11.3771 12.8669 12.3056 11.426 12.7317 11.3541C13.5056 11.2424 14.0089 11.0437 14.3107 12.1185C14.6126 13.1933 13.2507 14.6267 11.8952 14.6352V14.6352ZM5.96545 19.7614C5.69491 19.4908 5.3848 19.3233 5.26058 19.4113C4.86601 19.9833 4.62828 20.6539 4.57227 21.3528C4.57227 21.7747 4.78943 21.8542 5.09126 21.56C5.30546 21.4164 5.54938 21.3263 5.80349 21.297C6.51573 21.1853 6.5967 20.3981 5.96545 19.7614ZM5.96545 19.7614C5.69491 19.4908 5.3848 19.3233 5.26058 19.4113C4.86601 19.9833 4.62828 20.6539 4.57227 21.3528C4.57227 21.7747 4.78943 21.8542 5.09126 21.56C5.30546 21.4164 5.54938 21.3263 5.80349 21.297C6.51573 21.1853 6.5967 20.3981 5.96545 19.7614ZM13.5672 10.6956C13.3353 10.6956 12.9323 10.5924 12.9323 10.337C12.9323 9.60467 12.8237 9.64441 12.0728 10.5357C11.78 10.8423 11.532 11.1909 11.3367 11.5707C11.1687 12.0856 10.9617 12.5861 10.7174 13.0675C10.0981 14.3732 9.95911 15.0733 10.2453 15.36C10.3309 15.4395 10.5158 15.3524 10.6631 15.1528C11.9789 14.1896 13.3961 16.3468 14.8205 12.5575C14.8371 11.5783 14.2344 10.6956 13.5672 10.6956V10.6956ZM11.8952 14.6352C11.1213 14.6352 10.9198 14.412 11.044 13.973C11.3771 12.8669 12.3056 11.426 12.7317 11.3541C13.5056 11.2424 14.0089 11.0437 14.3107 12.1185C14.6126 13.1933 13.2507 14.6267 11.8952 14.6352V14.6352ZM13.5672 10.6956C13.3353 10.6956 12.9323 10.5924 12.9323 10.337C12.9323 9.60467 12.8237 9.64441 12.0728 10.5357C11.78 10.8423 11.532 11.1909 11.3367 11.5707C11.1687 12.0856 10.9617 12.5861 10.7174 13.0675C10.0981 14.3732 9.95911 15.0733 10.2453 15.36C10.3309 15.4395 10.5158 15.3524 10.6631 15.1528C11.9789 14.1896 13.3961 16.3468 14.8205 12.5575C14.8371 11.5783 14.2344 10.6956 13.5672 10.6956V10.6956ZM11.8952 14.6352C11.1213 14.6352 10.9198 14.412 11.044 13.973C11.3771 12.8669 12.3056 11.426 12.7317 11.3541C13.5056 11.2424 14.0089 11.0437 14.3107 12.1185C14.6126 13.1933 13.2507 14.6267 11.8952 14.6352V14.6352ZM5.96545 19.7614C5.69491 19.4908 5.3848 19.3233 5.26058 19.4113C4.86601 19.9833 4.62828 20.6539 4.57227 21.3528C4.57227 21.7747 4.78943 21.8542 5.09126 21.56C5.30546 21.4164 5.54938 21.3263 5.80349 21.297C6.51573 21.1853 6.5967 20.3981 5.96545 19.7614ZM5.96545 19.7614C5.69491 19.4908 5.3848 19.3233 5.26058 19.4113C4.86601 19.9833 4.62828 20.6539 4.57227 21.3528C4.57227 21.7747 4.78943 21.8542 5.09126 21.56C5.30546 21.4164 5.54938 21.3263 5.80349 21.297C6.51573 21.1853 6.5967 20.3981 5.96545 19.7614ZM13.5672 10.6956C13.3353 10.6956 12.9323 10.5924 12.9323 10.337C12.9323 9.60467 12.8237 9.64441 12.0728 10.5357C11.78 10.8423 11.532 11.1909 11.3367 11.5707C11.1687 12.0856 10.9617 12.5861 10.7174 13.0675C10.0981 14.3732 9.95911 15.0733 10.2453 15.36C10.3309 15.4395 10.5158 15.3524 10.6631 15.1528C11.9789 14.1896 13.3961 16.3468 14.8205 12.5575C14.8371 11.5783 14.2344 10.6956 13.5672 10.6956V10.6956ZM11.8952 14.6352C11.1213 14.6352 10.9198 14.412 11.044 13.973C11.3771 12.8669 12.3056 11.426 12.7317 11.3541C13.5056 11.2424 14.0089 11.0437 14.3107 12.1185C14.6126 13.1933 13.2507 14.6267 11.8952 14.6352V14.6352ZM17.0971 1.87572L17.1201 1.8199C17.1127 1.81233 17.1127 1.82842 17.098 1.87572H17.0971ZM5.96269 19.7576C5.69215 19.487 5.38204 19.3195 5.25781 19.4075C4.86362 19.9809 4.62682 20.6528 4.57227 21.3528C4.57227 21.7747 4.78943 21.8542 5.09126 21.56C5.30546 21.4164 5.54938 21.3263 5.80349 21.297C6.51573 21.1853 6.5967 20.3981 5.96545 19.7614L5.96269 19.7576ZM13.5645 10.6918C13.3326 10.6918 12.9295 10.5886 12.9295 10.3332C12.9295 9.60088 12.8209 9.64062 12.07 10.5319C11.7773 10.8385 11.5293 11.1871 11.3339 11.5669C11.166 12.0818 10.9589 12.5823 10.7146 13.0637C10.0953 14.3694 9.95635 15.0695 10.2425 15.3562C10.3281 15.4357 10.5131 15.3486 10.6603 15.149C11.9762 14.1858 13.3933 16.343 14.8178 12.5538C14.8371 11.5783 14.2344 10.6956 13.5672 10.6956L13.5645 10.6918ZM11.8925 14.6315C11.1186 14.6315 10.917 14.4082 11.0413 13.9692C11.3744 12.8631 12.3029 11.4222 12.7289 11.3503C13.5028 11.2386 14.0061 11.0399 14.308 12.1148C14.6098 13.1896 13.2507 14.6267 11.8952 14.6352L11.8925 14.6315ZM13.5645 10.6918C13.3326 10.6918 12.9295 10.5886 12.9295 10.3332C12.9295 9.60088 12.8209 9.64062 12.07 10.5319C11.7773 10.8385 11.5293 11.1871 11.3339 11.5669C11.166 12.0818 10.9589 12.5823 10.7146 13.0637C10.0953 14.3694 9.95635 15.0695 10.2425 15.3562C10.3281 15.4357 10.5131 15.3486 10.6603 15.149C11.9762 14.1858 13.3933 16.343 14.8178 12.5538C14.8371 11.5783 14.2344 10.6956 13.5672 10.6956L13.5645 10.6918ZM11.8925 14.6315C11.1186 14.6315 10.917 14.4082 11.0413 13.9692C11.3744 12.8631 12.3029 11.4222 12.7289 11.3503C13.5028 11.2386 14.0061 11.0399 14.308 12.1148C14.6098 13.1896 13.2507 14.6267 11.8952 14.6352L11.8925 14.6315ZM5.96545 19.7614C5.69491 19.4908 5.3848 19.3233 5.26058 19.4113C4.86601 19.9833 4.62828 20.6539 4.57227 21.3528C4.57227 21.7747 4.78943 21.8542 5.09126 21.56C5.30546 21.4164 5.54938 21.3263 5.80349 21.297C6.51573 21.1853 6.5967 20.3981 5.96545 19.7614ZM5.96545 19.7614C5.69491 19.4908 5.3848 19.3233 5.26058 19.4113C4.86601 19.9833 4.62828 20.6539 4.57227 21.3528C4.57227 21.7747 4.78943 21.8542 5.09126 21.56C5.30546 21.4164 5.54938 21.3263 5.80349 21.297C6.51573 21.1853 6.5967 20.3981 5.96545 19.7614ZM13.5672 10.6956C13.3353 10.6956 12.9323 10.5924 12.9323 10.337C12.9323 9.60467 12.8237 9.64441 12.0728 10.5357C11.78 10.8423 11.532 11.1909 11.3367 11.5707C11.1687 12.0856 10.9617 12.5861 10.7174 13.0675C10.0981 14.3732 9.95911 15.0733 10.2453 15.36C10.3309 15.4395 10.5158 15.3524 10.6631 15.1528C11.9789 14.1896 13.3961 16.3468 14.8205 12.5575C14.8371 11.5783 14.2344 10.6956 13.5672 10.6956V10.6956ZM11.8952 14.6352C11.1213 14.6352 10.9198 14.412 11.044 13.973C11.3771 12.8669 12.3056 11.426 12.7317 11.3541C13.5056 11.2424 14.0089 11.0437 14.3107 12.1185C14.6126 13.1933 13.2507 14.6267 11.8952 14.6352V14.6352ZM13.5672 10.6956C13.3353 10.6956 12.9323 10.5924 12.9323 10.337C12.9323 9.60467 12.8237 9.64441 12.0728 10.5357C11.78 10.8423 11.532 11.1909 11.3367 11.5707C11.1687 12.0856 10.9617 12.5861 10.7174 13.0675C10.0981 14.3732 9.95911 15.0733 10.2453 15.36C10.3309 15.4395 10.5158 15.3524 10.6631 15.1528C11.9789 14.1896 13.3961 16.3468 14.8205 12.5575C14.8371 11.5783 14.2344 10.6956 13.5672 10.6956V10.6956ZM11.8952 14.6352C11.1213 14.6352 10.9198 14.412 11.044 13.973C11.3771 12.8669 12.3056 11.426 12.7317 11.3541C13.5056 11.2424 14.0089 11.0437 14.3107 12.1185C14.6126 13.1933 13.2507 14.6267 11.8952 14.6352V14.6352ZM5.96545 19.7614C5.69491 19.4908 5.3848 19.3233 5.26058 19.4113C4.86601 19.9833 4.62828 20.6539 4.57227 21.3528C4.57227 21.7747 4.78943 21.8542 5.09126 21.56C5.30546 21.4164 5.54938 21.3263 5.80349 21.297C6.51573 21.1853 6.5967 20.3981 5.96545 19.7614ZM5.96545 19.7614C5.69491 19.4908 5.3848 19.3233 5.26058 19.4113C4.86601 19.9833 4.62828 20.6539 4.57227 21.3528C4.57227 21.7747 4.78943 21.8542 5.09126 21.56C5.30546 21.4164 5.54938 21.3263 5.80349 21.297C6.51573 21.1853 6.5967 20.3981 5.96545 19.7614ZM13.5672 10.6956C13.3353 10.6956 12.9323 10.5924 12.9323 10.337C12.9323 9.60467 12.8237 9.64441 12.0728 10.5357C11.78 10.8423 11.532 11.1909 11.3367 11.5707C11.1687 12.0856 10.9617 12.5861 10.7174 13.0675C10.0981 14.3732 9.95911 15.0733 10.2453 15.36C10.3309 15.4395 10.5158 15.3524 10.6631 15.1528C11.9789 14.1896 13.3961 16.3468 14.8205 12.5575C14.8371 11.5783 14.2344 10.6956 13.5672 10.6956V10.6956ZM11.8952 14.6352C11.1213 14.6352 10.9198 14.412 11.044 13.973C11.3771 12.8669 12.3056 11.426 12.7317 11.3541C13.5056 11.2424 14.0089 11.0437 14.3107 12.1185C14.6126 13.1933 13.2507 14.6267 11.8952 14.6352V14.6352ZM13.5672 10.6956C13.3353 10.6956 12.9323 10.5924 12.9323 10.337C12.9323 9.60467 12.8237 9.64441 12.0728 10.5357C11.78 10.8423 11.532 11.1909 11.3367 11.5707C11.1687 12.0856 10.9617 12.5861 10.7174 13.0675C10.0981 14.3732 9.95911 15.0733 10.2453 15.36C10.3309 15.4395 10.5158 15.3524 10.6631 15.1528C11.9789 14.1896 13.3961 16.3468 14.8205 12.5575C14.8371 11.5783 14.2344 10.6956 13.5672 10.6956V10.6956ZM11.8952 14.6352C11.1213 14.6352 10.9198 14.412 11.044 13.973C11.3771 12.8669 12.3056 11.426 12.7317 11.3541C13.5056 11.2424 14.0089 11.0437 14.3107 12.1185C14.6126 13.1933 13.2507 14.6267 11.8952 14.6352V14.6352ZM5.96545 19.7614C5.69491 19.4908 5.3848 19.3233 5.26058 19.4113C4.86601 19.9833 4.62828 20.6539 4.57227 21.3528C4.57227 21.7747 4.78943 21.8542 5.09126 21.56C5.30546 21.4164 5.54938 21.3263 5.80349 21.297C6.51573 21.1853 6.5967 20.3981 5.96545 19.7614ZM5.96545 19.7614C5.69491 19.4908 5.3848 19.3233 5.26058 19.4113C4.86601 19.9833 4.62828 20.6539 4.57227 21.3528C4.57227 21.7747 4.78943 21.8542 5.09126 21.56C5.30546 21.4164 5.54938 21.3263 5.80349 21.297C6.51573 21.1853 6.5967 20.3981 5.96545 19.7614ZM13.5672 10.6956C13.3353 10.6956 12.9323 10.5924 12.9323 10.337C12.9323 9.60467 12.8237 9.64441 12.0728 10.5357C11.78 10.8423 11.532 11.1909 11.3367 11.5707C11.1687 12.0856 10.9617 12.5861 10.7174 13.0675C10.0981 14.3732 9.95911 15.0733 10.2453 15.36C10.3309 15.4395 10.5158 15.3524 10.6631 15.1528C11.9789 14.1896 13.3961 16.3468 14.8205 12.5575C14.8371 11.5783 14.2344 10.6956 13.5672 10.6956V10.6956ZM11.8952 14.6352C11.1213 14.6352 10.9198 14.412 11.044 13.973C11.3771 12.8669 12.3056 11.426 12.7317 11.3541C13.5056 11.2424 14.0089 11.0437 14.3107 12.1185C14.6126 13.1933 13.2507 14.6267 11.8952 14.6352V14.6352ZM13.5672 10.6956C13.3353 10.6956 12.9323 10.5924 12.9323 10.337C12.9323 9.60467 12.8237 9.64441 12.0728 10.5357C11.78 10.8423 11.532 11.1909 11.3367 11.5707C11.1687 12.0856 10.9617 12.5861 10.7174 13.0675C10.0981 14.3732 9.95911 15.0733 10.2453 15.36C10.3309 15.4395 10.5158 15.3524 10.6631 15.1528C11.9789 14.1896 13.3961 16.3468 14.8205 12.5575C14.8371 11.5783 14.2344 10.6956 13.5672 10.6956V10.6956ZM11.8952 14.6352C11.1213 14.6352 10.9198 14.412 11.044 13.973C11.3771 12.8669 12.3056 11.426 12.7317 11.3541C13.5056 11.2424 14.0089 11.0437 14.3107 12.1185C14.6126 13.1933 13.2507 14.6267 11.8952 14.6352V14.6352ZM5.96545 19.7614C5.69491 19.4908 5.3848 19.3233 5.26058 19.4113C4.86601 19.9833 4.62828 20.6539 4.57227 21.3528C4.57227 21.7747 4.78943 21.8542 5.09126 21.56C5.30546 21.4164 5.54938 21.3263 5.80349 21.297C6.51573 21.1853 6.5967 20.3981 5.96545 19.7614ZM5.96545 19.7614C5.69491 19.4908 5.3848 19.3233 5.26058 19.4113C4.86601 19.9833 4.62828 20.6539 4.57227 21.3528C4.57227 21.7747 4.78943 21.8542 5.09126 21.56C5.30546 21.4164 5.54938 21.3263 5.80349 21.297C6.51573 21.1853 6.5967 20.3981 5.96545 19.7614ZM13.5672 10.6956C13.3353 10.6956 12.9323 10.5924 12.9323 10.337C12.9323 9.60467 12.8237 9.64441 12.0728 10.5357C11.78 10.8423 11.532 11.1909 11.3367 11.5707C11.1687 12.0856 10.9617 12.5861 10.7174 13.0675C10.0981 14.3732 9.95911 15.0733 10.2453 15.36C10.3309 15.4395 10.5158 15.3524 10.6631 15.1528C11.9789 14.1896 13.3961 16.3468 14.8205 12.5575C14.8371 11.5783 14.2344 10.6956 13.5672 10.6956V10.6956ZM11.8952 14.6352C11.1213 14.6352 10.9198 14.412 11.044 13.973C11.3771 12.8669 12.3056 11.426 12.7317 11.3541C13.5056 11.2424 14.0089 11.0437 14.3107 12.1185C14.6126 13.1933 13.2507 14.6267 11.8952 14.6352V14.6352ZM13.5672 10.6956C13.3353 10.6956 12.9323 10.5924 12.9323 10.337C12.9323 9.60467 12.8237 9.64441 12.0728 10.5357C11.78 10.8423 11.532 11.1909 11.3367 11.5707C11.1687 12.0856 10.9617 12.5861 10.7174 13.0675C10.0981 14.3732 9.95911 15.0733 10.2453 15.36C10.3309 15.4395 10.5158 15.3524 10.6631 15.1528C11.9789 14.1896 13.3961 16.3468 14.8205 12.5575C14.8371 11.5783 14.2344 10.6956 13.5672 10.6956V10.6956ZM11.8952 14.6352C11.1213 14.6352 10.9198 14.412 11.044 13.973C11.3771 12.8669 12.3056 11.426 12.7317 11.3541C13.5056 11.2424 14.0089 11.0437 14.3107 12.1185C14.6126 13.1933 13.2507 14.6267 11.8952 14.6352V14.6352ZM5.96545 19.7614C5.69491 19.4908 5.3848 19.3233 5.26058 19.4113C4.86601 19.9833 4.62828 20.6539 4.57227 21.3528C4.57227 21.7747 4.78943 21.8542 5.09126 21.56C5.30546 21.4164 5.54938 21.3263 5.80349 21.297C6.51573 21.1853 6.5967 20.3981 5.96545 19.7614ZM5.96545 19.7614C5.69491 19.4908 5.3848 19.3233 5.26058 19.4113C4.86601 19.9833 4.62828 20.6539 4.57227 21.3528C4.57227 21.7747 4.78943 21.8542 5.09126 21.56C5.30546 21.4164 5.54938 21.3263 5.80349 21.297C6.51573 21.1853 6.5967 20.3981 5.96545 19.7614ZM13.5672 10.6956C13.3353 10.6956 12.9323 10.5924 12.9323 10.337C12.9323 9.60467 12.8237 9.64441 12.0728 10.5357C11.78 10.8423 11.532 11.1909 11.3367 11.5707C11.1687 12.0856 10.9617 12.5861 10.7174 13.0675C10.0981 14.3732 9.95911 15.0733 10.2453 15.36C10.3309 15.4395 10.5158 15.3524 10.6631 15.1528C11.9789 14.1896 13.3961 16.3468 14.8205 12.5575C14.8371 11.5783 14.2344 10.6956 13.5672 10.6956V10.6956ZM11.8952 14.6352C11.1213 14.6352 10.9198 14.412 11.044 13.973C11.3771 12.8669 12.3056 11.426 12.7317 11.3541C13.5056 11.2424 14.0089 11.0437 14.3107 12.1185C14.6126 13.1933 13.2507 14.6267 11.8952 14.6352V14.6352ZM13.5672 10.6956C13.3353 10.6956 12.9323 10.5924 12.9323 10.337C12.9323 9.60467 12.8237 9.64441 12.0728 10.5357C11.78 10.8423 11.532 11.1909 11.3367 11.5707C11.1687 12.0856 10.9617 12.5861 10.7174 13.0675C10.0981 14.3732 9.95911 15.0733 10.2453 15.36C10.3309 15.4395 10.5158 15.3524 10.6631 15.1528C11.9789 14.1896 13.3961 16.3468 14.8205 12.5575C14.8371 11.5783 14.2344 10.6956 13.5672 10.6956V10.6956ZM11.8952 14.6352C11.1213 14.6352 10.9198 14.412 11.044 13.973C11.3771 12.8669 12.3056 11.426 12.7317 11.3541C13.5056 11.2424 14.0089 11.0437 14.3107 12.1185C14.6126 13.1933 13.2507 14.6267 11.8952 14.6352V14.6352ZM5.96545 19.7614C5.69491 19.4908 5.3848 19.3233 5.26058 19.4113C4.86601 19.9833 4.62828 20.6539 4.57227 21.3528C4.57227 21.7747 4.78943 21.8542 5.09126 21.56C5.30546 21.4164 5.54938 21.3263 5.80349 21.297C6.51573 21.1853 6.5967 20.3981 5.96545 19.7614ZM13.5672 10.6956C13.3353 10.6956 12.9323 10.5924 12.9323 10.337C12.9323 9.60467 12.8237 9.64441 12.0728 10.5357C11.78 10.8423 11.532 11.1909 11.3367 11.5707C11.1687 12.0856 10.9617 12.5861 10.7174 13.0675C10.0981 14.3732 9.95911 15.0733 10.2453 15.36C10.3309 15.4395 10.5158 15.3524 10.6631 15.1528C11.9789 14.1896 13.3961 16.3468 14.8205 12.5575C14.8371 11.5783 14.2344 10.6956 13.5672 10.6956V10.6956ZM11.8952 14.6352C11.1213 14.6352 10.9198 14.412 11.044 13.973C11.3771 12.8669 12.3056 11.426 12.7317 11.3541C13.5056 11.2424 14.0089 11.0437 14.3107 12.1185C14.6126 13.1933 13.2507 14.6267 11.8952 14.6352V14.6352ZM5.96545 19.7614C5.69491 19.4908 5.3848 19.3233 5.26058 19.4113C4.86601 19.9833 4.62828 20.6539 4.57227 21.3528C4.57227 21.7747 4.78943 21.8542 5.09126 21.56C5.30546 21.4164 5.54938 21.3263 5.80349 21.297C6.51573 21.1853 6.5967 20.3981 5.96545 19.7614ZM5.96545 19.7614C5.69491 19.4908 5.3848 19.3233 5.26058 19.4113C4.86601 19.9833 4.62828 20.6539 4.57227 21.3528C4.57227 21.7747 4.78943 21.8542 5.09126 21.56C5.30546 21.4164 5.54938 21.3263 5.80349 21.297C6.51573 21.1853 6.5967 20.3981 5.96545 19.7614ZM13.5672 10.6956C13.3353 10.6956 12.9323 10.5924 12.9323 10.337C12.9323 9.60467 12.8237 9.64441 12.0728 10.5357C11.78 10.8423 11.532 11.1909 11.3367 11.5707C11.1687 12.0856 10.9617 12.5861 10.7174 13.0675C10.0981 14.3732 9.95911 15.0733 10.2453 15.36C10.3309 15.4395 10.5158 15.3524 10.6631 15.1528C11.9789 14.1896 13.3961 16.3468 14.8205 12.5575C14.8371 11.5783 14.2344 10.6956 13.5672 10.6956V10.6956ZM11.8952 14.6352C11.1213 14.6352 10.9198 14.412 11.044 13.973C11.3771 12.8669 12.3056 11.426 12.7317 11.3541C13.5056 11.2424 14.0089 11.0437 14.3107 12.1185C14.6126 13.1933 13.2507 14.6267 11.8952 14.6352V14.6352Z" fill="#171717"/>
<path d="M11.8935 14.6343C11.1196 14.6343 10.9181 14.411 11.0423 13.972C11.3754 12.866 12.3039 11.425 12.7299 11.3531C13.5038 11.2414 14.0072 11.0428 14.309 12.1176C14.6108 13.1924 13.2508 14.6267 11.8935 14.6343Z" fill="white"/>
<path d="M26.4182 14.4441V13.0912L25.567 13.147C24.7774 13.1943 24.6919 13.1546 24.4913 12.55C24.3737 12.2081 24.2983 11.8524 24.2667 11.4913C24.1931 11.1105 24.019 10.758 23.7634 10.4723C23.4453 10.0551 23.2045 9.58146 23.053 9.07484C22.7098 7.97891 22.1057 6.98857 21.2954 6.19387C19.9022 4.61005 19.547 1.90411 17.4011 1.17181C16.8748 1.17181 16.8978 0.893646 16.8978 2.33366C16.8978 3.77367 16.6733 3.82192 16.2785 3.42455C16.0023 3.13184 15.7511 2.8153 15.5276 2.47842C15.2571 2.05644 14.7068 1.27683 14.2393 1.32414L14.2163 2.09618L13.9301 4.55612C13.8841 6.83251 14.0847 6.91199 12.583 7.98679C12.2729 8.23373 11.9637 8.48067 11.6536 8.73518C11.5533 8.82317 11.452 8.90265 11.3517 8.98969L11.3444 8.99726C7.25725 12.3408 4.14061 16.7731 2.33379 21.8117C2.07061 24.3984 4.60944 26.9378 7.08662 26.8337C7.58956 26.7487 8.07117 26.5622 8.50372 26.285C9.53343 25.5602 10.5282 27.6379 11.2128 28.3466C11.7079 28.9909 11.8008 28.8556 13.7369 28.7686C16.7947 28.0117 21.8807 24.3832 23.7312 21.5732C24.1348 20.8658 24.6267 20.2157 25.1943 19.6393C26.1817 20.7312 29.4833 16.537 26.4182 14.4441ZM17.1241 1.81234L17.1011 1.86816C17.1131 1.82842 17.1131 1.81234 17.1214 1.81234H17.1241ZM14.6083 3.72258L14.7473 2.47274L15.1963 3.42833C15.392 3.87637 15.653 4.29113 15.9702 4.6583C16.3963 5.36695 15.1108 6.12291 14.5899 6.53637C14.3958 6.53164 14.4031 5.52874 14.6046 3.72258H14.6083ZM8.20282 25.6501C6.21335 27.0031 3.69384 25.3076 2.70647 22.6414C2.64481 22.4664 2.58224 22.2828 2.52887 22.1002C5.83423 14.0695 9.80581 10.2405 16.4009 5.56848C16.404 5.97754 16.3195 6.38229 16.1533 6.75398C16.1178 6.82064 16.087 6.8899 16.0613 6.96119V6.96119C15.8598 7.46264 15.9371 7.78905 16.2702 7.78905C16.2962 7.79047 16.3222 7.78792 16.3475 7.78148C16.7579 7.66227 16.9916 6.52407 17.4315 2.83038C17.5171 2.10564 17.5474 1.97034 17.772 2.15389C17.826 2.19592 17.8776 2.2411 17.9266 2.28919C18.3543 2.89553 18.7496 3.52532 19.1109 4.17578C20.0212 5.35003 20.4712 6.83202 20.3725 8.33024C20.3725 9.72294 20.5896 10.3521 20.9375 9.99354C21.0584 9.63839 21.1161 9.26371 21.1077 8.88751C21.1307 8.21859 21.046 7.20056 21.2393 7.20056C21.3313 7.20056 21.4795 7.35194 21.6571 7.59036C22.2752 8.43694 22.7394 9.3915 23.0272 10.4079C23.0642 10.7582 23.1987 11.09 23.4146 11.3635C23.7938 11.8366 23.7938 11.8489 23.3833 12.1838C23.3093 12.2489 23.2443 12.324 23.1901 12.4071C23.0424 12.6379 22.9544 12.9036 22.9343 13.1792C22.8883 14.2379 22.6868 14.1423 22.5855 13.0041C22.5744 12.6053 22.504 12.2106 22.3766 11.8338C21.9692 11.7049 21.548 11.6274 21.1224 11.6029C20.7111 11.5109 20.2839 11.5261 19.8797 11.6471C19.4756 11.768 19.1072 11.9909 18.8081 12.2955C16.8647 13.6409 16.5398 14.6116 17.5695 15.9854C17.8252 16.2903 18.0136 16.6486 18.1216 17.0356C18.1216 17.3194 17.4021 17.871 16.1708 18.5324C14.739 19.6942 14.22 21.8041 12.1376 22.1542C11.3094 22.4323 10.4269 22.7833 10.1711 22.9025C9.18651 23.6528 8.89941 24.7276 8.20282 25.6501ZM9.75888 25.7778L9.32546 25.1411L9.83617 24.2659C10.0278 23.9397 10.2852 23.6594 10.5908 23.4439C10.8965 23.2283 11.2435 23.0825 11.6085 23.0161C12.2972 22.8745 12.9622 22.6304 13.5823 22.2913C13.995 22.1446 14.3738 21.9118 14.6949 21.6075C15.0161 21.3032 15.2726 20.934 15.4485 20.523C16.2463 18.9392 17.7011 18.2069 18.6379 18.9231C19.0253 19.207 19.006 19.2259 18.4133 19.2335C17.6312 19.241 17.2907 19.5674 17.2907 20.3158C17.2907 20.77 17.1987 20.8968 16.8573 20.8968C16.5711 20.8968 16.3539 21.0954 16.1994 21.5013C16.1416 21.6739 16.0458 21.8305 15.9196 21.9588C15.7933 22.0871 15.64 22.1838 15.4715 22.2412C15.0309 22.391 14.6137 22.6054 14.2329 22.8779C13.8178 23.1604 13.3423 23.3351 12.8471 23.387C12.352 23.387 12.0189 23.5942 11.3609 24.318C10.4555 25.3133 10.2079 25.8223 10.9735 25.1137C11.4789 24.5738 12.1653 24.2521 12.8931 24.2139C13.2319 24.2 13.5586 24.0806 13.8298 23.8714C14.2783 23.5623 14.7689 23.3235 15.2856 23.1627C16.1138 22.8846 16.4312 22.6613 16.6558 22.1674C16.7142 21.9844 16.8212 21.8218 16.9648 21.6981C17.1084 21.5743 17.2828 21.4944 17.4683 21.4673C17.9284 21.4114 18.0103 21.2847 18.0646 20.6233C18.1262 19.8986 18.1805 19.8437 18.7612 19.8437C19.3731 19.8437 19.3878 19.8674 19.2802 20.6479C19.1886 21.2306 18.9077 21.7642 18.4833 22.1617C16.8186 23.6453 14.8218 24.5914 13.2069 26.0806C11.4585 27.2983 10.7343 27.2349 9.75888 25.7778V25.7778ZM19.513 24.6633C17.3376 26.1355 14.6129 28.9691 11.8339 28.4043C11.2459 28.1659 11.0757 27.847 11.4392 27.7912C11.4852 27.7843 11.5317 27.7817 11.5781 27.7836C13.2188 26.9879 17.3993 23.597 19.1412 22.2677C19.3999 22.102 19.6113 21.8689 19.754 21.5921C19.8967 21.3152 19.9656 21.0045 19.9538 20.6914C19.9538 19.5059 19.3345 18.2078 18.7851 18.2078C18.5606 18.2078 18.5146 18.1047 18.6149 17.8493C18.7742 17.5524 18.8542 17.2175 18.8468 16.8785C18.787 16.6213 18.6386 16.3951 18.429 16.2418C18.0969 15.8872 17.8982 15.4227 17.8684 14.9314C17.8386 14.4401 17.9795 13.9538 18.2661 13.5595C19.2106 12.9687 20.2569 12.5703 21.3479 12.3863C21.7969 12.3863 22.0675 13.1508 21.8742 13.9143C21.7739 14.3363 21.8972 14.4877 22.7107 14.973C23.19 15.2492 23.6434 15.5704 24.0652 15.9324C26.1237 19.2193 22.0831 22.825 19.513 24.6633ZM25.0093 15.4461C24.8317 15.6769 24.9394 15.589 24.2511 15.2711C23.6318 15.2313 23.3843 14.8169 23.6392 13.8623C23.6704 13.7591 23.6935 13.673 23.7247 13.5917C23.9493 12.9625 24.1848 13.1375 24.6449 13.3845C24.8731 13.507 25.1115 13.6083 25.3572 13.6872C25.7906 13.8301 25.8449 14.7535 25.4345 15.0005C25.2798 15.1356 25.1375 15.2851 25.0093 15.447V15.4461ZM26.8497 17.802V17.818C26.8359 18.115 26.7216 18.3977 26.5265 18.6171C26.3314 18.8365 26.0678 18.9789 25.7814 19.0196C25.2293 19.0196 24.9302 18.5257 25.2477 18.1284C25.3846 17.8564 25.4412 17.5493 25.4105 17.2447C25.3934 16.9154 25.4567 16.5868 25.5946 16.2891C25.6082 16.2616 25.6236 16.235 25.6406 16.2096C26.2442 15.5256 26.7706 16.273 26.8635 17.1728C26.883 17.3826 26.879 17.594 26.8516 17.8029L26.8497 17.802Z" fill="#171717"/>
<path d="M19.2937 20.6602C19.2021 21.2429 18.9212 21.7765 18.4968 22.174C16.8321 23.6547 14.8353 24.6018 13.2176 26.0901C11.46 27.3002 10.733 27.2358 9.75763 25.7797L9.32422 25.143L9.83493 24.2678C10.0266 23.9416 10.2839 23.6613 10.5896 23.4458C10.8953 23.2302 11.2422 23.0843 11.6072 23.018C12.296 22.8764 12.9609 22.6323 13.5811 22.2932C13.9935 22.1465 14.3721 21.9138 14.693 21.6097C15.014 21.3056 15.2704 20.9366 15.4463 20.5259C16.2432 18.9421 17.6989 18.2097 18.6357 18.926C19.0231 19.2098 19.0038 19.2287 18.4112 19.2363C17.629 19.2439 17.2885 19.5703 17.2885 20.3187C17.2885 20.7728 17.1965 20.8996 16.8551 20.8996C16.5689 20.8996 16.3518 21.0983 16.1972 21.5042C16.1394 21.6768 16.0436 21.8333 15.9174 21.9616C15.7912 22.0899 15.6378 22.1866 15.4693 22.244C15.0288 22.3938 14.6116 22.6083 14.2307 22.8808C13.8156 23.1632 13.3401 23.3379 12.8449 23.3898C12.3498 23.3898 12.0167 23.597 11.3588 24.3208C10.4533 25.3161 10.2058 25.8251 10.9714 25.1165C11.4768 24.5767 12.1631 24.255 12.8909 24.2167C13.2297 24.2029 13.5564 24.0834 13.8277 23.8742C14.2761 23.5652 14.7667 23.3264 15.2834 23.1656C16.1116 22.8874 16.4291 22.6641 16.6536 22.1702C16.712 21.9872 16.8191 21.8247 16.9627 21.7009C17.1063 21.5772 17.2807 21.4972 17.4661 21.4701C17.9262 21.4143 18.0081 21.2866 18.0624 20.6262C18.1241 19.9014 18.1784 19.8466 18.759 19.8466C19.3866 19.857 19.4022 19.8806 19.2937 20.6602Z" fill="white"/>
<path d="M26.8583 17.1812C26.7981 17.1652 26.7424 17.1351 26.6954 17.0932C26.6025 16.9872 26.4926 16.8983 26.3706 16.8302C26.216 16.7507 26.1387 16.6873 25.9685 16.6069C25.8335 16.5179 25.7066 16.4166 25.5894 16.3042C25.6033 16.2766 25.6189 16.2501 25.6363 16.2247C26.2464 15.5416 26.7654 16.289 26.8583 17.1812Z" fill="#49BE7A"/>
<path d="M25.4338 15.0089C25.2759 15.1376 25.1329 15.2846 25.0077 15.447C24.8762 15.3192 24.8375 15.1366 24.7216 15.0089C24.5471 14.8183 24.3988 14.6041 24.2808 14.3722C24.2103 14.2252 24.1245 14.0866 24.025 13.9587C23.9168 13.8434 23.816 13.7211 23.7231 13.5925C23.9477 12.9634 24.1832 13.1393 24.6433 13.3853C24.8715 13.5079 25.1099 13.6092 25.3556 13.6881C25.7826 13.8385 25.8396 14.762 25.4338 15.0089Z" fill="#49BE7A"/>
<path d="M23.3827 12.1753C23.3087 12.2403 23.2437 12.3154 23.1895 12.3985C23.1095 12.2886 23.0445 12.1679 22.9962 12.04C22.9419 11.8252 22.8177 11.6814 22.7717 11.4827C22.7338 11.2896 22.6719 11.1023 22.5877 10.9254C22.5256 10.7086 22.4506 10.496 22.3631 10.2887C22.2159 10.0994 22.2315 9.93008 22.1386 9.7314C22.0541 9.56452 21.9816 9.39155 21.9214 9.21386C21.8995 9.02547 21.8632 8.83914 21.8129 8.65659C21.7595 8.49938 21.7231 8.33662 21.7043 8.17122C21.6691 7.97977 21.6534 7.78509 21.6573 7.5903C22.2755 8.43687 22.7398 9.39143 23.0275 10.4079C23.0645 10.7581 23.199 11.0899 23.4149 11.3635C23.7931 11.8252 23.7931 11.8403 23.3827 12.1753Z" fill="#49BE7A"/>
<path d="M16.1619 6.75393C16.1263 6.82059 16.0956 6.88985 16.0699 6.96113V6.96113C16.056 6.9672 16.043 6.97515 16.0312 6.98478C15.8226 7.07958 15.6273 7.20273 15.4506 7.35093C15.2636 7.52972 15.0526 7.67982 14.8239 7.79656C14.5444 7.91022 14.275 8.04857 14.0187 8.21002C13.802 8.33486 13.5928 8.47292 13.3921 8.62348C13.2422 8.755 13.0687 8.85497 12.8814 8.91772C12.7182 8.99387 12.5604 9.08176 12.4093 9.18075C12.2472 9.28418 12.0762 9.37222 11.8986 9.44377C11.7684 9.52998 11.6576 9.64387 11.5738 9.77776C11.482 9.91659 11.4066 10.0662 11.3492 10.2234C11.2949 10.4382 11.156 10.4542 11.0548 10.669C10.9623 10.8291 10.8534 10.9784 10.7299 11.1146C10.6164 11.2815 10.4811 11.4314 10.3278 11.5603C10.1493 11.6985 9.97881 11.8473 9.81711 12.0059C9.66879 12.1299 9.544 12.281 9.44903 12.4515C9.27797 12.7159 9.0836 12.9636 8.86838 13.1914C8.43074 13.702 8.03696 14.2506 7.69145 14.831C7.38134 15.3722 6.94792 15.8898 6.63046 16.4707C6.41916 16.8899 6.17284 17.2894 5.8943 17.6647C5.62376 17.9911 5.42223 18.4368 5.12777 18.7395C4.9074 18.982 4.72152 19.2553 4.57565 19.5513C4.45971 19.7982 4.19653 20.0244 4.13395 20.2912C4.07556 20.4827 3.97798 20.6592 3.84777 20.8087C3.73568 21.012 3.6128 21.2087 3.47969 21.3981C3.362 21.5021 3.26241 21.6259 3.18523 21.7643C3.11529 21.9157 3.00119 22.0027 2.92941 22.1778C2.87512 22.3291 2.76654 22.5117 2.72789 22.6508C2.66624 22.4758 2.60366 22.2922 2.55029 22.1096C5.85565 14.0789 9.82723 10.2499 16.4223 5.57788C16.4194 5.98467 16.3306 6.38595 16.1619 6.75393V6.75393Z" fill="#49BE7A"/>
<path d="M17.7778 2.34495V3.24472C17.7778 3.49166 17.7318 3.79347 17.7318 3.97702C17.7318 4.26086 17.6315 4.52578 17.6315 4.76515V5.55328C17.6586 5.81525 17.6586 6.07944 17.6315 6.34141C17.5855 6.51644 17.6315 6.89016 17.5772 7.12953C17.5073 7.4323 17.4999 7.70289 17.1171 7.70289C16.8926 7.70289 16.4592 7.91009 16.3589 7.77479C16.7693 7.65558 17.003 6.51739 17.4429 2.82369C17.5285 2.09895 17.5588 1.96366 17.7834 2.14721L17.7778 2.34495Z" fill="#49BE7A"/>
</g>
<line x1="35.25" y1="4" x2="35.25" y2="26" stroke="#171717" stroke-width="0.5"/>
<path d="M48.2093 18.9268V20H42.9388V18.9268H48.2093ZM43.2054 10.0469V20H41.8861V10.0469H43.2054ZM47.512 14.3262V15.3994H42.9388V14.3262H47.512ZM48.1409 10.0469V11.127H42.9388V10.0469H48.1409ZM51.0563 14.1826V20H49.7917V12.6035H50.988L51.0563 14.1826ZM50.7555 16.0215L50.2292 16.001C50.2337 15.4951 50.3089 15.028 50.4548 14.5996C50.6006 14.1667 50.8057 13.7907 51.07 13.4717C51.3343 13.1527 51.6488 12.9066 52.0134 12.7334C52.3825 12.5557 52.7904 12.4668 53.237 12.4668C53.6016 12.4668 53.9297 12.5169 54.2214 12.6172C54.513 12.7129 54.7614 12.8678 54.9665 13.082C55.1761 13.2962 55.3356 13.5742 55.445 13.916C55.5544 14.2533 55.6091 14.6657 55.6091 15.1533V20H54.3376V15.1396C54.3376 14.7523 54.2806 14.4424 54.1667 14.21C54.0527 13.973 53.8864 13.8021 53.6677 13.6973C53.4489 13.5879 53.18 13.5332 52.861 13.5332C52.5466 13.5332 52.2595 13.5993 51.9997 13.7314C51.7445 13.8636 51.5235 14.0459 51.3366 14.2783C51.1543 14.5107 51.0108 14.7773 50.9059 15.0781C50.8057 15.3743 50.7555 15.6888 50.7555 16.0215ZM60.7666 12.6035V13.5742H56.7676V12.6035H60.7666ZM58.1211 10.8057H59.3858V18.168C59.3858 18.4186 59.4245 18.6077 59.502 18.7354C59.5795 18.863 59.6797 18.9473 59.8028 18.9883C59.9258 19.0293 60.058 19.0498 60.1993 19.0498C60.3041 19.0498 60.4134 19.0407 60.5274 19.0225C60.6459 18.9997 60.7347 18.9814 60.794 18.9678L60.8008 20C60.7006 20.0319 60.5684 20.0615 60.4043 20.0889C60.2448 20.1208 60.0511 20.1367 59.8233 20.1367C59.5134 20.1367 59.2286 20.0752 58.9688 19.9521C58.709 19.8291 58.5017 19.624 58.3467 19.3369C58.1963 19.0452 58.1211 18.6533 58.1211 18.1611V10.8057ZM65.4594 20.1367C64.9444 20.1367 64.4773 20.0501 64.058 19.877C63.6433 19.6992 63.2855 19.4508 62.9848 19.1318C62.6885 18.8128 62.4607 18.4346 62.3012 17.9971C62.1417 17.5596 62.0619 17.0811 62.0619 16.5615V16.2744C62.0619 15.6729 62.1508 15.1374 62.3285 14.668C62.5063 14.194 62.7478 13.793 63.0531 13.4648C63.3585 13.1367 63.7048 12.8883 64.0922 12.7197C64.4796 12.5511 64.8806 12.4668 65.2953 12.4668C65.824 12.4668 66.2797 12.5579 66.6625 12.7402C67.0499 12.9225 67.3666 13.1777 67.6127 13.5059C67.8588 13.8294 68.0411 14.2122 68.1596 14.6543C68.2781 15.0918 68.3373 15.5703 68.3373 16.0898V16.6572H62.8139V15.625H67.0727V15.5293C67.0544 15.2012 66.9861 14.8822 66.8676 14.5723C66.7536 14.2624 66.5714 14.0072 66.3207 13.8066C66.0701 13.6061 65.7283 13.5059 65.2953 13.5059C65.0082 13.5059 64.7439 13.5674 64.5023 13.6904C64.2608 13.8089 64.0535 13.9867 63.8803 14.2236C63.7071 14.4606 63.5727 14.75 63.477 15.0918C63.3813 15.4336 63.3334 15.8278 63.3334 16.2744V16.5615C63.3334 16.9124 63.3813 17.2428 63.477 17.5527C63.5772 17.8581 63.7208 18.127 63.9076 18.3594C64.099 18.5918 64.3292 18.7741 64.598 18.9062C64.8715 19.0384 65.1814 19.1045 65.5277 19.1045C65.9743 19.1045 66.3526 19.0133 66.6625 18.8311C66.9724 18.6488 67.2436 18.4049 67.476 18.0996L68.2416 18.708C68.0821 18.9495 67.8793 19.1797 67.6332 19.3984C67.3871 19.6172 67.084 19.7949 66.724 19.9316C66.3686 20.0684 65.947 20.1367 65.4594 20.1367ZM71.2185 13.7656V20H69.9539V12.6035H71.1843L71.2185 13.7656ZM73.5291 12.5625L73.5222 13.7383C73.4174 13.7155 73.3171 13.7018 73.2214 13.6973C73.1303 13.6882 73.0255 13.6836 72.907 13.6836C72.6153 13.6836 72.3578 13.7292 72.1345 13.8203C71.9112 13.9115 71.7221 14.0391 71.5671 14.2031C71.4122 14.3672 71.2892 14.5632 71.198 14.791C71.1114 15.0143 71.0545 15.2604 71.0271 15.5293L70.6716 15.7344C70.6716 15.2878 70.7149 14.8685 70.8015 14.4766C70.8927 14.0846 71.0317 13.7383 71.2185 13.4375C71.4054 13.1322 71.6423 12.8952 71.9295 12.7266C72.2211 12.5534 72.5675 12.4668 72.9685 12.4668C73.0597 12.4668 73.1645 12.4782 73.283 12.501C73.4015 12.5192 73.4835 12.5397 73.5291 12.5625ZM76.1027 14.0254V22.8438H74.8312V12.6035H75.9933L76.1027 14.0254ZM81.0861 16.2402V16.3838C81.0861 16.9215 81.0223 17.4206 80.8946 17.8809C80.767 18.3366 80.5802 18.7331 80.3341 19.0703C80.0926 19.4076 79.7941 19.6696 79.4386 19.8564C79.0831 20.0433 78.6752 20.1367 78.215 20.1367C77.7456 20.1367 77.3308 20.0592 76.9708 19.9043C76.6108 19.7493 76.3055 19.5238 76.0548 19.2275C75.8042 18.9313 75.6036 18.5758 75.4532 18.1611C75.3074 17.7464 75.2071 17.2793 75.1525 16.7598V15.9941C75.2071 15.4473 75.3097 14.9574 75.4601 14.5244C75.6105 14.0915 75.8087 13.7223 76.0548 13.417C76.3055 13.1071 76.6085 12.8724 76.964 12.7129C77.3195 12.5488 77.7296 12.4668 78.1945 12.4668C78.6593 12.4668 79.0717 12.5579 79.4318 12.7402C79.7918 12.918 80.0948 13.1732 80.3409 13.5059C80.587 13.8385 80.7716 14.2373 80.8946 14.7021C81.0223 15.1624 81.0861 15.6751 81.0861 16.2402ZM79.8146 16.3838V16.2402C79.8146 15.8711 79.7758 15.5247 79.6984 15.2012C79.6209 14.873 79.5001 14.5859 79.3361 14.3398C79.1766 14.0892 78.9715 13.8932 78.7208 13.752C78.4702 13.6061 78.1717 13.5332 77.8253 13.5332C77.5063 13.5332 77.2283 13.5879 76.9913 13.6973C76.7589 13.8066 76.5607 13.9548 76.3966 14.1416C76.2325 14.3239 76.0981 14.5335 75.9933 14.7705C75.893 15.0029 75.8178 15.2445 75.7677 15.4951V17.2656C75.8588 17.5846 75.9864 17.8854 76.1505 18.168C76.3146 18.446 76.5333 18.6715 76.8068 18.8447C77.0802 19.0133 77.4243 19.0977 77.839 19.0977C78.1808 19.0977 78.4747 19.027 78.7208 18.8857C78.9715 18.7399 79.1766 18.5417 79.3361 18.291C79.5001 18.0404 79.6209 17.7533 79.6984 17.4297C79.7758 17.1016 79.8146 16.7529 79.8146 16.3838ZM84.104 13.7656V20H82.8393V12.6035H84.0698L84.104 13.7656ZM86.4145 12.5625L86.4077 13.7383C86.3029 13.7155 86.2026 13.7018 86.1069 13.6973C86.0158 13.6882 85.911 13.6836 85.7925 13.6836C85.5008 13.6836 85.2433 13.7292 85.02 13.8203C84.7967 13.9115 84.6076 14.0391 84.4526 14.2031C84.2977 14.3672 84.1746 14.5632 84.0835 14.791C83.9969 15.0143 83.9399 15.2604 83.9126 15.5293L83.5571 15.7344C83.5571 15.2878 83.6004 14.8685 83.687 14.4766C83.7781 14.0846 83.9171 13.7383 84.104 13.4375C84.2908 13.1322 84.5278 12.8952 84.8149 12.7266C85.1066 12.5534 85.4529 12.4668 85.854 12.4668C85.9451 12.4668 86.0499 12.4782 86.1684 12.501C86.2869 12.5192 86.369 12.5397 86.4145 12.5625ZM89.0975 12.6035V20H87.826V12.6035H89.0975ZM87.7303 10.6416C87.7303 10.4365 87.7918 10.2633 87.9149 10.1221C88.0425 9.98079 88.2293 9.91016 88.4754 9.91016C88.717 9.91016 88.9015 9.98079 89.0291 10.1221C89.1613 10.2633 89.2274 10.4365 89.2274 10.6416C89.2274 10.8376 89.1613 11.0062 89.0291 11.1475C88.9015 11.2842 88.717 11.3525 88.4754 11.3525C88.2293 11.3525 88.0425 11.2842 87.9149 11.1475C87.7918 11.0062 87.7303 10.8376 87.7303 10.6416ZM95.5744 18.0381C95.5744 17.8558 95.5334 17.6872 95.4514 17.5322C95.3739 17.3727 95.2121 17.2292 94.966 17.1016C94.7245 16.9694 94.3599 16.8555 93.8723 16.7598C93.4621 16.6732 93.0907 16.5706 92.758 16.4521C92.4299 16.3337 92.1496 16.1901 91.9172 16.0215C91.6893 15.8529 91.5139 15.6546 91.3908 15.4268C91.2678 15.1989 91.2062 14.9323 91.2062 14.627C91.2062 14.3353 91.2701 14.0596 91.3977 13.7998C91.5298 13.54 91.7144 13.3099 91.9514 13.1094C92.1929 12.9089 92.4823 12.7516 92.8195 12.6377C93.1568 12.5238 93.5327 12.4668 93.9475 12.4668C94.5399 12.4668 95.0458 12.5716 95.465 12.7812C95.8843 12.9909 96.2056 13.2712 96.4289 13.6221C96.6522 13.9684 96.7639 14.3535 96.7639 14.7773H95.4992C95.4992 14.5723 95.4377 14.374 95.3146 14.1826C95.1962 13.9867 95.0207 13.8249 94.7883 13.6973C94.5604 13.5697 94.2801 13.5059 93.9475 13.5059C93.5965 13.5059 93.3117 13.5605 93.093 13.6699C92.8788 13.7747 92.7215 13.9092 92.6213 14.0732C92.5256 14.2373 92.4777 14.4105 92.4777 14.5928C92.4777 14.7295 92.5005 14.8525 92.5461 14.9619C92.5962 15.0667 92.6828 15.1647 92.8059 15.2559C92.9289 15.3424 93.1021 15.4245 93.3254 15.502C93.5487 15.5794 93.8335 15.6569 94.1799 15.7344C94.786 15.8711 95.285 16.0352 95.677 16.2266C96.0689 16.418 96.3605 16.6527 96.552 16.9307C96.7434 17.2087 96.8391 17.5459 96.8391 17.9424C96.8391 18.266 96.7707 18.5622 96.634 18.8311C96.5018 19.0999 96.3081 19.3324 96.0529 19.5283C95.8023 19.7197 95.5015 19.8701 95.1506 19.9795C94.8042 20.0843 94.4146 20.1367 93.9816 20.1367C93.3299 20.1367 92.7785 20.0205 92.3273 19.7881C91.8762 19.5557 91.5344 19.2549 91.302 18.8857C91.0695 18.5166 90.9533 18.127 90.9533 17.7168H92.2248C92.243 18.0632 92.3433 18.3389 92.5256 18.5439C92.7079 18.7445 92.9312 18.888 93.1955 18.9746C93.4598 19.0566 93.7219 19.0977 93.9816 19.0977C94.328 19.0977 94.6174 19.0521 94.8498 18.9609C95.0868 18.8698 95.2668 18.7445 95.3898 18.585C95.5129 18.4255 95.5744 18.2432 95.5744 18.0381ZM101.71 20.1367C101.195 20.1367 100.727 20.0501 100.308 19.877C99.8934 19.6992 99.5357 19.4508 99.2349 19.1318C98.9387 18.8128 98.7108 18.4346 98.5513 17.9971C98.3918 17.5596 98.3121 17.0811 98.3121 16.5615V16.2744C98.3121 15.6729 98.4009 15.1374 98.5787 14.668C98.7564 14.194 98.9979 13.793 99.3033 13.4648C99.6086 13.1367 99.955 12.8883 100.342 12.7197C100.73 12.5511 101.131 12.4668 101.545 12.4668C102.074 12.4668 102.53 12.5579 102.913 12.7402C103.3 12.9225 103.617 13.1777 103.863 13.5059C104.109 13.8294 104.291 14.2122 104.41 14.6543C104.528 15.0918 104.587 15.5703 104.587 16.0898V16.6572H99.064V15.625H103.323V15.5293C103.305 15.2012 103.236 14.8822 103.118 14.5723C103.004 14.2624 102.822 14.0072 102.571 13.8066C102.32 13.6061 101.978 13.5059 101.545 13.5059C101.258 13.5059 100.994 13.5674 100.752 13.6904C100.511 13.8089 100.304 13.9867 100.13 14.2236C99.9573 14.4606 99.8228 14.75 99.7271 15.0918C99.6314 15.4336 99.5836 15.8278 99.5836 16.2744V16.5615C99.5836 16.9124 99.6314 17.2428 99.7271 17.5527C99.8274 17.8581 99.9709 18.127 100.158 18.3594C100.349 18.5918 100.579 18.7741 100.848 18.9062C101.122 19.0384 101.432 19.1045 101.778 19.1045C102.225 19.1045 102.603 19.0133 102.913 18.8311C103.223 18.6488 103.494 18.4049 103.726 18.0996L104.492 18.708C104.332 18.9495 104.129 19.1797 103.883 19.3984C103.637 19.6172 103.334 19.7949 102.974 19.9316C102.619 20.0684 102.197 20.1367 101.71 20.1367ZM116.331 18.9268V20H111.061V18.9268H116.331ZM111.327 10.0469V20H110.008V10.0469H111.327ZM115.634 14.3262V15.3994H111.061V14.3262H115.634ZM116.263 10.0469V11.127H111.061V10.0469H116.263ZM118.96 10.0469L121.352 13.8613L123.745 10.0469H125.283L122.138 14.9756L125.358 20H123.806L121.352 16.1104L118.898 20H117.346L120.566 14.9756L117.422 10.0469H118.96ZM130.707 10.9287L127.412 20H126.065L129.859 10.0469H130.728L130.707 10.9287ZM133.469 20L130.167 10.9287L130.146 10.0469H131.015L134.822 20H133.469ZM133.298 16.3154V17.3955H127.706V16.3154H133.298Z" fill="#ffffff"/>
<defs>
<clipPath id="clip0_4211_540">
<rect width="25.3846" height="27.6923" fill="white" transform="translate(2.30762 1.15384)"/>
</clipPath>
</defs>
</svg>
