<svg width="146" height="30" viewBox="0 0 146 30" fill="none" xmlns="http://www.w3.org/2000/svg" data-testid="Enterprise6500">
<mask id="mask0_3896_89" style="mask-type:alpha" maskUnits="userSpaceOnUse" x="0" y="0" width="30" height="30">
<circle cx="15" cy="15" r="15" fill="#C4C4C4"/>
</mask>
<g mask="url(#mask0_3896_89)">
</g>
<g clip-path="url(#clip0_3896_89)">
<path d="M26.8501 17.8029V17.819C26.8363 18.116 26.722 18.3986 26.5269 18.618C26.3318 18.8375 26.0682 18.9799 25.7818 19.0206C25.2297 19.0206 24.9306 18.5267 25.248 18.1293C25.3849 17.8574 25.4415 17.5502 25.4109 17.2456C25.394 16.9166 25.4573 16.5885 25.595 16.291C25.6089 16.2635 25.6246 16.2369 25.6419 16.2115C26.2456 15.5275 26.7719 16.2749 26.8648 17.1747C26.8832 17.384 26.8782 17.5947 26.8501 17.8029V17.8029Z" fill="#11AB51"/>
<path d="M25.434 15.009C25.2761 15.1377 25.1331 15.2846 25.008 15.447C24.8304 15.6779 24.938 15.5899 24.2497 15.272C23.6304 15.2322 23.3829 14.8178 23.6378 13.8632C23.6691 13.7601 23.6921 13.674 23.7234 13.5926C23.9479 12.9634 24.1835 13.1385 24.6436 13.3854C24.8718 13.5079 25.1101 13.6092 25.3558 13.6882C25.7828 13.8386 25.8371 14.762 25.434 15.009Z" fill="#11AB51"/>
<path d="M19.5126 24.6642C17.3373 26.1364 14.6126 28.9701 11.8336 28.4052C11.2456 28.1668 11.0753 27.848 11.4388 27.7921C11.4848 27.7852 11.5313 27.7827 11.5778 27.7846C13.2185 26.9889 17.3989 23.5979 19.1409 22.2686C19.3995 22.1029 19.6109 21.8698 19.7536 21.593C19.8963 21.3162 19.9652 21.0054 19.9534 20.6924C19.9534 19.5069 19.3341 18.2088 18.7848 18.2088C18.5602 18.2088 18.5142 18.1056 18.6145 17.8502C18.7738 17.5533 18.8538 17.2184 18.8464 16.8795C18.7866 16.6223 18.6382 16.396 18.4286 16.2427C18.0966 15.8881 17.8979 15.4237 17.868 14.9323C17.8382 14.441 17.9792 13.9548 18.2658 13.5604C19.2096 12.968 20.2556 12.5681 21.3466 12.3825C21.7956 12.3825 22.0662 13.147 21.8729 13.9105C21.7726 14.3325 21.8959 14.4839 22.7094 14.9692C23.1889 15.2466 23.6423 15.569 24.0639 15.9324C26.1215 19.2192 22.0827 22.8249 19.5126 24.6642Z" fill="#11AB51"/>
<path d="M23.3829 12.1753C23.3089 12.2403 23.2439 12.3155 23.1897 12.3986C23.042 12.6294 22.954 12.8951 22.9339 13.1706C22.8878 14.2294 22.6863 14.1338 22.5851 12.9956C22.574 12.5968 22.5035 12.2021 22.3762 11.8252C21.9687 11.6964 21.5476 11.6189 21.122 11.5944C20.7106 11.5024 20.2835 11.5176 19.8793 11.6385C19.4751 11.7595 19.1068 11.9824 18.8077 12.287C16.8642 13.6324 16.5394 14.6031 17.5691 15.9769C17.8248 16.2818 18.0132 16.6401 18.1212 17.0271C18.1212 17.3109 17.4016 17.8625 16.1704 18.5239C14.7386 19.6857 14.2196 21.7956 12.1372 22.1456C11.309 22.4238 10.4265 22.7748 10.1707 22.894C9.18791 23.6509 8.90081 24.7163 8.20422 25.6482C6.21475 27.0012 3.69524 25.3057 2.70787 22.6395C2.64622 22.4645 2.58364 22.2809 2.53027 22.0983C5.83563 14.0676 9.80721 10.2386 16.4023 5.56658C16.4054 5.97564 16.3209 6.38039 16.1547 6.75209C16.1192 6.81875 16.0884 6.888 16.0627 6.95929V6.95929C15.8612 7.46074 15.9385 7.78715 16.2716 7.78715C16.2976 7.78857 16.3236 7.78602 16.3489 7.77959C16.7593 7.66037 16.993 6.52218 17.4329 2.82848C17.5185 2.10374 17.5488 1.96845 17.7734 2.152C17.8274 2.19404 17.879 2.23921 17.928 2.28729C18.3557 2.89363 18.751 3.52342 19.1123 4.17388C20.0226 5.34813 20.4726 6.83013 20.3739 8.32834C20.3739 9.72105 20.591 10.3502 20.9389 9.99164C21.0598 9.63649 21.1175 9.26181 21.1091 8.88561C21.1321 8.2167 21.0474 7.19866 21.2407 7.19866C21.3327 7.19866 21.4809 7.35004 21.6585 7.58847C22.2766 8.43505 22.7408 9.3896 23.0286 10.406C23.0656 10.7563 23.2001 11.0881 23.416 11.3616C23.7924 11.8252 23.7924 11.8413 23.3829 12.1753Z" fill="#11AB51"/>
<path d="M14.5877 6.53165C14.3944 6.53165 14.4036 5.52875 14.6033 3.72164L14.7423 2.4718L15.1913 3.42739C15.387 3.87543 15.648 4.29018 15.9652 4.65736C16.3839 5.3698 15.1048 6.12576 14.5877 6.53165Z" fill="#11AB51"/>
<path d="M11.6461 8.74463C11.5458 8.83262 11.4445 8.91209 11.3442 8.99914C11.4298 8.91966 11.4915 8.85627 11.6001 8.76828L11.6461 8.74463Z" fill="#49BE7A"/>
<path d="M5.9652 19.7614C5.69466 19.4908 5.38456 19.3233 5.26033 19.4113C4.86577 19.9833 4.62804 20.6539 4.57202 21.3528C4.57202 21.7747 4.78919 21.8542 5.09101 21.56C5.30522 21.4164 5.54913 21.3263 5.80325 21.297C6.51548 21.1853 6.59646 20.3981 5.9652 19.7614ZM13.567 10.6956C13.3351 10.6956 12.932 10.5924 12.932 10.337C12.932 9.60467 12.8234 9.64441 12.0726 10.5357C11.7798 10.8423 11.5318 11.1909 11.3364 11.5707C11.1685 12.0856 10.9614 12.5861 10.7171 13.0675C10.0978 14.3732 9.95887 15.0733 10.2451 15.36C10.3306 15.4395 10.5156 15.3524 10.6628 15.1528C11.9787 14.1896 13.3958 16.3468 14.8203 12.5575C14.8368 11.5783 14.2341 10.6956 13.567 10.6956V10.6956ZM11.895 14.6352C11.1211 14.6352 10.9196 14.412 11.0438 13.973C11.3769 12.8669 12.3054 11.426 12.7314 11.3541C13.5053 11.2424 14.0087 11.0437 14.3105 12.1185C14.6123 13.1933 13.2504 14.6267 11.895 14.6352V14.6352ZM13.567 10.6956C13.3351 10.6956 12.932 10.5924 12.932 10.337C12.932 9.60467 12.8234 9.64441 12.0726 10.5357C11.7798 10.8423 11.5318 11.1909 11.3364 11.5707C11.1685 12.0856 10.9614 12.5861 10.7171 13.0675C10.0978 14.3732 9.95887 15.0733 10.2451 15.36C10.3306 15.4395 10.5156 15.3524 10.6628 15.1528C11.9787 14.1896 13.3958 16.3468 14.8203 12.5575C14.8368 11.5783 14.2341 10.6956 13.567 10.6956V10.6956ZM11.895 14.6352C11.1211 14.6352 10.9196 14.412 11.0438 13.973C11.3769 12.8669 12.3054 11.426 12.7314 11.3541C13.5053 11.2424 14.0087 11.0437 14.3105 12.1185C14.6123 13.1933 13.2504 14.6267 11.895 14.6352V14.6352ZM5.9652 19.7614C5.69466 19.4908 5.38456 19.3233 5.26033 19.4113C4.86577 19.9833 4.62804 20.6539 4.57202 21.3528C4.57202 21.7747 4.78919 21.8542 5.09101 21.56C5.30522 21.4164 5.54913 21.3263 5.80325 21.297C6.51548 21.1853 6.59646 20.3981 5.9652 19.7614ZM5.9652 19.7614C5.69466 19.4908 5.38456 19.3233 5.26033 19.4113C4.86577 19.9833 4.62804 20.6539 4.57202 21.3528C4.57202 21.7747 4.78919 21.8542 5.09101 21.56C5.30522 21.4164 5.54913 21.3263 5.80325 21.297C6.51548 21.1853 6.59646 20.3981 5.9652 19.7614ZM13.567 10.6956C13.3351 10.6956 12.932 10.5924 12.932 10.337C12.932 9.60467 12.8234 9.64441 12.0726 10.5357C11.7798 10.8423 11.5318 11.1909 11.3364 11.5707C11.1685 12.0856 10.9614 12.5861 10.7171 13.0675C10.0978 14.3732 9.95887 15.0733 10.2451 15.36C10.3306 15.4395 10.5156 15.3524 10.6628 15.1528C11.9787 14.1896 13.3958 16.3468 14.8203 12.5575C14.8368 11.5783 14.2341 10.6956 13.567 10.6956V10.6956ZM11.895 14.6352C11.1211 14.6352 10.9196 14.412 11.0438 13.973C11.3769 12.8669 12.3054 11.426 12.7314 11.3541C13.5053 11.2424 14.0087 11.0437 14.3105 12.1185C14.6123 13.1933 13.2504 14.6267 11.895 14.6352V14.6352ZM13.567 10.6956C13.3351 10.6956 12.932 10.5924 12.932 10.337C12.932 9.60467 12.8234 9.64441 12.0726 10.5357C11.7798 10.8423 11.5318 11.1909 11.3364 11.5707C11.1685 12.0856 10.9614 12.5861 10.7171 13.0675C10.0978 14.3732 9.95887 15.0733 10.2451 15.36C10.3306 15.4395 10.5156 15.3524 10.6628 15.1528C11.9787 14.1896 13.3958 16.3468 14.8203 12.5575C14.8368 11.5783 14.2341 10.6956 13.567 10.6956V10.6956ZM11.895 14.6352C11.1211 14.6352 10.9196 14.412 11.0438 13.973C11.3769 12.8669 12.3054 11.426 12.7314 11.3541C13.5053 11.2424 14.0087 11.0437 14.3105 12.1185C14.6123 13.1933 13.2504 14.6267 11.895 14.6352V14.6352ZM5.9652 19.7614C5.69466 19.4908 5.38456 19.3233 5.26033 19.4113C4.86577 19.9833 4.62804 20.6539 4.57202 21.3528C4.57202 21.7747 4.78919 21.8542 5.09101 21.56C5.30522 21.4164 5.54913 21.3263 5.80325 21.297C6.51548 21.1853 6.59646 20.3981 5.9652 19.7614ZM5.9652 19.7614C5.69466 19.4908 5.38456 19.3233 5.26033 19.4113C4.86577 19.9833 4.62804 20.6539 4.57202 21.3528C4.57202 21.7747 4.78919 21.8542 5.09101 21.56C5.30522 21.4164 5.54913 21.3263 5.80325 21.297C6.51548 21.1853 6.59646 20.3981 5.9652 19.7614ZM13.567 10.6956C13.3351 10.6956 12.932 10.5924 12.932 10.337C12.932 9.60467 12.8234 9.64441 12.0726 10.5357C11.7798 10.8423 11.5318 11.1909 11.3364 11.5707C11.1685 12.0856 10.9614 12.5861 10.7171 13.0675C10.0978 14.3732 9.95887 15.0733 10.2451 15.36C10.3306 15.4395 10.5156 15.3524 10.6628 15.1528C11.9787 14.1896 13.3958 16.3468 14.8203 12.5575C14.8368 11.5783 14.2341 10.6956 13.567 10.6956V10.6956ZM11.895 14.6352C11.1211 14.6352 10.9196 14.412 11.0438 13.973C11.3769 12.8669 12.3054 11.426 12.7314 11.3541C13.5053 11.2424 14.0087 11.0437 14.3105 12.1185C14.6123 13.1933 13.2504 14.6267 11.895 14.6352V14.6352ZM13.567 10.6956C13.3351 10.6956 12.932 10.5924 12.932 10.337C12.932 9.60467 12.8234 9.64441 12.0726 10.5357C11.7798 10.8423 11.5318 11.1909 11.3364 11.5707C11.1685 12.0856 10.9614 12.5861 10.7171 13.0675C10.0978 14.3732 9.95887 15.0733 10.2451 15.36C10.3306 15.4395 10.5156 15.3524 10.6628 15.1528C11.9787 14.1896 13.3958 16.3468 14.8203 12.5575C14.8368 11.5783 14.2341 10.6956 13.567 10.6956V10.6956ZM11.895 14.6352C11.1211 14.6352 10.9196 14.412 11.0438 13.973C11.3769 12.8669 12.3054 11.426 12.7314 11.3541C13.5053 11.2424 14.0087 11.0437 14.3105 12.1185C14.6123 13.1933 13.2504 14.6267 11.895 14.6352V14.6352ZM5.9652 19.7614C5.69466 19.4908 5.38456 19.3233 5.26033 19.4113C4.86577 19.9833 4.62804 20.6539 4.57202 21.3528C4.57202 21.7747 4.78919 21.8542 5.09101 21.56C5.30522 21.4164 5.54913 21.3263 5.80325 21.297C6.51548 21.1853 6.59646 20.3981 5.9652 19.7614ZM5.9652 19.7614C5.69466 19.4908 5.38456 19.3233 5.26033 19.4113C4.86577 19.9833 4.62804 20.6539 4.57202 21.3528C4.57202 21.7747 4.78919 21.8542 5.09101 21.56C5.30522 21.4164 5.54913 21.3263 5.80325 21.297C6.51548 21.1853 6.59646 20.3981 5.9652 19.7614ZM13.567 10.6956C13.3351 10.6956 12.932 10.5924 12.932 10.337C12.932 9.60467 12.8234 9.64441 12.0726 10.5357C11.7798 10.8423 11.5318 11.1909 11.3364 11.5707C11.1685 12.0856 10.9614 12.5861 10.7171 13.0675C10.0978 14.3732 9.95887 15.0733 10.2451 15.36C10.3306 15.4395 10.5156 15.3524 10.6628 15.1528C11.9787 14.1896 13.3958 16.3468 14.8203 12.5575C14.8368 11.5783 14.2341 10.6956 13.567 10.6956V10.6956ZM11.895 14.6352C11.1211 14.6352 10.9196 14.412 11.0438 13.973C11.3769 12.8669 12.3054 11.426 12.7314 11.3541C13.5053 11.2424 14.0087 11.0437 14.3105 12.1185C14.6123 13.1933 13.2504 14.6267 11.895 14.6352V14.6352ZM13.567 10.6956C13.3351 10.6956 12.932 10.5924 12.932 10.337C12.932 9.60467 12.8234 9.64441 12.0726 10.5357C11.7798 10.8423 11.5318 11.1909 11.3364 11.5707C11.1685 12.0856 10.9614 12.5861 10.7171 13.0675C10.0978 14.3732 9.95887 15.0733 10.2451 15.36C10.3306 15.4395 10.5156 15.3524 10.6628 15.1528C11.9787 14.1896 13.3958 16.3468 14.8203 12.5575C14.8368 11.5783 14.2341 10.6956 13.567 10.6956V10.6956ZM11.895 14.6352C11.1211 14.6352 10.9196 14.412 11.0438 13.973C11.3769 12.8669 12.3054 11.426 12.7314 11.3541C13.5053 11.2424 14.0087 11.0437 14.3105 12.1185C14.6123 13.1933 13.2504 14.6267 11.895 14.6352V14.6352ZM5.9652 19.7614C5.69466 19.4908 5.38456 19.3233 5.26033 19.4113C4.86577 19.9833 4.62804 20.6539 4.57202 21.3528C4.57202 21.7747 4.78919 21.8542 5.09101 21.56C5.30522 21.4164 5.54913 21.3263 5.80325 21.297C6.51548 21.1853 6.59646 20.3981 5.9652 19.7614ZM5.9652 19.7614C5.69466 19.4908 5.38456 19.3233 5.26033 19.4113C4.86577 19.9833 4.62804 20.6539 4.57202 21.3528C4.57202 21.7747 4.78919 21.8542 5.09101 21.56C5.30522 21.4164 5.54913 21.3263 5.80325 21.297C6.51548 21.1853 6.59646 20.3981 5.9652 19.7614ZM13.567 10.6956C13.3351 10.6956 12.932 10.5924 12.932 10.337C12.932 9.60467 12.8234 9.64441 12.0726 10.5357C11.7798 10.8423 11.5318 11.1909 11.3364 11.5707C11.1685 12.0856 10.9614 12.5861 10.7171 13.0675C10.0978 14.3732 9.95887 15.0733 10.2451 15.36C10.3306 15.4395 10.5156 15.3524 10.6628 15.1528C11.9787 14.1896 13.3958 16.3468 14.8203 12.5575C14.8368 11.5783 14.2341 10.6956 13.567 10.6956V10.6956ZM11.895 14.6352C11.1211 14.6352 10.9196 14.412 11.0438 13.973C11.3769 12.8669 12.3054 11.426 12.7314 11.3541C13.5053 11.2424 14.0087 11.0437 14.3105 12.1185C14.6123 13.1933 13.2504 14.6267 11.895 14.6352V14.6352ZM13.567 10.6956C13.3351 10.6956 12.932 10.5924 12.932 10.337C12.932 9.60467 12.8234 9.64441 12.0726 10.5357C11.7798 10.8423 11.5318 11.1909 11.3364 11.5707C11.1685 12.0856 10.9614 12.5861 10.7171 13.0675C10.0978 14.3732 9.95887 15.0733 10.2451 15.36C10.3306 15.4395 10.5156 15.3524 10.6628 15.1528C11.9787 14.1896 13.3958 16.3468 14.8203 12.5575C14.8368 11.5783 14.2341 10.6956 13.567 10.6956V10.6956ZM11.895 14.6352C11.1211 14.6352 10.9196 14.412 11.0438 13.973C11.3769 12.8669 12.3054 11.426 12.7314 11.3541C13.5053 11.2424 14.0087 11.0437 14.3105 12.1185C14.6123 13.1933 13.2504 14.6267 11.895 14.6352V14.6352ZM5.9652 19.7614C5.69466 19.4908 5.38456 19.3233 5.26033 19.4113C4.86577 19.9833 4.62804 20.6539 4.57202 21.3528C4.57202 21.7747 4.78919 21.8542 5.09101 21.56C5.30522 21.4164 5.54913 21.3263 5.80325 21.297C6.51548 21.1853 6.59646 20.3981 5.9652 19.7614ZM5.9652 19.7614C5.69466 19.4908 5.38456 19.3233 5.26033 19.4113C4.86577 19.9833 4.62804 20.6539 4.57202 21.3528C4.57202 21.7747 4.78919 21.8542 5.09101 21.56C5.30522 21.4164 5.54913 21.3263 5.80325 21.297C6.51548 21.1853 6.59646 20.3981 5.9652 19.7614ZM13.567 10.6956C13.3351 10.6956 12.932 10.5924 12.932 10.337C12.932 9.60467 12.8234 9.64441 12.0726 10.5357C11.7798 10.8423 11.5318 11.1909 11.3364 11.5707C11.1685 12.0856 10.9614 12.5861 10.7171 13.0675C10.0978 14.3732 9.95887 15.0733 10.2451 15.36C10.3306 15.4395 10.5156 15.3524 10.6628 15.1528C11.9787 14.1896 13.3958 16.3468 14.8203 12.5575C14.8368 11.5783 14.2341 10.6956 13.567 10.6956V10.6956ZM11.895 14.6352C11.1211 14.6352 10.9196 14.412 11.0438 13.973C11.3769 12.8669 12.3054 11.426 12.7314 11.3541C13.5053 11.2424 14.0087 11.0437 14.3105 12.1185C14.6123 13.1933 13.2504 14.6267 11.895 14.6352V14.6352ZM17.0969 1.87572L17.1199 1.8199C17.1125 1.81233 17.1125 1.82842 17.0978 1.87572H17.0969ZM5.96244 19.7576C5.69191 19.487 5.3818 19.3195 5.25757 19.4075C4.86337 19.9809 4.62657 20.6528 4.57202 21.3528C4.57202 21.7747 4.78919 21.8542 5.09101 21.56C5.30522 21.4164 5.54913 21.3263 5.80325 21.297C6.51548 21.1853 6.59646 20.3981 5.9652 19.7614L5.96244 19.7576ZM13.5642 10.6918C13.3323 10.6918 12.9293 10.5886 12.9293 10.3332C12.9293 9.60088 12.8207 9.64062 12.0698 10.5319C11.777 10.8385 11.529 11.1871 11.3336 11.5669C11.1657 12.0818 10.9587 12.5823 10.7144 13.0637C10.0951 14.3694 9.95611 15.0695 10.2423 15.3562C10.3279 15.4357 10.5128 15.3486 10.6601 15.149C11.9759 14.1858 13.3931 16.343 14.8175 12.5538C14.8368 11.5783 14.2341 10.6956 13.567 10.6956L13.5642 10.6918ZM11.8922 14.6315C11.1183 14.6315 10.9168 14.4082 11.041 13.9692C11.3741 12.8631 12.3026 11.4222 12.7287 11.3503C13.5026 11.2386 14.0059 11.0399 14.3077 12.1148C14.6096 13.1896 13.2504 14.6267 11.895 14.6352L11.8922 14.6315ZM13.5642 10.6918C13.3323 10.6918 12.9293 10.5886 12.9293 10.3332C12.9293 9.60088 12.8207 9.64062 12.0698 10.5319C11.777 10.8385 11.529 11.1871 11.3336 11.5669C11.1657 12.0818 10.9587 12.5823 10.7144 13.0637C10.0951 14.3694 9.95611 15.0695 10.2423 15.3562C10.3279 15.4357 10.5128 15.3486 10.6601 15.149C11.9759 14.1858 13.3931 16.343 14.8175 12.5538C14.8368 11.5783 14.2341 10.6956 13.567 10.6956L13.5642 10.6918ZM11.8922 14.6315C11.1183 14.6315 10.9168 14.4082 11.041 13.9692C11.3741 12.8631 12.3026 11.4222 12.7287 11.3503C13.5026 11.2386 14.0059 11.0399 14.3077 12.1148C14.6096 13.1896 13.2504 14.6267 11.895 14.6352L11.8922 14.6315ZM5.9652 19.7614C5.69466 19.4908 5.38456 19.3233 5.26033 19.4113C4.86577 19.9833 4.62804 20.6539 4.57202 21.3528C4.57202 21.7747 4.78919 21.8542 5.09101 21.56C5.30522 21.4164 5.54913 21.3263 5.80325 21.297C6.51548 21.1853 6.59646 20.3981 5.9652 19.7614ZM5.9652 19.7614C5.69466 19.4908 5.38456 19.3233 5.26033 19.4113C4.86577 19.9833 4.62804 20.6539 4.57202 21.3528C4.57202 21.7747 4.78919 21.8542 5.09101 21.56C5.30522 21.4164 5.54913 21.3263 5.80325 21.297C6.51548 21.1853 6.59646 20.3981 5.9652 19.7614ZM13.567 10.6956C13.3351 10.6956 12.932 10.5924 12.932 10.337C12.932 9.60467 12.8234 9.64441 12.0726 10.5357C11.7798 10.8423 11.5318 11.1909 11.3364 11.5707C11.1685 12.0856 10.9614 12.5861 10.7171 13.0675C10.0978 14.3732 9.95887 15.0733 10.2451 15.36C10.3306 15.4395 10.5156 15.3524 10.6628 15.1528C11.9787 14.1896 13.3958 16.3468 14.8203 12.5575C14.8368 11.5783 14.2341 10.6956 13.567 10.6956V10.6956ZM11.895 14.6352C11.1211 14.6352 10.9196 14.412 11.0438 13.973C11.3769 12.8669 12.3054 11.426 12.7314 11.3541C13.5053 11.2424 14.0087 11.0437 14.3105 12.1185C14.6123 13.1933 13.2504 14.6267 11.895 14.6352V14.6352ZM13.567 10.6956C13.3351 10.6956 12.932 10.5924 12.932 10.337C12.932 9.60467 12.8234 9.64441 12.0726 10.5357C11.7798 10.8423 11.5318 11.1909 11.3364 11.5707C11.1685 12.0856 10.9614 12.5861 10.7171 13.0675C10.0978 14.3732 9.95887 15.0733 10.2451 15.36C10.3306 15.4395 10.5156 15.3524 10.6628 15.1528C11.9787 14.1896 13.3958 16.3468 14.8203 12.5575C14.8368 11.5783 14.2341 10.6956 13.567 10.6956V10.6956ZM11.895 14.6352C11.1211 14.6352 10.9196 14.412 11.0438 13.973C11.3769 12.8669 12.3054 11.426 12.7314 11.3541C13.5053 11.2424 14.0087 11.0437 14.3105 12.1185C14.6123 13.1933 13.2504 14.6267 11.895 14.6352V14.6352ZM5.9652 19.7614C5.69466 19.4908 5.38456 19.3233 5.26033 19.4113C4.86577 19.9833 4.62804 20.6539 4.57202 21.3528C4.57202 21.7747 4.78919 21.8542 5.09101 21.56C5.30522 21.4164 5.54913 21.3263 5.80325 21.297C6.51548 21.1853 6.59646 20.3981 5.9652 19.7614ZM5.9652 19.7614C5.69466 19.4908 5.38456 19.3233 5.26033 19.4113C4.86577 19.9833 4.62804 20.6539 4.57202 21.3528C4.57202 21.7747 4.78919 21.8542 5.09101 21.56C5.30522 21.4164 5.54913 21.3263 5.80325 21.297C6.51548 21.1853 6.59646 20.3981 5.9652 19.7614ZM13.567 10.6956C13.3351 10.6956 12.932 10.5924 12.932 10.337C12.932 9.60467 12.8234 9.64441 12.0726 10.5357C11.7798 10.8423 11.5318 11.1909 11.3364 11.5707C11.1685 12.0856 10.9614 12.5861 10.7171 13.0675C10.0978 14.3732 9.95887 15.0733 10.2451 15.36C10.3306 15.4395 10.5156 15.3524 10.6628 15.1528C11.9787 14.1896 13.3958 16.3468 14.8203 12.5575C14.8368 11.5783 14.2341 10.6956 13.567 10.6956V10.6956ZM11.895 14.6352C11.1211 14.6352 10.9196 14.412 11.0438 13.973C11.3769 12.8669 12.3054 11.426 12.7314 11.3541C13.5053 11.2424 14.0087 11.0437 14.3105 12.1185C14.6123 13.1933 13.2504 14.6267 11.895 14.6352V14.6352ZM13.567 10.6956C13.3351 10.6956 12.932 10.5924 12.932 10.337C12.932 9.60467 12.8234 9.64441 12.0726 10.5357C11.7798 10.8423 11.5318 11.1909 11.3364 11.5707C11.1685 12.0856 10.9614 12.5861 10.7171 13.0675C10.0978 14.3732 9.95887 15.0733 10.2451 15.36C10.3306 15.4395 10.5156 15.3524 10.6628 15.1528C11.9787 14.1896 13.3958 16.3468 14.8203 12.5575C14.8368 11.5783 14.2341 10.6956 13.567 10.6956V10.6956ZM11.895 14.6352C11.1211 14.6352 10.9196 14.412 11.0438 13.973C11.3769 12.8669 12.3054 11.426 12.7314 11.3541C13.5053 11.2424 14.0087 11.0437 14.3105 12.1185C14.6123 13.1933 13.2504 14.6267 11.895 14.6352V14.6352ZM5.9652 19.7614C5.69466 19.4908 5.38456 19.3233 5.26033 19.4113C4.86577 19.9833 4.62804 20.6539 4.57202 21.3528C4.57202 21.7747 4.78919 21.8542 5.09101 21.56C5.30522 21.4164 5.54913 21.3263 5.80325 21.297C6.51548 21.1853 6.59646 20.3981 5.9652 19.7614ZM5.9652 19.7614C5.69466 19.4908 5.38456 19.3233 5.26033 19.4113C4.86577 19.9833 4.62804 20.6539 4.57202 21.3528C4.57202 21.7747 4.78919 21.8542 5.09101 21.56C5.30522 21.4164 5.54913 21.3263 5.80325 21.297C6.51548 21.1853 6.59646 20.3981 5.9652 19.7614ZM13.567 10.6956C13.3351 10.6956 12.932 10.5924 12.932 10.337C12.932 9.60467 12.8234 9.64441 12.0726 10.5357C11.7798 10.8423 11.5318 11.1909 11.3364 11.5707C11.1685 12.0856 10.9614 12.5861 10.7171 13.0675C10.0978 14.3732 9.95887 15.0733 10.2451 15.36C10.3306 15.4395 10.5156 15.3524 10.6628 15.1528C11.9787 14.1896 13.3958 16.3468 14.8203 12.5575C14.8368 11.5783 14.2341 10.6956 13.567 10.6956V10.6956ZM11.895 14.6352C11.1211 14.6352 10.9196 14.412 11.0438 13.973C11.3769 12.8669 12.3054 11.426 12.7314 11.3541C13.5053 11.2424 14.0087 11.0437 14.3105 12.1185C14.6123 13.1933 13.2504 14.6267 11.895 14.6352V14.6352ZM13.567 10.6956C13.3351 10.6956 12.932 10.5924 12.932 10.337C12.932 9.60467 12.8234 9.64441 12.0726 10.5357C11.7798 10.8423 11.5318 11.1909 11.3364 11.5707C11.1685 12.0856 10.9614 12.5861 10.7171 13.0675C10.0978 14.3732 9.95887 15.0733 10.2451 15.36C10.3306 15.4395 10.5156 15.3524 10.6628 15.1528C11.9787 14.1896 13.3958 16.3468 14.8203 12.5575C14.8368 11.5783 14.2341 10.6956 13.567 10.6956V10.6956ZM11.895 14.6352C11.1211 14.6352 10.9196 14.412 11.0438 13.973C11.3769 12.8669 12.3054 11.426 12.7314 11.3541C13.5053 11.2424 14.0087 11.0437 14.3105 12.1185C14.6123 13.1933 13.2504 14.6267 11.895 14.6352V14.6352ZM5.9652 19.7614C5.69466 19.4908 5.38456 19.3233 5.26033 19.4113C4.86577 19.9833 4.62804 20.6539 4.57202 21.3528C4.57202 21.7747 4.78919 21.8542 5.09101 21.56C5.30522 21.4164 5.54913 21.3263 5.80325 21.297C6.51548 21.1853 6.59646 20.3981 5.9652 19.7614ZM5.9652 19.7614C5.69466 19.4908 5.38456 19.3233 5.26033 19.4113C4.86577 19.9833 4.62804 20.6539 4.57202 21.3528C4.57202 21.7747 4.78919 21.8542 5.09101 21.56C5.30522 21.4164 5.54913 21.3263 5.80325 21.297C6.51548 21.1853 6.59646 20.3981 5.9652 19.7614ZM13.567 10.6956C13.3351 10.6956 12.932 10.5924 12.932 10.337C12.932 9.60467 12.8234 9.64441 12.0726 10.5357C11.7798 10.8423 11.5318 11.1909 11.3364 11.5707C11.1685 12.0856 10.9614 12.5861 10.7171 13.0675C10.0978 14.3732 9.95887 15.0733 10.2451 15.36C10.3306 15.4395 10.5156 15.3524 10.6628 15.1528C11.9787 14.1896 13.3958 16.3468 14.8203 12.5575C14.8368 11.5783 14.2341 10.6956 13.567 10.6956V10.6956ZM11.895 14.6352C11.1211 14.6352 10.9196 14.412 11.0438 13.973C11.3769 12.8669 12.3054 11.426 12.7314 11.3541C13.5053 11.2424 14.0087 11.0437 14.3105 12.1185C14.6123 13.1933 13.2504 14.6267 11.895 14.6352V14.6352ZM13.567 10.6956C13.3351 10.6956 12.932 10.5924 12.932 10.337C12.932 9.60467 12.8234 9.64441 12.0726 10.5357C11.7798 10.8423 11.5318 11.1909 11.3364 11.5707C11.1685 12.0856 10.9614 12.5861 10.7171 13.0675C10.0978 14.3732 9.95887 15.0733 10.2451 15.36C10.3306 15.4395 10.5156 15.3524 10.6628 15.1528C11.9787 14.1896 13.3958 16.3468 14.8203 12.5575C14.8368 11.5783 14.2341 10.6956 13.567 10.6956V10.6956ZM11.895 14.6352C11.1211 14.6352 10.9196 14.412 11.0438 13.973C11.3769 12.8669 12.3054 11.426 12.7314 11.3541C13.5053 11.2424 14.0087 11.0437 14.3105 12.1185C14.6123 13.1933 13.2504 14.6267 11.895 14.6352V14.6352ZM5.9652 19.7614C5.69466 19.4908 5.38456 19.3233 5.26033 19.4113C4.86577 19.9833 4.62804 20.6539 4.57202 21.3528C4.57202 21.7747 4.78919 21.8542 5.09101 21.56C5.30522 21.4164 5.54913 21.3263 5.80325 21.297C6.51548 21.1853 6.59646 20.3981 5.9652 19.7614ZM5.9652 19.7614C5.69466 19.4908 5.38456 19.3233 5.26033 19.4113C4.86577 19.9833 4.62804 20.6539 4.57202 21.3528C4.57202 21.7747 4.78919 21.8542 5.09101 21.56C5.30522 21.4164 5.54913 21.3263 5.80325 21.297C6.51548 21.1853 6.59646 20.3981 5.9652 19.7614ZM13.567 10.6956C13.3351 10.6956 12.932 10.5924 12.932 10.337C12.932 9.60467 12.8234 9.64441 12.0726 10.5357C11.7798 10.8423 11.5318 11.1909 11.3364 11.5707C11.1685 12.0856 10.9614 12.5861 10.7171 13.0675C10.0978 14.3732 9.95887 15.0733 10.2451 15.36C10.3306 15.4395 10.5156 15.3524 10.6628 15.1528C11.9787 14.1896 13.3958 16.3468 14.8203 12.5575C14.8368 11.5783 14.2341 10.6956 13.567 10.6956V10.6956ZM11.895 14.6352C11.1211 14.6352 10.9196 14.412 11.0438 13.973C11.3769 12.8669 12.3054 11.426 12.7314 11.3541C13.5053 11.2424 14.0087 11.0437 14.3105 12.1185C14.6123 13.1933 13.2504 14.6267 11.895 14.6352V14.6352ZM13.567 10.6956C13.3351 10.6956 12.932 10.5924 12.932 10.337C12.932 9.60467 12.8234 9.64441 12.0726 10.5357C11.7798 10.8423 11.5318 11.1909 11.3364 11.5707C11.1685 12.0856 10.9614 12.5861 10.7171 13.0675C10.0978 14.3732 9.95887 15.0733 10.2451 15.36C10.3306 15.4395 10.5156 15.3524 10.6628 15.1528C11.9787 14.1896 13.3958 16.3468 14.8203 12.5575C14.8368 11.5783 14.2341 10.6956 13.567 10.6956V10.6956ZM11.895 14.6352C11.1211 14.6352 10.9196 14.412 11.0438 13.973C11.3769 12.8669 12.3054 11.426 12.7314 11.3541C13.5053 11.2424 14.0087 11.0437 14.3105 12.1185C14.6123 13.1933 13.2504 14.6267 11.895 14.6352V14.6352ZM5.9652 19.7614C5.69466 19.4908 5.38456 19.3233 5.26033 19.4113C4.86577 19.9833 4.62804 20.6539 4.57202 21.3528C4.57202 21.7747 4.78919 21.8542 5.09101 21.56C5.30522 21.4164 5.54913 21.3263 5.80325 21.297C6.51548 21.1853 6.59646 20.3981 5.9652 19.7614ZM13.567 10.6956C13.3351 10.6956 12.932 10.5924 12.932 10.337C12.932 9.60467 12.8234 9.64441 12.0726 10.5357C11.7798 10.8423 11.5318 11.1909 11.3364 11.5707C11.1685 12.0856 10.9614 12.5861 10.7171 13.0675C10.0978 14.3732 9.95887 15.0733 10.2451 15.36C10.3306 15.4395 10.5156 15.3524 10.6628 15.1528C11.9787 14.1896 13.3958 16.3468 14.8203 12.5575C14.8368 11.5783 14.2341 10.6956 13.567 10.6956V10.6956ZM11.895 14.6352C11.1211 14.6352 10.9196 14.412 11.0438 13.973C11.3769 12.8669 12.3054 11.426 12.7314 11.3541C13.5053 11.2424 14.0087 11.0437 14.3105 12.1185C14.6123 13.1933 13.2504 14.6267 11.895 14.6352V14.6352ZM5.9652 19.7614C5.69466 19.4908 5.38456 19.3233 5.26033 19.4113C4.86577 19.9833 4.62804 20.6539 4.57202 21.3528C4.57202 21.7747 4.78919 21.8542 5.09101 21.56C5.30522 21.4164 5.54913 21.3263 5.80325 21.297C6.51548 21.1853 6.59646 20.3981 5.9652 19.7614ZM5.9652 19.7614C5.69466 19.4908 5.38456 19.3233 5.26033 19.4113C4.86577 19.9833 4.62804 20.6539 4.57202 21.3528C4.57202 21.7747 4.78919 21.8542 5.09101 21.56C5.30522 21.4164 5.54913 21.3263 5.80325 21.297C6.51548 21.1853 6.59646 20.3981 5.9652 19.7614ZM13.567 10.6956C13.3351 10.6956 12.932 10.5924 12.932 10.337C12.932 9.60467 12.8234 9.64441 12.0726 10.5357C11.7798 10.8423 11.5318 11.1909 11.3364 11.5707C11.1685 12.0856 10.9614 12.5861 10.7171 13.0675C10.0978 14.3732 9.95887 15.0733 10.2451 15.36C10.3306 15.4395 10.5156 15.3524 10.6628 15.1528C11.9787 14.1896 13.3958 16.3468 14.8203 12.5575C14.8368 11.5783 14.2341 10.6956 13.567 10.6956V10.6956ZM11.895 14.6352C11.1211 14.6352 10.9196 14.412 11.0438 13.973C11.3769 12.8669 12.3054 11.426 12.7314 11.3541C13.5053 11.2424 14.0087 11.0437 14.3105 12.1185C14.6123 13.1933 13.2504 14.6267 11.895 14.6352V14.6352Z" fill="#171717"/>
<path d="M11.8932 14.6343C11.1193 14.6343 10.9178 14.411 11.042 13.972C11.3752 12.866 12.3036 11.425 12.7297 11.3531C13.5036 11.2414 14.0069 11.0428 14.3087 12.1176C14.6106 13.1924 13.2505 14.6267 11.8932 14.6343Z" fill="white"/>
<path d="M26.4179 14.4441V13.0912L25.5667 13.147C24.7772 13.1943 24.6916 13.1546 24.491 12.55C24.3735 12.2081 24.298 11.8524 24.2665 11.4913C24.1929 11.1105 24.0187 10.758 23.7631 10.4723C23.4451 10.0551 23.2043 9.58146 23.0527 9.07484C22.7096 7.97891 22.1054 6.98857 21.2952 6.19387C19.902 4.61005 19.5468 1.90411 17.4009 1.17181C16.8745 1.17181 16.8975 0.893646 16.8975 2.33366C16.8975 3.77367 16.673 3.82192 16.2782 3.42455C16.0021 3.13184 15.7509 2.8153 15.5274 2.47842C15.2568 2.05644 14.7065 1.27683 14.2391 1.32414L14.2161 2.09618L13.9299 4.55612C13.8839 6.83251 14.0845 6.91199 12.5827 7.98679C12.2726 8.23373 11.9634 8.48067 11.6533 8.73518C11.553 8.82317 11.4518 8.90265 11.3515 8.98969L11.3441 8.99726C7.25701 12.3408 4.14037 16.7731 2.33354 21.8117C2.07037 24.3984 4.6092 26.9378 7.08637 26.8337C7.58931 26.7487 8.07093 26.5622 8.50348 26.285C9.53318 25.5602 10.5279 27.6379 11.2125 28.3466C11.7076 28.9909 11.8006 28.8556 13.7367 28.7686C16.7945 28.0117 21.8804 24.3832 23.7309 21.5732C24.1346 20.8658 24.6265 20.2157 25.1941 19.6393C26.1814 20.7312 29.4831 16.537 26.4179 14.4441ZM17.1239 1.81234L17.1009 1.86816C17.1129 1.82842 17.1129 1.81234 17.1211 1.81234H17.1239ZM14.6081 3.72258L14.747 2.47274L15.1961 3.42833C15.3918 3.87637 15.6527 4.29113 15.97 4.6583C16.396 5.36695 15.1105 6.12291 14.5897 6.53637C14.3955 6.53164 14.4029 5.52874 14.6044 3.72258H14.6081ZM8.20258 25.6501C6.2131 27.0031 3.6936 25.3076 2.70622 22.6414C2.64457 22.4664 2.582 22.2828 2.52863 22.1002C5.83398 14.0695 9.80556 10.2405 16.4006 5.56848C16.4038 5.97754 16.3192 6.38229 16.1531 6.75398C16.1175 6.82064 16.0868 6.8899 16.0611 6.96119V6.96119C15.8596 7.46264 15.9369 7.78905 16.27 7.78905C16.296 7.79047 16.322 7.78792 16.3473 7.78148C16.7577 7.66227 16.9914 6.52407 17.4313 2.83038C17.5168 2.10564 17.5472 1.97034 17.7717 2.15389C17.8257 2.19592 17.8773 2.2411 17.9263 2.28919C18.354 2.89553 18.7494 3.52532 19.1106 4.17578C20.021 5.35003 20.471 6.83202 20.3722 8.33024C20.3722 9.72294 20.5894 10.3521 20.9372 9.99354C21.0582 9.63839 21.1159 9.26371 21.1074 8.88751C21.1305 8.21859 21.0458 7.20056 21.239 7.20056C21.3311 7.20056 21.4792 7.35194 21.6568 7.59036C22.275 8.43694 22.7392 9.3915 23.027 10.4079C23.064 10.7582 23.1985 11.09 23.4144 11.3635C23.7935 11.8366 23.7935 11.8489 23.3831 12.1838C23.3091 12.2489 23.2441 12.324 23.1899 12.4071C23.0422 12.6379 22.9542 12.9036 22.934 13.1792C22.888 14.2379 22.6865 14.1423 22.5853 13.0041C22.5742 12.6053 22.5037 12.2106 22.3764 11.8338C21.9689 11.7049 21.5478 11.6274 21.1222 11.6029C20.7108 11.5109 20.2837 11.5261 19.8795 11.6471C19.4753 11.768 19.107 11.9909 18.8079 12.2955C16.8644 13.6409 16.5396 14.6116 17.5693 15.9854C17.825 16.2903 18.0133 16.6486 18.1214 17.0356C18.1214 17.3194 17.4018 17.871 16.1706 18.5324C14.7387 19.6942 14.2198 21.8041 12.1373 22.1542C11.3092 22.4323 10.4267 22.7833 10.1709 22.9025C9.18627 23.6528 8.89917 24.7276 8.20258 25.6501ZM9.75863 25.7778L9.32522 25.1411L9.83593 24.2659C10.0276 23.9397 10.2849 23.6594 10.5906 23.4439C10.8963 23.2283 11.2432 23.0825 11.6082 23.0161C12.297 22.8745 12.9619 22.6304 13.5821 22.2913C13.9948 22.1446 14.3736 21.9118 14.6947 21.6075C15.0158 21.3032 15.2724 20.934 15.4482 20.523C16.246 18.9392 17.7009 18.2069 18.6376 18.9231C19.025 19.207 19.0057 19.2259 18.4131 19.2335C17.6309 19.241 17.2905 19.5674 17.2905 20.3158C17.2905 20.77 17.1984 20.8968 16.857 20.8968C16.5709 20.8968 16.3537 21.0954 16.1991 21.5013C16.1413 21.6739 16.0456 21.8305 15.9193 21.9588C15.7931 22.0871 15.6397 22.1838 15.4712 22.2412C15.0307 22.391 14.6135 22.6054 14.2326 22.8779C13.8176 23.1604 13.342 23.3351 12.8468 23.387C12.3518 23.387 12.0186 23.5942 11.3607 24.318C10.4552 25.3133 10.2077 25.8223 10.9733 25.1137C11.4787 24.5738 12.165 24.2521 12.8928 24.2139C13.2316 24.2 13.5583 24.0806 13.8296 23.8714C14.278 23.5623 14.7686 23.3235 15.2853 23.1627C16.1135 22.8846 16.431 22.6613 16.6555 22.1674C16.7139 21.9844 16.821 21.8218 16.9646 21.6981C17.1082 21.5743 17.2826 21.4944 17.4681 21.4673C17.9282 21.4114 18.0101 21.2847 18.0644 20.6233C18.126 19.8986 18.1803 19.8437 18.7609 19.8437C19.3729 19.8437 19.3876 19.8674 19.2799 20.6479C19.1883 21.2306 18.9074 21.7642 18.483 22.1617C16.8184 23.6453 14.8216 24.5914 13.2066 26.0806C11.4582 27.2983 10.734 27.2349 9.75863 25.7778V25.7778ZM19.5127 24.6633C17.3374 26.1355 14.6127 28.9691 11.8337 28.4043C11.2457 28.1659 11.0754 27.847 11.4389 27.7912C11.4849 27.7843 11.5314 27.7817 11.5779 27.7836C13.2186 26.9879 17.399 23.597 19.141 22.2677C19.3996 22.102 19.611 21.8689 19.7537 21.5921C19.8964 21.3152 19.9654 21.0045 19.9535 20.6914C19.9535 19.5059 19.3342 18.2078 18.7849 18.2078C18.5603 18.2078 18.5143 18.1047 18.6146 17.8493C18.7739 17.5524 18.854 17.2175 18.8465 16.8785C18.7868 16.6213 18.6384 16.3951 18.4288 16.2418C18.0967 15.8872 17.898 15.4227 17.8682 14.9314C17.8383 14.4401 17.9793 13.9538 18.2659 13.5595C19.2104 12.9687 20.2566 12.5703 21.3476 12.3863C21.7967 12.3863 22.0672 13.1508 21.874 13.9143C21.7737 14.3363 21.897 14.4877 22.7104 14.973C23.1897 15.2492 23.6432 15.5704 24.065 15.9324C26.1235 19.2193 22.0829 22.825 19.5127 24.6633ZM25.0091 15.4461C24.8315 15.6769 24.9392 15.589 24.2509 15.2711C23.6316 15.2313 23.384 14.8169 23.6389 13.8623C23.6702 13.7591 23.6932 13.673 23.7245 13.5917C23.949 12.9625 24.1846 13.1375 24.6447 13.3845C24.8729 13.507 25.1112 13.6083 25.3569 13.6872C25.7903 13.8301 25.8446 14.7535 25.4342 15.0005C25.2795 15.1356 25.1372 15.2851 25.0091 15.447V15.4461ZM26.8495 17.802V17.818C26.8357 18.115 26.7213 18.3977 26.5262 18.6171C26.3311 18.8365 26.0676 18.9789 25.7811 19.0196C25.229 19.0196 24.93 18.5257 25.2474 18.1284C25.3843 17.8564 25.441 17.5493 25.4103 17.2447C25.3931 16.9154 25.4564 16.5868 25.5943 16.2891C25.608 16.2616 25.6233 16.235 25.6404 16.2096C26.244 15.5256 26.7704 16.273 26.8633 17.1728C26.8827 17.3826 26.8787 17.594 26.8513 17.8029L26.8495 17.802Z" fill="#171717"/>
<path d="M19.2934 20.6602C19.2018 21.2429 18.9209 21.7765 18.4965 22.174C16.8319 23.6547 14.8351 24.6018 13.2173 26.0901C11.4598 27.3002 10.7328 27.2358 9.75739 25.7797L9.32397 25.143L9.83469 24.2678C10.0264 23.9416 10.2837 23.6613 10.5893 23.4458C10.895 23.2302 11.242 23.0843 11.607 23.018C12.2957 22.8764 12.9607 22.6323 13.5808 22.2932C13.9933 22.1465 14.3718 21.9138 14.6928 21.6097C15.0138 21.3056 15.2702 20.9366 15.4461 20.5259C16.243 18.9421 17.6987 18.2097 18.6355 18.926C19.0229 19.2098 19.0036 19.2287 18.4109 19.2363C17.6288 19.2439 17.2883 19.5703 17.2883 20.3187C17.2883 20.7728 17.1963 20.8996 16.8549 20.8996C16.5687 20.8996 16.3515 21.0983 16.1969 21.5042C16.1391 21.6768 16.0434 21.8333 15.9172 21.9616C15.7909 22.0899 15.6376 22.1866 15.4691 22.244C15.0285 22.3938 14.6113 22.6083 14.2305 22.8808C13.8154 23.1632 13.3398 23.3379 12.8447 23.3898C12.3496 23.3898 12.0165 23.597 11.3585 24.3208C10.4531 25.3161 10.2055 25.8251 10.9711 25.1165C11.4765 24.5767 12.1629 24.255 12.8907 24.2167C13.2295 24.2029 13.5562 24.0834 13.8274 23.8742C14.2759 23.5652 14.7665 23.3264 15.2832 23.1656C16.1114 22.8874 16.4288 22.6641 16.6534 22.1702C16.7118 21.9872 16.8188 21.8247 16.9624 21.7009C17.106 21.5772 17.2804 21.4972 17.4659 21.4701C17.926 21.4143 18.0079 21.2866 18.0622 20.6262C18.1238 19.9014 18.1781 19.8466 18.7588 19.8466C19.3864 19.857 19.402 19.8806 19.2934 20.6602Z" fill="white"/>
<path d="M26.8581 17.1812C26.7979 17.1652 26.7422 17.1351 26.6952 17.0932C26.6022 16.9872 26.4924 16.8983 26.3704 16.8302C26.2158 16.7507 26.1385 16.6873 25.9682 16.6069C25.8333 16.5179 25.7064 16.4166 25.5891 16.3042C25.603 16.2766 25.6187 16.2501 25.636 16.2247C26.2461 15.5416 26.7651 16.289 26.8581 17.1812Z" fill="#49BE7A"/>
<path d="M25.4336 15.009C25.2756 15.1377 25.1327 15.2847 25.0075 15.447C24.8759 15.3193 24.8373 15.1367 24.7213 15.009C24.5468 14.8184 24.3986 14.6041 24.2806 14.3722C24.21 14.2253 24.1243 14.0867 24.0247 13.9588C23.9166 13.8435 23.8158 13.7212 23.7229 13.5926C23.9474 12.9634 24.183 13.1394 24.6431 13.3854C24.8713 13.5079 25.1096 13.6092 25.3553 13.6882C25.7823 13.8386 25.8394 14.762 25.4336 15.009Z" fill="#49BE7A"/>
<path d="M23.3825 12.1753C23.3085 12.2403 23.2435 12.3155 23.1892 12.3986C23.1093 12.2886 23.0443 12.168 22.996 12.04C22.9417 11.8252 22.8175 11.6814 22.7714 11.4827C22.7335 11.2896 22.6717 11.1024 22.5874 10.9254C22.5254 10.7086 22.4504 10.496 22.3629 10.2887C22.2156 10.0995 22.2313 9.93011 22.1384 9.73143C22.0539 9.56455 21.9813 9.39158 21.9212 9.21389C21.8992 9.0255 21.8629 8.83917 21.8126 8.65662C21.7592 8.49942 21.7228 8.33665 21.704 8.17125C21.6689 7.9798 21.6531 7.78512 21.6571 7.59033C22.2753 8.4369 22.7395 9.39146 23.0273 10.4079C23.0643 10.7581 23.1988 11.09 23.4147 11.3635C23.7929 11.8252 23.7929 11.8404 23.3825 12.1753Z" fill="#49BE7A"/>
<path d="M16.1616 6.75393C16.1261 6.82059 16.0953 6.88985 16.0696 6.96113V6.96113C16.0558 6.9672 16.0428 6.97515 16.031 6.98478C15.8224 7.07958 15.6271 7.20273 15.4503 7.35093C15.2634 7.52972 15.0523 7.67982 14.8237 7.79656C14.5442 7.91022 14.2748 8.04857 14.0185 8.21002C13.8018 8.33486 13.5925 8.47292 13.3918 8.62348C13.242 8.755 13.0685 8.85497 12.8811 8.91772C12.7179 8.99387 12.5602 9.08176 12.4091 9.18075C12.2469 9.28418 12.076 9.37222 11.8984 9.44377C11.7681 9.52998 11.6574 9.64387 11.5735 9.77776C11.4817 9.91659 11.4063 10.0662 11.349 10.2234C11.2947 10.4382 11.1558 10.4542 11.0545 10.669C10.962 10.8291 10.8531 10.9784 10.7297 11.1146C10.6162 11.2815 10.4809 11.4314 10.3276 11.5603C10.1491 11.6985 9.97857 11.8473 9.81686 12.0059C9.66855 12.1299 9.54376 12.281 9.44878 12.4515C9.27772 12.7159 9.08335 12.9636 8.86814 13.1914C8.4305 13.702 8.03671 14.2506 7.6912 14.831C7.38109 15.3722 6.94768 15.8898 6.63021 16.4707C6.41891 16.8899 6.1726 17.2894 5.89405 17.6647C5.62351 17.9911 5.42199 18.4368 5.12753 18.7395C4.90716 18.982 4.72127 19.2553 4.57541 19.5513C4.45946 19.7982 4.19628 20.0244 4.13371 20.2912C4.07531 20.4827 3.97774 20.6592 3.84753 20.8087C3.73543 21.012 3.61255 21.2087 3.47945 21.3981C3.36175 21.5021 3.26217 21.6259 3.18498 21.7643C3.11505 21.9157 3.00095 22.0027 2.92917 22.1778C2.87488 22.3291 2.76629 22.5117 2.72765 22.6508C2.66599 22.4758 2.60342 22.2922 2.55005 22.1096C5.8554 14.0789 9.82698 10.2499 16.4221 5.57788C16.4192 5.98467 16.3303 6.38595 16.1616 6.75393V6.75393Z" fill="#49BE7A"/>
<path d="M17.7776 2.34498V3.24475C17.7776 3.49169 17.7316 3.79351 17.7316 3.97705C17.7316 4.26089 17.6313 4.52581 17.6313 4.76518V5.55331C17.6584 5.81528 17.6584 6.07947 17.6313 6.34144C17.5853 6.51647 17.6313 6.89019 17.577 7.12956C17.5071 7.43233 17.4997 7.70292 17.1169 7.70292C16.8924 7.70292 16.4589 7.91012 16.3586 7.77482C16.7691 7.65561 17.0028 6.51742 17.4426 2.82372C17.5282 2.09898 17.5586 1.96369 17.7831 2.14724L17.7776 2.34498Z" fill="#49BE7A"/>
</g>
<line x1="35.25" y1="4" x2="35.25" y2="26" stroke="#171717" stroke-width="0.5"/>
<path d="M48.4365 18.9268V20H43.166V18.9268H48.4365ZM43.4326 10.0469V20H42.1132V10.0469H43.4326ZM47.7392 14.3262V15.3994H43.166V14.3262H47.7392ZM48.3681 10.0469V11.127H43.166V10.0469H48.3681ZM51.2835 14.1826V20H50.0189V12.6035H51.2152L51.2835 14.1826ZM50.9827 16.0215L50.4564 16.001C50.4609 15.4951 50.5361 15.028 50.682 14.5996C50.8278 14.1667 51.0329 13.7907 51.2972 13.4717C51.5615 13.1527 51.876 12.9066 52.2405 12.7334C52.6097 12.5557 53.0176 12.4668 53.4642 12.4668C53.8288 12.4668 54.1569 12.5169 54.4486 12.6172C54.7402 12.7129 54.9886 12.8678 55.1937 13.082C55.4033 13.2962 55.5628 13.5742 55.6722 13.916C55.7816 14.2533 55.8363 14.6657 55.8363 15.1533V20H54.5648V15.1396C54.5648 14.7523 54.5078 14.4424 54.3939 14.21C54.2799 13.973 54.1136 13.8021 53.8948 13.6973C53.6761 13.5879 53.4072 13.5332 53.0882 13.5332C52.7738 13.5332 52.4866 13.5993 52.2269 13.7314C51.9717 13.8636 51.7506 14.0459 51.5638 14.2783C51.3815 14.5107 51.2379 14.7773 51.1331 15.0781C51.0329 15.3743 50.9827 15.6888 50.9827 16.0215ZM60.9938 12.6035V13.5742H56.9948V12.6035H60.9938ZM58.3483 10.8057H59.613V18.168C59.613 18.4186 59.6517 18.6077 59.7292 18.7354C59.8067 18.863 59.9069 18.9473 60.03 18.9883C60.153 19.0293 60.2852 19.0498 60.4264 19.0498C60.5313 19.0498 60.6406 19.0407 60.7546 19.0225C60.8731 18.9997 60.9619 18.9814 61.0212 18.9678L61.028 20C60.9277 20.0319 60.7956 20.0615 60.6315 20.0889C60.472 20.1208 60.2783 20.1367 60.0505 20.1367C59.7406 20.1367 59.4557 20.0752 59.196 19.9521C58.9362 19.8291 58.7289 19.624 58.5739 19.3369C58.4235 19.0452 58.3483 18.6533 58.3483 18.1611V10.8057ZM65.6866 20.1367C65.1716 20.1367 64.7045 20.0501 64.2852 19.877C63.8705 19.6992 63.5127 19.4508 63.212 19.1318C62.9157 18.8128 62.6879 18.4346 62.5284 17.9971C62.3689 17.5596 62.2891 17.0811 62.2891 16.5615V16.2744C62.2891 15.6729 62.378 15.1374 62.5557 14.668C62.7334 14.194 62.975 13.793 63.2803 13.4648C63.5857 13.1367 63.932 12.8883 64.3194 12.7197C64.7067 12.5511 65.1078 12.4668 65.5225 12.4668C66.0511 12.4668 66.5069 12.5579 66.8897 12.7402C67.2771 12.9225 67.5938 13.1777 67.8399 13.5059C68.086 13.8294 68.2683 14.2122 68.3868 14.6543C68.5052 15.0918 68.5645 15.5703 68.5645 16.0898V16.6572H63.0411V15.625H67.2998V15.5293C67.2816 15.2012 67.2133 14.8822 67.0948 14.5723C66.9808 14.2624 66.7985 14.0072 66.5479 13.8066C66.2972 13.6061 65.9554 13.5059 65.5225 13.5059C65.2354 13.5059 64.9711 13.5674 64.7295 13.6904C64.488 13.8089 64.2806 13.9867 64.1075 14.2236C63.9343 14.4606 63.7998 14.75 63.7041 15.0918C63.6084 15.4336 63.5606 15.8278 63.5606 16.2744V16.5615C63.5606 16.9124 63.6084 17.2428 63.7041 17.5527C63.8044 17.8581 63.948 18.127 64.1348 18.3594C64.3262 18.5918 64.5564 18.7741 64.8252 18.9062C65.0987 19.0384 65.4086 19.1045 65.7549 19.1045C66.2015 19.1045 66.5798 19.0133 66.8897 18.8311C67.1996 18.6488 67.4707 18.4049 67.7032 18.0996L68.4688 18.708C68.3093 18.9495 68.1065 19.1797 67.8604 19.3984C67.6143 19.6172 67.3112 19.7949 66.9512 19.9316C66.5957 20.0684 66.1742 20.1367 65.6866 20.1367ZM71.4457 13.7656V20H70.1811V12.6035H71.4115L71.4457 13.7656ZM73.7563 12.5625L73.7494 13.7383C73.6446 13.7155 73.5443 13.7018 73.4486 13.6973C73.3575 13.6882 73.2527 13.6836 73.1342 13.6836C72.8425 13.6836 72.585 13.7292 72.3617 13.8203C72.1384 13.9115 71.9493 14.0391 71.7943 14.2031C71.6394 14.3672 71.5163 14.5632 71.4252 14.791C71.3386 15.0143 71.2816 15.2604 71.2543 15.5293L70.8988 15.7344C70.8988 15.2878 70.9421 14.8685 71.0287 14.4766C71.1199 14.0846 71.2589 13.7383 71.4457 13.4375C71.6326 13.1322 71.8695 12.8952 72.1566 12.7266C72.4483 12.5534 72.7947 12.4668 73.1957 12.4668C73.2868 12.4668 73.3917 12.4782 73.5102 12.501C73.6286 12.5192 73.7107 12.5397 73.7563 12.5625ZM76.3298 14.0254V22.8438H75.0584V12.6035H76.2205L76.3298 14.0254ZM81.3132 16.2402V16.3838C81.3132 16.9215 81.2494 17.4206 81.1218 17.8809C80.9942 18.3366 80.8074 18.7331 80.5613 19.0703C80.3198 19.4076 80.0213 19.6696 79.6658 19.8564C79.3103 20.0433 78.9024 20.1367 78.4422 20.1367C77.9727 20.1367 77.558 20.0592 77.198 19.9043C76.838 19.7493 76.5326 19.5238 76.282 19.2275C76.0313 18.9313 75.8308 18.5758 75.6804 18.1611C75.5346 17.7464 75.4343 17.2793 75.3797 16.7598V15.9941C75.4343 15.4473 75.5369 14.9574 75.6873 14.5244C75.8377 14.0915 76.0359 13.7223 76.282 13.417C76.5326 13.1071 76.8357 12.8724 77.1912 12.7129C77.5466 12.5488 77.9568 12.4668 78.4216 12.4668C78.8865 12.4668 79.2989 12.5579 79.6589 12.7402C80.019 12.918 80.322 13.1732 80.5681 13.5059C80.8142 13.8385 80.9988 14.2373 81.1218 14.7021C81.2494 15.1624 81.3132 15.6751 81.3132 16.2402ZM80.0418 16.3838V16.2402C80.0418 15.8711 80.003 15.5247 79.9255 15.2012C79.8481 14.873 79.7273 14.5859 79.5632 14.3398C79.4037 14.0892 79.1987 13.8932 78.948 13.752C78.6974 13.6061 78.3989 13.5332 78.0525 13.5332C77.7335 13.5332 77.4555 13.5879 77.2185 13.6973C76.9861 13.8066 76.7879 13.9548 76.6238 14.1416C76.4597 14.3239 76.3253 14.5335 76.2205 14.7705C76.1202 15.0029 76.045 15.2445 75.9949 15.4951V17.2656C76.086 17.5846 76.2136 17.8854 76.3777 18.168C76.5418 18.446 76.7605 18.6715 77.0339 18.8447C77.3074 19.0133 77.6515 19.0977 78.0662 19.0977C78.408 19.0977 78.7019 19.027 78.948 18.8857C79.1987 18.7399 79.4037 18.5417 79.5632 18.291C79.7273 18.0404 79.8481 17.7533 79.9255 17.4297C80.003 17.1016 80.0418 16.7529 80.0418 16.3838ZM84.3312 13.7656V20H83.0665V12.6035H84.297L84.3312 13.7656ZM86.6417 12.5625L86.6349 13.7383C86.5301 13.7155 86.4298 13.7018 86.3341 13.6973C86.243 13.6882 86.1381 13.6836 86.0196 13.6836C85.728 13.6836 85.4705 13.7292 85.2472 13.8203C85.0239 13.9115 84.8348 14.0391 84.6798 14.2031C84.5249 14.3672 84.4018 14.5632 84.3107 14.791C84.2241 15.0143 84.1671 15.2604 84.1398 15.5293L83.7843 15.7344C83.7843 15.2878 83.8276 14.8685 83.9142 14.4766C84.0053 14.0846 84.1443 13.7383 84.3312 13.4375C84.518 13.1322 84.755 12.8952 85.0421 12.7266C85.3338 12.5534 85.6801 12.4668 86.0812 12.4668C86.1723 12.4668 86.2771 12.4782 86.3956 12.501C86.5141 12.5192 86.5961 12.5397 86.6417 12.5625ZM89.3247 12.6035V20H88.0532V12.6035H89.3247ZM87.9575 10.6416C87.9575 10.4365 88.019 10.2633 88.1421 10.1221C88.2697 9.98079 88.4565 9.91016 88.7026 9.91016C88.9442 9.91016 89.1287 9.98079 89.2563 10.1221C89.3885 10.2633 89.4546 10.4365 89.4546 10.6416C89.4546 10.8376 89.3885 11.0062 89.2563 11.1475C89.1287 11.2842 88.9442 11.3525 88.7026 11.3525C88.4565 11.3525 88.2697 11.2842 88.1421 11.1475C88.019 11.0062 87.9575 10.8376 87.9575 10.6416ZM95.8016 18.0381C95.8016 17.8558 95.7606 17.6872 95.6786 17.5322C95.6011 17.3727 95.4393 17.2292 95.1932 17.1016C94.9517 16.9694 94.5871 16.8555 94.0995 16.7598C93.6893 16.6732 93.3179 16.5706 92.9852 16.4521C92.6571 16.3337 92.3768 16.1901 92.1444 16.0215C91.9165 15.8529 91.7411 15.6546 91.618 15.4268C91.495 15.1989 91.4334 14.9323 91.4334 14.627C91.4334 14.3353 91.4972 14.0596 91.6248 13.7998C91.757 13.54 91.9416 13.3099 92.1786 13.1094C92.4201 12.9089 92.7095 12.7516 93.0467 12.6377C93.384 12.5238 93.7599 12.4668 94.1746 12.4668C94.7671 12.4668 95.273 12.5716 95.6922 12.7812C96.1115 12.9909 96.4328 13.2712 96.6561 13.6221C96.8794 13.9684 96.9911 14.3535 96.9911 14.7773H95.7264C95.7264 14.5723 95.6649 14.374 95.5418 14.1826C95.4233 13.9867 95.2479 13.8249 95.0155 13.6973C94.7876 13.5697 94.5073 13.5059 94.1746 13.5059C93.8237 13.5059 93.5389 13.5605 93.3202 13.6699C93.106 13.7747 92.9487 13.9092 92.8485 14.0732C92.7528 14.2373 92.7049 14.4105 92.7049 14.5928C92.7049 14.7295 92.7277 14.8525 92.7733 14.9619C92.8234 15.0667 92.91 15.1647 93.033 15.2559C93.1561 15.3424 93.3293 15.4245 93.5526 15.502C93.7759 15.5794 94.0607 15.6569 94.4071 15.7344C95.0132 15.8711 95.5122 16.0352 95.9041 16.2266C96.2961 16.418 96.5877 16.6527 96.7791 16.9307C96.9705 17.2087 97.0662 17.5459 97.0662 17.9424C97.0662 18.266 96.9979 18.5622 96.8612 18.8311C96.729 19.0999 96.5353 19.3324 96.2801 19.5283C96.0295 19.7197 95.7287 19.8701 95.3778 19.9795C95.0314 20.0843 94.6418 20.1367 94.2088 20.1367C93.5571 20.1367 93.0057 20.0205 92.5545 19.7881C92.1034 19.5557 91.7616 19.2549 91.5291 18.8857C91.2967 18.5166 91.1805 18.127 91.1805 17.7168H92.452C92.4702 18.0632 92.5705 18.3389 92.7528 18.5439C92.9351 18.7445 93.1584 18.888 93.4227 18.9746C93.687 19.0566 93.9491 19.0977 94.2088 19.0977C94.5552 19.0977 94.8446 19.0521 95.077 18.9609C95.314 18.8698 95.494 18.7445 95.617 18.585C95.7401 18.4255 95.8016 18.2432 95.8016 18.0381ZM101.937 20.1367C101.422 20.1367 100.955 20.0501 100.535 19.877C100.121 19.6992 99.7629 19.4508 99.4621 19.1318C99.1659 18.8128 98.938 18.4346 98.7785 17.9971C98.619 17.5596 98.5393 17.0811 98.5393 16.5615V16.2744C98.5393 15.6729 98.6281 15.1374 98.8059 14.668C98.9836 14.194 99.2251 13.793 99.5305 13.4648C99.8358 13.1367 100.182 12.8883 100.57 12.7197C100.957 12.5511 101.358 12.4668 101.773 12.4668C102.301 12.4668 102.757 12.5579 103.14 12.7402C103.527 12.9225 103.844 13.1777 104.09 13.5059C104.336 13.8294 104.518 14.2122 104.637 14.6543C104.755 15.0918 104.815 15.5703 104.815 16.0898V16.6572H99.2912V15.625H103.55V15.5293C103.532 15.2012 103.463 14.8822 103.345 14.5723C103.231 14.2624 103.049 14.0072 102.798 13.8066C102.547 13.6061 102.206 13.5059 101.773 13.5059C101.486 13.5059 101.221 13.5674 100.98 13.6904C100.738 13.8089 100.531 13.9867 100.358 14.2236C100.184 14.4606 100.05 14.75 99.9543 15.0918C99.8586 15.4336 99.8107 15.8278 99.8107 16.2744V16.5615C99.8107 16.9124 99.8586 17.2428 99.9543 17.5527C100.055 17.8581 100.198 18.127 100.385 18.3594C100.576 18.5918 100.807 18.7741 101.075 18.9062C101.349 19.0384 101.659 19.1045 102.005 19.1045C102.452 19.1045 102.83 19.0133 103.14 18.8311C103.45 18.6488 103.721 18.4049 103.953 18.0996L104.719 18.708C104.559 18.9495 104.357 19.1797 104.111 19.3984C103.864 19.6172 103.561 19.7949 103.201 19.9316C102.846 20.0684 102.424 20.1367 101.937 20.1367ZM114.761 10.0332H114.87V11.1064H114.761C114.091 11.1064 113.53 11.2158 113.079 11.4346C112.628 11.6488 112.27 11.9382 112.006 12.3027C111.741 12.6628 111.55 13.0684 111.432 13.5195C111.318 13.9707 111.261 14.4287 111.261 14.8936V16.3564C111.261 16.7985 111.313 17.1904 111.418 17.5322C111.523 17.8695 111.666 18.1543 111.849 18.3867C112.031 18.6191 112.236 18.7946 112.464 18.9131C112.696 19.0316 112.938 19.0908 113.188 19.0908C113.48 19.0908 113.74 19.0361 113.968 18.9268C114.196 18.8128 114.387 18.6556 114.542 18.4551C114.701 18.25 114.822 18.0085 114.904 17.7305C114.986 17.4525 115.027 17.1471 115.027 16.8145C115.027 16.5182 114.991 16.2334 114.918 15.96C114.845 15.682 114.733 15.4359 114.583 15.2217C114.433 15.0029 114.243 14.832 114.016 14.709C113.792 14.5814 113.526 14.5176 113.216 14.5176C112.865 14.5176 112.537 14.6042 112.231 14.7773C111.931 14.946 111.682 15.1693 111.486 15.4473C111.295 15.7207 111.185 16.0192 111.158 16.3428L110.488 16.3359C110.552 15.8255 110.67 15.3903 110.844 15.0303C111.021 14.6657 111.24 14.3695 111.5 14.1416C111.764 13.9092 112.058 13.7406 112.382 13.6357C112.71 13.5264 113.056 13.4717 113.421 13.4717C113.918 13.4717 114.346 13.5651 114.706 13.752C115.066 13.9388 115.362 14.1895 115.595 14.5039C115.827 14.8138 115.998 15.1647 116.107 15.5566C116.221 15.944 116.278 16.3428 116.278 16.7529C116.278 17.2223 116.212 17.6621 116.08 18.0723C115.948 18.4824 115.75 18.8424 115.485 19.1523C115.226 19.4622 114.904 19.7038 114.521 19.877C114.139 20.0501 113.694 20.1367 113.188 20.1367C112.651 20.1367 112.181 20.0273 111.78 19.8086C111.379 19.5853 111.046 19.2891 110.782 18.9199C110.518 18.5508 110.32 18.1406 110.187 17.6895C110.055 17.2383 109.989 16.7803 109.989 16.3154V15.7207C109.989 15.0189 110.06 14.3307 110.201 13.6562C110.342 12.9818 110.586 12.3711 110.933 11.8242C111.283 11.2773 111.769 10.8421 112.389 10.5186C113.008 10.195 113.799 10.0332 114.761 10.0332ZM119.522 15.2627L118.51 15.0029L119.009 10.0469H124.116V11.2158H120.082L119.782 13.9229C119.964 13.818 120.194 13.7201 120.472 13.6289C120.755 13.5378 121.078 13.4922 121.443 13.4922C121.903 13.4922 122.315 13.5719 122.68 13.7314C123.045 13.8864 123.354 14.1097 123.61 14.4014C123.869 14.693 124.068 15.0439 124.204 15.4541C124.341 15.8643 124.409 16.3223 124.409 16.8281C124.409 17.3066 124.343 17.7464 124.211 18.1475C124.084 18.5485 123.89 18.8994 123.63 19.2002C123.37 19.4964 123.042 19.7266 122.646 19.8906C122.254 20.0547 121.791 20.1367 121.258 20.1367C120.857 20.1367 120.477 20.082 120.116 19.9727C119.761 19.8587 119.442 19.6878 119.159 19.46C118.881 19.2275 118.654 18.9404 118.476 18.5986C118.303 18.2523 118.193 17.8467 118.148 17.3818H119.351C119.406 17.7555 119.515 18.07 119.679 18.3252C119.843 18.5804 120.057 18.7741 120.322 18.9062C120.59 19.0339 120.903 19.0977 121.258 19.0977C121.559 19.0977 121.825 19.0452 122.058 18.9404C122.29 18.8356 122.486 18.6852 122.646 18.4893C122.805 18.2933 122.926 18.0563 123.008 17.7783C123.095 17.5003 123.138 17.1882 123.138 16.8418C123.138 16.5273 123.095 16.2357 123.008 15.9668C122.921 15.6979 122.792 15.4632 122.618 15.2627C122.45 15.0622 122.242 14.9072 121.996 14.7979C121.75 14.6839 121.468 14.627 121.149 14.627C120.725 14.627 120.404 14.6839 120.185 14.7979C119.971 14.9118 119.75 15.0667 119.522 15.2627ZM132.185 14.2305V15.748C132.185 16.5638 132.112 17.252 131.966 17.8125C131.821 18.373 131.611 18.8242 131.338 19.166C131.064 19.5078 130.734 19.7562 130.346 19.9111C129.964 20.0615 129.531 20.1367 129.048 20.1367C128.665 20.1367 128.311 20.0889 127.988 19.9932C127.664 19.8975 127.373 19.7448 127.113 19.5352C126.858 19.321 126.639 19.043 126.457 18.7012C126.274 18.3594 126.135 17.9447 126.04 17.457C125.944 16.9694 125.896 16.3997 125.896 15.748V14.2305C125.896 13.4147 125.969 12.7311 126.115 12.1797C126.265 11.6283 126.477 11.1862 126.751 10.8535C127.024 10.5163 127.352 10.2747 127.735 10.1289C128.122 9.98307 128.555 9.91016 129.034 9.91016C129.421 9.91016 129.777 9.95801 130.1 10.0537C130.428 10.1449 130.72 10.293 130.975 10.498C131.23 10.6986 131.447 10.9674 131.625 11.3047C131.807 11.6374 131.946 12.0452 132.042 12.5283C132.137 13.0114 132.185 13.5788 132.185 14.2305ZM130.914 15.9531V14.0186C130.914 13.5719 130.886 13.18 130.832 12.8428C130.782 12.501 130.706 12.2093 130.606 11.9678C130.506 11.7262 130.378 11.5303 130.223 11.3799C130.073 11.2295 129.897 11.1201 129.697 11.0518C129.501 10.9788 129.28 10.9424 129.034 10.9424C128.733 10.9424 128.466 10.9993 128.234 11.1133C128.002 11.2227 127.806 11.3981 127.646 11.6396C127.491 11.8812 127.373 12.1979 127.291 12.5898C127.209 12.9818 127.168 13.458 127.168 14.0186V15.9531C127.168 16.3997 127.193 16.7939 127.243 17.1357C127.298 17.4775 127.377 17.7738 127.482 18.0244C127.587 18.2705 127.714 18.4733 127.865 18.6328C128.015 18.7923 128.188 18.9108 128.384 18.9883C128.585 19.0612 128.806 19.0977 129.048 19.0977C129.357 19.0977 129.629 19.0384 129.861 18.9199C130.093 18.8014 130.287 18.6169 130.442 18.3662C130.602 18.111 130.72 17.7852 130.798 17.3887C130.875 16.9876 130.914 16.5091 130.914 15.9531ZM140.2 14.2305V15.748C140.2 16.5638 140.127 17.252 139.981 17.8125C139.836 18.373 139.626 18.8242 139.353 19.166C139.079 19.5078 138.749 19.7562 138.361 19.9111C137.979 20.0615 137.546 20.1367 137.062 20.1367C136.68 20.1367 136.326 20.0889 136.003 19.9932C135.679 19.8975 135.388 19.7448 135.128 19.5352C134.873 19.321 134.654 19.043 134.472 18.7012C134.289 18.3594 134.15 17.9447 134.055 17.457C133.959 16.9694 133.911 16.3997 133.911 15.748V14.2305C133.911 13.4147 133.984 12.7311 134.13 12.1797C134.28 11.6283 134.492 11.1862 134.766 10.8535C135.039 10.5163 135.367 10.2747 135.75 10.1289C136.137 9.98307 136.57 9.91016 137.049 9.91016C137.436 9.91016 137.792 9.95801 138.115 10.0537C138.443 10.1449 138.735 10.293 138.99 10.498C139.245 10.6986 139.462 10.9674 139.64 11.3047C139.822 11.6374 139.961 12.0452 140.057 12.5283C140.152 13.0114 140.2 13.5788 140.2 14.2305ZM138.929 15.9531V14.0186C138.929 13.5719 138.901 13.18 138.847 12.8428C138.797 12.501 138.721 12.2093 138.621 11.9678C138.521 11.7262 138.393 11.5303 138.238 11.3799C138.088 11.2295 137.912 11.1201 137.712 11.0518C137.516 10.9788 137.295 10.9424 137.049 10.9424C136.748 10.9424 136.481 10.9993 136.249 11.1133C136.017 11.2227 135.821 11.3981 135.661 11.6396C135.506 11.8812 135.388 12.1979 135.306 12.5898C135.224 12.9818 135.183 13.458 135.183 14.0186V15.9531C135.183 16.3997 135.208 16.7939 135.258 17.1357C135.312 17.4775 135.392 17.7738 135.497 18.0244C135.602 18.2705 135.729 18.4733 135.88 18.6328C136.03 18.7923 136.203 18.9108 136.399 18.9883C136.6 19.0612 136.821 19.0977 137.062 19.0977C137.372 19.0977 137.644 19.0384 137.876 18.9199C138.108 18.8014 138.302 18.6169 138.457 18.3662C138.617 18.111 138.735 17.7852 138.812 17.3887C138.89 16.9876 138.929 16.5091 138.929 15.9531Z" fill="#ffffff"/>
<defs>
<clipPath id="clip0_3896_89">
<rect width="25.3846" height="27.6923" fill="white" transform="translate(2.30762 1.15387)"/>
</clipPath>
</defs>
</svg>
