<svg width="138" height="30" viewBox="0 0 138 30" fill="none" xmlns="http://www.w3.org/2000/svg" data-testid="Enterprise450">
<mask id="mask0_3896_202" style="mask-type:alpha" maskUnits="userSpaceOnUse" x="0" y="0" width="30" height="30">
<circle cx="15" cy="15" r="15" fill="#C4C4C4"/>
</mask>
<g mask="url(#mask0_3896_202)">
</g>
<g clip-path="url(#clip0_3896_202)">
<path d="M26.8501 17.8029V17.819C26.8363 18.116 26.722 18.3986 26.5269 18.6181C26.3318 18.8375 26.0682 18.9799 25.7818 19.0206C25.2297 19.0206 24.9306 18.5267 25.248 18.1293C25.3849 17.8574 25.4415 17.5503 25.4109 17.2457C25.394 16.9167 25.4573 16.5885 25.595 16.291C25.6089 16.2635 25.6246 16.2369 25.6419 16.2115C26.2456 15.5275 26.7719 16.2749 26.8648 17.1747C26.8832 17.384 26.8782 17.5948 26.8501 17.8029V17.8029Z" fill="#11AB51"/>
<path d="M25.434 15.009C25.2761 15.1377 25.1331 15.2847 25.008 15.4471C24.8304 15.6779 24.938 15.5899 24.2497 15.272C23.6304 15.2323 23.3829 14.8179 23.6378 13.8633C23.6691 13.7601 23.6921 13.674 23.7234 13.5927C23.9479 12.9635 24.1835 13.1385 24.6436 13.3855C24.8718 13.508 25.1101 13.6093 25.3558 13.6882C25.7828 13.8387 25.8371 14.7621 25.434 15.009Z" fill="#11AB51"/>
<path d="M19.5126 24.6643C17.3373 26.1364 14.6126 28.9701 11.8336 28.4053C11.2456 28.1668 11.0753 27.848 11.4388 27.7922C11.4848 27.7852 11.5313 27.7827 11.5778 27.7846C13.2185 26.9889 17.3989 23.598 19.1409 22.2687C19.3995 22.103 19.6109 21.8699 19.7536 21.593C19.8963 21.3162 19.9652 21.0055 19.9534 20.6924C19.9534 19.5069 19.3341 18.2088 18.7848 18.2088C18.5602 18.2088 18.5142 18.1057 18.6145 17.8502C18.7738 17.5534 18.8538 17.2184 18.8464 16.8795C18.7866 16.6223 18.6382 16.3961 18.4286 16.2427C18.0966 15.8881 17.8979 15.4237 17.868 14.9324C17.8382 14.441 17.9792 13.9548 18.2658 13.5605C19.2096 12.9681 20.2556 12.5682 21.3466 12.3825C21.7956 12.3825 22.0662 13.147 21.8729 13.9105C21.7726 14.3325 21.8959 14.4839 22.7094 14.9693C23.1889 15.2466 23.6423 15.569 24.0639 15.9324C26.1215 19.2193 22.0827 22.825 19.5126 24.6643Z" fill="#11AB51"/>
<path d="M23.3829 12.1753C23.3089 12.2404 23.2439 12.3155 23.1897 12.3986C23.042 12.6295 22.954 12.8952 22.9339 13.1707C22.8878 14.2294 22.6863 14.1338 22.5851 12.9956C22.574 12.5968 22.5035 12.2021 22.3762 11.8253C21.9687 11.6965 21.5476 11.6189 21.122 11.5944C20.7106 11.5024 20.2835 11.5176 19.8793 11.6386C19.4751 11.7595 19.1068 11.9824 18.8077 12.287C16.8642 13.6324 16.5394 14.6031 17.5691 15.9769C17.8248 16.2818 18.0132 16.6401 18.1212 17.0271C18.1212 17.3109 17.4016 17.8625 16.1704 18.5239C14.7386 19.6857 14.2196 21.7956 12.1372 22.1457C11.309 22.4238 10.4265 22.7748 10.1707 22.8941C9.18791 23.651 8.90081 24.7163 8.20422 25.6482C6.21475 27.0012 3.69524 25.3057 2.70787 22.6395C2.64622 22.4645 2.58364 22.281 2.53027 22.0984C5.83563 14.0676 9.80721 10.2386 16.4023 5.56662C16.4054 5.97567 16.3209 6.38042 16.1547 6.75212C16.1192 6.81878 16.0884 6.88803 16.0627 6.95932V6.95932C15.8612 7.46077 15.9385 7.78718 16.2716 7.78718C16.2976 7.78861 16.3236 7.78606 16.3489 7.77962C16.7593 7.6604 16.993 6.52221 17.4329 2.82851C17.5185 2.10377 17.5488 1.96848 17.7734 2.15203C17.8274 2.19407 17.879 2.23924 17.928 2.28733C18.3557 2.89366 18.751 3.52345 19.1123 4.17391C20.0226 5.34816 20.4726 6.83016 20.3739 8.32837C20.3739 9.72108 20.591 10.3503 20.9389 9.99167C21.0598 9.63652 21.1175 9.26184 21.1091 8.88564C21.1321 8.21673 21.0474 7.19869 21.2407 7.19869C21.3327 7.19869 21.4809 7.35007 21.6585 7.5885C22.2766 8.43508 22.7408 9.38963 23.0286 10.4061C23.0656 10.7563 23.2001 11.0881 23.416 11.3617C23.7924 11.8253 23.7924 11.8414 23.3829 12.1753Z" fill="#11AB51"/>
<path d="M14.5877 6.53168C14.3944 6.53168 14.4036 5.52878 14.6033 3.72167L14.7423 2.47183L15.1913 3.42742C15.387 3.87546 15.648 4.29021 15.9652 4.65739C16.3839 5.36983 15.1048 6.12579 14.5877 6.53168Z" fill="#11AB51"/>
<path d="M11.6461 8.7446C11.5458 8.83259 11.4445 8.91206 11.3442 8.9991C11.4298 8.91963 11.4915 8.85624 11.6001 8.76825L11.6461 8.7446Z" fill="#49BE7A"/>
<path d="M5.9652 19.7614C5.69466 19.4908 5.38456 19.3233 5.26033 19.4113C4.86577 19.9833 4.62804 20.6539 4.57202 21.3528C4.57202 21.7747 4.78919 21.8542 5.09101 21.56C5.30522 21.4164 5.54913 21.3263 5.80325 21.297C6.51548 21.1853 6.59646 20.3981 5.9652 19.7614ZM13.567 10.6956C13.3351 10.6956 12.932 10.5924 12.932 10.337C12.932 9.60467 12.8234 9.64441 12.0726 10.5357C11.7798 10.8423 11.5318 11.1909 11.3364 11.5707C11.1685 12.0856 10.9614 12.5861 10.7171 13.0675C10.0978 14.3732 9.95887 15.0733 10.2451 15.36C10.3306 15.4395 10.5156 15.3524 10.6628 15.1528C11.9787 14.1896 13.3958 16.3468 14.8203 12.5575C14.8368 11.5783 14.2341 10.6956 13.567 10.6956V10.6956ZM11.895 14.6352C11.1211 14.6352 10.9196 14.412 11.0438 13.973C11.3769 12.8669 12.3054 11.426 12.7314 11.3541C13.5053 11.2424 14.0087 11.0437 14.3105 12.1185C14.6123 13.1933 13.2504 14.6267 11.895 14.6352V14.6352ZM13.567 10.6956C13.3351 10.6956 12.932 10.5924 12.932 10.337C12.932 9.60467 12.8234 9.64441 12.0726 10.5357C11.7798 10.8423 11.5318 11.1909 11.3364 11.5707C11.1685 12.0856 10.9614 12.5861 10.7171 13.0675C10.0978 14.3732 9.95887 15.0733 10.2451 15.36C10.3306 15.4395 10.5156 15.3524 10.6628 15.1528C11.9787 14.1896 13.3958 16.3468 14.8203 12.5575C14.8368 11.5783 14.2341 10.6956 13.567 10.6956V10.6956ZM11.895 14.6352C11.1211 14.6352 10.9196 14.412 11.0438 13.973C11.3769 12.8669 12.3054 11.426 12.7314 11.3541C13.5053 11.2424 14.0087 11.0437 14.3105 12.1185C14.6123 13.1933 13.2504 14.6267 11.895 14.6352V14.6352ZM5.9652 19.7614C5.69466 19.4908 5.38456 19.3233 5.26033 19.4113C4.86577 19.9833 4.62804 20.6539 4.57202 21.3528C4.57202 21.7747 4.78919 21.8542 5.09101 21.56C5.30522 21.4164 5.54913 21.3263 5.80325 21.297C6.51548 21.1853 6.59646 20.3981 5.9652 19.7614ZM5.9652 19.7614C5.69466 19.4908 5.38456 19.3233 5.26033 19.4113C4.86577 19.9833 4.62804 20.6539 4.57202 21.3528C4.57202 21.7747 4.78919 21.8542 5.09101 21.56C5.30522 21.4164 5.54913 21.3263 5.80325 21.297C6.51548 21.1853 6.59646 20.3981 5.9652 19.7614ZM13.567 10.6956C13.3351 10.6956 12.932 10.5924 12.932 10.337C12.932 9.60467 12.8234 9.64441 12.0726 10.5357C11.7798 10.8423 11.5318 11.1909 11.3364 11.5707C11.1685 12.0856 10.9614 12.5861 10.7171 13.0675C10.0978 14.3732 9.95887 15.0733 10.2451 15.36C10.3306 15.4395 10.5156 15.3524 10.6628 15.1528C11.9787 14.1896 13.3958 16.3468 14.8203 12.5575C14.8368 11.5783 14.2341 10.6956 13.567 10.6956V10.6956ZM11.895 14.6352C11.1211 14.6352 10.9196 14.412 11.0438 13.973C11.3769 12.8669 12.3054 11.426 12.7314 11.3541C13.5053 11.2424 14.0087 11.0437 14.3105 12.1185C14.6123 13.1933 13.2504 14.6267 11.895 14.6352V14.6352ZM13.567 10.6956C13.3351 10.6956 12.932 10.5924 12.932 10.337C12.932 9.60467 12.8234 9.64441 12.0726 10.5357C11.7798 10.8423 11.5318 11.1909 11.3364 11.5707C11.1685 12.0856 10.9614 12.5861 10.7171 13.0675C10.0978 14.3732 9.95887 15.0733 10.2451 15.36C10.3306 15.4395 10.5156 15.3524 10.6628 15.1528C11.9787 14.1896 13.3958 16.3468 14.8203 12.5575C14.8368 11.5783 14.2341 10.6956 13.567 10.6956V10.6956ZM11.895 14.6352C11.1211 14.6352 10.9196 14.412 11.0438 13.973C11.3769 12.8669 12.3054 11.426 12.7314 11.3541C13.5053 11.2424 14.0087 11.0437 14.3105 12.1185C14.6123 13.1933 13.2504 14.6267 11.895 14.6352V14.6352ZM5.9652 19.7614C5.69466 19.4908 5.38456 19.3233 5.26033 19.4113C4.86577 19.9833 4.62804 20.6539 4.57202 21.3528C4.57202 21.7747 4.78919 21.8542 5.09101 21.56C5.30522 21.4164 5.54913 21.3263 5.80325 21.297C6.51548 21.1853 6.59646 20.3981 5.9652 19.7614ZM5.9652 19.7614C5.69466 19.4908 5.38456 19.3233 5.26033 19.4113C4.86577 19.9833 4.62804 20.6539 4.57202 21.3528C4.57202 21.7747 4.78919 21.8542 5.09101 21.56C5.30522 21.4164 5.54913 21.3263 5.80325 21.297C6.51548 21.1853 6.59646 20.3981 5.9652 19.7614ZM13.567 10.6956C13.3351 10.6956 12.932 10.5924 12.932 10.337C12.932 9.60467 12.8234 9.64441 12.0726 10.5357C11.7798 10.8423 11.5318 11.1909 11.3364 11.5707C11.1685 12.0856 10.9614 12.5861 10.7171 13.0675C10.0978 14.3732 9.95887 15.0733 10.2451 15.36C10.3306 15.4395 10.5156 15.3524 10.6628 15.1528C11.9787 14.1896 13.3958 16.3468 14.8203 12.5575C14.8368 11.5783 14.2341 10.6956 13.567 10.6956V10.6956ZM11.895 14.6352C11.1211 14.6352 10.9196 14.412 11.0438 13.973C11.3769 12.8669 12.3054 11.426 12.7314 11.3541C13.5053 11.2424 14.0087 11.0437 14.3105 12.1185C14.6123 13.1933 13.2504 14.6267 11.895 14.6352V14.6352ZM13.567 10.6956C13.3351 10.6956 12.932 10.5924 12.932 10.337C12.932 9.60467 12.8234 9.64441 12.0726 10.5357C11.7798 10.8423 11.5318 11.1909 11.3364 11.5707C11.1685 12.0856 10.9614 12.5861 10.7171 13.0675C10.0978 14.3732 9.95887 15.0733 10.2451 15.36C10.3306 15.4395 10.5156 15.3524 10.6628 15.1528C11.9787 14.1896 13.3958 16.3468 14.8203 12.5575C14.8368 11.5783 14.2341 10.6956 13.567 10.6956V10.6956ZM11.895 14.6352C11.1211 14.6352 10.9196 14.412 11.0438 13.973C11.3769 12.8669 12.3054 11.426 12.7314 11.3541C13.5053 11.2424 14.0087 11.0437 14.3105 12.1185C14.6123 13.1933 13.2504 14.6267 11.895 14.6352V14.6352ZM5.9652 19.7614C5.69466 19.4908 5.38456 19.3233 5.26033 19.4113C4.86577 19.9833 4.62804 20.6539 4.57202 21.3528C4.57202 21.7747 4.78919 21.8542 5.09101 21.56C5.30522 21.4164 5.54913 21.3263 5.80325 21.297C6.51548 21.1853 6.59646 20.3981 5.9652 19.7614ZM5.9652 19.7614C5.69466 19.4908 5.38456 19.3233 5.26033 19.4113C4.86577 19.9833 4.62804 20.6539 4.57202 21.3528C4.57202 21.7747 4.78919 21.8542 5.09101 21.56C5.30522 21.4164 5.54913 21.3263 5.80325 21.297C6.51548 21.1853 6.59646 20.3981 5.9652 19.7614ZM13.567 10.6956C13.3351 10.6956 12.932 10.5924 12.932 10.337C12.932 9.60467 12.8234 9.64441 12.0726 10.5357C11.7798 10.8423 11.5318 11.1909 11.3364 11.5707C11.1685 12.0856 10.9614 12.5861 10.7171 13.0675C10.0978 14.3732 9.95887 15.0733 10.2451 15.36C10.3306 15.4395 10.5156 15.3524 10.6628 15.1528C11.9787 14.1896 13.3958 16.3468 14.8203 12.5575C14.8368 11.5783 14.2341 10.6956 13.567 10.6956V10.6956ZM11.895 14.6352C11.1211 14.6352 10.9196 14.412 11.0438 13.973C11.3769 12.8669 12.3054 11.426 12.7314 11.3541C13.5053 11.2424 14.0087 11.0437 14.3105 12.1185C14.6123 13.1933 13.2504 14.6267 11.895 14.6352V14.6352ZM13.567 10.6956C13.3351 10.6956 12.932 10.5924 12.932 10.337C12.932 9.60467 12.8234 9.64441 12.0726 10.5357C11.7798 10.8423 11.5318 11.1909 11.3364 11.5707C11.1685 12.0856 10.9614 12.5861 10.7171 13.0675C10.0978 14.3732 9.95887 15.0733 10.2451 15.36C10.3306 15.4395 10.5156 15.3524 10.6628 15.1528C11.9787 14.1896 13.3958 16.3468 14.8203 12.5575C14.8368 11.5783 14.2341 10.6956 13.567 10.6956V10.6956ZM11.895 14.6352C11.1211 14.6352 10.9196 14.412 11.0438 13.973C11.3769 12.8669 12.3054 11.426 12.7314 11.3541C13.5053 11.2424 14.0087 11.0437 14.3105 12.1185C14.6123 13.1933 13.2504 14.6267 11.895 14.6352V14.6352ZM5.9652 19.7614C5.69466 19.4908 5.38456 19.3233 5.26033 19.4113C4.86577 19.9833 4.62804 20.6539 4.57202 21.3528C4.57202 21.7747 4.78919 21.8542 5.09101 21.56C5.30522 21.4164 5.54913 21.3263 5.80325 21.297C6.51548 21.1853 6.59646 20.3981 5.9652 19.7614ZM5.9652 19.7614C5.69466 19.4908 5.38456 19.3233 5.26033 19.4113C4.86577 19.9833 4.62804 20.6539 4.57202 21.3528C4.57202 21.7747 4.78919 21.8542 5.09101 21.56C5.30522 21.4164 5.54913 21.3263 5.80325 21.297C6.51548 21.1853 6.59646 20.3981 5.9652 19.7614ZM13.567 10.6956C13.3351 10.6956 12.932 10.5924 12.932 10.337C12.932 9.60467 12.8234 9.64441 12.0726 10.5357C11.7798 10.8423 11.5318 11.1909 11.3364 11.5707C11.1685 12.0856 10.9614 12.5861 10.7171 13.0675C10.0978 14.3732 9.95887 15.0733 10.2451 15.36C10.3306 15.4395 10.5156 15.3524 10.6628 15.1528C11.9787 14.1896 13.3958 16.3468 14.8203 12.5575C14.8368 11.5783 14.2341 10.6956 13.567 10.6956V10.6956ZM11.895 14.6352C11.1211 14.6352 10.9196 14.412 11.0438 13.973C11.3769 12.8669 12.3054 11.426 12.7314 11.3541C13.5053 11.2424 14.0087 11.0437 14.3105 12.1185C14.6123 13.1933 13.2504 14.6267 11.895 14.6352V14.6352ZM13.567 10.6956C13.3351 10.6956 12.932 10.5924 12.932 10.337C12.932 9.60467 12.8234 9.64441 12.0726 10.5357C11.7798 10.8423 11.5318 11.1909 11.3364 11.5707C11.1685 12.0856 10.9614 12.5861 10.7171 13.0675C10.0978 14.3732 9.95887 15.0733 10.2451 15.36C10.3306 15.4395 10.5156 15.3524 10.6628 15.1528C11.9787 14.1896 13.3958 16.3468 14.8203 12.5575C14.8368 11.5783 14.2341 10.6956 13.567 10.6956V10.6956ZM11.895 14.6352C11.1211 14.6352 10.9196 14.412 11.0438 13.973C11.3769 12.8669 12.3054 11.426 12.7314 11.3541C13.5053 11.2424 14.0087 11.0437 14.3105 12.1185C14.6123 13.1933 13.2504 14.6267 11.895 14.6352V14.6352ZM5.9652 19.7614C5.69466 19.4908 5.38456 19.3233 5.26033 19.4113C4.86577 19.9833 4.62804 20.6539 4.57202 21.3528C4.57202 21.7747 4.78919 21.8542 5.09101 21.56C5.30522 21.4164 5.54913 21.3263 5.80325 21.297C6.51548 21.1853 6.59646 20.3981 5.9652 19.7614ZM5.9652 19.7614C5.69466 19.4908 5.38456 19.3233 5.26033 19.4113C4.86577 19.9833 4.62804 20.6539 4.57202 21.3528C4.57202 21.7747 4.78919 21.8542 5.09101 21.56C5.30522 21.4164 5.54913 21.3263 5.80325 21.297C6.51548 21.1853 6.59646 20.3981 5.9652 19.7614ZM13.567 10.6956C13.3351 10.6956 12.932 10.5924 12.932 10.337C12.932 9.60467 12.8234 9.64441 12.0726 10.5357C11.7798 10.8423 11.5318 11.1909 11.3364 11.5707C11.1685 12.0856 10.9614 12.5861 10.7171 13.0675C10.0978 14.3732 9.95887 15.0733 10.2451 15.36C10.3306 15.4395 10.5156 15.3524 10.6628 15.1528C11.9787 14.1896 13.3958 16.3468 14.8203 12.5575C14.8368 11.5783 14.2341 10.6956 13.567 10.6956V10.6956ZM11.895 14.6352C11.1211 14.6352 10.9196 14.412 11.0438 13.973C11.3769 12.8669 12.3054 11.426 12.7314 11.3541C13.5053 11.2424 14.0087 11.0437 14.3105 12.1185C14.6123 13.1933 13.2504 14.6267 11.895 14.6352V14.6352ZM17.0969 1.87572L17.1199 1.8199C17.1125 1.81233 17.1125 1.82842 17.0978 1.87572H17.0969ZM5.96244 19.7576C5.69191 19.487 5.3818 19.3195 5.25757 19.4075C4.86337 19.9809 4.62657 20.6528 4.57202 21.3528C4.57202 21.7747 4.78919 21.8542 5.09101 21.56C5.30522 21.4164 5.54913 21.3263 5.80325 21.297C6.51548 21.1853 6.59646 20.3981 5.9652 19.7614L5.96244 19.7576ZM13.5642 10.6918C13.3323 10.6918 12.9293 10.5886 12.9293 10.3332C12.9293 9.60088 12.8207 9.64062 12.0698 10.5319C11.777 10.8385 11.529 11.1871 11.3336 11.5669C11.1657 12.0818 10.9587 12.5823 10.7144 13.0637C10.0951 14.3694 9.95611 15.0695 10.2423 15.3562C10.3279 15.4357 10.5128 15.3486 10.6601 15.149C11.9759 14.1858 13.3931 16.343 14.8175 12.5538C14.8368 11.5783 14.2341 10.6956 13.567 10.6956L13.5642 10.6918ZM11.8922 14.6315C11.1183 14.6315 10.9168 14.4082 11.041 13.9692C11.3741 12.8631 12.3026 11.4222 12.7287 11.3503C13.5026 11.2386 14.0059 11.0399 14.3077 12.1148C14.6096 13.1896 13.2504 14.6267 11.895 14.6352L11.8922 14.6315ZM13.5642 10.6918C13.3323 10.6918 12.9293 10.5886 12.9293 10.3332C12.9293 9.60088 12.8207 9.64062 12.0698 10.5319C11.777 10.8385 11.529 11.1871 11.3336 11.5669C11.1657 12.0818 10.9587 12.5823 10.7144 13.0637C10.0951 14.3694 9.95611 15.0695 10.2423 15.3562C10.3279 15.4357 10.5128 15.3486 10.6601 15.149C11.9759 14.1858 13.3931 16.343 14.8175 12.5538C14.8368 11.5783 14.2341 10.6956 13.567 10.6956L13.5642 10.6918ZM11.8922 14.6315C11.1183 14.6315 10.9168 14.4082 11.041 13.9692C11.3741 12.8631 12.3026 11.4222 12.7287 11.3503C13.5026 11.2386 14.0059 11.0399 14.3077 12.1148C14.6096 13.1896 13.2504 14.6267 11.895 14.6352L11.8922 14.6315ZM5.9652 19.7614C5.69466 19.4908 5.38456 19.3233 5.26033 19.4113C4.86577 19.9833 4.62804 20.6539 4.57202 21.3528C4.57202 21.7747 4.78919 21.8542 5.09101 21.56C5.30522 21.4164 5.54913 21.3263 5.80325 21.297C6.51548 21.1853 6.59646 20.3981 5.9652 19.7614ZM5.9652 19.7614C5.69466 19.4908 5.38456 19.3233 5.26033 19.4113C4.86577 19.9833 4.62804 20.6539 4.57202 21.3528C4.57202 21.7747 4.78919 21.8542 5.09101 21.56C5.30522 21.4164 5.54913 21.3263 5.80325 21.297C6.51548 21.1853 6.59646 20.3981 5.9652 19.7614ZM13.567 10.6956C13.3351 10.6956 12.932 10.5924 12.932 10.337C12.932 9.60467 12.8234 9.64441 12.0726 10.5357C11.7798 10.8423 11.5318 11.1909 11.3364 11.5707C11.1685 12.0856 10.9614 12.5861 10.7171 13.0675C10.0978 14.3732 9.95887 15.0733 10.2451 15.36C10.3306 15.4395 10.5156 15.3524 10.6628 15.1528C11.9787 14.1896 13.3958 16.3468 14.8203 12.5575C14.8368 11.5783 14.2341 10.6956 13.567 10.6956V10.6956ZM11.895 14.6352C11.1211 14.6352 10.9196 14.412 11.0438 13.973C11.3769 12.8669 12.3054 11.426 12.7314 11.3541C13.5053 11.2424 14.0087 11.0437 14.3105 12.1185C14.6123 13.1933 13.2504 14.6267 11.895 14.6352V14.6352ZM13.567 10.6956C13.3351 10.6956 12.932 10.5924 12.932 10.337C12.932 9.60467 12.8234 9.64441 12.0726 10.5357C11.7798 10.8423 11.5318 11.1909 11.3364 11.5707C11.1685 12.0856 10.9614 12.5861 10.7171 13.0675C10.0978 14.3732 9.95887 15.0733 10.2451 15.36C10.3306 15.4395 10.5156 15.3524 10.6628 15.1528C11.9787 14.1896 13.3958 16.3468 14.8203 12.5575C14.8368 11.5783 14.2341 10.6956 13.567 10.6956V10.6956ZM11.895 14.6352C11.1211 14.6352 10.9196 14.412 11.0438 13.973C11.3769 12.8669 12.3054 11.426 12.7314 11.3541C13.5053 11.2424 14.0087 11.0437 14.3105 12.1185C14.6123 13.1933 13.2504 14.6267 11.895 14.6352V14.6352ZM5.9652 19.7614C5.69466 19.4908 5.38456 19.3233 5.26033 19.4113C4.86577 19.9833 4.62804 20.6539 4.57202 21.3528C4.57202 21.7747 4.78919 21.8542 5.09101 21.56C5.30522 21.4164 5.54913 21.3263 5.80325 21.297C6.51548 21.1853 6.59646 20.3981 5.9652 19.7614ZM5.9652 19.7614C5.69466 19.4908 5.38456 19.3233 5.26033 19.4113C4.86577 19.9833 4.62804 20.6539 4.57202 21.3528C4.57202 21.7747 4.78919 21.8542 5.09101 21.56C5.30522 21.4164 5.54913 21.3263 5.80325 21.297C6.51548 21.1853 6.59646 20.3981 5.9652 19.7614ZM13.567 10.6956C13.3351 10.6956 12.932 10.5924 12.932 10.337C12.932 9.60467 12.8234 9.64441 12.0726 10.5357C11.7798 10.8423 11.5318 11.1909 11.3364 11.5707C11.1685 12.0856 10.9614 12.5861 10.7171 13.0675C10.0978 14.3732 9.95887 15.0733 10.2451 15.36C10.3306 15.4395 10.5156 15.3524 10.6628 15.1528C11.9787 14.1896 13.3958 16.3468 14.8203 12.5575C14.8368 11.5783 14.2341 10.6956 13.567 10.6956V10.6956ZM11.895 14.6352C11.1211 14.6352 10.9196 14.412 11.0438 13.973C11.3769 12.8669 12.3054 11.426 12.7314 11.3541C13.5053 11.2424 14.0087 11.0437 14.3105 12.1185C14.6123 13.1933 13.2504 14.6267 11.895 14.6352V14.6352ZM13.567 10.6956C13.3351 10.6956 12.932 10.5924 12.932 10.337C12.932 9.60467 12.8234 9.64441 12.0726 10.5357C11.7798 10.8423 11.5318 11.1909 11.3364 11.5707C11.1685 12.0856 10.9614 12.5861 10.7171 13.0675C10.0978 14.3732 9.95887 15.0733 10.2451 15.36C10.3306 15.4395 10.5156 15.3524 10.6628 15.1528C11.9787 14.1896 13.3958 16.3468 14.8203 12.5575C14.8368 11.5783 14.2341 10.6956 13.567 10.6956V10.6956ZM11.895 14.6352C11.1211 14.6352 10.9196 14.412 11.0438 13.973C11.3769 12.8669 12.3054 11.426 12.7314 11.3541C13.5053 11.2424 14.0087 11.0437 14.3105 12.1185C14.6123 13.1933 13.2504 14.6267 11.895 14.6352V14.6352ZM5.9652 19.7614C5.69466 19.4908 5.38456 19.3233 5.26033 19.4113C4.86577 19.9833 4.62804 20.6539 4.57202 21.3528C4.57202 21.7747 4.78919 21.8542 5.09101 21.56C5.30522 21.4164 5.54913 21.3263 5.80325 21.297C6.51548 21.1853 6.59646 20.3981 5.9652 19.7614ZM5.9652 19.7614C5.69466 19.4908 5.38456 19.3233 5.26033 19.4113C4.86577 19.9833 4.62804 20.6539 4.57202 21.3528C4.57202 21.7747 4.78919 21.8542 5.09101 21.56C5.30522 21.4164 5.54913 21.3263 5.80325 21.297C6.51548 21.1853 6.59646 20.3981 5.9652 19.7614ZM13.567 10.6956C13.3351 10.6956 12.932 10.5924 12.932 10.337C12.932 9.60467 12.8234 9.64441 12.0726 10.5357C11.7798 10.8423 11.5318 11.1909 11.3364 11.5707C11.1685 12.0856 10.9614 12.5861 10.7171 13.0675C10.0978 14.3732 9.95887 15.0733 10.2451 15.36C10.3306 15.4395 10.5156 15.3524 10.6628 15.1528C11.9787 14.1896 13.3958 16.3468 14.8203 12.5575C14.8368 11.5783 14.2341 10.6956 13.567 10.6956V10.6956ZM11.895 14.6352C11.1211 14.6352 10.9196 14.412 11.0438 13.973C11.3769 12.8669 12.3054 11.426 12.7314 11.3541C13.5053 11.2424 14.0087 11.0437 14.3105 12.1185C14.6123 13.1933 13.2504 14.6267 11.895 14.6352V14.6352ZM13.567 10.6956C13.3351 10.6956 12.932 10.5924 12.932 10.337C12.932 9.60467 12.8234 9.64441 12.0726 10.5357C11.7798 10.8423 11.5318 11.1909 11.3364 11.5707C11.1685 12.0856 10.9614 12.5861 10.7171 13.0675C10.0978 14.3732 9.95887 15.0733 10.2451 15.36C10.3306 15.4395 10.5156 15.3524 10.6628 15.1528C11.9787 14.1896 13.3958 16.3468 14.8203 12.5575C14.8368 11.5783 14.2341 10.6956 13.567 10.6956V10.6956ZM11.895 14.6352C11.1211 14.6352 10.9196 14.412 11.0438 13.973C11.3769 12.8669 12.3054 11.426 12.7314 11.3541C13.5053 11.2424 14.0087 11.0437 14.3105 12.1185C14.6123 13.1933 13.2504 14.6267 11.895 14.6352V14.6352ZM5.9652 19.7614C5.69466 19.4908 5.38456 19.3233 5.26033 19.4113C4.86577 19.9833 4.62804 20.6539 4.57202 21.3528C4.57202 21.7747 4.78919 21.8542 5.09101 21.56C5.30522 21.4164 5.54913 21.3263 5.80325 21.297C6.51548 21.1853 6.59646 20.3981 5.9652 19.7614ZM5.9652 19.7614C5.69466 19.4908 5.38456 19.3233 5.26033 19.4113C4.86577 19.9833 4.62804 20.6539 4.57202 21.3528C4.57202 21.7747 4.78919 21.8542 5.09101 21.56C5.30522 21.4164 5.54913 21.3263 5.80325 21.297C6.51548 21.1853 6.59646 20.3981 5.9652 19.7614ZM13.567 10.6956C13.3351 10.6956 12.932 10.5924 12.932 10.337C12.932 9.60467 12.8234 9.64441 12.0726 10.5357C11.7798 10.8423 11.5318 11.1909 11.3364 11.5707C11.1685 12.0856 10.9614 12.5861 10.7171 13.0675C10.0978 14.3732 9.95887 15.0733 10.2451 15.36C10.3306 15.4395 10.5156 15.3524 10.6628 15.1528C11.9787 14.1896 13.3958 16.3468 14.8203 12.5575C14.8368 11.5783 14.2341 10.6956 13.567 10.6956V10.6956ZM11.895 14.6352C11.1211 14.6352 10.9196 14.412 11.0438 13.973C11.3769 12.8669 12.3054 11.426 12.7314 11.3541C13.5053 11.2424 14.0087 11.0437 14.3105 12.1185C14.6123 13.1933 13.2504 14.6267 11.895 14.6352V14.6352ZM13.567 10.6956C13.3351 10.6956 12.932 10.5924 12.932 10.337C12.932 9.60467 12.8234 9.64441 12.0726 10.5357C11.7798 10.8423 11.5318 11.1909 11.3364 11.5707C11.1685 12.0856 10.9614 12.5861 10.7171 13.0675C10.0978 14.3732 9.95887 15.0733 10.2451 15.36C10.3306 15.4395 10.5156 15.3524 10.6628 15.1528C11.9787 14.1896 13.3958 16.3468 14.8203 12.5575C14.8368 11.5783 14.2341 10.6956 13.567 10.6956V10.6956ZM11.895 14.6352C11.1211 14.6352 10.9196 14.412 11.0438 13.973C11.3769 12.8669 12.3054 11.426 12.7314 11.3541C13.5053 11.2424 14.0087 11.0437 14.3105 12.1185C14.6123 13.1933 13.2504 14.6267 11.895 14.6352V14.6352ZM5.9652 19.7614C5.69466 19.4908 5.38456 19.3233 5.26033 19.4113C4.86577 19.9833 4.62804 20.6539 4.57202 21.3528C4.57202 21.7747 4.78919 21.8542 5.09101 21.56C5.30522 21.4164 5.54913 21.3263 5.80325 21.297C6.51548 21.1853 6.59646 20.3981 5.9652 19.7614ZM5.9652 19.7614C5.69466 19.4908 5.38456 19.3233 5.26033 19.4113C4.86577 19.9833 4.62804 20.6539 4.57202 21.3528C4.57202 21.7747 4.78919 21.8542 5.09101 21.56C5.30522 21.4164 5.54913 21.3263 5.80325 21.297C6.51548 21.1853 6.59646 20.3981 5.9652 19.7614ZM13.567 10.6956C13.3351 10.6956 12.932 10.5924 12.932 10.337C12.932 9.60467 12.8234 9.64441 12.0726 10.5357C11.7798 10.8423 11.5318 11.1909 11.3364 11.5707C11.1685 12.0856 10.9614 12.5861 10.7171 13.0675C10.0978 14.3732 9.95887 15.0733 10.2451 15.36C10.3306 15.4395 10.5156 15.3524 10.6628 15.1528C11.9787 14.1896 13.3958 16.3468 14.8203 12.5575C14.8368 11.5783 14.2341 10.6956 13.567 10.6956V10.6956ZM11.895 14.6352C11.1211 14.6352 10.9196 14.412 11.0438 13.973C11.3769 12.8669 12.3054 11.426 12.7314 11.3541C13.5053 11.2424 14.0087 11.0437 14.3105 12.1185C14.6123 13.1933 13.2504 14.6267 11.895 14.6352V14.6352ZM13.567 10.6956C13.3351 10.6956 12.932 10.5924 12.932 10.337C12.932 9.60467 12.8234 9.64441 12.0726 10.5357C11.7798 10.8423 11.5318 11.1909 11.3364 11.5707C11.1685 12.0856 10.9614 12.5861 10.7171 13.0675C10.0978 14.3732 9.95887 15.0733 10.2451 15.36C10.3306 15.4395 10.5156 15.3524 10.6628 15.1528C11.9787 14.1896 13.3958 16.3468 14.8203 12.5575C14.8368 11.5783 14.2341 10.6956 13.567 10.6956V10.6956ZM11.895 14.6352C11.1211 14.6352 10.9196 14.412 11.0438 13.973C11.3769 12.8669 12.3054 11.426 12.7314 11.3541C13.5053 11.2424 14.0087 11.0437 14.3105 12.1185C14.6123 13.1933 13.2504 14.6267 11.895 14.6352V14.6352ZM5.9652 19.7614C5.69466 19.4908 5.38456 19.3233 5.26033 19.4113C4.86577 19.9833 4.62804 20.6539 4.57202 21.3528C4.57202 21.7747 4.78919 21.8542 5.09101 21.56C5.30522 21.4164 5.54913 21.3263 5.80325 21.297C6.51548 21.1853 6.59646 20.3981 5.9652 19.7614ZM13.567 10.6956C13.3351 10.6956 12.932 10.5924 12.932 10.337C12.932 9.60467 12.8234 9.64441 12.0726 10.5357C11.7798 10.8423 11.5318 11.1909 11.3364 11.5707C11.1685 12.0856 10.9614 12.5861 10.7171 13.0675C10.0978 14.3732 9.95887 15.0733 10.2451 15.36C10.3306 15.4395 10.5156 15.3524 10.6628 15.1528C11.9787 14.1896 13.3958 16.3468 14.8203 12.5575C14.8368 11.5783 14.2341 10.6956 13.567 10.6956V10.6956ZM11.895 14.6352C11.1211 14.6352 10.9196 14.412 11.0438 13.973C11.3769 12.8669 12.3054 11.426 12.7314 11.3541C13.5053 11.2424 14.0087 11.0437 14.3105 12.1185C14.6123 13.1933 13.2504 14.6267 11.895 14.6352V14.6352ZM5.9652 19.7614C5.69466 19.4908 5.38456 19.3233 5.26033 19.4113C4.86577 19.9833 4.62804 20.6539 4.57202 21.3528C4.57202 21.7747 4.78919 21.8542 5.09101 21.56C5.30522 21.4164 5.54913 21.3263 5.80325 21.297C6.51548 21.1853 6.59646 20.3981 5.9652 19.7614ZM5.9652 19.7614C5.69466 19.4908 5.38456 19.3233 5.26033 19.4113C4.86577 19.9833 4.62804 20.6539 4.57202 21.3528C4.57202 21.7747 4.78919 21.8542 5.09101 21.56C5.30522 21.4164 5.54913 21.3263 5.80325 21.297C6.51548 21.1853 6.59646 20.3981 5.9652 19.7614ZM13.567 10.6956C13.3351 10.6956 12.932 10.5924 12.932 10.337C12.932 9.60467 12.8234 9.64441 12.0726 10.5357C11.7798 10.8423 11.5318 11.1909 11.3364 11.5707C11.1685 12.0856 10.9614 12.5861 10.7171 13.0675C10.0978 14.3732 9.95887 15.0733 10.2451 15.36C10.3306 15.4395 10.5156 15.3524 10.6628 15.1528C11.9787 14.1896 13.3958 16.3468 14.8203 12.5575C14.8368 11.5783 14.2341 10.6956 13.567 10.6956V10.6956ZM11.895 14.6352C11.1211 14.6352 10.9196 14.412 11.0438 13.973C11.3769 12.8669 12.3054 11.426 12.7314 11.3541C13.5053 11.2424 14.0087 11.0437 14.3105 12.1185C14.6123 13.1933 13.2504 14.6267 11.895 14.6352V14.6352Z" fill="#171717"/>
<path d="M11.8932 14.6343C11.1193 14.6343 10.9178 14.411 11.042 13.972C11.3752 12.866 12.3036 11.425 12.7297 11.3531C13.5036 11.2414 14.0069 11.0428 14.3087 12.1176C14.6106 13.1924 13.2505 14.6267 11.8932 14.6343Z" fill="white"/>
<path d="M26.4179 14.4441V13.0912L25.5667 13.147C24.7772 13.1943 24.6916 13.1546 24.491 12.55C24.3735 12.2081 24.298 11.8524 24.2665 11.4913C24.1929 11.1105 24.0187 10.758 23.7631 10.4723C23.4451 10.0551 23.2043 9.58146 23.0527 9.07484C22.7096 7.97891 22.1054 6.98857 21.2952 6.19387C19.902 4.61005 19.5468 1.90411 17.4009 1.17181C16.8745 1.17181 16.8975 0.893646 16.8975 2.33366C16.8975 3.77367 16.673 3.82192 16.2782 3.42455C16.0021 3.13184 15.7509 2.8153 15.5274 2.47842C15.2568 2.05644 14.7065 1.27683 14.2391 1.32414L14.2161 2.09618L13.9299 4.55612C13.8839 6.83251 14.0845 6.91199 12.5827 7.98679C12.2726 8.23373 11.9634 8.48067 11.6533 8.73518C11.553 8.82317 11.4518 8.90265 11.3515 8.98969L11.3441 8.99726C7.25701 12.3408 4.14037 16.7731 2.33354 21.8117C2.07037 24.3984 4.6092 26.9378 7.08637 26.8337C7.58931 26.7487 8.07093 26.5622 8.50348 26.285C9.53318 25.5602 10.5279 27.6379 11.2125 28.3466C11.7076 28.9909 11.8006 28.8556 13.7367 28.7686C16.7945 28.0117 21.8804 24.3832 23.7309 21.5732C24.1346 20.8658 24.6265 20.2157 25.1941 19.6393C26.1814 20.7312 29.4831 16.537 26.4179 14.4441ZM17.1239 1.81234L17.1009 1.86816C17.1129 1.82842 17.1129 1.81234 17.1211 1.81234H17.1239ZM14.6081 3.72258L14.747 2.47274L15.1961 3.42833C15.3918 3.87637 15.6527 4.29113 15.97 4.6583C16.396 5.36695 15.1105 6.12291 14.5897 6.53637C14.3955 6.53164 14.4029 5.52874 14.6044 3.72258H14.6081ZM8.20258 25.6501C6.2131 27.0031 3.6936 25.3076 2.70622 22.6414C2.64457 22.4664 2.582 22.2828 2.52863 22.1002C5.83398 14.0695 9.80556 10.2405 16.4006 5.56848C16.4038 5.97754 16.3192 6.38229 16.1531 6.75398C16.1175 6.82064 16.0868 6.8899 16.0611 6.96119V6.96119C15.8596 7.46264 15.9369 7.78905 16.27 7.78905C16.296 7.79047 16.322 7.78792 16.3473 7.78148C16.7577 7.66227 16.9914 6.52407 17.4313 2.83038C17.5168 2.10564 17.5472 1.97034 17.7717 2.15389C17.8257 2.19592 17.8773 2.2411 17.9263 2.28919C18.354 2.89553 18.7494 3.52532 19.1106 4.17578C20.021 5.35003 20.471 6.83202 20.3722 8.33024C20.3722 9.72294 20.5894 10.3521 20.9372 9.99354C21.0582 9.63839 21.1159 9.26371 21.1074 8.88751C21.1305 8.21859 21.0458 7.20056 21.239 7.20056C21.3311 7.20056 21.4792 7.35194 21.6568 7.59036C22.275 8.43694 22.7392 9.3915 23.027 10.4079C23.064 10.7582 23.1985 11.09 23.4144 11.3635C23.7935 11.8366 23.7935 11.8489 23.3831 12.1838C23.3091 12.2489 23.2441 12.324 23.1899 12.4071C23.0422 12.6379 22.9542 12.9036 22.934 13.1792C22.888 14.2379 22.6865 14.1423 22.5853 13.0041C22.5742 12.6053 22.5037 12.2106 22.3764 11.8338C21.9689 11.7049 21.5478 11.6274 21.1222 11.6029C20.7108 11.5109 20.2837 11.5261 19.8795 11.6471C19.4753 11.768 19.107 11.9909 18.8079 12.2955C16.8644 13.6409 16.5396 14.6116 17.5693 15.9854C17.825 16.2903 18.0133 16.6486 18.1214 17.0356C18.1214 17.3194 17.4018 17.871 16.1706 18.5324C14.7387 19.6942 14.2198 21.8041 12.1373 22.1542C11.3092 22.4323 10.4267 22.7833 10.1709 22.9025C9.18627 23.6528 8.89917 24.7276 8.20258 25.6501ZM9.75863 25.7778L9.32522 25.1411L9.83593 24.2659C10.0276 23.9397 10.2849 23.6594 10.5906 23.4439C10.8963 23.2283 11.2432 23.0825 11.6082 23.0161C12.297 22.8745 12.9619 22.6304 13.5821 22.2913C13.9948 22.1446 14.3736 21.9118 14.6947 21.6075C15.0158 21.3032 15.2724 20.934 15.4482 20.523C16.246 18.9392 17.7009 18.2069 18.6376 18.9231C19.025 19.207 19.0057 19.2259 18.4131 19.2335C17.6309 19.241 17.2905 19.5674 17.2905 20.3158C17.2905 20.77 17.1984 20.8968 16.857 20.8968C16.5709 20.8968 16.3537 21.0954 16.1991 21.5013C16.1413 21.6739 16.0456 21.8305 15.9193 21.9588C15.7931 22.0871 15.6397 22.1838 15.4712 22.2412C15.0307 22.391 14.6135 22.6054 14.2326 22.8779C13.8176 23.1604 13.342 23.3351 12.8468 23.387C12.3518 23.387 12.0186 23.5942 11.3607 24.318C10.4552 25.3133 10.2077 25.8223 10.9733 25.1137C11.4787 24.5738 12.165 24.2521 12.8928 24.2139C13.2316 24.2 13.5583 24.0806 13.8296 23.8714C14.278 23.5623 14.7686 23.3235 15.2853 23.1627C16.1135 22.8846 16.431 22.6613 16.6555 22.1674C16.7139 21.9844 16.821 21.8218 16.9646 21.6981C17.1082 21.5743 17.2826 21.4944 17.4681 21.4673C17.9282 21.4114 18.0101 21.2847 18.0644 20.6233C18.126 19.8986 18.1803 19.8437 18.7609 19.8437C19.3729 19.8437 19.3876 19.8674 19.2799 20.6479C19.1883 21.2306 18.9074 21.7642 18.483 22.1617C16.8184 23.6453 14.8216 24.5914 13.2066 26.0806C11.4582 27.2983 10.734 27.2349 9.75863 25.7778V25.7778ZM19.5127 24.6633C17.3374 26.1355 14.6127 28.9691 11.8337 28.4043C11.2457 28.1659 11.0754 27.847 11.4389 27.7912C11.4849 27.7843 11.5314 27.7817 11.5779 27.7836C13.2186 26.9879 17.399 23.597 19.141 22.2677C19.3996 22.102 19.611 21.8689 19.7537 21.5921C19.8964 21.3152 19.9654 21.0045 19.9535 20.6914C19.9535 19.5059 19.3342 18.2078 18.7849 18.2078C18.5603 18.2078 18.5143 18.1047 18.6146 17.8493C18.7739 17.5524 18.854 17.2175 18.8465 16.8785C18.7868 16.6213 18.6384 16.3951 18.4288 16.2418C18.0967 15.8872 17.898 15.4227 17.8682 14.9314C17.8383 14.4401 17.9793 13.9538 18.2659 13.5595C19.2104 12.9687 20.2566 12.5703 21.3476 12.3863C21.7967 12.3863 22.0672 13.1508 21.874 13.9143C21.7737 14.3363 21.897 14.4877 22.7104 14.973C23.1897 15.2492 23.6432 15.5704 24.065 15.9324C26.1235 19.2193 22.0829 22.825 19.5127 24.6633ZM25.0091 15.4461C24.8315 15.6769 24.9392 15.589 24.2509 15.2711C23.6316 15.2313 23.384 14.8169 23.6389 13.8623C23.6702 13.7591 23.6932 13.673 23.7245 13.5917C23.949 12.9625 24.1846 13.1375 24.6447 13.3845C24.8729 13.507 25.1112 13.6083 25.3569 13.6872C25.7903 13.8301 25.8446 14.7535 25.4342 15.0005C25.2795 15.1356 25.1372 15.2851 25.0091 15.447V15.4461ZM26.8495 17.802V17.818C26.8357 18.115 26.7213 18.3977 26.5262 18.6171C26.3311 18.8365 26.0676 18.9789 25.7811 19.0196C25.229 19.0196 24.93 18.5257 25.2474 18.1284C25.3843 17.8564 25.441 17.5493 25.4103 17.2447C25.3931 16.9154 25.4564 16.5868 25.5943 16.2891C25.608 16.2616 25.6233 16.235 25.6404 16.2096C26.244 15.5256 26.7704 16.273 26.8633 17.1728C26.8827 17.3826 26.8787 17.594 26.8513 17.8029L26.8495 17.802Z" fill="#171717"/>
<path d="M19.2934 20.6602C19.2018 21.2429 18.9209 21.7765 18.4965 22.174C16.8319 23.6547 14.8351 24.6018 13.2173 26.0901C11.4598 27.3002 10.7328 27.2358 9.75739 25.7797L9.32397 25.143L9.83469 24.2678C10.0264 23.9416 10.2837 23.6613 10.5893 23.4458C10.895 23.2302 11.242 23.0843 11.607 23.018C12.2957 22.8764 12.9607 22.6323 13.5808 22.2932C13.9933 22.1465 14.3718 21.9138 14.6928 21.6097C15.0138 21.3056 15.2702 20.9366 15.4461 20.5259C16.243 18.9421 17.6987 18.2097 18.6355 18.926C19.0229 19.2098 19.0036 19.2287 18.4109 19.2363C17.6288 19.2439 17.2883 19.5703 17.2883 20.3187C17.2883 20.7728 17.1963 20.8996 16.8549 20.8996C16.5687 20.8996 16.3515 21.0983 16.1969 21.5042C16.1391 21.6768 16.0434 21.8333 15.9172 21.9616C15.7909 22.0899 15.6376 22.1866 15.4691 22.244C15.0285 22.3938 14.6113 22.6083 14.2305 22.8808C13.8154 23.1632 13.3398 23.3379 12.8447 23.3898C12.3496 23.3898 12.0165 23.597 11.3585 24.3208C10.4531 25.3161 10.2055 25.8251 10.9711 25.1165C11.4765 24.5767 12.1629 24.255 12.8907 24.2167C13.2295 24.2029 13.5562 24.0834 13.8274 23.8742C14.2759 23.5652 14.7665 23.3264 15.2832 23.1656C16.1114 22.8874 16.4288 22.6641 16.6534 22.1702C16.7118 21.9872 16.8188 21.8247 16.9624 21.7009C17.106 21.5772 17.2804 21.4972 17.4659 21.4701C17.926 21.4143 18.0079 21.2866 18.0622 20.6262C18.1238 19.9014 18.1781 19.8466 18.7588 19.8466C19.3864 19.857 19.402 19.8806 19.2934 20.6602Z" fill="white"/>
<path d="M26.8581 17.1812C26.7979 17.1652 26.7422 17.1351 26.6952 17.0932C26.6022 16.9872 26.4924 16.8983 26.3704 16.8302C26.2158 16.7507 26.1385 16.6873 25.9682 16.6069C25.8333 16.5179 25.7064 16.4166 25.5891 16.3042C25.603 16.2766 25.6187 16.2501 25.636 16.2247C26.2461 15.5416 26.7651 16.289 26.8581 17.1812Z" fill="#49BE7A"/>
<path d="M25.4336 15.0089C25.2756 15.1376 25.1327 15.2846 25.0075 15.447C24.8759 15.3192 24.8373 15.1366 24.7213 15.0089C24.5468 14.8183 24.3986 14.6041 24.2806 14.3722C24.21 14.2252 24.1243 14.0866 24.0247 13.9587C23.9166 13.8434 23.8158 13.7211 23.7229 13.5925C23.9474 12.9634 24.183 13.1393 24.6431 13.3853C24.8713 13.5079 25.1096 13.6092 25.3553 13.6881C25.7823 13.8385 25.8394 14.762 25.4336 15.0089Z" fill="#49BE7A"/>
<path d="M23.3825 12.1753C23.3085 12.2403 23.2435 12.3154 23.1892 12.3985C23.1093 12.2886 23.0443 12.1679 22.996 12.04C22.9417 11.8252 22.8175 11.6814 22.7714 11.4827C22.7335 11.2896 22.6717 11.1023 22.5874 10.9254C22.5254 10.7086 22.4504 10.496 22.3629 10.2887C22.2156 10.0994 22.2313 9.93008 22.1384 9.7314C22.0539 9.56452 21.9813 9.39155 21.9212 9.21386C21.8992 9.02547 21.8629 8.83914 21.8126 8.65659C21.7592 8.49938 21.7228 8.33662 21.704 8.17122C21.6689 7.97977 21.6531 7.78509 21.6571 7.5903C22.2753 8.43687 22.7395 9.39143 23.0273 10.4079C23.0643 10.7581 23.1988 11.0899 23.4147 11.3635C23.7929 11.8252 23.7929 11.8403 23.3825 12.1753Z" fill="#49BE7A"/>
<path d="M16.1616 6.75393C16.1261 6.82059 16.0953 6.88985 16.0696 6.96113V6.96113C16.0558 6.9672 16.0428 6.97515 16.031 6.98478C15.8224 7.07958 15.6271 7.20273 15.4503 7.35093C15.2634 7.52972 15.0523 7.67982 14.8237 7.79656C14.5442 7.91022 14.2748 8.04857 14.0185 8.21002C13.8018 8.33486 13.5925 8.47292 13.3918 8.62348C13.242 8.755 13.0685 8.85497 12.8811 8.91772C12.7179 8.99387 12.5602 9.08176 12.4091 9.18075C12.2469 9.28418 12.076 9.37222 11.8984 9.44377C11.7681 9.52998 11.6574 9.64387 11.5735 9.77776C11.4817 9.91659 11.4063 10.0662 11.349 10.2234C11.2947 10.4382 11.1558 10.4542 11.0545 10.669C10.962 10.8291 10.8531 10.9784 10.7297 11.1146C10.6162 11.2815 10.4809 11.4314 10.3276 11.5603C10.1491 11.6985 9.97857 11.8473 9.81686 12.0059C9.66855 12.1299 9.54376 12.281 9.44878 12.4515C9.27772 12.7159 9.08335 12.9636 8.86814 13.1914C8.4305 13.702 8.03671 14.2506 7.6912 14.831C7.38109 15.3722 6.94768 15.8898 6.63021 16.4707C6.41891 16.8899 6.1726 17.2894 5.89405 17.6647C5.62351 17.9911 5.42199 18.4368 5.12753 18.7395C4.90716 18.982 4.72127 19.2553 4.57541 19.5513C4.45946 19.7982 4.19628 20.0244 4.13371 20.2912C4.07531 20.4827 3.97774 20.6592 3.84753 20.8087C3.73543 21.012 3.61255 21.2087 3.47945 21.3981C3.36175 21.5021 3.26217 21.6259 3.18498 21.7643C3.11505 21.9157 3.00095 22.0027 2.92917 22.1778C2.87488 22.3291 2.76629 22.5117 2.72765 22.6508C2.66599 22.4758 2.60342 22.2922 2.55005 22.1096C5.8554 14.0789 9.82698 10.2499 16.4221 5.57788C16.4192 5.98467 16.3303 6.38595 16.1616 6.75393V6.75393Z" fill="#49BE7A"/>
<path d="M17.7776 2.34495V3.24472C17.7776 3.49166 17.7316 3.79347 17.7316 3.97702C17.7316 4.26086 17.6313 4.52578 17.6313 4.76515V5.55328C17.6584 5.81525 17.6584 6.07944 17.6313 6.34141C17.5853 6.51644 17.6313 6.89016 17.577 7.12953C17.5071 7.4323 17.4997 7.70289 17.1169 7.70289C16.8924 7.70289 16.4589 7.91009 16.3586 7.77479C16.7691 7.65558 17.0028 6.51739 17.4426 2.82369C17.5282 2.09895 17.5586 1.96366 17.7831 2.14721L17.7776 2.34495Z" fill="#49BE7A"/>
</g>
<line x1="35.25" y1="4" x2="35.25" y2="26" stroke="#171717" stroke-width="0.5"/>
<path d="M48.4515 18.9268V20H43.181V18.9268H48.4515ZM43.4476 10.0469V20H42.1282V10.0469H43.4476ZM47.7542 14.3262V15.3994H43.181V14.3262H47.7542ZM48.3831 10.0469V11.127H43.181V10.0469H48.3831ZM51.2985 14.1826V20H50.0339V12.6035H51.2302L51.2985 14.1826ZM50.9977 16.0215L50.4714 16.001C50.4759 15.4951 50.5511 15.028 50.697 14.5996C50.8428 14.1667 51.0479 13.7907 51.3122 13.4717C51.5765 13.1527 51.891 12.9066 52.2555 12.7334C52.6247 12.5557 53.0326 12.4668 53.4792 12.4668C53.8438 12.4668 54.1719 12.5169 54.4636 12.6172C54.7552 12.7129 55.0036 12.8678 55.2087 13.082C55.4183 13.2962 55.5778 13.5742 55.6872 13.916C55.7966 14.2533 55.8513 14.6657 55.8513 15.1533V20H54.5798V15.1396C54.5798 14.7523 54.5228 14.4424 54.4089 14.21C54.2949 13.973 54.1286 13.8021 53.9098 13.6973C53.6911 13.5879 53.4222 13.5332 53.1032 13.5332C52.7888 13.5332 52.5016 13.5993 52.2419 13.7314C51.9867 13.8636 51.7656 14.0459 51.5788 14.2783C51.3965 14.5107 51.2529 14.7773 51.1481 15.0781C51.0479 15.3743 50.9977 15.6888 50.9977 16.0215ZM61.0088 12.6035V13.5742H57.0098V12.6035H61.0088ZM58.3633 10.8057H59.628V18.168C59.628 18.4186 59.6667 18.6077 59.7442 18.7354C59.8217 18.863 59.9219 18.9473 60.045 18.9883C60.168 19.0293 60.3002 19.0498 60.4414 19.0498C60.5463 19.0498 60.6556 19.0407 60.7696 19.0225C60.8881 18.9997 60.9769 18.9814 61.0362 18.9678L61.043 20C60.9427 20.0319 60.8106 20.0615 60.6465 20.0889C60.487 20.1208 60.2933 20.1367 60.0655 20.1367C59.7556 20.1367 59.4707 20.0752 59.211 19.9521C58.9512 19.8291 58.7439 19.624 58.5889 19.3369C58.4385 19.0452 58.3633 18.6533 58.3633 18.1611V10.8057ZM65.7016 20.1367C65.1866 20.1367 64.7195 20.0501 64.3002 19.877C63.8855 19.6992 63.5277 19.4508 63.227 19.1318C62.9307 18.8128 62.7029 18.4346 62.5434 17.9971C62.3839 17.5596 62.3041 17.0811 62.3041 16.5615V16.2744C62.3041 15.6729 62.393 15.1374 62.5707 14.668C62.7484 14.194 62.99 13.793 63.2953 13.4648C63.6007 13.1367 63.947 12.8883 64.3344 12.7197C64.7217 12.5511 65.1228 12.4668 65.5375 12.4668C66.0661 12.4668 66.5219 12.5579 66.9047 12.7402C67.2921 12.9225 67.6088 13.1777 67.8549 13.5059C68.101 13.8294 68.2833 14.2122 68.4018 14.6543C68.5202 15.0918 68.5795 15.5703 68.5795 16.0898V16.6572H63.0561V15.625H67.3148V15.5293C67.2966 15.2012 67.2283 14.8822 67.1098 14.5723C66.9958 14.2624 66.8135 14.0072 66.5629 13.8066C66.3122 13.6061 65.9704 13.5059 65.5375 13.5059C65.2504 13.5059 64.9861 13.5674 64.7445 13.6904C64.503 13.8089 64.2956 13.9867 64.1225 14.2236C63.9493 14.4606 63.8148 14.75 63.7191 15.0918C63.6234 15.4336 63.5756 15.8278 63.5756 16.2744V16.5615C63.5756 16.9124 63.6234 17.2428 63.7191 17.5527C63.8194 17.8581 63.963 18.127 64.1498 18.3594C64.3412 18.5918 64.5714 18.7741 64.8402 18.9062C65.1137 19.0384 65.4236 19.1045 65.7699 19.1045C66.2165 19.1045 66.5948 19.0133 66.9047 18.8311C67.2146 18.6488 67.4857 18.4049 67.7182 18.0996L68.4838 18.708C68.3243 18.9495 68.1215 19.1797 67.8754 19.3984C67.6293 19.6172 67.3262 19.7949 66.9662 19.9316C66.6107 20.0684 66.1892 20.1367 65.7016 20.1367ZM71.4607 13.7656V20H70.1961V12.6035H71.4265L71.4607 13.7656ZM73.7712 12.5625L73.7644 13.7383C73.6596 13.7155 73.5593 13.7018 73.4636 13.6973C73.3725 13.6882 73.2677 13.6836 73.1492 13.6836C72.8575 13.6836 72.6 13.7292 72.3767 13.8203C72.1534 13.9115 71.9643 14.0391 71.8093 14.2031C71.6544 14.3672 71.5313 14.5632 71.4402 14.791C71.3536 15.0143 71.2966 15.2604 71.2693 15.5293L70.9138 15.7344C70.9138 15.2878 70.9571 14.8685 71.0437 14.4766C71.1349 14.0846 71.2739 13.7383 71.4607 13.4375C71.6476 13.1322 71.8845 12.8952 72.1716 12.7266C72.4633 12.5534 72.8097 12.4668 73.2107 12.4668C73.3018 12.4668 73.4067 12.4782 73.5252 12.501C73.6436 12.5192 73.7257 12.5397 73.7712 12.5625ZM76.3448 14.0254V22.8438H75.0734V12.6035H76.2355L76.3448 14.0254ZM81.3282 16.2402V16.3838C81.3282 16.9215 81.2644 17.4206 81.1368 17.8809C81.0092 18.3366 80.8224 18.7331 80.5763 19.0703C80.3348 19.4076 80.0363 19.6696 79.6808 19.8564C79.3253 20.0433 78.9174 20.1367 78.4571 20.1367C77.9877 20.1367 77.573 20.0592 77.213 19.9043C76.853 19.7493 76.5476 19.5238 76.297 19.2275C76.0463 18.9313 75.8458 18.5758 75.6954 18.1611C75.5496 17.7464 75.4493 17.2793 75.3946 16.7598V15.9941C75.4493 15.4473 75.5519 14.9574 75.7023 14.5244C75.8527 14.0915 76.0509 13.7223 76.297 13.417C76.5476 13.1071 76.8507 12.8724 77.2062 12.7129C77.5616 12.5488 77.9718 12.4668 78.4366 12.4668C78.9015 12.4668 79.3139 12.5579 79.6739 12.7402C80.034 12.918 80.337 13.1732 80.5831 13.5059C80.8292 13.8385 81.0138 14.2373 81.1368 14.7021C81.2644 15.1624 81.3282 15.6751 81.3282 16.2402ZM80.0568 16.3838V16.2402C80.0568 15.8711 80.018 15.5247 79.9405 15.2012C79.8631 14.873 79.7423 14.5859 79.5782 14.3398C79.4187 14.0892 79.2137 13.8932 78.963 13.752C78.7124 13.6061 78.4139 13.5332 78.0675 13.5332C77.7485 13.5332 77.4705 13.5879 77.2335 13.6973C77.0011 13.8066 76.8029 13.9548 76.6388 14.1416C76.4747 14.3239 76.3403 14.5335 76.2355 14.7705C76.1352 15.0029 76.06 15.2445 76.0099 15.4951V17.2656C76.101 17.5846 76.2286 17.8854 76.3927 18.168C76.5568 18.446 76.7755 18.6715 77.0489 18.8447C77.3224 19.0133 77.6665 19.0977 78.0812 19.0977C78.423 19.0977 78.7169 19.027 78.963 18.8857C79.2137 18.7399 79.4187 18.5417 79.5782 18.291C79.7423 18.0404 79.8631 17.7533 79.9405 17.4297C80.018 17.1016 80.0568 16.7529 80.0568 16.3838ZM84.3462 13.7656V20H83.0815V12.6035H84.312L84.3462 13.7656ZM86.6567 12.5625L86.6499 13.7383C86.5451 13.7155 86.4448 13.7018 86.3491 13.6973C86.258 13.6882 86.1531 13.6836 86.0346 13.6836C85.743 13.6836 85.4855 13.7292 85.2622 13.8203C85.0389 13.9115 84.8498 14.0391 84.6948 14.2031C84.5399 14.3672 84.4168 14.5632 84.3257 14.791C84.2391 15.0143 84.1821 15.2604 84.1548 15.5293L83.7993 15.7344C83.7993 15.2878 83.8426 14.8685 83.9292 14.4766C84.0203 14.0846 84.1593 13.7383 84.3462 13.4375C84.533 13.1322 84.77 12.8952 85.0571 12.7266C85.3488 12.5534 85.6951 12.4668 86.0962 12.4668C86.1873 12.4668 86.2921 12.4782 86.4106 12.501C86.5291 12.5192 86.6111 12.5397 86.6567 12.5625ZM89.3397 12.6035V20H88.0682V12.6035H89.3397ZM87.9725 10.6416C87.9725 10.4365 88.034 10.2633 88.1571 10.1221C88.2847 9.98079 88.4715 9.91016 88.7176 9.91016C88.9592 9.91016 89.1437 9.98079 89.2713 10.1221C89.4035 10.2633 89.4696 10.4365 89.4696 10.6416C89.4696 10.8376 89.4035 11.0062 89.2713 11.1475C89.1437 11.2842 88.9592 11.3525 88.7176 11.3525C88.4715 11.3525 88.2847 11.2842 88.1571 11.1475C88.034 11.0062 87.9725 10.8376 87.9725 10.6416ZM95.8166 18.0381C95.8166 17.8558 95.7756 17.6872 95.6936 17.5322C95.6161 17.3727 95.4543 17.2292 95.2082 17.1016C94.9667 16.9694 94.6021 16.8555 94.1145 16.7598C93.7043 16.6732 93.3329 16.5706 93.0002 16.4521C92.6721 16.3337 92.3918 16.1901 92.1594 16.0215C91.9315 15.8529 91.7561 15.6546 91.633 15.4268C91.51 15.1989 91.4484 14.9323 91.4484 14.627C91.4484 14.3353 91.5122 14.0596 91.6398 13.7998C91.772 13.54 91.9566 13.3099 92.1936 13.1094C92.4351 12.9089 92.7245 12.7516 93.0617 12.6377C93.399 12.5238 93.7749 12.4668 94.1896 12.4668C94.7821 12.4668 95.288 12.5716 95.7072 12.7812C96.1265 12.9909 96.4478 13.2712 96.6711 13.6221C96.8944 13.9684 97.0061 14.3535 97.0061 14.7773H95.7414C95.7414 14.5723 95.6799 14.374 95.5568 14.1826C95.4383 13.9867 95.2629 13.8249 95.0305 13.6973C94.8026 13.5697 94.5223 13.5059 94.1896 13.5059C93.8387 13.5059 93.5539 13.5605 93.3352 13.6699C93.121 13.7747 92.9637 13.9092 92.8635 14.0732C92.7678 14.2373 92.7199 14.4105 92.7199 14.5928C92.7199 14.7295 92.7427 14.8525 92.7883 14.9619C92.8384 15.0667 92.925 15.1647 93.048 15.2559C93.1711 15.3424 93.3443 15.4245 93.5676 15.502C93.7909 15.5794 94.0757 15.6569 94.4221 15.7344C95.0282 15.8711 95.5272 16.0352 95.9191 16.2266C96.3111 16.418 96.6027 16.6527 96.7941 16.9307C96.9855 17.2087 97.0812 17.5459 97.0812 17.9424C97.0812 18.266 97.0129 18.5622 96.8762 18.8311C96.744 19.0999 96.5503 19.3324 96.2951 19.5283C96.0445 19.7197 95.7437 19.8701 95.3928 19.9795C95.0464 20.0843 94.6568 20.1367 94.2238 20.1367C93.5721 20.1367 93.0207 20.0205 92.5695 19.7881C92.1184 19.5557 91.7766 19.2549 91.5441 18.8857C91.3117 18.5166 91.1955 18.127 91.1955 17.7168H92.467C92.4852 18.0632 92.5855 18.3389 92.7678 18.5439C92.9501 18.7445 93.1734 18.888 93.4377 18.9746C93.702 19.0566 93.9641 19.0977 94.2238 19.0977C94.5702 19.0977 94.8596 19.0521 95.092 18.9609C95.329 18.8698 95.509 18.7445 95.632 18.585C95.7551 18.4255 95.8166 18.2432 95.8166 18.0381ZM101.952 20.1367C101.437 20.1367 100.97 20.0501 100.55 19.877C100.136 19.6992 99.7779 19.4508 99.4771 19.1318C99.1809 18.8128 98.953 18.4346 98.7935 17.9971C98.634 17.5596 98.5543 17.0811 98.5543 16.5615V16.2744C98.5543 15.6729 98.6431 15.1374 98.8209 14.668C98.9986 14.194 99.2401 13.793 99.5455 13.4648C99.8508 13.1367 100.197 12.8883 100.585 12.7197C100.972 12.5511 101.373 12.4668 101.788 12.4668C102.316 12.4668 102.772 12.5579 103.155 12.7402C103.542 12.9225 103.859 13.1777 104.105 13.5059C104.351 13.8294 104.533 14.2122 104.652 14.6543C104.77 15.0918 104.83 15.5703 104.83 16.0898V16.6572H99.3062V15.625H103.565V15.5293C103.547 15.2012 103.478 14.8822 103.36 14.5723C103.246 14.2624 103.064 14.0072 102.813 13.8066C102.562 13.6061 102.221 13.5059 101.788 13.5059C101.501 13.5059 101.236 13.5674 100.995 13.6904C100.753 13.8089 100.546 13.9867 100.373 14.2236C100.199 14.4606 100.065 14.75 99.9693 15.0918C99.8736 15.4336 99.8257 15.8278 99.8257 16.2744V16.5615C99.8257 16.9124 99.8736 17.2428 99.9693 17.5527C100.07 17.8581 100.213 18.127 100.4 18.3594C100.591 18.5918 100.822 18.7741 101.09 18.9062C101.364 19.0384 101.674 19.1045 102.02 19.1045C102.467 19.1045 102.845 19.0133 103.155 18.8311C103.465 18.6488 103.736 18.4049 103.968 18.0996L104.734 18.708C104.574 18.9495 104.372 19.1797 104.126 19.3984C103.879 19.6172 103.576 19.7949 103.216 19.9316C102.861 20.0684 102.439 20.1367 101.952 20.1367ZM116.649 16.6504V17.6895H109.457V16.9443L113.914 10.0469H114.947L113.839 12.043L110.893 16.6504H116.649ZM115.261 10.0469V20H113.996V10.0469H115.261ZM119.537 15.2627L118.525 15.0029L119.024 10.0469H124.131V11.2158H120.097L119.797 13.9229C119.979 13.818 120.209 13.7201 120.487 13.6289C120.77 13.5378 121.093 13.4922 121.458 13.4922C121.918 13.4922 122.33 13.5719 122.695 13.7314C123.06 13.8864 123.369 14.1097 123.625 14.4014C123.884 14.693 124.083 15.0439 124.219 15.4541C124.356 15.8643 124.424 16.3223 124.424 16.8281C124.424 17.3066 124.358 17.7464 124.226 18.1475C124.099 18.5485 123.905 18.8994 123.645 19.2002C123.385 19.4964 123.057 19.7266 122.661 19.8906C122.269 20.0547 121.806 20.1367 121.273 20.1367C120.872 20.1367 120.492 20.082 120.131 19.9727C119.776 19.8587 119.457 19.6878 119.174 19.46C118.896 19.2275 118.669 18.9404 118.491 18.5986C118.318 18.2523 118.208 17.8467 118.163 17.3818H119.366C119.421 17.7555 119.53 18.07 119.694 18.3252C119.858 18.5804 120.072 18.7741 120.337 18.9062C120.605 19.0339 120.918 19.0977 121.273 19.0977C121.574 19.0977 121.84 19.0452 122.073 18.9404C122.305 18.8356 122.501 18.6852 122.661 18.4893C122.82 18.2933 122.941 18.0563 123.023 17.7783C123.11 17.5003 123.153 17.1882 123.153 16.8418C123.153 16.5273 123.11 16.2357 123.023 15.9668C122.936 15.6979 122.807 15.4632 122.633 15.2627C122.465 15.0622 122.257 14.9072 122.011 14.7979C121.765 14.6839 121.483 14.627 121.164 14.627C120.74 14.627 120.419 14.6839 120.2 14.7979C119.986 14.9118 119.765 15.0667 119.537 15.2627ZM132.2 14.2305V15.748C132.2 16.5638 132.127 17.252 131.981 17.8125C131.836 18.373 131.626 18.8242 131.353 19.166C131.079 19.5078 130.749 19.7562 130.361 19.9111C129.979 20.0615 129.546 20.1367 129.062 20.1367C128.68 20.1367 128.326 20.0889 128.003 19.9932C127.679 19.8975 127.388 19.7448 127.128 19.5352C126.873 19.321 126.654 19.043 126.472 18.7012C126.289 18.3594 126.15 17.9447 126.055 17.457C125.959 16.9694 125.911 16.3997 125.911 15.748V14.2305C125.911 13.4147 125.984 12.7311 126.13 12.1797C126.28 11.6283 126.492 11.1862 126.766 10.8535C127.039 10.5163 127.367 10.2747 127.75 10.1289C128.137 9.98307 128.57 9.91016 129.049 9.91016C129.436 9.91016 129.792 9.95801 130.115 10.0537C130.443 10.1449 130.735 10.293 130.99 10.498C131.245 10.6986 131.462 10.9674 131.64 11.3047C131.822 11.6374 131.961 12.0452 132.057 12.5283C132.152 13.0114 132.2 13.5788 132.2 14.2305ZM130.929 15.9531V14.0186C130.929 13.5719 130.901 13.18 130.847 12.8428C130.797 12.501 130.721 12.2093 130.621 11.9678C130.521 11.7262 130.393 11.5303 130.238 11.3799C130.088 11.2295 129.912 11.1201 129.712 11.0518C129.516 10.9788 129.295 10.9424 129.049 10.9424C128.748 10.9424 128.481 10.9993 128.249 11.1133C128.017 11.2227 127.821 11.3981 127.661 11.6396C127.506 11.8812 127.388 12.1979 127.306 12.5898C127.224 12.9818 127.183 13.458 127.183 14.0186V15.9531C127.183 16.3997 127.208 16.7939 127.258 17.1357C127.312 17.4775 127.392 17.7738 127.497 18.0244C127.602 18.2705 127.729 18.4733 127.88 18.6328C128.03 18.7923 128.203 18.9108 128.399 18.9883C128.6 19.0612 128.821 19.0977 129.062 19.0977C129.372 19.0977 129.644 19.0384 129.876 18.9199C130.108 18.8014 130.302 18.6169 130.457 18.3662C130.617 18.111 130.735 17.7852 130.812 17.3887C130.89 16.9876 130.929 16.5091 130.929 15.9531Z" fill="#ffffff"/>
<defs>
<clipPath id="clip0_3896_202">
<rect width="25.3846" height="27.6923" fill="white" transform="translate(2.30762 1.15384)"/>
</clipPath>
</defs>
</svg>
