<svg width="149" height="30" viewBox="0 0 149 30" fill="none" xmlns="http://www.w3.org/2000/svg"
data-testid="EnterpriseDeca">
<mask id="mask0_4211_456" style="mask-type:alpha" maskUnits="userSpaceOnUse" x="0" y="0" width="30" height="30">
<circle cx="15" cy="15" r="15" fill="#C4C4C4"/>
</mask>
<g mask="url(#mask0_4211_456)">
</g>
<g clip-path="url(#clip0_4211_456)">
<path d="M26.8508 17.8029V17.819C26.837 18.116 26.7227 18.3986 26.5276 18.618C26.3325 18.8375 26.0689 18.9799 25.7825 19.0206C25.2304 19.0206 24.9313 18.5267 25.2488 18.1293C25.3856 17.8574 25.4423 17.5502 25.4117 17.2456C25.3948 16.9166 25.458 16.5885 25.5957 16.291C25.6096 16.2635 25.6253 16.2369 25.6426 16.2115C26.2463 15.5275 26.7726 16.2749 26.8656 17.1747C26.8839 17.384 26.879 17.5947 26.8508 17.8029V17.8029Z" fill="#11AB51"/>
<path d="M25.4345 15.009C25.2766 15.1377 25.1336 15.2846 25.0085 15.447C24.8309 15.6779 24.9385 15.5899 24.2502 15.272C23.6309 15.2322 23.3834 14.8178 23.6383 13.8632C23.6696 13.7601 23.6926 13.674 23.7239 13.5926C23.9484 12.9634 24.184 13.1385 24.6441 13.3854C24.8722 13.5079 25.1106 13.6092 25.3563 13.6882C25.7833 13.8386 25.8376 14.762 25.4345 15.009Z" fill="#11AB51"/>
<path d="M19.5129 24.6642C17.3375 26.1364 14.6128 28.9701 11.8338 28.4052C11.2458 28.1668 11.0756 27.848 11.439 27.7921C11.485 27.7852 11.5315 27.7827 11.578 27.7846C13.2187 26.9889 17.3992 23.5979 19.1411 22.2686C19.3997 22.1029 19.6111 21.8698 19.7538 21.593C19.8966 21.3162 19.9655 21.0054 19.9537 20.6924C19.9537 19.5069 19.3344 18.2088 18.785 18.2088C18.5605 18.2088 18.5145 18.1056 18.6148 17.8502C18.774 17.5533 18.854 17.2184 18.8467 16.8795C18.7868 16.6223 18.6384 16.396 18.4289 16.2427C18.0968 15.8881 17.8981 15.4237 17.8683 14.9323C17.8384 14.441 17.9794 13.9548 18.266 13.5604C19.2099 12.968 20.2559 12.5681 21.3468 12.3825C21.7959 12.3825 22.0664 13.147 21.8732 13.9105C21.7729 14.3325 21.8962 14.4839 22.7096 14.9692C23.1891 15.2466 23.6426 15.569 24.0642 15.9324C26.1217 19.2192 22.083 22.8249 19.5129 24.6642Z" fill="#11AB51"/>
<path d="M23.3834 12.1753C23.3094 12.2403 23.2444 12.3155 23.1902 12.3986C23.0425 12.6294 22.9544 12.8951 22.9343 13.1706C22.8883 14.2294 22.6868 14.1338 22.5856 12.9956C22.5745 12.5968 22.504 12.2021 22.3767 11.8252C21.9692 11.6964 21.5481 11.6189 21.1225 11.5944C20.7111 11.5024 20.284 11.5176 19.8798 11.6385C19.4756 11.7595 19.1072 11.9824 18.8082 12.287C16.8647 13.6324 16.5399 14.6031 17.5696 15.9769C17.8253 16.2818 18.0136 16.6401 18.1217 17.0271C18.1217 17.3109 17.4021 17.8625 16.1709 18.5239C14.739 19.6857 14.2201 21.7956 12.1376 22.1456C11.3095 22.4238 10.427 22.7748 10.1712 22.894C9.1884 23.6509 8.9013 24.7163 8.20471 25.6482C6.21524 27.0012 3.69573 25.3057 2.70836 22.6395C2.64671 22.4645 2.58413 22.2809 2.53076 22.0983C5.83612 14.0676 9.8077 10.2386 16.4028 5.56658C16.4059 5.97564 16.3214 6.38039 16.1552 6.75209C16.1197 6.81875 16.0889 6.888 16.0632 6.95929V6.95929C15.8617 7.46074 15.939 7.78715 16.2721 7.78715C16.2981 7.78857 16.3241 7.78602 16.3494 7.77959C16.7598 7.66037 16.9935 6.52218 17.4334 2.82848C17.519 2.10374 17.5493 1.96845 17.7739 2.152C17.8279 2.19404 17.8795 2.23921 17.9285 2.28729C18.3562 2.89363 18.7515 3.52342 19.1128 4.17388C20.0231 5.34813 20.4731 6.83013 20.3743 8.32834C20.3743 9.72105 20.5915 10.3502 20.9393 9.99164C21.0603 9.63649 21.118 9.26181 21.1096 8.88561C21.1326 8.2167 21.0479 7.19866 21.2412 7.19866C21.3332 7.19866 21.4813 7.35004 21.6589 7.58847C22.2771 8.43505 22.7413 9.3896 23.0291 10.406C23.0661 10.7563 23.2006 11.0881 23.4165 11.3616C23.7929 11.8252 23.7929 11.8413 23.3834 12.1753Z" fill="#11AB51"/>
<path d="M14.5879 6.53165C14.3947 6.53165 14.4039 5.52875 14.6036 3.72164L14.7425 2.4718L15.1916 3.42739C15.3872 3.87543 15.6482 4.29018 15.9654 4.65736C16.3841 5.3698 15.1051 6.12576 14.5879 6.53165Z" fill="#11AB51"/>
<path d="M11.6461 8.74463C11.5458 8.83262 11.4445 8.91209 11.3442 8.99914C11.4298 8.91966 11.4915 8.85627 11.6001 8.76828L11.6461 8.74463Z" fill="#49BE7A"/>
<path d="M5.96545 19.7614C5.69491 19.4908 5.3848 19.3233 5.26058 19.4113C4.86601 19.9833 4.62828 20.6539 4.57227 21.3528C4.57227 21.7747 4.78943 21.8542 5.09126 21.56C5.30546 21.4164 5.54938 21.3263 5.80349 21.297C6.51573 21.1853 6.5967 20.3981 5.96545 19.7614ZM13.5672 10.6956C13.3353 10.6956 12.9323 10.5924 12.9323 10.337C12.9323 9.60467 12.8237 9.64441 12.0728 10.5357C11.78 10.8423 11.532 11.1909 11.3367 11.5707C11.1687 12.0856 10.9617 12.5861 10.7174 13.0675C10.0981 14.3732 9.95911 15.0733 10.2453 15.36C10.3309 15.4395 10.5158 15.3524 10.6631 15.1528C11.9789 14.1896 13.3961 16.3468 14.8205 12.5575C14.8371 11.5783 14.2344 10.6956 13.5672 10.6956V10.6956ZM11.8952 14.6352C11.1213 14.6352 10.9198 14.412 11.044 13.973C11.3771 12.8669 12.3056 11.426 12.7317 11.3541C13.5056 11.2424 14.0089 11.0437 14.3107 12.1185C14.6126 13.1933 13.2507 14.6267 11.8952 14.6352V14.6352ZM13.5672 10.6956C13.3353 10.6956 12.9323 10.5924 12.9323 10.337C12.9323 9.60467 12.8237 9.64441 12.0728 10.5357C11.78 10.8423 11.532 11.1909 11.3367 11.5707C11.1687 12.0856 10.9617 12.5861 10.7174 13.0675C10.0981 14.3732 9.95911 15.0733 10.2453 15.36C10.3309 15.4395 10.5158 15.3524 10.6631 15.1528C11.9789 14.1896 13.3961 16.3468 14.8205 12.5575C14.8371 11.5783 14.2344 10.6956 13.5672 10.6956V10.6956ZM11.8952 14.6352C11.1213 14.6352 10.9198 14.412 11.044 13.973C11.3771 12.8669 12.3056 11.426 12.7317 11.3541C13.5056 11.2424 14.0089 11.0437 14.3107 12.1185C14.6126 13.1933 13.2507 14.6267 11.8952 14.6352V14.6352ZM5.96545 19.7614C5.69491 19.4908 5.3848 19.3233 5.26058 19.4113C4.86601 19.9833 4.62828 20.6539 4.57227 21.3528C4.57227 21.7747 4.78943 21.8542 5.09126 21.56C5.30546 21.4164 5.54938 21.3263 5.80349 21.297C6.51573 21.1853 6.5967 20.3981 5.96545 19.7614ZM5.96545 19.7614C5.69491 19.4908 5.3848 19.3233 5.26058 19.4113C4.86601 19.9833 4.62828 20.6539 4.57227 21.3528C4.57227 21.7747 4.78943 21.8542 5.09126 21.56C5.30546 21.4164 5.54938 21.3263 5.80349 21.297C6.51573 21.1853 6.5967 20.3981 5.96545 19.7614ZM13.5672 10.6956C13.3353 10.6956 12.9323 10.5924 12.9323 10.337C12.9323 9.60467 12.8237 9.64441 12.0728 10.5357C11.78 10.8423 11.532 11.1909 11.3367 11.5707C11.1687 12.0856 10.9617 12.5861 10.7174 13.0675C10.0981 14.3732 9.95911 15.0733 10.2453 15.36C10.3309 15.4395 10.5158 15.3524 10.6631 15.1528C11.9789 14.1896 13.3961 16.3468 14.8205 12.5575C14.8371 11.5783 14.2344 10.6956 13.5672 10.6956V10.6956ZM11.8952 14.6352C11.1213 14.6352 10.9198 14.412 11.044 13.973C11.3771 12.8669 12.3056 11.426 12.7317 11.3541C13.5056 11.2424 14.0089 11.0437 14.3107 12.1185C14.6126 13.1933 13.2507 14.6267 11.8952 14.6352V14.6352ZM13.5672 10.6956C13.3353 10.6956 12.9323 10.5924 12.9323 10.337C12.9323 9.60467 12.8237 9.64441 12.0728 10.5357C11.78 10.8423 11.532 11.1909 11.3367 11.5707C11.1687 12.0856 10.9617 12.5861 10.7174 13.0675C10.0981 14.3732 9.95911 15.0733 10.2453 15.36C10.3309 15.4395 10.5158 15.3524 10.6631 15.1528C11.9789 14.1896 13.3961 16.3468 14.8205 12.5575C14.8371 11.5783 14.2344 10.6956 13.5672 10.6956V10.6956ZM11.8952 14.6352C11.1213 14.6352 10.9198 14.412 11.044 13.973C11.3771 12.8669 12.3056 11.426 12.7317 11.3541C13.5056 11.2424 14.0089 11.0437 14.3107 12.1185C14.6126 13.1933 13.2507 14.6267 11.8952 14.6352V14.6352ZM5.96545 19.7614C5.69491 19.4908 5.3848 19.3233 5.26058 19.4113C4.86601 19.9833 4.62828 20.6539 4.57227 21.3528C4.57227 21.7747 4.78943 21.8542 5.09126 21.56C5.30546 21.4164 5.54938 21.3263 5.80349 21.297C6.51573 21.1853 6.5967 20.3981 5.96545 19.7614ZM5.96545 19.7614C5.69491 19.4908 5.3848 19.3233 5.26058 19.4113C4.86601 19.9833 4.62828 20.6539 4.57227 21.3528C4.57227 21.7747 4.78943 21.8542 5.09126 21.56C5.30546 21.4164 5.54938 21.3263 5.80349 21.297C6.51573 21.1853 6.5967 20.3981 5.96545 19.7614ZM13.5672 10.6956C13.3353 10.6956 12.9323 10.5924 12.9323 10.337C12.9323 9.60467 12.8237 9.64441 12.0728 10.5357C11.78 10.8423 11.532 11.1909 11.3367 11.5707C11.1687 12.0856 10.9617 12.5861 10.7174 13.0675C10.0981 14.3732 9.95911 15.0733 10.2453 15.36C10.3309 15.4395 10.5158 15.3524 10.6631 15.1528C11.9789 14.1896 13.3961 16.3468 14.8205 12.5575C14.8371 11.5783 14.2344 10.6956 13.5672 10.6956V10.6956ZM11.8952 14.6352C11.1213 14.6352 10.9198 14.412 11.044 13.973C11.3771 12.8669 12.3056 11.426 12.7317 11.3541C13.5056 11.2424 14.0089 11.0437 14.3107 12.1185C14.6126 13.1933 13.2507 14.6267 11.8952 14.6352V14.6352ZM13.5672 10.6956C13.3353 10.6956 12.9323 10.5924 12.9323 10.337C12.9323 9.60467 12.8237 9.64441 12.0728 10.5357C11.78 10.8423 11.532 11.1909 11.3367 11.5707C11.1687 12.0856 10.9617 12.5861 10.7174 13.0675C10.0981 14.3732 9.95911 15.0733 10.2453 15.36C10.3309 15.4395 10.5158 15.3524 10.6631 15.1528C11.9789 14.1896 13.3961 16.3468 14.8205 12.5575C14.8371 11.5783 14.2344 10.6956 13.5672 10.6956V10.6956ZM11.8952 14.6352C11.1213 14.6352 10.9198 14.412 11.044 13.973C11.3771 12.8669 12.3056 11.426 12.7317 11.3541C13.5056 11.2424 14.0089 11.0437 14.3107 12.1185C14.6126 13.1933 13.2507 14.6267 11.8952 14.6352V14.6352ZM5.96545 19.7614C5.69491 19.4908 5.3848 19.3233 5.26058 19.4113C4.86601 19.9833 4.62828 20.6539 4.57227 21.3528C4.57227 21.7747 4.78943 21.8542 5.09126 21.56C5.30546 21.4164 5.54938 21.3263 5.80349 21.297C6.51573 21.1853 6.5967 20.3981 5.96545 19.7614ZM5.96545 19.7614C5.69491 19.4908 5.3848 19.3233 5.26058 19.4113C4.86601 19.9833 4.62828 20.6539 4.57227 21.3528C4.57227 21.7747 4.78943 21.8542 5.09126 21.56C5.30546 21.4164 5.54938 21.3263 5.80349 21.297C6.51573 21.1853 6.5967 20.3981 5.96545 19.7614ZM13.5672 10.6956C13.3353 10.6956 12.9323 10.5924 12.9323 10.337C12.9323 9.60467 12.8237 9.64441 12.0728 10.5357C11.78 10.8423 11.532 11.1909 11.3367 11.5707C11.1687 12.0856 10.9617 12.5861 10.7174 13.0675C10.0981 14.3732 9.95911 15.0733 10.2453 15.36C10.3309 15.4395 10.5158 15.3524 10.6631 15.1528C11.9789 14.1896 13.3961 16.3468 14.8205 12.5575C14.8371 11.5783 14.2344 10.6956 13.5672 10.6956V10.6956ZM11.8952 14.6352C11.1213 14.6352 10.9198 14.412 11.044 13.973C11.3771 12.8669 12.3056 11.426 12.7317 11.3541C13.5056 11.2424 14.0089 11.0437 14.3107 12.1185C14.6126 13.1933 13.2507 14.6267 11.8952 14.6352V14.6352ZM13.5672 10.6956C13.3353 10.6956 12.9323 10.5924 12.9323 10.337C12.9323 9.60467 12.8237 9.64441 12.0728 10.5357C11.78 10.8423 11.532 11.1909 11.3367 11.5707C11.1687 12.0856 10.9617 12.5861 10.7174 13.0675C10.0981 14.3732 9.95911 15.0733 10.2453 15.36C10.3309 15.4395 10.5158 15.3524 10.6631 15.1528C11.9789 14.1896 13.3961 16.3468 14.8205 12.5575C14.8371 11.5783 14.2344 10.6956 13.5672 10.6956V10.6956ZM11.8952 14.6352C11.1213 14.6352 10.9198 14.412 11.044 13.973C11.3771 12.8669 12.3056 11.426 12.7317 11.3541C13.5056 11.2424 14.0089 11.0437 14.3107 12.1185C14.6126 13.1933 13.2507 14.6267 11.8952 14.6352V14.6352ZM5.96545 19.7614C5.69491 19.4908 5.3848 19.3233 5.26058 19.4113C4.86601 19.9833 4.62828 20.6539 4.57227 21.3528C4.57227 21.7747 4.78943 21.8542 5.09126 21.56C5.30546 21.4164 5.54938 21.3263 5.80349 21.297C6.51573 21.1853 6.5967 20.3981 5.96545 19.7614ZM5.96545 19.7614C5.69491 19.4908 5.3848 19.3233 5.26058 19.4113C4.86601 19.9833 4.62828 20.6539 4.57227 21.3528C4.57227 21.7747 4.78943 21.8542 5.09126 21.56C5.30546 21.4164 5.54938 21.3263 5.80349 21.297C6.51573 21.1853 6.5967 20.3981 5.96545 19.7614ZM13.5672 10.6956C13.3353 10.6956 12.9323 10.5924 12.9323 10.337C12.9323 9.60467 12.8237 9.64441 12.0728 10.5357C11.78 10.8423 11.532 11.1909 11.3367 11.5707C11.1687 12.0856 10.9617 12.5861 10.7174 13.0675C10.0981 14.3732 9.95911 15.0733 10.2453 15.36C10.3309 15.4395 10.5158 15.3524 10.6631 15.1528C11.9789 14.1896 13.3961 16.3468 14.8205 12.5575C14.8371 11.5783 14.2344 10.6956 13.5672 10.6956V10.6956ZM11.8952 14.6352C11.1213 14.6352 10.9198 14.412 11.044 13.973C11.3771 12.8669 12.3056 11.426 12.7317 11.3541C13.5056 11.2424 14.0089 11.0437 14.3107 12.1185C14.6126 13.1933 13.2507 14.6267 11.8952 14.6352V14.6352ZM13.5672 10.6956C13.3353 10.6956 12.9323 10.5924 12.9323 10.337C12.9323 9.60467 12.8237 9.64441 12.0728 10.5357C11.78 10.8423 11.532 11.1909 11.3367 11.5707C11.1687 12.0856 10.9617 12.5861 10.7174 13.0675C10.0981 14.3732 9.95911 15.0733 10.2453 15.36C10.3309 15.4395 10.5158 15.3524 10.6631 15.1528C11.9789 14.1896 13.3961 16.3468 14.8205 12.5575C14.8371 11.5783 14.2344 10.6956 13.5672 10.6956V10.6956ZM11.8952 14.6352C11.1213 14.6352 10.9198 14.412 11.044 13.973C11.3771 12.8669 12.3056 11.426 12.7317 11.3541C13.5056 11.2424 14.0089 11.0437 14.3107 12.1185C14.6126 13.1933 13.2507 14.6267 11.8952 14.6352V14.6352ZM5.96545 19.7614C5.69491 19.4908 5.3848 19.3233 5.26058 19.4113C4.86601 19.9833 4.62828 20.6539 4.57227 21.3528C4.57227 21.7747 4.78943 21.8542 5.09126 21.56C5.30546 21.4164 5.54938 21.3263 5.80349 21.297C6.51573 21.1853 6.5967 20.3981 5.96545 19.7614ZM5.96545 19.7614C5.69491 19.4908 5.3848 19.3233 5.26058 19.4113C4.86601 19.9833 4.62828 20.6539 4.57227 21.3528C4.57227 21.7747 4.78943 21.8542 5.09126 21.56C5.30546 21.4164 5.54938 21.3263 5.80349 21.297C6.51573 21.1853 6.5967 20.3981 5.96545 19.7614ZM13.5672 10.6956C13.3353 10.6956 12.9323 10.5924 12.9323 10.337C12.9323 9.60467 12.8237 9.64441 12.0728 10.5357C11.78 10.8423 11.532 11.1909 11.3367 11.5707C11.1687 12.0856 10.9617 12.5861 10.7174 13.0675C10.0981 14.3732 9.95911 15.0733 10.2453 15.36C10.3309 15.4395 10.5158 15.3524 10.6631 15.1528C11.9789 14.1896 13.3961 16.3468 14.8205 12.5575C14.8371 11.5783 14.2344 10.6956 13.5672 10.6956V10.6956ZM11.8952 14.6352C11.1213 14.6352 10.9198 14.412 11.044 13.973C11.3771 12.8669 12.3056 11.426 12.7317 11.3541C13.5056 11.2424 14.0089 11.0437 14.3107 12.1185C14.6126 13.1933 13.2507 14.6267 11.8952 14.6352V14.6352ZM17.0971 1.87572L17.1201 1.8199C17.1127 1.81233 17.1127 1.82842 17.098 1.87572H17.0971ZM5.96269 19.7576C5.69215 19.487 5.38204 19.3195 5.25781 19.4075C4.86362 19.9809 4.62682 20.6528 4.57227 21.3528C4.57227 21.7747 4.78943 21.8542 5.09126 21.56C5.30546 21.4164 5.54938 21.3263 5.80349 21.297C6.51573 21.1853 6.5967 20.3981 5.96545 19.7614L5.96269 19.7576ZM13.5645 10.6918C13.3326 10.6918 12.9295 10.5886 12.9295 10.3332C12.9295 9.60088 12.8209 9.64062 12.07 10.5319C11.7773 10.8385 11.5293 11.1871 11.3339 11.5669C11.166 12.0818 10.9589 12.5823 10.7146 13.0637C10.0953 14.3694 9.95635 15.0695 10.2425 15.3562C10.3281 15.4357 10.5131 15.3486 10.6603 15.149C11.9762 14.1858 13.3933 16.343 14.8178 12.5538C14.8371 11.5783 14.2344 10.6956 13.5672 10.6956L13.5645 10.6918ZM11.8925 14.6315C11.1186 14.6315 10.917 14.4082 11.0413 13.9692C11.3744 12.8631 12.3029 11.4222 12.7289 11.3503C13.5028 11.2386 14.0061 11.0399 14.308 12.1148C14.6098 13.1896 13.2507 14.6267 11.8952 14.6352L11.8925 14.6315ZM13.5645 10.6918C13.3326 10.6918 12.9295 10.5886 12.9295 10.3332C12.9295 9.60088 12.8209 9.64062 12.07 10.5319C11.7773 10.8385 11.5293 11.1871 11.3339 11.5669C11.166 12.0818 10.9589 12.5823 10.7146 13.0637C10.0953 14.3694 9.95635 15.0695 10.2425 15.3562C10.3281 15.4357 10.5131 15.3486 10.6603 15.149C11.9762 14.1858 13.3933 16.343 14.8178 12.5538C14.8371 11.5783 14.2344 10.6956 13.5672 10.6956L13.5645 10.6918ZM11.8925 14.6315C11.1186 14.6315 10.917 14.4082 11.0413 13.9692C11.3744 12.8631 12.3029 11.4222 12.7289 11.3503C13.5028 11.2386 14.0061 11.0399 14.308 12.1148C14.6098 13.1896 13.2507 14.6267 11.8952 14.6352L11.8925 14.6315ZM5.96545 19.7614C5.69491 19.4908 5.3848 19.3233 5.26058 19.4113C4.86601 19.9833 4.62828 20.6539 4.57227 21.3528C4.57227 21.7747 4.78943 21.8542 5.09126 21.56C5.30546 21.4164 5.54938 21.3263 5.80349 21.297C6.51573 21.1853 6.5967 20.3981 5.96545 19.7614ZM5.96545 19.7614C5.69491 19.4908 5.3848 19.3233 5.26058 19.4113C4.86601 19.9833 4.62828 20.6539 4.57227 21.3528C4.57227 21.7747 4.78943 21.8542 5.09126 21.56C5.30546 21.4164 5.54938 21.3263 5.80349 21.297C6.51573 21.1853 6.5967 20.3981 5.96545 19.7614ZM13.5672 10.6956C13.3353 10.6956 12.9323 10.5924 12.9323 10.337C12.9323 9.60467 12.8237 9.64441 12.0728 10.5357C11.78 10.8423 11.532 11.1909 11.3367 11.5707C11.1687 12.0856 10.9617 12.5861 10.7174 13.0675C10.0981 14.3732 9.95911 15.0733 10.2453 15.36C10.3309 15.4395 10.5158 15.3524 10.6631 15.1528C11.9789 14.1896 13.3961 16.3468 14.8205 12.5575C14.8371 11.5783 14.2344 10.6956 13.5672 10.6956V10.6956ZM11.8952 14.6352C11.1213 14.6352 10.9198 14.412 11.044 13.973C11.3771 12.8669 12.3056 11.426 12.7317 11.3541C13.5056 11.2424 14.0089 11.0437 14.3107 12.1185C14.6126 13.1933 13.2507 14.6267 11.8952 14.6352V14.6352ZM13.5672 10.6956C13.3353 10.6956 12.9323 10.5924 12.9323 10.337C12.9323 9.60467 12.8237 9.64441 12.0728 10.5357C11.78 10.8423 11.532 11.1909 11.3367 11.5707C11.1687 12.0856 10.9617 12.5861 10.7174 13.0675C10.0981 14.3732 9.95911 15.0733 10.2453 15.36C10.3309 15.4395 10.5158 15.3524 10.6631 15.1528C11.9789 14.1896 13.3961 16.3468 14.8205 12.5575C14.8371 11.5783 14.2344 10.6956 13.5672 10.6956V10.6956ZM11.8952 14.6352C11.1213 14.6352 10.9198 14.412 11.044 13.973C11.3771 12.8669 12.3056 11.426 12.7317 11.3541C13.5056 11.2424 14.0089 11.0437 14.3107 12.1185C14.6126 13.1933 13.2507 14.6267 11.8952 14.6352V14.6352ZM5.96545 19.7614C5.69491 19.4908 5.3848 19.3233 5.26058 19.4113C4.86601 19.9833 4.62828 20.6539 4.57227 21.3528C4.57227 21.7747 4.78943 21.8542 5.09126 21.56C5.30546 21.4164 5.54938 21.3263 5.80349 21.297C6.51573 21.1853 6.5967 20.3981 5.96545 19.7614ZM5.96545 19.7614C5.69491 19.4908 5.3848 19.3233 5.26058 19.4113C4.86601 19.9833 4.62828 20.6539 4.57227 21.3528C4.57227 21.7747 4.78943 21.8542 5.09126 21.56C5.30546 21.4164 5.54938 21.3263 5.80349 21.297C6.51573 21.1853 6.5967 20.3981 5.96545 19.7614ZM13.5672 10.6956C13.3353 10.6956 12.9323 10.5924 12.9323 10.337C12.9323 9.60467 12.8237 9.64441 12.0728 10.5357C11.78 10.8423 11.532 11.1909 11.3367 11.5707C11.1687 12.0856 10.9617 12.5861 10.7174 13.0675C10.0981 14.3732 9.95911 15.0733 10.2453 15.36C10.3309 15.4395 10.5158 15.3524 10.6631 15.1528C11.9789 14.1896 13.3961 16.3468 14.8205 12.5575C14.8371 11.5783 14.2344 10.6956 13.5672 10.6956V10.6956ZM11.8952 14.6352C11.1213 14.6352 10.9198 14.412 11.044 13.973C11.3771 12.8669 12.3056 11.426 12.7317 11.3541C13.5056 11.2424 14.0089 11.0437 14.3107 12.1185C14.6126 13.1933 13.2507 14.6267 11.8952 14.6352V14.6352ZM13.5672 10.6956C13.3353 10.6956 12.9323 10.5924 12.9323 10.337C12.9323 9.60467 12.8237 9.64441 12.0728 10.5357C11.78 10.8423 11.532 11.1909 11.3367 11.5707C11.1687 12.0856 10.9617 12.5861 10.7174 13.0675C10.0981 14.3732 9.95911 15.0733 10.2453 15.36C10.3309 15.4395 10.5158 15.3524 10.6631 15.1528C11.9789 14.1896 13.3961 16.3468 14.8205 12.5575C14.8371 11.5783 14.2344 10.6956 13.5672 10.6956V10.6956ZM11.8952 14.6352C11.1213 14.6352 10.9198 14.412 11.044 13.973C11.3771 12.8669 12.3056 11.426 12.7317 11.3541C13.5056 11.2424 14.0089 11.0437 14.3107 12.1185C14.6126 13.1933 13.2507 14.6267 11.8952 14.6352V14.6352ZM5.96545 19.7614C5.69491 19.4908 5.3848 19.3233 5.26058 19.4113C4.86601 19.9833 4.62828 20.6539 4.57227 21.3528C4.57227 21.7747 4.78943 21.8542 5.09126 21.56C5.30546 21.4164 5.54938 21.3263 5.80349 21.297C6.51573 21.1853 6.5967 20.3981 5.96545 19.7614ZM5.96545 19.7614C5.69491 19.4908 5.3848 19.3233 5.26058 19.4113C4.86601 19.9833 4.62828 20.6539 4.57227 21.3528C4.57227 21.7747 4.78943 21.8542 5.09126 21.56C5.30546 21.4164 5.54938 21.3263 5.80349 21.297C6.51573 21.1853 6.5967 20.3981 5.96545 19.7614ZM13.5672 10.6956C13.3353 10.6956 12.9323 10.5924 12.9323 10.337C12.9323 9.60467 12.8237 9.64441 12.0728 10.5357C11.78 10.8423 11.532 11.1909 11.3367 11.5707C11.1687 12.0856 10.9617 12.5861 10.7174 13.0675C10.0981 14.3732 9.95911 15.0733 10.2453 15.36C10.3309 15.4395 10.5158 15.3524 10.6631 15.1528C11.9789 14.1896 13.3961 16.3468 14.8205 12.5575C14.8371 11.5783 14.2344 10.6956 13.5672 10.6956V10.6956ZM11.8952 14.6352C11.1213 14.6352 10.9198 14.412 11.044 13.973C11.3771 12.8669 12.3056 11.426 12.7317 11.3541C13.5056 11.2424 14.0089 11.0437 14.3107 12.1185C14.6126 13.1933 13.2507 14.6267 11.8952 14.6352V14.6352ZM13.5672 10.6956C13.3353 10.6956 12.9323 10.5924 12.9323 10.337C12.9323 9.60467 12.8237 9.64441 12.0728 10.5357C11.78 10.8423 11.532 11.1909 11.3367 11.5707C11.1687 12.0856 10.9617 12.5861 10.7174 13.0675C10.0981 14.3732 9.95911 15.0733 10.2453 15.36C10.3309 15.4395 10.5158 15.3524 10.6631 15.1528C11.9789 14.1896 13.3961 16.3468 14.8205 12.5575C14.8371 11.5783 14.2344 10.6956 13.5672 10.6956V10.6956ZM11.8952 14.6352C11.1213 14.6352 10.9198 14.412 11.044 13.973C11.3771 12.8669 12.3056 11.426 12.7317 11.3541C13.5056 11.2424 14.0089 11.0437 14.3107 12.1185C14.6126 13.1933 13.2507 14.6267 11.8952 14.6352V14.6352ZM5.96545 19.7614C5.69491 19.4908 5.3848 19.3233 5.26058 19.4113C4.86601 19.9833 4.62828 20.6539 4.57227 21.3528C4.57227 21.7747 4.78943 21.8542 5.09126 21.56C5.30546 21.4164 5.54938 21.3263 5.80349 21.297C6.51573 21.1853 6.5967 20.3981 5.96545 19.7614ZM5.96545 19.7614C5.69491 19.4908 5.3848 19.3233 5.26058 19.4113C4.86601 19.9833 4.62828 20.6539 4.57227 21.3528C4.57227 21.7747 4.78943 21.8542 5.09126 21.56C5.30546 21.4164 5.54938 21.3263 5.80349 21.297C6.51573 21.1853 6.5967 20.3981 5.96545 19.7614ZM13.5672 10.6956C13.3353 10.6956 12.9323 10.5924 12.9323 10.337C12.9323 9.60467 12.8237 9.64441 12.0728 10.5357C11.78 10.8423 11.532 11.1909 11.3367 11.5707C11.1687 12.0856 10.9617 12.5861 10.7174 13.0675C10.0981 14.3732 9.95911 15.0733 10.2453 15.36C10.3309 15.4395 10.5158 15.3524 10.6631 15.1528C11.9789 14.1896 13.3961 16.3468 14.8205 12.5575C14.8371 11.5783 14.2344 10.6956 13.5672 10.6956V10.6956ZM11.8952 14.6352C11.1213 14.6352 10.9198 14.412 11.044 13.973C11.3771 12.8669 12.3056 11.426 12.7317 11.3541C13.5056 11.2424 14.0089 11.0437 14.3107 12.1185C14.6126 13.1933 13.2507 14.6267 11.8952 14.6352V14.6352ZM13.5672 10.6956C13.3353 10.6956 12.9323 10.5924 12.9323 10.337C12.9323 9.60467 12.8237 9.64441 12.0728 10.5357C11.78 10.8423 11.532 11.1909 11.3367 11.5707C11.1687 12.0856 10.9617 12.5861 10.7174 13.0675C10.0981 14.3732 9.95911 15.0733 10.2453 15.36C10.3309 15.4395 10.5158 15.3524 10.6631 15.1528C11.9789 14.1896 13.3961 16.3468 14.8205 12.5575C14.8371 11.5783 14.2344 10.6956 13.5672 10.6956V10.6956ZM11.8952 14.6352C11.1213 14.6352 10.9198 14.412 11.044 13.973C11.3771 12.8669 12.3056 11.426 12.7317 11.3541C13.5056 11.2424 14.0089 11.0437 14.3107 12.1185C14.6126 13.1933 13.2507 14.6267 11.8952 14.6352V14.6352ZM5.96545 19.7614C5.69491 19.4908 5.3848 19.3233 5.26058 19.4113C4.86601 19.9833 4.62828 20.6539 4.57227 21.3528C4.57227 21.7747 4.78943 21.8542 5.09126 21.56C5.30546 21.4164 5.54938 21.3263 5.80349 21.297C6.51573 21.1853 6.5967 20.3981 5.96545 19.7614ZM5.96545 19.7614C5.69491 19.4908 5.3848 19.3233 5.26058 19.4113C4.86601 19.9833 4.62828 20.6539 4.57227 21.3528C4.57227 21.7747 4.78943 21.8542 5.09126 21.56C5.30546 21.4164 5.54938 21.3263 5.80349 21.297C6.51573 21.1853 6.5967 20.3981 5.96545 19.7614ZM13.5672 10.6956C13.3353 10.6956 12.9323 10.5924 12.9323 10.337C12.9323 9.60467 12.8237 9.64441 12.0728 10.5357C11.78 10.8423 11.532 11.1909 11.3367 11.5707C11.1687 12.0856 10.9617 12.5861 10.7174 13.0675C10.0981 14.3732 9.95911 15.0733 10.2453 15.36C10.3309 15.4395 10.5158 15.3524 10.6631 15.1528C11.9789 14.1896 13.3961 16.3468 14.8205 12.5575C14.8371 11.5783 14.2344 10.6956 13.5672 10.6956V10.6956ZM11.8952 14.6352C11.1213 14.6352 10.9198 14.412 11.044 13.973C11.3771 12.8669 12.3056 11.426 12.7317 11.3541C13.5056 11.2424 14.0089 11.0437 14.3107 12.1185C14.6126 13.1933 13.2507 14.6267 11.8952 14.6352V14.6352ZM13.5672 10.6956C13.3353 10.6956 12.9323 10.5924 12.9323 10.337C12.9323 9.60467 12.8237 9.64441 12.0728 10.5357C11.78 10.8423 11.532 11.1909 11.3367 11.5707C11.1687 12.0856 10.9617 12.5861 10.7174 13.0675C10.0981 14.3732 9.95911 15.0733 10.2453 15.36C10.3309 15.4395 10.5158 15.3524 10.6631 15.1528C11.9789 14.1896 13.3961 16.3468 14.8205 12.5575C14.8371 11.5783 14.2344 10.6956 13.5672 10.6956V10.6956ZM11.8952 14.6352C11.1213 14.6352 10.9198 14.412 11.044 13.973C11.3771 12.8669 12.3056 11.426 12.7317 11.3541C13.5056 11.2424 14.0089 11.0437 14.3107 12.1185C14.6126 13.1933 13.2507 14.6267 11.8952 14.6352V14.6352ZM5.96545 19.7614C5.69491 19.4908 5.3848 19.3233 5.26058 19.4113C4.86601 19.9833 4.62828 20.6539 4.57227 21.3528C4.57227 21.7747 4.78943 21.8542 5.09126 21.56C5.30546 21.4164 5.54938 21.3263 5.80349 21.297C6.51573 21.1853 6.5967 20.3981 5.96545 19.7614ZM13.5672 10.6956C13.3353 10.6956 12.9323 10.5924 12.9323 10.337C12.9323 9.60467 12.8237 9.64441 12.0728 10.5357C11.78 10.8423 11.532 11.1909 11.3367 11.5707C11.1687 12.0856 10.9617 12.5861 10.7174 13.0675C10.0981 14.3732 9.95911 15.0733 10.2453 15.36C10.3309 15.4395 10.5158 15.3524 10.6631 15.1528C11.9789 14.1896 13.3961 16.3468 14.8205 12.5575C14.8371 11.5783 14.2344 10.6956 13.5672 10.6956V10.6956ZM11.8952 14.6352C11.1213 14.6352 10.9198 14.412 11.044 13.973C11.3771 12.8669 12.3056 11.426 12.7317 11.3541C13.5056 11.2424 14.0089 11.0437 14.3107 12.1185C14.6126 13.1933 13.2507 14.6267 11.8952 14.6352V14.6352ZM5.96545 19.7614C5.69491 19.4908 5.3848 19.3233 5.26058 19.4113C4.86601 19.9833 4.62828 20.6539 4.57227 21.3528C4.57227 21.7747 4.78943 21.8542 5.09126 21.56C5.30546 21.4164 5.54938 21.3263 5.80349 21.297C6.51573 21.1853 6.5967 20.3981 5.96545 19.7614ZM5.96545 19.7614C5.69491 19.4908 5.3848 19.3233 5.26058 19.4113C4.86601 19.9833 4.62828 20.6539 4.57227 21.3528C4.57227 21.7747 4.78943 21.8542 5.09126 21.56C5.30546 21.4164 5.54938 21.3263 5.80349 21.297C6.51573 21.1853 6.5967 20.3981 5.96545 19.7614ZM13.5672 10.6956C13.3353 10.6956 12.9323 10.5924 12.9323 10.337C12.9323 9.60467 12.8237 9.64441 12.0728 10.5357C11.78 10.8423 11.532 11.1909 11.3367 11.5707C11.1687 12.0856 10.9617 12.5861 10.7174 13.0675C10.0981 14.3732 9.95911 15.0733 10.2453 15.36C10.3309 15.4395 10.5158 15.3524 10.6631 15.1528C11.9789 14.1896 13.3961 16.3468 14.8205 12.5575C14.8371 11.5783 14.2344 10.6956 13.5672 10.6956V10.6956ZM11.8952 14.6352C11.1213 14.6352 10.9198 14.412 11.044 13.973C11.3771 12.8669 12.3056 11.426 12.7317 11.3541C13.5056 11.2424 14.0089 11.0437 14.3107 12.1185C14.6126 13.1933 13.2507 14.6267 11.8952 14.6352V14.6352Z" fill="#171717"/>
<path d="M11.8935 14.6343C11.1196 14.6343 10.9181 14.411 11.0423 13.972C11.3754 12.866 12.3039 11.425 12.7299 11.3531C13.5038 11.2414 14.0072 11.0428 14.309 12.1176C14.6108 13.1924 13.2508 14.6267 11.8935 14.6343Z" fill="white"/>
<path d="M26.4182 14.4441V13.0912L25.567 13.147C24.7774 13.1943 24.6919 13.1546 24.4913 12.55C24.3737 12.2081 24.2983 11.8524 24.2667 11.4913C24.1931 11.1105 24.019 10.758 23.7634 10.4723C23.4453 10.0551 23.2045 9.58146 23.053 9.07484C22.7098 7.97891 22.1057 6.98857 21.2954 6.19387C19.9022 4.61005 19.547 1.90411 17.4011 1.17181C16.8748 1.17181 16.8978 0.893646 16.8978 2.33366C16.8978 3.77367 16.6733 3.82192 16.2785 3.42455C16.0023 3.13184 15.7511 2.8153 15.5276 2.47842C15.2571 2.05644 14.7068 1.27683 14.2393 1.32414L14.2163 2.09618L13.9301 4.55612C13.8841 6.83251 14.0847 6.91199 12.583 7.98679C12.2729 8.23373 11.9637 8.48067 11.6536 8.73518C11.5533 8.82317 11.452 8.90265 11.3517 8.98969L11.3444 8.99726C7.25725 12.3408 4.14061 16.7731 2.33379 21.8117C2.07061 24.3984 4.60944 26.9378 7.08662 26.8337C7.58956 26.7487 8.07117 26.5622 8.50372 26.285C9.53343 25.5602 10.5282 27.6379 11.2128 28.3466C11.7079 28.9909 11.8008 28.8556 13.7369 28.7686C16.7947 28.0117 21.8807 24.3832 23.7312 21.5732C24.1348 20.8658 24.6267 20.2157 25.1943 19.6393C26.1817 20.7312 29.4833 16.537 26.4182 14.4441ZM17.1241 1.81234L17.1011 1.86816C17.1131 1.82842 17.1131 1.81234 17.1214 1.81234H17.1241ZM14.6083 3.72258L14.7473 2.47274L15.1963 3.42833C15.392 3.87637 15.653 4.29113 15.9702 4.6583C16.3963 5.36695 15.1108 6.12291 14.5899 6.53637C14.3958 6.53164 14.4031 5.52874 14.6046 3.72258H14.6083ZM8.20282 25.6501C6.21335 27.0031 3.69384 25.3076 2.70647 22.6414C2.64481 22.4664 2.58224 22.2828 2.52887 22.1002C5.83423 14.0695 9.80581 10.2405 16.4009 5.56848C16.404 5.97754 16.3195 6.38229 16.1533 6.75398C16.1178 6.82064 16.087 6.8899 16.0613 6.96119V6.96119C15.8598 7.46264 15.9371 7.78905 16.2702 7.78905C16.2962 7.79047 16.3222 7.78792 16.3475 7.78148C16.7579 7.66227 16.9916 6.52407 17.4315 2.83038C17.5171 2.10564 17.5474 1.97034 17.772 2.15389C17.826 2.19592 17.8776 2.2411 17.9266 2.28919C18.3543 2.89553 18.7496 3.52532 19.1109 4.17578C20.0212 5.35003 20.4712 6.83202 20.3725 8.33024C20.3725 9.72294 20.5896 10.3521 20.9375 9.99354C21.0584 9.63839 21.1161 9.26371 21.1077 8.88751C21.1307 8.21859 21.046 7.20056 21.2393 7.20056C21.3313 7.20056 21.4795 7.35194 21.6571 7.59036C22.2752 8.43694 22.7394 9.3915 23.0272 10.4079C23.0642 10.7582 23.1987 11.09 23.4146 11.3635C23.7938 11.8366 23.7938 11.8489 23.3833 12.1838C23.3093 12.2489 23.2443 12.324 23.1901 12.4071C23.0424 12.6379 22.9544 12.9036 22.9343 13.1792C22.8883 14.2379 22.6868 14.1423 22.5855 13.0041C22.5744 12.6053 22.504 12.2106 22.3766 11.8338C21.9692 11.7049 21.548 11.6274 21.1224 11.6029C20.7111 11.5109 20.2839 11.5261 19.8797 11.6471C19.4756 11.768 19.1072 11.9909 18.8081 12.2955C16.8647 13.6409 16.5398 14.6116 17.5695 15.9854C17.8252 16.2903 18.0136 16.6486 18.1216 17.0356C18.1216 17.3194 17.4021 17.871 16.1708 18.5324C14.739 19.6942 14.22 21.8041 12.1376 22.1542C11.3094 22.4323 10.4269 22.7833 10.1711 22.9025C9.18651 23.6528 8.89941 24.7276 8.20282 25.6501ZM9.75888 25.7778L9.32546 25.1411L9.83617 24.2659C10.0278 23.9397 10.2852 23.6594 10.5908 23.4439C10.8965 23.2283 11.2435 23.0825 11.6085 23.0161C12.2972 22.8745 12.9622 22.6304 13.5823 22.2913C13.995 22.1446 14.3738 21.9118 14.6949 21.6075C15.0161 21.3032 15.2726 20.934 15.4485 20.523C16.2463 18.9392 17.7011 18.2069 18.6379 18.9231C19.0253 19.207 19.006 19.2259 18.4133 19.2335C17.6312 19.241 17.2907 19.5674 17.2907 20.3158C17.2907 20.77 17.1987 20.8968 16.8573 20.8968C16.5711 20.8968 16.3539 21.0954 16.1994 21.5013C16.1416 21.6739 16.0458 21.8305 15.9196 21.9588C15.7933 22.0871 15.64 22.1838 15.4715 22.2412C15.0309 22.391 14.6137 22.6054 14.2329 22.8779C13.8178 23.1604 13.3423 23.3351 12.8471 23.387C12.352 23.387 12.0189 23.5942 11.3609 24.318C10.4555 25.3133 10.2079 25.8223 10.9735 25.1137C11.4789 24.5738 12.1653 24.2521 12.8931 24.2139C13.2319 24.2 13.5586 24.0806 13.8298 23.8714C14.2783 23.5623 14.7689 23.3235 15.2856 23.1627C16.1138 22.8846 16.4312 22.6613 16.6558 22.1674C16.7142 21.9844 16.8212 21.8218 16.9648 21.6981C17.1084 21.5743 17.2828 21.4944 17.4683 21.4673C17.9284 21.4114 18.0103 21.2847 18.0646 20.6233C18.1262 19.8986 18.1805 19.8437 18.7612 19.8437C19.3731 19.8437 19.3878 19.8674 19.2802 20.6479C19.1886 21.2306 18.9077 21.7642 18.4833 22.1617C16.8186 23.6453 14.8218 24.5914 13.2069 26.0806C11.4585 27.2983 10.7343 27.2349 9.75888 25.7778V25.7778ZM19.513 24.6633C17.3376 26.1355 14.6129 28.9691 11.8339 28.4043C11.2459 28.1659 11.0757 27.847 11.4392 27.7912C11.4852 27.7843 11.5317 27.7817 11.5781 27.7836C13.2188 26.9879 17.3993 23.597 19.1412 22.2677C19.3999 22.102 19.6113 21.8689 19.754 21.5921C19.8967 21.3152 19.9656 21.0045 19.9538 20.6914C19.9538 19.5059 19.3345 18.2078 18.7851 18.2078C18.5606 18.2078 18.5146 18.1047 18.6149 17.8493C18.7742 17.5524 18.8542 17.2175 18.8468 16.8785C18.787 16.6213 18.6386 16.3951 18.429 16.2418C18.0969 15.8872 17.8982 15.4227 17.8684 14.9314C17.8386 14.4401 17.9795 13.9538 18.2661 13.5595C19.2106 12.9687 20.2569 12.5703 21.3479 12.3863C21.7969 12.3863 22.0675 13.1508 21.8742 13.9143C21.7739 14.3363 21.8972 14.4877 22.7107 14.973C23.19 15.2492 23.6434 15.5704 24.0652 15.9324C26.1237 19.2193 22.0831 22.825 19.513 24.6633ZM25.0093 15.4461C24.8317 15.6769 24.9394 15.589 24.2511 15.2711C23.6318 15.2313 23.3843 14.8169 23.6392 13.8623C23.6704 13.7591 23.6935 13.673 23.7247 13.5917C23.9493 12.9625 24.1848 13.1375 24.6449 13.3845C24.8731 13.507 25.1115 13.6083 25.3572 13.6872C25.7906 13.8301 25.8449 14.7535 25.4345 15.0005C25.2798 15.1356 25.1375 15.2851 25.0093 15.447V15.4461ZM26.8497 17.802V17.818C26.8359 18.115 26.7216 18.3977 26.5265 18.6171C26.3314 18.8365 26.0678 18.9789 25.7814 19.0196C25.2293 19.0196 24.9302 18.5257 25.2477 18.1284C25.3846 17.8564 25.4412 17.5493 25.4105 17.2447C25.3934 16.9154 25.4567 16.5868 25.5946 16.2891C25.6082 16.2616 25.6236 16.235 25.6406 16.2096C26.2442 15.5256 26.7706 16.273 26.8635 17.1728C26.883 17.3826 26.879 17.594 26.8516 17.8029L26.8497 17.802Z" fill="#171717"/>
<path d="M19.2937 20.6602C19.2021 21.2429 18.9212 21.7765 18.4968 22.174C16.8321 23.6547 14.8353 24.6018 13.2176 26.0901C11.46 27.3002 10.733 27.2358 9.75763 25.7797L9.32422 25.143L9.83493 24.2678C10.0266 23.9416 10.2839 23.6613 10.5896 23.4458C10.8953 23.2302 11.2422 23.0843 11.6072 23.018C12.296 22.8764 12.9609 22.6323 13.5811 22.2932C13.9935 22.1465 14.3721 21.9138 14.693 21.6097C15.014 21.3056 15.2704 20.9366 15.4463 20.5259C16.2432 18.9421 17.6989 18.2097 18.6357 18.926C19.0231 19.2098 19.0038 19.2287 18.4112 19.2363C17.629 19.2439 17.2885 19.5703 17.2885 20.3187C17.2885 20.7728 17.1965 20.8996 16.8551 20.8996C16.5689 20.8996 16.3518 21.0983 16.1972 21.5042C16.1394 21.6768 16.0436 21.8333 15.9174 21.9616C15.7912 22.0899 15.6378 22.1866 15.4693 22.244C15.0288 22.3938 14.6116 22.6083 14.2307 22.8808C13.8156 23.1632 13.3401 23.3379 12.8449 23.3898C12.3498 23.3898 12.0167 23.597 11.3588 24.3208C10.4533 25.3161 10.2058 25.8251 10.9714 25.1165C11.4768 24.5767 12.1631 24.255 12.8909 24.2167C13.2297 24.2029 13.5564 24.0834 13.8277 23.8742C14.2761 23.5652 14.7667 23.3264 15.2834 23.1656C16.1116 22.8874 16.4291 22.6641 16.6536 22.1702C16.712 21.9872 16.8191 21.8247 16.9627 21.7009C17.1063 21.5772 17.2807 21.4972 17.4661 21.4701C17.9262 21.4143 18.0081 21.2866 18.0624 20.6262C18.1241 19.9014 18.1784 19.8466 18.759 19.8466C19.3866 19.857 19.4022 19.8806 19.2937 20.6602Z" fill="white"/>
<path d="M26.8583 17.1812C26.7981 17.1652 26.7424 17.1351 26.6954 17.0932C26.6025 16.9872 26.4926 16.8983 26.3706 16.8302C26.216 16.7507 26.1387 16.6873 25.9685 16.6069C25.8335 16.5179 25.7066 16.4166 25.5894 16.3042C25.6033 16.2766 25.6189 16.2501 25.6363 16.2247C26.2464 15.5416 26.7654 16.289 26.8583 17.1812Z" fill="#49BE7A"/>
<path d="M25.4338 15.009C25.2759 15.1377 25.1329 15.2847 25.0077 15.447C24.8762 15.3193 24.8375 15.1367 24.7216 15.009C24.5471 14.8184 24.3988 14.6041 24.2808 14.3722C24.2103 14.2253 24.1245 14.0867 24.025 13.9588C23.9168 13.8435 23.816 13.7212 23.7231 13.5926C23.9477 12.9634 24.1832 13.1394 24.6433 13.3854C24.8715 13.5079 25.1099 13.6092 25.3556 13.6882C25.7826 13.8386 25.8396 14.762 25.4338 15.009Z" fill="#49BE7A"/>
<path d="M23.3827 12.1753C23.3087 12.2403 23.2437 12.3155 23.1895 12.3986C23.1095 12.2886 23.0445 12.168 22.9962 12.04C22.9419 11.8252 22.8177 11.6814 22.7717 11.4827C22.7338 11.2896 22.6719 11.1024 22.5877 10.9254C22.5256 10.7086 22.4506 10.496 22.3631 10.2887C22.2159 10.0995 22.2315 9.93011 22.1386 9.73143C22.0541 9.56455 21.9816 9.39158 21.9214 9.21389C21.8995 9.0255 21.8632 8.83917 21.8129 8.65662C21.7595 8.49942 21.7231 8.33665 21.7043 8.17125C21.6691 7.9798 21.6534 7.78512 21.6573 7.59033C22.2755 8.4369 22.7398 9.39146 23.0275 10.4079C23.0645 10.7581 23.199 11.09 23.4149 11.3635C23.7931 11.8252 23.7931 11.8404 23.3827 12.1753Z" fill="#49BE7A"/>
<path d="M16.1619 6.75393C16.1263 6.82059 16.0956 6.88985 16.0699 6.96113V6.96113C16.056 6.9672 16.043 6.97515 16.0312 6.98478C15.8226 7.07958 15.6273 7.20273 15.4506 7.35093C15.2636 7.52972 15.0526 7.67982 14.8239 7.79656C14.5444 7.91022 14.275 8.04857 14.0187 8.21002C13.802 8.33486 13.5928 8.47292 13.3921 8.62348C13.2422 8.755 13.0687 8.85497 12.8814 8.91772C12.7182 8.99387 12.5604 9.08176 12.4093 9.18075C12.2472 9.28418 12.0762 9.37222 11.8986 9.44377C11.7684 9.52998 11.6576 9.64387 11.5738 9.77776C11.482 9.91659 11.4066 10.0662 11.3492 10.2234C11.2949 10.4382 11.156 10.4542 11.0548 10.669C10.9623 10.8291 10.8534 10.9784 10.7299 11.1146C10.6164 11.2815 10.4811 11.4314 10.3278 11.5603C10.1493 11.6985 9.97881 11.8473 9.81711 12.0059C9.66879 12.1299 9.544 12.281 9.44903 12.4515C9.27797 12.7159 9.0836 12.9636 8.86838 13.1914C8.43074 13.702 8.03696 14.2506 7.69145 14.831C7.38134 15.3722 6.94792 15.8898 6.63046 16.4707C6.41916 16.8899 6.17284 17.2894 5.8943 17.6647C5.62376 17.9911 5.42223 18.4368 5.12777 18.7395C4.9074 18.982 4.72152 19.2553 4.57565 19.5513C4.45971 19.7982 4.19653 20.0244 4.13395 20.2912C4.07556 20.4827 3.97798 20.6592 3.84777 20.8087C3.73568 21.012 3.6128 21.2087 3.47969 21.3981C3.362 21.5021 3.26241 21.6259 3.18523 21.7643C3.11529 21.9157 3.00119 22.0027 2.92941 22.1778C2.87512 22.3291 2.76654 22.5117 2.72789 22.6508C2.66624 22.4758 2.60366 22.2922 2.55029 22.1096C5.85565 14.0789 9.82723 10.2499 16.4223 5.57788C16.4194 5.98467 16.3306 6.38595 16.1619 6.75393V6.75393Z" fill="#49BE7A"/>
<path d="M17.7778 2.34498V3.24475C17.7778 3.49169 17.7318 3.79351 17.7318 3.97705C17.7318 4.26089 17.6315 4.52581 17.6315 4.76518V5.55331C17.6586 5.81528 17.6586 6.07947 17.6315 6.34144C17.5855 6.51647 17.6315 6.89019 17.5772 7.12956C17.5073 7.43233 17.4999 7.70292 17.1171 7.70292C16.8926 7.70292 16.4592 7.91012 16.3589 7.77482C16.7693 7.65561 17.003 6.51742 17.4429 2.82372C17.5285 2.09898 17.5588 1.96369 17.7834 2.14724L17.7778 2.34498Z" fill="#49BE7A"/>
</g>
<line x1="35.25" y1="4" x2="35.25" y2="26" stroke="#171717" stroke-width="0.5"/>
<path d="M47.54 18.9268V20H42.2695V18.9268H47.54ZM42.5361 10.0469V20H41.2168V10.0469H42.5361ZM46.8427 14.3262V15.3994H42.2695V14.3262H46.8427ZM47.4716 10.0469V11.127H42.2695V10.0469H47.4716ZM50.387 14.1826V20H49.1224V12.6035H50.3187L50.387 14.1826ZM50.0863 16.0215L49.5599 16.001C49.5644 15.4951 49.6396 15.028 49.7855 14.5996C49.9313 14.1667 50.1364 13.7907 50.4007 13.4717C50.665 13.1527 50.9795 12.9066 51.3441 12.7334C51.7132 12.5557 52.1211 12.4668 52.5677 12.4668C52.9323 12.4668 53.2604 12.5169 53.5521 12.6172C53.8437 12.7129 54.0921 12.8678 54.2972 13.082C54.5068 13.2962 54.6663 13.5742 54.7757 13.916C54.8851 14.2533 54.9398 14.6657 54.9398 15.1533V20H53.6683V15.1396C53.6683 14.7523 53.6113 14.4424 53.4974 14.21C53.3835 13.973 53.2171 13.8021 52.9984 13.6973C52.7796 13.5879 52.5107 13.5332 52.1917 13.5332C51.8773 13.5332 51.5902 13.5993 51.3304 13.7314C51.0752 13.8636 50.8542 14.0459 50.6673 14.2783C50.485 14.5107 50.3415 14.7773 50.2366 15.0781C50.1364 15.3743 50.0863 15.6888 50.0863 16.0215ZM60.0973 12.6035V13.5742H56.0983V12.6035H60.0973ZM57.4518 10.8057H58.7165V18.168C58.7165 18.4186 58.7552 18.6077 58.8327 18.7354C58.9102 18.863 59.0104 18.9473 59.1335 18.9883C59.2565 19.0293 59.3887 19.0498 59.53 19.0498C59.6348 19.0498 59.7442 19.0407 59.8581 19.0225C59.9766 18.9997 60.0654 18.9814 60.1247 18.9678L60.1315 20C60.0313 20.0319 59.8991 20.0615 59.735 20.0889C59.5755 20.1208 59.3818 20.1367 59.154 20.1367C58.8441 20.1367 58.5593 20.0752 58.2995 19.9521C58.0397 19.8291 57.8324 19.624 57.6774 19.3369C57.527 19.0452 57.4518 18.6533 57.4518 18.1611V10.8057ZM64.7901 20.1367C64.2751 20.1367 63.808 20.0501 63.3887 19.877C62.974 19.6992 62.6163 19.4508 62.3155 19.1318C62.0192 18.8128 61.7914 18.4346 61.6319 17.9971C61.4724 17.5596 61.3926 17.0811 61.3926 16.5615V16.2744C61.3926 15.6729 61.4815 15.1374 61.6592 14.668C61.837 14.194 62.0785 13.793 62.3838 13.4648C62.6892 13.1367 63.0355 12.8883 63.4229 12.7197C63.8103 12.5511 64.2113 12.4668 64.626 12.4668C65.1547 12.4668 65.6104 12.5579 65.9932 12.7402C66.3806 12.9225 66.6973 13.1777 66.9434 13.5059C67.1895 13.8294 67.3718 14.2122 67.4903 14.6543C67.6088 15.0918 67.668 15.5703 67.668 16.0898V16.6572H62.1446V15.625H66.4034V15.5293C66.3851 15.2012 66.3168 14.8822 66.1983 14.5723C66.0843 14.2624 65.9021 14.0072 65.6514 13.8066C65.4008 13.6061 65.059 13.5059 64.626 13.5059C64.3389 13.5059 64.0746 13.5674 63.833 13.6904C63.5915 13.8089 63.3842 13.9867 63.211 14.2236C63.0378 14.4606 62.9034 14.75 62.8077 15.0918C62.712 15.4336 62.6641 15.8278 62.6641 16.2744V16.5615C62.6641 16.9124 62.712 17.2428 62.8077 17.5527C62.9079 17.8581 63.0515 18.127 63.2383 18.3594C63.4297 18.5918 63.6599 18.7741 63.9288 18.9062C64.2022 19.0384 64.5121 19.1045 64.8584 19.1045C65.3051 19.1045 65.6833 19.0133 65.9932 18.8311C66.3031 18.6488 66.5743 18.4049 66.8067 18.0996L67.5723 18.708C67.4128 18.9495 67.21 19.1797 66.9639 19.3984C66.7178 19.6172 66.4148 19.7949 66.0547 19.9316C65.6993 20.0684 65.2777 20.1367 64.7901 20.1367ZM70.5492 13.7656V20H69.2846V12.6035H70.515L70.5492 13.7656ZM72.8598 12.5625L72.8529 13.7383C72.7481 13.7155 72.6479 13.7018 72.5521 13.6973C72.461 13.6882 72.3562 13.6836 72.2377 13.6836C71.946 13.6836 71.6885 13.7292 71.4652 13.8203C71.2419 13.9115 71.0528 14.0391 70.8979 14.2031C70.7429 14.3672 70.6199 14.5632 70.5287 14.791C70.4421 15.0143 70.3852 15.2604 70.3578 15.5293L70.0023 15.7344C70.0023 15.2878 70.0456 14.8685 70.1322 14.4766C70.2234 14.0846 70.3624 13.7383 70.5492 13.4375C70.7361 13.1322 70.973 12.8952 71.2602 12.7266C71.5518 12.5534 71.8982 12.4668 72.2992 12.4668C72.3904 12.4668 72.4952 12.4782 72.6137 12.501C72.7322 12.5192 72.8142 12.5397 72.8598 12.5625ZM75.4334 14.0254V22.8438H74.1619V12.6035H75.324L75.4334 14.0254ZM80.4168 16.2402V16.3838C80.4168 16.9215 80.353 17.4206 80.2254 17.8809C80.0977 18.3366 79.9109 18.7331 79.6648 19.0703C79.4233 19.4076 79.1248 19.6696 78.7693 19.8564C78.4138 20.0433 78.006 20.1367 77.5457 20.1367C77.0763 20.1367 76.6616 20.0592 76.3015 19.9043C75.9415 19.7493 75.6362 19.5238 75.3855 19.2275C75.1349 18.9313 74.9343 18.5758 74.7839 18.1611C74.6381 17.7464 74.5379 17.2793 74.4832 16.7598V15.9941C74.5379 15.4473 74.6404 14.9574 74.7908 14.5244C74.9412 14.0915 75.1394 13.7223 75.3855 13.417C75.6362 13.1071 75.9392 12.8724 76.2947 12.7129C76.6502 12.5488 77.0603 12.4668 77.5252 12.4668C77.99 12.4668 78.4024 12.5579 78.7625 12.7402C79.1225 12.918 79.4255 13.1732 79.6716 13.5059C79.9177 13.8385 80.1023 14.2373 80.2254 14.7021C80.353 15.1624 80.4168 15.6751 80.4168 16.2402ZM79.1453 16.3838V16.2402C79.1453 15.8711 79.1065 15.5247 79.0291 15.2012C78.9516 14.873 78.8308 14.5859 78.6668 14.3398C78.5073 14.0892 78.3022 13.8932 78.0515 13.752C77.8009 13.6061 77.5024 13.5332 77.156 13.5332C76.837 13.5332 76.559 13.5879 76.322 13.6973C76.0896 13.8066 75.8914 13.9548 75.7273 14.1416C75.5632 14.3239 75.4288 14.5335 75.324 14.7705C75.2237 15.0029 75.1485 15.2445 75.0984 15.4951V17.2656C75.1895 17.5846 75.3172 17.8854 75.4812 18.168C75.6453 18.446 75.864 18.6715 76.1375 18.8447C76.4109 19.0133 76.755 19.0977 77.1697 19.0977C77.5115 19.0977 77.8054 19.027 78.0515 18.8857C78.3022 18.7399 78.5073 18.5417 78.6668 18.291C78.8308 18.0404 78.9516 17.7533 79.0291 17.4297C79.1065 17.1016 79.1453 16.7529 79.1453 16.3838ZM83.4347 13.7656V20H82.17V12.6035H83.4005L83.4347 13.7656ZM85.7452 12.5625L85.7384 13.7383C85.6336 13.7155 85.5333 13.7018 85.4376 13.6973C85.3465 13.6882 85.2417 13.6836 85.1232 13.6836C84.8315 13.6836 84.574 13.7292 84.3507 13.8203C84.1274 13.9115 83.9383 14.0391 83.7833 14.2031C83.6284 14.3672 83.5053 14.5632 83.4142 14.791C83.3276 15.0143 83.2706 15.2604 83.2433 15.5293L82.8878 15.7344C82.8878 15.2878 82.9311 14.8685 83.0177 14.4766C83.1088 14.0846 83.2478 13.7383 83.4347 13.4375C83.6215 13.1322 83.8585 12.8952 84.1456 12.7266C84.4373 12.5534 84.7836 12.4668 85.1847 12.4668C85.2758 12.4668 85.3807 12.4782 85.4991 12.501C85.6176 12.5192 85.6997 12.5397 85.7452 12.5625ZM88.4282 12.6035V20H87.1567V12.6035H88.4282ZM87.061 10.6416C87.061 10.4365 87.1225 10.2633 87.2456 10.1221C87.3732 9.98079 87.56 9.91016 87.8061 9.91016C88.0477 9.91016 88.2322 9.98079 88.3598 10.1221C88.492 10.2633 88.5581 10.4365 88.5581 10.6416C88.5581 10.8376 88.492 11.0062 88.3598 11.1475C88.2322 11.2842 88.0477 11.3525 87.8061 11.3525C87.56 11.3525 87.3732 11.2842 87.2456 11.1475C87.1225 11.0062 87.061 10.8376 87.061 10.6416ZM94.9051 18.0381C94.9051 17.8558 94.8641 17.6872 94.7821 17.5322C94.7046 17.3727 94.5428 17.2292 94.2967 17.1016C94.0552 16.9694 93.6906 16.8555 93.203 16.7598C92.7928 16.6732 92.4214 16.5706 92.0887 16.4521C91.7606 16.3337 91.4803 16.1901 91.2479 16.0215C91.02 15.8529 90.8446 15.6546 90.7215 15.4268C90.5985 15.1989 90.537 14.9323 90.537 14.627C90.537 14.3353 90.6008 14.0596 90.7284 13.7998C90.8605 13.54 91.0451 13.3099 91.2821 13.1094C91.5236 12.9089 91.813 12.7516 92.1502 12.6377C92.4875 12.5238 92.8635 12.4668 93.2782 12.4668C93.8706 12.4668 94.3765 12.5716 94.7957 12.7812C95.215 12.9909 95.5363 13.2712 95.7596 13.6221C95.9829 13.9684 96.0946 14.3535 96.0946 14.7773H94.8299C94.8299 14.5723 94.7684 14.374 94.6454 14.1826C94.5269 13.9867 94.3514 13.8249 94.119 13.6973C93.8911 13.5697 93.6108 13.5059 93.2782 13.5059C92.9273 13.5059 92.6424 13.5605 92.4237 13.6699C92.2095 13.7747 92.0523 13.9092 91.952 14.0732C91.8563 14.2373 91.8084 14.4105 91.8084 14.5928C91.8084 14.7295 91.8312 14.8525 91.8768 14.9619C91.9269 15.0667 92.0135 15.1647 92.1366 15.2559C92.2596 15.3424 92.4328 15.4245 92.6561 15.502C92.8794 15.5794 93.1642 15.6569 93.5106 15.7344C94.1167 15.8711 94.6157 16.0352 95.0077 16.2266C95.3996 16.418 95.6912 16.6527 95.8827 16.9307C96.0741 17.2087 96.1698 17.5459 96.1698 17.9424C96.1698 18.266 96.1014 18.5622 95.9647 18.8311C95.8325 19.0999 95.6388 19.3324 95.3836 19.5283C95.133 19.7197 94.8322 19.8701 94.4813 19.9795C94.1349 20.0843 93.7453 20.1367 93.3123 20.1367C92.6607 20.1367 92.1092 20.0205 91.658 19.7881C91.2069 19.5557 90.8651 19.2549 90.6327 18.8857C90.4002 18.5166 90.284 18.127 90.284 17.7168H91.5555C91.5737 18.0632 91.674 18.3389 91.8563 18.5439C92.0386 18.7445 92.2619 18.888 92.5262 18.9746C92.7905 19.0566 93.0526 19.0977 93.3123 19.0977C93.6587 19.0977 93.9481 19.0521 94.1805 18.9609C94.4175 18.8698 94.5975 18.7445 94.7205 18.585C94.8436 18.4255 94.9051 18.2432 94.9051 18.0381ZM101.04 20.1367C100.525 20.1367 100.058 20.0501 99.6389 19.877C99.2242 19.6992 98.8664 19.4508 98.5656 19.1318C98.2694 18.8128 98.0415 18.4346 97.882 17.9971C97.7225 17.5596 97.6428 17.0811 97.6428 16.5615V16.2744C97.6428 15.6729 97.7316 15.1374 97.9094 14.668C98.0871 14.194 98.3286 13.793 98.634 13.4648C98.9393 13.1367 99.2857 12.8883 99.673 12.7197C100.06 12.5511 100.461 12.4668 100.876 12.4668C101.405 12.4668 101.861 12.5579 102.243 12.7402C102.631 12.9225 102.947 13.1777 103.194 13.5059C103.44 13.8294 103.622 14.2122 103.74 14.6543C103.859 15.0918 103.918 15.5703 103.918 16.0898V16.6572H98.3947V15.625H102.654V15.5293C102.635 15.2012 102.567 14.8822 102.448 14.5723C102.335 14.2624 102.152 14.0072 101.902 13.8066C101.651 13.6061 101.309 13.5059 100.876 13.5059C100.589 13.5059 100.325 13.5674 100.083 13.6904C99.8417 13.8089 99.6343 13.9867 99.4611 14.2236C99.288 14.4606 99.1535 14.75 99.0578 15.0918C98.9621 15.4336 98.9143 15.8278 98.9143 16.2744V16.5615C98.9143 16.9124 98.9621 17.2428 99.0578 17.5527C99.1581 17.8581 99.3016 18.127 99.4885 18.3594C99.6799 18.5918 99.91 18.7741 100.179 18.9062C100.452 19.0384 100.762 19.1045 101.109 19.1045C101.555 19.1045 101.933 19.0133 102.243 18.8311C102.553 18.6488 102.824 18.4049 103.057 18.0996L103.822 18.708C103.663 18.9495 103.46 19.1797 103.214 19.3984C102.968 19.6172 102.665 19.7949 102.305 19.9316C101.949 20.0684 101.528 20.1367 101.04 20.1367ZM112.032 20H109.954L109.968 18.9268H112.032C112.743 18.9268 113.336 18.7786 113.809 18.4824C114.283 18.1816 114.639 17.7624 114.876 17.2246C115.117 16.6823 115.238 16.0488 115.238 15.3242V14.7158C115.238 14.1462 115.17 13.6403 115.033 13.1982C114.896 12.7516 114.696 12.3757 114.432 12.0703C114.167 11.7604 113.844 11.5257 113.461 11.3662C113.083 11.2067 112.647 11.127 112.155 11.127H109.913V10.0469H112.155C112.807 10.0469 113.402 10.1562 113.939 10.375C114.477 10.5892 114.94 10.9014 115.327 11.3115C115.719 11.7171 116.02 12.2093 116.229 12.7881C116.439 13.3623 116.544 14.0094 116.544 14.7295V15.3242C116.544 16.0443 116.439 16.6937 116.229 17.2725C116.02 17.8467 115.717 18.3366 115.32 18.7422C114.928 19.1478 114.454 19.46 113.898 19.6787C113.347 19.8929 112.725 20 112.032 20ZM110.658 10.0469V20H109.339V10.0469H110.658ZM124.99 18.9268V20H119.719V18.9268H124.99ZM119.986 10.0469V20H118.666V10.0469H119.986ZM124.292 14.3262V15.3994H119.719V14.3262H124.292ZM124.921 10.0469V11.127H119.719V10.0469H124.921ZM132.772 16.835H134.085C134.016 17.4639 133.836 18.0267 133.545 18.5234C133.253 19.0202 132.84 19.4144 132.307 19.7061C131.774 19.9932 131.109 20.1367 130.311 20.1367C129.728 20.1367 129.197 20.0273 128.718 19.8086C128.244 19.5898 127.837 19.2799 127.495 18.8789C127.153 18.4733 126.889 17.988 126.702 17.4229C126.52 16.8532 126.428 16.2197 126.428 15.5225V14.5312C126.428 13.834 126.52 13.2028 126.702 12.6377C126.889 12.068 127.155 11.5804 127.502 11.1748C127.853 10.7692 128.274 10.457 128.766 10.2383C129.258 10.0195 129.812 9.91016 130.427 9.91016C131.179 9.91016 131.815 10.0514 132.335 10.334C132.854 10.6165 133.257 11.0085 133.545 11.5098C133.836 12.0065 134.016 12.583 134.085 13.2393H132.772C132.708 12.7744 132.59 12.3757 132.417 12.043C132.243 11.7057 131.997 11.446 131.678 11.2637C131.359 11.0814 130.942 10.9902 130.427 10.9902C129.985 10.9902 129.596 11.0745 129.258 11.2432C128.926 11.4118 128.645 11.651 128.418 11.9609C128.194 12.2708 128.026 12.6423 127.912 13.0752C127.798 13.5081 127.741 13.9889 127.741 14.5176V15.5225C127.741 16.0101 127.791 16.4681 127.891 16.8965C127.996 17.3249 128.153 17.7008 128.363 18.0244C128.573 18.348 128.839 18.6032 129.163 18.79C129.486 18.9723 129.869 19.0635 130.311 19.0635C130.872 19.0635 131.318 18.9746 131.651 18.7969C131.984 18.6191 132.234 18.3639 132.403 18.0312C132.576 17.6986 132.699 17.2998 132.772 16.835ZM139.707 10.9287L136.412 20H135.065L138.859 10.0469H139.728L139.707 10.9287ZM142.469 20L139.167 10.9287L139.146 10.0469H140.015L143.822 20H142.469ZM142.298 16.3154V17.3955H136.706V16.3154H142.298Z" fill="#ffffff"/>
<defs>
<clipPath id="clip0_4211_456">
<rect width="25.3846" height="27.6923" fill="white" transform="translate(2.30762 1.15387)"/>
</clipPath>
</defs>
</svg>
