<svg width="1384" height="180" viewBox="0 0 1384 180" fill="none" xmlns="http://www.w3.org/2000/svg">
<path fill-rule="evenodd" clip-rule="evenodd" d="M98.1939 0C96.406 8.64088 92.3057 25.4464 89.9139 35.0495C72.2984 45.8186 49.8959 68.9879 37.6355 84.437C23.7401 101.946 -4.94004 124.557 0.733101 137.597C7.24353 152.562 17.3653 160.535 31.8646 167.34C36.9914 148.526 72.9907 136.609 83.6696 129.023C86.0845 127.307 87.8793 125.731 88.959 122.832C90.0387 119.933 82.6431 111.242 85.4719 103.986C88.5471 96.098 98.4561 86.6078 108.707 86.6078C100.506 88.8956 92.989 98.4987 91.964 105.015C90.799 112.421 101.955 121.035 97.6169 128.283C96.6551 129.829 94.6452 132.169 92.5536 133.834C78.9551 144.658 44.8109 155.775 42.3787 168.474C48.0923 173.943 67.2514 183.003 73.3968 179.016C99.022 162.395 175.678 126.279 126.133 86.6078C145.267 89.0086 153.43 104.767 154.151 121.821C169.831 111.627 174.445 95.692 168.502 82.1434C160.229 63.2801 146.619 46.0245 126.133 35.0495C123.741 20.9878 114.174 6.92603 98.1939 0ZM18.1968 122.323C19.3615 122.035 20.5135 130.485 18.8426 132.03C17.386 133.377 11.7614 133.689 10.6796 132.626C9.59018 131.555 16.0031 122.865 18.1968 122.323ZM75.5934 66.6896C78.466 65.6349 81.7687 69.7567 82.3967 72.7761C83.1221 76.2642 79.5829 80.6014 78.2964 82.0362C77.3739 83.0651 71.121 92.3253 59.5341 86.6078C56.4283 85.0753 68.3874 69.3354 75.5934 66.6896Z" fill="white"/>
<path d="M60.8703 9.32681C66.1394 11.6322 79.5422 19.931 83.2769 30.4449C74.7108 36.0526 65.3834 44.0315 56.6673 52.4733C58.5986 37.7733 60.1384 17.8269 60.8703 9.32681Z" fill="white"/>
<path d="M259.776 44.016C287.68 44.016 297.664 54.384 297.664 89.84C297.664 125.296 287.68 135.664 259.776 135.664C231.872 135.664 222.016 125.296 222.016 89.84C222.016 54.384 231.872 44.016 259.776 44.016ZM259.776 59.76C246.464 59.76 242.496 66.416 242.496 89.84C242.496 113.264 246.464 119.92 259.776 119.92C273.088 119.92 277.056 113.264 277.056 89.84C277.056 66.416 273.088 59.76 259.776 59.76ZM312.46 134V45.68C323.084 44.656 330.124 44.528 345.996 44.528C370.444 44.528 378.252 50.8 378.252 73.328C378.252 96.112 370.444 102.256 348.556 102.256C342.796 102.256 337.036 101.872 331.916 101.232V134H312.46ZM331.916 87.28H345.612C355.596 87.152 358.668 84.336 358.668 73.328C358.668 62.32 355.596 59.504 345.612 59.504L331.916 59.632V87.28ZM449.837 118.768L450.733 133.104C438.701 134.384 423.469 134.384 409.773 134.384C397.997 134.384 390.445 127.472 390.317 116.592V63.088C390.445 52.208 397.997 45.296 409.773 45.296C423.469 45.296 438.701 45.296 450.733 46.576L449.837 61.04H415.917C411.693 61.04 409.901 62.96 409.901 67.568V81.008H445.101V95.088H409.901V112.112C409.901 116.848 411.693 118.768 415.917 118.768H449.837ZM539.331 45.68V126.96C539.331 131.568 537.027 134 532.419 134H520.259C516.163 134 514.371 132.08 512.451 128.24L489.283 81.136C487.491 77.296 484.931 71.792 483.907 67.44H482.499C483.139 72.048 483.395 76.912 483.395 81.52V134H464.835V52.72C464.835 48.112 467.267 45.68 471.875 45.68H483.779C487.875 45.68 489.667 47.6 491.587 51.44L513.987 97.136C515.907 100.976 518.339 106.352 520.387 111.344H521.667C521.283 106.352 520.899 101.488 520.899 96.496V45.68H539.331ZM628.762 45.68L604.826 128.624C604.058 131.824 601.37 134 597.914 134H580.122C576.666 134 573.978 131.824 573.21 128.624L549.146 45.68H569.242L585.242 109.424C586.01 112.624 586.778 116.08 587.418 119.28H590.618C591.13 116.08 592.026 112.624 592.794 109.424L608.666 45.68H628.762ZM679.272 110.832H648.936L642.536 134H622.568L648.04 50.8C648.808 47.6 651.624 45.68 654.824 45.68H673.256C676.584 45.68 679.272 47.6 680.04 50.8L705.512 134H685.672L679.272 110.832ZM675.048 95.728L667.624 68.72C666.984 66.032 666.216 63.088 665.832 60.4H662.376C661.736 63.088 661.096 66.032 660.456 68.72L653.032 95.728H675.048ZM747.29 100.592L729.498 94.32C716.058 89.456 711.194 81.52 711.194 68.464C711.194 48.24 720.538 44.016 743.322 44.016C752.026 44.016 762.522 44.656 772.378 47.472L771.098 60.784C763.674 60.528 752.794 60.4 743.45 60.4C733.978 60.4 730.65 60.912 730.65 68.464C730.65 74.608 733.21 76.272 739.866 78.448L756.634 84.208C770.714 89.2 775.322 97.264 775.322 110.192C775.322 130.288 766.618 135.664 742.554 135.664C736.922 135.664 725.786 135.28 712.218 132.336L713.37 118.256C729.754 118.64 736.922 118.896 742.554 118.896C752.794 118.896 755.61 117.488 755.61 110.32C755.61 104.048 753.178 102.512 747.29 100.592Z" fill="white"/>
<path d="M856.33 95.48L837.22 91.45C824.35 88.85 819.67 81.18 819.67 67.14C819.67 46.08 828.64 43.61 848.01 43.87C856.33 43.87 865.3 44.39 873.88 45.95L873.23 52.19C865.56 51.8 856.59 51.41 848.4 51.41C834.1 51.41 828.25 51.93 828.25 67.4C828.25 78.45 831.89 82.22 840.6 83.91L859.32 87.81C872.97 90.54 877.52 97.95 877.52 112.38C877.52 133.31 868.16 136.43 848.4 136.43C842.03 136.43 832.8 136.3 821.1 134.48L821.62 128.11C835.01 128.76 840.47 128.89 848.66 128.89C863.74 128.76 868.81 126.55 868.81 112.25C868.81 100.55 865.17 97.17 856.33 95.48ZM952.347 127.46L953.387 133.83C946.107 135.78 939.217 136.56 927.647 136.56C902.297 136.56 893.327 124.34 893.327 90.15C893.327 55.96 902.297 43.74 927.647 43.74C938.697 43.74 944.417 44.39 951.567 46.21L950.527 52.58C942.857 51.67 937.917 51.41 927.647 51.41C908.667 51.41 902.167 61.03 902.167 90.15C902.167 119.27 908.667 128.89 927.647 128.89C938.567 128.89 945.197 128.5 952.347 127.46ZM1017.92 105.36H978.787L968.907 135H960.067L990.097 47.77C990.617 46.21 991.917 45.3 993.477 45.3H1003.23C1004.79 45.3 1006.09 46.21 1006.61 47.77L1036.64 135H1027.8L1017.92 105.36ZM1015.45 97.95L1002.58 59.34C1001.8 56.87 1000.89 54.4 1000.24 52.06H996.597L994.127 59.34L981.257 97.95H1015.45ZM1117.14 45.3V131.36C1117.14 133.83 1115.97 135 1113.63 135H1104.53C1102.45 135 1101.28 134.09 1100.37 132.14L1066.18 64.02C1064.62 60.77 1062.28 56.61 1061.11 53.23H1058.64C1058.9 56.74 1058.9 60.38 1058.9 64.02V135H1050.45V48.94C1050.45 46.47 1051.62 45.3 1053.96 45.3H1062.8C1064.88 45.3 1066.05 46.21 1066.96 48.16L1100.37 114.72C1102.19 118.36 1104.4 122.78 1106.35 126.81H1109.08C1108.82 122.52 1108.69 118.23 1108.69 113.94V45.3H1117.14ZM1231.38 110.82L1220.2 111.73V135H1212.01V111.73H1172.88C1166.25 111.73 1162.35 105.23 1165.21 99.25L1191.99 45.3H1200.44L1173.92 99.12C1172.23 102.37 1174.05 104.71 1177.3 104.71H1212.01V77.28L1213.7 62.33H1220.2V104.71H1231.38V110.82ZM1295.41 52.58H1256.8L1255.37 80.53L1264.21 81.05C1288.52 82.35 1298.53 87.81 1298.4 108.35C1298.4 122.52 1294.63 136.56 1270.06 136.56C1263.17 136.56 1253.81 135.39 1244.45 133.18L1245.49 126.42C1253.55 127.98 1262.26 129.02 1268.24 129.02C1286.7 129.02 1289.95 121.22 1290.08 108.35C1290.34 89.76 1280.85 88.85 1255.63 87.94L1251.21 87.55C1249.13 87.55 1247.7 85.86 1247.83 83.65L1249.78 45.3H1295.8L1295.41 52.58ZM1345.1 43.74C1367.33 43.74 1375 57.78 1375 90.15C1375 122.52 1367.33 136.56 1345.1 136.56C1322.87 136.56 1315.33 122.52 1315.33 90.15C1315.33 57.78 1322.87 43.74 1345.1 43.74ZM1345.1 51.15C1328.98 51.15 1323.65 62.59 1323.65 90.15C1323.65 117.71 1328.98 129.15 1345.1 129.15C1361.35 129.15 1366.55 117.71 1366.55 90.15C1366.55 62.59 1361.35 51.15 1345.1 51.15Z" fill="white"/>
</svg>
