<svg xmlns="http://www.w3.org/2000/svg" viewBox="0 0 128.87 136.72"><defs><style>.cls-1{fill:#11ab51;}.cls-2{fill:#87d050;}.cls-3{fill:#171717;}.cls-4{fill:#fff;}.cls-5{fill:#49be7a;}</style></defs><g id="Layer_2" data-name="Layer 2"><g id="Layer_1-2" data-name="Layer 1"><path class="cls-1" d="M124.59,82.2h0v.07h0c-.44,3-2.09,5.55-5.43,5.94-2.79,0-4.32-2.44-2.71-4.4a7.86,7.86,0,0,0,.83-4.36,9.62,9.62,0,0,1,.94-4.72,2.55,2.55,0,0,1,.24-.39c3.06-3.38,5.73.31,6.2,4.75A14.07,14.07,0,0,1,124.59,82.2Z"/><path class="cls-1" d="M117.39,68.4a13.79,13.79,0,0,0-2.16,2.16c-.9,1.14-.35.71-3.85-.86-3.14-.2-4.4-2.24-3.1-7,.15-.51.27-.94.43-1.33,1.14-3.11,2.32-2.24,4.68-1A21.18,21.18,0,0,0,117,61.88C119.16,62.63,119.44,67.19,117.39,68.4Z"/><path class="cls-1" d="M87.33,116.07c-11,7.27-24.87,21.26-39,18.47-3-1.18-3.85-2.75-2-3a4.09,4.09,0,0,1,.7,0c8.34-3.93,29.56-20.67,38.4-27.23,2.39-2.24,4.12-3.34,4.12-7.78,0-5.85-3.14-12.26-5.93-12.26-1.14,0-1.38-.51-.87-1.77,1-2.28,1.38-3.65,1.18-4.79a5.39,5.39,0,0,0-2.12-3.15C78.37,71.35,77.94,64,81,61.25c2.2-2,12.57-5.81,15.64-5.81,2.28,0,3.65,3.77,2.67,7.54-.51,2.08.12,2.83,4.24,5.23A45.36,45.36,0,0,1,110.44,73C120.89,89.19,100.38,107,87.33,116.07Z"/><path class="cls-1" d="M107,54.41a5.5,5.5,0,0,0-1,1.1,8,8,0,0,0-1.3,3.82c-.23,5.22-1.26,4.75-1.77-.87-.23-2.87-.74-5.46-1.06-5.77s-3.18-.83-6.36-1.14C90,51,89.34,51.19,83.76,55c-9.87,6.61-11.52,11.4-6.29,18.2,1.53,2,2.79,4.32,2.79,5.18,0,1.42-3.65,4.13-9.9,7.39-7.27,5.74-9.91,16.15-20.48,17.88-4.2,1.38-8.68,3.11-10,3.7-5,3.73-6.44,9-10,13.59C19.82,127.62,7,119.25,2,106.09c-.31-.87-.63-1.77-.9-2.67,16.8-39.65,37-58.55,70.44-81.62.31,0-.36,4.12-1.26,5.85a5.36,5.36,0,0,0-.47,1h0c-1,2.47-.63,4.08,1.06,4.08a1.28,1.28,0,0,0,.39,0c2.08-.59,3.26-6.21,5.5-24.44.43-3.58.59-4.24,1.73-3.34a10,10,0,0,1,.79.67c2.63,2.67,3.65,6.33,6,9.31,5.27,7.9,6.4,11.48,6.4,20.51,0,6.88,1.11,10,2.87,8.22.36-.32.75-2.79.87-5.47.12-3.3-.32-8.33.67-8.33.47,0,1.21.75,2.12,1.93,2.83,3.73,7,11.71,7,13.91a9.07,9.07,0,0,0,2,4.72C109.06,52.69,109.06,52.76,107,54.41Z"/><path class="cls-1" d="M62.34,26.55c-1,0-.94-4.95.08-13.87l.71-6.17,2.28,4.72a23.35,23.35,0,0,0,3.93,6.09C71.46,20.82,65,24.55,62.34,26.55Z"/><path class="cls-2" d="M47.41,37.48c-.51.43-1,.82-1.53,1.25.43-.39.74-.7,1.29-1.13Z"/><path class="cls-3" d="M18.56,91.86c-1.37-1.33-2.94-2.16-3.57-1.73-1.26.83-3.5,6.92-3.5,9.59,0,2.09,1.1,2.48,2.63,1a8.17,8.17,0,0,1,3.62-1.29C21.35,98.9,21.79,95,18.56,91.86ZM57.15,47.11c-1.18,0-3.22-.52-3.22-1.77,0-3.62-.55-3.42-4.36,1-2.08,2.36-3.73,4.68-3.73,5.11a52.25,52.25,0,0,1-3.15,7.39c-3.14,6.44-3.85,9.9-2.39,11.31.43.4,1.37,0,2.12-1C49.1,64.36,56.29,75,63.52,56.3,63.6,51.47,60.53,47.11,57.15,47.11ZM48.67,66.56c-3.93,0-5-1.1-4.33-3.27,1.69-5.46,6.41-12.57,8.57-12.92,3.93-.55,6.48-1.54,8,3.77S55.54,66.52,48.67,66.56Zm8.48-19.45c-1.18,0-3.22-.52-3.22-1.77,0-3.62-.55-3.42-4.36,1-2.08,2.36-3.73,4.68-3.73,5.11a52.25,52.25,0,0,1-3.15,7.39c-3.14,6.44-3.85,9.9-2.39,11.31.43.4,1.37,0,2.12-1C49.1,64.36,56.29,75,63.52,56.3,63.6,51.47,60.53,47.11,57.15,47.11ZM48.67,66.56c-3.93,0-5-1.1-4.33-3.27,1.69-5.46,6.41-12.57,8.57-12.92,3.93-.55,6.48-1.54,8,3.77S55.54,66.52,48.67,66.56ZM18.56,91.86c-1.37-1.33-2.94-2.16-3.57-1.73-1.26.83-3.5,6.92-3.5,9.59,0,2.09,1.1,2.48,2.63,1a8.17,8.17,0,0,1,3.62-1.29C21.35,98.9,21.79,95,18.56,91.86Zm0,0c-1.37-1.33-2.94-2.16-3.57-1.73-1.26.83-3.5,6.92-3.5,9.59,0,2.09,1.1,2.48,2.63,1a8.17,8.17,0,0,1,3.62-1.29C21.35,98.9,21.79,95,18.56,91.86ZM57.15,47.11c-1.18,0-3.22-.52-3.22-1.77,0-3.62-.55-3.42-4.36,1-2.08,2.36-3.73,4.68-3.73,5.11a52.25,52.25,0,0,1-3.15,7.39c-3.14,6.44-3.85,9.9-2.39,11.31.43.4,1.37,0,2.12-1C49.1,64.36,56.29,75,63.52,56.3,63.6,51.47,60.53,47.11,57.15,47.11ZM48.67,66.56c-3.93,0-5-1.1-4.33-3.27,1.69-5.46,6.41-12.57,8.57-12.92,3.93-.55,6.48-1.54,8,3.77S55.54,66.52,48.67,66.56Zm8.48-19.45c-1.18,0-3.22-.52-3.22-1.77,0-3.62-.55-3.42-4.36,1-2.08,2.36-3.73,4.68-3.73,5.11a52.25,52.25,0,0,1-3.15,7.39c-3.14,6.44-3.85,9.9-2.39,11.31.43.4,1.37,0,2.12-1C49.1,64.36,56.29,75,63.52,56.3,63.6,51.47,60.53,47.11,57.15,47.11ZM48.67,66.56c-3.93,0-5-1.1-4.33-3.27,1.69-5.46,6.41-12.57,8.57-12.92,3.93-.55,6.48-1.54,8,3.77S55.54,66.52,48.67,66.56ZM18.56,91.86c-1.37-1.33-2.94-2.16-3.57-1.73-1.26.83-3.5,6.92-3.5,9.59,0,2.09,1.1,2.48,2.63,1a8.17,8.17,0,0,1,3.62-1.29C21.35,98.9,21.79,95,18.56,91.86Zm0,0c-1.37-1.33-2.94-2.16-3.57-1.73-1.26.83-3.5,6.92-3.5,9.59,0,2.09,1.1,2.48,2.63,1a8.17,8.17,0,0,1,3.62-1.29C21.35,98.9,21.79,95,18.56,91.86ZM57.15,47.11c-1.18,0-3.22-.52-3.22-1.77,0-3.62-.55-3.42-4.36,1-2.08,2.36-3.73,4.68-3.73,5.11a52.25,52.25,0,0,1-3.15,7.39c-3.14,6.44-3.85,9.9-2.39,11.31.43.4,1.37,0,2.12-1C49.1,64.36,56.29,75,63.52,56.3,63.6,51.47,60.53,47.11,57.15,47.11ZM48.67,66.56c-3.93,0-5-1.1-4.33-3.27,1.69-5.46,6.41-12.57,8.57-12.92,3.93-.55,6.48-1.54,8,3.77S55.54,66.52,48.67,66.56Zm8.48-19.45c-1.18,0-3.22-.52-3.22-1.77,0-3.62-.55-3.42-4.36,1-2.08,2.36-3.73,4.68-3.73,5.11a52.25,52.25,0,0,1-3.15,7.39c-3.14,6.44-3.85,9.9-2.39,11.31.43.4,1.37,0,2.12-1C49.1,64.36,56.29,75,63.52,56.3,63.6,51.47,60.53,47.11,57.15,47.11ZM48.67,66.56c-3.93,0-5-1.1-4.33-3.27,1.69-5.46,6.41-12.57,8.57-12.92,3.93-.55,6.48-1.54,8,3.77S55.54,66.52,48.67,66.56ZM18.56,91.86c-1.37-1.33-2.94-2.16-3.57-1.73-1.26.83-3.5,6.92-3.5,9.59,0,2.09,1.1,2.48,2.63,1a8.17,8.17,0,0,1,3.62-1.29C21.35,98.9,21.79,95,18.56,91.86Zm0,0c-1.37-1.33-2.94-2.16-3.57-1.73-1.26.83-3.5,6.92-3.5,9.59,0,2.09,1.1,2.48,2.63,1a8.17,8.17,0,0,1,3.62-1.29C21.35,98.9,21.79,95,18.56,91.86ZM57.15,47.11c-1.18,0-3.22-.52-3.22-1.77,0-3.62-.55-3.42-4.36,1-2.08,2.36-3.73,4.68-3.73,5.11a52.25,52.25,0,0,1-3.15,7.39c-3.14,6.44-3.85,9.9-2.39,11.31.43.4,1.37,0,2.12-1C49.1,64.36,56.29,75,63.52,56.3,63.6,51.47,60.53,47.11,57.15,47.11ZM48.67,66.56c-3.93,0-5-1.1-4.33-3.27,1.69-5.46,6.41-12.57,8.57-12.92,3.93-.55,6.48-1.54,8,3.77S55.54,66.52,48.67,66.56Zm8.48-19.45c-1.18,0-3.22-.52-3.22-1.77,0-3.62-.55-3.42-4.36,1-2.08,2.36-3.73,4.68-3.73,5.11a52.25,52.25,0,0,1-3.15,7.39c-3.14,6.44-3.85,9.9-2.39,11.31.43.4,1.37,0,2.12-1C49.1,64.36,56.29,75,63.52,56.3,63.6,51.47,60.53,47.11,57.15,47.11ZM48.67,66.56c-3.93,0-5-1.1-4.33-3.27,1.69-5.46,6.41-12.57,8.57-12.92,3.93-.55,6.48-1.54,8,3.77S55.54,66.52,48.67,66.56ZM18.56,91.86c-1.37-1.33-2.94-2.16-3.57-1.73-1.26.83-3.5,6.92-3.5,9.59,0,2.09,1.1,2.48,2.63,1a8.17,8.17,0,0,1,3.62-1.29C21.35,98.9,21.79,95,18.56,91.86Zm0,0c-1.37-1.33-2.94-2.16-3.57-1.73-1.26.83-3.5,6.92-3.5,9.59,0,2.09,1.1,2.48,2.63,1a8.17,8.17,0,0,1,3.62-1.29C21.35,98.9,21.79,95,18.56,91.86ZM57.15,47.11c-1.18,0-3.22-.52-3.22-1.77,0-3.62-.55-3.42-4.36,1-2.08,2.36-3.73,4.68-3.73,5.11a52.25,52.25,0,0,1-3.15,7.39c-3.14,6.44-3.85,9.9-2.39,11.31.43.4,1.37,0,2.12-1C49.1,64.36,56.29,75,63.52,56.3,63.6,51.47,60.53,47.11,57.15,47.11ZM48.67,66.56c-3.93,0-5-1.1-4.33-3.27,1.69-5.46,6.41-12.57,8.57-12.92,3.93-.55,6.48-1.54,8,3.77S55.54,66.52,48.67,66.56Zm8.48-19.45c-1.18,0-3.22-.52-3.22-1.77,0-3.62-.55-3.42-4.36,1-2.08,2.36-3.73,4.68-3.73,5.11a52.25,52.25,0,0,1-3.15,7.39c-3.14,6.44-3.85,9.9-2.39,11.31.43.4,1.37,0,2.12-1C49.1,64.36,56.29,75,63.52,56.3,63.6,51.47,60.53,47.11,57.15,47.11ZM48.67,66.56c-3.93,0-5-1.1-4.33-3.27,1.69-5.46,6.41-12.57,8.57-12.92,3.93-.55,6.48-1.54,8,3.77S55.54,66.52,48.67,66.56ZM18.56,91.86c-1.37-1.33-2.94-2.16-3.57-1.73-1.26.83-3.5,6.92-3.5,9.59,0,2.09,1.1,2.48,2.63,1a8.17,8.17,0,0,1,3.62-1.29C21.35,98.9,21.79,95,18.56,91.86Zm0,0c-1.37-1.33-2.94-2.16-3.57-1.73-1.26.83-3.5,6.92-3.5,9.59,0,2.09,1.1,2.48,2.63,1a8.17,8.17,0,0,1,3.62-1.29C21.35,98.9,21.79,95,18.56,91.86ZM57.15,47.11c-1.18,0-3.22-.52-3.22-1.77,0-3.62-.55-3.42-4.36,1-2.08,2.36-3.73,4.68-3.73,5.11a52.25,52.25,0,0,1-3.15,7.39c-3.14,6.44-3.85,9.9-2.39,11.31.43.4,1.37,0,2.12-1C49.1,64.36,56.29,75,63.52,56.3,63.6,51.47,60.53,47.11,57.15,47.11ZM48.67,66.56c-3.93,0-5-1.1-4.33-3.27,1.69-5.46,6.41-12.57,8.57-12.92,3.93-.55,6.48-1.54,8,3.77S55.54,66.52,48.67,66.56Zm26.4-63,.12-.28a1.18,1.18,0,0,0-.12.29ZM18.56,91.86c-1.37-1.33-2.94-2.16-3.57-1.73-1.26.83-3.5,6.92-3.5,9.59,0,2.09,1.1,2.48,2.63,1a8.17,8.17,0,0,1,3.62-1.29C21.35,98.9,21.79,95,18.56,91.86ZM57.15,47.11c-1.18,0-3.22-.52-3.22-1.77,0-3.62-.55-3.42-4.36,1-2.08,2.36-3.73,4.68-3.73,5.11a52.25,52.25,0,0,1-3.15,7.39c-3.14,6.44-3.85,9.9-2.39,11.31.43.4,1.37,0,2.12-1C49.1,64.36,56.29,75,63.52,56.3,63.6,51.47,60.53,47.11,57.15,47.11ZM48.67,66.56c-3.93,0-5-1.1-4.33-3.27,1.69-5.46,6.41-12.57,8.57-12.92,3.93-.55,6.48-1.54,8,3.77S55.54,66.52,48.67,66.56Zm8.48-19.45c-1.18,0-3.22-.52-3.22-1.77,0-3.62-.55-3.42-4.36,1-2.08,2.36-3.73,4.68-3.73,5.11a52.25,52.25,0,0,1-3.15,7.39c-3.14,6.44-3.85,9.9-2.39,11.31.43.4,1.37,0,2.12-1C49.1,64.36,56.29,75,63.52,56.3,63.6,51.47,60.53,47.11,57.15,47.11ZM48.67,66.56c-3.93,0-5-1.1-4.33-3.27,1.69-5.46,6.41-12.57,8.57-12.92,3.93-.55,6.48-1.54,8,3.77S55.54,66.52,48.67,66.56ZM18.56,91.86c-1.37-1.33-2.94-2.16-3.57-1.73-1.26.83-3.5,6.92-3.5,9.59,0,2.09,1.1,2.48,2.63,1a8.17,8.17,0,0,1,3.62-1.29C21.35,98.9,21.79,95,18.56,91.86Zm0,0c-1.37-1.33-2.94-2.16-3.57-1.73-1.26.83-3.5,6.92-3.5,9.59,0,2.09,1.1,2.48,2.63,1a8.17,8.17,0,0,1,3.62-1.29C21.35,98.9,21.79,95,18.56,91.86ZM57.15,47.11c-1.18,0-3.22-.52-3.22-1.77,0-3.62-.55-3.42-4.36,1-2.08,2.36-3.73,4.68-3.73,5.11a52.25,52.25,0,0,1-3.15,7.39c-3.14,6.44-3.85,9.9-2.39,11.31.43.4,1.37,0,2.12-1C49.1,64.36,56.29,75,63.52,56.3,63.6,51.47,60.53,47.11,57.15,47.11ZM48.67,66.56c-3.93,0-5-1.1-4.33-3.27,1.69-5.46,6.41-12.57,8.57-12.92,3.93-.55,6.48-1.54,8,3.77S55.54,66.52,48.67,66.56Zm8.48-19.45c-1.18,0-3.22-.52-3.22-1.77,0-3.62-.55-3.42-4.36,1-2.08,2.36-3.73,4.68-3.73,5.11a52.25,52.25,0,0,1-3.15,7.39c-3.14,6.44-3.85,9.9-2.39,11.31.43.4,1.37,0,2.12-1C49.1,64.36,56.29,75,63.52,56.3,63.6,51.47,60.53,47.11,57.15,47.11ZM48.67,66.56c-3.93,0-5-1.1-4.33-3.27,1.69-5.46,6.41-12.57,8.57-12.92,3.93-.55,6.48-1.54,8,3.77S55.54,66.52,48.67,66.56ZM18.56,91.86c-1.37-1.33-2.94-2.16-3.57-1.73-1.26.83-3.5,6.92-3.5,9.59,0,2.09,1.1,2.48,2.63,1a8.17,8.17,0,0,1,3.62-1.29C21.35,98.9,21.79,95,18.56,91.86Zm0,0c-1.37-1.33-2.94-2.16-3.57-1.73-1.26.83-3.5,6.92-3.5,9.59,0,2.09,1.1,2.48,2.63,1a8.17,8.17,0,0,1,3.62-1.29C21.35,98.9,21.79,95,18.56,91.86ZM57.15,47.11c-1.18,0-3.22-.52-3.22-1.77,0-3.62-.55-3.42-4.36,1-2.08,2.36-3.73,4.68-3.73,5.11a52.25,52.25,0,0,1-3.15,7.39c-3.14,6.44-3.85,9.9-2.39,11.31.43.4,1.37,0,2.12-1C49.1,64.36,56.29,75,63.52,56.3,63.6,51.47,60.53,47.11,57.15,47.11ZM48.67,66.56c-3.93,0-5-1.1-4.33-3.27,1.69-5.46,6.41-12.57,8.57-12.92,3.93-.55,6.48-1.54,8,3.77S55.54,66.52,48.67,66.56Zm8.48-19.45c-1.18,0-3.22-.52-3.22-1.77,0-3.62-.55-3.42-4.36,1-2.08,2.36-3.73,4.68-3.73,5.11a52.25,52.25,0,0,1-3.15,7.39c-3.14,6.44-3.85,9.9-2.39,11.31.43.4,1.37,0,2.12-1C49.1,64.36,56.29,75,63.52,56.3,63.6,51.47,60.53,47.11,57.15,47.11ZM48.67,66.56c-3.93,0-5-1.1-4.33-3.27,1.69-5.46,6.41-12.57,8.57-12.92,3.93-.55,6.48-1.54,8,3.77S55.54,66.52,48.67,66.56ZM18.56,91.86c-1.37-1.33-2.94-2.16-3.57-1.73-1.26.83-3.5,6.92-3.5,9.59,0,2.09,1.1,2.48,2.63,1a8.17,8.17,0,0,1,3.62-1.29C21.35,98.9,21.79,95,18.56,91.86Zm0,0c-1.37-1.33-2.94-2.16-3.57-1.73-1.26.83-3.5,6.92-3.5,9.59,0,2.09,1.1,2.48,2.63,1a8.17,8.17,0,0,1,3.62-1.29C21.35,98.9,21.79,95,18.56,91.86ZM57.15,47.11c-1.18,0-3.22-.52-3.22-1.77,0-3.62-.55-3.42-4.36,1-2.08,2.36-3.73,4.68-3.73,5.11a52.25,52.25,0,0,1-3.15,7.39c-3.14,6.44-3.85,9.9-2.39,11.31.43.4,1.37,0,2.12-1C49.1,64.36,56.29,75,63.52,56.3,63.6,51.47,60.53,47.11,57.15,47.11ZM48.67,66.56c-3.93,0-5-1.1-4.33-3.27,1.69-5.46,6.41-12.57,8.57-12.92,3.93-.55,6.48-1.54,8,3.77S55.54,66.52,48.67,66.56Zm8.48-19.45c-1.18,0-3.22-.52-3.22-1.77,0-3.62-.55-3.42-4.36,1-2.08,2.36-3.73,4.68-3.73,5.11a52.25,52.25,0,0,1-3.15,7.39c-3.14,6.44-3.85,9.9-2.39,11.31.43.4,1.37,0,2.12-1C49.1,64.36,56.29,75,63.52,56.3,63.6,51.47,60.53,47.11,57.15,47.11ZM48.67,66.56c-3.93,0-5-1.1-4.33-3.27,1.69-5.46,6.41-12.57,8.57-12.92,3.93-.55,6.48-1.54,8,3.77S55.54,66.52,48.67,66.56ZM18.56,91.86c-1.37-1.33-2.94-2.16-3.57-1.73-1.26.83-3.5,6.92-3.5,9.59,0,2.09,1.1,2.48,2.63,1a8.17,8.17,0,0,1,3.62-1.29C21.35,98.9,21.79,95,18.56,91.86Zm0,0c-1.37-1.33-2.94-2.16-3.57-1.73-1.26.83-3.5,6.92-3.5,9.59,0,2.09,1.1,2.48,2.63,1a8.17,8.17,0,0,1,3.62-1.29C21.35,98.9,21.79,95,18.56,91.86ZM57.15,47.11c-1.18,0-3.22-.52-3.22-1.77,0-3.62-.55-3.42-4.36,1-2.08,2.36-3.73,4.68-3.73,5.11a52.25,52.25,0,0,1-3.15,7.39c-3.14,6.44-3.85,9.9-2.39,11.31.43.4,1.37,0,2.12-1C49.1,64.36,56.29,75,63.52,56.3,63.6,51.47,60.53,47.11,57.15,47.11ZM48.67,66.56c-3.93,0-5-1.1-4.33-3.27,1.69-5.46,6.41-12.57,8.57-12.92,3.93-.55,6.48-1.54,8,3.77S55.54,66.52,48.67,66.56Zm8.48-19.45c-1.18,0-3.22-.52-3.22-1.77,0-3.62-.55-3.42-4.36,1-2.08,2.36-3.73,4.68-3.73,5.11a52.25,52.25,0,0,1-3.15,7.39c-3.14,6.44-3.85,9.9-2.39,11.31.43.4,1.37,0,2.12-1C49.1,64.36,56.29,75,63.52,56.3,63.6,51.47,60.53,47.11,57.15,47.11ZM48.67,66.56c-3.93,0-5-1.1-4.33-3.27,1.69-5.46,6.41-12.57,8.57-12.92,3.93-.55,6.48-1.54,8,3.77S55.54,66.52,48.67,66.56ZM18.56,91.86c-1.37-1.33-2.94-2.16-3.57-1.73-1.26.83-3.5,6.92-3.5,9.59,0,2.09,1.1,2.48,2.63,1a8.17,8.17,0,0,1,3.62-1.29C21.35,98.9,21.79,95,18.56,91.86Zm0,0c-1.37-1.33-2.94-2.16-3.57-1.73-1.26.83-3.5,6.92-3.5,9.59,0,2.09,1.1,2.48,2.63,1a8.17,8.17,0,0,1,3.62-1.29C21.35,98.9,21.79,95,18.56,91.86ZM57.15,47.11c-1.18,0-3.22-.52-3.22-1.77,0-3.62-.55-3.42-4.36,1-2.08,2.36-3.73,4.68-3.73,5.11a52.25,52.25,0,0,1-3.15,7.39c-3.14,6.44-3.85,9.9-2.39,11.31.43.4,1.37,0,2.12-1C49.1,64.36,56.29,75,63.52,56.3,63.6,51.47,60.53,47.11,57.15,47.11ZM48.67,66.56c-3.93,0-5-1.1-4.33-3.27,1.69-5.46,6.41-12.57,8.57-12.92,3.93-.55,6.48-1.54,8,3.77S55.54,66.52,48.67,66.56Zm8.48-19.45c-1.18,0-3.22-.52-3.22-1.77,0-3.62-.55-3.42-4.36,1-2.08,2.36-3.73,4.68-3.73,5.11a52.25,52.25,0,0,1-3.15,7.39c-3.14,6.44-3.85,9.9-2.39,11.31.43.4,1.37,0,2.12-1C49.1,64.36,56.29,75,63.52,56.3,63.6,51.47,60.53,47.11,57.15,47.11ZM48.67,66.56c-3.93,0-5-1.1-4.33-3.27,1.69-5.46,6.41-12.57,8.57-12.92,3.93-.55,6.48-1.54,8,3.77S55.54,66.52,48.67,66.56ZM18.56,91.86c-1.37-1.33-2.94-2.16-3.57-1.73-1.26.83-3.5,6.92-3.5,9.59,0,2.09,1.1,2.48,2.63,1a8.17,8.17,0,0,1,3.62-1.29C21.35,98.9,21.79,95,18.56,91.86ZM57.15,47.11c-1.18,0-3.22-.52-3.22-1.77,0-3.62-.55-3.42-4.36,1-2.08,2.36-3.73,4.68-3.73,5.11a52.25,52.25,0,0,1-3.15,7.39c-3.14,6.44-3.85,9.9-2.39,11.31.43.4,1.37,0,2.12-1C49.1,64.36,56.29,75,63.52,56.3,63.6,51.47,60.53,47.11,57.15,47.11ZM48.67,66.56c-3.93,0-5-1.1-4.33-3.27,1.69-5.46,6.41-12.57,8.57-12.92,3.93-.55,6.48-1.54,8,3.77S55.54,66.52,48.67,66.56ZM18.56,91.86c-1.37-1.33-2.94-2.16-3.57-1.73-1.26.83-3.5,6.92-3.5,9.59,0,2.09,1.1,2.48,2.63,1a8.17,8.17,0,0,1,3.62-1.29C21.35,98.9,21.79,95,18.56,91.86Zm0,0c-1.37-1.33-2.94-2.16-3.57-1.73-1.26.83-3.5,6.92-3.5,9.59,0,2.09,1.1,2.48,2.63,1a8.17,8.17,0,0,1,3.62-1.29C21.35,98.9,21.79,95,18.56,91.86ZM57.15,47.11c-1.18,0-3.22-.52-3.22-1.77,0-3.62-.55-3.42-4.36,1-2.08,2.36-3.73,4.68-3.73,5.11a52.25,52.25,0,0,1-3.15,7.39c-3.14,6.44-3.85,9.9-2.39,11.31.43.4,1.37,0,2.12-1C49.1,64.36,56.29,75,63.52,56.3,63.6,51.47,60.53,47.11,57.15,47.11ZM48.67,66.56c-3.93,0-5-1.1-4.33-3.27,1.69-5.46,6.41-12.57,8.57-12.92,3.93-.55,6.48-1.54,8,3.77S55.54,66.52,48.67,66.56Z"/><path class="cls-4" d="M48.67,66.56c-3.93,0-5-1.1-4.33-3.27,1.69-5.46,6.41-12.57,8.57-12.92,3.93-.55,6.48-1.54,8,3.77S55.54,66.52,48.67,66.56Z"/><path class="cls-3" d="M122.38,65.61V58.93l-4.32.28c-4,.23-4.44,0-5.46-3A21.1,21.1,0,0,1,111.46,51c0-1.1-1.14-3.37-2.55-5a21.18,21.18,0,0,1-3.62-6.87c-1.3-4.64-6.76-13.4-8.92-14.23C89.3,17.08,87.49,3.72,76.61.11c-2.68,0-2.56-1.38-2.56,5.73s-1.14,7.35-3.14,5.39A34.16,34.16,0,0,1,67.1,6.55C65.72,4.47,62.93.62,60.53.85l-.11,3.82L59,16.81c-.23,11.24.79,11.63-6.84,16.93C50.55,35,49,36.18,47.41,37.44h0L45.88,38.7h0C25.48,55.63,8.82,76.81.1,102c-1.34,12.77,11.55,25.31,24.12,24.8a19.63,19.63,0,0,0,7.19-2.71c5.23-3.58,10.3,6.68,13.76,10.17,2.51,3.19,3,2.52,12.81,2.09,15.52-3.74,41.34-21.66,50.73-35.53,3.5-5.22,6.84-9.55,7.43-9.55C121.17,96.66,138,76,122.38,65.61ZM75.19,3.25l-.12.28C75.15,3.33,75.15,3.25,75.19,3.25ZM62.42,12.68l.71-6.17,2.28,4.72a23.35,23.35,0,0,0,3.93,6.09c2.16,3.5-4.37,7.23-7,9.27C61.36,26.55,61.4,21.6,62.42,12.68ZM29.92,120.94C19.82,127.62,7,119.25,2,106.09c-.31-.87-.63-1.77-.9-2.67,16.8-39.65,37-58.55,70.44-81.62.31,0-.36,4.12-1.26,5.85a5.36,5.36,0,0,0-.47,1h0c-1,2.47-.63,4.08,1.06,4.08a1.28,1.28,0,0,0,.39,0c2.08-.59,3.26-6.21,5.5-24.44.43-3.58.59-4.24,1.73-3.34a10,10,0,0,1,.79.67c2.63,2.67,3.65,6.33,6,9.31,5.27,7.9,6.4,11.48,6.4,20.51,0,6.88,1.11,10,2.87,8.22.36-.32.75-2.79.87-5.47.12-3.3-.32-8.33.67-8.33.47,0,1.21.75,2.12,1.93,2.83,3.73,7,11.71,7,13.91a9.07,9.07,0,0,0,2,4.72c1.92,2.31,1.92,2.39-.16,4a5.5,5.5,0,0,0-1,1.1,7.9,7.9,0,0,0-1.3,3.82c-.23,5.22-1.26,4.75-1.77-.87-.23-2.87-.74-5.46-1.06-5.78a27.06,27.06,0,0,0-6.36-1.14C90,51,89.34,51.23,83.76,55c-9.87,6.64-11.52,11.44-6.29,18.24,1.53,2,2.79,4.32,2.79,5.18,0,1.42-3.65,4.13-9.9,7.39-7.27,5.74-9.91,16.15-20.48,17.88-4.2,1.38-8.68,3.11-10,3.7C34.91,111.08,33.46,116.38,29.92,120.94Zm7.9.63-2.2-3.14,2.59-4.33c2.16-3.22,5.23-5.65,9-6.16,1.81-.12,6.37-1.73,10-3.58,5.74-2.87,7-4,9.47-8.72,4-7.82,11.44-11.44,16.19-7.9,2,1.41,1.89,1.49-1.14,1.53-4,0-5.7,1.65-5.7,5.34,0,2.24-.47,2.87-2.2,2.87-1.45,0-2.55,1-3.34,3a5.83,5.83,0,0,1-3.69,3.65,24.24,24.24,0,0,0-6.29,3.15,15.6,15.6,0,0,1-7,2.51c-2.52,0-4.21,1-7.55,4.6-4.59,4.91-5.85,7.43-2,3.93,3.34-3,6.44-4.44,9.74-4.44a8.54,8.54,0,0,0,4.76-1.69c1.06-.94,4.4-2.52,7.39-3.5,4.2-1.37,5.81-2.47,7-4.91,1-2.16,2.32-3.26,4.13-3.46,2.32-.27,2.75-.9,3-4.16.32-3.58.59-3.85,3.54-3.85,3.11,0,3.18.11,2.63,4a13,13,0,0,1-4,7.47c-8.45,7.31-18.59,12-26.8,19.33C46.46,129.08,42.77,128.76,37.82,121.57Zm49.51-5.5c-11,7.27-24.87,21.26-39,18.47-3-1.18-3.85-2.75-2-3a4.09,4.09,0,0,1,.7,0c8.34-3.93,29.56-20.67,38.4-27.23,2.39-2.24,4.12-3.34,4.12-7.78,0-5.85-3.14-12.26-5.93-12.26-1.14,0-1.38-.51-.87-1.77,1-2.28,1.38-3.65,1.18-4.79a5.39,5.39,0,0,0-2.12-3.15C78.37,71.35,77.94,64,81,61.25c2.2-2,12.57-5.81,15.64-5.81,2.28,0,3.65,3.77,2.67,7.54-.51,2.08.12,2.83,4.24,5.23A45.36,45.36,0,0,1,110.44,73C120.89,89.19,100.38,107,87.33,116.07Zm27.9-45.51c-.9,1.14-.35.71-3.85-.86-3.14-.2-4.4-2.24-3.1-7,.15-.51.27-.94.43-1.33,1.14-3.11,2.32-2.24,4.68-1A21.18,21.18,0,0,0,117,61.88c2.2.71,2.48,5.27.39,6.48A18,18,0,0,0,115.23,70.56Zm9.36,11.64h0v.07h0c-.44,3-2.09,5.55-5.43,5.94-2.79,0-4.32-2.44-2.71-4.4a7.86,7.86,0,0,0,.83-4.36,9.62,9.62,0,0,1,.94-4.72,2.55,2.55,0,0,1,.24-.39c3.06-3.38,5.73.31,6.2,4.75A14.07,14.07,0,0,1,124.59,82.2Z"/><path class="cls-4" d="M86.23,96.3a13,13,0,0,1-4,7.47c-8.45,7.31-18.59,12-26.8,19.33-8.93,6-12.62,5.66-17.57-1.53l-2.2-3.14,2.59-4.33c2.16-3.22,5.23-5.65,9-6.16,1.81-.12,6.37-1.73,10-3.58,5.74-2.87,7-4,9.47-8.72,4-7.82,11.44-11.44,16.19-7.9,2,1.41,1.89,1.49-1.14,1.53-4,0-5.7,1.65-5.7,5.34,0,2.24-.47,2.87-2.2,2.87-1.45,0-2.55,1-3.34,3a5.83,5.83,0,0,1-3.69,3.65,24.24,24.24,0,0,0-6.29,3.15,15.6,15.6,0,0,1-7,2.51c-2.52,0-4.21,1-7.55,4.6-4.59,4.91-5.85,7.43-2,3.93,3.34-3,6.44-4.44,9.74-4.44a8.54,8.54,0,0,0,4.76-1.69c1.06-.94,4.4-2.52,7.39-3.5,4.2-1.37,5.81-2.47,7-4.91,1-2.16,2.32-3.26,4.13-3.46,2.32-.27,2.75-.9,3-4.16.32-3.58.59-3.85,3.54-3.85C86.7,92.33,86.78,92.45,86.23,96.3Z"/><path class="cls-5" d="M124.62,79.13a2,2,0,0,1-.82-.43,6.49,6.49,0,0,0-1.65-1.3c-.79-.39-1.18-.71-2-1.1a13.4,13.4,0,0,1-1.93-1.49,2,2,0,0,1,.24-.39C121.52,71,124.15,74.73,124.62,79.13Z"/><path class="cls-5" d="M117.39,68.4a13.79,13.79,0,0,0-2.16,2.16c-.66-.62-.86-1.53-1.45-2.16a13.83,13.83,0,0,1-2.24-3.14,10.73,10.73,0,0,0-1.3-2,18.77,18.77,0,0,1-1.53-1.81c1.14-3.11,2.32-2.24,4.68-1A21.7,21.7,0,0,0,117,61.88C119.16,62.63,119.44,67.19,117.39,68.4Z"/><path class="cls-5" d="M107,54.41a5.5,5.5,0,0,0-1,1.1,6.83,6.83,0,0,1-1-1.76c-.28-1.06-.91-1.77-1.14-2.75a11.56,11.56,0,0,0-1-2.76,26.74,26.74,0,0,0-1.14-3.14c-.74-.94-.66-1.77-1.14-2.75a20.42,20.42,0,0,1-1.1-2.55A17.12,17.12,0,0,0,99,37.05a11.75,11.75,0,0,1-.55-2.4,13.84,13.84,0,0,1-.23-2.87c2.83,3.73,7,11.71,7,13.91a9.07,9.07,0,0,0,2,4.72C109.06,52.69,109.06,52.76,107,54.41Z"/><path class="cls-5" d="M70.32,27.65a5.36,5.36,0,0,0-.47,1h0a.49.49,0,0,0-.2.11,12.55,12.55,0,0,0-3,1.81,13.68,13.68,0,0,1-3.18,2.2,26.69,26.69,0,0,0-4.09,2c-1,.75-2.36,1.22-3.18,2a7.88,7.88,0,0,1-2.59,1.45,17.91,17.91,0,0,0-2.4,1.3,17.91,17.91,0,0,1-2.59,1.3A5.18,5.18,0,0,0,47,42.59a9.2,9.2,0,0,0-1.14,2.2c-.28,1.06-1,1.14-1.5,2.2a13.59,13.59,0,0,1-1.65,2.2,11.31,11.31,0,0,1-2,2.2,27.24,27.24,0,0,0-2.6,2.2,7.77,7.77,0,0,0-1.88,2.2,25.66,25.66,0,0,1-3,3.65,57.91,57.91,0,0,0-6,8.1c-1.57,2.67-3.77,5.23-5.39,8.09a40.18,40.18,0,0,1-3.73,5.9c-1.37,1.61-2.4,3.81-3.89,5.3a17.31,17.31,0,0,0-2.79,4c-.59,1.22-1.92,2.36-2.24,3.66A7,7,0,0,1,7.8,97.05c-.71.9-1.26,2.36-1.89,2.91a6.5,6.5,0,0,0-1.49,1.81c-.36.74-.94,1.17-1.3,2a20.8,20.8,0,0,0-1,2.32c-.31-.87-.63-1.77-.9-2.67C18,63.81,38.13,44.9,71.61,21.84,71.93,21.8,71.22,26,70.32,27.65Z"/><path class="cls-5" d="M78.53,5.88v4.44c0,1.22-.24,2.72-.24,3.62,0,1.41-.51,2.71-.51,3.89v3.89a18.07,18.07,0,0,1,0,3.89c-.23.86,0,2.71-.27,3.89-.35,1.49-.39,2.83-2.36,2.83-1.14,0-3.34,1-3.85.35,2.08-.59,3.26-6.21,5.5-24.44.43-3.57.59-4.24,1.73-3.34Z"/></g></g></svg>