<?xml version="1.0" encoding="UTF-8" standalone="no"?>
<svg
   xmlns:dc="http://purl.org/dc/elements/1.1/"
   xmlns:cc="http://creativecommons.org/ns#"
   xmlns:rdf="http://www.w3.org/1999/02/22-rdf-syntax-ns#"
   xmlns:svg="http://www.w3.org/2000/svg"
   xmlns="http://www.w3.org/2000/svg"
   xmlns:sodipodi="http://sodipodi.sourceforge.net/DTD/sodipodi-0.dtd"
   xmlns:inkscape="http://www.inkscape.org/namespaces/inkscape"
   viewBox="0 0 99.999997 27.061001"
   version="1.1"
   id="svg30"
   sodipodi:docname="greenbone-power.svg"
   width="100"
   height="27.061001"
   inkscape:version="0.92.5 (2060ec1f9f, 2020-04-08)">
  <metadata
     id="metadata34">
    <rdf:RDF>
      <cc:Work
         rdf:about="">
        <dc:format>image/svg+xml</dc:format>
        <dc:type
           rdf:resource="http://purl.org/dc/dcmitype/StillImage" />
        <dc:title>Powered by Greenbone Logo 1</dc:title>
      </cc:Work>
    </rdf:RDF>
  </metadata>
  <sodipodi:namedview
     pagecolor="#ffffff"
     bordercolor="#666666"
     borderopacity="1"
     objecttolerance="10"
     gridtolerance="10"
     guidetolerance="10"
     inkscape:pageopacity="0"
     inkscape:pageshadow="2"
     inkscape:window-width="1920"
     inkscape:window-height="1016"
     id="namedview32"
     showgrid="false"
     inkscape:zoom="11.835793"
     inkscape:cx="65.938969"
     inkscape:cy="-3.329981"
     inkscape:window-x="1920"
     inkscape:window-y="27"
     inkscape:window-maximized="1"
     inkscape:current-layer="svg30" />
  <defs
     id="defs4">
    <style
       id="style2">.cls-1{fill:#66c430;}.cls-2{font-size:103px;font-family:ArialMT, Arial;}</style>
  </defs>
  <title
     id="title6">Powered by Greenbone Logo 1</title>
  <g
     id="Layer_2"
     data-name="Layer 2"
     transform="matrix(0.12207776,0,0,0.12207776,0,-1.7897668)">
    <g
       id="Layer_1-2"
       data-name="Layer 1">
      <path
         class="cls-1"
         d="M 88.62,234.17 H 70.41 L 68.13,223 A 45.19,45.19 0 0 1 35.77,236.33 C 10.57,236.28 0,218.89 0,177.75 c 0,-44.39 13.33,-57.89 50.25,-57.89 13.17,0 23.9,1 34.47,3.9 l -2,18.21 c -11.06,-0.48 -22,-0.81 -31.71,-0.81 -18.7,0 -24.88,4.88 -24.88,37.4 0,28 4.39,36.59 18.37,36.59 8,0 14.48,-2.61 20.17,-5.7 v -40 h 23.9 z"
         id="path8"
         inkscape:connector-curvature="0"
         style="fill:#66c430" />
      <path
         class="cls-1"
         d="m 162.28,174 h -6.5 c -6.83,0 -13.83,2 -24.56,5.53 v 54.63 H 107.16 V 154 h 18.7 l 2.11,11.7 c 10.73,-9.1 22.12,-14 32.52,-14 h 4.23 z"
         id="path10"
         inkscape:connector-curvature="0"
         style="fill:#66c430" />
      <path
         class="cls-1"
         d="m 197.24,202.14 c 1.46,12 6.83,14.79 19,14.79 7.32,0 19,-0.65 29.92,-1.78 l 2.28,15 c -9.43,4.55 -23.58,6 -35,6 -30.41,0 -41.79,-12.36 -41.79,-42 0,-31.71 11.71,-42.44 40.82,-42.44 27.31,0 37.88,9.59 38,28 0,14.63 -7,22.44 -24.39,22.44 z m 22.28,-14.47 c 6.5,0 7.48,-3.74 7.48,-8.3 0,-7.48 -3.26,-10.08 -13.66,-10.08 -12,0 -15.94,3.25 -16.59,18.38 z"
         id="path12"
         inkscape:connector-curvature="0"
         style="fill:#66c430" />
      <path
         class="cls-1"
         d="m 288.3,202.14 c 1.46,12 6.83,14.79 19,14.79 7.32,0 19,-0.65 29.92,-1.78 l 2.28,15 c -9.43,4.55 -23.58,6 -35,6 -30.41,0 -41.79,-12.36 -41.79,-42 0,-31.71 11.71,-42.44 40.82,-42.44 27.31,0 37.88,9.59 38,28 0,14.63 -7,22.44 -24.39,22.44 z m 22.28,-14.47 c 6.5,0 7.48,-3.74 7.48,-8.3 0,-7.48 -3.26,-10.08 -13.66,-10.08 -12,0 -15.94,3.25 -16.59,18.38 z"
         id="path14"
         inkscape:connector-curvature="0"
         style="fill:#66c430" />
      <path
         class="cls-1"
         d="m 378.55,165.88 c 11.22,-9.11 22.92,-14.15 34.31,-14.15 14.63,0 22.44,7.81 22.44,22.28 v 60.16 h -23.91 v -52.68 c 0,-7.32 -1.95,-9.43 -7.8,-9.43 -6.51,0 -12.85,2.6 -22.28,7.31 v 54.8 H 357.25 V 154 h 19.51 z"
         id="path16"
         inkscape:connector-curvature="0"
         style="fill:#66c430" />
      <path
         class="cls-1"
         d="m 478.55,145.88 a 70.94,70.94 0 0 1 -2.11,18.86 c 7.64,-7.81 17.88,-13 28.45,-13 20.65,0 29.43,11.87 29.43,41.63 0,24.55 -7.15,42.76 -39.18,42.76 -11.39,0 -30.9,-2 -40.82,-6.18 v -109.6 h 24.23 z m -0.16,70.89 a 72.82,72.82 0 0 0 16.26,1.47 c 10.89,-0.33 15,-5.7 15,-24.72 0,-17.4 -2.44,-22.6 -14.31,-22.6 -6.34,0 -11.06,2.92 -16.91,6.83 z"
         id="path18"
         inkscape:connector-curvature="0"
         style="fill:#66c430" />
      <path
         class="cls-1"
         d="m 629.94,194.17 c 0,30.73 -11.22,42.11 -41.14,42.11 -30.08,0 -41.3,-11.38 -41.3,-42.11 0,-30.9 11.22,-42.44 41.3,-42.44 29.92,0 41.14,11.54 41.14,42.44 z m -57.24,0 c 0,19.19 3.42,24.07 16.1,24.07 12.36,0 15.93,-4.88 15.93,-24.07 0,-19.51 -3.57,-24.39 -15.93,-24.39 -12.68,0 -16.1,4.88 -16.1,24.39 z"
         id="path20"
         inkscape:connector-curvature="0"
         style="fill:#66c430" />
      <path
         class="cls-1"
         d="m 667.66,165.88 c 11.22,-9.11 22.93,-14.15 34.31,-14.15 14.64,0 22.44,7.81 22.44,22.28 v 60.16 h -23.9 v -52.68 c 0,-7.32 -2,-9.43 -7.81,-9.43 -6.5,0 -12.84,2.6 -22.27,7.31 v 54.8 H 646.36 V 154 h 19.52 z"
         id="path22"
         inkscape:connector-curvature="0"
         style="fill:#66c430" />
      <path
         class="cls-1"
         d="m 765.88,202.14 c 1.46,12 6.83,14.79 19,14.79 7.32,0 19,-0.65 29.92,-1.78 l 2.28,15 c -9.43,4.55 -23.58,6 -35,6 -30.41,0 -41.79,-12.36 -41.79,-42 0,-31.71 11.71,-42.44 40.81,-42.44 27.32,0 37.89,9.59 38.05,28 0,14.63 -7,22.44 -24.39,22.44 z m 22.28,-14.47 c 6.5,0 7.48,-3.74 7.48,-8.3 0,-7.48 -3.26,-10.08 -13.66,-10.08 -12,0 -15.94,3.25 -16.59,18.38 z"
         id="path24"
         inkscape:connector-curvature="0"
         style="fill:#66c430" />
      <text
         class="cls-2"
         transform="translate(132.87,88.39)"
         id="text26"
         style="font-size:103px;font-family:ArialMT, Arial">Powered by</text>
    </g>
  </g>
</svg>
