<svg width="1130" height="180" viewBox="0 0 1130 180" fill="none" xmlns="http://www.w3.org/2000/svg">
    <path fill-rule="evenodd" clip-rule="evenodd"
        d="M126.906 0C124.595 11.1371 119.296 32.7975 116.204 45.1749C93.4383 59.0551 64.4854 88.9178 48.64 108.83C30.6816 131.397 -6.38449 160.54 0.947459 177.348C9.36151 196.636 22.4429 206.912 41.1817 215.682C47.8075 191.433 94.333 176.074 108.134 166.296C111.255 164.085 113.575 162.053 114.97 158.317C116.366 154.58 106.808 143.379 110.464 134.027C114.438 123.86 127.244 111.628 140.492 111.628C129.894 114.577 120.179 126.954 118.854 135.353C117.348 144.898 131.766 156.001 126.16 165.342C124.917 167.335 122.319 170.352 119.616 172.497C102.041 186.448 57.9135 200.776 54.7702 217.145C62.1543 224.193 86.9156 235.87 94.8579 230.732C127.976 209.309 227.045 162.76 163.014 111.628C187.743 114.722 198.293 135.034 199.225 157.013C219.49 143.874 225.452 123.336 217.772 105.874C207.079 81.561 189.49 59.3205 163.014 45.1749C159.923 27.0509 147.558 8.92688 126.906 0ZM23.5174 157.661C25.0228 157.29 26.5116 168.181 24.3521 170.172C22.4696 171.908 15.2005 172.31 13.8023 170.94C12.3943 169.56 20.6824 158.359 23.5174 157.661ZM97.6968 85.9555C101.409 84.5961 105.678 89.9087 106.489 93.8003C107.427 98.296 102.853 103.886 101.19 105.736C99.9978 107.062 91.9166 118.997 76.9417 111.628C72.9279 109.653 88.3838 89.3656 97.6968 85.9555Z"
        fill="white" />
    <path
        d="M78.6686 12.0212C85.4783 14.9926 102.8 25.6888 107.627 39.24C96.5561 46.4678 84.5014 56.7517 73.2366 67.6322C75.7327 48.6855 77.7227 22.9769 78.6686 12.0212Z"
        fill="white" />
    <path
        d="M303.493 71C331.2 71 341.113 81.2947 341.113 116.5C341.113 151.705 331.2 162 303.493 162C275.786 162 266 151.705 266 116.5C266 81.2947 275.786 71 303.493 71ZM303.493 86.6327C290.275 86.6327 286.335 93.2416 286.335 116.5C286.335 139.758 290.275 146.367 303.493 146.367C316.711 146.367 320.651 139.758 320.651 116.5C320.651 93.2416 316.711 86.6327 303.493 86.6327Z"
        fill="white" />
    <path
        d="M355.804 160.348V72.6522C366.353 71.6355 373.343 71.5084 389.103 71.5084C413.378 71.5084 421.131 77.736 421.131 100.105C421.131 122.728 413.378 128.828 391.645 128.828C385.926 128.828 380.207 128.447 375.123 127.811V160.348H355.804ZM375.123 113.958H388.722C398.635 113.831 401.686 111.035 401.686 100.105C401.686 89.1746 398.635 86.3785 388.722 86.3785L375.123 86.5056V113.958Z"
        fill="white" />
    <path
        d="M492.21 145.223L493.099 159.458C481.153 160.729 466.028 160.729 452.429 160.729C440.736 160.729 433.238 153.866 433.111 143.063V89.9371C433.238 79.1341 440.736 72.2709 452.429 72.2709C466.028 72.2709 481.153 72.2709 493.099 73.5419L492.21 87.9036H458.53C454.336 87.9036 452.556 89.8101 452.556 94.3855V107.73H487.507V121.711H452.556V138.615C452.556 143.317 454.336 145.223 458.53 145.223H492.21Z"
        fill="white" />
    <path
        d="M581.071 72.6522V153.358C581.071 157.933 578.783 160.348 574.208 160.348H562.134C558.067 160.348 556.287 158.441 554.381 154.628L531.377 107.858C529.598 104.045 527.056 98.5796 526.039 94.2584H524.641C525.276 98.8338 525.531 103.663 525.531 108.239V160.348H507.102V79.6425C507.102 75.067 509.517 72.6522 514.092 72.6522H525.912C529.979 72.6522 531.758 74.5587 533.665 78.3715L555.906 123.744C557.813 127.557 560.227 132.895 562.261 137.852H563.532C563.151 132.895 562.769 128.066 562.769 123.109V72.6522H581.071Z"
        fill="white" />
    <path
        d="M669.869 72.6522L646.103 155.01C645.34 158.187 642.671 160.348 639.24 160.348H621.573C618.142 160.348 615.473 158.187 614.71 155.01L590.817 72.6522H610.77L626.657 135.946C627.42 139.123 628.182 142.554 628.818 145.732H631.995C632.504 142.554 633.393 139.123 634.156 135.946L649.916 72.6522H669.869Z"
        fill="white" />
    <path
        d="M720.586 137.344H690.464L684.11 160.348H664.283L689.575 77.736C690.337 74.5587 693.133 72.6522 696.311 72.6522H714.612C717.917 72.6522 720.586 74.5587 721.348 77.736L746.64 160.348H726.941L720.586 137.344ZM716.392 122.346L709.02 95.5293C708.385 92.8603 707.622 89.9371 707.241 87.2681H703.809C703.174 89.9371 702.538 92.8603 701.903 95.5293L694.531 122.346H716.392Z"
        fill="white" />
    <path
        d="M788.123 127.176L770.457 120.948C757.112 116.119 752.282 108.239 752.282 95.2751C752.282 75.1941 761.56 71 784.183 71C792.825 71 803.247 71.6355 813.033 74.4316L811.762 87.6494C804.391 87.3953 793.588 87.2681 784.31 87.2681C774.905 87.2681 771.6 87.7765 771.6 95.2751C771.6 101.376 774.142 103.028 780.751 105.189L797.401 110.908C811.381 115.865 815.957 123.872 815.957 136.708C815.957 156.662 807.314 162 783.42 162C777.828 162 766.771 161.619 753.299 158.696L754.443 144.715C770.711 145.096 777.828 145.351 783.42 145.351C793.588 145.351 796.384 143.953 796.384 136.835C796.384 130.608 793.969 129.082 788.123 127.176Z"
        fill="white" />
</svg>