<?xml version="1.0" encoding="UTF-8"?>
<svg width="256" height="256" version="1.1" viewBox="0 0 67.733 67.733" xmlns="http://www.w3.org/2000/svg">
 <g transform="translate(0 -229.27)">
  <g transform="matrix(2.0878 0 0 2.2337 41.673 -337.41)">
   <g transform="matrix(.70711 .66092 -.75652 .70711 207.77 81.238)">
    <path class="gui_icon_class" d="m-24.826 267.1c-3.1579 2.9516-3.1579 7.7685 0 10.72s8.3128 2.953 11.471 1e-3c3.1579-2.9516 3.1579-7.7712 0-10.723-3.1579-2.9516-8.3128-2.9503-11.471 1e-3zm1.6124 1.5071c2.2861-2.1368 5.9584-2.1368 8.2445 0 2.2861 2.1368 2.2861 5.5692 0 7.706-2.2861 2.1368-5.9569 2.1355-8.2431-1e-3 -2.2861-2.1368-2.2876-5.5679-0.0014-7.7047z" style="paint-order:normal"/>
    <path class="gui_icon_class" d="m-17.657 284.52 10.036 9.381 17.205-16.082-4.0409-3.7773c-1.7774-1.7036-4.1938-2.3911-6.7228-1.9669-2.529 0.42419-5.1823 1.8829-7.8048 4.334l-0.43931 0.41029-0.34829 4.3506-4.5579 0.23721zm4.1226-0.76152 5.9138-0.57862 0.59403-5.4957c2.2304-1.9704 4.385-3.1268 6.2129-3.4335 1.9541-0.32776 3.5359 0.14235 4.832 1.3846l0.00402 4e-3 2.4694 2.3062-14.158 13.232-6.9024-6.4515 1.0344-0.96785z" fill-rule="evenodd"/>
    <path class="gui_icon_class" d="m-10.488 259.06c-2.366 2.2115-2.366 5.828 0 8.0395s6.2366 2.2128 8.6026 1e-3c2.366-2.2115 2.366-5.8306 0-8.0421-2.366-2.2115-6.2366-2.2102-8.6026 1e-3zm1.6124 1.5071c1.4943-1.3967 3.8822-1.3967 5.3765 0s1.4943 3.6286 0 5.0253-3.8822 1.3967-5.3765 0c-1.4943-1.3967-1.4943-3.6286 0-5.0253z" style="paint-order:normal"/>
    <path class="gui_icon_class" d="m-0.21233 268.66 1.7061 1.5947c1.2185-0.73061 2.3771-1.189 3.4275-1.3652 1.9541-0.32776 3.5359 0.14235 4.832 1.3846l0.0042 4e-3 2.4694 2.3061-2.6868 2.511 1.4789 1.3824 4.3006-4.0198-4.0409-3.7773c-1.7774-1.7036-4.1938-2.3911-6.7228-1.9669-1.5544 0.26073-3.156 0.91379-4.7683 1.9464z" fill-rule="evenodd"/>
   </g>
  </g>
 </g>
</svg>
