<?xml version="1.0" encoding="UTF-8"?>
<svg width="256" height="256" version="1.1" viewBox="0 0 67.733 67.733" xmlns="http://www.w3.org/2000/svg">
 <g transform="translate(0 -229.27)">
  <path class="gui_icon_class" transform="matrix(.26458 0 0 .26458 0 229.27)" d="M104.004 0.0366211C73.0753 0.0366189 48.0028 25.1086 48.0028 56.0366V200.036H0.00195312V216.036H64.0031V56.0366C64.0031 33.9456 81.9125 16.0366 104.004 16.0366C117.09 16.0366 128.706 22.3214 136.004 32.0366H154.609C145.62 13.1196 126.342 0.0366211 104.004 0.0366211ZM144.005 152.036V216.036H208.006V256.036L256.007 208.036L208.006 160.036V200.036H160.005V152.036H144.005ZM80.0034 200.036V216.036H128.004V200.036H80.0034Z" />
  <path class="gui_icon_class" transform="matrix(.26458 0 0 .26458 0 229.27)" d="M144 84.9998V53H160.406V84.9998H192.405V101.09H160.406V133.405H144V101.09H112V84.9998H144Z" />
</g>
</svg>
