<?xml version="1.0" encoding="UTF-8"?>
<svg width="256" height="256" version="1.1" viewBox="0 0 67.733 67.733" xmlns="http://www.w3.org/2000/svg">
 <g transform="translate(0 -229.27)">
  <path class="gui_icon_class" transform="matrix(.26458 0 0 .26458 0 229.27)"   d="M158 16.0412L112.001 16.0433V0.043457H96.0007V16.0433H64.0005V0.043457H48.0001V16.0433H-0.000488281V188.791L67.2524 256.045H256.004V116H240.002L240 240.042H95.9983V160.041H16V32.0375H48.0009V48.0376H64.0013V32.0375H96.0014V48.0376H112.002V32.0375H158V16.0412ZM15.9976 176.039H79.9986L79.9983 240.04H76.7365L15.9976 179.301V176.039Z"  />
  <path class="gui_icon_class" transform="matrix(.26458 0 0 .26458 0 229.27)" d="M207.838 49.8384V18H224.162V49.8384H256V65.8472H224.162V98H207.838V65.8472H176V49.8384H207.838Z"  />
</g>
</svg>
