<?xml version="1.0" encoding="UTF-8"?>
<svg width="256" height="256" version="1.1" viewBox="0 0 67.733 67.733" xmlns="http://www.w3.org/2000/svg">
 <g transform="translate(0 -229.27)">
  <path class="gui_icon_class" transform="matrix(.26458 0 0 .26458 0 229.27)" d="M104.002 64C101.88 64 99.8457 64.8429 98.3454 66.3431C96.8451 67.8434 96.0023 69.8782 96.0023 71.9999C96.0023 74.1217 96.8451 76.1565 98.3454 77.6568C99.8457 79.157 101.88 79.9999 104.002 79.9999C106.124 79.9999 108.159 79.157 109.659 77.6568C111.159 76.1565 112.002 74.1217 112.002 71.9999C112.002 69.8782 111.159 67.8434 109.659 66.3431C108.159 64.8429 106.124 64 104.002 64ZM88.0023 79.9999C85.8806 79.9999 83.8458 80.8427 82.3455 82.343C80.8452 83.8433 80.0024 85.8781 80.0024 87.9998C80.0024 90.1215 80.8452 92.1564 82.3455 93.6566C83.8458 95.1569 85.8806 95.9998 88.0023 95.9998C90.124 95.9998 92.1589 95.1569 93.6591 93.6566C95.1594 92.1564 96.0023 90.1215 96.0023 87.9998C96.0023 85.8781 95.1594 83.8433 93.6591 82.343C92.1589 80.8427 90.124 79.9999 88.0023 79.9999ZM72.0024 95.9998C69.8807 95.9998 67.8459 96.8426 66.3456 98.3429C64.8454 99.8432 64.0025 101.878 64.0025 104C64.0025 106.121 64.8454 108.156 66.3456 109.657C67.8459 111.157 69.8807 112 72.0024 112C74.1242 112 76.159 111.157 77.6592 109.657C79.1595 108.156 80.0024 106.121 80.0024 104C80.0024 101.878 79.1595 99.8432 77.6592 98.3429C76.159 96.8426 74.1242 95.9998 72.0024 95.9998Z"/>
  <path class="gui_icon_class" transform="matrix(.26458 0 0 .26458 0 229.27)"   d="M205 33.9998V2H221.406V33.9998H253.405V50.0896H221.406V82.4054H205V50.0896H173V33.9998H205Z"   />
  <path class="gui_icon_class" transform="matrix(.26458 0 0 .26458 0 229.27)"  d="M51.2986 28.7008L79.9994 0L223.998 143.999L255.998 175.999L227.297 204.699C221.049 198.451 210.919 198.451 204.67 204.699C198.422 210.947 198.422 221.078 204.67 227.326L175.999 255.998L0 79.9994L28.6718 51.3276C34.9197 57.5757 45.0504 57.5757 51.2986 51.3276C57.5467 45.0797 57.5467 34.949 51.2986 28.7008ZM231.998 175.999L199.998 143.999L79.9985 23.9999L71.1548 32.8436C73.6288 43.5845 70.401 54.8422 62.6119 62.6404C54.8139 70.4158 43.566 73.6355 32.8351 71.1637L23.9993 79.9995L175.998 231.998L184.814 223.182C182.34 212.441 185.568 201.183 193.357 193.385C201.305 185.46 212.823 182.278 223.711 184.999C223.526 184.945 223.34 184.893 223.154 184.842L231.998 175.999Z"/>

</g>
</svg>
