<?xml version="1.0" encoding="UTF-8" standalone="no"?>
<svg
   xmlns="http://www.w3.org/2000/svg"
   viewBox="0 0 67.733 67.733"
   version="1.1"
   height="256"
   width="256">
  <g
     id="g6"
     transform="translate(0,-230.32832)">
    <g
       id="g4"
       transform="matrix(2.0878,0,0,2.2337,41.673,-337.41)" />
  </g>
  <path
     d="m 48.786485,0.12321545 -4.44097,13.78514755 -14.48205,-0.02687 11.73756,8.482964 -4.50051,13.76477 11.6947,-8.54196 11.70052,8.53429 -4.50976,-13.76239 11.732,-8.490374 -14.48205,0.03617 -4.44917,-13.78197255 z M 39.894291,0.38949307 C 25.387542,-2.2345683 10.697731,4.9087372 3.84758,18.063108 -3.0016337,31.216921 -0.4744625,47.194577 9.9055446,57.610499 20.284948,68.025907 36.254025,70.611035 49.432348,63.80877 62.609738,57.00559 69.804827,42.33724 67.231871,27.820625 L 62.534854,28.95999 C 64.763024,41.527747 58.656917,53.829559 47.473144,59.603763 36.289559,65.377431 22.468124,63.238485 13.395325,54.134258 4.3220388,45.029384 2.2320424,31.202044 8.0442396,20.039039 13.856811,8.8764139 26.182572,2.8110919 38.744335,5.0822957 l 1.150947,-4.69179746 z"
     style="stroke-width:0.26458001"
     id="path2-3" />
</svg>
