<?xml version="1.0" encoding="UTF-8"?>
<svg width="256" height="256" version="1.1" viewBox="0 0 67.733 67.733" xmlns="http://www.w3.org/2000/svg">
 <g transform="translate(0 -229.27)">
  <g transform="matrix(2.0878 0 0 2.2337 41.673 -337.41)">
   <path class="gui_icon_class" transform="matrix(.12673 0 0 .11845 -19.96 253.7)" d="m165.87 0 8.916 8.916c-5.801 9.4652-10.158 19.927-12.748 31.084h-26.033v48h26.037c2.6017 11.202 6.9851 21.704 12.822 31.199l-19.307 19.307 33.941 33.941 19.127-19.129c9.555 6.0107 20.127 10.515 31.379 13.184v25.498h16v-16-25.674c-18.066-1.6169-34.446-8.6662-47.574-19.439l-18.963 18.963-11.312-11.314 18.881-18.881c-11.089-13.166-18.298-29.637-19.959-47.654h-25.072v-16h25.07c1.6537-17.978 8.8338-34.414 19.879-47.564l-8.4356-8.4355h-22.648zm90.135 10.355c-14.262 2.2627-27.743 9.9371-36.977 22.527-18.395 25.081-13.128 60.284 11.6 78.311 7.7128 5.6226 16.448 8.9381 25.377 10.08v-18.258c-5.1221-1.0548-10.109-3.1883-14.625-6.4805-17.008-12.399-20.496-36.068-7.959-53.162 5.755-7.8467 13.859-12.889 22.584-14.863v-18.154zm-222.92 61.645v25.498c-11.299 2.6793-21.913 7.2086-31.5 13.256l-1.5762-1.5762v22.604l1.4043 1.4043c13.145-10.815 29.562-17.892 47.672-19.512v-25.674h16v25.674c18.101 1.6179 34.508 8.6871 47.648 19.492l18.801-18.801 11.312 11.314-18.73 18.732c11.054 13.154 18.238 29.599 19.893 47.588h25.076v16h-25.078c-1.6634 18.054-8.8951 34.555-20.02 47.734l0.26562 0.26562h22.578l-0.68165-0.68164c5.8724-9.5269 10.281-20.07 12.893-31.318h26.043v-48h-26.039c-2.5941-11.179-6.9624-21.66-12.779-31.141l19.174-19.174-33.941-33.941-18.971 18.973c-9.5716-6.0294-20.166-10.547-31.443-13.221v-25.496h-48zm23.873 71.953c-17.074 0.30861-33.937 8.356-44.859 23.248-18.395 25.081-13.128 60.286 11.6 78.312 24.728 18.026 59.974 12.357 78.369-12.725 18.395-25.081 13.126-60.286-11.602-78.312-10.046-7.3233-21.825-10.735-33.508-10.523zm-0.080078 17.932c7.9131-0.12676 15.919 2.2267 22.828 7.2637 17.008 12.399 20.506 36.054 7.9688 53.148-12.537 17.094-36.209 20.944-53.217 8.5449-17.008-12.399-20.492-36.045-7.9551-53.139 7.4439-10.15 18.81-15.633 30.375-15.818z"/>
  </g>
 </g>
</svg>
