<?xml version="1.0" encoding="UTF-8"?>
<svg width="256" height="256" version="1.1" viewBox="0 0 67.733 67.733" xmlns="http://www.w3.org/2000/svg">
 <g transform="translate(0 -229.27)">
  <g transform="matrix(.43416 0 0 .43416 -25.566 254.49)" stroke-width=".16421">
   <path d="m79.773-54.602a19.531 25.561 0 0 0-19.529 25.561 19.531 25.561 0 0 0 19.529 25.563 19.531 25.561 0 0 0 19.531-25.563 19.531 25.561 0 0 0-19.531-25.561zm0 6.916a13.255 18.646 0 0 1 1.3242 0.0918 13.255 18.646 0 0 1 1.3086 0.2793 13.255 18.646 0 0 1 1.2852 0.46094 13.255 18.646 0 0 1 1.2441 0.63867 13.255 18.646 0 0 1 1.1934 0.81055 13.255 18.646 0 0 1 1.1289 0.97461 13.255 18.646 0 0 1 1.0547 1.1289 13.255 18.646 0 0 1 0.9707 1.2695 13.255 18.646 0 0 1 0.87305 1.4004 13.255 18.646 0 0 1 0.77148 1.5156 13.255 18.646 0 0 1 0.6582 1.6172 13.255 18.646 0 0 1 0.54102 1.7012 13.255 18.646 0 0 1 0.41797 1.7695 13.255 18.646 0 0 1 0.29101 1.8184 13.255 18.646 0 0 1 0.16016 1.8496 13.255 18.646 0 0 1 0.0332 1.3184 13.255 18.646 0 0 1-0.0664 1.8613 13.255 18.646 0 0 1-0.19922 1.8438 13.255 18.646 0 0 1-0.32617 1.8066 13.255 18.646 0 0 1-0.45508 1.75 13.255 18.646 0 0 1-0.57617 1.6777 13.255 18.646 0 0 1-0.69336 1.5898 13.255 18.646 0 0 1-0.80078 1.4844 13.255 18.646 0 0 1-0.9043 1.3633 13.255 18.646 0 0 1-0.99414 1.2305 13.255 18.646 0 0 1-1.0781 1.084 13.255 18.646 0 0 1-1.1484 0.92774 13.255 18.646 0 0 1-1.2109 0.75976 13.255 18.646 0 0 1-1.2559 0.58789 13.255 18.646 0 0 1-1.293 0.4082 13.255 18.646 0 0 1-1.3164 0.22461 13.255 18.646 0 0 1-0.9375 0.04687 13.255 18.646 0 0 1-1.3223-0.0918 13.255 18.646 0 0 1-1.3105-0.2793 13.255 18.646 0 0 1-1.2832-0.46094 13.255 18.646 0 0 1-1.2461-0.63867 13.255 18.646 0 0 1-1.1914-0.81055 13.255 18.646 0 0 1-1.1309-0.97461 13.255 18.646 0 0 1-1.0547-1.1289 13.255 18.646 0 0 1-0.96875-1.2695 13.255 18.646 0 0 1-0.875-1.4004 13.255 18.646 0 0 1-0.76953-1.5156 13.255 18.646 0 0 1-0.66016-1.6172 13.255 18.646 0 0 1-0.54102-1.7012 13.255 18.646 0 0 1-0.41797-1.7695 13.255 18.646 0 0 1-0.29102-1.8184 13.255 18.646 0 0 1-0.1582-1.8496 13.255 18.646 0 0 1-0.0332-1.3203 13.255 18.646 0 0 1 0.06641-1.8613 13.255 18.646 0 0 1 0.19727-1.8418 13.255 18.646 0 0 1 0.32812-1.8066 13.255 18.646 0 0 1 0.45312-1.75 13.255 18.646 0 0 1 0.57812-1.6797 13.255 18.646 0 0 1 0.69141-1.5879 13.255 18.646 0 0 1 0.80273-1.4844 13.255 18.646 0 0 1 0.90234-1.3633 13.255 18.646 0 0 1 0.99609-1.2305 13.255 18.646 0 0 1 1.0762-1.084 13.255 18.646 0 0 1 1.1504-0.92773 13.255 18.646 0 0 1 1.209-0.76172 13.255 18.646 0 0 1 1.2578-0.58789 13.255 18.646 0 0 1 1.293-0.4082 13.255 18.646 0 0 1 1.3145-0.22461 13.255 18.646 0 0 1 0.9375-0.04492z"/>
   <g fill-rule="evenodd">
    <path d="m197.12-54.49h9.4609l-16.312 43.389 24.631-0.32624-5.7566 7.8771-31.271-0.047407z"/>
    <path d="m102.87-54.299h-9.1233l19.109 50.675h11.757l18.512-50.666-8.3181-0.04769-16.153 42.661z"/>
    <path d="m168.12-3.5849h9.1233l-19.109-50.675h-11.757l-18.512 50.666 8.3181 0.0477 16.153-42.661z"/>
   </g>
  </g>
  <g fill="#90a58c">
   <path d="m8.4788 230.33a8.4794 11.098 0 0 0-8.4788 11.097 8.4794 11.098 0 0 0 8.4788 11.098 8.4794 11.098 0 0 0 8.4797-11.098 8.4794 11.098 0 0 0-8.4797-11.097zm0 3.0027a5.7547 8.0955 0 0 1 0.57492 0.0399 5.7547 8.0955 0 0 1 0.56814 0.12125 5.7547 8.0955 0 0 1 0.55796 0.20013 5.7547 8.0955 0 0 1 0.54016 0.27728 5.7547 8.0955 0 0 1 0.51811 0.35191 5.7547 8.0955 0 0 1 0.49013 0.42314 5.7547 8.0955 0 0 1 0.4579 0.49012 5.7547 8.0955 0 0 1 0.42144 0.55118 5.7547 8.0955 0 0 1 0.37904 0.608 5.7547 8.0955 0 0 1 0.33495 0.65802 5.7547 8.0955 0 0 1 0.28576 0.70212 5.7547 8.0955 0 0 1 0.23489 0.73858 5.7547 8.0955 0 0 1 0.18147 0.76826 5.7547 8.0955 0 0 1 0.12634 0.78946 5.7547 8.0955 0 0 1 0.06954 0.80303 5.7547 8.0955 0 0 1 0.01441 0.57237 5.7547 8.0955 0 0 1-0.02883 0.80812 5.7547 8.0955 0 0 1-0.08649 0.80048 5.7547 8.0955 0 0 1-0.14161 0.78437 5.7547 8.0955 0 0 1-0.19758 0.75978 5.7547 8.0955 0 0 1-0.25015 0.72841 5.7547 8.0955 0 0 1-0.30103 0.69025 5.7547 8.0955 0 0 1-0.34767 0.64445 5.7547 8.0955 0 0 1-0.39261 0.59189 5.7547 8.0955 0 0 1-0.43162 0.53422 5.7547 8.0955 0 0 1-0.46808 0.47062 5.7547 8.0955 0 0 1-0.4986 0.40278 5.7547 8.0955 0 0 1-0.52574 0.32986 5.7547 8.0955 0 0 1-0.54524 0.25524 5.7547 8.0955 0 0 1-0.56136 0.17723 5.7547 8.0955 0 0 1-0.57153 0.0975 5.7547 8.0955 0 0 1-0.40702 0.0203 5.7547 8.0955 0 0 1-0.57407-0.0399 5.7547 8.0955 0 0 1-0.56899-0.12126 5.7547 8.0955 0 0 1-0.55712-0.20012 5.7547 8.0955 0 0 1-0.541-0.27729 5.7547 8.0955 0 0 1-0.51726-0.35191 5.7547 8.0955 0 0 1-0.49097-0.42313 5.7547 8.0955 0 0 1-0.4579-0.49013 5.7547 8.0955 0 0 1-0.42059-0.55118 5.7547 8.0955 0 0 1-0.37989-0.60799 5.7547 8.0955 0 0 1-0.3341-0.65803 5.7547 8.0955 0 0 1-0.28661-0.70211 5.7547 8.0955 0 0 1-0.23489-0.73859 5.7547 8.0955 0 0 1-0.18147-0.76826 5.7547 8.0955 0 0 1-0.12635-0.78946 5.7547 8.0955 0 0 1-0.068685-0.80302 5.7547 8.0955 0 0 1-0.014414-0.57323 5.7547 8.0955 0 0 1 0.028833-0.80811 5.7547 8.0955 0 0 1 0.085645-0.79964 5.7547 8.0955 0 0 1 0.14246-0.78437 5.7547 8.0955 0 0 1 0.19673-0.75978 5.7547 8.0955 0 0 1 0.251-0.72925 5.7547 8.0955 0 0 1 0.30018-0.6894 5.7547 8.0955 0 0 1 0.34852-0.64446 5.7547 8.0955 0 0 1 0.39176-0.59188 5.7547 8.0955 0 0 1 0.43246-0.53422 5.7547 8.0955 0 0 1 0.46723-0.47063 5.7547 8.0955 0 0 1 0.49945-0.40278 5.7547 8.0955 0 0 1 0.52489-0.33071 5.7547 8.0955 0 0 1 0.54609-0.25524 5.7547 8.0955 0 0 1 0.56136-0.17722 5.7547 8.0955 0 0 1 0.57068-0.0975 5.7547 8.0955 0 0 1 0.40703-0.0195z"/>
   <g fill-rule="evenodd">
    <path d="m59.424 230.38h4.1075l-7.0819 18.838 10.694-0.14164-2.4993 3.4199-13.577-0.0206z"/>
    <path d="m18.506 230.46h-3.961l8.2962 22.001h5.1044l8.0372-21.997-3.6114-0.0207-7.013 18.522z"/>
    <path d="m46.836 252.48h3.961l-8.2962-22.001h-5.1044l-8.0372 21.997 3.6114 0.0207 7.013-18.522z"/>
   </g>
  </g>
  <g>
   <path d="m36.192 245.81 3.519 6.6724 20.52-23.216-20.52 19.194z" fill-rule="evenodd"/>
   <path d="m55.033 280.07h8.4667v16.933h-8.4667z" style="paint-order:normal"/>
   <path d="m55.033 267.37h8.4667v8.4667h-8.4667z" style="paint-order:normal"/>
  </g>
 </g>
</svg>
