<?xml version="1.0" encoding="UTF-8"?>
<svg width="256" height="256" version="1.1" viewBox="0 0 67.733 67.733" xmlns="http://www.w3.org/2000/svg">
 <g transform="translate(0 -229.27)">
  <g transform="matrix(2.0878 0 0 2.2337 41.673 -337.41)">
   <path class="gui_icon_class" transform="matrix(.12673 0 0 .11845 -19.96 253.7)" d="m128.08 52.461c-46.852 0.04221-93.484 25.76-126.99 75.539 33.506 49.779 80.138 75.497 126.99 75.539 46.842 0.04221 93.449-25.622 126.83-75.539-33.381-49.917-79.988-75.577-126.83-75.539zm0.01562 18.615c37.566-0.033769 75.274 18.527 104.87 56.924-29.595 38.397-67.303 56.958-104.87 56.924-37.546-0.03377-75.312-18.652-105.01-56.924 29.697-38.272 67.463-56.893 105.01-56.924zm-0.0957 8.9238a48 48 0 0 0-48 48 48 48 0 0 0 48 48 48 48 0 0 0 48-48 48 48 0 0 0-48-48zm16.104 15.896a16 16 0 0 1 16 16 16 16 0 0 1-16 16 16 16 0 0 1-16-16 16 16 0 0 1 16-16z"/>
  </g>
 </g>
</svg>
