<?xml version="1.0" encoding="UTF-8"?>
<svg width="256" height="256" version="1.1" viewBox="0 0 67.733 67.733" xmlns="http://www.w3.org/2000/svg">
 <g transform="translate(0 -229.27)">
  <g transform="matrix(2.0878 0 0 2.2337 41.673 -337.41)">
   <path class="gui_icon_class" transform="matrix(.12673 0 0 .11845 -19.96 253.7)" d="m133.58-0.12891-44.617 43.037 44.902 42.373-0.09571-34.475c36.829 2.202 69.609 25.608 82.834 60.4 15.388 40.484 0.90995 85.857-35.709 110.23-36.619 24.37-85.653 20.359-117.73-9.4805-32.076-29.839-39.032-76.793-17.201-114.38l-14.779-9.8262c-26.2 45.112-17.506 102.85 20.559 138.26 38.065 35.411 95.145 40 138.35 11.246 43.207-28.754 61.196-84.2 42.629-133.05-16.066-42.267-55.334-69.794-98.859-72.041v-0.50586c-0.0561 5.06e-4 -0.11179-0.0025-0.16797-2e-3z"/>
  </g>
 </g>
</svg>
