<?xml version="1.0" encoding="UTF-8"?>
<svg width="256" height="256" version="1.1" viewBox="0 0 67.733 67.733" xmlns="http://www.w3.org/2000/svg">
 <g transform="translate(0 -229.27)">
  <g transform="matrix(2.0878 0 0 2.2337 41.673 -337.41)">
   <path class="gui_icon_class" transform="matrix(.12673 0 0 .11845 -19.96 253.7)" d="m80 0v16 16h-80v16h256v-16h-80v-16-16h-96zm16 16h64v16h-64v-16zm-80 47.727 16.975 192.27h190.04l16.982-192.27h-16l-16 176h-160l-16-176h-16zm112.48 0.30274-64.678 64.047 48.201-0.07617 0.47656 96.029 32 0.00195-0.47656-96.031h48l-63.523-63.971z"/>
  </g>
 </g>
</svg>
