<?xml version="1.0" encoding="UTF-8"?>
<svg width="256" height="256" version="1.1" viewBox="0 0 67.733 67.733" xmlns="http://www.w3.org/2000/svg">
 <g transform="translate(0 -229.27)">
  <g transform="matrix(2.0878 0 0 2.2337 41.673 -337.41)">
   <g transform="matrix(.70711 .66092 -.75652 .70711 207.77 81.238)">
    <path class="gui_icon_class" transform="matrix(.089611 -.083759 .089611 .083759 -30.561 272.46)" d="m64 0v48h-32v16h31.992c0.002128 35.238 28.771 64.006 64.01 64.006 35.238-1e-5 63.994-28.768 63.996-64.006h32.002v-16h-32v-48h-8-8-96-16zm16 16h96v32h-96v-32zm2.002 48h92.002c-0.00318 25.509-20.492 45.996-46.002 45.996-25.51 2e-5 -45.997-20.487-46-45.996zm14.803 79.973c-29.255-4e-5 -52.999 6.0077-70.135 17.824-17.129 11.812-26.92 30.128-26.674 50.301 1.0758e-4 0.00774 0.0015058 0.013 0 0.02343l-0.0058594 43.879 256.01-0.00195 0.00196-45.096c0.25257-20.087-9.1265-37.673-25.77-49.252-16.643-11.579-40.156-17.676-69.42-17.676l-4.9004-0.00195-27.914 24.027-26.848-24.016-4.3477-0.01172zm-5.2559 18.484 36.451 29.543 36.121-29.492c24.207 0.68258 43.132 5.8007 55.162 14.17 12.859 8.9464 18.88 20.579 18.695 35.227l-0.00196 0.04687 0.01172 27.545-219.97-0.00976 0.005859-28.74 0.003907-0.06836c-0.1853-14.732 5.6148-25.6 18.178-34.264 11.839-8.1638 30.871-13.341 55.346-13.957z"/>
   </g>
  </g>
 </g>
</svg>
