<?xml version="1.0" encoding="UTF-8"?>
<svg width="256" height="256" version="1.1" viewBox="0 0 67.733 67.733" xmlns="http://www.w3.org/2000/svg">
 <g transform="translate(0 -229.27)">
  <g transform="matrix(2.0878 0 0 2.2337 41.673 -337.41)">
   <path class="gui_icon_class" transform="matrix(.12673 0 0 .11845 -19.96 253.7)" d="m128 0.0078125c-70.26 0-128.01 57.023-128.01 127.98 0 70.961 57.75 128 128.01 128s127.99-57.041 127.99-128c0-70.961-57.734-127.98-127.99-127.98zm0 18.615c61.514 0 110.6 49.228 110.6 109.37 0 60.141-49.082 109.38-110.6 109.38-61.514 0-110.59-49.244-110.59-109.38 0-60.141 49.08-109.37 110.59-109.37zm-9.0039 29.377v89h74v-18h-56v-71h-18z"/>
  </g>
 </g>
</svg>
