<?xml version="1.0" encoding="UTF-8"?>
<svg width="256" height="256" version="1.1" viewBox="0 0 67.733 67.733" xmlns="http://www.w3.org/2000/svg">
 <g transform="translate(0 -229.27)">
  <g transform="matrix(2.0878 0 0 2.2337 41.673 -337.41)">
   <path class="gui_icon_class" transform="matrix(.12673 0 0 .11845 -19.96 253.7)" d="m72.037 0.0097656c-0.70034-0.017504-1.4141-0.012234-2.1387 0.015625l-0.001954 0.029297c-7.8513 0.29126-16.658 3.0838-21.355 9.0312-6.8338 15.37 9.7662 8.273 11.719 18.914 1.9525 10.641-9.7656 11.229-9.7656 11.229h-50.494l0.066406 52.857s0.55607 12.372 10.637 10.311c11.214-4.7785 5.7405-18.296 17.92-12.371 16.258 9.2233 11.388 43.336-0.38672 49.918-14.561 7.2138-7.8375-10.31-17.918-12.371-7.3444-1.5001-9.6146 4.6224-10.316 8.0762v56.113l50.672 0.24023s11.718-1.2575 9.7656-11.896c-1.9521-10.641-18.537-3.5465-11.703-18.916 5.4392-12.377 40.234-12.453 47.295 0.39844 6.8338 15.37-9.7662 8.2729-11.719 18.914-1.9525 10.641 9.7656 11.229 9.7656 11.229l50.203 0.01758v-55.67c0.71573-3.4619 2.9974-9.5183 10.299-8.0254 10.08 2.0611 3.3572 19.585 17.918 12.371 4.7562-4.1856 7.3727-11.456 8.248-18.607 0-0.12495 0.04883-0.20767 0.04883-0.33008 0.49899-2.5142 0.75125-5.3937 0.64453-8.4531-0.29074-8.2879-2.9195-17.584-8.5547-22.543-14.561-7.2138-7.8375 10.31-17.918 12.371-10.08 2.0614-10.639-10.311-10.639-10.311l-0.04687-53.352h-52.771c-3.3089-0.80623-8.7629-3.2667-7.377-10.82 1.9525-10.641 18.537-3.5446 11.703-18.914-3.9653-5.0202-10.837-7.7832-17.611-8.707-0.10668-0.016884-0.22097-0.050781-0.32031-0.050781-1.787-0.39573-3.7662-0.64475-5.8672-0.69727zm103.96 159.99-16 16 32 32-32 32 16 16 32-32 32 32 16-16-32-32 32-32-16-16-32 32-32-32z"/>
  </g>
 </g>
</svg>
