<?xml version="1.0" encoding="UTF-8"?>
<svg width="256" height="256" version="1.1" viewBox="0 0 67.733 67.733" xmlns="http://www.w3.org/2000/svg">
 <g transform="translate(0 -229.27)">
  <g transform="matrix(2.0878 0 0 2.2337 41.673 -337.41)">
   <path class="gui_icon_class" transform="matrix(.12673 0 0 .11845 -19.96 253.7)" d="m120 0v16.291c-55.134 3.9224-99.777 48.024-103.71 103.71h-16.295v16h16.295c3.9355 55.679 48.576 99.786 103.71 103.71v16.291h16v-16.291c55.133-3.919 99.777-48.027 103.71-103.71h16.287v-16h-16.287c-3.9286-55.688-48.574-99.791-103.71-103.71v-16.291h-16zm0 34.949v29.572c-28.648 3.6173-51.852 26.353-55.486 55.479h-30.758c3.8656-45.032 40.087-81.265 86.244-85.051zm16 0c46.161 3.7824 82.386 40.016 86.252 85.051h-30.773c-3.6329-29.128-26.828-51.865-55.479-55.479v-29.572zm0 48.334c19.502 3.2413 34.474 18.136 37.859 36.717h-29.859v16h29.857c-3.3905 18.576-18.361 33.474-37.857 36.717v-28.717h-16v28.715c-19.494-3.2461-34.471-18.142-37.863-36.715h29.863v-16h-29.865c3.3872-18.578 18.366-33.47 37.865-36.715v28.715h16v-28.717zm-102.24 52.717h30.76c3.6406 29.12 26.841 51.86 55.484 55.479v29.572c-46.152-3.7869-82.372-40.024-86.244-85.051zm157.72 0h30.775c-3.8728 45.029-40.097 81.267-86.252 85.051v-29.57c28.645-3.6151 51.837-26.358 55.477-55.48z"/>
  </g>
 </g>
</svg>
