<?xml version="1.0" encoding="UTF-8"?>
<svg
   xmlns="http://www.w3.org/2000/svg"
   viewBox="0 0 67.733 67.733"
   version="1.1"
   height="256"
   width="256">
  <g transform="translate(0 -229.27)">
    <g transform="matrix(0.28380106,0,0,0.30015647,-6.8065458,220.66117)">
      <path
         d="m 213.67318,99.942709 v 8.208331 q -4.79166,-2.29166 -9.04166,-3.41666 -4.25,-1.125 -8.20834,-1.125 -6.875,0 -10.625,2.66666 -3.70833,2.66667 -3.70833,7.58334 0,4.125 2.45833,6.25 2.5,2.08333 9.41667,3.375 l 5.08333,1.04166 q 9.41667,1.79167 13.875,6.33334 4.5,4.5 4.5,12.08333 0,9.04167 -6.08333,13.70833 -6.04167,4.66667 -17.75,4.66667 -4.41667,0 -9.41667,-1 -4.95833,-1 -10.29166,-2.95833 v -8.66667 q 5.125,2.875 10.04166,4.33333 4.91667,1.45834 9.66667,1.45834 7.20833,0 11.125,-2.83334 3.91667,-2.83333 3.91667,-8.08333 0,-4.58333 -2.83334,-7.16667 -2.79166,-2.58333 -9.20833,-3.875 l -5.125,-1 q -9.41667,-1.875 -13.625,-5.875 -4.20833,-4 -4.20833,-11.125 0,-8.25 5.79166,-13 5.83334,-4.749998 16.04167,-4.749998 4.375,0 8.91667,0.791667 4.54166,0.791666 9.29166,2.375 z m -84.79167,-2.041667 h 8.41667 v 55.124998 h 30.29167 v 7.08334 h -38.70834 z m -60.791666,0 h 52.625006 v 7.083338 H 98.631511 v 55.125 h -8.458333 v -55.125 H 68.089844 Z M 143.95769,28.681141 39.114298,56.757838 38.910363,67.517986 c -0.205948,18.090482 0.189224,42.060394 4.393709,66.983174 4.204457,24.92367 12.216502,50.91568 27.624174,72.78328 15.407672,21.86848 38.375144,39.33664 70.877904,46.71105 l 1.50944,0.3426 1.50767,-0.3426 c 32.50276,-7.37494 55.46557,-24.84257 70.87231,-46.71105 15.40767,-21.86848 23.41962,-47.86049 27.62417,-72.78328 4.20446,-24.92366 4.59965,-48.892692 4.39371,-66.983174 L 247.51134,56.757838 143.95448,28.681141 Z m -0.25674,14.91277 89.36301,24.117999 c 0.20106,17.662968 -0.22274,40.63152 -4.15877,63.96325 -3.93606,23.3326 -11.38678,46.9129 -24.87864,66.06204 -13.24013,18.79125 -32.2585,33.47484 -60.71053,40.31684 C 114.86305,231.21169 95.838164,216.52845 82.598026,197.7372 69.106175,178.58806 61.655451,155.00688 57.719395,131.67516 53.78334,108.34255 53.359528,85.373996 53.56062,67.71191 l 90.13959,-24.117999 z"
      />
    </g>
  </g>
</svg>
