<?xml version="1.0" encoding="UTF-8" standalone="no"?>
<!-- Created with Inkscape (http://www.inkscape.org/) -->

<svg
   xmlns:dc="http://purl.org/dc/elements/1.1/"
   xmlns:cc="http://creativecommons.org/ns#"
   xmlns:rdf="http://www.w3.org/1999/02/22-rdf-syntax-ns#"
   xmlns:svg="http://www.w3.org/2000/svg"
   xmlns="http://www.w3.org/2000/svg"
   xmlns:xlink="http://www.w3.org/1999/xlink"
   xmlns:sodipodi="http://sodipodi.sourceforge.net/DTD/sodipodi-0.dtd"
   xmlns:inkscape="http://www.inkscape.org/namespaces/inkscape"
   width="52.509098"
   height="52.52018"
   viewBox="0 0 52.509098 52.52018"
   id="svg5160"
   sodipodi:version="0.32"
   inkscape:version="0.48.5 r10040"
   sodipodi:docname="alterable.svg"
   version="1.0"
   inkscape:export-xdpi="27.84"
   inkscape:export-ydpi="27.84"
   inkscape:output_extension="org.inkscape.output.svg.inkscape">
  <defs
     id="defs5162">
    <linearGradient
       inkscape:collect="always"
       id="linearGradient13960">
      <stop
         style="stop-color:white;stop-opacity:1;"
         offset="0"
         id="stop13962" />
      <stop
         style="stop-color:white;stop-opacity:0;"
         offset="1"
         id="stop13964" />
    </linearGradient>
    <linearGradient
       id="linearGradient3898">
      <stop
         style="stop-color:#0065cd;stop-opacity:1;"
         offset="0"
         id="stop3900" />
      <stop
         style="stop-color:white;stop-opacity:1;"
         offset="1"
         id="stop3902" />
    </linearGradient>
    <linearGradient
       inkscape:collect="always"
       xlink:href="#linearGradient3898"
       id="linearGradient13956"
       x1="46.591862"
       y1="89.585007"
       x2="43.591812"
       y2="-74.733185"
       gradientUnits="userSpaceOnUse" />
    <linearGradient
       inkscape:collect="always"
       xlink:href="#linearGradient13960"
       id="linearGradient13966"
       x1="26.48"
       y1="1.3939171"
       x2="26.48"
       y2="52.84341"
       gradientUnits="userSpaceOnUse" />
  </defs>
  <sodipodi:namedview
     id="base"
     pagecolor="#ffffff"
     bordercolor="#666666"
     borderopacity="1.0"
     inkscape:pageopacity="0.0"
     inkscape:pageshadow="2"
     inkscape:zoom="2.8284271"
     inkscape:cx="-38.451969"
     inkscape:cy="19.848639"
     inkscape:current-layer="layer1"
     showgrid="false"
     inkscape:document-units="px"
     inkscape:grid-bbox="true"
     inkscape:window-width="1680"
     inkscape:window-height="1030"
     inkscape:window-x="-3"
     inkscape:window-y="-3"
     showguides="true"
     inkscape:guide-bbox="true"
     inkscape:window-maximized="1">
    <sodipodi:guide
       orientation="vertical"
       position="-45.454545"
       id="guide5214" />
    <sodipodi:guide
       orientation="horizontal"
       position="61.454545"
       id="guide5226" />
    <sodipodi:guide
       orientation="vertical"
       position="393.92276"
       id="guide5230" />
    <sodipodi:guide
       orientation="horizontal"
       position="62.181818"
       id="guide5232" />
    <sodipodi:guide
       orientation="vertical"
       position="438.14907"
       id="guide5236" />
    <inkscape:grid
       type="xygrid"
       id="grid12872" />
  </sodipodi:namedview>
  <metadata
     id="metadata5165">
    <rdf:RDF>
      <cc:Work
         rdf:about="">
        <dc:format>image/svg+xml</dc:format>
        <dc:type
           rdf:resource="http://purl.org/dc/dcmitype/StillImage" />
        <dc:title />
      </cc:Work>
    </rdf:RDF>
  </metadata>
  <g
     id="layer1"
     inkscape:label="Layer 1"
     inkscape:groupmode="layer"
     transform="translate(-3.819132,-6.155729)">
    <g
       inkscape:label="shadow"
       style="display:inline"
       id="layer4"
       transform="translate(-392.7904,328.2799)" />
    <g
       inkscape:label="shadow"
       id="g3039"
       transform="translate(-840.833,182.2722)" />
    <g
       inkscape:label="color"
       id="g3041"
       transform="translate(-840.833,182.2722)">
      <path
         style="opacity:1;fill:#71c000;fill-opacity:1;stroke:#71c000;stroke-width:3.37896037;stroke-linejoin:bevel;stroke-miterlimit:4;stroke-dasharray:none;stroke-opacity:1"
         d=""
         id="path3043" />
      <path
         style="opacity:1;fill:#71c000;fill-opacity:1;stroke:#71c000;stroke-width:3.37896037;stroke-linejoin:bevel;stroke-miterlimit:4;stroke-dasharray:none;stroke-opacity:1"
         d=""
         id="path3045" />
      <path
         style="opacity:1;fill:#71c000;fill-opacity:1;stroke:#71c000;stroke-width:3.37896037;stroke-linejoin:bevel;stroke-miterlimit:4;stroke-dasharray:none;stroke-opacity:1"
         d=""
         id="path3047" />
    </g>
    <g
       inkscape:label="highlight"
       id="g3049"
       transform="translate(-840.833,182.2722)" />
    <g
       inkscape:label="text"
       id="g3089"
       transform="translate(-840.833,182.2722)" />
    <g
       id="g4774"
       inkscape:label="shadow"
       transform="translate(-1426.607,-26.2895)" />
    <g
       id="layer2"
       inkscape:label="color"
       transform="translate(-1426.607,-26.2895)">
      <path
         style="opacity:1;fill:#71c000;fill-opacity:1;stroke:#71c000;stroke-width:3.37896037;stroke-linejoin:bevel;stroke-miterlimit:4;stroke-dasharray:none;stroke-opacity:1"
         d=""
         id="path3422" />
      <path
         style="opacity:1;fill:#71c000;fill-opacity:1;stroke:#71c000;stroke-width:3.37896037;stroke-linejoin:bevel;stroke-miterlimit:4;stroke-dasharray:none;stroke-opacity:1"
         d=""
         id="path3426" />
      <path
         style="opacity:1;fill:#71c000;fill-opacity:1;stroke:#71c000;stroke-width:3.37896037;stroke-linejoin:bevel;stroke-miterlimit:4;stroke-dasharray:none;stroke-opacity:1"
         d=""
         id="path3428" />
    </g>
    <g
       id="g5777"
       inkscape:label="highlight"
       transform="translate(-1426.607,-26.2895)" />
    <g
       id="layer5"
       inkscape:label="text"
       transform="translate(-1426.607,-26.2895)" />
    <rect
       style="opacity:1;color:black;fill:url(#linearGradient13956);fill-opacity:1.0;fill-rule:evenodd;stroke:#2b2b2b;stroke-width:0.99650371;stroke-linecap:butt;stroke-linejoin:miter;marker:none;marker-start:none;marker-mid:none;marker-end:none;stroke-miterlimit:4;stroke-dasharray:none;stroke-dashoffset:0;stroke-opacity:1;visibility:visible;display:inline;overflow:visible"
       id="rect13948"
       width="50.730724"
       height="50.548958"
       x="4.9082928"
       y="7.219615"
       ry="7.0913997" />
    <g
       id="g6007"
       transform="matrix(-3.973892e-3,0.629601,-0.629601,-3.973892e-3,295.5792,-273.6194)"
       inkscape:export-xdpi="27.42"
       inkscape:export-ydpi="27.42"
       style="fill:white">
      <g
         transform="translate(415.3267,354.416)"
         id="g6011"
         style="fill:white" />
    </g>
    <g
       id="g3192"
       inkscape:label="openvaslogo"
       style="display:inline"
       transform="translate(-996.7028,556.527)" />
    <path
       style="opacity:1;color:black;fill:none;fill-opacity:1;fill-rule:evenodd;stroke:url(#linearGradient13966);stroke-width:1;stroke-linecap:butt;stroke-linejoin:miter;marker:none;marker-start:none;marker-mid:none;marker-end:none;stroke-miterlimit:4;stroke-dasharray:none;stroke-dashoffset:0;stroke-opacity:1;visibility:visible;display:inline;overflow:visible"
       d="M 2.1818182,45.429271 L 2,7.792907 C 2,7.792907 3.0909091,2.1565434 7.4545455,1.9747252 C 11.818182,1.792907 44.909091,1.9747252 44.909091,1.9747252 C 44.909091,1.9747252 50.727273,1.9747252 50.909091,9.2474525 C 51.090909,16.52018 50.727273,45.974725 50.727273,45.974725"
       id="path13958"
       transform="translate(3.819132,6.155729)" />
    <path
       d="m 95.419482,53.660061 14.398948,0 0,-2.667875 0.002,-0.200692 0.006,-0.200545 0.0106,-0.200472 0.0149,-0.200094 0.0193,-0.199802 0.0234,-0.199356 0.0277,-0.198758 0.0319,-0.198162 0.0361,-0.19742 0.0403,-0.196603 0.0444,-0.195707 0.0485,-0.194737 0.0527,-0.193627 0.0568,-0.192506 0.0609,-0.191246 0.065,-0.189902 0.069,-0.188414 0.073,-0.187002 0.0769,-0.185366 0.0809,-0.183649 0.0848,-0.181941 0.0887,-0.180085 0.0923,-0.178145 0.0961,-0.176137 0.0999,-0.174052 0.10359,-0.171896 0.1073,-0.169665 0.1108,-0.167353 0.11423,-0.164973 0.12405,-0.178818 0.12032,-0.181273 0.11654,-0.183726 0.11281,-0.186107 0.10887,-0.188414 0.10507,-0.190576 0.10105,-0.192656 0.0971,-0.19474 0.0931,-0.196748 0.089,-0.198538 0.085,-0.200319 0.0807,-0.202107 0.0767,-0.20367 0.0723,-0.205159 0.0682,-0.206645 0.0639,-0.207989 0.0597,-0.209325 0.0552,-0.210442 0.051,-0.211559 0.0465,-0.212522 0.0423,-0.213494 0.0378,-0.214239 0.0334,-0.215052 0.029,-0.215651 0.0245,-0.216174 0.02,-0.216691 0.0156,-0.217064 0.0112,-0.217213 0.007,-0.217511 0.002,-0.217659 0,-12.415013 -0.002,-0.106261 -0.006,-0.105966 -0.0107,-0.105593 -0.0149,-0.105221 -0.0191,-0.104401 -0.0233,-0.103584 -0.0276,-0.102616 -0.0316,-0.101351 -0.0356,-0.100087 -0.0397,-0.09838 -0.0436,-0.09696 -0.0474,-0.09495 -0.0513,-0.09302 -0.0548,-0.09093 -0.0586,-0.08855 -0.0621,-0.08617 -0.0654,-0.08349 -0.0688,-0.08096 -0.072,-0.07806 -0.075,-0.07508 -0.0781,-0.07203 -0.0809,-0.06876 -0.0836,-0.06548 -0.0861,-0.06213 -0.0886,-0.05849 -0.0908,-0.05499 -0.093,-0.0512 -0.095,-0.04748 -0.0969,-0.04353 -0.0985,-0.03966 -0.10001,-0.03564 -0.10135,-0.03155 -0.10262,-0.02753 -0.10351,-0.02337 -0.10448,-0.01905 -0.10521,-0.01496 -0.1056,-0.01072 -0.10604,-0.0064 -0.10618,-0.0022 -0.10612,0.0022 -0.10604,0.0064 -0.10559,0.01072 -0.10507,0.01496 -0.10456,0.01905 -0.10358,0.02337 -0.10261,0.02753 -0.10136,0.03155 -0.0999,0.03564 -0.0986,0.03966 -0.0969,0.04353 -0.0949,0.04748 -0.093,0.0512 -0.0909,0.05499 -0.0885,0.05849 -0.0862,0.06213 -0.0836,0.06548 -0.081,0.06876 -0.078,0.07203 -0.0751,0.07508 -0.072,0.07806 -0.0688,0.08096 -0.0655,0.08349 -0.0621,0.08617 -0.0584,0.08855 -0.0551,0.09093 -0.0512,0.09302 -0.0474,0.09495 -0.0436,0.09696 -0.0396,0.09838 -0.0356,0.100087 -0.0317,0.101351 -0.0274,0.102616 -0.0234,0.103584 -0.0191,0.104401 -0.0148,0.105221 -0.0107,0.105593 -0.006,0.105966 -0.002,0.106261 0,-2.254805 -0.002,-0.106486 -0.006,-0.106411 -0.0107,-0.105966 -0.015,-0.105518 -0.0192,-0.104923 -0.0234,-0.103882 -0.0276,-0.102988 -0.0317,-0.101796 -0.0358,-0.100384 -0.0397,-0.0989 -0.0438,-0.09718 -0.0476,-0.09525 -0.0513,-0.09339 -0.0551,-0.09116 -0.0588,-0.089 -0.0624,-0.08639 -0.0657,-0.08394 -0.0691,-0.08119 -0.0722,-0.07836 -0.0755,-0.07538 -0.0784,-0.07218 -0.0811,-0.06913 -0.0839,-0.06571 -0.0865,-0.06228 -0.0888,-0.05879 -0.0912,-0.05514 -0.0934,-0.05142 -0.0954,-0.04762 -0.0972,-0.04376 -0.0988,-0.03974 -0.10038,-0.03579 -0.1018,-0.03163 -0.10291,-0.02768 -0.10396,-0.02344 -0.10485,-0.01913 -0.10551,-0.01503 -0.10597,-0.01071 -0.10649,-0.0065 -0.10656,-0.002 -0.10648,0.002 -0.10641,0.0065 -0.10604,0.01071 -0.10552,0.01503 -0.10485,0.01913 -0.10396,0.02344 -0.10298,0.02768 -0.10173,0.03163 -0.10038,0.03579 -0.0988,0.03974 -0.0973,0.04376 -0.0953,0.04762 -0.0934,0.05142 -0.0912,0.05514 -0.0889,0.05879 -0.0865,0.06228 -0.0839,0.06571 -0.0812,0.06913 -0.0783,0.07218 -0.0754,0.07538 -0.0723,0.07836 -0.0691,0.08119 -0.0657,0.08394 -0.0623,0.08639 -0.0588,0.089 -0.0551,0.09116 -0.0513,0.09339 -0.0476,0.09525 -0.0438,0.09718 -0.0398,0.0989 -0.0356,0.100384 -0.0319,0.101796 -0.0275,0.102988 -0.0234,0.103882 -0.0191,0.104923 -0.015,0.105518 -0.0107,0.105966 -0.007,0.106411 -0.002,0.106486 0,-1.009123 -0.002,-0.106486 -0.006,-0.106411 -0.0107,-0.106038 -0.015,-0.105594 -0.0192,-0.104773 -0.0235,-0.103956 -0.0276,-0.102989 -0.0316,-0.101724 -0.0358,-0.100383 -0.0398,-0.0989 -0.0437,-0.09718 -0.0476,-0.09532 -0.0515,-0.09339 -0.0551,-0.09123 -0.0588,-0.08885 -0.0623,-0.08647 -0.0657,-0.08394 -0.069,-0.08118 -0.0723,-0.07836 -0.0754,-0.07531 -0.0783,-0.07225 -0.0812,-0.06906 -0.0839,-0.06578 -0.0864,-0.06228 -0.089,-0.05871 -0.0912,-0.05514 -0.0933,-0.05135 -0.0953,-0.0477 -0.0971,-0.04368 -0.099,-0.03981 -0.10039,-0.03587 -0.10179,-0.0317 -0.10284,-0.02753 -0.10403,-0.02344 -0.10478,-0.0192 -0.10559,-0.01503 -0.10604,-0.01072 -0.10641,-0.0064 -0.10649,-0.0022 -0.10656,0.0022 -0.10633,0.0064 -0.106044,0.01072 -0.105591,0.01503 -0.104774,0.0192 -0.104031,0.02344 -0.102838,0.02753 -0.101799,0.0317 -0.100384,0.03587 -0.0989,0.03981 -0.09719,0.04368 -0.09532,0.0477 -0.09331,0.05135 -0.09123,0.05514 -0.08892,0.05871 -0.08647,0.06228 -0.08386,0.06578 -0.08119,0.06906 -0.07836,0.07225 -0.07538,0.07531 -0.07225,0.07836 -0.06906,0.08118 -0.06571,0.08394 -0.06229,0.08647 -0.05879,0.08885 -0.05514,0.09123 -0.05142,0.09339 -0.04762,0.09532 -0.04376,0.09718 -0.03974,0.0989 -0.03579,0.100383 -0.0317,0.101724 -0.02762,0.102989 -0.02343,0.103956 -0.01921,0.104773 -0.01497,0.105594 -0.01072,0.106038 -0.0065,0.106411 -0.002,0.106486 0,-8.199854 -0.0021,-0.106114 -0.0064,-0.106039 -0.01072,-0.105668 -0.01488,-0.105145 -0.01912,-0.104403 -0.02337,-0.103585 -0.02744,-0.102615 -0.03162,-0.101352 -0.03565,-0.100011 -0.03966,-0.09852 -0.04353,-0.09689 -0.04747,-0.09495 -0.05127,-0.09302 -0.05492,-0.09086 -0.05856,-0.08863 -0.06206,-0.08617 -0.06548,-0.08357 -0.06876,-0.08089 -0.07203,-0.07806 -0.07508,-0.07508 -0.07806,-0.07203 -0.08089,-0.06876 -0.08356,-0.06549 -0.08617,-0.06213 -0.08863,-0.05849 -0.09086,-0.05499 -0.09302,-0.0512 -0.09503,-0.04748 -0.09681,-0.04353 -0.09852,-0.03966 -0.100012,-0.03564 -0.10135,-0.03163 -0.102616,-0.02746 -0.103585,-0.02337 -0.104475,-0.01913 -0.105074,-0.01488 -0.105667,-0.01071 -0.10604,-0.0064 -0.106113,-0.0022 -0.106189,0.0022 -0.106039,0.0064 -0.105592,0.01071 -0.105146,0.01488 -0.104475,0.01913 -0.103586,0.02337 -0.102615,0.02746 -0.101351,0.03163 -0.100015,0.03564 -0.09852,0.03966 -0.09681,0.04353 -0.09502,0.04748 -0.09302,0.0512 -0.09086,0.05499 -0.08863,0.05849 -0.08617,0.06213 -0.08357,0.06549 -0.08089,0.06876 -0.07806,0.07203 -0.07508,0.07508 -0.07196,0.07806 -0.06883,0.08089 -0.06548,0.08357 -0.06206,0.08617 -0.05856,0.08863 -0.05492,0.09086 -0.05127,0.09302 -0.0474,0.09495 -0.04361,0.09689 -0.03966,0.09852 -0.03564,0.100011 -0.03163,0.101352 -0.02744,0.102615 -0.02329,0.103585 -0.01921,0.104403 -0.01488,0.105145 -0.01072,0.105668 -0.0064,0.106039 -0.0021,0.106114 0,15.726936 -0.06191,-0.134168 -0.06586,-0.132381 -0.0698,-0.130299 -0.07359,-0.128214 -0.07739,-0.125981 -0.08111,-0.123527 -0.08476,-0.12122 -0.08825,-0.118615 -0.09175,-0.115862 -0.09518,-0.113183 -0.09845,-0.110208 -0.101722,-0.107378 -0.104774,-0.104179 -0.1079,-0.101053 -0.110802,-0.09785 -0.113704,-0.09451 -0.116458,-0.09116 -0.119061,-0.08759 -0.121668,-0.08401 -0.124046,-0.08029 -0.126354,-0.07679 -0.128663,-0.07285 -0.130668,-0.06906 -0.132754,-0.06511 -0.13454,-0.06117 -0.1364,-0.05715 -0.137962,-0.05313 -0.139452,-0.04896 -0.140864,-0.0448 -0.142205,-0.04056 -0.143248,-0.03639 -0.144284,-0.03215 -0.145258,-0.02783 -0.145924,-0.02344 -0.146596,-0.0192 -0.147041,-0.01481 -0.147489,-0.01034 -0.147708,-0.0061 -0.147861,-0.0016 -0.147785,0.0026 -0.147638,0.0071 -0.147413,0.01146 -0.146967,0.01585 -0.104848,0.01496 -0.104106,0.0192 -0.103284,0.02344 -0.102244,0.02731 -0.101054,0.03155 -0.09971,0.03549 -0.0983,0.03951 -0.09652,0.04346 -0.0948,0.04718 -0.09279,0.05097 -0.09071,0.05462 -0.0884,0.05819 -0.08602,0.06176 -0.08349,0.06511 -0.08081,0.06839 -0.07806,0.07159 -0.07508,0.07464 -0.07203,0.07754 -0.06891,0.08051 -0.06556,0.08305 -0.06228,0.08565 -0.05871,0.08803 -0.05522,0.09034 -0.05157,0.0925 -0.04777,0.0945 -0.04398,0.09629 -0.04011,0.098 -0.03609,0.09949 -0.03215,0.100979 -0.02806,0.10202 -0.02396,0.103139 -0.01979,0.103956 -0.0157,0.104774 -0.01138,0.10522 -0.0072,0.105594 -0.003,0.105963 0.0012,0.105744 0.0055,0.105741 0.0097,0.105443 0.01399,0.104999 0.01808,0.104253 0.02225,0.103509 0.02642,0.102616 0.03044,0.101351 0.03453,0.100087 0.03847,0.09875 0.04234,0.09689 0.04629,0.09525 0.05001,0.09339 0.05365,0.09123 0.0573,0.089 0.06087,0.08669 0.06422,0.08423 0.06757,0.08148 0.07077,0.07866 0.07382,0.07598 0.07687,0.07278 0.0797,0.06973 0.08238,0.06645 0.08505,0.0631 0.08743,0.05968 0.08974,0.05611 0.09198,0.05254 0.09398,0.04874 0.09584,0.04495 0.09756,0.04115 0.09919,0.03713 0.11214,0.04197 0.110506,0.04591 0.108717,0.05016 0.106784,0.05417 0.104701,0.05804 0.102466,0.06199 0.100012,0.06585 0.09756,0.06935 0.09488,0.07307 0.09205,0.07642 0.08922,0.07992 0.0861,0.08327 0.08297,0.08625 0.07962,0.08937 0.07627,0.09227 0.07278,0.09517 0.06921,0.09763 0.06548,0.100309 0.06169,0.102468 0.05782,0.104849 0.05388,0.107006 0.04986,0.108794 0.04576,0.110652 0.0416,0.11229 0.03736,0.113778 0.03304,0.11497 0.02879,0.116308 0.0244,0.117127 0.02,0.118095 0.01561,0.118689 0.01116,0.119285 0.0067,0.119508 0.0023,0.119657 0,1.046999 0.0021,0.233808 0.0066,0.233732 0.01095,0.233659 0.01526,0.233361 0.01957,0.232989 0.02396,0.232543 0.02826,0.232169 0.03267,0.231575 0.03691,0.230906 0.04123,0.230087 0.04554,0.229343 0.04978,0.228523 0.05403,0.227483 0.05834,0.226515 0.06243,0.225249 0.06675,0.224135 0.07084,0.222868 0.07501,0.221456 0.0791,0.220039 0.08319,0.218553 0.08729,0.216841 0.09131,0.215279 0.09532,0.213567 0.09927,0.211708 0.103213,0.209843 0.107156,0.20784 0.110948,0.205827 0.114747,0.203742 0.118616,0.201513 0.12226,0.199282 0.126055,0.196971 0.129632,0.194591 0.133272,0.192211 0.136848,0.189608 0.140346,0.187001 0.143766,0.184395 0.147263,0.181647 0.150614,0.178889 0.153886,0.17606 0.157163,0.173162 0.160361,0.170183 0.163487,0.16728 0.166611,0.164011 0.16959,0.160881 0.172639,0.157757 0.175542,0.154554 0.178368,0.151212 0.181124,0.14786 0.183874,0.144435 0.110134,0.08765 0.107378,0.09108 0.104329,0.09443 0.101424,0.0977 0.09822,0.100829 0.09503,0.103808 0.09168,0.106857 0.08825,0.109613 0.08483,0.112439 0.08119,0.114967 0.07747,0.117503 0.07382,0.119875 0.06995,0.122117 0.06608,0.124342 0.06214,0.126281 0.05812,0.128214 0.0541,0.13 0.04993,0.131641 0.04576,0.133126 0.04152,0.134461 0.03728,0.135806 0.03296,0.136845 0.02864,0.137818 0.02425,0.138632 0.01995,0.139376 0.01546,0.139897 0.0111,0.140343 0.0066,0.140641 0.0023,0.140717 0,2.667875 0,0 z"
       id="path2991"
       inkscape:connector-curvature="0"
       style="fill:#ffffff;fill-opacity:1" />
    <path
       style="fill:#ffffff;stroke:none"
       d="M 46.828427,31.004037 32.194771,17.501271 29.180815,36.772893 34.629641,34.904037 42.187057,54.178498 50.889014,50.84679 42.192742,33.03575 z"
       id="path12852"
       inkscape:connector-curvature="0" />
    <path
       sodipodi:type="arc"
       style="fill:#ffffff;fill-opacity:1;stroke:#71c000;stroke-width:0.30000001;stroke-miterlimit:4;stroke-opacity:0.50196078;stroke-dasharray:none"
       id="path12827-5"
       sodipodi:cx="-121.26881"
       sodipodi:cy="10.977656"
       sodipodi:rx="3.8890872"
       sodipodi:ry="5.4800777"
       d="m -117.37972,10.977656 c 0,3.026564 -1.7412,5.480078 -3.88909,5.480078 -2.14788,0 -3.88908,-2.453514 -3.88908,-5.480078 0,-3.026563 1.7412,-5.4800774 3.88908,-5.4800774 2.14789,0 3.88909,2.4535144 3.88909,5.4800774 z"
       transform="matrix(0.87163316,0,0,0.61857834,136.53755,10.605408)" />
    <path
       sodipodi:type="arc"
       style="fill:#ffffff;fill-opacity:1;stroke:#71c000;stroke-width:0.30000001;stroke-miterlimit:4;stroke-opacity:0.50196078;stroke-dasharray:none"
       id="path12827-5-6"
       sodipodi:cx="-121.26881"
       sodipodi:cy="10.977656"
       sodipodi:rx="3.8890872"
       sodipodi:ry="5.4800777"
       d="m -117.37972,10.977656 c 0,3.026564 -1.7412,5.480078 -3.88909,5.480078 -2.14788,0 -3.88908,-2.453514 -3.88908,-5.480078 0,-3.026563 1.7412,-5.4800774 3.88908,-5.4800774 2.14789,0 3.88909,2.4535144 3.88909,5.4800774 z"
       transform="matrix(0.87163316,0,0,0.61857834,127.19872,10.519622)" />
    <path
       sodipodi:type="arc"
       style="fill:#ffffff;fill-opacity:1;stroke:#71c000;stroke-width:0.30000001;stroke-miterlimit:4;stroke-opacity:0.50196078;stroke-dasharray:none"
       id="path12827-5-7"
       sodipodi:cx="-121.26881"
       sodipodi:cy="10.977656"
       sodipodi:rx="3.8890872"
       sodipodi:ry="5.4800777"
       d="m -117.37972,10.977656 c 0,3.026564 -1.7412,5.480078 -3.88909,5.480078 -2.14788,0 -3.88908,-2.453514 -3.88908,-5.480078 0,-3.026563 1.7412,-5.4800774 3.88908,-5.4800774 2.14789,0 3.88909,2.4535144 3.88909,5.4800774 z"
       transform="matrix(0.87163316,0,0,0.61857834,118.00632,10.519621)" />
  </g>
</svg>
