<?xml version="1.0" encoding="UTF-8" standalone="no"?>
<!-- Created with Inkscape (http://www.inkscape.org/) -->

<svg
   xmlns:dc="http://purl.org/dc/elements/1.1/"
   xmlns:cc="http://creativecommons.org/ns#"
   xmlns:rdf="http://www.w3.org/1999/02/22-rdf-syntax-ns#"
   xmlns:svg="http://www.w3.org/2000/svg"
   xmlns="http://www.w3.org/2000/svg"
   xmlns:sodipodi="http://sodipodi.sourceforge.net/DTD/sodipodi-0.dtd"
   xmlns:inkscape="http://www.inkscape.org/namespaces/inkscape"
   width="38.535091"
   height="41.42556"
   viewBox="0 0 38.535092 41.42556"
   id="svg2"
   version="1.1"
   inkscape:version="0.48.5 r10040">
  <defs
     id="defs4" />
  <sodipodi:namedview
     id="base"
     pagecolor="#ffffff"
     bordercolor="#666666"
     borderopacity="1.0"
     inkscape:pageopacity="0.0"
     inkscape:pageshadow="2"
     inkscape:zoom="2.7524473"
     inkscape:cx="-67.040029"
     inkscape:cy="-5.0948527"
     inkscape:document-units="px"
     inkscape:current-layer="layer1"
     showgrid="false"
     showguides="true"
     inkscape:guide-bbox="true"
     inkscape:window-width="1916"
     inkscape:window-height="1041"
     inkscape:window-x="1920"
     inkscape:window-y="18"
     inkscape:window-maximized="0"
     fit-margin-top="0"
     fit-margin-left="0"
     fit-margin-right="0"
     fit-margin-bottom="0" />
  <metadata
     id="metadata7">
    <rdf:RDF>
      <cc:Work
         rdf:about="">
        <dc:format>image/svg+xml</dc:format>
        <dc:type
           rdf:resource="http://purl.org/dc/dcmitype/StillImage" />
        <dc:title></dc:title>
      </cc:Work>
    </rdf:RDF>
  </metadata>
  <g
     inkscape:label="Ebene 1"
     inkscape:groupmode="layer"
     id="layer1"
     transform="translate(-197.37293,-958.15429)">
    <g
       id="g11208"
       transform="matrix(0.83064981,0,0,0.83064981,86.363548,129.09703)">
      <path
         inkscape:connector-curvature="0"
         id="path3353"
         style="fill:#70bf00;fill-opacity:1;fill-rule:nonzero;stroke:none"
         d="m 140.50733,1042.7954 c -2.42386,-0.6008 -4.84277,-3.0625 -6.01159,-6.1121 l -0.34992,-0.915 1.13177,-2.4887 c 3.13792,-6.9017 6.46623,-11.7566 11.51282,-16.7932 3.18785,-3.1799 5.79761,-5.3822 10.04677,-8.4823 2.61984,-1.9137 2.78296,-1.9137 2.08677,0 -0.5132,1.4083 -0.46048,1.9613 0.18316,1.9613 0.86223,0 1.31983,-1.5316 1.97909,-6.6252 0.16037,-1.2494 0.3414,-2.5592 0.39984,-2.9084 l 0.10756,-0.6365 0.47751,0.4475 c 0.26445,0.2467 0.69707,0.8296 0.96356,1.2971 0.26662,0.4704 0.91013,1.5266 1.42752,2.3484 1.54656,2.4566 1.84799,3.4017 2.05468,6.4491 0.19099,2.8664 0.41475,3.8869 0.84462,3.8869 0.42758,0 0.62563,-0.7867 0.76174,-3.0346 0.0706,-1.1416 0.19099,-2.0767 0.26877,-2.0767 0.43753,0 2.67257,4.1208 3.04239,5.6117 0.12547,0.5054 0.4277,1.2372 0.67137,1.6243 0.52531,0.8395 0.53815,0.9656 0.12835,1.3049 -0.48534,0.4019 -1.00354,1.6947 -1.01349,2.5314 -0.0151,1.0641 -0.29651,0.4854 -0.46251,-0.945 -0.21885,-1.8936 -0.25654,-1.9634 -1.1189,-2.1972 -0.42974,-0.1183 -1.46817,-0.2239 -2.30271,-0.2395 -1.42616,-0.022 -1.59149,0.018 -2.61493,0.6393 -2.78081,1.6819 -4.28959,3.356 -4.28959,4.7594 0,0.8445 0.22376,1.3875 1.18949,2.9013 1.02547,1.6064 0.94493,1.875 -0.89514,3.0318 -1.74466,1.0989 -3.15295,2.4366 -4.72652,4.4857 -1.46822,1.9157 -2.24296,2.4359 -5.10647,3.4465 -1.31781,0.4654 -2.67761,1.0213 -3.02465,1.2344 -0.63355,0.3927 -1.58149,1.6449 -2.77805,3.6761 -0.43478,0.7369 -0.8823,1.2244 -1.33495,1.4581 -0.8452,0.4326 -2.30546,0.5958 -3.24836,0.3621 z m -1.75537,-7.8567 c 0.20674,-0.156 0.71702,-0.3748 1.13681,-0.4853 1.05609,-0.2844 1.23708,-0.4804 1.23708,-1.3498 0,-0.6265 -0.12602,-0.883 -0.73472,-1.4911 -0.4048,-0.4025 -0.90729,-0.7347 -1.11818,-0.7347 -0.47043,0 -1.08611,1.1824 -1.40325,2.6883 -0.3193,1.5308 0.005,2.036 0.88226,1.3726 z m 10.3661,-11.631 c 0.49529,-0.3016 0.95565,-0.3793 2.2834,-0.3793 1.96058,0 2.64699,-0.2415 3.52218,-1.2372 0.65841,-0.7518 1.72255,-2.798 1.72255,-3.3189 0,-0.1632 -0.13335,-0.6935 -0.29935,-1.1789 -0.3749,-1.1011 -1.29286,-1.9285 -2.31558,-2.0945 -0.70199,-0.1104 -0.78745,-0.1861 -0.89802,-0.7847 -0.0705,-0.372 -0.23875,-0.6607 -0.38485,-0.6607 -0.27152,0 -2.12658,2.1445 -2.49153,2.8814 -1.20867,2.441 -2.21217,5.1007 -2.28276,6.0615 -0.0926,1.2472 0.0834,1.3577 1.14396,0.7113" />
      <g
         transform="matrix(2.5142064,0,0,-2.5142064,45.92581,1058.798)"
         id="g3355">
        <path
           inkscape:connector-curvature="0"
           id="path3357"
           style="fill:none;stroke:#70bf00;stroke-width:0.21600001;stroke-linecap:butt;stroke-linejoin:bevel;stroke-miterlimit:10.00000095;stroke-opacity:1;stroke-dasharray:none"
           d="m 37.6189,6.3649 c -0.9641,0.239 -1.9262,1.2181 -2.3911,2.431 l -0.1391,0.364 0.4501,0.9898 c 1.2481,2.7451 2.5719,4.6761 4.5791,6.6793 1.2679,1.2648 2.306,2.1407 3.996,3.3738 1.042,0.7611 1.1069,0.7611 0.83,0.0011 -0.2041,-0.5601 -0.1831,-0.7801 0.0728,-0.7801 0.343,0 0.525,0.6092 0.7872,2.6351 0.0638,0.4969 0.1358,1.018 0.159,1.1568 l 0.0428,0.2532 0.19,-0.178 c 0.1051,-0.0981 0.2772,-0.33 0.3832,-0.5159 0.106,-0.1871 0.362,-0.6072 0.5678,-0.9341 0.6151,-0.9771 0.735,-1.3529 0.8172,-2.565 0.076,-1.1401 0.165,-1.546 0.3359,-1.546 0.1701,0 0.2489,0.3129 0.303,1.207 0.0281,0.4541 0.076,0.826 0.1069,0.826 0.174,0 1.063,-1.639 1.2101,-2.232 0.0499,-0.201 0.1701,-0.4921 0.267,-0.646 0.2089,-0.334 0.2141,-0.3841 0.0511,-0.5191 -0.1931,-0.1598 -0.3992,-0.6741 -0.4031,-1.0068 -0.006,-0.4233 -0.1179,-0.1931 -0.184,0.3758 -0.087,0.7532 -0.102,0.781 -0.445,0.874 -0.171,0.047 -0.584,0.089 -0.9159,0.0952 -0.5672,0.0088 -0.633,-0.0071 -1.04,-0.2543 -1.1061,-0.6689 -1.7062,-1.3348 -1.7062,-1.8929 0,-0.3359 0.089,-0.5519 0.4731,-1.154 0.4079,-0.639 0.3759,-0.7458 -0.356,-1.2059 -0.694,-0.4371 -1.2541,-0.9692 -1.88,-1.7841 -0.5839,-0.762 -0.892,-0.9689 -2.031,-1.3708 -0.5241,-0.1851 -1.065,-0.4063 -1.203,-0.491 -0.252,-0.1562 -0.629,-0.6542 -1.105,-1.4621 -0.1729,-0.2931 -0.3509,-0.487 -0.5309,-0.58 -0.3362,-0.172 -0.917,-0.237 -1.292,-0.144 z m -0.6982,3.1249 c 0.0822,0.0621 0.2852,0.1491 0.4521,0.1931 0.4201,0.1131 0.4921,0.191 0.4921,0.5368 0,0.2492 -0.0502,0.3513 -0.2922,0.5931 -0.161,0.1601 -0.3609,0.2922 -0.4448,0.2922 -0.1871,0 -0.432,-0.4703 -0.5581,-1.0692 -0.127,-0.6089 0.0019,-0.8099 0.3509,-0.546 z m 4.123,4.6262 c 0.197,0.1199 0.3801,0.1508 0.9082,0.1508 0.7798,0 1.0528,0.0961 1.4009,0.4921 0.2619,0.299 0.6851,1.1128 0.6851,1.3201 0,0.0649 -0.053,0.2758 -0.119,0.4688 -0.1491,0.438 -0.5142,0.7671 -0.921,0.8331 -0.2792,0.044 -0.3132,0.074 -0.3572,0.3121 -0.028,0.148 -0.0949,0.2628 -0.153,0.2628 -0.108,0 -0.8459,-0.853 -0.991,-1.1461 -0.4808,-0.9708 -0.8799,-2.0287 -0.908,-2.4108 -0.0368,-0.4961 0.0332,-0.54 0.455,-0.2829 z" />
      </g>
      <path
         inkscape:connector-curvature="0"
         id="path3359"
         style="fill:#70bf00;fill-opacity:1;fill-rule:nonzero;stroke:none"
         d="m 155.98117,1007.4018 c -0.12327,-0.2017 0.22664,-5.534 0.39768,-6.0372 0.0527,-0.1582 0.42195,0.3122 0.89225,1.1368 0.43982,0.7719 0.94015,1.6042 1.11399,1.848 0.44473,0.6335 0.13538,1.3676 -0.95073,2.2649 -1.1388,0.9407 -1.30493,1.0284 -1.45319,0.7875" />
      <g
         transform="matrix(2.5142064,0,0,-2.5142064,45.92581,1058.798)"
         id="g3361">
        <path
           inkscape:connector-curvature="0"
           id="path3363"
           style="fill:none;stroke:#70bf00;stroke-width:0.99690002;stroke-linecap:butt;stroke-linejoin:bevel;stroke-miterlimit:10.00000095;stroke-opacity:1;stroke-dasharray:none"
           d="m 43.7734,20.4423 c -0.049,0.0803 0.0902,2.2011 0.1582,2.4013 0.021,0.0629 0.1678,-0.1242 0.3549,-0.4522 0.1749,-0.307 0.3739,-0.638 0.4431,-0.735 0.1769,-0.252 0.0538,-0.544 -0.3782,-0.9008 -0.4529,-0.3742 -0.519,-0.4091 -0.578,-0.3133 z" />
      </g>
      <path
         inkscape:connector-curvature="0"
         id="path3365"
         style="fill:#70bf00;fill-opacity:1;fill-rule:nonzero;stroke:none"
         d="m 150.60533,1046.7607 -0.64638,-0.3948 1.18453,-0.6078 c 2.38037,-1.2195 13.5888,-9.5893 14.37062,-10.731 0.39767,-0.578 0.43549,-0.8096 0.36706,-2.1851 -0.10049,-1.9557 -0.83957,-3.6077 -1.81021,-4.0353 -0.40691,-0.1781 -0.58515,-0.367 -0.51748,-0.5452 0.0578,-0.1482 0.19818,-0.6485 0.31642,-1.111 0.18895,-0.7569 0.16905,-0.898 -0.20094,-1.3955 -1.01061,-1.3705 -1.29989,-1.9086 -1.41537,-2.6376 -0.17104,-1.0713 0.15821,-2.1496 0.82958,-2.7154 0.61581,-0.5181 3.06737,-1.5238 4.55549,-1.8658 0.88014,-0.2031 0.97856,-0.1909 1.36557,0.1988 0.36202,0.3599 0.41258,0.5958 0.37981,1.7446 -0.0478,1.5287 -0.16109,1.3756 2.24207,2.9919 1.36844,0.9208 1.65704,1.2145 2.13238,2.1624 1.54872,3.103 -0.0656,7.0977 -4.57611,11.3168 -1.38479,1.2948 -6.06139,4.8826 -9.44531,7.2431 -1.71256,1.1972 -4.25694,2.4587 -5.55682,2.7579 -1.42041,0.3293 -2.84865,0.2516 -3.57491,-0.191" />
      <g
         transform="matrix(2.5142064,0,0,-2.5142064,45.92581,1058.798)"
         id="g3367">
        <path
           inkscape:connector-curvature="0"
           id="path3369"
           style="fill:none;stroke:#70bf00;stroke-width:0.50400001;stroke-linecap:butt;stroke-linejoin:bevel;stroke-miterlimit:10.00000095;stroke-opacity:1;stroke-dasharray:none"
           d="m 41.6353,4.7877 -0.2571,0.1571 0.4711,0.2418 c 0.9468,0.485 5.4048,3.814 5.7158,4.2681 0.1581,0.2299 0.1732,0.322 0.146,0.8691 -0.04,0.7778 -0.334,1.4349 -0.72,1.605 -0.1619,0.0708 -0.2328,0.1459 -0.2058,0.2168 0.0229,0.059 0.0788,0.258 0.1258,0.4419 0.0751,0.3011 0.0672,0.3572 -0.0799,0.5551 -0.402,0.5451 -0.5171,0.7591 -0.563,1.0491 -0.068,0.426 0.0629,0.8549 0.33,1.08 0.2449,0.206 1.22,0.606 1.8119,0.7421 0.3501,0.0808 0.3892,0.0759 0.5431,-0.0791 0.144,-0.1432 0.1641,-0.237 0.1511,-0.6939 -0.019,-0.6081 -0.0641,-0.5471 0.8918,-1.19 0.5442,-0.3663 0.659,-0.4831 0.8481,-0.8601 0.616,-1.2342 -0.0261,-2.823 -1.8201,-4.5011 -0.5508,-0.515 -2.4109,-1.942 -3.7568,-2.8808 -0.6812,-0.4763 -1.6931,-0.978 -2.2102,-1.0971 -0.5649,-0.1309 -1.133,-0.1 -1.4218,0.076 z" />
      </g>
      <path
         inkscape:connector-curvature="0"
         id="path3371"
         style="fill:#70bf00;fill-opacity:1;fill-rule:nonzero;stroke:none"
         d="m 173.62953,1023.4395 c -1.09399,-0.4803 -1.25224,-0.9102 -0.87518,-2.394 0.32421,-1.2821 0.59082,-1.3647 2.12951,-0.6606 1.63421,0.7462 1.82588,1.6163 0.63355,2.8735 -0.67137,0.7092 -0.68353,0.7092 -1.88788,0.1811" />
      <g
         transform="matrix(2.5142064,0,0,-2.5142064,45.92581,1058.798)"
         id="g3373">
        <path
           inkscape:connector-curvature="0"
           id="path3375"
           style="fill:none;stroke:#70bf00;stroke-width:0.50400001;stroke-linecap:butt;stroke-linejoin:bevel;stroke-miterlimit:10.00000095;stroke-opacity:1;stroke-dasharray:none"
           d="m 50.7929,14.0635 c -0.4351,0.1911 -0.4981,0.362 -0.3481,0.9522 0.129,0.5099 0.235,0.5428 0.847,0.2628 0.65,-0.2968 0.7262,-0.6429 0.252,-1.143 -0.267,-0.282 -0.2719,-0.282 -0.7509,-0.072 z" />
      </g>
      <path
         inkscape:connector-curvature="0"
         id="path3377"
         style="fill:#70bf00;fill-opacity:1;fill-rule:nonzero;stroke:none"
         d="m 175.69629,1029.7218 c -0.24371,-0.3463 -0.24371,-0.4974 -0.01,-1.1588 0.1461,-0.4198 0.26937,-1.0932 0.26937,-1.5009 0,-0.7747 0.38917,-1.9208 0.72422,-2.1267 0.10537,-0.066 0.58291,0.1433 1.05826,0.4646 0.70127,0.4726 0.86739,0.6892 0.86739,1.1419 0,0.6563 -0.81255,2.7352 -1.26004,3.2334 -0.42973,0.4725 -1.2992,0.4447 -1.6492,-0.053" />
      <g
         transform="matrix(2.5142064,0,0,-2.5142064,45.92581,1058.798)"
         id="g3379">
        <path
           inkscape:connector-curvature="0"
           id="path3381"
           style="fill:none;stroke:#70bf00;stroke-width:0.50400001;stroke-linecap:butt;stroke-linejoin:bevel;stroke-miterlimit:10.00000095;stroke-opacity:1;stroke-dasharray:none"
           d="m 51.6149,11.5648 c -0.0969,0.1378 -0.0969,0.1978 -0.0039,0.4609 0.0581,0.167 0.1071,0.4348 0.1071,0.597 0,0.3081 0.1548,0.7639 0.288,0.8458 0.042,0.0261 0.2319,-0.0569 0.421,-0.1848 0.2789,-0.1879 0.3449,-0.2741 0.3449,-0.4541 0,-0.2611 -0.3231,-1.0879 -0.5011,-1.2861 -0.171,-0.1879 -0.5168,-0.1769 -0.656,0.0213 z" />
      </g>
      <path
         inkscape:connector-curvature="0"
         id="path3383"
         style="fill:#99ff54;fill-opacity:1;fill-rule:evenodd;stroke:none"
         d="m 160.67569,999.36768 c 0.13826,-0.55088 0,1.13602 0,1.70402 0,0.4426 -0.15394,1.1546 -0.37982,1.6092 -0.23659,0.4726 -0.37994,1.149 -0.47259,1.6065 -0.0983,0.4881 -0.2844,0.903 -0.2844,1.4211 l 0,1.4204 c 0,0.4448 -0.1032,0.9806 -0.18879,1.3248 -0.11044,0.4398 -0.0954,0.9251 -0.0954,1.4183 0,0.4746 0.94782,0 1.42105,0 0.70846,0 0.71338,-0.4882 0.85164,-1.0412 0.10625,-0.4277 0.0157,-1.104 0.0934,-1.4182 0.10333,-0.412 0,-0.9929 0,-1.4205 l 0,-1.4204 c 0,-0.4326 0.19099,-0.91 0.19099,-1.4182 0,-0.3193 0.0934,-0.8695 0.0934,-1.3249 l 0,-1.6093 c 0,-0.58009 -0.0207,-0.98778 -0.18896,-1.32487 -0.12327,-0.24582 -0.48241,-0.28362 -0.75682,-0.28362 l -0.28364,0.75687 z" />
      <path
         inkscape:connector-curvature="0"
         id="path3385"
         style="fill:#99ff54;fill-opacity:1;fill-rule:evenodd;stroke:none"
         d="m 169.01633,1009.4309 c -0.007,0.2138 -0.0278,0.8929 0.0684,1.2728 0.0726,0.2986 0.0726,0.6157 0.19806,0.8695 0.1383,0.2744 0.12327,0.6892 0.20093,1.0034 0.0684,0.2638 0.28945,0.7114 0.40277,0.938 0.18099,0.3592 0.14821,0.6656 0.40187,1.0027 0.17392,0.2317 0.27153,0.8774 0.39984,1.1368 0.16109,0.3214 0.25451,0.6734 0.33709,1.0056 0.0856,0.3471 0.30439,0.6136 0.39984,1.0027 0.0955,0.3827 0.36202,0.6016 0.47043,0.8702 0.14538,0.3698 0.30359,0.4853 0.39899,0.8702 0.0684,0.2687 0.26446,0.5124 0.33505,0.8019 0.0806,0.322 0.47463,0.6791 0.67137,0.9378 0.18595,0.2516 0.33133,0.4625 0.46743,0.7369 0.18319,0.3691 0.53311,0.8673 0.80189,1.1361 0.22876,0.2287 0.29431,0.5608 0.53582,0.8046 0.17036,0.1711 0.32149,0.5102 0.40204,0.6685 0.15605,0.3143 0.36491,0.5658 0.60366,0.8024 0.2288,0.2289 0.53802,0.5053 0.73405,0.603 0.30934,0.1561 0.44968,0.2594 0.7362,0.4026 0.2216,0.1104 0.46323,0.3264 0.60366,0.4676 0.1582,0.1611 0.553,0.2209 0.73404,0.2687 -2.75815,6.3992 2.13239,-4.4173 -0.0656,-2.0085 -0.33429,0.083 -0.62073,-0.1082 -0.80388,-0.2009 -0.21885,-0.1112 -0.36998,-0.3021 -0.53598,-0.4683 -0.20382,-0.2031 -0.19878,-0.4625 -0.2665,-0.7362 -0.0728,-0.2914 0,-0.702 0,-1.0034 0,-0.3848 -0.02,-0.6435 -0.13335,-0.8694 -0.16816,-0.3372 -0.0705,-0.5411 -0.3342,-0.8047 -0.23659,-0.2337 -0.12831,-0.3649 -0.53523,-0.4682 -0.27936,-0.07 -0.39772,-0.1832 -0.73692,-0.2686 -0.17324,-0.043 -0.51812,-0.3244 -0.66849,-0.3999 -0.2089,-0.1055 -0.50817,-0.2766 -0.73692,-0.3343 -0.25654,-0.066 -0.35208,-0.4077 -0.40205,-0.6036 -0.0684,-0.2716 -0.18374,-0.5331 -0.26649,-0.8695 -0.10117,-0.3977 -0.26933,-0.5737 -0.26933,-0.9379 0,-0.2744 -0.17612,-0.6842 -0.26661,-0.8702 -0.11824,-0.2338 -0.16109,-0.4954 -0.33421,-0.6684 -0.1989,-0.199 -0.29647,-0.5261 -0.402,-0.737 -0.1311,-0.2616 -0.26649,-0.4547 -0.26649,-0.7341 0,-0.1532 -0.22664,-0.5631 -0.26949,-0.737 -0.0826,-0.3363 -0.15605,-0.6484 -0.2665,-0.8694 -0.12543,-0.2488 -0.22096,-0.4227 -0.40199,-0.6037 -0.16889,-0.166 -0.23372,-0.4347 -0.4026,-0.6008 -0.14826,-0.151 -0.2089,-0.5052 -0.26662,-0.7369 -0.0476,-0.1859 -0.48246,-0.5125 -0.60285,-0.603 -0.14822,-0.1111 -0.28436,-0.6336 -0.33501,-0.734 -0.0499,-0.1034 -0.0905,-0.1361 -0.13327,-0.2016 l -0.20093,0.4675 z" />
      <path
         inkscape:connector-curvature="0"
         id="path3387"
         style="fill:#99ff54;fill-opacity:1;fill-rule:nonzero;stroke:none"
         d="m 163.51434,1026.3408 c 0,-0.2765 0.97568,0.3921 1.13676,0.4726 0.21597,0.1075 0.62073,0.5807 0.75687,0.8523 0.15605,0.3115 0.45964,0.5531 0.6613,0.7569 0.30439,0.3036 0.29863,0.9073 0.37917,1.2315 0.0884,0.355 0.41763,0.742 0.56876,1.0413 0.20814,0.4148 0.28365,0.7034 0.28365,1.2294 0,0.4574 0.0934,1.0006 0.0934,1.513 0,0.5708 0.0577,1.1168 -0.18895,1.6092 -0.2288,0.4604 -0.35915,0.7221 -0.56804,1.1368 -0.22868,0.4576 -0.55301,0.93 -0.85228,1.2294 -0.43262,0.4347 -0.90521,0.6236 -1.22942,0.9478 -0.40272,0.402 -1.30497,0.6336 -1.79734,0.7569 -0.57871,0.1433 -1.2472,0.6029 -1.70481,0.9451 -0.53599,0.4027 -0.92007,0.709 -1.51382,0.9478 -0.51029,0.2038 -0.93787,0.7519 -1.32487,0.9457 -0.35987,0.1782 -0.52803,0.4348 -0.85237,0.7562 -0.28931,0.2894 -0.60861,0.325 -0.85227,0.5687 -0.36711,0.3671 -0.69924,0.5103 -0.9451,0.7569 -0.21665,0.2159 -0.70919,0.4148 -1.0412,0.6635 -0.30934,0.231 -1.03055,0.3999 -1.32487,0.4725 -0.43261,0.1084 -0.70139,0.3043 -1.04135,0.4726 -0.40188,0.2017 -0.65841,0.2794 -0.94782,0.5686 -0.38197,0.3841 -0.99274,-0.1859 -1.04051,-0.3776 -0.15329,-0.6158 0.11332,-0.8724 0.37982,-1.1361 0.28652,-0.2865 0.90521,-0.4076 1.22942,-0.568 0.29435,-0.1482 0.90224,-0.3571 1.13604,-0.4732 0.30215,-0.1504 0.77461,-0.4625 1.04123,-0.6635 0.34428,-0.2587 0.66849,-0.4775 1.04051,-0.7569 0.36707,-0.2766 0.62361,-0.3392 1.04123,-0.7568 0.3392,-0.3365 0.75899,-0.4049 1.23158,-0.7563 0.39264,-0.2971 0.60358,-0.4453 1.04123,-0.6641 0.59299,-0.2966 0.91012,-0.6358 1.41825,-1.2295 0.18103,-0.2109 0.86943,-0.5002 1.13604,-0.5679 0.49314,-0.1234 0.59579,-0.4326 1.13668,-0.568 0.36203,-0.091 0.70127,-0.5411 0.94507,-0.6615 0.35698,-0.1788 0.52023,-0.4026 0.85236,-0.5687 0.0706,-0.035 0.44752,-0.8417 0.47251,-0.9478 0.0734,-0.2936 0.44545,-0.6985 0.56872,-0.9451 0.19602,-0.3919 0.13038,-0.8296 0.28364,-1.1367 0.17887,-0.3563 0.18882,-0.7113 0.18882,-1.2294 l 0,-1.4204 c 0,-0.357 -0.44748,-0.6486 -0.66129,-0.7568 -0.21389,-0.1055 -0.65646,-0.8097 -0.75695,-0.9451 -0.35207,-0.4703 -0.75899,-0.1034 -0.94781,-0.8524 -0.11332,-0.4575 -0.0956,-0.8224 -0.0956,-1.3249 0,-0.093 0.179,-0.2665 0.19098,-0.2843 l 0.4726,-0.2837 z" />
      <path
         inkscape:connector-curvature="0"
         id="path3389"
         style="fill:#99ff54;fill-opacity:1;fill-rule:nonzero;stroke:none"
         d="m 150.74652,1014.5843 c 0.0228,-0.023 -0.0456,0.046 -0.0677,0.068 -0.12616,0.1262 -0.34704,0.732 -0.60078,1.0691 -0.2288,0.3036 -0.24659,0.5153 -0.53599,0.8038 -0.18595,0.1868 -0.36203,0.5887 -0.46755,0.8025 -0.21377,0.4248 -0.62564,0.8802 -0.87015,1.2045 -0.35423,0.4725 -0.37909,0.759 -0.60298,1.2066 -0.14606,0.2915 -0.18878,0.754 -0.26937,1.0682 -0.0755,0.3072 -0.0648,0.6615 -0.0648,1.0058 l 0,1.1366 c 0,0.4626 -0.0158,0.5881 0.20094,0.8046 0.26157,0.2616 0.61076,-0.3519 0.66849,-0.4703 0.1989,-0.397 0.37706,-0.8374 0.46755,-1.2045 0.0834,-0.3292 0,-0.7918 0,-1.136 0,-0.4782 -0.0378,-0.8852 0.20165,-1.2044 0.23588,-0.3171 0.24092,-0.6136 0.53527,-1.0056 0.30431,-0.4048 0.49034,-0.8902 0.80176,-1.2044 0.4355,-0.4326 0.79752,-1.0634 1.20732,-1.4711 0.22376,-0.2237 0.42686,-0.563 0.60082,-0.7362 0.27153,-0.2715 0.3043,-0.3421 0.46743,-0.6692 0.17608,-0.3521 0.33716,-0.4198 0.33716,-0.8046 0,-0.4647 -0.25158,-0.3342 -0.67137,-0.3342 -0.41267,0 -0.73404,0 -1.0035,0.2009 l -0.3342,0.8702 z" />
      <path
         inkscape:connector-curvature="0"
         id="path3391"
         style="fill:#99ff54;fill-opacity:1;fill-rule:nonzero;stroke:none"
         d="m 134.3504,1036.9364 c -0.008,-0.211 0.26658,-0.6656 0.402,-1.0028 0.12327,-0.3142 0.33708,-0.4775 0.46815,-0.7369 0.13543,-0.2715 0.36418,-0.4975 0.53527,-0.6685 0.21089,-0.2116 0.41758,-0.7369 0.66849,-1.0711 0.23384,-0.3123 0.44257,-0.5659 0.53599,-0.938 0.12039,-0.4803 0.57579,-0.8852 0.80459,-1.3377 0.22088,-0.4447 0.68352,-1.1539 1.00269,-1.4732 0.54103,-0.5401 0.91301,-1.3498 1.40542,-1.9406 0.54318,-0.6514 0.93079,-1.4261 1.33783,-2.1402 0.5907,-1.0327 1.38047,-1.9635 1.94055,-2.9463 0.56381,-0.9856 1.42617,-2.0845 2.14234,-2.944 0.35208,-0.4227 0.82742,-0.8524 1.07122,-1.3377 0.1682,-0.3372 0.42758,-0.5631 0.66849,-0.8046 0.2545,-0.2538 0.62648,-0.571 0.9379,-0.8019 0.29431,-0.2216 0.49538,-0.4831 0.734,-0.8025 0.21885,-0.2914 0.43059,-0.4596 0.60371,-0.8039 0.18895,-0.3798 0.43765,-0.4098 0.53526,-0.8025 0.0706,-0.2865 0.30211,-0.6029 0.40272,-0.8046 0.0976,-0.196 0.4247,-0.5124 0.60078,-0.6008 0.34703,-0.1732 0.66849,-0.2665 0.93786,-0.4704 0.23083,-0.1731 0.54797,-0.3064 0.86947,-0.4674 0.36779,-0.1832 0.65634,-0.2538 0.93583,-0.5353 0.29431,-0.2943 0.78384,-0.4704 1.1388,-0.7369 0.4775,-0.3571 0.97076,-0.4853 1.47313,-0.734 0.42757,-0.216 0.82454,-0.4926 1.13676,-0.8048 0.24871,-0.2487 0.79681,-0.5302 1.07109,-0.6685 0.31929,-0.1609 0.5403,-0.4147 0.66862,-0.6692 0.15317,-0.3065 0.19373,-0.5879 0.3342,-0.8694 0.1461,-0.2893 0.36706,-0.5031 0.53599,-0.6692 0.26369,-0.2658 -0.12124,-0.5958 -0.26662,-0.6707 -0.24443,-0.1211 -0.63356,-0.059 -0.87019,0 -0.24655,0.063 -0.51532,0.4248 -0.73688,0.5352 -0.34141,0.1711 -0.38917,0.4555 -0.60298,0.6714 -0.20873,0.2088 -0.28436,0.3749 -0.60078,0.5331 -0.24443,0.1233 -0.45545,0.362 -0.66921,0.4696 -0.25366,0.1261 -0.59087,0.3322 -0.86947,0.4027 -0.26154,0.063 -0.46324,0.2965 -0.67137,0.3999 -0.30431,0.1532 -0.62145,0.4225 -0.80248,0.6035 -0.1204,0.1205 -0.49525,0.3137 -0.66849,0.3992 -0.25159,0.1261 -0.48039,0.4127 -0.6685,0.6036 -0.2744,0.2745 -0.53814,0.4705 -0.80459,0.536 -0.29219,0.073 -0.49038,0.3563 -0.66925,0.5353 -0.14534,0.1461 -0.53019,0.2466 -0.73621,0.4019 -0.24163,0.181 -0.35711,0.2922 -0.53594,0.4683 -0.23097,0.2337 -0.44477,0.3562 -0.60082,0.6685 -0.1511,0.3013 -0.42974,0.4952 -0.60366,0.6684 -0.24583,0.2466 -0.57008,0.4198 -0.80176,0.536 -0.31642,0.1583 -0.49525,0.3621 -0.73692,0.6028 -0.22876,0.2289 -0.32146,0.3899 -0.53523,0.6016 -0.26937,0.2687 -0.41259,0.4954 -0.73692,0.7362 -0.19099,0.1433 -0.3342,0.4675 -0.53527,0.7369 -0.2487,0.3343 -0.52803,0.4626 -0.80171,0.7362 -0.22664,0.2267 -0.49314,0.4932 -0.66926,0.6692 -0.32421,0.3214 -0.53306,0.5759 -0.80459,0.938 -0.17816,0.2359 -0.26374,0.4625 -0.46756,0.6685 -0.15604,0.1531 -0.29147,0.5152 -0.40187,0.7369 -0.13831,0.2765 -0.32438,0.3791 -0.46827,0.6685 -0.16821,0.3342 -0.3492,0.4297 -0.53527,0.8017 -0.14322,0.2895 -0.36203,0.4555 -0.46756,0.6692 -0.18378,0.3642 -0.49025,0.6436 -0.67124,1.0056 -0.17612,0.3521 -0.46048,0.6586 -0.66853,0.8703 -0.25663,0.2537 -0.33992,0.5402 -0.53595,0.734 -0.17324,0.176 -0.13326,0.5353 -0.33433,0.7363 -0.15317,0.156 -0.39971,0.6614 -0.46743,0.9378 -0.0628,0.2545 -0.41483,0.6166 -0.53598,0.7369 -0.17032,0.1711 -0.37198,0.6108 -0.46752,0.8019 -0.14825,0.2964 -0.37201,0.543 -0.53526,0.8702 -0.18379,0.3641 -0.32713,0.5829 -0.47031,0.8694 -0.16613,0.335 -0.34919,0.6015 -0.60082,0.9379 -0.28148,0.3749 -0.36994,0.6713 -0.53523,1.0035 -0.17396,0.3443 -0.18103,0.5909 -0.26937,0.9379 -0.0556,0.2188 -0.22101,0.5074 -0.33432,0.7362 -0.13323,0.2644 -0.30922,0.551 -0.39972,0.734 -0.13335,0.2666 -0.20886,0.566 -0.26878,0.8048 -0.0634,0.2465 -0.0684,0.5986 -0.0684,0.9356 0,0.4198 0.0656,0.6586 0.13615,0.9379 0.0528,0.2081 0.34919,0.4169 0.46755,0.5353 0.10549,0.1054 0.0349,0.1411 0.0677,0.2666 l -0.0677,-1.1368 z" />
      <path
         inkscape:connector-curvature="0"
         id="path3393"
         style="fill:#99ff54;fill-opacity:1;fill-rule:nonzero;stroke:none"
         d="m 156.70251,1000.3969 c -0.58807,-0.3622 -0.46755,0.1454 -0.46755,0.7362 0,0.3043 -0.0677,0.5686 -0.0677,0.9357 0,0.2487 -0.20095,0.6685 -0.26662,0.9378 -0.0833,0.3293 -0.2587,0.6986 -0.33709,1.0029 -0.0854,0.347 -0.24654,0.5937 -0.33416,0.9378 -0.0727,0.2943 -0.0657,0.5758 -0.0657,0.9379 l 0,1.0028 c 0,0.2693 0.23168,0.6336 0.33433,0.7369 0.13107,0.1311 0.69911,0.065 0.93787,0.065 0.33996,0 0.1989,-0.5608 0.1989,-0.8701 0,-0.4219 -0.03,-0.5958 -0.1989,-0.9351 -0.10553,-0.211 0,-0.7618 0,-1.0056 l 0,-1.0034 c 0,-0.2916 0.1989,-0.5452 0.1989,-0.938 0,-0.198 0.19098,-0.6457 0.26865,-0.8017 0.13106,-0.2587 0.11823,-0.7419 0.20165,-1.0711 0.10265,-0.412 -0.0606,-0.5331 -0.40259,-0.6685" />
      <path
         inkscape:connector-curvature="0"
         id="path3395"
         style="fill:#000000;fill-opacity:1;fill-rule:nonzero;stroke:none"
         d="m 175.46181,1031.3817 c -0.21377,0 -1.41825,1.5665 -2.67757,3.4772 -3.39445,5.0565 -12.68727,11.5905 -18.2662,12.9588 -3.53205,0.1633 -3.70813,0.3941 -4.62321,-0.7498 -1.25008,-1.2771 -3.07528,-5.0179 -4.94826,-3.713 -0.57291,0.4098 -1.73741,0.8544 -2.58418,0.9905 -4.51348,0.1811 -9.16438,-4.3822 -8.68688,-9.0461 3.45726,-10.1252 10.39385,-18.4672 18.73872,-24.9034 2.73029,-1.9307 2.37038,-2.0739 2.46092,-6.1826 l 0.52311,-4.43224 0.0527,-1.38547 c 0.86726,-0.0877 1.87081,1.3149 2.36821,2.07391 0.35208,0.5382 0.96861,1.3078 1.3676,1.7048 0.71427,0.717 1.12394,0.6285 1.12394,-1.9657 0,-2.58489 -0.0498,-2.08741 0.923,-2.08741 3.91482,1.30997 4.56327,6.18041 7.12045,9.04121 0.76682,0.2943 2.74028,3.4922 3.1928,5.1769 0.20597,0.767 0.79181,1.8908 1.30209,2.4966 0.511,0.6059 0.92799,1.4304 0.92799,1.8351 0,0.4027 0.18595,1.2651 0.41259,1.9165 0.3821,1.096 0.52527,1.1738 1.96851,1.0861 l 1.55367,-0.096 0,2.4331 c 5.59384,3.7567 -0.44977,11.3318 -2.25003,9.3705 z m -10.36606,9.0312 c 4.68884,-3.3233 12.08577,-9.8052 8.34415,-15.7391 -0.39192,-0.3919 -1.50086,-1.1737 -2.46371,-1.7367 -1.48812,-0.8725 -1.71688,-1.1617 -1.52869,-1.9136 0.34488,-1.3705 -0.1433,-2.7581 -0.96788,-2.7581 -1.10399,0 -4.84489,1.4033 -5.62454,2.1095 -1.10818,1.0028 -0.94997,3.6882 0.28728,4.832 0.95285,0.8852 0.99774,1.2772 0.33128,2.8964 -0.1881,0.4555 -0.0954,0.6564 0.30228,0.6564 1.01061,0 2.13167,2.3455 2.13167,4.465 0,1.6342 -0.63085,2.0268 -1.501,2.8365 -3.18281,2.3961 -10.81862,8.4953 -13.82535,9.9356 -0.9836,0 -0.71207,0.6514 0.46743,1.1289 5.08148,1.0411 10.07174,-4.0624 14.04708,-6.7128 z m -11.51269,2.5572 c 2.954,-2.6805 6.59949,-4.3774 9.6498,-7.0472 0.84664,-0.8551 1.32199,-1.7425 1.45305,-2.7182 0.19112,-1.4075 0.16325,-1.4481 -0.9556,-1.4481 -1.05838,0 -1.16175,0.1105 -1.26715,1.4054 -0.10058,1.1965 -0.26154,1.4232 -1.08828,1.5188 -0.65926,0.075 -1.13893,0.4802 -1.49879,1.2571 -0.40696,0.8852 -0.97568,1.295 -2.49658,1.7973 -1.0812,0.3601 -2.27556,0.9301 -2.65262,1.2723 -0.37706,0.3391 -1.14671,0.6186 -1.70972,0.6186 -1.18165,0 -2.30271,0.5181 -3.50719,1.6113 -1.39542,1.2721 -0.94781,0.3622 0.70415,-1.4303 1.2016,-1.3049 1.81021,-1.6798 2.7225,-1.6798 0.64918,0 1.78522,-0.4119 2.52935,-0.9172 0.74183,-0.5054 1.76024,-1.0206 2.26057,-1.1468 0.55026,-0.1382 1.07833,-0.6663 1.32703,-1.3299 0.27945,-0.734 0.67641,-1.1039 1.19944,-1.1039 0.60582,0 0.78181,-0.2337 0.78181,-1.0483 0,-1.3528 0.61653,-1.9456 2.04185,-1.9606 1.08625,-0.011 1.10615,-0.038 0.41775,-0.561 -1.7048,-1.29 -4.37242,0.03 -5.83343,2.8886 -0.87231,1.7076 -1.33771,2.1424 -3.40945,3.1907 -1.31996,0.6663 -2.94626,1.2543 -3.61763,1.3071 -1.36269,0.1838 -2.47159,1.081 -3.2335,2.2506 l -0.93498,1.5665 0.78456,1.1489 c 1.78752,2.6198 3.12522,2.7381 6.33306,0.5581 z m -9.15672,-0.7848 c 1.26932,-1.6742 1.79531,-3.6025 3.58773,-4.9553 0.46252,-0.2288 2.0817,-0.8374 3.59768,-1.3527 3.80142,-0.6207 4.75715,-4.4271 7.36201,-6.514 2.25003,-1.1866 3.55986,-2.1801 3.55986,-2.6954 0,-0.3221 -0.45036,-1.1745 -1.00053,-1.8957 -1.88293,-2.4688 -1.28719,-4.2212 2.26273,-6.653 2.00912,-1.3747 2.24499,-1.4453 4.22133,-1.2393 1.14875,0.1183 2.18218,0.3072 2.29262,0.4176 0.11125,0.1105 0.28437,1.0534 0.38494,2.0968 0.1959,2.044 0.56301,2.2151 0.65134,0.3043 0.0328,-0.6764 0.37922,-1.4353 0.81963,-1.7925 0.74688,-0.6064 0.74903,-0.6364 0.0627,-1.4838 -0.38485,-0.4753 -0.6991,-1.2472 -0.6991,-1.7168 0,-1.0562 -2.58712,-5.7706 -3.27839,-5.7706 -0.34428,0 -0.19386,1.8379 -0.24163,3.0346 -0.0377,0.9706 -0.17816,1.8737 -0.31142,2.0069 -0.64351,0.6436 -1.04119,-0.4953 -1.04119,-2.9848 0,-3.2861 -0.402,-4.5932 -2.30271,-7.4796 -0.84245,-1.0762 -1.21155,-2.4138 -2.15445,-3.3868 -0.6864,-0.6207 -0.71702,-0.58577 -0.90309,0.9708 -0.84229,7.0549 -1.28994,8.925 -2.12659,8.925 -0.68916,0 -0.77186,-0.759 -0.20094,-1.863 0.32133,-0.6258 0.56512,-2.1395 0.45964,-2.1395 -12.06084,8.4054 -19.32175,15.2965 -25.36104,29.7534 1.49595,5.3679 6.48478,9.0055 10.3589,6.4134 z m -6.62723,-7.7483 c 0,-0.9806 0.79888,-3.1936 1.26219,-3.4971 0.21309,-0.1441 0.78893,0.1432 1.27927,0.6335 1.15946,1.1589 1.00845,2.5714 -0.29156,2.7453 -0.5152,0.068 -1.09895,0.2787 -1.29485,0.4674 -0.56589,0.546 -0.95505,0.4028 -0.95505,-0.3491 z m 10.38816,-10.7787 c -0.52023,-0.5203 -0.26082,-1.7803 0.85516,-4.1408 0.61869,-1.3078 1.12393,-2.5165 1.12393,-2.6854 0,-0.1681 0.60586,-1.0127 1.34274,-1.8758 1.36477,-1.5935 1.56079,-1.6641 1.56079,-0.3492 0,0.4526 0.72693,0.6585 1.15451,0.6585 1.22155,0 2.31266,1.5794 2.31266,3.3418 -2.59977,6.8312 -5.18409,2.9392 -7.60291,4.6739 -0.26154,0.3542 -0.59587,0.5252 -0.74688,0.377 z m 7.38699,-5.8255 c -0.54594,-1.9336 -1.46318,-1.5786 -2.87351,-1.3727 -0.77186,0.1134 -2.46379,2.7054 -3.07745,4.7094 -0.23659,0.7791 0.12832,1.1788 1.55368,1.1788 2.46871,-0.018 4.94321,-2.5821 4.39728,-4.5155 z m 20.70214,7.377 c -0.27441,0.4048 -0.4654,1.2443 -0.4247,1.863 0.0399,0.6185 -0.0905,1.3327 -0.29228,1.5864 -0.56792,0.7191 -0.0299,1.5993 0.97568,1.5993 3.42952,-0.3948 1.85302,-7.382 -0.2587,-5.0487 z m -0.38193,-2.1851 c 0.7412,-0.4376 0.63355,-2.1195 -0.14898,-2.3633 -0.36206,-0.1104 -0.95001,-0.3592 -1.30713,-0.5509 -0.94781,-0.5053 -1.37047,-0.8218 -1.823,0.8552 -0.45963,1.7119 -0.007,2.4538 1.10891,2.5393 1.78751,0.7947 0.6842,0.7769 2.1702,-0.4803 z m -17.29836,-18.6276 c -0.3265,-0.2715 -0.96285,-1.27 -1.41046,-2.215 l -0.81675,-1.7175 -0.24871,2.2477 c -0.36206,3.2585 -0.37489,5.0587 -0.0328,5.0587 0.94998,-0.7369 3.28546,-2.1096 2.50869,-3.3739" />
      <path
         inkscape:connector-curvature="0"
         id="path3397"
         style="fill:#ffffff;fill-opacity:1;fill-rule:nonzero;stroke:none"
         d="m 150.68313,1022.3255 c -0.0307,0 -0.1234,-0.017 -0.2067,-0.027 -0.21102,-0.028 -0.34919,-0.068 -0.52239,-0.149 -0.37778,-0.1781 -0.47044,-0.4746 -0.31719,-1.0028 0.13615,-0.4603 0.34704,-0.9728 0.6635,-1.6164 0.7141,-1.4432 1.6072,-2.6576 2.20006,-2.9896 0.11332,-0.063 0.1989,-0.081 0.81256,-0.1732 0.48025,-0.071 0.90724,-0.083 1.1089,-0.028 0.5373,0.1433 0.87942,0.578 1.12596,1.4282 0.1234,0.4219 0.12831,0.8019 0.0128,1.2544 -0.24151,0.9529 -1.00841,1.9235 -2.04185,2.5821 -0.22867,0.146 -0.71901,0.3898 -0.96776,0.4804 -0.20381,0.076 -0.52023,0.1609 -0.7697,0.2059 -0.15821,0.03 -0.95285,0.056 -1.09823,0.035" />
      <path
         inkscape:connector-curvature="0"
         id="path3399"
         style="fill:#ffffff;fill-opacity:1;fill-rule:nonzero;stroke:none"
         d="m 149.74166,1044.4702 c -0.82742,-0.1483 -1.50167,-0.6763 -2.32621,-1.8308 -0.21884,-0.3065 -0.92011,-1.3299 -0.93222,-1.3649 -0.008,-0.02 0.7968,-1.3904 0.96991,-1.6542 0.31223,-0.4653 0.86033,-1.0562 1.26508,-1.3576 0.45472,-0.34 0.90724,-0.5658 1.42041,-0.7119 0.0876,-0.025 0.31921,-0.071 0.51307,-0.1026 0.52528,-0.086 1.00566,-0.2218 1.67199,-0.4705 0.79685,-0.2965 1.48596,-0.6057 2.29276,-1.0284 1.2215,-0.6364 1.78523,-1.0562 2.25278,-1.6741 0.22376,-0.2971 0.39696,-0.5808 0.70906,-1.1667 0.37922,-0.7091 0.54522,-0.9785 0.8674,-1.4033 0.27153,-0.357 0.7091,-0.8145 1.03559,-1.0882 1.1167,-0.928 2.33333,-1.2601 3.33886,-0.913 0.32222,0.1105 0.59375,0.2794 0.95074,0.5781 0.16325,0.141 0.20597,0.2087 0.15821,0.2594 -0.0406,0.04 -0.2366,0.06 -0.67921,0.073 -0.48746,0.013 -0.70631,0.035 -0.93219,0.089 -0.52806,0.1225 -0.8751,0.3768 -1.07112,0.7867 -0.15114,0.3093 -0.18608,0.5074 -0.22377,1.2215 -0.0228,0.4376 -0.0606,0.5837 -0.17896,0.727 -0.0926,0.1105 -0.30646,0.186 -0.53022,0.1882 -0.18883,0 -0.3392,0.036 -0.49529,0.1111 -0.32218,0.1604 -0.51821,0.412 -0.76475,0.9878 -0.21597,0.5052 -0.46756,0.8396 -0.80883,1.0833 -0.17104,0.1233 -0.2695,0.1689 -0.58867,0.2744 -0.64363,0.2159 -1.23725,0.518 -2.13958,1.0912 -0.54798,0.347 -0.93499,0.5352 -1.4581,0.714 -0.4576,0.1582 -0.69636,0.206 -1.12897,0.231 -0.60862,0.038 -0.91,0.1332 -1.36544,0.4375 -0.35915,0.2388 -0.94506,0.7947 -1.56363,1.4838 -0.8068,0.9002 -1.32284,1.5836 -1.32284,1.7546 0,0.035 0.008,0.038 0.0577,0.028 0.0328,0 0.1162,-0.048 0.18392,-0.093 0.12543,-0.085 0.18607,-0.1332 0.76682,-0.6357 0.63571,-0.546 1.13892,-0.8802 1.68198,-1.1089 0.5481,-0.231 0.94506,-0.3215 1.59149,-0.3542 0.19878,-0.01 0.42758,-0.036 0.52311,-0.056 0.45473,-0.093 0.87015,-0.2793 1.22439,-0.5481 0.28931,-0.2188 0.37489,-0.2716 0.69407,-0.4447 0.50537,-0.2765 1.15887,-0.5538 1.98628,-0.8453 1.12898,-0.397 1.56579,-0.6236 1.95568,-1.0155 0.21872,-0.2189 0.32713,-0.3749 0.52315,-0.7569 0.181,-0.352 0.26866,-0.4925 0.41471,-0.6735 0.18882,-0.2337 0.47251,-0.4326 0.744,-0.526 0.0657,-0.022 0.24383,-0.06 0.39772,-0.088 0.402,-0.066 0.54027,-0.1155 0.68132,-0.2437 0.2031,-0.1839 0.27657,-0.4476 0.36419,-1.2979 0.0527,-0.5353 0.0884,-0.7611 0.13831,-0.9022 0.1361,-0.3899 0.33708,-0.4726 1.14671,-0.4726 0.67345,0 0.86452,0.048 0.95997,0.2339 0.0456,0.088 0.0485,0.1082 0.0456,0.3719 -0.003,0.4 -0.0827,0.9878 -0.18608,1.3706 -0.1859,0.6784 -0.57075,1.342 -1.15378,1.9833 -0.2922,0.3222 -1.22934,1.0833 -2.17224,1.7675 -0.56584,0.4098 -1.18669,0.8325 -2.85644,1.9407 -1.6742,1.114 -2.17728,1.4588 -2.7759,1.8957 -0.62288,0.4575 -1.23941,0.9507 -1.74681,1.3955 -0.18392,0.161 -0.38773,0.3172 -0.57872,0.4404 -1.10111,0.7212 -1.93357,1.124 -2.62704,1.2722 -0.27429,0.058 -0.7069,0.076 -0.92,0.038" />
    </g>
  </g>
</svg>
