<?xml version="1.0" encoding="UTF-8" standalone="no"?>
<!-- Created with Inkscape (http://www.inkscape.org/) -->

<svg
   xmlns:dc="http://purl.org/dc/elements/1.1/"
   xmlns:cc="http://creativecommons.org/ns#"
   xmlns:rdf="http://www.w3.org/1999/02/22-rdf-syntax-ns#"
   xmlns:svg="http://www.w3.org/2000/svg"
   xmlns="http://www.w3.org/2000/svg"
   xmlns:xlink="http://www.w3.org/1999/xlink"
   xmlns:sodipodi="http://sodipodi.sourceforge.net/DTD/sodipodi-0.dtd"
   xmlns:inkscape="http://www.inkscape.org/namespaces/inkscape"
   width="52.509098"
   height="52.52018"
   viewBox="0 0 52.509098 52.52018"
   id="svg5160"
   sodipodi:version="0.32"
   inkscape:version="0.48.5 r10040"
   sodipodi:docname="os_mandriva.svg"
   version="1.0"
   inkscape:export-xdpi="27.42"
   inkscape:export-ydpi="27.42">
  <defs
     id="defs5162">
    <linearGradient
       inkscape:collect="always"
       id="linearGradient13960">
      <stop
         style="stop-color:white;stop-opacity:1;"
         offset="0"
         id="stop13962" />
      <stop
         style="stop-color:white;stop-opacity:0;"
         offset="1"
         id="stop13964" />
    </linearGradient>
    <linearGradient
       id="linearGradient3898">
      <stop
         style="stop-color:#cdb51a;stop-opacity:1;"
         offset="0"
         id="stop3900" />
      <stop
         style="stop-color:white;stop-opacity:1;"
         offset="1"
         id="stop3902" />
    </linearGradient>
    <linearGradient
       inkscape:collect="always"
       xlink:href="#linearGradient3898"
       id="linearGradient13956"
       x1="46.591862"
       y1="89.585007"
       x2="43.591812"
       y2="-74.733185"
       gradientUnits="userSpaceOnUse" />
    <linearGradient
       inkscape:collect="always"
       xlink:href="#linearGradient13960"
       id="linearGradient13966"
       x1="26.48"
       y1="1.3939171"
       x2="26.48"
       y2="52.84341"
       gradientUnits="userSpaceOnUse" />
  </defs>
  <sodipodi:namedview
     id="base"
     pagecolor="#ffffff"
     bordercolor="#666666"
     borderopacity="1.0"
     inkscape:pageopacity="0.0"
     inkscape:pageshadow="2"
     inkscape:zoom="2.75"
     inkscape:cx="183.03807"
     inkscape:cy="57.868232"
     inkscape:current-layer="layer1"
     showgrid="false"
     inkscape:document-units="px"
     inkscape:grid-bbox="true"
     inkscape:window-width="1680"
     inkscape:window-height="1030"
     inkscape:window-x="-3"
     inkscape:window-y="-3"
     showguides="true"
     inkscape:guide-bbox="true"
     inkscape:window-maximized="1">
    <sodipodi:guide
       orientation="vertical"
       position="393.92276"
       id="guide5230" />
    <sodipodi:guide
       orientation="vertical"
       position="438.14907"
       id="guide5236" />
  </sodipodi:namedview>
  <metadata
     id="metadata5165">
    <rdf:RDF>
      <cc:Work
         rdf:about="">
        <dc:format>image/svg+xml</dc:format>
        <dc:type
           rdf:resource="http://purl.org/dc/dcmitype/StillImage" />
        <dc:title />
      </cc:Work>
    </rdf:RDF>
  </metadata>
  <g
     id="layer1"
     inkscape:label="Layer 1"
     inkscape:groupmode="layer"
     transform="translate(-3.819132,-6.155729)">
    <g
       inkscape:label="shadow"
       style="display:inline"
       id="layer4"
       transform="translate(-392.7904,328.2799)" />
    <g
       inkscape:label="shadow"
       id="g3039"
       transform="translate(-840.833,182.2722)" />
    <g
       inkscape:label="color"
       id="g3041"
       transform="translate(-840.833,182.2722)">
      <path
         style="opacity:1;fill:#71c000;fill-opacity:1;stroke:#71c000;stroke-width:3.37896037;stroke-linejoin:bevel;stroke-miterlimit:4;stroke-dasharray:none;stroke-opacity:1"
         d=""
         id="path3043" />
      <path
         style="opacity:1;fill:#71c000;fill-opacity:1;stroke:#71c000;stroke-width:3.37896037;stroke-linejoin:bevel;stroke-miterlimit:4;stroke-dasharray:none;stroke-opacity:1"
         d=""
         id="path3045" />
      <path
         style="opacity:1;fill:#71c000;fill-opacity:1;stroke:#71c000;stroke-width:3.37896037;stroke-linejoin:bevel;stroke-miterlimit:4;stroke-dasharray:none;stroke-opacity:1"
         d=""
         id="path3047" />
    </g>
    <g
       inkscape:label="highlight"
       id="g3049"
       transform="translate(-840.833,182.2722)" />
    <g
       inkscape:label="text"
       id="g3089"
       transform="translate(-840.833,182.2722)" />
    <g
       id="g4774"
       inkscape:label="shadow"
       transform="translate(-1426.607,-26.2895)" />
    <g
       id="layer2"
       inkscape:label="color"
       transform="translate(-1426.607,-26.2895)">
      <path
         style="opacity:1;fill:#71c000;fill-opacity:1;stroke:#71c000;stroke-width:3.37896037;stroke-linejoin:bevel;stroke-miterlimit:4;stroke-dasharray:none;stroke-opacity:1"
         d=""
         id="path3422" />
      <path
         style="opacity:1;fill:#71c000;fill-opacity:1;stroke:#71c000;stroke-width:3.37896037;stroke-linejoin:bevel;stroke-miterlimit:4;stroke-dasharray:none;stroke-opacity:1"
         d=""
         id="path3426" />
      <path
         style="opacity:1;fill:#71c000;fill-opacity:1;stroke:#71c000;stroke-width:3.37896037;stroke-linejoin:bevel;stroke-miterlimit:4;stroke-dasharray:none;stroke-opacity:1"
         d=""
         id="path3428" />
    </g>
    <g
       id="g5777"
       inkscape:label="highlight"
       transform="translate(-1426.607,-26.2895)" />
    <g
       id="layer5"
       inkscape:label="text"
       transform="translate(-1426.607,-26.2895)" />
    <rect
       style="color:#000000;fill:url(#linearGradient13956);fill-opacity:1;fill-rule:evenodd;stroke:#2b2b2b;stroke-width:0.99699998;stroke-linecap:butt;stroke-linejoin:miter;stroke-miterlimit:4;stroke-opacity:1;stroke-dasharray:none;stroke-dashoffset:0;marker:none;visibility:visible;display:inline;overflow:visible"
       id="rect13948"
       width="50.730724"
       height="50.548958"
       x="4.9082928"
       y="7.219615"
       ry="7.0913997" />
    <g
       id="g6007"
       transform="matrix(-3.973892e-3,0.629601,-0.629601,-3.973892e-3,295.5792,-273.6194)"
       inkscape:export-xdpi="27.42"
       inkscape:export-ydpi="27.42"
       style="fill:white">
      <g
         transform="translate(415.3267,354.416)"
         id="g6011"
         style="fill:white" />
    </g>
    <g
       id="g3192"
       inkscape:label="openvaslogo"
       style="display:inline"
       transform="translate(-996.7028,556.527)" />
    <path
       style="opacity:1;color:black;fill:none;fill-opacity:1;fill-rule:evenodd;stroke:url(#linearGradient13966);stroke-width:1;stroke-linecap:butt;stroke-linejoin:miter;marker:none;marker-start:none;marker-mid:none;marker-end:none;stroke-miterlimit:4;stroke-dasharray:none;stroke-dashoffset:0;stroke-opacity:1;visibility:visible;display:inline;overflow:visible"
       d="M 2.1818182,45.429271 L 2,7.792907 C 2,7.792907 3.0909091,2.1565434 7.4545455,1.9747252 C 11.818182,1.792907 44.909091,1.9747252 44.909091,1.9747252 C 44.909091,1.9747252 50.727273,1.9747252 50.909091,9.2474525 C 51.090909,16.52018 50.727273,45.974725 50.727273,45.974725"
       id="path13958"
       transform="translate(3.819132,6.155729)" />
    <g
       id="g17609"
       transform="matrix(0.52182441,0,0,0.52182441,-25.935679,21.723126)">
      <path
         d="m 116.27816,-7.4965813 c -0.2236,-1.4399979 -1.0563,-1.6151076 -1.84902,-0.3887187 l -9.41575,14.5919165 c -0.79097,1.2210487 -2.61577,2.0363024 -4.05559,1.8036921 L 83.812329,5.7489776 C 82.369102,5.5149391 81.946106,6.2518281 82.868786,7.3814099 L 93.835248,20.847719 c 0.919264,1.1325 1.13101,3.115462 0.465221,4.416055 L 86.374271,40.71615 c -0.663865,1.300842 -0.09507,1.929063 1.261348,1.403175 l 16.198211,-6.270666 c 1.36001,-0.523963 3.31336,-0.111089 4.34377,0.919761 l 12.24477,12.315801 c 1.0288,1.03768 1.80437,0.694229 1.72303,-0.763094 l -0.95752,-17.343809 c -0.0801,-1.452975 0.91405,-3.184823 2.21806,-3.843409 l 15.49907,-7.840568 c 1.30152,-0.661195 1.21148,-1.504081 -0.20057,-1.880318 L 121.91813,12.967161 C 120.5075,12.59409 119.1717,11.105472 118.94778,9.6660947 l -2.66962,-17.162676"
         style="fill:#ffffff;fill-opacity:1;fill-rule:nonzero;stroke:none"
         id="path3064" />
      <path
         d="m 116.27816,-7.4965813 c -0.2236,-1.4399979 -1.0563,-1.6151076 -1.84902,-0.3887187 l -9.41575,14.5919165 c -0.79097,1.2210487 -2.61577,2.0363024 -4.05559,1.8036921 L 83.812329,5.7489776 C 82.369102,5.5149391 81.946106,6.2518281 82.868786,7.3814099 L 93.835248,20.847719 c 0.919264,1.1325 1.13101,3.115462 0.465221,4.416055 L 86.374271,40.71615 c -0.663865,1.300842 -0.09507,1.929063 1.261348,1.403175 l 16.198211,-6.270666 c 1.36001,-0.523963 3.31336,-0.111089 4.34377,0.919761 l 12.24477,12.315801 c 1.0288,1.03768 1.80437,0.694229 1.72303,-0.763094 l -0.95752,-17.343809 c -0.0801,-1.452975 0.91405,-3.184823 2.21806,-3.843409 l 15.49907,-7.840568 c 1.30152,-0.661195 1.21148,-1.504081 -0.20057,-1.880318 L 121.91813,12.967161 C 120.5075,12.59409 119.1717,11.105472 118.94778,9.6660947 l -2.66962,-17.162676 z"
         style="fill:#ffffff;fill-opacity:1;stroke:none"
         id="path3066" />
      <path
         d="m 144.67121,11.815473 -3.00108,5.510988"
         style="fill:#ffffff;fill-opacity:1;fill-rule:nonzero;stroke:none"
         id="path3068" />
      <path
         d="m 144.67121,11.815473 -3.00108,5.510988"
         style="fill:#ffffff;fill-opacity:1;fill-rule:nonzero;stroke:none"
         id="path3070" />
      <path
         d="m 144.67183,11.815722 c -0.59115,0.0131 -0.93019,0.05601 -1.10965,0.359223 -0.19436,0.328424 -1.09599,2.012271 -1.09599,2.012271 0,0 -0.92522,1.671242 -1.09536,2.012272 -0.15711,0.315818 -0.01,0.623378 0.29992,1.127222 0.59053,-0.0136 0.92957,-0.05657 1.10903,-0.359969 0.19436,-0.328424 1.09536,-2.012333 1.09536,-2.012333 0,0 0.92523,-1.670994 1.09599,-2.01252 0.1571,-0.315322 0.009,-0.622881 -0.2993,-1.126166"
         style="fill:#ffffff;fill-opacity:1;fill-rule:nonzero;stroke:none"
         id="path3072" />
      <path
         d="m 148.6503,18.162331 -6.39337,0.06595"
         style="fill:#ffffff;fill-opacity:1;fill-rule:nonzero;stroke:none"
         id="path3074" />
      <path
         d="m 148.6503,18.162331 -6.39337,0.06595"
         style="fill:#ffffff;fill-opacity:1;fill-rule:nonzero;stroke:none"
         id="path3076" />
      <path
         d="m 148.6503,18.162765 c -0.30489,-0.519554 -0.51167,-0.799481 -0.87058,-0.80892 -0.38872,-0.0092 -2.33418,0.02428 -2.33418,0.02428 0,0 -1.9467,0.0063 -2.33541,0.02397 -0.3583,0.01701 -0.55887,0.301039 -0.8532,0.826927 0.30489,0.518561 0.51105,0.798488 0.87058,0.80774 0.38872,0.0099 2.33418,-0.02428 2.33418,-0.02428 0,0 1.9467,-0.0061 2.33541,-0.02403 0.3583,-0.01621 0.55887,-0.300729 0.8532,-0.825686"
         style="fill:#ffffff;fill-opacity:1;fill-rule:nonzero;stroke:none"
         id="path3078" />
      <path
         d="m 145.17418,24.60109 -3.39787,-5.436536"
         style="fill:#ffffff;fill-opacity:1;fill-rule:nonzero;stroke:none"
         id="path3080" />
      <path
         d="m 145.17418,24.60109 -3.39787,-5.436536"
         style="fill:#ffffff;fill-opacity:1;fill-rule:nonzero;stroke:none"
         id="path3082" />
      <path
         d="m 145.17356,24.601586 c 0.28564,-0.532904 0.41667,-0.855491 0.23721,-1.167956 -0.19498,-0.337614 -1.24067,-1.985322 -1.24067,-1.985322 0,0 -1.02272,-1.661804 -1.24067,-1.984887 -0.20181,-0.298122 -0.54955,-0.321656 -1.15374,-0.298618 -0.2844,0.532159 -0.41604,0.855305 -0.23596,1.167211 0.19436,0.337677 1.24067,1.985384 1.24067,1.985384 0,0 1.02271,1.66199 1.24067,1.985322 0.20181,0.297625 0.54954,0.321407 1.15249,0.298866"
         style="fill:#ffffff;fill-opacity:1;fill-rule:nonzero;stroke:none"
         id="path3084" />
      <path
         d="m 137.70843,24.702243 2.99363,-5.506392"
         style="fill:#ffffff;fill-opacity:1;fill-rule:nonzero;stroke:none"
         id="path3086" />
      <path
         d="m 137.70843,24.702243 2.99363,-5.506392"
         style="fill:#ffffff;fill-opacity:1;fill-rule:nonzero;stroke:none"
         id="path3088" />
      <path
         d="m 137.7078,24.702243 c 0.59053,-0.01335 0.92896,-0.057 1.10841,-0.359471 0.19312,-0.328672 1.09289,-2.010843 1.09289,-2.010843 0,0 0.92274,-1.67 1.0935,-2.010843 0.15648,-0.315322 0.009,-0.622385 -0.30116,-1.125484 -0.58929,0.01385 -0.92771,0.057 -1.10655,0.35972 -0.19374,0.328424 -1.0935,2.010843 -1.0935,2.010843 0,0 -0.92274,1.669814 -1.09289,2.01134 -0.1571,0.314577 -0.009,0.622136 0.2993,1.124738"
         style="fill:#ffffff;fill-opacity:1;fill-rule:nonzero;stroke:none"
         id="path3090" />
      <path
         d="m 140.11277,18.288944 0,0"
         style="fill:#ffffff;fill-opacity:1;fill-rule:nonzero;stroke:none"
         id="path3092" />
      <path
         d="m 137.20173,11.919297 3.39849,5.438212"
         style="fill:#ffffff;fill-opacity:1;fill-rule:nonzero;stroke:none"
         id="path3094" />
      <path
         d="m 137.20173,11.919297 3.39849,5.438212"
         style="fill:#ffffff;fill-opacity:1;fill-rule:nonzero;stroke:none"
         id="path3096" />
      <path
         d="m 137.20235,11.919049 c -0.28502,0.532656 -0.41729,0.855491 -0.23721,1.167895 0.19498,0.337924 1.24067,1.986129 1.24067,1.986129 0,0 1.02272,1.662238 1.24067,1.98557 0.20243,0.298369 0.55017,0.321407 1.15436,0.298618 0.2844,-0.532408 0.41604,-0.855306 0.23596,-1.16746 -0.19436,-0.337677 -1.24067,-1.985819 -1.24067,-1.985819 0,0 -1.02271,-1.662797 -1.24067,-1.985632 -0.20181,-0.298867 -0.55017,-0.321904 -1.15311,-0.299301"
         style="fill:#ffffff;fill-opacity:1;fill-rule:nonzero;stroke:none"
         id="path3098" />
      <path
         d="M 74.435887,4.9984897 C 69.62155,10.422171 66.83209,16.910917 66.178657,24.134193 c -0.638405,7.059715 0.495275,16.193363 5.579852,21.551533 9.361912,9.866401 26.757881,-1.107289 34.964011,-7.070209 1.62777,-1.182487 2.75568,-3.047778 4.37333,-4.222938 -8.65843,6.29153 -25.050997,16.516695 -34.964193,7.070147 C 70.995664,36.569031 70.24617,27.462581 70.492566,20.841633 70.771561,13.346503 73.866346,6.3437917 78.809283,0.77555149 77.470812,2.2830473 75.778954,3.4854052 74.435887,4.9984897"
         style="fill:#ffffff;fill-opacity:1;fill-rule:nonzero;stroke:none"
         id="path3108" />
      <path
         id="path32"
         style="fill:#ffffff;fill-opacity:1;fill-rule:evenodd;stroke:none"
         d="m 147.79559,17.520706 -6.37115,0.05617 6.37115,-0.05617 z" />
    </g>
  </g>
</svg>
