<?xml version="1.0" encoding="UTF-8"?>
<svg width="256" height="256" version="1.1" viewBox="0 0 67.733 67.733" xmlns="http://www.w3.org/2000/svg">
 <g transform="translate(0 -229.27)">
  <g transform="rotate(-.93013 55.033 248.32)">
   <path d="m-72.455 271.88 18.979 12.806 6.3499 0.0354 0.30687-55.032-6.3499-0.0354-19.121 12.594-0.03541 6.3499 21.249-14.698-0.25966 46.566-21.084-14.934z" fill-rule="evenodd"/>
   <path class="gui_icon_class" transform="matrix(.26455 .004295 -.004295 .26455 .31649 228.38)" d="m182.68 0.13867-7.6465 3.7344c-6.9209 3.3757-10.314 9.1686-15.057 16.207s-10.012 15.574-16.355 24.438c-12.686 17.728-29.48 36.472-53.283 46.32l3.248 7.8496-3.2695-7.834c-0.10326 0.043092-0.19381 0.080042-0.29687 0.12305l-0.001954-0.003906-14.768 6.1543 0.00586 0.013672c-28.552 11.948-48.214 20.647-60.867 31.277-7.388 6.2068-12.501 13.711-13.937 22.404-1.4366 8.6935 0.60446 17.714 4.7676 27.689 4.16 9.9682 9.1083 17.749 16.273 22.836 7.1651 5.0871 16.076 6.7132 25.646 5.8066 6.169-0.58439 12.841-2.0718 20.271-4.3203l22.162 53.166 14.764-6.168 0.00196 0.00586 14.766-6.1621 14.768-6.1621-1.291-3.0957-20.305-48.707c4.6988-1.9586 9.572-3.9994 14.764-6.166 23.761-9.8305 48.839-8.1877 70.359-4.4707 10.76 1.8585 20.538 4.2141 28.932 5.8047 8.3933 1.5906 15.158 3.2615 22.551 0.20312l7.3926-3.0586-30.527-73.791c7.7456-6.7638 11.374-15.072 8.4551-21.557-2.817-6.2589-11.06-9.2839-20.943-8.627l-30.578-73.91zm-6.7305 25.58 21.592 52.189c-0.00135 5.75e-4 -0.00256 0.001378-0.0039 0.001953v0.001953l0.07031 0.15625 36.189 87.473c-1.9934-0.16874-1.9026 0.11306-4.4883-0.37696-7.753-1.4692-17.799-3.893-29.184-5.8594-22.769-3.9327-51.218-6.1211-79.203 5.457l3.2031 7.7402-3.2246-7.7266c-0.01097 0.00458-0.02029 0.0091-0.03125 0.01367l-24.682-59.055c0.10035-0.04189 0.18852-0.07719 0.28906-0.11915v-0.00195c27.931-11.563 46.706-32.987 60.156-51.783 6.7269-9.4004 12.168-18.21 16.615-24.811 1.3638-2.0242 1.4853-1.7879 2.7012-3.3008zm40.758 56.67c3.1304 0.80812 5.5287 2.4605 6.6348 4.918 1.1723 2.6047 0.7003 5.6382-1.0469 8.5859l-5.5879-13.504zm-135.27 29.547 24.65 58.984c-28.654 11.802-48.237 19.146-60.465 20.305-7.119 0.67434-11.245-0.35148-14.871-2.9258-3.6259-2.5743-7.223-7.4602-10.766-15.949-3.5395-8.4815-4.4796-14.493-3.748-18.92 0.73157-4.4272 2.9407-8.1355 8.4473-12.762 9.4294-7.922 28.358-16.708 56.752-28.732zm16.037 79.859 15.471 37.113-14.766 6.1621-15.604-37.43c4.6404-1.7324 9.6516-3.7198 14.898-5.8457z"/>
  </g>
 </g>
</svg>
