<?xml version="1.0" encoding="UTF-8"?>
<svg width="256" height="256" version="1.1" viewBox="0 0 67.733 67.733" xmlns="http://www.w3.org/2000/svg">
 <style>.gui_icon_class {
    opacity:1;
    stroke-linejoin:miter;
    stroke-opacity:1;
    fill-opacity:1;
    fill-rule:nonzero;
    paint-order:stroke fill markers;
    stroke:none;
    stroke-linecap:butt;
    stroke-miterlimit:4;
    stroke-dasharray:none;
    stroke-width:11.33858299;
    fill:#000000;
}</style>
 <g transform="translate(0 -229.27)">
  <g transform="matrix(2.0878 0 0 2.2337 41.673 -337.41)">
   <path class="gui_icon_class" transform="matrix(.12673 0 0 .11845 -19.96 253.7)" d="m48 0a48 48 0 0 0-48 48 48 48 0 0 0 48 48 48 48 0 0 0 45.201-32h50.799v48h-72v16 32h-40v96h96v-96h-40v-32h112v32.725a48 48 0 0 0-40 47.275 48 48 0 0 0 48 48 48 48 0 0 0 48-48 48 48 0 0 0-40-47.32v-32.68-16h-56v-64h-64a48 48 0 0 0-48-48zm0 16a32 32 0 0 1 32 32 32 32 0 0 1-32 32 32 32 0 0 1-32-32 32 32 0 0 1 32-32zm0 160h64v64h-64v-64zm160 0a32 32 0 0 1 32 32 32 32 0 0 1-32 32 32 32 0 0 1-32-32 32 32 0 0 1 32-32z"/>
  </g>
 </g>
</svg>
