<?xml version="1.0" encoding="UTF-8"?>
<svg width="256" height="256" version="1.1" viewBox="0 0 67.733 67.733" xmlns="http://www.w3.org/2000/svg">
 <g transform="translate(0 -229.27)">
  <g transform="matrix(2.0878 0 0 2.2337 41.673 -337.41)">
   <path class="gui_icon_class" transform="matrix(.12673 0 0 .11845 -19.96 253.7)" d="m72 0a72 72 0 0 0-72 72 72 72 0 0 0 72 72 72 72 0 0 0 20.885-3.1152l35.115 35.115h32v32h32v32l16 16h48v-48l-115.15-115.15a72 72 0 0 0 3.1504-20.85 72 72 0 0 0-72-72zm-16 32a24 24 0 0 1 24 24 24 24 0 0 1-24 24 24 24 0 0 1-24-24 24 24 0 0 1 24-24z"/>
  </g>
 </g>
</svg>
