<?xml version="1.0" encoding="UTF-8"?>
<svg width="256" height="256" version="1.1" viewBox="0 0 67.733 67.733" xmlns="http://www.w3.org/2000/svg" xmlns:xlink="http://www.w3.org/1999/xlink">
 <defs>
  <radialGradient id="radialGradient20263" cx="101.93" cy="130.24" r="3.2693" gradientTransform="matrix(.78063 -.026454 .022439 .66214 -74.987 157.05)" gradientUnits="userSpaceOnUse" xlink:href="#linearGradient3061"/>
  <linearGradient id="linearGradient3061">
   <stop stop-color="#fff" offset="0"/>
   <stop offset="1"/>
  </linearGradient>
  <radialGradient id="radialGradient20263-2" cx="101.93" cy="130.24" r="3.2693" gradientTransform="matrix(.78063 -.026454 .022439 .66214 -67.981 152.89)" gradientUnits="userSpaceOnUse" xlink:href="#linearGradient3061"/>
  <radialGradient id="radialGradient20263-4" cx="101.93" cy="130.24" r="3.2693" gradientTransform="matrix(.78063 -.026454 .022439 .66214 -61.269 156.87)" gradientUnits="userSpaceOnUse" xlink:href="#linearGradient3061"/>
  <radialGradient id="radialGradient20263-44" cx="101.93" cy="130.24" r="3.2693" gradientTransform="matrix(.78063 -.026454 .022439 .66214 -61.098 164.89)" gradientUnits="userSpaceOnUse" xlink:href="#linearGradient3061"/>
  <radialGradient id="radialGradient20263-1" cx="101.93" cy="130.24" r="3.2693" gradientTransform="matrix(.78063 -.026454 .022439 .66214 -67.811 168.64)" gradientUnits="userSpaceOnUse" xlink:href="#linearGradient3061"/>
  <radialGradient id="radialGradient20263-21" cx="101.93" cy="130.24" r="3.2693" gradientTransform="matrix(.78063 -.026454 .022439 .66214 -74.693 165.06)" gradientUnits="userSpaceOnUse" xlink:href="#linearGradient3061"/>
 </defs>
 <g transform="translate(0 -229.27)">
  <g>
   <path d="m55.033 280.07h8.4667v16.933h-8.4667z" style="paint-order:normal"/>
   <path d="m55.033 267.37h8.4667v8.4667h-8.4667z" style="paint-order:normal"/>
   <g transform="matrix(.46598 0 0 .46598 -33.683 191.04)" fill-rule="evenodd">
    <path d="m178.44 95.125 34.197-0.17271 5.0086-10.708h-34.715z"/>
    <path d="m172.48 111.06 20.38-0.17272-4.8359 10.363-19.862 0.17271z"/>
    <path d="m194.31 136.46h-33.851l-3.9724 10.363 33.851-0.17272z"/>
    <path d="m165.14 84.417h12.435l-26.74 62.331-10.595 0.0506-14.478-35.093c3.232-3.7544 1.9529-7.9759-2.418-11.226h8.981l13.472 31.606z"/>
    <path d="m127.31 126.56 3.7996 8.2902c-22.135 24.582-57.776 7.5704-57.686-18.623 0.55123-16.084 11.789-32.944 32.642-33.19 10.751 0.22274 18.401 4.9816 24.18 12.263l-11.572 0.17272c-4.2488-2.6227-7.8945-3.494-13.299-3.6269-12.746-0.0515-23.713 13.091-23.661 24.352 0.4987 12.05 8.8694 22.395 24.87 22.798 6.1572-0.0131 12.738-2.3588 20.725-12.435z"/>
   </g>
  </g>
  <g transform="matrix(.46598 0 0 .46598 -34.215 190.57)" fill="#f9b727" fill-rule="evenodd">
   <path d="m178.44 95.125 34.197-0.17271 5.0086-10.708h-34.715z"/>
   <path d="m172.48 111.06 20.38-0.17272-4.8359 10.363-19.862 0.17271z"/>
   <path d="m194.31 136.46h-33.851l-3.9724 10.363 33.851-0.17272z"/>
   <path d="m165.14 84.417h12.435l-26.74 62.331-10.595 0.0506-14.478-35.093c3.232-3.7544 1.9529-7.9759-2.418-11.226h8.981l13.472 31.606z"/>
   <path d="m127.31 126.56 3.7996 8.2902c-22.135 24.582-57.776 7.5704-57.686-18.623 0.55123-16.084 11.789-32.944 32.642-33.19 10.751 0.22274 18.401 4.9816 24.18 12.263l-11.572 0.17272c-4.2488-2.6227-7.8945-3.494-13.299-3.6269-12.746-0.0515-23.713 13.091-23.661 24.352 0.4987 12.05 8.8694 22.395 24.87 22.798 6.1572-0.0131 12.738-2.3588 20.725-12.435z"/>
  </g>
  <path d="m9.6577 241.9 2.2937 1.3279v2.6558l-2.1327 1.5694 0.56336 1.0462 1.6096-1.2072v0.64384l2.857-0.0402 0.04026 2.857 1.1267 0.0805-0.04021-2.9778 2.5754-0.0403-0.04026-1.0865 1.9315 1.2072 0.72432-0.72432-2.6156-1.7706v-2.012l2.4546-1.4486-0.48288-0.88528-2.0925 1.2072v-1.0462h-2.4949v-2.8973h-1.2877l0.04026 2.8973h-2.6961l-0.04026 0.84504-1.8108-1.006z" fill="#b2b2b4" fill-rule="evenodd"/>
  <path d="m10.437 240.68a2.0969 2.0969 0 0 1-2.0969 2.0969 2.0969 2.0969 0 0 1-2.0969-2.0969 2.0969 2.0969 0 0 1 2.0969-2.0969 2.0969 2.0969 0 0 1 2.0969 2.0969z" fill="url(#radialGradient20263)"/>
  <path d="m17.443 236.52a2.0969 2.0969 0 0 1-2.0969 2.0969 2.0969 2.0969 0 0 1-2.0969-2.0969 2.0969 2.0969 0 0 1 2.0969-2.0969 2.0969 2.0969 0 0 1 2.0969 2.0969z" fill="url(#radialGradient20263-2)"/>
  <path d="m24.155 240.5a2.0969 2.0969 0 0 1-2.0969 2.0969 2.0969 2.0969 0 0 1-2.0969-2.0969 2.0969 2.0969 0 0 1 2.0969-2.0969 2.0969 2.0969 0 0 1 2.0969 2.0969z" fill="url(#radialGradient20263-4)"/>
  <path d="m24.326 248.52a2.0969 2.0969 0 0 1-2.0969 2.0969 2.0969 2.0969 0 0 1-2.0969-2.0969 2.0969 2.0969 0 0 1 2.0969-2.0969 2.0969 2.0969 0 0 1 2.0969 2.0969z" fill="url(#radialGradient20263-44)"/>
  <path d="m17.614 252.27a2.0969 2.0969 0 0 1-2.0969 2.0969 2.0969 2.0969 0 0 1-2.0969-2.0969 2.0969 2.0969 0 0 1 2.0969-2.0969 2.0969 2.0969 0 0 1 2.0969 2.0969z" fill="url(#radialGradient20263-1)"/>
  <path d="m10.731 248.69a2.0969 2.0969 0 0 1-2.0969 2.0969 2.0969 2.0969 0 0 1-2.0969-2.0969 2.0969 2.0969 0 0 1 2.0969-2.0969 2.0969 2.0969 0 0 1 2.0969 2.0969z" fill="url(#radialGradient20263-21)"/>
 </g>
</svg>
