<?xml version="1.0" encoding="UTF-8"?>
<svg width="256" height="256" version="1.1" viewBox="0 0 67.733 67.733" xmlns="http://www.w3.org/2000/svg">
 <g transform="translate(0 -229.27)">
  <g transform="matrix(2.0878 0 0 2.2337 41.673 -337.41)">
   <path class="gui_icon_class" transform="matrix(.12673 0 0 .11845 -19.96 253.7)" d="m103.79 0-15.59 9 29.402 50.926-29.402 50.926 15.59 9 24.205-41.924 24.205 41.924 15.59-9-29.402-50.926 29.402-50.926-15.59-9-24.205 41.924-24.205-41.924zm-48.797 22.926c-45.782 31.757-65.95 90.107-49.102 143.57 16.849 53.459 66.303 89.406 121.88 89.502 55.574 0.09624 105.16-35.673 122.2-89.072 17.035-53.399-2.9372-111.83-48.609-143.75l-9.5078 15.598c39.542 27.633 56.1 76.829 41.643 122.15-14.458 45.319-57.112 76.541-105.69 76.457-48.581-0.08442-91.12-31.453-105.42-76.82-14.298-45.367 2.433-94.518 42.074-122.02l-9.4629-15.615z"/>
  </g>
 </g>
</svg>
