<?xml version="1.0" encoding="UTF-8"?>
<svg width="256" height="256" version="1.1" viewBox="0 0 67.733 67.733" xmlns="http://www.w3.org/2000/svg">
 <g transform="translate(0 -229.27)">
  <g transform="matrix(2.0878 0 0 2.2337 41.673 -337.41)">
   <path class="gui_icon_class" transform="matrix(.12673 0 0 .11845 -19.96 253.7)" d="m122.44 0.19727c-25.892 0-36.51 4.425-36.51 25.609 0 13.676 5.5275 21.989 20.801 27.084l20.219 6.5703c6.6912 2.0112 9.4551 3.6215 9.4551 10.191 0 7.5083-3.2011 8.9824-14.838 8.9824-6.4002 0-14.545-0.26834-33.164-0.67188l-1.3086 14.75c15.419 3.0838 28.072 3.4844 34.473 3.4844 27.346 0 37.238-5.6313 37.238-26.682 0-13.542-5.2358-21.988-21.236-27.217l-19.057-6.0332c-7.5639-2.2792-10.473-4.0233-10.473-10.459 0-7.9107 3.7828-8.4473 14.547-8.4473 10.619 0 22.981 0.13473 31.418 0.40234l1.4551-13.943c-11.2-2.9498-23.128-3.6211-33.02-3.6211zm-78.975 0.13477c-30.983 0-42.184 12.605-42.184 47.867 0 35.263 11.201 47.865 42.184 47.865 14.401 0 22.837-1.0723 32.146-3.7539l-1.8906-15.15c-8.873 1.0727-16.874 1.207-30.256 1.207-14.546 0-18.91-6.8384-18.91-30.168 0-23.33 4.3642-30.168 18.91-30.168 12.655 0 18.764 0.13384 28.219 0.66992l1.8906-15.285c-9.164-2.1452-16-3.084-30.109-3.084zm121.89 1.6094 27.346 86.883c0.87276 3.352 3.9281 5.6309 7.8555 5.6309h20.219c3.9274 0 6.9827-2.2789 7.8555-5.6309l27.201-86.883h-22.838l-18.037 66.771c-0.87275 3.352-1.8908 6.9723-2.4726 10.324h-3.6367c-0.7273-3.3519-1.5999-6.9723-2.4727-10.324l-18.184-66.771h-22.836zm-53.357 142.06v32h-32l48 48 48-48h-32v-32h-32zm-111.73 31.975-0.30859 80.02h256.07l-0.29297-80.02-16.174 0.06641 0.23242 63.795h-222.85l0.23047-63.795-16.908-0.06641z"/>
  </g>
 </g>
</svg>
