<?xml version="1.0" encoding="UTF-8"?>
<svg width="256" height="256" version="1.1" viewBox="0 0 67.733 67.733" xmlns="http://www.w3.org/2000/svg">
 <g transform="translate(0 -229.27)">
  <g transform="matrix(2.0878 0 0 2.2337 41.673 -337.41)">
   <path class="gui_icon_class" transform="matrix(.12673 0 0 .11845 -19.96 253.7)" d="m128.3 0.0058594c-1.3639-0.04353-4.1947 0.17137-5.0195 0.45313-0.60567 0.21021-0.63945 0.27804-0.14453 0.29492 0.55078 0.018826 1.3448 1.3141 0.99023 1.6172-0.0645 0.05403-1.4874 0.026809-3.1621-0.10742-2.5961-0.18573-2.9414-0.28316-2.3516-0.65039 1.241-0.77499 0.21556-0.89724-2.8984-0.34766-3.6123 0.62472-3.4809 0.61636-3.1699 0.1875 0.44477-0.614-0.50699-0.35957-5.252 1.3965-7.1498 2.647-11.962 4.7913-15.01 6.6895-1.8566 1.1693-2.8584 1.5985-3.0488 1.3301-0.18275-0.25175-1.8028 0.8054-4.5352 2.9609-5.1875 4.0914-7.4291 6.1861-8.3066 7.7598-0.36711 0.65976-0.81034 1.1992-0.98828 1.1992-0.3098 0-3.6088 5.7535-3.627 6.3242-0.017542 0.55761-1.4377 1.8472-2.1309 1.9316-0.94985 0.11878-3.2728 4.5445-5.7383 10.938l-1.9355 5.0215c-0.87107 5.0896-1.2771 9.2559-1.2637 12.588 0.29371 13.317 1.9953 14.954 3.9141 21.123 5.2785 16.972 19.796 32.901 37.436 41.076 6.353 2.945 12.977 4.8121 18.75 5.2891v0.01562c4.6239 0.38581 9.7661 0.41295 9.0352 0.05078-0.32807-0.1609-2.8751-0.67905-5.6602-1.1484-6.4857-1.0928-8.8122-2.0136-12.264-4.8516-2.4589-2.0212-2.9637-2.2727-2.8008-1.3906 0.07267 0.39172-0.26043 0.31364-1.8574-0.44531-4.3614-2.0687-5.3094-2.6176-4.9004-2.832 0.79736-0.41823 0.46323-1.1172-0.73633-1.541-0.64787-0.22785-1.9967-1.1608-2.998-2.0723-1.2063-1.0988-2.145-1.6582-2.7812-1.6582-1.1507 0-3.3916-2.329-4.3965-4.5703-0.41172-0.91657-0.85368-1.4158-1.1699-1.3086-0.30088 0.09895-1.4773-0.98085-2.8828-2.6484-3.0262-3.5911-3.433-4.225-2.7832-4.4395 0.3185-0.099195 0.021373-0.5752-0.83789-1.3477-0.9823-0.88204-1.2633-1.3809-1.0703-1.8984 0.18293-0.49167-0.22417-1.4009-1.3516-3.0176-1.821-2.6161-1.94-2.954-0.8457-2.4551 1.4171 0.64608 1.5946 0.36148 0.78516-1.2578-1.3158-2.6338-2.6873-4.0817-4.2812-4.5156-0.79686-0.21696-1.7448-0.6163-2.1074-0.88477-0.96827-0.71902-2.4012-3.7624-2.123-4.5078 0.13612-0.36462-0.070344-1.0477-0.47656-1.5762-0.49136-0.63882-0.73019-1.631-0.75781-3.1484-0.024304-1.3721-0.35912-2.9253-0.88086-4.0781-1.0978-2.4297-1.12-6.4917-0.082031-14.939 0.80529-6.5553 1.276-8.0926 3.5488-11.551 1.944-2.9558 2.6391-4.6861 2.0156-5.0137-0.71413-0.37585 1.8726-3.2446 6.5742-7.2891 5.0467-4.3416 9.151-6.7153 11.451-6.9297 2.1348-0.18767 2.8728-2.0448 1.9238-1.6641-0.39167 0.15812-0.61424-0.23332 1.0742-1.3379 2.0961-1.37 3.711-1.9499 6.627-2.2344 2.6376-0.2547 4.3628-1.0187 3.4238-1.5117-0.42274-0.22287-0.34111-0.34383 0.35352-0.53125 0.49486-0.13406 1.8869-0.74948 3.0957-1.3691 2.7707-1.4158 5.978-2.1481 6.4922-1.4668 0.22352 0.29463 0.46245 0.3492 0.65039 0.13476 0.16413-0.19839 0.65623-0.36341 1.0938-0.41406 0.43742-0.043055 2.3865-0.25822 4.3301-0.47266 6.2865-0.7099 15.296 0.53752 21.166 2.9316 9.4033 3.8348 18.751 13.787 20.982 22.34 1.4572 5.5823 1.5258 6.174 1.3203 11.527-0.11402 2.9729-0.33963 5.8501-0.5 6.3887-0.22628 0.76148-0.17463 0.92537 0.22656 0.71094 0.70139-0.36918 0.34801 1.3992-0.79492 3.9863-0.61319 1.386-1.1871 2.0941-1.9824 2.4453-1.152 0.5083-2.1303 2.2011-1.7539 3.0352 0.36288 0.80538-0.50109 1.7196-4.2227 4.459-3.7547 2.764-6.7523 4.4594-5.6172 3.4219 2.5396-2.3253 0.77952-1.0876-1.6777 0.37891-1.4046 0.83915-4.1168 2.408-5.5273 2.5684-0.49318 0.05403-1.8812 0.34066-3.084 0.63867-3.5428 0.87714-5.5683 0.97823-9.0312 0.45312-7.891-1.196-14.857-5.7726-18.625-12.238-1.3349-2.2904-2.5443-6.102-2.5586-8.0645-0.00401-0.5555-0.17626-0.8494-0.4043-0.74219-0.57209 0.30113-0.48368-1.6255 0.20118-4.4043 1.8531-7.5172 8.4742-13.052 17.494-14.623 4.2354-0.73726 8.2786-0.27517 12.475 1.4219 1.6236 0.6568 5.2364 2.6625 5.1562 2.5781-3.062-2.7813-2.1999-3.0577-9.4785-6.1172-1.2814-0.53886-3.6728-0.78569-6.0078-0.91992-3.2279-0.17897-4.2444-0.10414-6.5606 0.49609-5.4816 1.7091-9.5003 4.5456-12.822 8.582-0.85451 0.86625-1.7466 2.3562-2.248 3.2168-0.5107 0.87613-1.3381 2.4069-1.6992 3.4766-0.68661 2.0359-1.0065 2.2299-0.99414 6.0957 0.00827 2.5967 0.24703 5.0688 0.60937 6.3262 1.4367 4.9877 4.4226 8.9484 10.941 13.639 3.7636 2.708 5.9174 4.1467 3.9375 3.332-1.9553-0.80403-4.8028-2.852-6.4121-3.9297-4.5479-3.0435-1.7449-0.97426-1.0234 0.24023 0.45768 0.77212-1.0836-0.30803-2.3613-1.3965-3.1519-2.6887-4.8217-4.6363-2.0234-0.7832 2.2938 3.1585 8.597 6.574 12.381 8.1504 4.1052 1.7127 6.4406 2.5892 11.641 2.8652 2.9769 0.15838 7.2539-0.38845 7.2539-0.8418 0-0.15027-4.3952-0.041757-6.4766-0.2832-4.7391-0.53084-6.9519-0.98506-9.0977-2.0547-3.156-1.5736-2.8366-1.8412 1.1152-0.92969 5.3018 1.2199 12.647 1.4127 17.707 0.46094 6.4453-1.2118 12.375-3.9796 17.959-8.3828 2.1593-1.6999 2.645-2.1371 2.7227-1.5664 0.0877 0.63224-0.31626 1.0059-0.11329 1.0059 0.52022 0 1.3526-1.6795 1.3125-2.8672-0.01829-0.54958 0.27843-1.4845 0.70118-2.0586 0.78659-1.0671 0.81021-1.1523 1.4023-0.50391 0.5553 0.60193 0.55773 1.1215 1.1797 0.083985 0.1714-0.28678 0.36853-0.72336 0.37109-1.002 0.00967-1.0595 2.9629-6.1057 3.4746-5.9453 0.28065 0.091176-0.6972 1.5365 0.23047 0.74805 0.89106-0.75583 0.79241-1.813 0.92773-3.2715 0.21551-2.3216 0.45859-2.4574 0.85352-1.6934 0.38289 0.73996 0.44064 0.59187 0.4707-1.1855 0.0203-1.2309 0.42144-2.9653 1.0176-4.4023 0.54127-1.3029 0.98538-2.4064 0.98633-2.457 1e-3 -0.059095-0.33799-0.083984-0.75195-0.083984-0.41397 0-0.86133-0.24052-0.99414-0.53516-0.37764-0.8367-0.28302-3.1352 0.13671-3.3496 0.21776-0.11532 0.06582-0.65928-0.35742-1.2891-0.40395-0.60058-0.86837-1.4721-1.0312-1.9355-0.26737-0.76148-0.23216-0.79626 0.36524-0.375 0.36485 0.25749 0.85784 0.83378 0.91796 0.72656 0.2105-0.37559-0.22812-1.5079-0.55664-3.2559-0.39192-2.0837-0.16951-1.7357-0.98242-3.6445-0.41547-0.97592-0.63734-0.54472-0.94531-0.4375-0.66205 0.21452-1.2303-0.58126-1.4258-1.9941-0.13056-0.95751-0.04492-1.0119 1.293-1.1191 1.4168-0.1019 1.4497-0.07393 2.8555 2.3711 0.78235 1.36 2.0167 4.1106 2.7422 6.1133 0.72545 2.0027 1.4305 3.6406 1.5684 3.6406 0.13732 0-0.44258-2.0959-1.2891-4.6562-1.6539-5.0029-2.013-7.6124-0.94727-6.8594 0.78058 0.55229 0.75198 0.15313-0.15039-2.0801-2.9691-7.3498-11.294-16.028-20.273-20.244-2.5192-1.1917-2.5141-1.0582-1.3496 0.083984 0.60216 0.5842 0.51823 0.57244-0.62696-0.10547-0.7277-0.43165-1.5164-1.1422-1.752-1.582-0.52297-0.97735-2.2692-1.3146-5.2012-1.0039-1.8501 0.19594-2.4037 0.0968-4.5918-0.82812-2.1323-0.90103-11.59-3.7227-12.479-3.7227-0.16664 0-0.30274 0.24438-0.30274 0.54492 0 0.35457-0.21619 0.47212-0.6289 0.33789-0.34601-0.13001-1.6062-0.21484-2.8008-0.21484-1.8471 0-2.1549-0.087799-2.0547-0.5918 0.08444-0.42886-0.19236-0.6187-1-0.70312-1.8548-0.1799-0.9669-0.9006 1.248-1.0078 1.1312-0.056563 2.0547-0.22514 2.0547-0.35938 0-0.079145-0.29145-0.12221-0.74609-0.13672zm-62.434 27.514c-0.45404 0-0.82563 0.30078-0.94336 0.76172-0.10676 0.41822-0.32599 1.0268-0.48633 1.3535v0.001953c-0.41798 0.8497 0.52541 0.75799 1.4355-0.13477 0.9717-0.95439 0.96892-1.9824-0.00586-1.9824zm-3.332 9.1777c-0.041972-0.07457-0.23651 0.10148-0.74414 0.61523-0.35719 0.36173-0.89092 1.1398-0.73633 2.4844-0.058847 2.3963-0.029103 1.7618 0.89844 0.25586 0.009074-0.13946 0.22392-0.46636 0.25391-1.2734 0.043695-1.1345 0.39808-1.9577 0.32812-2.082zm88.004 14.277c-0.81917 0-1.0447 1.1516-0.52149 2.3125 0.49466 1.5897 0.44236 2.0112 1.3828-0.42578 0.41372-1.0727-0.19853-1.8867-0.86133-1.8867zm27.074 6.6523c-0.27814-0.059632-0.52034 0.6492-1.2246 3.3418-0.4483 1.7147-1.4415 4.406-2.207 5.9824-0.76555 1.5754-1.3906 2.9751-1.3906 3.1094 0 0.55836 0.60593-0.35476 1.8789-2.832 1.2767-2.4834 3.4413-9.2141 3.0664-9.5332-0.0427-0.036364-0.08332-0.05984-0.12305-0.068359zm-28.426 1.0488c-0.15086 0-0.7789 1.0081-1.1738 1.8262-0.7049 1.4612-1.9209 2.6189-2.4707 2.5117-0.42475-0.080454 0.49817-0.81976 0.86328-1.793 0.45282-1.1953 1.5148-1.8892 0.50195-1.4629-0.29143 0.12359-0.67016 0.55211-1.0117 0.92188-0.47912 0.52004-0.73545 0.91447-0.97851 1.1289-0.59866 0.5094-0.48023 1.85 0.13671 2.0645v-0.017578c0.55656 0.22794 1.6406 0.57685 1.8887-0.16016 0.07041-0.20936 0.24306-0.63701 0.54101-0.93164 0.64952-0.64127 2.093-4.0897 1.7031-4.0879zm-10.887 8.1738c-0.19639 0.01174-0.44447 0.037814-0.75 0.078125-0.84952 0.10722-2.3927 0.21273-3.4316 0.21484-1.4121 0.003377-1.8906 0.13098-1.8906 0.51172 0 0.29801 0.369 0.50851 0.89649 0.51172 0.49215 0.002532 1.1622 0.14657 1.4902 0.33398v0.013672c0.71042 0.39509 2.3867 0.45122 2.3867 0.083984 0-0.14267 0.39127-0.40438 0.86914-0.5918 0.47787-0.18488 0.94915-0.54208 1.0469-0.81055 0.10581-0.28176-0.02802-0.38092-0.61719-0.3457zm-30.057 1.0566c-0.1008 0.067231 0.22926 0.81391 1.0781 2.1289v-0.003906c0.5964 1.0322 1.0238 2.0409 1.1816 1.9902 0.12605-0.032164-0.05181-1.0558-0.75195-2.1738-0.87517-1.3965-1.407-2.0086-1.5078-1.9414zm-2.2598 2.6348c-0.21977 0-0.39844 0.30543-0.39844 0.67773 0 0.37314 0.14716 0.67969 0.33008 0.67969 0.18193 0 0.48274 0.36203 0.79297 0.87109 0.31048 0.5094 0.53477 0.73897 1.252 1.5781 0.32201 0.32975 2.2742 2.4004 2.3418 2.4004 0.20954 0-2.2265-3.2796-3.0059-4.1348-0.4047-0.44507-0.91601-1.0933-0.91601-1.4395 0-0.34866-0.17848-0.63281-0.39649-0.63281zm6.0176 73.459v32h-32l48 48 48-48h-32v-32h-32zm-111.73 31.975-0.30859 80.02h256.07l-0.29297-80.02-16.174 0.06641 0.23242 63.795h-222.85l0.23047-63.795-16.908-0.06641z"/>
  </g>
 </g>
</svg>
