<?xml version="1.0" encoding="UTF-8"?>
<svg width="256" height="256" version="1.1" viewBox="0 0 67.733 67.733" xmlns="http://www.w3.org/2000/svg">
 <g transform="translate(0 -229.27)">
  <g transform="matrix(2.0878 0 0 2.2337 41.673 -337.41)">
   <path class="gui_icon_class" transform="matrix(.12673 0 0 .11845 -19.96 253.7)" d="m56.232 0c-30.413 0-56.129 24.664-56.129 55.996 0 31.332 25.716 56.012 56.129 56.012 26.746 0 49.863-19.09 55.051-45.004h80.717v37h48.064v-37h16.039v-22h-144.82c-5.1813-25.918-28.301-45.004-55.053-45.004zm0 22.756c19.819 0 34.822 15.284 34.822 33.24 0 17.956-15.003 33.258-34.822 33.258-19.819 0-34.809-15.302-34.809-33.258 0-17.956 14.99-33.24 34.809-33.24zm55.768 121.24v32h-32l48 48 48-48h-32v-32h-32zm-111.73 31.975-0.30859 80.02h256.07l-0.29297-80.02-16.174 0.06641 0.23242 63.795h-222.85l0.23047-63.795-16.908-0.06641z"/>
  </g>
 </g>
</svg>
