<svg width="256" height="256" version="1.1" viewBox="0 0 67.733 67.733" xmlns="http://www.w3.org/2000/svg">
 <g transform="translate(0 -229.27)">
  <g transform="matrix(2.0878 0 0 2.2337 41.673 -337.41)">
   <path class="gui_icon_class" transform="matrix(.12673 0 0 .11845 -19.96 253.7)" d="m37.211 0.19727c-25.892 0-36.51 4.425-36.51 25.609 0 13.676 5.5275 21.989 20.801 27.084l20.219 6.5703c6.6911 2.0112 9.4551 3.6215 9.4551 10.191 0 7.5083-3.1992 8.9824-14.836 8.9824-6.4002 0-14.547-0.26834-33.166-0.67188l-1.3086 14.75c15.419 3.0838 28.074 3.4844 34.475 3.4844 27.346 0 37.236-5.6313 37.236-26.682 0-13.542-5.2358-21.988-21.236-27.217l-19.055-6.0332c-7.5639-2.2792-10.475-4.0233-10.475-10.459 0-7.9107 3.7829-8.4473 14.547-8.4473 10.619 0 22.983 0.13473 31.42 0.40234l1.4531-13.943c-11.2-2.9498-23.128-3.6211-33.02-3.6211zm185.16 0.0019531c-33.019 0-44.947 11.129-44.947 47.732 0 33.922 9.4557 48.268 32.002 48.268 13.819 0 23.709-6.0333 28.945-10.994l2.0371 9.252h16.291v-53.363h-21.383v32.982c-5.0911 2.5475-10.91 4.6934-18.037 4.6934-12.51 0-16.438-7.1066-16.438-30.168 0-26.816 5.528-30.838 22.256-30.838 8.7276 0 18.474 0.26639 28.365 0.66992l1.7461-15.016c-9.4549-2.4134-19.056-3.2188-30.838-3.2188zm-142.25 1.7422 27.346 86.883c0.87276 3.352 3.928 5.6309 7.8555 5.6309h20.219c3.9274 0 6.9827-2.2789 7.8555-5.6309l27.201-86.883h-22.838l-18.037 66.771c-0.87276 3.352-1.8908 6.9723-2.4727 10.324h-3.6367c-0.7273-3.3519-1.5999-6.9723-2.4727-10.324l-18.182-66.771h-22.838zm31.873 142.06v32h-32l48 48 48-48h-32v-32h-32zm-111.73 31.975-0.30859 80.02h256.07l-0.29297-80.02-16.174 0.06641 0.23242 63.795h-222.85l0.23047-63.795-16.908-0.06641z"/>
  </g>
 </g>
</svg>
