<?xml version="1.0" encoding="UTF-8"?>
<svg width="256" height="256" version="1.1" viewBox="0 0 67.733 67.733" xmlns="http://www.w3.org/2000/svg">
 <g transform="translate(0 -229.27)">
  <g transform="matrix(2.0878 0 0 2.2337 41.673 -337.41)">
   <path class="gui_icon_class" transform="matrix(.12673 0 0 .11845 -19.96 253.7)" d="m116 0v112h24v-112h-24zm-33.445 8.334c-57.342 21.772-91.638 81.878-80.449 142.79 11.189 60.913 64.185 104.66 125.45 104.87 61.267 0.21274 114.56-43.147 126.18-103.98 11.615-60.831-22.271-121.18-79.463-143.35l-6.5801 19.439c49.015 19.001 76.735 69.251 67.088 119.77-9.6471 50.523-54.432 87.622-107.16 87.439-52.726-0.1832-97.249-37.579-106.54-88.164-9.2916-50.586 18.798-100.65 67.949-119.31l-6.4727-19.506z"/>
  </g>
 </g>
</svg>
