<?xml version="1.0" encoding="UTF-8"?>
<svg width="256" height="256" version="1.1" viewBox="0 0 67.733 67.733" xmlns="http://www.w3.org/2000/svg">
 <g transform="translate(0 -229.27)">
  <g transform="matrix(2.0878 0 0 2.2337 41.673 -337.41)">
   <path class="gui_icon_class" transform="matrix(.12673 0 0 .11845 -19.96 253.7)" d="m-0.0058594 0.0078125v18.615c132.19 0 238.61 106.52 238.61 237.37h17.398c1e-5 -141.64-115.04-255.99-256-255.99zm0 95.996v18.615c79.182 0 142.61 63.555 142.61 141.38h17.4c3e-5 -88.629-72.068-159.99-160.01-159.99zm32.006 95.996a32 32 0 0 0-32 32 32 32 0 0 0 32 32 32 32 0 0 0 32-32 32 32 0 0 0-32-32z"/>
  </g>
 </g>
</svg>
