<?xml version="1.0" encoding="UTF-8"?>
<svg width="256" height="256" version="1.1" viewBox="0 0 67.733 67.733" xmlns="http://www.w3.org/2000/svg">
 <g transform="translate(0 -229.27)">
  <g transform="matrix(2.0878 0 0 2.2337 41.673 -337.41)">
   <path class="gui_icon_class" transform="matrix(.12673 0 0 .11845 -19.96 253.7)" d="m128 0.0078125c-70.26 0-128.01 57.023-128.01 127.98 0 70.961 57.75 128 128.01 128s127.99-57.041 127.99-128c0-70.961-57.734-127.98-127.99-127.98zm0 18.615c61.514 0 110.6 49.228 110.6 109.37 0 60.141-49.082 109.38-110.6 109.38-61.514 0-110.59-49.244-110.59-109.38 0-60.141 49.08-109.37 110.59-109.37zm0 32.318c-25.902 0-48.008 21.06-48.008 47.998h21.27c1e-5 -13.514 11.367-25.244 26.738-25.244s26.725 11.73 26.725 25.244-11.354 25.244-26.725 25.244v0.1211h-11.004v40.078h22v-18.746c20.858-4.9593 36.996-23.676 36.996-46.697 0-26.938-22.091-47.998-47.992-47.998zm-11.004 132.12v22h22v-22h-22z"/>
  </g>
 </g>
</svg>
