<?xml version="1.0" encoding="UTF-8"?>
<svg width="256" height="256" version="1.1" viewBox="0 0 67.733 67.733" xmlns="http://www.w3.org/2000/svg">
 <style>.gui_icon_class {
    opacity:1;
    stroke-linejoin:miter;
    stroke-opacity:1;
    fill-opacity:1;
    fill-rule:nonzero;
    paint-order:normal;
    stroke:none;
    stroke-linecap:butt;
    stroke-miterlimit:4;
    stroke-dasharray:none;
    stroke-width:18;
    fill:#000000;
}</style>
 <g transform="translate(0 -229.27)">
  <g transform="matrix(2.0878 0 0 2.2337 41.673 -337.41)">
   <path class="gui_icon_class" transform="matrix(.12673 0 0 .11845 -19.96 253.7)" d="m64 0v16 168 8h56v48h-120v16h256v-16h-120v-48h56v-16-168-8h-128zm16 16h96v160h-96v-160zm16 16v16h64v-16h-64zm0 32v16h64v-16h-64zm0 32v16h64v-16h-64zm31.385 32.242a16 16 0 0 0-16 16 16 16 0 0 0 16 16 16 16 0 0 0 16-16 16 16 0 0 0-16-16z"/>
  </g>
 </g>
</svg>
