<?xml version="1.0" encoding="UTF-8"?>
<svg width="256" height="256" version="1.1" viewBox="0 0 67.733 67.733" xmlns="http://www.w3.org/2000/svg">
 <g transform="translate(0 -229.27)">
  <path class="gui_icon_class" transform="matrix(.26458 0 0 .26458 0 229.27)" d="m224.38-0.0019531c-0.35414 46.001-8.3412 79.632-25.666 100.84-16.754 20.505-43.317 32.56-89.543 33.332l35.123-35.121-22.627-22.629-73.539 73.539 0.25 0.25-0.37891 0.3789 73.541 73.539 22.627-22.627-34.912-34.912-0.00781-0.41796c52.297-0.8775 90.488-16.002 114.25-45.082 24.492-29.975 32.506-71.388 32.887-120.84l-32.002-0.25zm-224.38 63.998v192h240v-48h-15.996v32.004h-208.01v-160h48.004v-16.004h-64z"/>
 </g>
</svg>
