<?xml version="1.0" encoding="UTF-8" standalone="no"?>
<svg
   width="256"
   height="256"
   version="1.1"
   viewBox="0 0 67.733 67.733"
   id="svg8">
  <defs
     id="defs12" />
  <g
     transform="translate(0,-229.27)"
     id="g6">
    <g
       transform="matrix(-2.0877996,-0.00127341,0.0013624,-2.2336996,25.690683,863.69628)"
       id="g4">
      <path
         class="gui_icon_class"
         transform="matrix(0.12673,0,0,0.11845,-19.96,253.7)"
         d="m 128,0.0078125 c -70.26,0 -128.01,57.0230005 -128.01,127.9799975 0,70.961 57.75,128 128.01,128 70.26,0 127.99,-57.041 127.99,-128 C 255.99,57.026813 198.256,0.0078125 128,0.0078125 Z m 0,18.6149995 c 61.514,0 110.6,49.228001 110.6,109.369998 0,60.141 -49.082,109.38 -110.6,109.38 -61.514,0 -110.59,-49.244 -110.59,-109.38 C 17.41,67.851813 66.49,18.622813 128,18.622812 Z M 116.99234,177.06081 v 22 h 22 v -22 z"
         id="path2" />
    </g>
    <path
       style="stroke-width:0.525599"
       class="gui_icon_class"
       d="m 36.769665,282.30118 0.01735,-22.97015 -5.820912,-0.003 -0.01735,22.97013 z"
       id="path2-3"/>
  </g>
</svg>
