<?xml version="1.0" encoding="UTF-8"?>
<svg width="256" height="256" version="1.1" viewBox="0 0 67.733 67.733" xmlns="http://www.w3.org/2000/svg">
 <g transform="translate(0 -229.27)">
  <g transform="matrix(2.0878 0 0 2.2337 41.673 -337.41)">
   <path class="gui_icon_class" transform="matrix(.12673 0 0 .11845 -19.96 253.7)" d="m56.617 71.996c-30.339 0-55.99 24.664-55.99 55.996s25.652 56.012 55.99 56.012c26.681 0 49.741-19.09 54.916-45.004h80.52v37h47.947v-37h16v-22h-144.46c-5.1686-25.918-28.232-45.004-54.918-45.004zm0 22.756c19.77 0 34.738 15.284 34.738 33.24s-14.968 33.258-34.738 33.258-34.723-15.302-34.723-33.258 14.952-33.24 34.723-33.24z"/>
  </g>
 </g>
</svg>
