<?xml version="1.0" encoding="UTF-8"?>
<svg width="256" height="256" version="1.1" viewBox="0 0 67.733 67.733" xmlns="http://www.w3.org/2000/svg">
 <g transform="translate(0 -229.27)">
  <g transform="matrix(2.0878 0 0 2.2337 41.673 -337.41)">
   <path class="gui_icon_class" transform="matrix(.12673 0 0 .11845 -19.96 253.7)" d="m32 0-32 64h64l-32-64zm64 32v16h160v-16h-160zm-96 64v64h64v-64h-64zm96 31.709v16.291h160v-16.291h-160zm-63.77 64.508a32.23 31.892 0 0 0-32.23 31.891 32.23 31.892 0 0 0 32.23 31.893 32.23 31.892 0 0 0 32.229-31.893 32.23 31.892 0 0 0-32.229-31.891zm63.77 31.783v16h160v-16h-160z"/>
  </g>
 </g>
</svg>
