<?xml version="1.0" encoding="UTF-8" standalone="no"?>
<svg
   width="256"
   height="256"
   version="1.1"
   viewBox="0 0 67.733 67.733"
   id="svg6"
>
  <defs
     id="defs10" />
  <g
     transform="translate(0,-229.27)"
     id="g4">
    <path
       class="gui_icon_class"
       d="M 5.1675e-4,229.21403 0,288.47995 h 30.924415 l 0.1435,-4.23222 H 4.2332801 l 5.291e-4,-50.79936 c 19.9670878,-0.0679 21.4269708,-0.0679 42.3333298,0 l 0,14.19781 4.234338,0 0,-18.43109 c -19.292083,-0.002 -30.746124,-0.002 -50.80096025,-0.001 z"
       id="path2"
       style="stroke-width:0.26458001" />
    <path
       style="stroke-width:0.38508263"
       class="gui_icon_class"
       d="m 49.656606,253.0046 c -6.805677,0 -12.322768,5.51699 -12.322765,12.32253 -3e-6,6.80554 5.517088,12.32253 12.322765,12.32253 6.805676,0 12.322766,-5.51699 12.322763,-12.32253 3e-6,-6.80554 -5.517087,-12.32253 -12.322763,-12.32253 z"
       id="path2-6"/>
    <path
       style="stroke-width:0.30607995"
       class="gui_icon_class"
       d="m 43.964922,271.59107 c -3.672968,8.4561 0,0 -3.672968,8.4561 l -6.023057,13.76477 8.48875,0.005 7.026547,-15.19329 7.675864,15.17148 8.118824,0.009 -6.035451,-13.76239 c -3.680403,-8.4542 0,0 -3.680403,-8.4542 -0.76564,-1.84134 -11.012143,-1.98245 -11.898106,0.003 z"
       id="path2-7" />
    <path
       style="stroke-width:0.26458001"
       class="gui_icon_class"
       d="m 8.5344145,239.25827 v 4.23328 H 33.934096 v -4.23328 z m 0,8.46656 v 4.23327 H 33.934096 v -4.23327 z m 0,8.46656 v 4.23328 H 33.934096 v -4.23328 z"
       id="path2-3" />
    <path
       style="stroke-width:0.26458001"
       class="gui_icon_class"
       d="m 8.554398,264.55314 v 4.23328 h 25.399681 v -4.23328 z m 0,8.46656 v 4.23327 h 25.399681 v -4.23327 z"
       id="path2-3-3" />
  </g>
</svg>
