<?xml version="1.0" encoding="UTF-8" standalone="no"?>
<svg
   xmlns="http://www.w3.org/2000/svg"
   viewBox="0 0 67.733 67.733"
   version="1.1"
   height="256"
   width="256">
  <g
     id="g6"
     transform="translate(0 -229.27)">
    <g
       id="g4"
       transform="matrix(2.0878 0 0 2.2337 41.673 -337.41)">
      <path
         id="path2"
         d="m 87.996,0.27148 c -48.048,0 -88.002,39.04 -88.002,88 0,48.96 39.954,88 88.002,88 20.271,0 39.101,-6.949 54.098,-18.66 l 99.619,98.729 14.455,-16.703 -98.523,-97.645 c 11.474,-14.816 18.352,-33.413 18.352,-53.721 0,-48.96 -39.952,-88 -88,-88 z m 0,22.754 c 37.407,0 66.732,29.571 66.732,65.246 0,35.675 -29.325,65.229 -66.732,65.229 -37.407,0 -66.734,-29.554 -66.734,-65.229 0,-35.675 29.327,-65.246 66.734,-65.246 z"
         transform="matrix(0.12673,0,0,0.11845,-19.96,253.7)"
         class="gui_icon_class" />
    </g>
  </g>
</svg>
