<?xml version="1.0" encoding="UTF-8"?>
<svg width="256" height="256" version="1.1" viewBox="0 0 67.733 67.733" xmlns="http://www.w3.org/2000/svg">
 <g transform="translate(0 -229.27)">
  <g transform="matrix(2.0878 0 0 2.2337 41.673 -337.41)">
   <path class="gui_icon_class" transform="matrix(.12673 0 0 .11845 -19.96 253.7)" d="m104 0v25.498c-11.299 2.6793-21.913 7.2085-31.5 13.256l-18.926-18.928-33.941 33.941 19.148 19.148c-5.801 9.4652-10.158 19.927-12.748 31.084h-26.033v48h26.037c2.6017 11.202 6.9851 21.704 12.822 31.199l-19.307 19.307 33.941 33.941 19.127-19.129c9.5551 6.0107 20.127 10.515 31.379 13.184v25.498h48v-25.496c11.206-2.6572 21.736-7.1361 31.26-13.109l19.053 19.053 33.941-33.941-19.189-19.188c5.8724-9.527 10.281-20.07 12.893-31.318h26.043v-48h-26.039c-2.5941-11.179-6.9624-21.66-12.779-31.141l19.174-19.174-33.941-33.941-18.971 18.973c-9.5716-6.0295-20.166-10.547-31.443-13.221v-25.496h-48zm16 16h16v25.674c18.101 1.6178 34.508 8.6872 47.648 19.492l18.801-18.801 11.312 11.314-18.73 18.732c11.054 13.154 18.238 29.599 19.893 47.588h25.076v16h-25.078c-1.6634 18.054-8.8951 34.555-20.02 47.734l18.764 18.764-11.312 11.314-18.859-18.859c-13.114 10.737-29.464 17.761-47.494 19.373v25.674h-16v-25.674c-18.066-1.6169-34.446-8.6662-47.574-19.439l-18.963 18.963-11.312-11.314 18.881-18.881c-11.089-13.166-18.298-29.637-19.959-47.654h-25.072v-16h25.07c1.6537-17.978 8.8338-34.414 19.879-47.564l-18.605-18.605 11.314-11.314 18.67 18.67c13.145-10.815 29.562-17.892 47.672-19.512v-25.674zm7.8711 56.01c-17.081 0.30464-33.95 8.3413-44.879 23.221-18.406 25.06-13.136 60.233 11.605 78.244 24.742 18.011 60.008 12.347 78.414-12.713 18.406-25.06 13.125-60.221-11.617-78.232-10.051-7.317-21.836-10.728-33.523-10.52zm-0.07421 17.908c7.9176-0.12665 15.928 2.2252 22.842 7.2578 17.017 12.388 20.517 36.024 7.9727 53.104-12.544 17.079-36.238 20.939-53.256 8.5508-17.017-12.388-20.495-36.028-7.9512-53.107 7.4482-10.141 18.821-15.62 30.393-15.805z"/>
  </g>
 </g>
</svg>
