<?xml version="1.0" encoding="UTF-8"?>
<svg width="256" height="256" version="1.1" viewBox="0 0 67.733 67.733" xmlns="http://www.w3.org/2000/svg">
 <path class="gui_icon_class" transform="scale(.26458)" d="m80 0-28.701 28.701c6.2481 6.2483 6.2481 16.379 0 22.627-6.2483 6.2481-16.379 6.2481-22.627 0l-28.672 28.672 176 176 28.672-28.672c-6.2481-6.2483-6.2481-16.379 0-22.627 6.2483-6.2481 16.379-6.2481 22.627 0l28.701-28.701-32-32h-24l32 32-8.8438 8.8438c0.18601 0.0504 0.37157 0.10249 0.55664 0.15625-10.888-2.7208-22.406 0.46169-30.354 8.3867-7.7892 7.7982-11.017 19.056-8.543 29.797l-8.8164 8.8164-152-152 8.8359-8.8359c10.731 2.4718 21.979-0.74792 29.777-8.5234 7.7892-7.7982 11.017-19.056 8.543-29.797l8.8438-8.8438 16 16h24l-40-40zm103.97 0.19727-16.785 52.1-54.736-0.099609 44.363 32.061-17.01 52.027 44.201-32.285 44.223 32.256-17.045-52.016 44.342-32.092-54.736 0.13867-16.816-52.09zm-79.967 63.803a8 8 0 0 0-8 8 8 8 0 0 0 8 8 8 8 0 0 0 8-8 8 8 0 0 0-8-8zm-16 16a8 8 0 0 0-8 8 8 8 0 0 0 8 8 8 8 0 0 0 8-8 8 8 0 0 0-8-8zm-16 16a8 8 0 0 0-8 8 8 8 0 0 0 8 8 8 8 0 0 0 8-8 8 8 0 0 0-8-8z"/>
</svg>
