<?xml version="1.0" encoding="UTF-8"?>
<svg width="256" height="256" version="1.1" viewBox="0 0 67.733 67.733" xmlns="http://www.w3.org/2000/svg">
 <g transform="translate(0 -229.27)">
  <g transform="matrix(2.0878 0 0 2.2337 41.673 -337.41)">
   <path class="gui_icon_class" transform="matrix(.12673 0 0 .11845 -19.96 253.7)" d="m48 0v16h-48v144 15.992 12.756l67.252 67.252h12.744 64.004 96 8 8v-104h-16v88h-144v-64-16h-80v-128h32v16h16v-16h32v-16h-32v-16h-16zm136.45 0-16.783 52.1-54.736-0.10156 44.363 32.062-17.012 52.027 44.203-32.285 44.223 32.256-17.045-52.016 44.342-32.092-54.736 0.13867-16.818-52.09zm-168.45 176h64v64h-3.2617l-60.738-60.738v-3.2617z"/>
  </g>
 </g>
</svg>
