<?xml version="1.0" encoding="UTF-8"?>
<svg width="256" height="256" version="1.1" viewBox="0 0 67.733 67.733" xmlns="http://www.w3.org/2000/svg">
 <g transform="translate(0 -229.27)">
  <path class="gui_icon_class" transform="matrix(.26458 0 0 .26458 0 229.27)" d="m79.479 15.938a69.165 69.165 72.728 0 0-11.541 14.861 69.165 69.165 72.728 0 0 1.1562 71.047 69.165 69.165 0 0 0-2.248-0.11328 69.165 69.165 0 0 0-66.859 51.623 60.406 60.406 0 0 1 55.256-36.184 60.406 60.406 0 0 1 11.275 1.1055c-1.6362 5.6491-2.5313 11.611-2.5312 17.781-3e-6 29.787 20.438 54.877 48.031 61.986a60.406 60.406 0 0 1-56.775 39.939 60.406 60.406 0 0 1-7.0371-0.48633 69.165 69.165 0 0 0 18.641 2.5644 69.165 69.165 0 0 0 61.154-36.945 69.165 69.165 0 0 0 61.154 36.945 69.165 69.165 0 0 0 18.639-2.5644 60.406 60.406 0 0 1-7.0371 0.48633 60.406 60.406 0 0 1-56.775-39.945c27.582-7.1174 48.008-32.202 48.008-61.98 0-6.1692-0.8939-12.13-2.5293-17.777a60.406 60.406 0 0 1 11.297-1.1094 60.406 60.406 0 0 1 55.258 36.184 69.165 69.165 0 0 0-66.859-51.623 69.165 69.165 0 0 0-2.6465 0.13281 69.165 69.165 72.728 0 0 1.2285-1.9023 69.165 69.165 72.728 0 0-11.277-83.713 60.406 60.406 26.577 0 1 3.707 65.945 60.406 60.406 26.577 0 1-6.4922 9.1016c-11.622-11.857-27.804-19.23-45.688-19.23-17.945 0-34.174 7.4259-45.805 19.355a60.406 60.406 26.577 0 1-6.6426-69.633 60.406 60.406 26.577 0 1 3.9395-5.8516zm48.508 64.123c15.74 0 29.934 6.4687 40.098 16.889a60.406 60.406 26.577 0 1-70.434 7.3555 60.406 60.406 26.577 0 1-9.8906-7.2188c10.173-10.499 24.419-17.025 40.227-17.025zm-53.748 40.256a60.406 60.406 0 0 1 41.41 57.262 60.406 60.406 0 0 1-1.4434 12.779c-24.288-6.1278-42.217-28.082-42.217-54.299 0-5.4702 0.7942-10.748 2.25-15.742zm107.5 0.00781c1.4544 4.9917 2.248 10.267 2.248 15.734 0 26.209-17.917 48.157-42.193 54.293a60.406 60.406 0 0 1-1.4434-12.773 60.406 60.406 0 0 1 41.389-57.254zm-56.158 14.131a69.165 69.165 72.728 0 0 4.834 0.01172 69.165 69.165 0 0 0-2.4141 4.2051 69.165 69.165 0 0 0-2.4199-4.2168zm82.42 9.5449v32h32v-32h-32zm0 48v64h32v-64h-32z"/>
 </g>
</svg>
