<?xml version="1.0" encoding="UTF-8"?>
<svg width="256" height="256" version="1.1" viewBox="0 0 67.733 67.733" xmlns="http://www.w3.org/2000/svg">
 <g transform="translate(0 -229.27)">
  <path class="gui_icon_class" transform="matrix(.26458 0 0 .26458 0 229.27)" d="m64 16v16.004h-63.998l-0.0019531 224h112v-15.996h-96.004l0.001953-192h48.002v16h64v-16h48l-0.00391 80h16.004l0.00391-95.996h-64.004v-16.004h-64zm-16 64v16h96v-16h-96zm0 32v16h96v-16h-96zm166.6 24.027c-10.988-0.14114-21.793 4.0785-29.832 12.129-11.662 11.724-15.248 29.305-9.1367 44.785l-34.609 34.445c-6.4984 6.516-6.4645 17.114 0.07617 23.672 6.5406 6.5579 17.111 6.5921 23.609 0.07618l34.615-34.451c15.43 6.0835 32.93 2.4662 44.598-9.2188 11.637-11.7 15.235-29.234 9.1719-44.695l-26.844 26.916c-6.4984 6.5162-17.069 6.4818-23.609-0.07617-6.5406-6.558-6.5745-17.156-0.07617-23.672l26.893-26.965c-4.8278-1.9162-9.8608-2.8812-14.855-2.9453zm-166.6 7.9727v16h96v-16h-96zm0 32v16h96v-16h-96z"/>
 </g>
</svg>
