<?xml version="1.0" encoding="UTF-8"?>
<svg width="256" height="256" version="1.1" viewBox="0 0 67.733 67.733" xmlns="http://www.w3.org/2000/svg">
 <g transform="translate(0 -229.27)">
  <g transform="matrix(2.0878 0 0 2.2337 41.673 -337.41)">
   <path class="gui_icon_class" transform="matrix(.12673 0 0 .11845 -19.96 253.7)" d="m71.682 0-42.402 44.934 34.721-0.12891v83.195a64 64 0 0 0 21.789 48h-41.043l-0.12891-34.719-44.617 43.037 44.934 42.402-0.12891-34.721h83.195a64 64 0 0 0 48-21.789v40.984l-34.721-0.1289 42.402 44.934 43.037-44.617-34.719-0.1289v-83.254a64 64 0 0 0-21.789-48h40.984l-0.1289 34.721 44.934-42.402-44.617-43.037-0.1289 34.719h-83.254a64 64 0 0 0-48 21.789v-41.043l34.719-0.12891-43.037-44.617zm24.318 88h16 24v0.017578a24.025 23.975 45.004 0 1 0.5-0.007812 24.025 23.975 45.004 0 1 23.238 24.785 24.025 23.975 45.004 0 1-21.012 22.979l21.078 32.092-20.809 0.07618-21.348-31.941h-5.6484v32h-16v-80zm16 16v16h24v-0.00977a8.0083 7.9917 45.005 0 0 7.7461-7.7285 8.0083 7.9917 45.005 0 0-7.7461-8.2617h-24z"/>
  </g>
 </g>
</svg>
