<?xml version="1.0" encoding="UTF-8"?>
<svg width="256" height="256" version="1.1" viewBox="0 0 67.733 67.733" xmlns="http://www.w3.org/2000/svg">
 <g transform="translate(0 -229.27)">
  <g transform="matrix(2.0878 0 0 2.2337 41.673 -337.41)">
   <path class="gui_icon_class" transform="matrix(.12673 0 0 .11845 -19.96 253.7)" d="m126 0v0.033203c-68.692 1.0632-124.92 56.609-125.98 125.97h-0.019531v1.5391c-5.2597e-4 0.15137-0.0058594 0.30163-0.0058594 0.45313 0 0.15149 0.0053334 0.30176 0.0058594 0.45312v1.5547h0.019531c1.0782 70.024 58.387 125.99 127.98 125.99v0.00586h16 112v-16-96-16h-0.00195v-0.00781c0-27.723-8.8123-53.318-23.74-74.217a128 128 0 0 0-0.58593-0.79883c-2.2415-3.0874-4.6102-6.0752-7.1113-8.9453a128 128 0 0 0-1.1602-1.3008c-2.3961-2.6756-4.8982-5.2535-7.5078-7.7188a128 128 0 0 0-1.5645-1.4512c-2.6165-2.3911-5.3333-4.6741-8.1406-6.8438a128 128 0 0 0-1.5879-1.2129c-2.9306-2.1931-5.9609-4.2571-9.0762-6.1973a128 128 0 0 0-1.2832-0.79883c-3.326-2.0174-6.7548-3.8819-10.268-5.5957a128 128 0 0 0-0.66602-0.33008c-3.7366-1.7961-7.5725-3.4166-11.496-4.8496a128 128 0 0 0-0.03125-0.013672v0.0019531c-13.085-4.7752-27.151-7.462-41.779-7.6875v-0.033203h-4zm4 18.646c12.46 0.2164 24.388 2.4537 35.477 6.3887l-10.115 27.789c-7.9536-2.9007-16.486-4.5744-25.361-4.793v-29.385zm-4 0.001954v29.383c-42.375 1.0478-76.93 35.238-77.975 77.969h-30.59c1.0589-58.579 48.671-106.31 108.56-107.35zm0 39.746v29.664c-20.288 1.0121-36.94 17.306-37.953 37.941h-30.33c1.0448-36.753 30.821-66.572 68.283-67.605zm4 0c7.6686 0.21072 15.017 1.6138 21.861 4.0508l-10.184 27.977c-3.6814-1.3451-7.6061-2.1629-11.678-2.3652v-29.662zm98.07 22.941c6.7555 14.172 10.529 29.994 10.529 46.656v0.00781h-30.594v-0.00781c0-12.099-2.7025-23.542-7.502-33.801l27.566-12.855zm-36.426 16.986c4.2842 9.0136 6.6836 19.071 6.6836 29.67 0 0.00261 1e-5 0.00519 0 0.00781h-30.33v-0.00781c0-6.057-1.3541-11.774-3.752-16.895l27.398-12.775zm-65.645 0.09375v27.584h-28.25c0.99648-14.674 12.906-26.619 28.25-27.584zm4 0c2.8606 0.17912 5.602 0.7377 8.1758 1.627l-8.1758 22.463v-24.09zm25.395 16.809c1.8884 3.8788 2.9394 8.2136 2.9394 12.768 0 0.00261 1e-5 0.00519 0 0.00781h-14.334-14v-0.93359l25.395-11.842zm-137.96 14.775h30.592c1.0688 43.394 36.696 77.992 79.973 77.994v29.383c-60.826-0.00206-109.49-48.154-110.56-107.38zm40.281 0h30.33c1.0538 21.303 18.776 37.992 39.953 37.994v29.662c-38.394-0.00206-69.212-30.256-70.283-67.656zm40.035 0h30.248v27.656c-16.294-0.00198-29.201-12.355-30.248-27.656zm46.248 14h96v96h-96v-96zm16 16v16h64v-16h-64zm0 32v16h64v-16h-64z"/>
  </g>
 </g>
</svg>
