<?xml version="1.0" encoding="UTF-8"?>
<svg width="256" height="256" version="1.1" viewBox="0 0 67.733 67.733" xmlns="http://www.w3.org/2000/svg">
 <g transform="translate(0 -229.27)">
  <path class="gui_icon_class" transform="matrix(.26458 0 0 .26458 0 229.27)" d="m16.008 0-0.003906 256h224v-39.529-67.766-148.7h-16v16h-0.00391v96.15l-33.145-0.15234s-11.364 1.1846-9.4707 11.211c1.8934 10.028 17.978 3.3418 11.35 17.826-5.2755 11.664-39.023 11.737-45.871-0.37305-6.628-14.485 9.4734-7.796 11.367-17.824 1.8937-10.028-9.4726-10.584-9.4726-10.584l-48.691-0.02149v52.463c-0.69418 3.2624-2.9067 8.9714-9.9883 7.5645-9.7769-1.9427-3.2566-18.458-17.379-11.66-4.613 3.9447-7.151 10.798-8 17.537 0 0.11792-0.046874 0.19533-0.046874 0.3125-0.48398 2.3694-0.7285 5.0816-0.625 7.9648 0.28207 7.8107 2.8333 16.572 8.2988 21.246 14.122 6.7982 7.6-9.7156 17.377-11.658 9.7769-1.9426 10.318 9.7148 10.318 9.7148l0.03125 34.283h-68.049l0.003906-224 191.99 0.003906v-16h-207.99zm31.992 32v16h160v-16h-160zm0 32v16h160v-16h-160z"/>
 </g>
</svg>
