<?xml version="1.0" encoding="UTF-8"?>
<svg width="256" height="256" version="1.1" viewBox="0 0 67.733 67.733" xmlns="http://www.w3.org/2000/svg">
 <g transform="translate(0 -229.27)">
  <g transform="matrix(2.0878 0 0 2.2337 41.673 -337.41)">
   <path class="gui_icon_class" transform="matrix(.12673 0 0 .11845 -19.96 253.7)" d="m126 0v0.033203c-68.692 1.0632-124.92 56.609-125.98 125.97h-0.019531v1.5391c-5.2597e-4 0.15137-0.0058594 0.30163-0.0058594 0.45313 0 0.15149 0.0053334 0.30176 0.0058594 0.45312v1.5547h0.019531c1.0679 69.351 57.293 124.91 125.98 125.97v0.03125h4v-126h126v-4h-0.0293c-0.34376-22.497-6.4826-43.544-16.977-61.748a128 128 0 0 0-0.03906-0.068359c-2.0578-3.5647-4.2818-7.0194-6.6621-10.355a128 128 0 0 0-0.63477-0.86914c-2.2316-3.0728-4.5911-6.0467-7.0801-8.9043a128 128 0 0 0-1.2031-1.3516c-2.3865-2.6634-4.8784-5.2307-7.4766-7.6855a128 128 0 0 0-1.6094-1.4883c-2.6003-2.3746-5.2973-4.6429-8.0859-6.7988a128 128 0 0 0-1.6328-1.2461c-2.9197-2.1838-5.938-4.241-9.041-6.1738a128 128 0 0 0-1.3066-0.8125c-3.3207-2.0135-6.7412-3.875-10.248-5.5859a128 128 0 0 0-0.67969-0.33594c-3.7328-1.7939-7.5649-3.4123-11.484-4.8438a128 128 0 0 0-0.03125-0.013672v0.0019531c-13.085-4.7752-27.15-7.462-41.779-7.6875v-0.033203h-4zm0 18.648v29.383c-42.375 1.0478-76.93 35.238-77.975 77.969h-30.59c1.0589-58.579 48.671-106.31 108.56-107.35zm4 0c12.46 0.21651 24.388 2.4516 35.477 6.3867l-10.115 27.789c-7.953-2.9005-16.486-4.5742-25.361-4.793v-29.383zm0 39.744c7.668 0.21076 15.016 1.616 21.859 4.0527l-10.182 27.979c-3.6809-1.3451-7.6063-2.1628-11.678-2.3652v-29.666zm-4 0.001953v29.664c-20.288 1.0121-36.94 17.306-37.953 37.941h-30.33c1.0448-36.753 30.821-66.572 68.283-67.605zm102.07 22.943c6.4851 13.606 10.216 28.732 10.504 44.662h-30.594c-0.27792-11.364-2.9418-22.115-7.4766-31.809l27.566-12.854zm-36.428 16.986c4.0132 8.4449 6.3523 17.811 6.6328 27.676h-30.334c-0.26101-5.3191-1.5627-10.346-3.6953-14.9l27.396-12.775zm-65.641 0.091797v27.584h-28.25c0.99648-14.674 12.906-26.619 28.25-27.584zm4 0c2.8609 0.17908 5.6018 0.73752 8.1758 1.627l-8.1758 22.463v-24.09zm25.391 16.813c1.6096 3.3078 2.6056 6.9476 2.8652 10.771h-25.967l23.102-10.771zm-137.96 14.771h30.592c1.0523 42.723 35.603 76.921 77.973 77.969v29.383c-59.888-1.0445-107.5-48.779-108.56-107.35zm40.281 0h30.33c1.0206 20.629 17.671 36.931 37.953 37.943v29.662c-37.457-1.0338-67.23-30.859-68.283-67.605zm40.035 0h28.248v27.586c-15.338-0.96545-27.244-12.918-28.248-27.586zm142.26 14-47.473 86.529-38.764-24.395-9.5508 15.33 54.891 34.535 56.664-103.26-15.768-8.7383z"/>
  </g>
 </g>
</svg>
