<?xml version="1.0" encoding="UTF-8"?>
<svg width="256" height="256" version="1.1" viewBox="0 0 67.733 67.733" xmlns="http://www.w3.org/2000/svg">
 <g transform="translate(0 -229.27)">
  <g transform="matrix(2.0878 0 0 2.2337 41.673 -337.41)">
   <path class="gui_icon_class" transform="matrix(.12673 0 0 .11845 -19.96 253.7)" d="m126 0v0.033203c-68.692 1.0632-124.92 56.609-125.98 125.97h-0.019531v1.5391c-5.2597e-4 0.15137-0.0058594 0.30163-0.0058594 0.45313 0 0.15149 0.0053334 0.30176 0.0058594 0.45312v1.5547h0.019531c1.0679 69.351 57.293 124.91 125.98 125.97v0.03125h4v-0.03125c68.691-1.0587 124.91-56.615 125.97-125.97h0.02734v-4h-0.02734c-0.41187-26.965-9.1499-51.845-23.729-72.246a128 128 0 0 0-0.54102-0.73828c-2.25-3.1016-4.6306-6.1019-7.1426-8.9844a128 128 0 0 0-1.1602-1.3008c-2.3961-2.6756-4.8982-5.2534-7.5078-7.7188a128 128 0 0 0-1.5645-1.4512c-2.6212-2.3954-5.3416-4.6823-8.1543-6.8555a128 128 0 0 0-1.5723-1.1992c-2.9348-2.1964-5.9679-4.2644-9.0879-6.207a128 128 0 0 0-1.2734-0.79102c-3.3408-2.0264-6.7832-3.901-10.312-5.6211a128 128 0 0 0-0.5957-0.29492c-3.7477-1.8024-7.5953-3.4262-11.531-4.8633a128 128 0 0 0-0.02148-0.0097656v0.0019531c-13.085-4.7749-27.151-7.4621-41.779-7.6875v-0.033203h-4zm4 18.646c12.46 0.21639 24.388 2.4537 35.477 6.3887l-10.113 27.789c-7.9541-2.9011-16.487-4.5744-25.363-4.793v-29.385zm-4 0.001954v29.383c-42.374 1.0487-76.93 35.239-77.975 77.969h-30.59c1.0589-58.579 48.671-106.31 108.56-107.35zm0 39.746v29.664c-20.287 1.013-36.94 17.307-37.953 37.941h-30.33c1.0449-36.753 30.821-66.572 68.283-67.605zm4 0c7.6685 0.21071 15.017 1.6139 21.861 4.0508l-10.184 27.977c-3.6813-1.3451-7.6061-2.1629-11.678-2.3652v-29.662zm98.07 22.941c6.4853 13.606 10.216 28.733 10.504 44.664h-30.592c-0.27777-11.365-2.9427-22.116-7.4785-31.811l27.566-12.854zm-36.426 16.984c4.0146 8.446 6.3525 17.813 6.6328 27.68h-30.33c-0.26094-5.3197-1.568-10.347-3.7012-14.902l27.398-12.777zm-65.645 0.095704v27.584h-28.25c0.9965-14.674 12.906-26.619 28.25-27.584zm4 0c2.8611 0.17902 5.6015 0.73755 8.1758 1.627l-8.1758 22.463v-24.09zm25.395 16.809c1.6107 3.3084 2.6035 6.9506 2.8633 10.775h-25.969l23.105-10.775zm-137.96 14.775h30.592c1.0523 42.723 35.604 76.92 77.973 77.969v29.383c-59.888-1.0452-107.5-48.78-108.56-107.35zm40.281 0h30.33c1.0206 20.628 17.671 36.928 37.953 37.941v29.666c-37.457-1.0338-67.23-30.861-68.283-67.607zm40.035 0h28.248v27.586c-15.338-0.96536-27.244-12.918-28.248-27.586zm32.248 0h28.258c-1.0041 14.671-12.915 26.625-28.258 27.586v-27.586zm37.947 0h30.33c-1.0524 36.749-30.817 66.578-68.277 67.607v-29.664c20.285-1.009 36.927-17.312 37.947-37.943zm40.033 0h30.592c-1.0671 58.575-48.68 106.31-108.57 107.35v-29.385c42.373-1.0441 76.928-35.243 77.98-77.969z"/>
  </g>
 </g>
</svg>
