<?xml version="1.0" encoding="UTF-8"?>
<svg width="256" height="256" version="1.1" viewBox="0 0 67.733 67.733" xmlns="http://www.w3.org/2000/svg">
 <g transform="translate(0 -229.27)">
  <path class="gui_icon_class" transform="matrix(.26458 0 0 .26458 0 229.27)" d="m128 0.34375c-17.578 0-32 14.422-32 32v7.6562h-0.001953v114.52a55.721 55.929 0 0 0-23.512 45.553 55.721 55.929 0 0 0 55.721 55.93 55.721 55.929 0 0 0 55.721-55.93 55.721 55.929 0 0 0-23.93-45.91v-113.81h0.00195v-8.002c0-17.578-14.422-32-32-32zm0 16.004c8.9313 0 15.996 7.0648 15.996 15.996v8.002h0.00195v7.6543h-16v16h16v16h-16v16h16v16h-32v-72h-0.00195v-7.6562c0-8.9313 7.0726-15.996 16.004-15.996z"/>
 </g>
</svg>
