<?xml version="1.0" encoding="UTF-8"?>
<svg width="256" height="256" version="1.1" viewBox="0 0 67.733 67.733" xmlns="http://www.w3.org/2000/svg">
 <g transform="translate(0 -229.27)">
  <g transform="matrix(2.0878 0 0 2.2337 41.673 -337.41)">
   <path class="gui_icon_class" d="m-7.4639 253.71c-1.4037 0.0461-2.9782 0.48766-3.8181 1.4282-1.2218 2.4307 1.7461 1.3084 2.0952 2.9912 0.34908 1.6828-1.746 1.7759-1.746 1.7759h-9.0274l0.01184 8.3591s0.0996 1.9563 1.9019 1.6304c2.0048-0.75571 1.026-2.8935 3.2035-1.9565 2.9067 1.4586 2.0361 6.8533-0.06909 7.8942-2.6032 1.1408-1.4013-1.6304-3.2035-1.9564-1.3131-0.23726-1.7187 0.73115-1.8442 1.2773v8.8738l9.0591 0.0382s2.0951-0.19906 1.746-1.8816c-0.34901-1.6828-3.3141-0.5606-2.0923-2.9912 0.97245-1.9574 7.1931-1.9696 8.4555 0.0626 1.2218 2.4307-1.7461 1.3084-2.0952 2.9912-0.34908 1.6828 1.746 1.7759 1.746 1.7759l8.9755 3e-3v-8.8038c0.12796-0.54747 0.53585-1.5053 1.8412-1.2692 1.8022 0.32599 0.6002 3.0972 3.2034 1.9564 0.85034-0.66195 1.3183-1.8118 1.4748-2.9427 0-0.0198 0.0085-0.0329 0.0085-0.0525 0.08921-0.39762 0.13447-0.85275 0.1154-1.3366-0.05198-1.3107-0.5221-2.7809-1.5296-3.5652-2.6032-1.1408-1.4012 1.6304-3.2034 1.9564-1.8022 0.32598-1.9019-1.6304-1.9019-1.6304l-0.00855-8.4373h-9.4344c-0.59158-0.12751-1.5667-0.51657-1.3189-1.7111 0.34908-1.6828 3.3141-0.56061 2.0924-2.9912-0.70894-0.79392-1.9375-1.2309-3.1486-1.377-0.019079-2e-3 -0.039473-6e-3 -0.057236-6e-3 -0.42599-0.0834-0.91329-0.12552-1.4315-0.10778z"/>
  </g>
 </g>
</svg>
