<?xml version="1.0" encoding="UTF-8"?>
<svg width="256" height="256" version="1.1" viewBox="0 0 67.733 67.733" xmlns="http://www.w3.org/2000/svg">
  <g transform="translate(0 -229.27)">
    <g transform="matrix(2.742501,0,0,2.9341529,43.26149,-524.01267)">
      <path class="gui_icon_class" d="m -3.4246084,259.34268 c -3.2825604,0 -6.0840538,2.49456 -6.0840538,5.68536 h 2.6955471 c 1.3e-6,-1.60073 1.4405399,-2.99015 3.3885067,-2.99015 1.9479669,0 3.3868593,1.38942 3.3868593,2.99015 0,1.60074 -1.4388924,2.99015 -3.3868593,2.99015 v 0.0143 h -1.3945369 v 4.74724 h 2.78806 v -2.22047 c 2.64333437,-0.58743 4.6885031,-2.80442 4.6885031,-5.53126 0,-3.1908 -2.79959242,-5.68536 -6.0820262,-5.68536 z m -1.3945369,15.64961 v 2.6059 h 2.78806 v -2.6059 z"/>
    </g>
  </g>
</svg>
