<?xml version="1.0" encoding="UTF-8"?>
<svg width="256" height="256" version="1.1" viewBox="0 0 67.733 67.733" xmlns="http://www.w3.org/2000/svg">
 <g transform="translate(0 -229.27)">
  <g transform="matrix(2.0878 0 0 2.2337 41.673 -337.41)">
   <path class="gui_icon_class" transform="matrix(.12673 0 0 .11845 -19.96 253.7)" d="m128 0-64 32 64 32 64-32-64-32zm-64 48v48l64 32 64-32v-48l-64 32-64-32zm48 96v32h-32l48 48 48-48h-32v-32h-32zm-111.73 31.975-0.30859 80.02h256.07l-0.29297-80.02-16.174 0.06641 0.23242 63.795h-222.85l0.23047-63.795-16.908-0.06641z"/>
  </g>
 </g>
</svg>
