<?xml version="1.0" encoding="UTF-8"?>
<svg width="256" height="256" version="1.1" viewBox="0 0 67.733 67.733" xmlns="http://www.w3.org/2000/svg">
 <g transform="translate(0 -229.27)">
  <g transform="matrix(2.0878 0 0 2.2337 41.673 -337.41)">
   <g transform="matrix(-.75436 .61359 -.70233 -.75436 180.53 473.1)">
    <g transform="matrix(.99864 -.048767 .055821 .99864 -15.012 .18372)">
     <path class="gui_icon_class" transform="matrix(-.091129 -.082316 .088068 -.085177 -3.9488 288.54)" d="m127.39-0.0039062 1.2012 18.031c50.15 4.8e-5 93.293 33.404 105.88 81.697 11.934 45.806-7.0134 94.285-46.586 120.16l-27.889-27.889v64h64l-22.705-22.705c8.3517-5.7897 15.869-12.473 22.463-19.867 27.722-31.088 39.16-74.745 28.113-117.15-14.73-56.538-66.275-96.283-124.47-96.283zm-95.395 0.0039062 22.92 22.92c-43.629 30.326-64.408 85.094-50.793 137.36 14.68 56.349 65.654 95.726 123.87 95.727v-18.029c-50.136 3e-5 -93.834-33.776-106.46-82.258-11.995-46.043 6.9513-94.149 46.369-119.82l28.104 28.104v-64h-64zm119.56 64.852c-10.531-0.10103-20.9 3.9676-28.629 11.688-11.213 11.243-14.706 28.058-8.8965 42.836l-44.461 44.461c-6.2482 6.2485-6.2484 16.379 0 22.627 6.2485 6.2483 16.381 6.2485 22.629 0l44.465-44.467c14.77 5.7674 31.555 2.2559 42.773-8.9492 11.189-11.22 14.691-27.99 8.9277-42.75l-25.811 25.811c-6.2482 6.2486-16.378 6.2483-22.627 0-6.2485-6.2483-6.2502-16.378-0.00195-22.627l25.859-25.857c-4.6212-1.8167-9.4417-2.7256-14.229-2.7715z"/>
    </g>
   </g>
  </g>
 </g>
</svg>
