<?xml version="1.0" encoding="UTF-8"?>
<svg width="256" height="256" version="1.1" viewBox="0 0 67.733 67.733" xmlns="http://www.w3.org/2000/svg">
 <g transform="translate(0 -229.27)">
  <path class="gui_icon_class" transform="matrix(.26458 0 0 .26458 0 229.27)" d="m0 0v16h16v-16h-16zm64 0v16h192v-16h-192zm-64 48v16h16v-16h-16zm64 0v16h192v-16h-192zm-64 48v16h16v-16h-16zm64 0v16h192v-16h-192zm-64 48v16h16v-16h-16zm64.316 0v16h128.08v-16h-128.08zm175.55 0-47.473 86.529-38.762-24.395-9.5527 15.33 54.891 34.535 56.664-103.26-15.768-8.7383zm-239.87 48v16h16v-16h-16zm64.316 0v16h47.861v-16h-47.861zm-64.316 48v16h16v-16h-16zm64.316 0.22656v16.09h47.545v-16.09h-47.545z"/>
 </g>
</svg>
