<?xml version="1.0" encoding="UTF-8"?>
<svg width="256" height="256" version="1.1" viewBox="0 0 67.733 67.733" xmlns="http://www.w3.org/2000/svg">
 <g transform="translate(0 -229.27)">
  <g transform="matrix(2.0878 0 0 2.2337 41.673 -337.41)">
   <path class="gui_icon_class" transform="matrix(.12673 0 0 .11845 -19.96 253.7)" d="m112.01-0.10742v16.555c14.158 0 26.851 4.1327 35.523 10.256s13.008 13.606 13.008 21.188h15.457c0-14.358-8.2654-26.734-19.957-34.988-11.692-8.2546-27.115-13.01-44.031-13.01zm-71.742 0.75586a48 48 0 0 0-40.266 47.352 48 48 0 0 0 6.0527 23.219l34.213-27.363v-43.207zm15.473 0.037109v41.422l39.666 13.035a48 48 0 0 0 0.5957-7.1426 48 48 0 0 0-40.262-47.314zm80.262 47.314 32 32 32-32h-64zm-86.705 9.2988-33.168 26.529a48 48 0 0 0 31.873 12.172 48 48 0 0 0 42.242-25.232l-40.947-13.469zm102.71 38.826v47.875l71.785 33.504 0.00195 0.94726c0.41961-0.16762 0.85664-0.32787 1.2695-0.49805 10.2-4.2039 18.314-9.1912 23.672-14.412 3.8763-3.7771 6.2508-7.545 7.2715-11.293v-8.248a112 48 0 0 0-104-47.875zm-18.584 0.10156a112 48 0 0 0-101.42 47.773v8.248h0.64844c1.0252 3.748 3.4069 7.5158 7.2832 11.293 5.3581 5.2209 13.472 10.208 23.672 14.412 4.1039 1.6914 8.5574 3.2501 13.287 4.6738v-0.39648l56.525-38.23v-47.773zm10.584 59.477-48.051 31.52v0.04492c14.659 2.8185 31.064 4.4199 48.381 4.4199 22.775 0 43.974-2.7664 61.684-7.4414l0.00195-0.24609-62.016-28.297zm-112 11.027v41.27a112 48 0 0 0 44.891 38.369v-55.156c-5.7243-1.651-11.114-3.4998-16.076-5.5449-10.816-4.4576-19.697-9.7783-26.092-16.01-0.97177-0.94689-1.8675-1.9283-2.7227-2.9277zm224 0.77344c-0.65776 0.73198-1.3413 1.4515-2.0625 2.1543-6.3952 6.2314-15.292 11.552-26.107 16.01-1.3099 0.53987-2.6517 1.0646-4.0176 1.5781l0.14844 54.348a112 48 0 0 0 32.039-33.594v-40.496zm-50.037 25.285c-18.016 4.5735-39.078 7.1758-61.633 7.1758-17.219 0-33.561-1.5263-48.355-4.2773l0.17383 55.656a112 48 0 0 0 47.852 4.6562 112 48 0 0 0 61.637-7.9629l0.32617-55.248z"/>
  </g>
 </g>
</svg>
