<?xml version="1.0" encoding="UTF-8"?>
<svg width="256" height="256" version="1.1" viewBox="0 0 67.733 67.733" xmlns="http://www.w3.org/2000/svg">
 <g transform="translate(0 -229.27)">
  <g transform="matrix(2.0878 0 0 2.2337 41.673 -337.41)">
   <path class="gui_icon_class" transform="matrix(.12673 0 0 .11845 -19.96 253.7)" d="m80 0v16 16h-80v16h256v-16h-80v-16-16h-96zm16 16h64v16h-64v-16zm-80 48 16.975 192.27h190.04l16.982-192.27h-16l-16 176h-160l-16-176h-16zm72 0v160h16v-160h-16zm64 0v160h16v-160h-16z"/>
  </g>
 </g>
</svg>
