<?xml version="1.0" encoding="UTF-8"?>
<svg width="256" height="256" version="1.1" viewBox="0 0 67.733 67.733" xmlns="http://www.w3.org/2000/svg">
 <g transform="translate(0 -229.27)">
  <g transform="matrix(2.0878 0 0 2.2337 41.673 -337.41)">
   <g transform="matrix(.70711 .66092 -.75652 .70711 207.77 81.238)">
    <path class="gui_icon_class" transform="matrix(.089611 -.083759 .089611 .083759 -30.561 272.46)" d="m128 0c-35.24 8.7246e-6 -64.01 28.756-64.01 63.996-9e-6 35.24 28.77 64.01 64.01 64.01 35.24-1e-5 63.996-28.77 63.996-64.01-5e-5 -35.24-28.757-63.996-63.996-63.996zm0 17.994c25.512-1.6e-5 46.002 20.488 46.002 46-2e-5 25.512-20.49 46.002-46.002 46.002-25.512 2e-5 -46-20.49-46-46.002 1e-5 -25.512 20.488-46 46-46zm-31.197 125.98c-29.255-4e-5 -52.999 6.0077-70.135 17.824-17.129 11.812-26.92 30.128-26.674 50.301 1.0758e-4 0.00774 0.0015058 0.013 0 0.02343l-0.0058594 43.879 256.01-0.00195 0.00196-45.096c0.25257-20.087-9.1265-37.673-25.77-49.252-16.643-11.579-40.156-17.676-69.42-17.676l-4.9004-0.00195-27.914 24.027-26.848-24.016-4.3477-0.01172zm-5.2559 18.484 36.451 29.543 36.121-29.492c24.207 0.68258 43.132 5.8007 55.162 14.17 12.859 8.9464 18.88 20.579 18.695 35.227l-0.00196 0.04687 0.01172 27.545-219.97-0.00976 0.005859-28.74 0.003907-0.06836c-0.1853-14.732 5.6148-25.6 18.178-34.264 11.839-8.1638 30.871-13.341 55.346-13.957z"/>
   </g>
  </g>
 </g>
</svg>
