<?xml version="1.0" encoding="UTF-8"?>
<svg width="256" height="256" version="1.1" viewBox="0 0 67.733 67.733" xmlns="http://www.w3.org/2000/svg">
 <g transform="translate(0 -229.27)">
  <path class="gui_icon_class" transform="matrix(.26458 0 0 .26458 0 229.27)" d="m128.69 0-112.46 31.852-0.21875 12.207c-0.22091 20.523 0.20297 47.716 4.7129 75.99 4.5099 28.275 13.104 57.762 29.631 82.57 16.527 24.809 41.163 44.626 76.027 52.992l1.6191 0.38867 1.6172-0.38867c34.864-8.3666 59.495-28.183 76.021-52.992 16.527-24.809 25.121-54.296 29.631-82.57 4.5099-28.275 4.9338-55.467 4.7129-75.99l-0.2168-12.207-111.08-31.852zm-0.27539 16.918 95.855 27.361c0.21566 20.038-0.23892 46.095-4.4609 72.564-4.222 26.47-12.214 53.221-26.686 74.945-14.202 21.318-34.602 37.976-65.121 45.738-30.52-7.7624-50.927-24.42-65.129-45.738-14.472-21.724-22.464-48.476-26.686-74.945-4.222-26.47-4.6766-52.527-4.4609-72.564l96.688-27.361zm39.594 55.082-47.473 86.529-38.762-24.395-9.5527 15.33 54.891 34.535 56.664-103.26-15.768-8.7383z"/>
 </g>
</svg>
