<?xml version="1.0" encoding="UTF-8"?>
<svg width="256" height="256" version="1.1" viewBox="0 0 67.733 67.733" xmlns="http://www.w3.org/2000/svg">
 <g transform="translate(0 -229.27)">
  <g transform="matrix(2.0878 0 0 2.2337 41.673 -337.41)">
   <path class="gui_icon_class" transform="matrix(.12673 0 0 .11845 -19.96 253.7)" d="m80 48-80 80v16 24c0 13.974 8.6676 24.922 19.266 31.172 10.598 6.2495 23.688 8.9805 36.758 8.9687 13.07-0.00844 26.155-2.7659 36.742-9.0195 10.587-6.2535 19.251-17.177 19.234-31.121v-12.498c5.9195-5.1725 11.145-7.2285 16.004-7.2285 4.8603 0 10.077 2.0579 15.996 7.2344v12.492c0 13.974 8.6676 24.922 19.266 31.172 10.598 6.2495 23.688 8.9805 36.758 8.9687 13.07-0.00844 26.155-2.7659 36.742-9.0195 10.587-6.2535 19.251-17.177 19.234-31.121v-24-16l-80-80h-24l80 80h-88v7.9043c-5.1494-2.7026-10.506-4.1856-15.996-4.1856-5.4938 0-10.852 1.4857-16.004 4.1914v-7.9102h-88l80-80h-24zm-64 96h80v16 8c0.00868 7.261-3.3006 12.268-10.709 16.645-7.4083 4.376-18.346 6.9491-29.283 6.959-10.937 0.00844-21.858-2.5564-29.268-6.9258-7.4098-4.3694-10.74-9.36-10.74-16.678v-24zm144 0h80v24c0.00868 7.261-3.3006 12.268-10.709 16.645-7.4084 4.376-18.346 6.9491-29.283 6.959-10.937 0.00844-21.858-2.5564-29.268-6.9258-7.4098-4.3694-10.74-9.36-10.74-16.678v-24z"/>
  </g>
 </g>
</svg>
