<?xml version="1.0" encoding="UTF-8" standalone="no"?>
<!-- Created with Inkscape (http://www.inkscape.org/) -->

<svg
   xmlns:dc="http://purl.org/dc/elements/1.1/"
   xmlns:cc="http://creativecommons.org/ns#"
   xmlns:rdf="http://www.w3.org/1999/02/22-rdf-syntax-ns#"
   xmlns:svg="http://www.w3.org/2000/svg"
   xmlns="http://www.w3.org/2000/svg"
   xmlns:xlink="http://www.w3.org/1999/xlink"
   xmlns:sodipodi="http://sodipodi.sourceforge.net/DTD/sodipodi-0.dtd"
   xmlns:inkscape="http://www.inkscape.org/namespaces/inkscape"
   width="52.509098"
   height="52.52018"
   viewBox="0 0 52.509098 52.52018"
   id="svg5160"
   sodipodi:version="0.32"
   inkscape:version="0.48.5 r10040"
   sodipodi:docname="a:postgresql:postgresql.svg"
   version="1.0"
   inkscape:export-xdpi="27.42"
   inkscape:export-ydpi="27.42">
  <defs
     id="defs5162">
    <linearGradient
       inkscape:collect="always"
       id="linearGradient13960">
      <stop
         style="stop-color:white;stop-opacity:1;"
         offset="0"
         id="stop13962" />
      <stop
         style="stop-color:white;stop-opacity:0;"
         offset="1"
         id="stop13964" />
    </linearGradient>
    <linearGradient
       id="linearGradient3898">
      <stop
         style="stop-color:#e6e6e6;stop-opacity:1;"
         offset="0"
         id="stop3900" />
      <stop
         style="stop-color:white;stop-opacity:1;"
         offset="1"
         id="stop3902" />
    </linearGradient>
    <linearGradient
       inkscape:collect="always"
       xlink:href="#linearGradient3898"
       id="linearGradient13956"
       x1="46.591862"
       y1="89.585007"
       x2="43.591812"
       y2="-74.733185"
       gradientUnits="userSpaceOnUse" />
    <linearGradient
       inkscape:collect="always"
       xlink:href="#linearGradient13960"
       id="linearGradient13966"
       x1="26.48"
       y1="1.3939171"
       x2="26.48"
       y2="52.84341"
       gradientUnits="userSpaceOnUse" />
  </defs>
  <sodipodi:namedview
     id="base"
     pagecolor="#ffffff"
     bordercolor="#666666"
     borderopacity="1.0"
     inkscape:pageopacity="0.0"
     inkscape:pageshadow="2"
     inkscape:zoom="11"
     inkscape:cx="13.256239"
     inkscape:cy="22.864967"
     inkscape:current-layer="layer1"
     showgrid="false"
     inkscape:document-units="px"
     inkscape:grid-bbox="true"
     inkscape:window-width="1680"
     inkscape:window-height="1030"
     inkscape:window-x="-3"
     inkscape:window-y="-3"
     showguides="true"
     inkscape:guide-bbox="true"
     inkscape:window-maximized="1">
    <sodipodi:guide
       orientation="vertical"
       position="393.92276"
       id="guide5230" />
    <sodipodi:guide
       orientation="vertical"
       position="438.14907"
       id="guide5236" />
  </sodipodi:namedview>
  <metadata
     id="metadata5165">
    <rdf:RDF>
      <cc:Work
         rdf:about="">
        <dc:format>image/svg+xml</dc:format>
        <dc:type
           rdf:resource="http://purl.org/dc/dcmitype/StillImage" />
        <dc:title />
      </cc:Work>
    </rdf:RDF>
  </metadata>
  <g
     id="layer1"
     inkscape:label="Layer 1"
     inkscape:groupmode="layer"
     transform="translate(-3.819132,-6.155729)">
    <g
       inkscape:label="shadow"
       style="display:inline"
       id="layer4"
       transform="translate(-392.7904,328.2799)" />
    <g
       inkscape:label="shadow"
       id="g3039"
       transform="translate(-840.833,182.2722)" />
    <g
       inkscape:label="color"
       id="g3041"
       transform="translate(-840.833,182.2722)">
      <path
         style="opacity:1;fill:#71c000;fill-opacity:1;stroke:#71c000;stroke-width:3.37896037;stroke-linejoin:bevel;stroke-miterlimit:4;stroke-dasharray:none;stroke-opacity:1"
         d=""
         id="path3043" />
      <path
         style="opacity:1;fill:#71c000;fill-opacity:1;stroke:#71c000;stroke-width:3.37896037;stroke-linejoin:bevel;stroke-miterlimit:4;stroke-dasharray:none;stroke-opacity:1"
         d=""
         id="path3045" />
      <path
         style="opacity:1;fill:#71c000;fill-opacity:1;stroke:#71c000;stroke-width:3.37896037;stroke-linejoin:bevel;stroke-miterlimit:4;stroke-dasharray:none;stroke-opacity:1"
         d=""
         id="path3047" />
    </g>
    <g
       inkscape:label="highlight"
       id="g3049"
       transform="translate(-840.833,182.2722)" />
    <g
       inkscape:label="text"
       id="g3089"
       transform="translate(-840.833,182.2722)" />
    <g
       id="g4774"
       inkscape:label="shadow"
       transform="translate(-1426.607,-26.2895)" />
    <g
       id="layer2"
       inkscape:label="color"
       transform="translate(-1426.607,-26.2895)">
      <path
         style="opacity:1;fill:#71c000;fill-opacity:1;stroke:#71c000;stroke-width:3.37896037;stroke-linejoin:bevel;stroke-miterlimit:4;stroke-dasharray:none;stroke-opacity:1"
         d=""
         id="path3422" />
      <path
         style="opacity:1;fill:#71c000;fill-opacity:1;stroke:#71c000;stroke-width:3.37896037;stroke-linejoin:bevel;stroke-miterlimit:4;stroke-dasharray:none;stroke-opacity:1"
         d=""
         id="path3426" />
      <path
         style="opacity:1;fill:#71c000;fill-opacity:1;stroke:#71c000;stroke-width:3.37896037;stroke-linejoin:bevel;stroke-miterlimit:4;stroke-dasharray:none;stroke-opacity:1"
         d=""
         id="path3428" />
    </g>
    <g
       id="g5777"
       inkscape:label="highlight"
       transform="translate(-1426.607,-26.2895)" />
    <g
       id="layer5"
       inkscape:label="text"
       transform="translate(-1426.607,-26.2895)" />
    <rect
       style="opacity:1;color:black;fill:url(#linearGradient13956);fill-opacity:1;fill-rule:evenodd;stroke:#2b2b2b;stroke-width:0.997;stroke-linecap:butt;stroke-linejoin:miter;marker:none;marker-start:none;marker-mid:none;marker-end:none;stroke-miterlimit:4;stroke-dasharray:none;stroke-dashoffset:0;stroke-opacity:1;visibility:visible;display:inline;overflow:visible"
       id="rect13948"
       width="50.730724"
       height="50.548958"
       x="4.9082928"
       y="7.219615"
       ry="7.0913997" />
    <g
       id="g6007"
       transform="matrix(-3.973892e-3,0.629601,-0.629601,-3.973892e-3,295.5792,-273.6194)"
       inkscape:export-xdpi="27.42"
       inkscape:export-ydpi="27.42"
       style="fill:white">
      <g
         transform="translate(415.3267,354.416)"
         id="g6011"
         style="fill:white" />
    </g>
    <g
       id="g3192"
       inkscape:label="openvaslogo"
       style="display:inline"
       transform="translate(-996.7028,556.527)" />
    <path
       style="opacity:1;color:black;fill:none;fill-opacity:1;fill-rule:evenodd;stroke:url(#linearGradient13966);stroke-width:1;stroke-linecap:butt;stroke-linejoin:miter;marker:none;marker-start:none;marker-mid:none;marker-end:none;stroke-miterlimit:4;stroke-dasharray:none;stroke-dashoffset:0;stroke-opacity:1;visibility:visible;display:inline;overflow:visible"
       d="M 2.1818182,45.429271 L 2,7.792907 C 2,7.792907 3.0909091,2.1565434 7.4545455,1.9747252 C 11.818182,1.792907 44.909091,1.9747252 44.909091,1.9747252 C 44.909091,1.9747252 50.727273,1.9747252 50.909091,9.2474525 C 51.090909,16.52018 50.727273,45.974725 50.727273,45.974725"
       id="path13958"
       transform="translate(3.819132,6.155729)" />
    <path
       id="path5826"
       d="m 50.313089,38.232916 c -5.403124,1.114525 -5.77456,-0.714837 -5.77456,-0.714837 C 50.243378,29.05302 52.628176,18.307892 50.57013,15.678082 44.955617,8.5044593 40.691156,11.98803 38.347143,12.439745 l -1.870382,0.918391 c -0.976567,-0.767048 -1.807587,-1.808151 -5.059349,-1.739153 -2.444843,-0.04007 -4.935703,2.004572 -6.342931,3.071727 0,0 -16.701387,-8.5061085 -15.8950326,7.619371 0.1715407,3.430579 3.5533336,26.502726 9.2134976,19.698605 2.341515,-2.578934 5.431286,-5.137175 5.431286,-5.137175 0.992824,0.65952 2.181356,0.995939 3.427355,0.875099 l 0.09678,-0.08217 c -0.03007,0.308923 -0.01633,0.611077 0.03878,0.968765 -1.45814,1.629142 -1.302394,3.187913 -4.217279,3.787925 -2.949473,0.607855 -1.216782,1.690048 -0.0855,1.972868 1.371457,0.342972 4.817077,-0.443926 6.960947,-3.445061 l -0.0855,0.342434 c 0.571332,0.457582 0.972522,2.976541 0.905282,5.259941 -0.06724,2.283508 -0.112141,3.851211 0.338031,5.075727 0.450171,1.224515 0.898837,3.979677 4.730713,3.158606 3.201895,-0.686158 4.861114,-2.464284 5.091946,-5.430299 0.163805,-2.108637 0.534491,-1.796923 0.557907,-3.682141 l 0.297321,-0.8925 c 0.342865,-2.858386 0.05445,-3.780532 2.027111,-3.35163 l 0.479388,0.04211 c 1.45191,0.06606 3.352166,-0.233518 4.467443,-0.751895 2.401555,-1.114526 3.82586,-2.975361 1.457925,-2.486413 z"
       style="fill:#336791;fill-opacity:1;stroke:none"
       inkscape:connector-curvature="0"
       sodipodi:nodetypes="cccccccscccccccccssccccccccc" />
    <path
       style="fill:#336791;stroke:#336791;stroke-width:1.33892250000000000;stroke-linecap:round;stroke-linejoin:round;stroke-miterlimit:4;fill-opacity:1;stroke-opacity:1"
       id="path5828"
       d="m 30.277321,39.871405 c -0.148769,5.318696 0.03739,10.674451 0.557799,11.97609 0.520742,1.301638 1.635158,3.833379 5.467356,3.012416 3.201573,-0.686373 4.366475,-2.014651 4.871964,-4.946508 0.372294,-2.157081 1.090034,-8.147758 1.182088,-9.375174"
       inkscape:connector-curvature="0" />
    <path
       id="path5840"
       d="m 25.169852,24.136068 c -0.0973,0.688983 1.261392,2.527513 3.033016,2.773164 1.768583,0.246695 3.282388,-1.190089 3.378349,-1.8784 0.09597,-0.688983 -1.261051,-1.44791 -3.033352,-1.694582 -1.769599,-0.247009 -3.284075,0.112514 -3.377676,0.799818 z"
       style="fill:#ededed;fill-opacity:1;stroke:none"
       inkscape:connector-curvature="0" />
    <path
       id="path5846"
       d="M 7.090357,15.568843"
       style="fill:none;stroke:#ffffff;stroke-width:0.32224107;stroke-linecap:round;stroke-linejoin:round;stroke-miterlimit:4"
       inkscape:connector-curvature="0" />
    <path
       id="path5840-8"
       d="m 41.628255,24.003326 c 0.09418,0.66699 -1.221124,2.446829 -2.936194,2.684639 -1.712127,0.23882 -3.177607,-1.1521 -3.270505,-1.818438 -0.09291,-0.666991 1.220795,-1.40169 2.936521,-1.640486 1.71311,-0.239125 3.179242,0.108924 3.269852,0.774285 z"
       style="fill:#ececec;fill-opacity:1;stroke:none"
       inkscape:connector-curvature="0" />
  </g>
</svg>
