<?xml version="1.0" encoding="UTF-8" standalone="no"?>
<!-- Created with Inkscape (http://www.inkscape.org/) -->

<svg
   xmlns:dc="http://purl.org/dc/elements/1.1/"
   xmlns:cc="http://creativecommons.org/ns#"
   xmlns:rdf="http://www.w3.org/1999/02/22-rdf-syntax-ns#"
   xmlns:svg="http://www.w3.org/2000/svg"
   xmlns="http://www.w3.org/2000/svg"
   xmlns:xlink="http://www.w3.org/1999/xlink"
   xmlns:sodipodi="http://sodipodi.sourceforge.net/DTD/sodipodi-0.dtd"
   xmlns:inkscape="http://www.inkscape.org/namespaces/inkscape"
   width="52.509098"
   height="52.52018"
   viewBox="0 0 52.509098 52.52018"
   id="svg5160"
   sodipodi:version="0.32"
   inkscape:version="0.48.5 r10040"
   sodipodi:docname="a:snort:snort.svg"
   version="1.0"
   inkscape:export-xdpi="27.42"
   inkscape:export-ydpi="27.42">
  <defs
     id="defs5162">
    <linearGradient
       inkscape:collect="always"
       id="linearGradient13960">
      <stop
         style="stop-color:white;stop-opacity:1;"
         offset="0"
         id="stop13962" />
      <stop
         style="stop-color:white;stop-opacity:0;"
         offset="1"
         id="stop13964" />
    </linearGradient>
    <linearGradient
       id="linearGradient3898">
      <stop
         style="stop-color:#e6e6e6;stop-opacity:1;"
         offset="0"
         id="stop3900" />
      <stop
         style="stop-color:white;stop-opacity:1;"
         offset="1"
         id="stop3902" />
    </linearGradient>
    <linearGradient
       inkscape:collect="always"
       xlink:href="#linearGradient3898"
       id="linearGradient13956"
       x1="46.591862"
       y1="89.585007"
       x2="43.591812"
       y2="-74.733185"
       gradientUnits="userSpaceOnUse" />
    <linearGradient
       inkscape:collect="always"
       xlink:href="#linearGradient13960"
       id="linearGradient13966"
       x1="26.48"
       y1="1.3939171"
       x2="26.48"
       y2="52.84341"
       gradientUnits="userSpaceOnUse" />
  </defs>
  <sodipodi:namedview
     id="base"
     pagecolor="#ffffff"
     bordercolor="#666666"
     borderopacity="1.0"
     inkscape:pageopacity="0.0"
     inkscape:pageshadow="2"
     inkscape:zoom="2"
     inkscape:cx="36.57817"
     inkscape:cy="28.757981"
     inkscape:current-layer="layer1"
     showgrid="false"
     inkscape:document-units="px"
     inkscape:grid-bbox="true"
     inkscape:window-width="1680"
     inkscape:window-height="1030"
     inkscape:window-x="-3"
     inkscape:window-y="-3"
     showguides="true"
     inkscape:guide-bbox="true"
     inkscape:window-maximized="1">
    <sodipodi:guide
       orientation="vertical"
       position="393.92276"
       id="guide5230" />
    <sodipodi:guide
       orientation="vertical"
       position="438.14907"
       id="guide5236" />
  </sodipodi:namedview>
  <metadata
     id="metadata5165">
    <rdf:RDF>
      <cc:Work
         rdf:about="">
        <dc:format>image/svg+xml</dc:format>
        <dc:type
           rdf:resource="http://purl.org/dc/dcmitype/StillImage" />
        <dc:title />
      </cc:Work>
    </rdf:RDF>
  </metadata>
  <g
     id="layer1"
     inkscape:label="Layer 1"
     inkscape:groupmode="layer"
     transform="translate(-3.819132,-6.155729)">
    <g
       inkscape:label="shadow"
       style="display:inline"
       id="layer4"
       transform="translate(-392.7904,328.2799)" />
    <g
       inkscape:label="shadow"
       id="g3039"
       transform="translate(-840.833,182.2722)" />
    <g
       inkscape:label="color"
       id="g3041"
       transform="translate(-840.833,182.2722)">
      <path
         style="opacity:1;fill:#71c000;fill-opacity:1;stroke:#71c000;stroke-width:3.37896037;stroke-linejoin:bevel;stroke-miterlimit:4;stroke-dasharray:none;stroke-opacity:1"
         d=""
         id="path3043" />
      <path
         style="opacity:1;fill:#71c000;fill-opacity:1;stroke:#71c000;stroke-width:3.37896037;stroke-linejoin:bevel;stroke-miterlimit:4;stroke-dasharray:none;stroke-opacity:1"
         d=""
         id="path3045" />
      <path
         style="opacity:1;fill:#71c000;fill-opacity:1;stroke:#71c000;stroke-width:3.37896037;stroke-linejoin:bevel;stroke-miterlimit:4;stroke-dasharray:none;stroke-opacity:1"
         d=""
         id="path3047" />
    </g>
    <g
       inkscape:label="highlight"
       id="g3049"
       transform="translate(-840.833,182.2722)" />
    <g
       inkscape:label="text"
       id="g3089"
       transform="translate(-840.833,182.2722)" />
    <g
       id="g4774"
       inkscape:label="shadow"
       transform="translate(-1426.607,-26.2895)" />
    <g
       id="layer2"
       inkscape:label="color"
       transform="translate(-1426.607,-26.2895)">
      <path
         style="opacity:1;fill:#71c000;fill-opacity:1;stroke:#71c000;stroke-width:3.37896037;stroke-linejoin:bevel;stroke-miterlimit:4;stroke-dasharray:none;stroke-opacity:1"
         d=""
         id="path3422" />
      <path
         style="opacity:1;fill:#71c000;fill-opacity:1;stroke:#71c000;stroke-width:3.37896037;stroke-linejoin:bevel;stroke-miterlimit:4;stroke-dasharray:none;stroke-opacity:1"
         d=""
         id="path3426" />
      <path
         style="opacity:1;fill:#71c000;fill-opacity:1;stroke:#71c000;stroke-width:3.37896037;stroke-linejoin:bevel;stroke-miterlimit:4;stroke-dasharray:none;stroke-opacity:1"
         d=""
         id="path3428" />
    </g>
    <g
       id="g5777"
       inkscape:label="highlight"
       transform="translate(-1426.607,-26.2895)" />
    <g
       id="layer5"
       inkscape:label="text"
       transform="translate(-1426.607,-26.2895)" />
    <rect
       style="opacity:1;color:black;fill:url(#linearGradient13956);fill-opacity:1;fill-rule:evenodd;stroke:#2b2b2b;stroke-width:0.997;stroke-linecap:butt;stroke-linejoin:miter;marker:none;marker-start:none;marker-mid:none;marker-end:none;stroke-miterlimit:4;stroke-dasharray:none;stroke-dashoffset:0;stroke-opacity:1;visibility:visible;display:inline;overflow:visible"
       id="rect13948"
       width="50.730724"
       height="50.548958"
       x="4.9082928"
       y="7.219615"
       ry="7.0913997" />
    <g
       id="g6007"
       transform="matrix(-3.973892e-3,0.629601,-0.629601,-3.973892e-3,295.5792,-273.6194)"
       inkscape:export-xdpi="27.42"
       inkscape:export-ydpi="27.42"
       style="fill:white">
      <g
         transform="translate(415.3267,354.416)"
         id="g6011"
         style="fill:white" />
    </g>
    <g
       id="g3192"
       inkscape:label="openvaslogo"
       style="display:inline"
       transform="translate(-996.7028,556.527)" />
    <path
       style="opacity:1;color:black;fill:none;fill-opacity:1;fill-rule:evenodd;stroke:url(#linearGradient13966);stroke-width:1;stroke-linecap:butt;stroke-linejoin:miter;marker:none;marker-start:none;marker-mid:none;marker-end:none;stroke-miterlimit:4;stroke-dasharray:none;stroke-dashoffset:0;stroke-opacity:1;visibility:visible;display:inline;overflow:visible"
       d="M 2.1818182,45.429271 L 2,7.792907 C 2,7.792907 3.0909091,2.1565434 7.4545455,1.9747252 C 11.818182,1.792907 44.909091,1.9747252 44.909091,1.9747252 C 44.909091,1.9747252 50.727273,1.9747252 50.909091,9.2474525 C 51.090909,16.52018 50.727273,45.974725 50.727273,45.974725"
       id="path13958"
       transform="translate(3.819132,6.155729)" />
    <g
       id="Layer_1"
       transform="translate(-322.18087,-160.58559)" />
    <path
       inkscape:connector-curvature="0"
       d="m 16.017265,25.056493 c 0.654688,-0.38142 0.550991,0.830814 1.210659,1.002975 2.39649,0.330049 2.336077,-2.703772 2.548846,-5.952939 -0.01238,-0.639868 -0.463772,-0.703997 -0.462811,-0.250467 -0.273086,2.68872 -0.311448,5.948509 -2.089254,4.980303 -0.929644,-1.770275 -1.651242,-3.626817 -2.159489,-5.565743 3.516939,-0.870346 1.388652,0.199007 3.914228,-2.65146 l 2.046882,2.109256 c 0.221701,0.193967 0.438964,0.189954 0.651168,-0.05331 3.469846,-3.731821 9.836053,-3.263666 11.044592,3.8546 4.349229,1.178238 8.333343,0.984458 12.051874,-0.207325 1.161184,-0.371418 0.62117,-0.152863 0.06042,0.200291 -6.222741,3.922277 -11.473765,16.208126 -9.867765,22.631156 -1.946497,-3.447176 -5.126209,-6.019278 -8.829599,-7.749356 -0.452503,-0.203272 -0.809458,0.423199 -0.114644,0.797489 9.127809,5.716086 -9.283889,12.869632 -8.316626,7.426637 0.04326,-0.215104 -0.147683,-0.169566 -0.202297,-0.04954 -3.41414,6.180373 -5.777676,1.410205 -1.736853,-2.246699 0.259214,-0.245917 0.05078,-0.440179 -0.326978,-0.300233 -1.011096,0.422374 -1.350596,2.230756 -2.171957,1.510034 -2.704812,-2.267704 -2.360434,-9.180216 0.823956,-10.163672 0.279845,-0.111519 0.416696,-0.370718 0.02321,-0.308592 -6.3968433,1.453577 -3.415517,-4.985376 0.381725,-2.869754 0.388302,0.135609 0.574401,-0.210358 0.126479,-0.448636 -1.539459,-0.223416 0.533048,-5.193427 1.393931,-5.694921 z"
       style="fill:none;stroke:#2b2b2a;stroke-width:0.04524544;stroke-linecap:butt;stroke-linejoin:miter;stroke-miterlimit:22.92558479;stroke-opacity:1;stroke-dasharray:none"
       id="path3120" />
    <path
       inkscape:connector-curvature="0"
       d="m 38.833809,44.751134 c 0.283956,0.414112 -0.331575,-1.313657 0.653369,-2.380088 2.878235,-5.261537 5.141127,-10.574769 6.325351,-16.127456 1.37246,-0.861003 1.562481,-1.901912 0.739808,-1.432784 -4.429617,3.219133 -9.265347,15.892884 -7.718528,19.940328 z"
       style="fill:none;stroke:#2b2b2a;stroke-width:0.04524544;stroke-linecap:butt;stroke-linejoin:miter;stroke-miterlimit:22.92558479;stroke-opacity:1;stroke-dasharray:none"
       id="path3122" />
    <path
       inkscape:connector-curvature="0"
       d="m 43.124121,42.978781 c 0.226667,0.323518 -0.160459,-0.81943 0.621593,-1.726732 2.450154,-4.319046 4.414458,-8.98024 5.20357,-13.594598 1.090631,-0.757529 1.112907,-1.516572 0.45908,-1.100603 -3.327871,2.826386 -7.155887,13.254225 -6.284243,16.421933 z"
       style="fill:none;stroke:#2b2b2a;stroke-width:0.04524544;stroke-linecap:butt;stroke-linejoin:miter;stroke-miterlimit:22.92558479;stroke-opacity:1;stroke-dasharray:none"
       id="path3124" />
    <path
       inkscape:connector-curvature="0"
       d="m 49.202983,22.120089 c 2.479108,1.514832 1.800286,8.329121 -1.5162,15.220114 -3.316452,6.891052 -8.014668,11.249286 -10.493765,9.734453 -2.479083,-1.514839 -1.800281,-8.329123 1.516189,-15.22018 3.316488,-6.890994 8.014706,-11.249228 10.493776,-9.734387 z"
       style="fill:none;stroke:#2b2b2a;stroke-width:0.04524544;stroke-linecap:butt;stroke-linejoin:miter;stroke-miterlimit:22.92558479;stroke-opacity:1;stroke-dasharray:none"
       id="path3126" />
    <path
       inkscape:connector-curvature="0"
       d="m 24.84513,41.597088 c -0.02057,0.303129 0.406348,0.418694 0.508618,0.08974 0.134378,-0.432686 0.04719,-0.58222 0.362408,-0.885897 0.229892,-0.221459 0.185956,-0.632999 -0.266765,-0.377591 -0.536247,0.302497 -0.570564,0.675775 -0.604261,1.173749 z"
       style="fill:none;stroke:#2b2b2a;stroke-width:0.04524544;stroke-linecap:butt;stroke-linejoin:miter;stroke-miterlimit:22.92558479;stroke-opacity:1;stroke-dasharray:none"
       id="path3134" />
    <path
       inkscape:connector-curvature="0"
       d="m 31.992749,18.171454 c 0.487467,-0.360736 0.906262,-1.08482 1.493549,-1.371202 0.570797,0.895348 1.206308,1.767092 2.000963,2.580567 -0.727718,0.302134 -1.370779,0.215537 -1.942245,-0.199879 -0.225512,-0.218314 -0.293038,-0.152784 -0.253066,0.151657 0.05639,0.430053 -0.143907,0.573177 -0.392958,0.680836 -0.199586,-0.741726 -0.514156,-1.340615 -0.906242,-1.841975 z"
       style="fill:none;stroke:#2b2b2a;stroke-width:0.04524544;stroke-linecap:butt;stroke-linejoin:miter;stroke-miterlimit:22.92558479;stroke-opacity:1;stroke-dasharray:none"
       id="path3136" />
    <path
       inkscape:connector-curvature="0"
       d="m 26.040748,20.562211 c -0.107608,0.32502 0.23631,0.486602 0.406912,0.202899 0.813495,-2.530502 1.914352,-2.605634 2.567992,-0.235019 -0.925435,0.03886 -1.062628,2.00074 -0.226824,2.214555 0.333458,0.0492 0.280081,-0.332287 0.157483,-0.369922 -0.326817,-0.122483 -0.400458,-0.554497 -0.195847,-1.326269 0.05776,-0.239664 0.491649,-0.156208 0.287268,0.842697 -0.13231,0.304822 0.102193,0.484541 0.282836,0.220708 0.239068,-0.300403 0.216713,-0.797607 0.07966,-1.309139 0.480933,0.24297 0.830595,0.06214 1.073685,-0.548419 0.07564,-0.197566 -0.167489,-0.410065 -0.320809,-0.275906 -0.159723,0.19285 -0.434746,1.157587 -0.693769,0.42971 C 28.52517,16.651644 27.35732,17.65403 26.04078,20.562204 z"
       style="fill:none;stroke:#2b2b2a;stroke-width:0.04524544;stroke-linecap:butt;stroke-linejoin:miter;stroke-miterlimit:22.92558479;stroke-opacity:1;stroke-dasharray:none"
       id="path3138" />
    <path
       inkscape:connector-curvature="0"
       d="m 30.745584,22.236599 c -0.834438,-2.460659 1.902873,-1.328904 0.119942,0.06242 -0.06315,0.02743 -0.08176,0.03872 -0.119942,-0.06242 z"
       style="fill:none;stroke:#2b2b2a;stroke-width:0.04524544;stroke-linecap:butt;stroke-linejoin:miter;stroke-miterlimit:22.92558479;stroke-opacity:1;stroke-dasharray:none"
       id="path3140" />
    <path
       inkscape:connector-curvature="0"
       d="m 30.961607,21.938096 c -0.49066,-1.046539 0.608358,-0.782355 0.04909,0.01742 -0.02141,0.01834 -0.02749,0.02521 -0.04909,-0.01742 z"
       style="fill:none;stroke:#2b2b2a;stroke-width:0.04524544;stroke-linecap:butt;stroke-linejoin:miter;stroke-miterlimit:22.92558479;stroke-opacity:1;stroke-dasharray:none"
       id="path3142" />
    <path
       inkscape:connector-curvature="0"
       d="m 50.755958,30.439852 c 1.673206,-6.83047 0.974342,-12.38546 -4.238771,-9.93975 -4.483619,2.194011 -7.708388,2.303568 -13.266964,1.742526 -0.06691,-0.525307 -0.207774,-1.022348 -0.384237,-1.518978 0.850643,-1.12499 1.111864,0.194318 3.57491,-1.142162 l -2.82016,-3.816608 -2.042276,2.19239 c -2.994549,-3.400599 -6.406037,-3.316605 -10.234471,0.252284 l -2.246742,-2.991188 -2.392329,2.84455 -3.227799,0.607328 2.291182,5.350046 c -1.077918,1.927719 -1.989037,4.022732 -2.441611,6.215929 -4.2267066,-0.531721 -6.2517362,4.692846 -1.306217,4.630569 -1.919999,3.249844 -1.492416,9.307942 1.184529,10.924723 -2.595016,4.155943 0.705904,5.461383 3.494331,2.024348 3.556477,2.588483 12.42786,-1.319674 12.613908,-5.10769 0.498741,-0.87342 0.316143,-1.736332 0.688205,-1.497416 3.839482,2.816706 3.399771,6.542241 7.488713,7.680248 4.02766,0.52172 8.337436,-5.375394 11.111325,-11.983143 -0.09039,-0.341185 -0.153143,-0.742716 -0.170218,-1.21591 -0.231159,0.547169 -0.479376,1.097516 -0.744433,1.64831 -3.315897,6.88988 -8.015095,11.249077 -10.493839,9.734404 -2.478677,-1.514624 0.163579,-16.091748 1.453689,-17.595179 5.815918,-4.88982 8.077625,-8.873949 10.556275,-7.359388 1.698226,1.037643 1.914289,4.56361 0.815667,8.896908 0.230862,-0.216067 0.478585,-0.408553 0.737308,-0.577144 z m -5.982,-8.117476 c 1.161185,-0.371418 0.621171,-0.152863 0.06042,0.20029 -4.221322,0.710442 -9.318507,4.809495 -10.761782,11.485067 -0.684288,3.165035 -0.672208,5.659248 0.894016,11.14609 -1.946497,-3.447177 -5.126208,-6.019278 -8.82961,-7.749398 -0.452573,-0.203278 -0.809446,0.423241 -0.114615,0.797594 9.127792,5.716023 -9.283907,12.869569 -8.316644,7.426573 0.04326,-0.215104 -0.147741,-0.16955 -0.202315,-0.04961 -3.414123,6.180437 -5.777642,1.410331 -1.736798,-2.246644 0.259176,-0.245908 0.05075,-0.440169 -0.327016,-0.300224 -1.011095,0.422374 -1.350596,2.230758 -2.171956,1.510035 -2.704812,-2.267703 -2.360434,-9.180217 0.824013,-10.163688 0.279846,-0.111519 0.416639,-0.370703 0.02316,-0.308577 -6.3968426,1.453578 -3.415477,-4.985386 0.381725,-2.869754 0.388302,0.135609 0.574344,-0.210344 0.126537,-0.44865 -1.539516,-0.223402 0.53299,-5.193412 1.393873,-5.694907 0.654629,-0.381405 0.55099,0.830815 1.210658,1.002976 2.39649,0.330048 2.336076,-2.703773 2.548847,-5.952939 -0.01238,-0.639869 -0.46379,-0.704062 -0.462812,-0.250468 -0.273085,2.68872 -0.311449,5.948509 -2.089254,4.980304 -0.929606,-1.770286 -1.651298,-3.626802 -2.159547,-5.565729 3.516997,-0.87036 1.38871,0.198993 3.914327,-2.651554 l 2.046841,2.109336 c 0.221718,0.194029 0.439011,0.189896 0.651165,-0.05332 3.469846,-3.731822 9.836111,-3.263682 11.044591,3.854599 4.34923,1.178238 8.333345,0.984458 12.051878,-0.207325 z m -9.286697,-2.941557 c -0.727718,0.302134 -1.370779,0.215537 -1.942245,-0.199879 -0.225512,-0.218314 -0.293038,-0.152784 -0.253066,0.151657 0.05639,0.430053 -0.143907,0.573177 -0.392958,0.680836 -0.199586,-0.741726 -0.514156,-1.340615 -0.906242,-1.841975 0.487467,-0.360736 0.906262,-1.08482 1.493549,-1.371204 0.570797,0.895349 1.206308,1.767093 2.000962,2.580565 z"
       style="fill:#2b2b2a;fill-opacity:1;fill-rule:evenodd;stroke:#2b2b2a;stroke-width:0.04524544;stroke-linecap:butt;stroke-linejoin:miter;stroke-miterlimit:22.92558479;stroke-opacity:1;stroke-dasharray:none"
       id="path3144"
       sodipodi:nodetypes="ccccccccccccccccccccccscccccccsccccccccccccccccccccccccccccccc" />
    <path
       inkscape:connector-curvature="0"
       d="m 39.487178,42.371046 c 2.878235,-5.261537 5.141127,-10.574769 6.325351,-16.127456 1.37246,-0.861003 1.562481,-1.901912 0.739808,-1.432784 -4.429617,3.219133 -9.265347,15.892884 -7.718528,19.940328 0.283956,0.414112 -0.331575,-1.313657 0.653369,-2.380088 z"
       style="fill:#2b2b2a;fill-opacity:1;fill-rule:evenodd;stroke:#2b2b2a;stroke-width:0.04524544;stroke-linecap:butt;stroke-linejoin:miter;stroke-miterlimit:22.92558479;stroke-opacity:1;stroke-dasharray:none"
       id="path3146" />
    <path
       inkscape:connector-curvature="0"
       d="m 49.408364,26.556848 c -3.327871,2.826386 -7.155887,13.254225 -6.284226,16.421998 0.22665,0.323453 -0.160408,-0.819513 0.621559,-1.726861 2.450171,-4.318982 4.414475,-8.980176 5.203587,-13.594534 1.090631,-0.757529 1.112907,-1.516572 0.45908,-1.100603 z"
       style="fill:#2b2b2a;fill-opacity:1;fill-rule:evenodd;stroke:#2b2b2a;stroke-width:0.04524544;stroke-linecap:butt;stroke-linejoin:miter;stroke-miterlimit:22.92558479;stroke-opacity:1;stroke-dasharray:none"
       id="path3148" />
    <path
       inkscape:connector-curvature="0"
       d="m 50.01865,31.016996 c -0.376819,1.485985 -0.908174,3.066851 -1.587359,4.674945 0.01702,0.473208 0.07983,0.874726 0.170217,1.215911 0.320402,-0.76335 0.620327,-1.536137 0.897009,-2.3096 0.06235,-0.685657 0.181128,-1.228337 0.357517,-1.627002 0.104598,-0.238586 0.236503,-0.462746 0.395488,-0.672653 0.18609,-0.626546 0.354761,-1.24781 0.504436,-1.858745 -0.258725,0.168587 -0.506446,0.361077 -0.737308,0.577144 z"
       style="fill:#2b2b2a;fill-opacity:1;fill-rule:evenodd;stroke:#2b2b2a;stroke-width:0.04524544;stroke-linecap:butt;stroke-linejoin:miter;stroke-miterlimit:22.92558479;stroke-opacity:1;stroke-dasharray:none"
       id="path3150" />
    <path
       inkscape:connector-curvature="0"
       d="m 29.459306,20.408112 c -0.934166,-3.756461 -2.102015,-2.754075 -3.418558,0.154099 -0.107608,0.32502 0.23631,0.486602 0.406912,0.202899 0.813495,-2.530502 1.914352,-2.605634 2.567992,-0.235019 -0.925435,0.03886 -1.062628,2.00074 -0.226824,2.214555 0.333458,0.0492 0.280081,-0.332287 0.157483,-0.369922 -0.326817,-0.122483 -0.400458,-0.554497 -0.195847,-1.326269 0.05776,-0.239664 0.491649,-0.156208 0.287268,0.842697 -0.13231,0.304822 0.102193,0.484541 0.282836,0.220708 0.239068,-0.300403 0.216713,-0.797607 0.07966,-1.309139 0.480933,0.24297 0.830595,0.06214 1.073685,-0.548419 0.07564,-0.197566 -0.167489,-0.410065 -0.320809,-0.275906 -0.159723,0.19285 -0.434746,1.157587 -0.693769,0.42971 z"
       style="fill:#2b2b2a;fill-opacity:1;fill-rule:evenodd;stroke:#2b2b2a;stroke-width:0.04524544;stroke-linecap:butt;stroke-linejoin:miter;stroke-miterlimit:22.92558479;stroke-opacity:1;stroke-dasharray:none"
       id="path3152" />
    <path
       inkscape:connector-curvature="0"
       d="m 30.865582,22.298991 c 1.782875,-1.391296 -0.954509,-2.523099 -0.120016,-0.06246 0.03818,0.101206 0.05683,0.08989 0.120016,0.06246 z m 0.09601,-0.360938 c -0.490591,-1.046511 0.60837,-0.782312 0.04912,0.01753 -0.02143,0.01827 -0.0275,0.02515 -0.04912,-0.01753 z"
       style="fill:#2b2b2a;fill-opacity:1;fill-rule:evenodd;stroke:#2b2b2a;stroke-width:0.04524544;stroke-linecap:butt;stroke-linejoin:miter;stroke-miterlimit:22.92558479;stroke-opacity:1;stroke-dasharray:none"
       id="path3154" />
    <path
       inkscape:connector-curvature="0"
       d="m 25.716156,40.80093 c 0.229892,-0.221459 0.185956,-0.632999 -0.266765,-0.377591 -0.536247,0.302497 -0.570564,0.675775 -0.604261,1.173749 -0.02057,0.303129 0.406348,0.418694 0.508618,0.08974 0.134378,-0.432686 0.04719,-0.58222 0.362408,-0.885897 z"
       style="fill:#2b2b2a;fill-opacity:1;fill-rule:evenodd;stroke:#2b2b2a;stroke-width:0.04524544;stroke-linecap:butt;stroke-linejoin:miter;stroke-miterlimit:22.92558479;stroke-opacity:1;stroke-dasharray:none"
       id="path3156" />
    <path
       inkscape:connector-curvature="0"
       d="m 26.022691,38.201939 c -0.694831,-0.374352 -0.337951,-1.000873 0.114615,-0.797594 3.703401,1.730121 6.883114,4.302221 8.82961,7.749398 -2.981004,-12.79803 4.020024,-20.458878 9.867763,-22.631156 0.560441,-0.353109 1.100465,-0.571624 -0.06042,-0.20029 -3.718539,1.191784 -7.702653,1.385565 -12.051883,0.207326 -1.208481,-7.118281 -7.574746,-7.586421 -11.044591,-3.854599 -0.212156,0.243214 -0.429449,0.247348 -0.651168,0.05331 L 18.979795,16.619 c -2.525616,2.850545 -0.397329,1.781192 -3.914327,2.651553 0.508247,1.938927 1.229942,3.795443 2.159546,5.565728 1.777806,0.968207 1.816169,-2.291583 2.089255,-4.980303 -9.78e-4,-0.453593 0.450432,-0.389401 0.462811,0.250468 -0.212769,3.249167 -0.152356,6.282987 -2.548845,5.952939 -0.659669,-0.172162 -0.556029,-1.384381 -1.210659,-1.002975 -0.860882,0.501494 -2.933388,5.471505 -1.393874,5.694907 0.447809,0.238305 0.261766,0.584259 -0.126536,0.44865 -3.797202,-2.115633 -6.778568,4.323331 -0.381725,2.869754 0.393483,-0.06213 0.256687,0.197049 -0.02316,0.308577 -3.184454,0.983473 -3.528825,7.895983 -0.824013,10.163687 0.82136,0.720722 1.160861,-1.08766 2.171956,-1.510034 0.377761,-0.139946 0.586192,0.05432 0.327016,0.300223 -4.040845,3.656973 -1.677325,8.427082 1.736798,2.246645 0.05457,-0.119944 0.245586,-0.165493 0.202316,0.04961 -0.967264,5.442996 17.444434,-1.710551 8.316643,-7.426573 z m 4.722875,-15.965405 c -0.834493,-2.460642 1.902891,-1.328839 0.120019,0.06247 -0.06323,0.02745 -0.08184,0.03875 -0.120019,-0.06247 z m -1.729914,-1.706443 c -0.653667,-2.370608 -1.754497,-2.295483 -2.567992,0.235019 -0.170602,0.283703 -0.514519,0.122125 -0.406912,-0.202899 1.316543,-2.908174 2.484429,-3.910569 3.418558,-0.154099 0.258994,0.727885 0.534042,-0.236865 0.693767,-0.429709 0.153349,-0.134157 0.396448,0.07834 0.320811,0.275905 -0.243091,0.610564 -0.592754,0.79139 -1.073687,0.54842 0.136901,0.511572 0.159413,1.008736 -0.07966,1.309139 -0.180605,0.263823 -0.415148,0.08411 -0.282835,-0.220708 0.204409,-0.99891 -0.22945,-1.082376 -0.287267,-0.842698 -0.204611,0.771773 -0.130971,1.203787 0.195847,1.32627 0.122595,0.03762 0.175988,0.41912 -0.157483,0.369921 -0.835804,-0.213815 -0.698611,-2.175695 0.226824,-2.214554"
       style="fill:#f6b3b6;fill-opacity:1;fill-rule:evenodd;stroke:none"
       id="path3158"
       sodipodi:nodetypes="cccccccccccccccccccccccccccccccccccccccccc" />
    <path
       inkscape:connector-curvature="0"
       d="m 49.202983,22.120089 c -2.29115,-0.889561 -7.177857,2.844568 -10.493776,9.734387 -3.315844,6.889868 -3.994866,13.705555 -1.516189,15.22018 2.478744,1.514673 7.177942,-2.844525 10.493839,-9.734404 0.265058,-0.550795 0.513275,-1.101141 0.744434,-1.648311 -0.0083,-0.230959 -0.0058,-0.47903 0.0098,-0.745421 -0.05847,-1.70922 0.611846,-3.02577 1.577587,-3.929524 1.098621,-4.333298 0.882558,-7.859264 -0.815667,-8.896907 z M 38.833809,44.751134 C 37.28699,40.70369 42.12272,28.029939 46.552337,24.810806 c 0.822673,-0.469128 0.632652,0.571781 -0.739808,1.432784 -1.184224,5.552687 -3.447116,10.865919 -6.325351,16.127456 -0.98497,1.066438 -0.369413,2.7942 -0.653369,2.380088 z m 4.290329,-1.772288 c -0.871659,-3.167774 2.956355,-13.595612 6.284226,-16.421998 0.653827,-0.415969 0.631551,0.343074 -0.45908,1.100603 -0.789112,4.614358 -2.753416,9.275552 -5.203587,13.594534 -0.781973,0.90735 -0.394909,2.050314 -0.621559,1.726861"
       style="fill:#f6b3b6;fill-opacity:1;fill-rule:evenodd;stroke:none"
       id="path3160"
       sodipodi:nodetypes="ccscccccccccccccccc" />
    <path
       inkscape:connector-curvature="0"
       d="m 33.545016,19.18094 c 0.571466,0.415416 1.214528,0.502016 1.942245,0.199879 -0.794655,-0.813475 -1.430166,-1.685219 -2.000963,-2.580567 -0.587287,0.286382 -1.006082,1.010466 -1.493549,1.371202 0.392086,0.50136 0.706273,1.100348 0.906242,1.841975 0.249053,-0.107652 0.449371,-0.25079 0.392958,-0.680836 -0.03998,-0.304435 0.02755,-0.369967 0.253066,-0.151657"
       style="fill:#f6b3b6;fill-opacity:1;fill-rule:evenodd;stroke:none"
       id="path3162" />
    <path
       inkscape:connector-curvature="0"
       d="m 31.010732,21.955576 c 0.559233,-0.799835 -0.539728,-1.064034 -0.04913,-0.01753 0.02161,0.04268 0.02769,0.0358 0.04913,0.01753"
       style="fill:#f6b3b6;fill-opacity:1;fill-rule:evenodd;stroke:none"
       id="path3164" />
    <path
       inkscape:connector-curvature="0"
       d="m 31.010732,21.955576 c 0.559233,-0.799835 -0.539728,-1.064034 -0.04913,-0.01753 0.02161,0.04268 0.02769,0.0358 0.04913,0.01753"
       style="fill:#ffffff;fill-opacity:1;fill-rule:evenodd;stroke:none"
       id="path3166" />
    <path
       inkscape:connector-curvature="0"
       d="m 26.2667,18.634379 c -0.687538,1.644077 -1.454772,0.775887 -0.666896,3.026486 0.715115,2.042803 4.663065,2.433837 5.353925,1.506324 0.59088,-0.793346 0.993295,-0.528529 0.921811,-1.852075 -0.204491,-3.787186 -4.495844,-5.342357 -5.60884,-2.680735 z"
       style="fill:none;stroke:#2b2b2a;stroke-width:0.04524544;stroke-linecap:butt;stroke-linejoin:miter;stroke-miterlimit:22.92558479;stroke-opacity:1;stroke-dasharray:none"
       id="path3174" />
    <path
       inkscape:connector-curvature="0"
       d="m 29.015652,20.530091 c -0.653667,-2.370608 -1.754497,-2.295483 -2.567992,0.235019 -0.170602,0.283703 -0.514519,0.122125 -0.406912,-0.202899 1.316543,-2.908174 2.484429,-3.910569 3.418558,-0.154099 0.258994,0.727885 0.534042,-0.236865 0.693767,-0.429709 0.153349,-0.134157 0.396448,0.07834 0.320811,0.275905 -0.243091,0.610564 -0.592754,0.79139 -1.073687,0.54842 0.136901,0.511572 0.159413,1.008736 -0.07966,1.309139 -0.180605,0.263823 -0.415148,0.08411 -0.282835,-0.220708 0.204409,-0.99891 -0.22945,-1.082376 -0.287267,-0.842698 -0.204611,0.771773 -0.130971,1.203787 0.195847,1.32627 0.122595,0.03762 0.175988,0.41912 -0.157483,0.369921 -0.835804,-0.213815 -0.698611,-2.175695 0.226824,-2.214554 z m 1.938077,2.637098 c 0.59088,-0.793346 0.993295,-0.528529 0.921811,-1.852075 -0.204491,-3.787186 -4.495844,-5.342357 -5.60884,-2.680735 -0.687538,1.644077 -1.454772,0.775887 -0.666896,3.026486 0.715115,2.042803 4.663065,2.433837 5.353925,1.506324 z M 30.74558,22.23653 c -0.834493,-2.460641 1.902889,-1.328839 0.120009,0.06247 -0.06323,0.02745 -0.08184,0.03875 -0.120009,-0.06247 z"
       style="fill:#ffffff;fill-opacity:1;fill-rule:evenodd;stroke:#ffffff;stroke-width:0.04524544;stroke-linecap:butt;stroke-linejoin:miter;stroke-miterlimit:22.92558479;stroke-opacity:1;stroke-dasharray:none"
       id="path3176" />
    <path
       inkscape:connector-curvature="0"
       d="m 26.44766,20.76511 c 0.813495,-2.530502 1.914352,-2.605634 2.567992,-0.235019 -0.925435,0.03886 -1.062628,2.00074 -0.226824,2.214555 0.333458,0.0492 0.280081,-0.332287 0.157483,-0.369922 -0.326817,-0.122483 -0.400458,-0.554497 -0.195847,-1.326269 0.05776,-0.239664 0.491649,-0.156208 0.287268,0.842697 -0.13231,0.304822 0.102193,0.484541 0.282836,0.220708 0.239068,-0.300403 0.216713,-0.797607 0.07966,-1.309139 0.480933,0.24297 0.830595,0.06214 1.073685,-0.548419 0.07564,-0.197566 -0.167489,-0.410065 -0.320809,-0.275906 -0.159723,0.19285 -0.434746,1.157587 -0.693769,0.42971 -0.934165,-3.756462 -2.102015,-2.754076 -3.418555,0.154098 -0.10761,0.32502 0.236309,0.486602 0.40691,0.202899 z"
       style="fill:#2b2b2a;fill-opacity:1;fill-rule:evenodd;stroke:#2b2b2a;stroke-width:0.04524544;stroke-linecap:butt;stroke-linejoin:miter;stroke-miterlimit:22.92558479;stroke-opacity:1;stroke-dasharray:none"
       id="path3178" />
    <path
       inkscape:connector-curvature="0"
       d="m 30.865582,22.298991 c 1.782875,-1.391296 -0.954509,-2.523099 -0.120016,-0.06246 0.03818,0.101206 0.05683,0.08989 0.120016,0.06246 z m 0.09601,-0.360938 c -0.490591,-1.046511 0.60837,-0.782312 0.04912,0.01753 -0.02143,0.01827 -0.0275,0.02515 -0.04912,-0.01753 z"
       style="fill:#2b2b2a;fill-opacity:1;fill-rule:evenodd;stroke:#2b2b2a;stroke-width:0.04524544;stroke-linecap:butt;stroke-linejoin:miter;stroke-miterlimit:22.92558479;stroke-opacity:1;stroke-dasharray:none"
       id="path3180" />
    <path
       inkscape:connector-curvature="0"
       d="m 48.949284,27.657451 c -0.789112,4.614358 -2.753416,9.275552 -5.203587,13.594534 -0.781973,0.90735 -0.394909,2.050314 -0.621559,1.726861 -0.871659,-3.167774 2.956355,-13.595612 6.284226,-16.421998 0.653827,-0.415969 0.631551,0.343074 -0.45908,1.100603 z M 45.812529,26.24359 c -1.184224,5.552687 -3.447116,10.865919 -6.325351,16.127456 -0.98497,1.066438 -0.369413,2.7942 -0.653369,2.380088 -1.546819,-4.047444 3.288911,-16.721195 7.718528,-19.940328 0.822673,-0.469128 0.632652,0.571781 -0.739808,1.432784 z m 3.390454,-4.123501 c -2.3849,-1.202061 -9.459107,4.813318 -11.993776,8.984387 -3.218904,6.417503 -2.119866,14.955555 -0.01619,15.97018 2.616465,1.261949 7.177942,-2.844525 10.493839,-9.734404 1.385619,-3.699823 5.183515,-12.695047 1.516126,-15.220163"
       style="fill:#ffffff;fill-opacity:1;fill-rule:evenodd;stroke:none"
       id="path3182"
       sodipodi:nodetypes="ccccccccccccscc" />
  </g>
</svg>
