<svg width="467" height="469" viewBox="0 0 467 469" fill="none" xmlns="http://www.w3.org/2000/svg">
<path d="M233.5 1L435.717 117.75V351.25L233.5 468L31.2831 351.25V117.75L233.5 1Z" fill="url(#paint0_linear_202_399)"/>
<path d="M422.456 344.317L234.341 453.637L45 344.319L233.112 235L422.456 344.317Z" fill="#171717"/>
<path d="M130.387 358.014L131.011 363.438C127.939 364.398 125.155 364.782 120.403 364.782C110.179 364.782 106.483 360.27 106.483 347.646C106.483 335.022 110.179 330.51 120.403 330.51C125.059 330.51 127.315 330.846 130.339 331.614L129.715 337.086C126.595 336.894 124.579 336.846 120.403 336.846C115.603 336.846 114.163 339.294 114.163 347.646C114.163 355.998 115.603 358.446 120.403 358.446C124.819 358.446 127.459 358.398 130.387 358.014ZM148.299 330.462C158.763 330.462 162.507 334.35 162.507 347.646C162.507 360.942 158.763 364.83 148.299 364.83C137.835 364.83 134.139 360.942 134.139 347.646C134.139 334.35 137.835 330.462 148.299 330.462ZM148.299 336.366C143.307 336.366 141.819 338.862 141.819 347.646C141.819 356.43 143.307 358.926 148.299 358.926C153.291 358.926 154.779 356.43 154.779 347.646C154.779 338.862 153.291 336.366 148.299 336.366ZM195.991 331.086V361.566C195.991 363.294 195.127 364.206 193.399 364.206H188.839C187.303 364.206 186.631 363.486 185.911 362.046L177.223 344.382C176.551 342.942 175.591 340.878 175.207 339.246H174.679C174.919 340.974 175.015 342.798 175.015 344.526V364.206H168.055V333.726C168.055 331.998 168.967 331.086 170.695 331.086H175.159C176.695 331.086 177.367 331.806 178.087 333.246L186.487 350.382C187.207 351.822 188.119 353.838 188.887 355.71H189.367C189.223 353.838 189.079 352.014 189.079 350.142V331.086H195.991ZM227.32 337.038H217.432V364.206H210.088V337.038H200.2V331.086H227.32V337.038ZM246.71 355.518H235.334L232.934 364.206H225.446L234.998 333.006C235.286 331.806 236.342 331.086 237.542 331.086H244.454C245.702 331.086 246.71 331.806 246.998 333.006L256.55 364.206H249.11L246.71 355.518ZM245.126 349.854L242.342 339.726C242.102 338.718 241.814 337.614 241.67 336.606H240.374C240.134 337.614 239.894 338.718 239.654 339.726L236.87 349.854H245.126ZM267.273 364.206H259.977V331.086H267.273V364.206ZM301.929 331.086V361.566C301.929 363.294 301.065 364.206 299.337 364.206H294.777C293.241 364.206 292.569 363.486 291.849 362.046L283.161 344.382C282.489 342.942 281.529 340.878 281.145 339.246H280.617C280.857 340.974 280.953 342.798 280.953 344.526V364.206H273.993V333.726C273.993 331.998 274.905 331.086 276.633 331.086H281.097C282.633 331.086 283.305 331.806 284.025 333.246L292.425 350.382C293.145 351.822 294.057 353.838 294.825 355.71H295.305C295.161 353.838 295.017 352.014 295.017 350.142V331.086H301.929ZM330.665 358.494L331.001 363.87C326.489 364.35 320.777 364.35 315.641 364.35C311.225 364.35 308.393 361.758 308.345 357.678V337.614C308.393 333.534 311.225 330.942 315.641 330.942C320.777 330.942 326.489 330.942 331.001 331.422L330.665 336.846H317.945C316.361 336.846 315.689 337.566 315.689 339.294V344.334H328.889V349.614H315.689V355.998C315.689 357.774 316.361 358.494 317.945 358.494H330.665ZM362.402 364.206H354.674L352.178 354.078C351.554 351.966 350.594 351.294 348.626 351.294L343.49 351.246V364.206H336.29V331.086C340.274 330.702 342.962 330.654 348.914 330.654C357.554 330.654 361.154 332.862 361.154 340.446C361.154 345.102 359.522 348.078 354.818 348.654V348.894C356.498 349.278 358.754 350.478 359.522 353.886L362.402 364.206ZM343.49 345.63H348.77C352.61 345.63 353.762 344.574 353.762 340.926C353.762 337.23 352.61 336.27 348.77 336.27L343.49 336.318V345.63Z" fill="white"/>
<path d="M120.688 111.82C133.768 111.82 138.448 116.68 138.448 133.3C138.448 149.92 133.768 154.78 120.688 154.78C107.608 154.78 102.988 149.92 102.988 133.3C102.988 116.68 107.608 111.82 120.688 111.82ZM120.688 119.2C114.448 119.2 112.588 122.32 112.588 133.3C112.588 144.28 114.448 147.4 120.688 147.4C126.928 147.4 128.788 144.28 128.788 133.3C128.788 122.32 126.928 119.2 120.688 119.2ZM145.384 154V112.6C150.364 112.12 153.664 112.06 161.104 112.06C172.564 112.06 176.224 115 176.224 125.56C176.224 136.24 172.564 139.12 162.304 139.12C159.604 139.12 156.904 138.94 154.504 138.64V154H145.384ZM154.504 132.1H160.924C165.604 132.04 167.044 130.72 167.044 125.56C167.044 120.4 165.604 119.08 160.924 119.08L154.504 119.14V132.1ZM209.779 146.86L210.199 153.58C204.559 154.18 197.419 154.18 190.999 154.18C185.479 154.18 181.939 150.94 181.879 145.84V120.76C181.939 115.66 185.479 112.42 190.999 112.42C197.419 112.42 204.559 112.42 210.199 113.02L209.779 119.8H193.879C191.899 119.8 191.059 120.7 191.059 122.86V129.16H207.559V135.76H191.059V143.74C191.059 145.96 191.899 146.86 193.879 146.86H209.779ZM251.729 112.6V150.7C251.729 152.86 250.649 154 248.489 154H242.789C240.869 154 240.029 153.1 239.129 151.3L228.269 129.22C227.429 127.42 226.229 124.84 225.749 122.8H225.089C225.389 124.96 225.509 127.24 225.509 129.4V154H216.809V115.9C216.809 113.74 217.949 112.6 220.109 112.6H225.689C227.609 112.6 228.449 113.5 229.349 115.3L239.849 136.72C240.749 138.52 241.889 141.04 242.849 143.38H243.449C243.269 141.04 243.089 138.76 243.089 136.42V112.6H251.729ZM293.65 112.6L282.43 151.48C282.07 152.98 280.81 154 279.19 154H270.85C269.23 154 267.97 152.98 267.61 151.48L256.33 112.6H265.75L273.25 142.48C273.61 143.98 273.97 145.6 274.27 147.1H275.77C276.01 145.6 276.43 143.98 276.79 142.48L284.23 112.6H293.65ZM318.527 143.14H304.307L301.307 154H291.947L303.887 115C304.247 113.5 305.567 112.6 307.067 112.6H315.707C317.267 112.6 318.527 113.5 318.887 115L330.827 154H321.527L318.527 143.14ZM316.547 136.06L313.067 123.4C312.767 122.14 312.407 120.76 312.227 119.5H310.607C310.307 120.76 310.007 122.14 309.707 123.4L306.227 136.06H316.547ZM350.41 138.34L342.07 135.4C335.77 133.12 333.49 129.4 333.49 123.28C333.49 113.8 337.87 111.82 348.55 111.82C352.63 111.82 357.55 112.12 362.17 113.44L361.57 119.68C358.09 119.56 352.99 119.5 348.61 119.5C344.17 119.5 342.61 119.74 342.61 123.28C342.61 126.16 343.81 126.94 346.93 127.96L354.79 130.66C361.39 133 363.55 136.78 363.55 142.84C363.55 152.26 359.47 154.78 348.19 154.78C345.55 154.78 340.33 154.6 333.97 153.22L334.51 146.62C342.19 146.8 345.55 146.92 348.19 146.92C352.99 146.92 354.31 146.26 354.31 142.9C354.31 139.96 353.17 139.24 350.41 138.34Z" fill="white"/>
<path d="M120.543 203.152L120.831 207.712C116.463 208.096 111.087 208.096 106.239 208.096C101.871 208.096 99.1826 205.696 99.1346 201.808V181.072C99.1826 177.184 101.919 174.784 106.239 174.784C111.087 174.784 116.463 174.784 120.831 175.168L120.543 179.776H107.583C105.855 179.776 105.183 180.496 105.183 182.56V188.368H118.767V192.976H105.183V200.368C105.183 202.432 105.855 203.152 107.583 203.152H120.543ZM153.632 174.88V205.792C153.632 207.232 152.864 208 151.424 208H146.672C145.376 208 144.704 207.424 144.176 206.176L134.864 185.872C134.24 184.528 133.232 182.464 132.896 180.928H132.32C132.56 182.608 132.608 184.288 132.608 185.92V208H126.704V177.088C126.704 175.648 127.52 174.88 128.96 174.88H133.616C134.912 174.88 135.536 175.456 136.112 176.704L145.136 196.432C145.76 197.872 146.72 199.888 147.44 201.664H148.016C147.872 199.84 147.776 198.064 147.776 196.288V174.88H153.632ZM184.728 180.016H174.504V208H168.456V180.016H158.328V174.88H184.728V180.016ZM210.543 203.152L210.831 207.712C206.463 208.096 201.087 208.096 196.239 208.096C191.871 208.096 189.183 205.696 189.135 201.808V181.072C189.183 177.184 191.919 174.784 196.239 174.784C201.087 174.784 206.463 174.784 210.831 175.168L210.543 179.776H197.583C195.855 179.776 195.183 180.496 195.183 182.56V188.368H208.767V192.976H195.183V200.368C195.183 202.432 195.855 203.152 197.583 203.152H210.543ZM241.472 208H235.088L232.448 197.728C231.776 195.568 230.624 194.752 228.608 194.752L222.656 194.704V208H216.704V174.88C220.496 174.496 223.088 174.448 228.752 174.448C236.912 174.448 240.272 176.608 240.272 184.144C240.272 189.088 238.64 191.92 234.08 192.496V192.736C235.712 193.12 237.776 194.464 238.496 197.632L241.472 208ZM222.656 189.808H228.608C232.832 189.76 234.176 188.608 234.176 184.528C234.176 180.448 232.832 179.392 228.608 179.392H222.656V189.808ZM246.891 208V174.88C250.683 174.496 253.227 174.448 258.891 174.448C267.483 174.448 270.267 176.752 270.267 185.104C270.267 193.504 267.483 195.76 259.659 195.76C257.259 195.76 254.907 195.616 252.891 195.376V208H246.891ZM252.891 190.864H258.747C262.923 190.816 264.219 189.664 264.219 185.104C264.219 180.544 262.923 179.392 258.747 179.392H252.891V190.864ZM300.487 208H294.103L291.463 197.728C290.791 195.568 289.639 194.752 287.623 194.752L281.671 194.704V208H275.719V174.88C279.511 174.496 282.103 174.448 287.767 174.448C295.927 174.448 299.287 176.608 299.287 184.144C299.287 189.088 297.655 191.92 293.095 192.496V192.736C294.727 193.12 296.791 194.464 297.511 197.632L300.487 208ZM281.671 189.808H287.623C291.847 189.76 293.191 188.608 293.191 184.528C293.191 180.448 291.847 179.392 287.623 179.392H281.671V189.808ZM311.907 208H305.907V174.88H311.907V208ZM331.265 194.896L324.593 192.784C319.697 191.2 317.921 188.128 317.921 183.184C317.921 175.6 321.377 174.304 329.297 174.304C332.465 174.304 336.161 174.496 339.713 175.408L339.329 179.68C336.593 179.584 332.753 179.488 329.489 179.488C325.457 179.488 323.969 179.728 323.969 183.28C323.969 186.208 325.073 186.88 327.665 187.696L334.049 189.664C339.281 191.344 340.865 194.464 340.865 199.312C340.865 206.848 337.601 208.576 329.105 208.576C327.089 208.576 323.153 208.48 318.353 207.52L318.737 203.104C325.025 203.248 326.945 203.296 329.249 203.296C333.569 203.296 334.769 202.672 334.769 199.264C334.769 196.24 333.665 195.664 331.265 194.896ZM367.808 203.152L368.096 207.712C363.728 208.096 358.352 208.096 353.504 208.096C349.136 208.096 346.448 205.696 346.4 201.808V181.072C346.448 177.184 349.184 174.784 353.504 174.784C358.352 174.784 363.728 174.784 368.096 175.168L367.808 179.776H354.848C353.12 179.776 352.448 180.496 352.448 182.56V188.368H366.032V192.976H352.448V200.368C352.448 202.432 353.12 203.152 354.848 203.152H367.808Z" fill="white"/>
<defs>
<linearGradient id="paint0_linear_202_399" x1="233.5" y1="0.830193" x2="233.5" y2="468" gradientUnits="userSpaceOnUse">
<stop offset="0.25" stop-color="#0A602E"/>
<stop offset="0.75" stop-color="#11AB51"/>
</linearGradient>
</defs>
</svg>
