<svg width="466" height="480" viewBox="0 0 466 480" fill="none" xmlns="http://www.w3.org/2000/svg">
<path fill-rule="evenodd" clip-rule="evenodd" d="M254.058 90C251.071 104.401 244.221 132.411 240.224 148.416C210.793 166.364 173.364 204.98 152.88 230.728C129.664 259.911 81.7464 297.594 91.2248 319.329C102.102 344.271 119.013 357.558 143.238 368.9C151.804 337.543 211.95 317.682 229.792 305.038C233.827 302.179 236.825 299.552 238.629 294.72C240.433 289.888 228.077 275.404 232.803 263.31C237.941 250.163 254.496 234.346 271.623 234.346C257.922 238.159 245.362 254.165 243.65 265.025C241.703 277.368 260.342 291.726 253.094 303.805C251.487 306.381 248.129 310.282 244.635 313.057C221.915 331.097 164.868 349.624 160.805 370.791C170.351 379.905 202.361 395.004 212.628 388.36C255.442 360.658 383.515 300.465 300.738 234.346C332.707 238.348 346.345 264.612 347.55 293.034C373.748 276.045 381.455 249.487 371.527 226.906C357.704 195.467 334.966 166.707 300.738 148.416C296.742 124.98 280.757 101.543 254.058 90ZM120.402 293.872C122.348 293.392 124.273 307.476 121.481 310.05C119.048 312.295 109.651 312.814 107.843 311.043C106.023 309.259 116.737 294.775 120.402 293.872ZM216.298 201.149C221.098 199.392 226.616 206.261 227.665 211.293C228.877 217.107 222.964 224.336 220.815 226.727C219.273 228.442 208.826 243.876 189.467 234.346C184.278 231.792 204.259 205.559 216.298 201.149Z" fill="#0E823E"/>
<path d="M191.7 105.545C200.503 109.387 222.896 123.218 229.136 140.741C214.824 150.088 199.24 163.386 184.677 177.455C187.904 152.955 190.477 119.712 191.7 105.545Z" fill="#0E823E"/>
</svg>
