<svg width="467" height="469" viewBox="0 0 467 469" fill="none" xmlns="http://www.w3.org/2000/svg">
    <path
        d="M433.717 118.904V350.095L233.5 465.689L33.2832 350.095V118.904L233.5 3.30957L433.717 118.904Z"
        fill="url(#paint0_linear_173_488)" stroke="#A1DDBA" stroke-width="4" />
    <path d="M422.456 344.317L234.341 453.637L45 344.319L233.112 235L422.456 344.317Z"
        fill="#171717" />
    <path
        d="M155.944 359.836L156.336 366.108C151.072 366.668 144.408 366.668 138.416 366.668C133.264 366.668 129.96 363.644 129.904 358.884V335.476C129.96 330.716 133.264 327.692 138.416 327.692C144.408 327.692 151.072 327.692 156.336 328.252L155.944 334.58H141.104C139.256 334.58 138.472 335.42 138.472 337.436V343.316H153.872V349.476H138.472V356.924C138.472 358.996 139.256 359.836 141.104 359.836H155.944ZM162.506 366.5V327.86C166.93 327.58 171.634 327.356 177.514 327.356C189.666 327.356 193.978 331.892 193.978 347.18C193.978 362.468 189.666 367.004 177.514 367.004C171.69 367.004 166.93 366.78 162.506 366.5ZM171.018 334.076V360.228C172.978 360.228 175.162 360.284 177.514 360.284C183.282 360.284 185.018 357.316 185.018 347.18C185.018 337.044 183.282 334.02 177.514 334.02L171.018 334.076ZM209.08 366.5H200.568V327.86H209.08V366.5ZM245.648 334.804H234.112V366.5H225.544V334.804H214.008V327.86H245.648V334.804ZM259.065 366.5H250.553V327.86H259.065V366.5ZM282.136 327.132C294.344 327.132 298.712 331.668 298.712 347.18C298.712 362.692 294.344 367.228 282.136 367.228C269.928 367.228 265.616 362.692 265.616 347.18C265.616 331.668 269.928 327.132 282.136 327.132ZM282.136 334.02C276.312 334.02 274.576 336.932 274.576 347.18C274.576 357.428 276.312 360.34 282.136 360.34C287.96 360.34 289.696 357.428 289.696 347.18C289.696 336.932 287.96 334.02 282.136 334.02ZM337.778 327.86V363.42C337.778 365.436 336.77 366.5 334.754 366.5H329.434C327.642 366.5 326.858 365.66 326.018 363.98L315.882 343.372C315.098 341.692 313.978 339.284 313.53 337.38H312.914C313.194 339.396 313.306 341.524 313.306 343.54V366.5H305.186V330.94C305.186 328.924 306.25 327.86 308.266 327.86H313.474C315.266 327.86 316.05 328.7 316.89 330.38L326.69 350.372C327.53 352.052 328.594 354.404 329.49 356.588H330.05C329.882 354.404 329.714 352.276 329.714 350.092V327.86H337.778Z"
        fill="white" />
    <path
        d="M120.688 113.82C133.768 113.82 138.448 118.68 138.448 135.3C138.448 151.92 133.768 156.78 120.688 156.78C107.608 156.78 102.988 151.92 102.988 135.3C102.988 118.68 107.608 113.82 120.688 113.82ZM120.688 121.2C114.448 121.2 112.588 124.32 112.588 135.3C112.588 146.28 114.448 149.4 120.688 149.4C126.928 149.4 128.788 146.28 128.788 135.3C128.788 124.32 126.928 121.2 120.688 121.2ZM145.384 156V114.6C150.364 114.12 153.664 114.06 161.104 114.06C172.564 114.06 176.224 117 176.224 127.56C176.224 138.24 172.564 141.12 162.304 141.12C159.604 141.12 156.904 140.94 154.504 140.64V156H145.384ZM154.504 134.1H160.924C165.604 134.04 167.044 132.72 167.044 127.56C167.044 122.4 165.604 121.08 160.924 121.08L154.504 121.14V134.1ZM209.779 148.86L210.199 155.58C204.559 156.18 197.419 156.18 190.999 156.18C185.479 156.18 181.939 152.94 181.879 147.84V122.76C181.939 117.66 185.479 114.42 190.999 114.42C197.419 114.42 204.559 114.42 210.199 115.02L209.779 121.8H193.879C191.899 121.8 191.059 122.7 191.059 124.86V131.16H207.559V137.76H191.059V145.74C191.059 147.96 191.899 148.86 193.879 148.86H209.779ZM251.729 114.6V152.7C251.729 154.86 250.649 156 248.489 156H242.789C240.869 156 240.029 155.1 239.129 153.3L228.269 131.22C227.429 129.42 226.229 126.84 225.749 124.8H225.089C225.389 126.96 225.509 129.24 225.509 131.4V156H216.809V117.9C216.809 115.74 217.949 114.6 220.109 114.6H225.689C227.609 114.6 228.449 115.5 229.349 117.3L239.849 138.72C240.749 140.52 241.889 143.04 242.849 145.38H243.449C243.269 143.04 243.089 140.76 243.089 138.42V114.6H251.729ZM293.65 114.6L282.43 153.48C282.07 154.98 280.81 156 279.19 156H270.85C269.23 156 267.97 154.98 267.61 153.48L256.33 114.6H265.75L273.25 144.48C273.61 145.98 273.97 147.6 274.27 149.1H275.77C276.01 147.6 276.43 145.98 276.79 144.48L284.23 114.6H293.65ZM318.527 145.14H304.307L301.307 156H291.947L303.887 117C304.247 115.5 305.567 114.6 307.067 114.6H315.707C317.267 114.6 318.527 115.5 318.887 117L330.827 156H321.527L318.527 145.14ZM316.547 138.06L313.067 125.4C312.767 124.14 312.407 122.76 312.227 121.5H310.607C310.307 122.76 310.007 124.14 309.707 125.4L306.227 138.06H316.547ZM350.41 140.34L342.07 137.4C335.77 135.12 333.49 131.4 333.49 125.28C333.49 115.8 337.87 113.82 348.55 113.82C352.63 113.82 357.55 114.12 362.17 115.44L361.57 121.68C358.09 121.56 352.99 121.5 348.61 121.5C344.17 121.5 342.61 121.74 342.61 125.28C342.61 128.16 343.81 128.94 346.93 129.96L354.79 132.66C361.39 135 363.55 138.78 363.55 144.84C363.55 154.26 359.47 156.78 348.19 156.78C345.55 156.78 340.33 156.6 333.97 155.22L334.51 148.62C342.19 148.8 345.55 148.92 348.19 148.92C352.99 148.92 354.31 148.26 354.31 144.9C354.31 141.96 353.17 141.24 350.41 140.34Z"
        fill="#171717" />
    <path
        d="M115.512 209.808L116.136 215.232C113.064 216.192 110.28 216.576 105.528 216.576C95.3036 216.576 91.6076 212.064 91.6076 199.44C91.6076 186.816 95.3036 182.304 105.528 182.304C110.184 182.304 112.44 182.64 115.464 183.408L114.84 188.88C111.72 188.688 109.704 188.64 105.528 188.64C100.728 188.64 99.2876 191.088 99.2876 199.44C99.2876 207.792 100.728 210.24 105.528 210.24C109.944 210.24 112.584 210.192 115.512 209.808ZM133.424 182.256C143.888 182.256 147.632 186.144 147.632 199.44C147.632 212.736 143.888 216.624 133.424 216.624C122.96 216.624 119.264 212.736 119.264 199.44C119.264 186.144 122.96 182.256 133.424 182.256ZM133.424 188.16C128.432 188.16 126.944 190.656 126.944 199.44C126.944 208.224 128.432 210.72 133.424 210.72C138.416 210.72 139.904 208.224 139.904 199.44C139.904 190.656 138.416 188.16 133.424 188.16ZM179.772 182.88H186.828C188.604 182.88 189.516 183.84 189.564 185.616L190.86 216H183.948L182.844 188.592H182.028L177.036 209.088C176.7 210.672 175.692 211.44 174.06 211.44H169.26C167.628 211.44 166.62 210.672 166.284 209.088L161.244 188.592H160.428L159.468 216H152.556L153.756 185.616C153.852 183.84 154.716 182.88 156.492 182.88H163.548C165.132 182.88 166.092 183.696 166.428 185.232L170.46 201.744C170.844 203.328 171.084 204.864 171.324 206.4H171.948C172.236 204.864 172.476 203.328 172.812 201.744L176.796 185.232C177.18 183.696 178.14 182.88 179.772 182.88ZM223.507 182.88H230.563C232.339 182.88 233.251 183.84 233.299 185.616L234.595 216H227.683L226.579 188.592H225.763L220.771 209.088C220.435 210.672 219.427 211.44 217.795 211.44H212.995C211.363 211.44 210.355 210.672 210.019 209.088L204.979 188.592H204.163L203.203 216H196.291L197.491 185.616C197.587 183.84 198.451 182.88 200.227 182.88H207.283C208.867 182.88 209.827 183.696 210.163 185.232L214.195 201.744C214.579 203.328 214.819 204.864 215.059 206.4H215.683C215.971 204.864 216.211 203.328 216.547 201.744L220.531 185.232C220.915 183.696 221.875 182.88 223.507 182.88ZM266.905 182.88V202.8C266.905 212.928 263.449 216.624 253.993 216.624C244.009 216.624 240.409 212.928 240.409 202.8V182.88H247.705V202.8C247.705 208.896 249.145 210.72 253.657 210.72C258.073 210.72 259.561 208.896 259.561 202.8V182.88H266.905ZM301.257 182.88V213.36C301.257 215.088 300.393 216 298.665 216H294.105C292.569 216 291.897 215.28 291.177 213.84L282.489 196.176C281.817 194.736 280.857 192.672 280.473 191.04H279.945C280.185 192.768 280.281 194.592 280.281 196.32V216H273.321V185.52C273.321 183.792 274.233 182.88 275.961 182.88H280.425C281.961 182.88 282.633 183.6 283.353 185.04L291.753 202.176C292.473 203.616 293.385 205.632 294.153 207.504H294.633C294.489 205.632 294.345 203.808 294.345 201.936V182.88H301.257ZM315.258 216H307.962V182.88H315.258V216ZM346.601 188.832H336.713V216H329.369V188.832H319.481V182.88H346.601V188.832ZM365.733 205.056V216H358.389V205.056L347.445 182.88H355.077L360.597 195.024C361.173 196.32 361.509 197.856 361.845 199.2H362.325C362.613 197.856 362.997 196.32 363.525 195.024L369.045 182.88H376.581L365.733 205.056Z"
        fill="#171717" />
    <defs>
        <linearGradient id="paint0_linear_173_488" x1="233.5" y1="1" x2="233.5" y2="468"
            gradientUnits="userSpaceOnUse">
            <stop stop-color="#D8F1E2" />
            <stop offset="1" stop-color="#7ACF9E" />
        </linearGradient>
    </defs>
</svg>