<svg xmlns="http://www.w3.org/2000/svg" xmlns:xlink="http://www.w3.org/1999/xlink" width="406" height="467" viewBox="0 0 406 467">
  <defs>
    <clipPath id="clip-Label_Community_Edition_">
      <rect width="406" height="467"/>
    </clipPath>
  </defs>
  <g id="Label_Community_Edition_" data-name="Label_Community_Edition " clip-path="url(#clip-Label_Community_Edition_)">
    <path id="Path_12980" data-name="Path 12980" d="M-320.51-324.712v233.5l202.217,116.75L83.923-91.212v-233.5l-202.217-116.75Z" transform="translate(320.51 441.462)" fill="#11ab51"/>
    <g id="Group_12901" data-name="Group 12901" transform="translate(13.753 234.667)">
      <path id="Path_12981" data-name="Path 12981" d="M66.886-153.663-120.963-44.5-310.041-153.661l187.849-109.166Z" transform="translate(310.041 262.827)" fill="#171717"/>
    </g>
    <g id="Group_12911" data-name="Group 12911" transform="translate(56.08 113.942)">
      <g id="Group_12902" data-name="Group 12902" transform="translate(0 0)">
        <path id="Path_12982" data-name="Path 12982" d="M-245.711-313.309h-6.6l-.822-4.063a16.4,16.4,0,0,1-11.726,4.83c-9.127,0-12.961-6.306-12.961-21.212,0-16.086,4.83-20.973,18.2-20.973a45.462,45.462,0,0,1,12.488,1.416l-.707,6.6c-4-.179-7.952-.3-11.491-.3-6.775,0-9.013,1.77-9.013,13.549,0,10.135,1.59,13.256,6.655,13.256a15.016,15.016,0,0,0,7.308-2.06V-336.75h8.66Z" transform="translate(277.82 354.726)" fill="#171717"/>
      </g>
      <g id="Group_12903" data-name="Group 12903" transform="translate(38.81 11.57)">
        <path id="Path_12983" data-name="Path 12983" d="M-228.292-337.857h-2.358c-2.472,0-5.005.7-8.894,2v19.787h-8.733v-29.035h6.775l.768,4.242c3.883-3.3,8.011-5.055,11.78-5.055h1.53Z" transform="translate(248.277 345.919)" fill="#171717"/>
      </g>
      <g id="Group_12904" data-name="Group 12904" transform="translate(62.214 11.56)">
        <path id="Path_12984" data-name="Path 12984" d="M-221.214-327.666c.529,4.357,2.474,5.36,6.9,5.36,2.651,0,6.894-.235,10.842-.648l.822,5.423c-3.414,1.646-8.539,2.179-12.666,2.179-11.031,0-15.14-4.477-15.14-15.2,0-11.491,4.242-15.374,14.791-15.374,9.9,0,13.724,3.475,13.788,10.111,0,5.3-2.533,8.13-8.838,8.13Zm8.071-5.244c2.354,0,2.707-1.356,2.707-3.006,0-2.707-1.177-3.649-4.946-3.649-4.361,0-5.772,1.177-6.011,6.655Z" transform="translate(230.461 345.926)" fill="#171717"/>
      </g>
      <g id="Group_12905" data-name="Group 12905" transform="translate(95.202 11.56)">
        <path id="Path_12985" data-name="Path 12985" d="M-196.1-327.666c.533,4.357,2.478,5.36,6.894,5.36,2.652,0,6.894-.235,10.838-.648l.828,5.423c-3.416,1.646-8.544,2.179-12.668,2.179-11.031,0-15.139-4.477-15.139-15.2,0-11.491,4.242-15.374,14.785-15.374,9.9,0,13.729,3.475,13.788,10.111,0,5.3-2.537,8.13-8.838,8.13Zm8.071-5.244c2.358,0,2.711-1.356,2.711-3.006,0-2.707-1.177-3.649-4.95-3.649-4.357,0-5.772,1.177-6.007,6.655Z" transform="translate(205.35 345.926)" fill="#171717"/>
      </g>
      <g id="Group_12906" data-name="Group 12906" transform="translate(129.415 11.542)">
        <path id="Path_12986" data-name="Path 12986" d="M-171.57-340.8c4.058-3.305,8.3-5.143,12.409-5.143,5.3,0,8.126,2.827,8.126,8.071v21.8h-8.64v-19.08c0-2.651-.708-3.414-2.827-3.414-2.358,0-4.656.942-8.071,2.647v19.847h-8.733V-345.1h7.069Z" transform="translate(179.306 345.94)" fill="#171717"/>
      </g>
      <g id="Group_12907" data-name="Group 12907" transform="translate(164.599 0.189)">
        <path id="Path_12987" data-name="Path 12987" d="M-143.744-345.335a25.655,25.655,0,0,1-.767,6.835,14.759,14.759,0,0,1,10.308-4.711c7.483,0,10.663,4.3,10.663,15.08,0,8.894-2.592,15.495-14.2,15.495-4.137,0-11.192-.708-14.787-2.238v-39.707h8.779Zm-.06,25.689a26.492,26.492,0,0,0,5.893.528c3.944-.12,5.419-2.064,5.419-8.953,0-6.307-.883-8.191-5.185-8.191-2.3,0-4.008,1.061-6.127,2.472Z" transform="translate(152.523 354.582)" fill="#171717"/>
      </g>
      <g id="Group_12908" data-name="Group 12908" transform="translate(198.353 11.542)">
        <path id="Path_12988" data-name="Path 12988" d="M-96.956-330.548c0,11.132-4.068,15.26-14.906,15.26s-14.965-4.137-14.965-15.26,4.063-15.392,14.965-15.392S-96.956-341.739-96.956-330.548Zm-20.739,0c0,6.949,1.236,8.733,5.833,8.733,4.477,0,5.774-1.77,5.774-8.733,0-7.069-1.3-8.838-5.774-8.838-4.6,0-5.846,1.77-5.846,8.838Z" transform="translate(126.828 345.94)" fill="#171717"/>
      </g>
      <g id="Group_12909" data-name="Group 12909" transform="translate(234.159 11.542)">
        <path id="Path_12989" data-name="Path 12989" d="M-91.842-340.8c4.068-3.305,8.329-5.143,12.434-5.143,5.3,0,8.125,2.827,8.125,8.071v21.8h-8.658v-19.08c0-2.651-.708-3.414-2.827-3.414-2.358,0-4.656.942-8.071,2.647v19.847h-8.732V-345.1H-92.5Z" transform="translate(99.572 345.94)" fill="#171717"/>
      </g>
      <g id="Group_12910" data-name="Group 12910" transform="translate(268.197 11.56)">
        <path id="Path_12990" data-name="Path 12990" d="M-64.385-327.666c.528,4.357,2.472,5.36,6.894,5.36,2.647,0,6.894-.235,10.838-.648l.822,5.423c-3.414,1.646-8.539,2.179-12.662,2.179-11.031,0-15.168-4.477-15.168-15.2,0-11.491,4.243-15.374,14.791-15.374,9.9,0,13.725,3.475,13.79,10.111,0,5.3-2.533,8.13-8.838,8.13Zm8.071-5.244c2.353,0,2.706-1.356,2.706-3.006,0-2.707-1.176-3.649-4.945-3.649-4.363,0-5.774,1.177-6.013,6.655Z" transform="translate(73.661 345.926)" fill="#171717"/>
      </g>
    </g>
    <g id="Group_12975" data-name="Group 12975" transform="translate(78.819 173.589)">
      <g id="Group_12962" data-name="Group 12962" transform="translate(0 0.046)">
        <path id="Path_13162" data-name="Path 13162" d="M87.365,168.51a31.181,31.181,0,0,1-10.06,1.235c-9.824,0-13.334-4.461-13.334-16.942s3.51-16.944,13.334-16.944a32.145,32.145,0,0,1,9.4,1.043l-.57,4.51c-2.941-.237-4.887-.332-8.827-.332-5.409,0-7.07,2.753-7.07,11.723s1.661,11.721,7.07,11.721a67.219,67.219,0,0,0,9.54-.475Z" transform="translate(-63.97 -135.859)" fill="#171717"/>
      </g>
      <g id="Group_12963" data-name="Group 12963" transform="translate(27.113 9.445)">
        <path id="Path_13163" data-name="Path 13163" d="M105.78,154.68c0,8.922-3.084,12.244-11.436,12.244-8.4,0-11.533-3.321-11.533-12.244s3.131-12.29,11.533-12.29C102.7,142.39,105.78,145.757,105.78,154.68Zm-16.944,0c0,5.979,1.235,7.641,5.507,7.641,4.175,0,5.455-1.662,5.455-7.641,0-6.027-1.281-7.687-5.455-7.687C90.071,146.992,88.836,148.653,88.836,154.68Z" transform="translate(-82.811 -142.39)" fill="#171717"/>
      </g>
      <g id="Group_12964" data-name="Group 12964" transform="translate(55.505 9.445)">
        <path id="Path_13164" data-name="Path 13164" d="M107.571,146.47c3.038-2.658,5.886-4.08,9.112-4.08,3.133,0,5.126,1.327,5.932,3.891,2.943-2.61,5.742-3.891,8.827-3.891,4.13,0,6.313,2.275,6.313,6.453v17.464h-5.648V150.6c-.047-2.372-.712-3.323-2.9-3.323-1.946,0-3.226.76-6.264,2.8v16.23h-5.553V150.6c.049-2.515-.9-3.323-2.894-3.323-1.851,0-3.131.665-6.217,2.753v16.279H102.54V143.052h4.7Z" transform="translate(-102.54 -142.39)" fill="#171717"/>
      </g>
      <g id="Group_12965" data-name="Group 12965" transform="translate(97.053 9.445)">
        <path id="Path_13165" data-name="Path 13165" d="M136.443,146.47c3.038-2.658,5.886-4.08,9.112-4.08,3.131,0,5.126,1.327,5.932,3.891,2.941-2.61,5.742-3.891,8.827-3.891,4.129,0,6.312,2.275,6.312,6.453v17.464h-5.647V150.6c-.049-2.372-.714-3.323-2.9-3.323-1.946,0-3.226.76-6.263,2.8v16.23h-5.553V150.6c.047-2.515-.9-3.323-2.894-3.323-1.852,0-3.133.665-6.218,2.753v16.279h-5.742V143.052h4.7Z" transform="translate(-131.412 -142.39)" fill="#171717"/>
      </g>
      <g id="Group_12966" data-name="Group 12966" transform="translate(138.459 10.107)">
        <path id="Path_13166" data-name="Path 13166" d="M181.349,166.105h-4.556l-.426-3.133c-3.321,2.517-6.407,3.749-9.728,3.749-4.224,0-6.454-2.183-6.454-6.453V142.85h5.789v15.71c-.046,2.467.665,3.272,2.848,3.272,1.993,0,3.939-.9,6.785-2.562V142.85h5.742Z" transform="translate(-160.185 -142.85)" fill="#171717"/>
      </g>
      <g id="Group_12967" data-name="Group 12967" transform="translate(166.092 9.445)">
        <path id="Path_13167" data-name="Path 13167" d="M184.608,146.47c3.321-2.515,6.692-4.08,10.06-4.08,4.129,0,6.407,2.275,6.407,6.453v17.464h-5.788V150.6c0-2.609-.619-3.323-2.469-3.323-2.324,0-4.46,1.045-7.64,2.848v16.184h-5.791V143.052h4.842Z" transform="translate(-179.387 -142.39)" fill="#171717"/>
      </g>
      <g id="Group_12968" data-name="Group 12968" transform="translate(194.157 0)">
        <path id="Path_13168" data-name="Path 13168" d="M203.208,135.827a1.48,1.48,0,0,1,1.661,1.659v2.61a1.463,1.463,0,0,1-1.661,1.662h-2.656a1.482,1.482,0,0,1-1.662-1.662v-2.61a1.5,1.5,0,0,1,1.662-1.659Zm-4.176,33.362V145.934h5.742v23.255Z" transform="translate(-198.889 -135.827)" fill="#171717"/>
      </g>
      <g id="Group_12969" data-name="Group 12969" transform="translate(204.509 3.416)">
        <path id="Path_13169" data-name="Path 13169" d="M216,160.885c0,2.041.711,2.705,2.8,2.705h3.18l.616,4.273a24.781,24.781,0,0,1-5.979.8c-4.081,0-6.312-2.467-6.312-6.785V149.069h-4.224v-3.94l4.176-.237V138.2H216v6.69h6.833v4.178H216Z" transform="translate(-206.083 -138.201)" fill="#171717"/>
      </g>
      <g id="Group_12970" data-name="Group 12970" transform="translate(223.029 10.107)">
        <path id="Path_13170" data-name="Path 13170" d="M235.038,166.816c-1.518,4.32-4.886,9.3-11.721,8.922l-.473-3.654c3.747-1.043,5.693-2.753,6.833-5.458l.239-.521h-1.141a1.9,1.9,0,0,1-1.946-1.425l-7.876-21.831h6.12l5.08,15.994a24.777,24.777,0,0,1,.757,3.085h.665c.332-1.045.665-2.183.95-3.085l4.983-15.994h6.169Z" transform="translate(-218.952 -142.85)" fill="#171717"/>
      </g>
    </g>
    <path id="Path_13556" data-name="Path 13556" d="M-82.35-6.06h-16.2c-2.16,0-3-.9-3-3.48v-9.24h16.98v-5.76h-16.98V-31.8c0-2.58.84-3.48,3-3.48h16.2l.36-5.76c-5.46-.48-12.18-.48-18.24-.48-5.4,0-8.82,3-8.88,7.86V-7.74c.06,4.86,3.42,7.86,8.88,7.86,6.06,0,12.78,0,18.24-.48ZM-74.67,0c4.56.3,9.48.54,15.48.54C-46.77.54-42.27-4.5-42.27-20.7s-4.5-21.24-16.92-21.24c-6.06,0-10.92.24-15.48.54Zm7.5-35.64c2.4,0,4.92-.06,7.98-.06,6.84,0,9,3.6,9,15s-2.16,14.94-9,14.94c-2.94,0-5.64-.06-7.98-.12ZM-26.91,0V-41.4h-7.5V0ZM11.97-34.98V-41.4h-33v6.42H-8.37V0H-.81V-34.98ZM25.35,0V-41.4h-7.5V0ZM50.19-42.18c-12.6,0-17.04,5.04-17.04,21.48S37.59.78,50.19.78c12.66,0,17.1-5.04,17.1-21.48S62.85-42.18,50.19-42.18Zm0,6.42c7.02,0,9.18,3.54,9.18,15.06S57.21-5.64,50.19-5.64c-6.96,0-9.12-3.54-9.12-15.06S43.23-35.76,50.19-35.76Zm58.56-5.64h-7.32v26.76c0,2.22.12,4.44.3,6.72h-.72c-.9-2.22-2.1-4.74-2.88-6.54L86.85-39.12c-.72-1.56-1.5-2.28-3.12-2.28H77.91a2.516,2.516,0,0,0-2.82,2.76V0h7.38V-27.6a44.039,44.039,0,0,0-.36-6.24h.72a34.922,34.922,0,0,0,2.46,6.18L96.93-2.28C97.59-.72,98.43,0,100.05,0h5.94a2.472,2.472,0,0,0,2.76-2.76Z" transform="translate(203 364)" fill="#fff"/>
  </g>
</svg>
