<svg width="467" height="469" viewBox="0 0 467 469" fill="none" xmlns="http://www.w3.org/2000/svg">
<path d="M233.5 1L435.717 117.75V351.25L233.5 468L31.2831 351.25V117.75L233.5 1Z" fill="url(#paint0_linear_123_206)"/>
<path d="M422.456 344.317L234.341 453.637L45 344.319L233.112 235L422.456 344.317Z" fill="#171717"/>
<path d="M165.959 355.414L155.951 351.886C148.391 349.15 145.655 344.686 145.655 337.342C145.655 325.966 150.911 323.59 163.727 323.59C168.623 323.59 174.527 323.95 180.071 325.534L179.351 333.022C175.175 332.878 169.055 332.806 163.799 332.806C158.471 332.806 156.599 333.094 156.599 337.342C156.599 340.798 158.039 341.734 161.783 342.958L171.215 346.198C179.135 349.006 181.727 353.542 181.727 360.814C181.727 372.118 176.831 375.142 163.295 375.142C160.127 375.142 153.863 374.926 146.231 373.27L146.879 365.35C156.095 365.566 160.127 365.71 163.295 365.71C169.055 365.71 170.639 364.918 170.639 360.886C170.639 357.358 169.271 356.494 165.959 355.414ZM223.705 364.918L224.641 373.054C220.033 374.494 215.857 375.07 208.729 375.07C193.393 375.07 187.849 368.302 187.849 349.366C187.849 330.43 193.393 323.662 208.729 323.662C215.713 323.662 219.097 324.166 223.633 325.318L222.697 333.526C218.017 333.238 214.993 333.166 208.729 333.166C201.529 333.166 199.369 336.838 199.369 349.366C199.369 361.894 201.529 365.566 208.729 365.566C215.353 365.566 219.313 365.494 223.705 364.918ZM258.62 361.174H241.556L237.956 374.206H226.724L241.052 327.406C241.484 325.606 243.068 324.526 244.868 324.526H255.236C257.108 324.526 258.62 325.606 259.052 327.406L273.38 374.206H262.22L258.62 361.174ZM256.244 352.678L252.068 337.486C251.708 335.974 251.276 334.318 251.06 332.806H249.116C248.756 334.318 248.396 335.974 248.036 337.486L243.86 352.678H256.244ZM320.424 324.526V370.246C320.424 372.838 319.128 374.206 316.536 374.206H309.696C307.392 374.206 306.384 373.126 305.304 370.966L292.272 344.47C291.264 342.31 289.824 339.214 289.248 336.766H288.456C288.816 339.358 288.96 342.094 288.96 344.686V374.206H278.52V328.486C278.52 325.894 279.888 324.526 282.48 324.526H289.176C291.48 324.526 292.488 325.606 293.568 327.766L306.168 353.47C307.248 355.63 308.616 358.654 309.768 361.462H310.488C310.272 358.654 310.056 355.918 310.056 353.11V324.526H320.424Z" fill="white"/>
<path d="M105.713 144.196C120.537 144.196 125.841 149.704 125.841 168.54C125.841 187.376 120.537 192.884 105.713 192.884C90.889 192.884 85.653 187.376 85.653 168.54C85.653 149.704 90.889 144.196 105.713 144.196ZM105.713 152.56C98.641 152.56 96.533 156.096 96.533 168.54C96.533 180.984 98.641 184.52 105.713 184.52C112.785 184.52 114.893 180.984 114.893 168.54C114.893 156.096 112.785 152.56 105.713 152.56ZM133.701 192V145.08C139.345 144.536 143.085 144.468 151.517 144.468C164.505 144.468 168.653 147.8 168.653 159.768C168.653 171.872 164.505 175.136 152.877 175.136C149.817 175.136 146.757 174.932 144.037 174.592V192H133.701ZM144.037 167.18H151.313C156.617 167.112 158.249 165.616 158.249 159.768C158.249 153.92 156.617 152.424 151.313 152.424L144.037 152.492V167.18ZM206.683 183.908L207.159 191.524C200.767 192.204 192.675 192.204 185.399 192.204C179.143 192.204 175.131 188.532 175.063 182.752V154.328C175.131 148.548 179.143 144.876 185.399 144.876C192.675 144.876 200.767 144.876 207.159 145.556L206.683 153.24H188.663C186.419 153.24 185.467 154.26 185.467 156.708V163.848H204.167V171.328H185.467V180.372C185.467 182.888 186.419 183.908 188.663 183.908H206.683ZM254.227 145.08V188.26C254.227 190.708 253.003 192 250.555 192H244.095C241.919 192 240.967 190.98 239.947 188.94L227.639 163.916C226.687 161.876 225.327 158.952 224.783 156.64H224.035C224.375 159.088 224.511 161.672 224.511 164.12V192H214.651V148.82C214.651 146.372 215.943 145.08 218.391 145.08H224.715C226.891 145.08 227.843 146.1 228.863 148.14L240.763 172.416C241.783 174.456 243.075 177.312 244.163 179.964H244.843C244.639 177.312 244.435 174.728 244.435 172.076V145.08H254.227ZM301.737 145.08L289.021 189.144C288.613 190.844 287.185 192 285.349 192H275.897C274.061 192 272.633 190.844 272.225 189.144L259.441 145.08H270.117L278.617 178.944C279.025 180.644 279.433 182.48 279.773 184.18H281.473C281.745 182.48 282.221 180.644 282.629 178.944L291.061 145.08H301.737ZM329.93 179.692H313.814L310.414 192H299.806L313.338 147.8C313.746 146.1 315.242 145.08 316.942 145.08H326.734C328.502 145.08 329.93 146.1 330.338 147.8L343.87 192H333.33L329.93 179.692ZM327.686 171.668L323.742 157.32C323.402 155.892 322.994 154.328 322.79 152.9H320.954C320.614 154.328 320.274 155.892 319.934 157.32L315.99 171.668H327.686ZM366.065 174.252L356.613 170.92C349.473 168.336 346.889 164.12 346.889 157.184C346.889 146.44 351.853 144.196 363.957 144.196C368.581 144.196 374.157 144.536 379.393 146.032L378.713 153.104C374.769 152.968 368.989 152.9 364.025 152.9C358.993 152.9 357.225 153.172 357.225 157.184C357.225 160.448 358.585 161.332 362.121 162.488L371.029 165.548C378.509 168.2 380.957 172.484 380.957 179.352C380.957 190.028 376.333 192.884 363.549 192.884C360.557 192.884 354.641 192.68 347.433 191.116L348.045 183.636C356.749 183.84 360.557 183.976 363.549 183.976C368.989 183.976 370.485 183.228 370.485 179.42C370.485 176.088 369.193 175.272 366.065 174.252Z" fill="white"/>
<defs>
<linearGradient id="paint0_linear_123_206" x1="233.5" y1="0.830193" x2="233.5" y2="468" gradientUnits="userSpaceOnUse">
<stop offset="0.25" stop-color="#0A602E"/>
<stop offset="0.75" stop-color="#11AB51"/>
</linearGradient>
</defs>
</svg>
