<?xml version="1.0" encoding="UTF-8"?>
<svg width="52.509" height="52.52" version="1.0" viewBox="0 0 52.509 52.52" xmlns="http://www.w3.org/2000/svg" xmlns:xlink="http://www.w3.org/1999/xlink">
 <defs>
  <linearGradient id="linearGradient13966" x1="26.48" x2="26.48" y1="1.3939" y2="52.843" gradientUnits="userSpaceOnUse">
   <stop stop-color="#fff" offset="0"/>
   <stop stop-color="#fff" stop-opacity="0" offset="1"/>
  </linearGradient>
  <linearGradient id="linearGradient45717" x1="26.48" x2="26.48" y1="1.3939" y2="52.843" gradientTransform="translate(3.8646 6.0875)" gradientUnits="userSpaceOnUse">
   <stop stop-color="#fff" offset="0"/>
   <stop stop-color="#fff" stop-opacity="0" offset="1"/>
  </linearGradient>
  <linearGradient id="linearGradient45721" x1="46.592" x2="43.592" y1="89.585" y2="-74.733" gradientTransform="translate(.045477 -.068185)" gradientUnits="userSpaceOnUse">
   <stop stop-color="#f48da1" offset="0"/>
   <stop stop-color="#fff" offset="1"/>
  </linearGradient>
  <style type="text/css">.str1 {stroke:#373435;stroke-width:0.19326}
    .str0 {stroke:#373435;stroke-width:0.19326;stroke-linejoin:bevel}
    .fil1 {fill:none}
    .fil7 {fill:#00AFEF}
    .fil6 {fill:#ED3237}
    .fil5 {fill:#F58634}
    .fil8 {fill:#FFF212}
    .fil2 {fill:#000203}
    .fil3 {fill:#030101}
    .fil4 {fill:#030201}
    .fil0 {fill:#030300}</style>
  <style type="text/css"/>
 </defs>
 <g transform="translate(-3.8191 -6.1557)">
  <rect x="4.9538" y="7.1514" width="50.731" height="50.549" rx="7.0914" ry="7.0914" color="#000000" fill="url(#linearGradient45721)" fill-rule="evenodd" stroke="#2b2b2b" stroke-width=".997"/>
  <path d="m6.0464 51.517-0.18182-37.636s1.0909-5.6364 5.4545-5.8182c4.3636-0.18182 37.455 0 37.455 0s5.8182 0 6 7.2727c0.18182 7.2727-0.18182 36.727-0.18182 36.727" color="#000000" fill="none" stroke="url(#linearGradient45717)"/>
  <g transform="translate(-840.83 182.27)" fill="#71c000" stroke="#71c000" stroke-linejoin="bevel" stroke-width="3.379"></g>
  <g transform="translate(-1426.6 -26.29)" fill="#71c000" stroke="#71c000" stroke-linejoin="bevel" stroke-width="3.379"></g>
  <path transform="translate(3.8191 6.1557)" d="m2.1818 45.429-0.18182-37.636s1.0909-5.6364 5.4545-5.8182c4.3636-0.18182 37.455 0 37.455 0s5.8182 0 6 7.2727c0.18182 7.2727-0.18182 36.727-0.18182 36.727" color="#000000" fill="none" stroke="url(#linearGradient13966)"/>
  <g transform="translate(-754.29 187.45)" fill="#71c000" stroke="#71c000" stroke-linejoin="bevel" stroke-width="3.379"></g>
  <g transform="translate(-1340.1 -21.108)" fill="#71c000" stroke="#71c000" stroke-linejoin="bevel" stroke-width="3.379"></g>
  <g transform="translate(-727.65 184.91)" fill="#71c000" stroke="#71c000" stroke-linejoin="bevel" stroke-width="3.379"></g>
  <g transform="translate(-1313.4 -23.649)" fill="#71c000" stroke="#71c000" stroke-linejoin="bevel" stroke-width="3.379"></g>
  <g transform="translate(-790.62 185.07)" fill="#71c000" stroke="#71c000" stroke-linejoin="bevel" stroke-width="3.379"></g>
  <g transform="translate(-1376.4 -23.49)" fill="#71c000" stroke="#71c000" stroke-linejoin="bevel" stroke-width="3.379"></g>
  <g transform="translate(-787.81 182.24)" fill="#71c000" stroke="#71c000" stroke-linejoin="bevel" stroke-width="3.379"></g>
  <g transform="translate(-1373.6 -26.319)" fill="#71c000" stroke="#71c000" stroke-linejoin="bevel" stroke-width="3.379"></g>
  <g transform="translate(-701.26 187.42)" fill="#71c000" stroke="#71c000" stroke-linejoin="bevel" stroke-width="3.379"></g>
  <g transform="translate(-1287 -21.137)" fill="#71c000" stroke="#71c000" stroke-linejoin="bevel" stroke-width="3.379"></g>
  <g transform="translate(-674.63 184.88)" fill="#71c000" stroke="#71c000" stroke-linejoin="bevel" stroke-width="3.379"></g>
  <g transform="translate(-1260.4 -23.678)" fill="#71c000" stroke="#71c000" stroke-linejoin="bevel" stroke-width="3.379"></g>
  <g transform="translate(-737.6 185.04)" fill="#71c000" stroke="#71c000" stroke-linejoin="bevel" stroke-width="3.379"></g>
  <g transform="translate(-1323.4 -23.52)" fill="#71c000" stroke="#71c000" stroke-linejoin="bevel" stroke-width="3.379"></g>
  <g transform="translate(-786.75 181.68)" fill="#71c000" stroke="#71c000" stroke-linejoin="bevel" stroke-width="3.379"></g>
  <g transform="translate(-1372.5 -26.881)" fill="#71c000" stroke="#71c000" stroke-linejoin="bevel" stroke-width="3.379"></g>
  <g transform="translate(-700.2 186.86)" fill="#71c000" stroke="#71c000" stroke-linejoin="bevel" stroke-width="3.379"></g>
  <g transform="translate(-1286 -21.699)" fill="#71c000" stroke="#71c000" stroke-linejoin="bevel" stroke-width="3.379"></g>
  <g transform="translate(-673.57 184.32)" fill="#71c000" stroke="#71c000" stroke-linejoin="bevel" stroke-width="3.379"></g>
  <g transform="translate(-1259.3 -24.24)" fill="#71c000" stroke="#71c000" stroke-linejoin="bevel" stroke-width="3.379"></g>
  <g transform="translate(-736.54 184.48)" fill="#71c000" stroke="#71c000" stroke-linejoin="bevel" stroke-width="3.379"></g>
  <g transform="translate(-1322.3 -24.081)" fill="#71c000" stroke="#71c000" stroke-linejoin="bevel" stroke-width="3.379"></g>
  <g transform="translate(-787.78 183.3)" fill="#71c000" stroke="#71c000" stroke-linejoin="bevel" stroke-width="3.379"></g>
  <g transform="translate(-1373.6 -25.263)" fill="#71c000" stroke="#71c000" stroke-linejoin="bevel" stroke-width="3.379"></g>
  <g transform="translate(-701.23 188.48)" fill="#71c000" stroke="#71c000" stroke-linejoin="bevel" stroke-width="3.379"></g>
  <g transform="translate(-1287 -20.081)" fill="#71c000" stroke="#71c000" stroke-linejoin="bevel" stroke-width="3.379"></g>
  <g transform="translate(-674.59 185.94)" fill="#71c000" stroke="#71c000" stroke-linejoin="bevel" stroke-width="3.379"></g>
  <g transform="translate(-1260.4 -22.622)" fill="#71c000" stroke="#71c000" stroke-linejoin="bevel" stroke-width="3.379"></g>
  <g transform="translate(-737.57 186.1)" fill="#71c000" stroke="#71c000" stroke-linejoin="bevel" stroke-width="3.379"></g>
  <g transform="translate(-1323.3 -22.464)" fill="#71c000" stroke="#71c000" stroke-linejoin="bevel" stroke-width="3.379"></g>
  <g transform="translate(-784.91 184.78)" fill="#71c000" stroke="#71c000" stroke-linejoin="bevel" stroke-width="3.379"></g>
  <g transform="translate(-1370.7 -23.784)" fill="#71c000" stroke="#71c000" stroke-linejoin="bevel" stroke-width="3.379"></g>
  <g transform="translate(-698.37 189.96)" fill="#71c000" stroke="#71c000" stroke-linejoin="bevel" stroke-width="3.379"></g>
  <g transform="translate(-1284.1 -18.602)" fill="#71c000" stroke="#71c000" stroke-linejoin="bevel" stroke-width="3.379"></g>
  <g transform="translate(-671.73 187.42)" fill="#71c000" stroke="#71c000" stroke-linejoin="bevel" stroke-width="3.379"></g>
  <g transform="translate(-1257.5 -21.143)" fill="#71c000" stroke="#71c000" stroke-linejoin="bevel" stroke-width="3.379"></g>
  <g transform="translate(-734.71 187.58)" fill="#71c000" stroke="#71c000" stroke-linejoin="bevel" stroke-width="3.379"></g>
  <g transform="translate(-1320.5 -20.985)" fill="#71c000" stroke="#71c000" stroke-linejoin="bevel" stroke-width="3.379"></g>
  <g transform="translate(-718 181.35)" fill="#71c000" stroke="#71c000" stroke-linejoin="bevel" stroke-width="3.379"></g>
  <g transform="translate(-1303.8 -27.211)" fill="#71c000" stroke="#71c000" stroke-linejoin="bevel" stroke-width="3.379"></g>
  <g transform="translate(-631.46 186.53)" fill="#71c000" stroke="#71c000" stroke-linejoin="bevel" stroke-width="3.379"></g>
  <g transform="translate(-1217.2 -22.029)" fill="#71c000" stroke="#71c000" stroke-linejoin="bevel" stroke-width="3.379"></g>
  <g transform="translate(-604.82 183.99)" fill="#71c000" stroke="#71c000" stroke-linejoin="bevel" stroke-width="3.379"></g>
  <g transform="translate(-1190.6 -24.57)" fill="#71c000" stroke="#71c000" stroke-linejoin="bevel" stroke-width="3.379"></g>
  <g transform="translate(-667.79 184.15)" fill="#71c000" stroke="#71c000" stroke-linejoin="bevel" stroke-width="3.379"></g>
  <g transform="translate(-1253.6 -24.412)" fill="#71c000" stroke="#71c000" stroke-linejoin="bevel" stroke-width="3.379"></g>
  <g transform="matrix(.39698 0 0 .39698 -34.349 33.155)">
   <g stroke-miterlimit="10.433" stroke-width="0">
    <path d="m182.54 7.7041-0.22493 0.031489-0.23843 0.02915-0.24967 0.033828-0.2609 0.031489-0.26767 0.03365-0.27891 0.033828-0.2879 0.03365-0.29241 0.033828-0.60728 0.069639-0.62305 0.071976-0.63654 0.069817-0.64328 0.069637-0.6388 0.069637-0.63201 0.067477-0.61631 0.06298-0.3014 0.031489-0.29465 0.031489-0.2879 0.02915-0.27891 0.029332-0.26991 0.026988-0.26091 0.026993-0.24965 0.024649-0.23843 0.024832-0.22717 0.022493-0.21368 0.022493c-2.0108 0.20018-4.1814 0.3059-6.4486 0.42961-2.0131 0.12362-4.1116 0.017997-6.2462 0.044985-2.1278 0.00721-4.2983 0.00721-6.4598-0.24742-4.4018-0.53531-5.315-1.1516-6.5093-1.3001-2.4427-0.29915-4.2871-0.74675-6.3609-1.1944-1.6869-0.35988-3.4368-0.74675-4.4715-0.78272-0.11462-0.11462-0.48359-0.84347-0.55556-1.0009-1.1156-2.6451-1.0886-2.319-2.2313-6.1427-0.56231-1.8804-1.3001-5.7806-1.6869-8.293-0.3059-2.0311-0.71975-2.6181-0.8682-3.1017-0.5803-1.9411-0.37787-3.1017-0.48359-5.2182-0.0968-2.1098-0.20243-7.2673-0.0968-9.4019 0.15745-3.3649 0.36888-3.7967 0.84348-5.8525 0.48357-2.0558 1.5272-4.1903 2.4157-6.0977 0.77372-1.651 1.1673-3.1624 2.301-4.638 1.3023-1.6779 1.6262-2.4337 2.2762-3.05 0.054-0.05182 0.53532-0.17544 0.6163-0.18444 1.597-0.51731 3.0477-0.68376 3.8732-0.94692 0.20241-0.01799 1.0279 0.06964 1.2303 0.06964 0.35988 0 2.6541 0.08781 6.0797 0.16644 1.7836 0.04499 3.8844 0.21143 6.1584 0.25417 2.0491 0.05398 4.2443 0.07198 6.5026 0.11462 2.0738 0.02699 4.1994-0.06064 6.3181-0.04282 1.9501 0.02465 3.8912 0.18444 5.7806 0.19119 2.0468 9e-3 4.0239-0.06964 5.8593-0.08763 2.0828-0.0162 3.9992-0.10347 5.6681-0.15745 2.5304-0.08781 4.4985-0.07881 5.5444-0.29016 2.0018-0.39587 3.5043-0.61405 4.8224-0.61405 0.36213 0.09663 0.51059 0.22718 0.80973 0.35988 1.1246 0.51733 2.6788 1.6689 2.6788 1.6689 0 0.72876-0.26316 5.5354 0.0876 8.8733 0.19342 1.9074 0.53757 4.0779 0.82547 6.3001 0.27442 2.1008 0.41387 3.7697 0.713 5.8076 0.29915 2.0378 1.0279 4.9461 1.2731 6.5903 0.4656 2.978 0.5893 1.3698 1.0032 3.8575 0.54431 3.2142 0.23617 2.8813 0.59604 6.5813 0.20244 2.1075-0.14845 6.57-0.48357 8.7068-0.34188 2.1773-1.2551 3.8732-1.9681 4.1724-1.4665 0.63204-6.2281 1.3001-5.279 1.1516-2.4247 0.38686-2.2335 0.096809-3.682 0.38686-3.7877 0.75575-4.6042 0.58706-7.1774 0.82548-2.3999 0.23617-0.56232 0.43861-3.3671 0.81648-0.20919 0.026988-0.49933 0.22942-0.78048 0.26316z" fill="#273896"/>
    <path d="m142.87-43.651 0.0405-0.08547 0.0382-0.08097 0.0788-0.15745 0.0786-0.14611 0.0765-0.13496 0.0788-0.12596 0.0786-0.11462 0.0786-0.10796 0.081-0.09681 0.081-0.08997 0.081-0.08097 0.0855-0.07414 0.0855-0.06748 0.0855-0.05848 0.09-0.05398 0.0923-0.04949 0.0921-0.04048 0.0968-0.03833 0.10131-0.03365 0.1013-0.02699 0.10797-0.02465 0.10796-0.02015 0.11463-0.02034 0.11696-0.01259 0.12145-0.0126 0.12597-0.01439 0.13045-9e-3 0.13496-9e-3 0.14161-9e-3 0.14395-9e-3 0.1508-9e-3 0.15744-9e-3 0.16195-0.0108c1.0212-0.07863 2.2852 0.21143 3.9632 0.4656 1.1156 0.16645 1.1246-0.16645 2.5911 0.23615 1.0999 0.29915 1.3023 0.22043 2.9982 0.48359 1.3248 0.20243 5.3577 1.0909 6.9322 1.2573 1.4058 0.13945 2.8903 0.87721 4.4108 0.9919 1.4485 0.11462 2.924 0.23842 4.3928 0.30815 1.4575 0.06964 2.933 0.11462 4.3478 0.14845 1.5205 0.02699 3.005-0.27216 4.3838-0.29015 1.5295-0.0162 2.9352-0.28789 4.1836-0.38461 1.7139-0.1238 3.1107-0.37788 4.0329-0.65903 1.7297-0.52858 3.1624-0.44086 4.3748-0.22043 1.6082 0.27216 2.6541 0.93119 3.2682 2.301 0.49258 1.0909 0.19344 2.1525 0.48359 4.1296 0.1418 0.94017-0.30815 2.5147-0.3239 4.4288-0.018 1.3091 0.0518 2.7846 0.0787 4.35 9e-3 1.4305 0.21818 2.9173 0.25415 4.4355 0.027 1.4687 0.018 2.9623 0.0518 4.4108 0.045 1.5475 0.1148 3.032 0.16861 4.4288 0.0518 1.5722 0.0876 3.014 0.13045 4.2443 0.0876 2.5304 0.46561 1.8961 0.22043 4.2263-0.22043 2.1255 0.4746 2.5124-1.5475 4.1026-0.81647 0.64104-2.0715 1.4395-3.8732 1.6082-0.54432 0.051823-1.9344 0.49934-4.0081 1.0009-1.1404 0.29016-2.4944 0.58031-4.0149 0.93119-1.2213 0.27216-2.6271 0.4656-4.0486 0.74675-1.2753 0.24742-2.6114 0.39587-4.0262 0.6163-1.2821 0.20916-2.6698 0.26315-4.0396 0.42959-1.2933 0.16644-2.6451 0.035989-3.9991 0.15745-1.2551 0.10581-2.5214 0.22043-3.8035 0.28116-1.0549 0.044985 0.018 0.34414-0.54431 0.52858-1.2933 0.42961-1.6442 0.27216-4.1049 0.22718-1.2281-9e-3 -2.4494 0-3.9609-0.087631-1.309-0.078813-2.7688-0.19344-4.1386-0.34189-1.3698-0.15061-2.6878-0.56231-3.9632-0.81648-1.4575-0.28116-2.9173-0.26541-4.0509-0.72199-1.4395-0.58031-2.6091-1.1674-3.1264-2.0896-0.41387-0.73099-0.52858-2.4607-0.67703-4.332-0.1058-1.2034-0.027-2.6091-0.036-4.1386-0.0162-1.2731-0.24517-2.6361-0.20018-4.0689 0.0336-1.3338 0.0162-2.7328 0.0945-4.1544 0.072-1.336 0.1238-2.6991 0.22042-4.0599 0.10581-1.3608 0.4836-2.7058 0.59831-4.0599 0.12146-1.3608 0.37787-2.6968 0.49933-4.0059 0.15061-1.3541 0.11462-2.6699 0.2564-3.9272 0.16644-1.3788 0.50833-2.6721 0.67478-3.8845 0.21143-1.4935 0.063-2.8813 0.26541-3.9969 0.35988-1.9771 1.0099-3.1534 1.2731-3.4009z" fill="#fff"/>
    <path d="m212.09 33.597-0.0876 0.02913-0.10113 0.03151-0.11481 0.03364-0.12595 0.03597-0.13729 0.03831-0.15079 0.03816-0.15962 0.04049-0.17093 0.04282-0.17761 0.04282-0.18892 0.04501-0.19793 0.04501-0.20468 0.04282-0.21368 0.04501-0.22044 0.04501-0.22491 0.04282-0.23392 0.04262-0.23619 0.04282-0.24291 0.04049-0.49934 0.07647-0.51055 0.06748-0.52185 0.05848-0.52631 0.04734-0.52858 0.03151-0.52408 0.01619-0.25866 2e-3 -0.25867-0.0036c-1.4485-0.03384-3.5493 0.18444-6.1584 0.29915-1.8376 0.06982-3.7608-0.25417-6.046-0.12362-1.8534 0.10581-3.8552 0.07881-5.938 0.22043-2.0738 0.13262-4.2263 0.38687-6.4576 0.56232-2.0131 0.14845-3.1647-0.08763-5.2632 0.09681-2.1188 0.17544-3.7788-0.51058-5.9313-0.29915-1.9591 0.18444-5.342 0.22043-7.292 0.42286-2.0041 0.20918-4.2961 1.0099-6.2552 1.2371-2.0311 0.23842-3.7 0.08097-5.6321 0.34414-2.0401 0.27216-4.359 0.93119-6.2552 1.2213-2.0041 0.3059-3.9294 0.63204-5.7288 0.95817-1.9523 0.35089-3.7877 0.56232-5.4387 0.93794-1.5115 0.34414-2.8386 0.87047-4.0509 1.2303-2.8566 0.88844-5.0968 1.3968-6.8355 1.6442-3.7248 0.51733-5.3869-0.24742-6.4148-1.7499-0.90419-1.3338-1.2213-3.4863-1.4665-5.3577-0.30815-2.2583-0.21143-1.2124-0.6073-3.2951-0.57131-3.0657-1.0796-5.0181 0.76475-6.9502 0.95818-1.0189 2.6631-2.1885 4.6312-3.0837 2.8386-1.5205 1.7139-1.3091 5.7288-2.9263 1.5812-0.63202 3.5403-1.327 5.8593-2.0828 1.7926-0.5803 3.8755-0.96493 6.1337-1.5812 1.8714-0.50833 3.8912-1.0099 6.0887-1.5115 1.9411-0.42961 3.9699-1.0459 6.1854-1.4665 1.9591-0.37788 4.0239-0.73776 6.2034-1.0886 2.0986-0.34414 4.3051-0.58031 6.606-0.88846 2.0378-0.27214 4.1746-0.45658 6.3879-0.695 1.9591-0.20918 3.9722-0.58706 6.0707-0.7625 2.0378-0.17544 4.8584 0.024649 7.0289-0.12362 1.9164-0.12362 3.1624-0.51058 5.1845-0.6073 1.9771-0.096809 3.9969-0.13046 6.0707-0.20019 2.0198-0.062979 4.0936-0.11462 6.2214-0.15061 1.7657-0.026993 3.5583-0.13046 5.4027-0.13945 2.978 0 5.8773 0.16645 7.3888 1.1336 2.2582 1.4485 2.0041 2.301 2.0918 5.1485 0.10562 3.1894-0.19344 1.642 0.32388 4.8044 0.55331 3.4189 0.62529 6.3969 0.85247 9.3659 0.1148 1.5385-0.90421 2.8835-2.6361 4.4378z" fill="#273896"/>
    <path d="m161.21 14.728c-1.0819 3.7e-5 -2.0243 0.79174-2.0243 1.8556 0 1.0638 0.94245 1.8556 2.0243 1.8556h0.0562 0.11246 0.11246 0.11245l0.0562-0.05614h0.11246l0.11247-0.05614h0.0561l0.11247-0.05614 0.0562-0.05614h0.11246l0.0561-0.05614 0.11247-0.05614 0.0562-0.05614 0.0561-0.05614 0.11247-0.05614 0.0561-0.11246 0.1122-0.11228 0.0562-0.05614 0.0561-0.11246 0.0561-0.05614 0.0561-0.11246 0.0561-0.05614v-0.11246l0.0561-0.05614v-0.11246l0.0561-0.11246v-0.05614-0.11246-0.11246-0.05614c-2e-5 -1.064-0.90645-1.8556-1.9681-1.8556zm-5.6794 3.3739c-1.0729-1.5e-5 -2.0243 0.79176-2.0243 1.8556 0 1.0707 1.1764 1.3496 2.2493 1.3496h0.0561 0.11247 0.11246l0.0561-0.05614h0.11246 0.11247 0.0561 0.11246l0.0561-0.05614h0.11247 0.0561l0.0561-0.05614h0.11246l0.0561-0.05614 0.0562-0.05614h0.0561l0.11246-0.05614 0.0561-0.05614h0.0561v-0.05614l0.0561-0.05614 0.0562-0.05614 0.1122-0.11228v-0.11246l0.0561-0.05614v-0.05614-0.11246l0.0561-0.05614v-0.11246-0.11246-0.05614c-2e-5 -1.0639-1.0189-1.8556-2.0806-1.8556zm4.8359 5.4545c-1.0729-5.1e-5 -2.3122 0.41162-1.8556 1.7994 0.34414 1.0099 0.78276 1.9681 1.8556 1.9681h0.11246 0.11247 0.11246 0.0562l0.11246-0.05614h0.11245l0.11247-0.05614 0.0562-0.05614h0.11246l0.0561-0.05614 0.11246-0.05614 0.0562-0.05614 0.11246-0.05614 0.0561-0.05614 0.0562-0.05614 0.11246-0.11246 0.1122-0.11228 0.0561-0.11246 0.0561-0.05614 0.0561-0.11246 0.0562-0.05614 0.0561-0.11246v-0.05614l0.0562-0.11246 0.0561-0.11246v-0.05614l0.0561-0.11246v-0.11246-0.11246-0.05614-0.11246c0-1.0639-0.95143-1.7432-2.0243-1.7432zm-30.759 0.73101c-0.8494 0.20923-1.4058 1.1154-1.4058 2.1368-2e-5 1.1786 0.73777 2.0243 1.7994 2.0243h0.11246 0.11246l0.0561-0.05614h0.11247 0.11246l0.0561-0.05614h0.11246l0.11247-0.05614h0.0561l0.11246-0.05614 0.1122-0.11228 0.11247-0.05614 0.1122-0.11228 0.11246-0.05614 0.0562-0.05614 0.0561-0.11246 0.1122-0.11228 0.0561-0.11246v-0.05614l0.0561-0.11246 0.0561-0.05614v-0.11246l0.0562-0.11246v-0.05614l0.0561-0.11246v-0.11246-0.11246-0.11246l0.0561-0.11246c2e-5 -1.1673-0.89521-2.1368-1.9681-2.1368-0.13262 0-0.27227-0.02989-0.39362 0zm14.62 0c-1.0706-3.5e-5 -1.9119 0.89747-1.9119 1.9681 2e-5 1.0639-0.0201 1.5385 1.9119 1.9681h0.11246l0.11246 0.05614h0.0561 0.11247l0.11246-0.05614h0.0561 0.11246l0.0561-0.05614 0.11247-0.05614h0.0561l0.11246-0.05614 0.0561-0.05614 0.0562-0.05614 0.0561-0.05614 0.11246-0.05614 0.0561-0.11246 0.0561-0.05614 0.0562-0.05614 0.0561-0.11246 0.0561-0.05614 0.0561-0.11246v-0.05614l0.1122-0.22493v-0.05614l0.0561-0.11246v-0.11246l0.0561-0.11246v-0.05614-0.11246-0.11246-0.11246c0-1.0707-0.78274-1.9681-1.8556-1.9681zm5.1733 1.8556c-0.92216 0-1.6307 0.68153-1.6307 1.7432-2e-5 1.0639 0.70853 1.7994 1.6307 1.7994h0.11246l0.0562-0.05614h0.11246 0.0561 0.11246l0.0562-0.05614h0.11246l0.0561-0.05614h0.0561l0.11246-0.05614 0.0562-0.05614 0.0561-0.05614h0.11246l0.0561-0.05614 0.0562-0.05614 0.1122-0.11228 0.0561-0.11246 0.1683-0.16842 0.0562-0.11246 0.0561-0.05614v-0.05614l0.0562-0.11246v-0.05614l0.0561-0.11246v-0.11246-0.05614l0.0561-0.11246v-0.11246-0.05614c-2e-5 -1.0617-0.88621-1.7432-1.7994-1.7432zm-7.8724 4.2736c-1.0729 5.6e-5 -1.8466 0.72651-1.8556 1.7994-0.0339 2.6001 1.345 1.8984 1.8556 1.9681h0.11247 0.11246 0.11246 0.0561 0.11247l0.11246-0.05614h0.0561l0.11246-0.05614h0.0561l0.11247-0.05614 0.0561-0.05614 0.11247-0.05614 0.0561-0.05614 0.11247-0.05614 0.1122-0.11228 0.0561-0.11246 0.0561-0.05614 0.0562-0.11246 0.0561-0.05614 0.0561-0.11246 0.0561-0.05614 0.0561-0.11246 0.0561-0.05614v-0.11246l0.0562-0.11246v-0.05614l0.0561-0.11246v-0.11246-0.11246l0.0561-0.11246v-0.05614c-2e-5 -1.0729-0.95144-1.7994-2.0243-1.7994zm-6.4666 1.1809c-1.0639 3.6e-5 -1.7994 0.84797-1.7994 1.9119 0 1.0639 0.73553 2.0806 1.7994 2.0806h0.0561l0.11247-0.05614h0.11246 0.11246l0.0561-0.05614h0.11247l0.11246-0.05614h0.0561l0.11246-0.05614 0.0561-0.05614 0.11247-0.05614 0.0561-0.05614 0.11246-0.05614 0.0561-0.05614 0.0562-0.05614 0.0561-0.11246 0.11246-0.05614 0.0561-0.05614 0.0561-0.11246 0.0562-0.05614 0.0561-0.11246 0.0562-0.05614v-0.11246l0.0561-0.05614 0.0561-0.11246v-0.11246l0.0561-0.05614v-0.11246l0.0561-0.11246v-0.05614-0.11246-0.11246c2e-5 -1.0639-0.89745-1.9119-1.9681-1.9119z" fill="#fff"/>
    <path d="m179.88 16.415c-1.4755 1.8e-5 -2.5867 1.1674-2.5867 2.6429 0 1.4845 1.1112 2.8116 2.5867 2.8116h0.11246 0.1686 0.11247l0.16859-0.05614 0.11247-0.05614h0.11246l0.16862-0.05614 0.22491-0.11228 0.11246-0.05614 0.11247-0.05614 0.11246-0.11246 0.11247-0.05614 0.11246-0.11246 0.11247-0.05614 0.22492-0.22493 0.0561-0.05614 0.11247-0.11246 0.0561-0.11246 0.11247-0.11246 0.0561-0.11246 0.0562-0.1686 0.0561-0.11246 0.0562-0.11246 0.0561-0.11246 0.0562-0.1686v-0.11246l0.0561-0.11246v-0.16861-0.11246-0.1686c-2e-5 -1.4756-1.3181-2.6429-2.8116-2.6429zm-34.864 1.1246c-0.78273 1.6e-5 -1.2933 0.63204-1.2933 1.4058 4e-5 0.76246 0.51058 1.462 1.2933 1.462h0.0561 0.11246 0.0561 0.0562l0.0561-0.05614h0.0562l0.11246-0.05614h0.0561l0.0561-0.05614h0.0561l0.1122-0.11228h0.0561l0.2805-0.2807v-0.05614l0.1122-0.11228v-0.05614l0.1122-0.11228v-0.11246-0.05614l0.0561-0.05614v-0.05614-0.05614l0.0562-0.11246v-0.05614-0.05614c1e-5 -0.77376-0.69728-1.4058-1.462-1.4058zm50.721 0c-1.4845-2e-5 -2.4742 0.98969-2.4742 2.4742 0 1.4755 0.98969 2.5866 2.4742 2.5866h0.1686 0.11246l0.11247-0.05614h0.16861l0.11245-0.05614h0.11246l0.16862-0.05614 0.5623-0.2807 0.11247-0.05614 0.0561-0.05614 0.11246-0.11246 0.11245-0.05614 0.0562-0.11246 0.11247-0.05614 0.0561-0.11246 0.0562-0.11246 0.11246-0.11246 0.0561-0.11246 0.0562-0.11246 0.0561-0.11246v-0.11246l0.0562-0.11246 0.0561-0.11246v-0.11246l0.0562-0.16861v-0.11246-0.11246-0.16861c-2e-5 -1.4845-1.1584-2.4742-2.6429-2.4742zm-5.6232 4.9484c-1.4845 3.6e-5 -2.924 0.98969-2.924 2.4742-1e-5 1.4867 1.4396 2.8678 2.924 2.8678h0.11247l0.16859-0.05614h0.11247 0.1686l0.11246-0.05614 0.22493-0.11228 0.16861-0.05614 0.11245-0.05614 0.22493-0.11228 0.11247-0.05614 0.0561-0.11246 0.11247-0.11246 0.11246-0.05614 0.11245-0.11246 0.0562-0.11246 0.11247-0.11246 0.0561-0.11246 0.0562-0.11246 0.11246-0.11246 0.0561-0.11246 0.0562-0.11246 0.0561-0.11246 0.0562-0.16861v-0.11246l0.0561-0.11246 0.0562-0.1686v-0.11246-0.11246l0.0561-0.16861v-0.11246c0-1.4845-1.2146-2.4742-2.6991-2.4742zm-51.789 2.2493c-0.7715-1.6e-5 -1.462 0.57581-1.462 1.3496 0 0.76478 0.86596 0.95593 1.6307 0.95593h0.0561 0.0562 0.0561 0.11246 0.0561 0.0561 0.0562l0.0561-0.05614h0.0562 0.0561 0.0561l0.0561-0.05614h0.0561 0.0562l0.0561-0.05614h0.0561l0.0561-0.05614h0.0561v-0.05614l0.0561-0.05614h0.0562v-0.05614l0.0561-0.05614v-0.05614h0.0562v-0.05614-0.05614l0.0561-0.05614v-0.05614-0.11246-0.05614-0.05614c0-0.77371-0.74451-1.3496-1.5182-1.3496zm44.704 0.8997c-1.4868 0-2.4742 1.2776-2.4742 2.7553 1e-5 1.4755 1.0369 2.7553 2.5304 2.7553h0.11247 0.16861l0.11246-0.05614h0.16861l0.11246-0.05614h0.11246l0.11247-0.05614 0.16859-0.05614 0.22494-0.11228 0.11246-0.11246 0.11246-0.05614 0.11247-0.05614 0.11246-0.11246 0.0561-0.05614 0.22494-0.22492 0.0561-0.11246 0.11245-0.05614 0.0562-0.11246 0.0561-0.11246 0.0562-0.11246 0.11247-0.16861 0.0561-0.11246v-0.11246l0.0562-0.11246 0.0561-0.1686v-0.11246l0.0562-0.11246v-0.1686-0.11246-0.16861c0-1.4755-1.2708-2.6991-2.7553-2.6991zm-27.553 2.1368c-0.77374-1.5e-5 -1.462 0.52183-1.462 1.2933 1e-5 0.77369 0.68827 1.3496 1.462 1.3496h0.0562 0.11246 0.0561 0.0561 0.0562l0.0561-0.05614h0.11247 0.0561l0.0561-0.05614h0.0561l0.0561-0.05614 0.0562-0.05614h0.0561l0.1683-0.16842h0.0561l0.0562-0.05614 0.0561-0.05614v-0.05614l0.1122-0.11228v-0.05614l0.0561-0.05614v-0.05614l0.0561-0.11246v-0.05614-0.05614l0.0561-0.05614v-0.05614-0.11246-0.05614c0-0.77153-0.69052-1.2933-1.462-1.2933zm-27.104 4.8921c-0.77374 3.6e-5 -1.2933 0.72202-1.2933 1.5745 0 0.84344 0.51958 1.462 1.2933 1.462h0.11247 0.0561l0.0561-0.05614h0.0561 0.0561 0.11246l0.0562-0.05614h0.0561l0.0561-0.05614h0.0561l0.0561-0.05614h0.0561l0.0561-0.05614 0.0562-0.05614 0.0561-0.05614h0.0561v-0.05614l0.1122-0.11228 0.0562-0.05614v-0.05614l0.0561-0.05614v-0.05614l0.0561-0.11246v-0.05614l0.0561-0.05614v-0.05614-0.05614l0.0561-0.11246v-0.05614-0.05614-0.11246c2e-5 -0.85249-0.64329-1.5745-1.4058-1.5745z" fill="#fff216"/>
   </g>
   <path d="m183.76-38.355v0.39362 4.2174 0.39362h0.39362 1.6307v1.462l-0.11247-0.05614-0.11246 0.33739-1.9119 1.1246-13.833 4.5548h-0.0561l-14.958-2.2493v-1.7432h1.7994 0.39362v-0.39362-4.2174-0.39362h-0.39362-4.2736-0.39362v0.39362 4.2174 0.39362h0.39362 1.687v2.0243 0.28116l0.22492 0.11246 12.146 6.804-2.3055 1.2933h-0.0561l-15.295 5.1171 5.2858-12.315-0.78724-0.33739-5.6232 13.214-0.33739 0.84347 0.89971-0.28116 16.195-5.4545h0.0562l2.8116-1.5745 3.3739 1.9119-5.8481-0.44985-0.0562 0.84347 7.0852 0.50608 0.28116 0.78724 0.22492 0.39362 0.44985-0.16861 10.403-5.2858-0.44986-0.73101-9.8967 5.0608-0.16861-0.50608 0.11246-0.22493-0.22492-0.11246-0.0561-0.05614-1.462-4.1611 12.708-7.2539 1.4058-0.44985-1.9681 6.4104 0.84347 0.28116 2.0244-6.6353 5.3982 6.6353-7.9286 1.5182 0.11246 0.78724 8.7159-1.6307 0.67479-0.11246-0.44986-0.56232-6.2417-7.6475 0.0561-0.11246h0.0562l0.22493-0.11246v-0.22493-1.8556h1.7432 0.39362v-0.39362-4.2174-0.39362h-0.39362-4.2174-0.39362zm0.78724 0.78724h3.4301v3.4301h-3.4301v-3.4301zm-31.827 3.4301h3.4864v3.4301h-3.4864v-3.4301zm27.104 5.7918-9.1095 5.1733-0.1686-0.50608-0.78724 0.28116 0.22492 0.61855-2.8116 1.5745-10.628-5.9605 13.271 2.0806h0.11246 0.11246l9.7843-3.2614zm-9.5594 6.4104 1.0122 3.0927-3.2052-1.8556 2.193-1.2371zm21.368 1.462v1.462h-1.5182-0.39362v0.39362 4.2174 0.39362h0.39362 4.2174 0.39361v-0.39362-4.2174-0.39362h-0.39361-1.8556v-1.4058l-0.84347-0.05614zm-1.1246 2.2493h3.4301v3.4301h-3.4301v-3.4301zm-27.047 1.6307v0.84347h-1.6307-0.39362v0.39362 4.2174 0.39362h0.39362 4.2174 0.39362v-0.39362-4.2174-0.39362h-0.39362-1.7432v-0.84347h-0.84347zm9.1657 1.1246v0.84347h-1.462-0.39363v0.39362 4.2174 0.39362h0.39363 4.2174 0.39362v-0.39362-4.2174-0.39362h-0.39362-1.9119v-0.84347h-0.84346zm-10.403 0.50608h3.4301v3.4301h-3.4301v-3.4301zm9.3344 1.1246h3.4301v3.4301h-3.4301v-3.4301zm-24.517 2.0806-0.50609 0.95594-1.4058-0.73101-0.33739-0.1686-0.22493 0.39362-1.9119 3.7113-0.16861 0.33739 0.39362 0.22493 3.7675 1.9119 0.33739 0.16861 0.22492-0.39362 1.9119-3.7113 0.1686-0.33739-0.39362-0.22493-1.6307-0.84347 0.50608-0.84347-0.73101-0.44985zm-1.9119 1.1809 3.0365 1.5183-1.5182 2.9803-3.0365-1.5182 1.5182-2.9803z" fill="#273896" fill-rule="evenodd"/>
   <g stroke-miterlimit="10.433" stroke-width="0">
    <path d="m186.01-32.169c-1.0886 1.7e-5 -1.9681 0.87721-1.9681 1.9681 2e-5 1.0796 0.87947 1.9681 1.9681 1.9681h0.11246 0.11247 0.11246l0.0561-0.05614h0.11247l0.11247-0.05614h0.0561l0.11246-0.05614h0.11247l0.0562-0.05614 0.11246-0.05614 0.0561-0.05614 0.0562-0.05614 0.11246-0.05614 0.0561-0.05614 0.0562-0.05614 0.0561-0.05614 0.0562-0.11246 0.0561-0.05614 0.0562-0.05614 0.0561-0.11246 0.0562-0.05614 0.0561-0.11246 0.0561-0.05614v-0.11246l0.0561-0.05614v-0.11246l0.0562-0.11246v-0.11246-0.05614-0.11246-0.11246c0-1.0909-0.87722-1.9681-1.9681-1.9681zm-15.914 5.2295c-1.0909 0-1.9681 0.87946-1.9681 1.9681-3e-5 1.0797 0.87721 1.9681 1.9681 1.9681h0.11246 0.11247 0.0562l0.11246-0.05614h0.11247l0.0561-0.05614h0.11246l0.11247-0.05614h0.0561l0.11247-0.05614 0.0562-0.05614 0.11246-0.05614 0.1122-0.11228 0.11246-0.05614 0.0561-0.05614 0.0561-0.11246 0.1683-0.16842 0.0562-0.11246 0.0561-0.05614 0.0561-0.11246v-0.05614l0.0561-0.11246v-0.11246l0.0562-0.05614v-0.11246l0.0561-0.11246v-0.05614-0.11246-0.11246c0-1.0886-0.87945-1.9681-1.9681-1.9681zm-6.073 6.4666c-1.1494 0-2.0806 0.92894-2.0806 2.0806 1e-5 1.1426 0.93118 2.0806 2.0806 2.0806h0.11247l0.11247-0.05614h0.0561 0.11246l0.11247-0.05614h0.11246l0.11247-0.05614h0.0561l0.11247-0.05614 0.0561-0.05614 0.11245-0.05614 0.0562-0.05614 0.11246-0.05614 0.0561-0.05614 0.11247-0.05614 0.0561-0.05614 0.0561-0.11246 0.0562-0.05614 0.0561-0.05614 0.0562-0.11246 0.0561-0.05614 0.0562-0.11246 0.0561-0.05614 0.0561-0.11246v-0.11246l0.0562-0.05614 0.0561-0.11246v-0.11246-0.11246l0.0562-0.11246v-0.05614-0.11246c0-1.1516-0.93796-2.0806-2.0806-2.0806z" fill="#ef3d56"/>
    <path d="m183.48-23.903c-1.0909 1.8e-5 -1.9681 0.88621-1.9681 1.9681 0 1.0976 0.87721 1.9681 1.9681 1.9681h0.11246 0.11245 0.0562 0.11246l0.11247-0.05614h0.11246l0.0561-0.05614 0.11247-0.05614h0.0562l0.11247-0.05614 0.0561-0.05614 0.11246-0.05614 0.0561-0.05614 0.0562-0.05614 0.11247-0.05614 0.0561-0.05614 0.0562-0.05614 0.0561-0.11246 0.1122-0.11228 0.0561-0.11246 0.0562-0.05614 0.0561-0.11246v-0.05614l0.0562-0.11246 0.0561-0.05614v-0.11246l0.0562-0.11246v-0.11246-0.05614-0.11246-0.11246c2e-5 -1.0819-0.87947-1.9681-1.9681-1.9681zm-35.257 8.9408c-1.0819-3.5e-5 -1.9681 0.87946-1.9681 1.9681-4e-5 1.0819 0.88621 1.9681 1.9681 1.9681h0.11246l0.11247-0.05614h0.11246 0.11246 0.0561l0.11247-0.05614h0.11246l0.0561-0.05614 0.11247-0.05614 0.0561-0.05614h0.11246l0.1122-0.11228 0.11247-0.05614 0.0561-0.05614 0.0561-0.11246 0.0561-0.05614 0.11247-0.05614 0.0561-0.05614 0.0562-0.11246v-0.05614l0.0561-0.11246 0.0561-0.05614 0.0561-0.11246v-0.05614l0.0561-0.11246v-0.11246l0.0561-0.05614v-0.11246-0.11246-0.11246l0.0562-0.05614c-3e-5 -1.0886-0.9267-1.9681-2.0243-1.9681z" fill="#f286a8"/>
    <path d="m154.35-29.245c-1.0819-1.9e-5 -1.9681 0.87946-1.9681 1.9681-1e-5 1.0909 0.88621 1.9681 1.9681 1.9681h0.11247 0.0561 0.11246 0.11247l0.11246-0.05614h0.0561l0.11246-0.05614h0.0561l0.22492-0.11228 0.1122-0.11228 0.11247-0.05614 0.1122-0.11228 0.11246-0.05614 0.0562-0.05614 0.0561-0.05614 0.0562-0.11246 0.1122-0.11228 0.0561-0.11246 0.0561-0.05614v-0.11246l0.0562-0.11246v-0.05614l0.0561-0.11246v-0.11246l0.0562-0.05614v-0.11246-0.11246-0.11246c0-1.0886-0.87946-1.9681-1.9681-1.9681zm37.506 5.1733c-1.0909 1.7e-5 -1.9681 0.88846-1.9681 1.9681 2e-5 1.0999 0.87721 1.9681 1.9681 1.9681h0.0561 0.11246 0.11247l0.11247-0.05614h0.0561l0.11245-0.05614h0.11247l0.0561-0.05614h0.11247l0.0561-0.05614 0.11246-0.05614 0.0562-0.05614 0.11246-0.05614 0.0561-0.05614 0.0562-0.05614 0.0561-0.05614 0.11246-0.05614 0.0562-0.11246 0.1122-0.11228 0.0561-0.11246v-0.05614l0.0561-0.11246 0.0561-0.05614 0.0562-0.11246v-0.11246l0.0561-0.05614v-0.11246-0.11246l0.0562-0.05614v-0.11246-0.11246c0-1.0796-0.87947-1.9681-1.9681-1.9681zm-18.669 4.9484c-1.0909 1.8e-5 -1.9681 0.82998-1.9681 1.9119-2e-5 1.0976 0.87722 2.0243 1.9681 2.0243h0.0561l0.11247-0.05614h0.11246 0.11245l0.0562-0.05614h0.11246l0.11247-0.05614h0.0561l0.11247-0.05614 0.0562-0.05614h0.11246l0.0561-0.05614 0.11247-0.05614 0.0562-0.05614 0.0561-0.11246 0.0562-0.05614 0.11245-0.05614 0.0562-0.05614 0.0561-0.05614 0.0562-0.11246 0.0562-0.05614v-0.11246l0.0561-0.05614 0.0562-0.11246 0.0561-0.05614v-0.11246l0.0562-0.11246v-0.05614-0.11246-0.11246l0.0561-0.11246v-0.11246c0-1.0819-0.87945-1.9119-1.9681-1.9119z" fill="#fff216"/>
   </g>
  </g>
 </g>
</svg>
