<?xml version="1.0" encoding="UTF-8"?>
<svg width="52.509" height="52.52" version="1.0" viewBox="0 0 52.509 52.52" xmlns="http://www.w3.org/2000/svg" xmlns:xlink="http://www.w3.org/1999/xlink">
 <defs>
  <linearGradient id="linearGradient13956" x1="46.592" x2="43.592" y1="89.585" y2="-74.733" gradientUnits="userSpaceOnUse">
   <stop stop-color="#109284" offset="0"/>
   <stop stop-color="#49bac8" offset="1"/>
  </linearGradient>
  <linearGradient id="linearGradient13966" x1="26.48" x2="26.48" y1="1.3939" y2="52.843" gradientUnits="userSpaceOnUse">
   <stop stop-color="#fff" offset="0"/>
   <stop stop-color="#fff" stop-opacity="0" offset="1"/>
  </linearGradient>
 </defs>
 <g transform="translate(-3.8191 -6.1557)">
  <g transform="translate(-840.83 182.27)" fill="#71c000" stroke="#71c000" stroke-linejoin="bevel" stroke-width="3.379"></g>
  <g transform="translate(-1426.6 -26.29)" fill="#71c000" stroke="#71c000" stroke-linejoin="bevel" stroke-width="3.379"></g>
  <rect x="4.9083" y="7.2196" width="50.731" height="50.549" ry="7.0914" color="black" fill="url(#linearGradient13956)" fill-rule="evenodd" stroke="#2b2b2b" stroke-width=".9965"/>
  <g transform="matrix(-.0039739 .6296 -.6296 -.0039739 295.58 -273.62)" fill="#fff"></g>
  <path transform="translate(3.8191 6.1557)" d="m2.1818 45.429-0.18182-37.636s1.0909-5.6364 5.4545-5.8182c4.3636-0.18182 37.455 0 37.455 0s5.8182 0 6 7.2727c0.18182 7.2727-0.18182 36.727-0.18182 36.727" color="black" fill="none" stroke="url(#linearGradient13966)"/>
  <path d="m30.281 20.941c-1.0101 0-1.8225 0.82898-1.8225 1.8379v19.445c0 1.0148 0.81237 1.8225 1.8225 1.8225 1.0113 0 1.8225-0.80769 1.8225-1.8225v-19.445c0-1.0089-0.8112-1.8379-1.8225-1.8379zm-10.085 6.9038c-1.0078 0-1.8225 0.81354-1.8225 1.8225v8.8961c0 1.0148 0.81471 1.8379 1.8225 1.8379 1.0113 0 1.8379-0.82313 1.8379-1.8379v-8.8961c0-1.0089-0.82664-1.8225-1.8379-1.8225zm20.14 0c-1.0101 0-1.8225 0.81354-1.8225 1.8225v8.8961c0 1.0148 0.81237 1.8379 1.8225 1.8379 1.0335 0 1.8534-0.82313 1.8534-1.8379v-8.8961c0-1.0089-0.81985-1.8225-1.8534-1.8225zm-30.21 5.0504c-1.0101 0-1.8379 0.81354-1.8379 1.8225v3.8457c0 1.0148 0.82782 1.8379 1.8379 1.8379 1.0054 0 1.8225-0.82313 1.8225-1.8379v-3.8457c0-1.0089-0.81705-1.8225-1.8225-1.8225zm40.295 0c-1.0101 0-1.8225 0.81354-1.8225 1.8225v3.8457c0 1.0148 0.81237 1.8379 1.8225 1.8379 1.0089 0 1.8379-0.82313 1.8379-1.8379v-3.8457c0-1.0089-0.82899-1.8225-1.8379-1.8225z" fill="#fff"/>
 </g>
</svg>
