<?xml version="1.0" encoding="UTF-8"?>
<svg width="52.509" height="52.52" version="1.0" viewBox="0 0 52.509 52.52" xmlns="http://www.w3.org/2000/svg" xmlns:xlink="http://www.w3.org/1999/xlink">
 <defs>
  <linearGradient id="linearGradient13956" x1="46.592" x2="43.592" y1="89.585" y2="-74.733" gradientUnits="userSpaceOnUse">
   <stop stop-color="#ebebeb" offset="0"/>
   <stop stop-color="#fff" offset="1"/>
  </linearGradient>
  <linearGradient id="linearGradient13966" x1="26.48" x2="26.48" y1="1.3939" y2="52.843" gradientUnits="userSpaceOnUse">
   <stop stop-color="#fff" offset="0"/>
   <stop stop-color="#fff" stop-opacity="0" offset="1"/>
  </linearGradient>
 </defs>
 <g transform="translate(-3.8191 -6.1557)">
  <g transform="translate(-840.83 182.27)" fill="#71c000" stroke="#71c000" stroke-linejoin="bevel" stroke-width="3.379"></g>
  <g transform="translate(-1426.6 -26.29)" fill="#71c000" stroke="#71c000" stroke-linejoin="bevel" stroke-width="3.379"></g>
  <rect x="4.9083" y="7.2196" width="50.731" height="50.549" rx="7.0914" ry="7.0914" color="#000000" fill="url(#linearGradient13956)" fill-rule="evenodd" stroke="#2b2b2b" stroke-width=".997"/>
  <g transform="matrix(-.0039739 .6296 -.6296 -.0039739 295.58 -273.62)" fill="#fff"></g>
  <path transform="translate(3.8191 6.1557)" d="m2.1818 45.429-0.18182-37.636s1.0909-5.6364 5.4545-5.8182c4.3636-0.18182 37.455 0 37.455 0s5.8182 0 6 7.2727c0.18182 7.2727-0.18182 36.727-0.18182 36.727" color="black" fill="none" stroke="url(#linearGradient13966)"/>
  <path d="m13.054 47.561c-1.5764-0.78902-2.9231-2.545-3.6118-4.7097-0.38492-1.2097-0.55989-2.8122-0.34428-3.1533 0.069293-0.10962 0.8392-0.12545 6.0994-0.12545 4.8275 0 6.0416 0.02161 6.1288 0.1087 0.16444 0.16443 0.15865 7.8755-0.0061 8.074-0.10364 0.12491-0.47779 0.13833-3.8581 0.13833h-3.7433l-0.66454-0.33261zm11.23 0.2012c-0.11568-0.11568-0.13142-0.59444-0.13142-3.9982 0-3.2076 0.02023-3.8944 0.11871-4.0291 0.11557-0.15803 0.27486-0.16234 6.0171-0.16234 4.7276 0 5.9199 0.02161 6.007 0.1087 0.16444 0.16443 0.15865 7.8755-0.0061 8.074-0.10478 0.12628-0.62674 0.13833-5.9943 0.13833-5.2336 0-5.894-0.01444-6.011-0.13141zm14.969 0c-0.11568-0.11568-0.13142-0.59444-0.13142-3.9982 0-3.2071 0.02024-3.8944 0.11868-4.0291 0.11526-0.15766 0.28848-0.16298 6.0115-0.18488 3.933-0.01504 5.9689 6e-3 6.1217 0.06443l0.22887 0.08704-0.04099 1.0227c-0.08476 2.1148-0.97197 4.1374-2.4879 5.6719-0.65137 0.65931-0.92048 0.86659-1.4941 1.1508l-0.69962 0.34666h-3.7476c-3.2954 0-3.7635-0.01593-3.879-0.13142zm-30.091-10.998c-0.13616-0.079268-0.14635-0.36429-0.14635-4.0923 0-3.8761 0.00531-4.0099 0.16176-4.0936 0.10711-0.05726 2.1501-0.08655 6.0471-0.08655 4.9508 0 5.9111 0.01882 6.0476 0.11871 0.15672 0.1146 0.16233 0.25509 0.16233 4.0627 0 3.8076-0.0056 3.9481-0.16233 4.0627-0.13665 0.09992-1.096 0.11831-6.063 0.11616-3.8521-2e-3 -5.9515-0.03217-6.0471-0.08774zm30.127-0.07698c-0.16241-0.16242-0.16726-0.27876-0.16726-4.0141 0-3.7354 0.0049-3.8517 0.16726-4.0142 0.1641-0.16409 0.27876-0.16726 6.0685-0.16726 3.908 0 5.9559 0.02928 6.063 0.08655 0.15647 0.08375 0.16176 0.21758 0.16176 4.0948s-0.0053 4.0111-0.16176 4.0948c-0.10712 0.05736-2.1551 0.08655-6.063 0.08655-5.7898 0-5.9044-3e-3 -6.0685-0.16726zm-30.001-10.93c-0.25495-0.05059-0.30597-0.31083-0.24129-1.2309 0.083933-1.194 0.45292-2.4059 1.1099-3.6452 0.73896-1.3939 1.7619-2.4486 2.9424-3.0337l0.71284-0.35328h3.7254 3.7254l0.10755 0.20907c0.15649 0.3042 0.11508 7.8025-0.04397 7.9615-0.08687 0.08684-1.2871 0.11077-5.9794 0.11925-3.2289 0.0058-5.9553-0.0062-6.0588-0.02671zm15.241 4.63e-4c-0.37499-0.09032-0.37633-0.10518-0.37633-4.1758 0-3.4037 0.01574-3.8825 0.13142-3.9982 0.11698-0.11698 0.77743-0.13142 6.011-0.13142 5.3676 0 5.8896 0.01205 5.9943 0.13832 0.16469 0.19848 0.17051 7.9095 0.0061 8.074-0.08681 0.08682-1.2648 0.11118-5.854 0.12102-3.1599 0.0067-5.8206-0.0058-5.9125-0.02796zm14.969-0.0012c-0.37487-0.08779-0.37633-0.10395-0.37633-4.1747 0-3.4431 0.01475-3.8815 0.13464-4.0014 0.1205-0.12049 0.52697-0.13211 3.8678-0.11051l3.7332 0.02414 0.52142 0.26691c0.77056 0.39444 1.1725 0.69502 1.7835 1.3338 0.66063 0.69065 0.94822 1.1034 1.4109 2.0249 0.67536 1.3451 1.0453 2.8097 0.9951 3.9392-0.02595 0.58365-0.04116 0.62742-0.2368 0.6816-0.23001 0.06368-11.564 0.07901-11.833 0.016z" fill="#f00"/>
 </g>
</svg>
