<?xml version="1.0" encoding="UTF-8"?>
<svg width="52.509" height="52.52" version="1.0" viewBox="0 0 52.509 52.52" xmlns="http://www.w3.org/2000/svg" xmlns:xlink="http://www.w3.org/1999/xlink">
 <defs>
  <linearGradient id="linearGradient13956" x1="46.592" x2="43.592" y1="89.585" y2="-74.733" gradientUnits="userSpaceOnUse">
   <stop offset="0"/>
   <stop stop-color="#fff" offset="1"/>
  </linearGradient>
  <linearGradient id="linearGradient13966" x1="26.48" x2="26.48" y1="1.3939" y2="52.843" gradientUnits="userSpaceOnUse">
   <stop stop-color="#fff" offset="0"/>
   <stop stop-color="#fff" stop-opacity="0" offset="1"/>
  </linearGradient>
 </defs>
 <g transform="translate(-3.8191 -6.1557)">
  <g transform="translate(-840.83 182.27)" fill="#71c000" stroke="#71c000" stroke-linejoin="bevel" stroke-width="3.379"></g>
  <g transform="translate(-1426.6 -26.29)" fill="#71c000" stroke="#71c000" stroke-linejoin="bevel" stroke-width="3.379"></g>
  <rect x="4.9083" y="7.2196" width="50.731" height="50.549" ry="7.0914" color="black" fill="url(#linearGradient13956)" fill-rule="evenodd" stroke="#2b2b2b" stroke-width=".9965"/>
  <g transform="matrix(-.0039739 .6296 -.6296 -.0039739 295.58 -273.62)" fill="#fff"></g>
  <path transform="translate(3.8191 6.1557)" d="m2.1818 45.429-0.18182-37.636s1.0909-5.6364 5.4545-5.8182c4.3636-0.18182 37.455 0 37.455 0s5.8182 0 6 7.2727c0.18182 7.2727-0.18182 36.727-0.18182 36.727" color="black" fill="none" stroke="url(#linearGradient13966)"/>
  <path d="m26.402 11.998c-5.34 0.20443-10.249 3.2358-12.027 9.0725-1.2667 16.988 0.52114 21.627 0.52114 21.627s-6.9 9.8274-7.3331 10.152l45.021-0.11495-7.9829-11.861c-1.2632-2.1301-2.3044-10.726-2.4162-16.886-1.339-7.4656-6.883-12.33-15.783-11.99zm-0.9712 1.181c0.40919-0.01031 0.91112-5.51e-4 1.5262 0 2.5269 0.0022 3.3643 0.09149 5.2486 0.63281 4.4177 1.2691 7.5729 4.3095 8.636 8.3382 0.39199 1.4855 0.59042 3.2548 0.89338 7.5193 0.32381 4.558 0.536 6.1691 0.96782 7.9659 0.29542 1.2292 0.63721 2.0536 1.8612 4.3552 2.4586 4.6233 3.4654 6.2406 5.9931 9.4921 0.17474 0.22478 0.35422 0.41185 0.52114 0.63281h-6.8864c-0.05147-0.03606-0.09845-0.07985-0.1489-0.11167-0.35769-0.2257-0.7817-0.39747-0.7817-0.29779 0 0.01229 0.17401 0.27754 0.26057 0.40946h-4.1691c-0.01517-0.05741 0.01577-0.08819 0-0.1489-0.81654-3.1428-1.6221-4.998-2.8662-6.6631-1.892-2.5323-2.1649-3.5761-1.4145-5.9186 0.48481-1.5135 0.5081-2.2721 0-2.7918-0.37318-0.3817-0.67473-0.53492-2.3823-1.0795-2.5884-0.82547-3.7631-1.5549-4.0946-2.5312-0.32796-0.96589-0.10869-2.536 0.48391-3.3129 0.42522-0.55751 0.95378-0.78531 1.7868-0.7817 0.5485 0.0024 0.77485 0.04792 1.1539 0.22334 0.59252 0.27417 1.0661 0.66867 1.3028 1.1167 0.25335 0.4795 0.2641 1.6486 0 2.494-0.4267 1.366-0.45271 1.1803-0.1489 1.4517 0.55926 0.4997 1.4376 0.56826 1.824 0.11167 0.33036-0.39038 0.43652-0.81362 0.48391-1.9356 0.05178-1.2262-0.09306-1.9987-0.59558-3.5363-0.68895-2.108-1.3483-2.7501-3.4246-3.0896-1.5548-0.25419-2.4186-0.06507-3.2013 0.74448-1.2283 1.2705-1.8437 3.3165-1.6006 5.3603 0.13423 1.1287 0.11658 1.1674-0.52114 0.96782-0.57106-0.1787-1.8103-0.28856-2.5312-0.26057-0.77865 0.03023-0.85435-0.06573-0.85615-0.9306-0.0075-3.5315-1.0327-5.4452-2.9779-5.4347-1.3535 0.0073-2.4958 1.0077-2.9035 2.6429-0.159 0.6378-0.10963 2.4727 0.07445 3.5363 0.36222 2.0927 1.1744 3.1631 1.7868 2.3451 0.25562-0.34148 0.48852-0.82096 0.48391-0.96782-0.0019-0.06072-0.21734-0.19027-0.44669-0.29779-0.25526-0.11967-0.48801-0.30986-0.59558-0.48391-0.47647-0.77094-0.72976-2.1211-0.52114-2.8662 0.2617-0.93468 1.5722-1.4992 2.4568-1.0795 0.74871 0.35529 1.5359 1.9839 1.4517 3.0151-0.06746 0.82686-0.21651 1.0875-0.96782 1.6379-0.36572 0.26789-1.0035 0.74594-1.3773 1.0795-0.37375 0.33356-0.78095 0.72158-0.96782 0.85615-0.95498 0.68771-1.5261 1.4684-1.5262 2.2334-8.6e-5 0.50237 0.22222 0.79671 0.85615 1.1167 0.49708 0.25093 0.97683 0.72248 1.4517 1.4145 0.63336 0.92291 1.388 1.1632 3.1268 1.1539 2.1125-0.01131 3.9663-0.42183 7.5193-1.7495 1.926-0.71971 2.493-0.98633 2.6057-1.1539 0.30797-0.45811 0.63676-0.7817 0.85615-0.7817 0.29343 0 0.55836 0.28761 0.55836 0.59558 0 0.5155-0.76755 0.95136-3.5363 1.8984-0.81758 0.27966-2.0677 0.77374-2.7918 1.1167-1.4667 0.69469-1.9016 0.8577-2.8662 1.0423-0.7857 0.15033-2.5785 0.17114-3.5735 0.03722-0.82172-0.11059-1.3429-0.05936-1.3028 0.1489 0.04244 0.22035 1.9102 1.7066 2.3451 1.8612 0.61101 0.21724 1.8542 0.24788 2.6429 0.07445 1.1799-0.25945 4.8934-1.8653 6.7375-2.9035 0.62528-0.352 0.96972-0.48311 1.1912-0.48391 0.37473-0.0014 0.67003 0.21982 0.67003 0.52114 0 0.32386-0.60787 0.86924-1.3028 1.1539-1.208 0.4949-1.5141 0.60943-2.7174 1.3773-1.6536 1.0553-2.3396 1.5859-3.4246 2.5312-1.1667 1.0165-1.501 1.1784-2.7918 1.1912-1.032 0.01021-1.3348-0.0932-2.0101-0.67003-0.52594-0.44922-1.764-2.0275-2.1218-2.6801-0.37026-0.67545-1.2282-1.6006-1.4517-1.6006-0.14485 0-0.16507 0.01289-0.40946 1.0795-0.17423 0.76039-0.80565 2.2112-1.824 4.2063-0.96062 1.882-1.1664 2.4507-1.2284 3.7968h-4.8763c1.0633-1.4023 2.2418-3.1045 3.1268-4.4669 0.36238-0.55785 1.0632-1.5699 1.5634-2.2707 1.4285-2.0011 1.5116-2.1999 1.3773-3.9085-0.20234-2.573-0.55106-11.213-0.55836-14.033-7e-3 -2.6871 0.01412-3.079 0.18612-4.1691 0.35062-2.2223 0.9059-3.9164 1.7495-5.3603 0.32967-0.56422 0.68714-0.98012 1.3773-1.6751 1.3781-1.3877 2.5613-2.0786 4.5786-2.6057 1.2316-0.32183 1.7504-0.41565 2.9779-0.44669zm5.3603 16.267c-0.06696 0.02101-0.06814 0.06753-0.11167 0.1489-0.11921 0.22274-0.08826 0.27424 0.33502 0.40946 0.52271 0.16699 0.98898 0.91343 1.1167 1.7123 0.0475 0.29706 0.10171 0.33502 0.26057 0.33502 0.10511 0 0.2759-0.04043 0.33502-0.11167 0.18162-0.21883 0.03457-1.2854-0.22334-1.6751-0.26491-0.4003-0.85022-0.76371-1.3401-0.81893-0.1587-0.0179-0.30529-0.02101-0.37224 0zm-11.056 0.29779c-0.03493 0.0091-0.06257 0.01144-0.11167 0.03722-0.28473 0.14929-0.25326 0.52014 0.07445 0.89338 0.24932 0.28396 0.45716 0.81065 0.55836 1.4145 0.06673 0.39817 0.34601 0.4363 0.48391 0.07445 0.09889-0.25949 0.0697-0.44385-0.18612-1.3028-0.11193-0.37585-0.27375-0.70793-0.44669-0.89338-0.1874-0.20095-0.26747-0.25045-0.37224-0.22334zm6.7748 3.6852c0.40503 0.01688 0.59558 0.14944 0.59558 0.40946 0 0.16413-0.07994 0.27818-0.18612 0.33502-0.09038 0.04837-0.17137 0.11538-0.18612 0.11167-0.01475-0.0035-0.2678-0.08465-0.55836-0.18612-0.49672-0.17346-0.83948-0.46336-0.74448-0.55836 0.02331-0.02331 0.30851-0.04541 0.63281-0.07445 0.19165-0.01717 0.31168-0.04283 0.44669-0.03722zm-4.2808 0.07445c0.294 0 0.53093 0.03008 0.55836 0.07445 0.06411 0.10372-0.18944 0.26057-0.44669 0.26057-0.15107 0-0.24488 0.09805-0.37224 0.37224-0.13952 0.30037-0.22169 0.35045-0.44669 0.37224-0.20455 0.01981-0.29968 0.0239-0.37224-0.11167-0.26958-0.50371 0.23398-0.96782 1.0795-0.96782z" color="#000000" fill="#fff"/>
 </g>
 <style type="text/css"/>
</svg>
