<?xml version="1.0" encoding="UTF-8"?>
<svg width="52.509" height="52.52" version="1.0" viewBox="0 0 52.509 52.52" xmlns="http://www.w3.org/2000/svg" xmlns:xlink="http://www.w3.org/1999/xlink">
 <defs>
  <linearGradient id="linearGradient13956" x1="46.592" x2="43.592" y1="89.585" y2="-74.733" gradientUnits="userSpaceOnUse">
   <stop stop-color="#cdb51a" offset="0"/>
   <stop stop-color="#fff" offset="1"/>
  </linearGradient>
  <linearGradient id="linearGradient13966" x1="26.48" x2="26.48" y1="1.3939" y2="52.843" gradientUnits="userSpaceOnUse">
   <stop stop-color="#fff" offset="0"/>
   <stop stop-color="#fff" stop-opacity="0" offset="1"/>
  </linearGradient>
 </defs>
 <g transform="translate(-3.8191 -6.1557)">
  <g transform="translate(-840.83 182.27)" fill="#71c000" stroke="#71c000" stroke-linejoin="bevel" stroke-width="3.379"></g>
  <g transform="translate(-1426.6 -26.29)" fill="#71c000" stroke="#71c000" stroke-linejoin="bevel" stroke-width="3.379"></g>
  <rect x="4.9083" y="7.2196" width="50.731" height="50.549" ry="7.0914" color="#000000" fill="url(#linearGradient13956)" fill-rule="evenodd" stroke="#2b2b2b" stroke-width=".997"/>
  <g transform="matrix(-.0039739 .6296 -.6296 -.0039739 295.58 -273.62)" fill="#fff"></g>
  <path transform="translate(3.8191 6.1557)" d="m2.1818 45.429-0.18182-37.636s1.0909-5.6364 5.4545-5.8182c4.3636-0.18182 37.455 0 37.455 0s5.8182 0 6 7.2727c0.18182 7.2727-0.18182 36.727-0.18182 36.727" color="black" fill="none" stroke="url(#linearGradient13966)"/>
  <g transform="matrix(.52182 0 0 .52182 -25.936 21.723)" fill="#fff">
   <path d="m116.28-7.4966c-0.2236-1.44-1.0563-1.6151-1.849-0.38872l-9.4158 14.592c-0.79097 1.221-2.6158 2.0363-4.0556 1.8037l-17.145-2.7613c-1.4432-0.23404-1.8662 0.50285-0.94354 1.6324l10.966 13.466c0.91926 1.1325 1.131 3.1155 0.46522 4.4161l-7.9262 15.452c-0.66386 1.3008-0.09507 1.9291 1.2613 1.4032l16.198-6.2707c1.36-0.52396 3.3134-0.11109 4.3438 0.91976l12.245 12.316c1.0288 1.0377 1.8044 0.69423 1.723-0.76309l-0.95752-17.344c-0.0801-1.453 0.91405-3.1848 2.2181-3.8434l15.499-7.8406c1.3015-0.6612 1.2115-1.5041-0.20057-1.8803l-16.786-4.4459c-1.4106-0.37307-2.7464-1.8617-2.9704-3.3011l-2.6696-17.163"/>
   <path d="m116.28-7.4966c-0.2236-1.44-1.0563-1.6151-1.849-0.38872l-9.4158 14.592c-0.79097 1.221-2.6158 2.0363-4.0556 1.8037l-17.145-2.7613c-1.4432-0.23404-1.8662 0.50285-0.94354 1.6324l10.966 13.466c0.91926 1.1325 1.131 3.1155 0.46522 4.4161l-7.9262 15.452c-0.66386 1.3008-0.09507 1.9291 1.2613 1.4032l16.198-6.2707c1.36-0.52396 3.3134-0.11109 4.3438 0.91976l12.245 12.316c1.0288 1.0377 1.8044 0.69423 1.723-0.76309l-0.95752-17.344c-0.0801-1.453 0.91405-3.1848 2.2181-3.8434l15.499-7.8406c1.3015-0.6612 1.2115-1.5041-0.20057-1.8803l-16.786-4.4459c-1.4106-0.37307-2.7464-1.8617-2.9704-3.3011l-2.6696-17.163z"/>
   <g>
    <path d="m144.67 11.815-3.0011 5.511"/>
    <path d="m144.67 11.815-3.0011 5.511"/>
    <path d="m144.67 11.816c-0.59115 0.0131-0.93019 0.05601-1.1096 0.35922-0.19436 0.32842-1.096 2.0123-1.096 2.0123s-0.92522 1.6712-1.0954 2.0123c-0.15711 0.31582-0.01 0.62338 0.29992 1.1272 0.59053-0.0136 0.92957-0.05657 1.109-0.35997 0.19436-0.32842 1.0954-2.0123 1.0954-2.0123s0.92523-1.671 1.096-2.0125c0.1571-0.31532 9e-3 -0.62288-0.2993-1.1262"/>
    <path d="m148.65 18.162-6.3934 0.06595"/>
    <path d="m148.65 18.162-6.3934 0.06595"/>
    <path d="m148.65 18.163c-0.30489-0.51955-0.51167-0.79948-0.87058-0.80892-0.38872-0.0092-2.3342 0.02428-2.3342 0.02428s-1.9467 0.0063-2.3354 0.02397c-0.3583 0.01701-0.55887 0.30104-0.8532 0.82693 0.30489 0.51856 0.51105 0.79849 0.87058 0.80774 0.38872 0.0099 2.3342-0.02428 2.3342-0.02428s1.9467-0.0061 2.3354-0.02403c0.3583-0.01621 0.55887-0.30073 0.8532-0.82569"/>
    <path d="m145.17 24.601-3.3979-5.4365"/>
    <path d="m145.17 24.601-3.3979-5.4365"/>
    <path d="m145.17 24.602c0.28564-0.5329 0.41667-0.85549 0.23721-1.168-0.19498-0.33761-1.2407-1.9853-1.2407-1.9853s-1.0227-1.6618-1.2407-1.9849c-0.20181-0.29812-0.54955-0.32166-1.1537-0.29862-0.2844 0.53216-0.41604 0.8553-0.23596 1.1672 0.19436 0.33768 1.2407 1.9854 1.2407 1.9854s1.0227 1.662 1.2407 1.9853c0.20181 0.29762 0.54954 0.32141 1.1525 0.29887"/>
    <path d="m137.71 24.702 2.9936-5.5064"/>
    <path d="m137.71 24.702 2.9936-5.5064"/>
    <path d="m137.71 24.702c0.59053-0.01335 0.92896-0.057 1.1084-0.35947 0.19312-0.32867 1.0929-2.0108 1.0929-2.0108s0.92274-1.67 1.0935-2.0108c0.15648-0.31532 9e-3 -0.62238-0.30116-1.1255-0.58929 0.01385-0.92771 0.057-1.1066 0.35972-0.19374 0.32842-1.0935 2.0108-1.0935 2.0108s-0.92274 1.6698-1.0929 2.0113c-0.1571 0.31458-9e-3 0.62214 0.2993 1.1247"/>
    <path d="m140.11 18.289"/>
    <path d="m137.2 11.919 3.3985 5.4382"/>
    <path d="m137.2 11.919 3.3985 5.4382"/>
    <path d="m137.2 11.919c-0.28502 0.53266-0.41729 0.85549-0.23721 1.1679 0.19498 0.33792 1.2407 1.9861 1.2407 1.9861s1.0227 1.6622 1.2407 1.9856c0.20243 0.29837 0.55017 0.32141 1.1544 0.29862 0.2844-0.53241 0.41604-0.85531 0.23596-1.1675-0.19436-0.33768-1.2407-1.9858-1.2407-1.9858s-1.0227-1.6628-1.2407-1.9856c-0.20181-0.29887-0.55017-0.3219-1.1531-0.2993"/>
    <path d="m74.436 4.9985c-4.8143 5.4237-7.6038 11.912-8.2572 19.136-0.6384 7.0597 0.49528 16.193 5.5799 21.552 9.3619 9.8664 26.758-1.1073 34.964-7.0702 1.6278-1.1825 2.7557-3.0478 4.3733-4.2229-8.6584 6.2915-25.051 16.517-34.964 7.0701-5.136-4.8937-5.8855-14-5.6391-20.621 0.279-7.4951 3.3738-14.498 8.3167-20.066-1.3385 1.5075-3.0303 2.7099-4.3734 4.2229"/>
   </g>
   <path d="m147.8 17.521-6.3712 0.05617 6.3712-0.05617z" fill-rule="evenodd"/>
  </g>
 </g>
</svg>
