<?xml version="1.0" encoding="UTF-8"?>
<svg width="52.509" height="52.52" version="1.0" viewBox="0 0 52.509 52.52" xmlns="http://www.w3.org/2000/svg" xmlns:xlink="http://www.w3.org/1999/xlink">
 <defs>
  <linearGradient id="linearGradient13956" x1="46.592" x2="43.592" y1="89.585" y2="-74.733" gradientUnits="userSpaceOnUse">
   <stop stop-color="#169500" offset="0"/>
   <stop stop-color="#fff" offset="1"/>
  </linearGradient>
  <linearGradient id="linearGradient13966" x1="26.48" x2="26.48" y1="1.3939" y2="52.843" gradientUnits="userSpaceOnUse">
   <stop stop-color="#fff" offset="0"/>
   <stop stop-color="#fff" stop-opacity="0" offset="1"/>
  </linearGradient>
 </defs>
 <g transform="translate(-3.8191 -6.1557)">
  <g transform="translate(-840.83 182.27)" fill="#71c000" stroke="#71c000" stroke-linejoin="bevel" stroke-width="3.379"></g>
  <g transform="translate(-1426.6 -26.29)" fill="#71c000" stroke="#71c000" stroke-linejoin="bevel" stroke-width="3.379"></g>
  <rect x="4.9083" y="7.2196" width="50.731" height="50.549" ry="7.0914" color="#000000" fill="url(#linearGradient13956)" fill-rule="evenodd" stroke="#2b2b2b" stroke-width=".997"/>
  <g transform="matrix(-.0039739 .6296 -.6296 -.0039739 295.58 -273.62)" fill="#fff"></g>
  <path transform="translate(3.8191 6.1557)" d="m2.1818 45.429-0.18182-37.636s1.0909-5.6364 5.4545-5.8182c4.3636-0.18182 37.455 0 37.455 0s5.8182 0 6 7.2727c0.18182 7.2727-0.18182 36.727-0.18182 36.727" color="black" fill="none" stroke="url(#linearGradient13966)"/>
  <path d="m28.102 21.298 1.972-1e-6c3.1437 0 6.6304 0.60971 10.46 1.8291v-0.02857l0.02857-0.25728v-1.086l0.08576-0.08576c2.8198 0.45722 5.0871 0.96215 6.8019 1.5147 1.2003 0.40009 2.0576 0.80018 2.5721 1.2003 0.5335 0.40009 1.1147 1.5719 1.7433 3.5153 0.20962 0.74305 0.3144 1.1813 0.3144 1.3147-1.2956 0.9717-2.5436 1.4575-3.7439 1.4575-1.5813 0-3.7819-0.91457-6.6019-2.7436v0.02857c0.41918 1.0098 0.67638 1.5814 0.77169 1.7148 2.6674 1.2956 4.525 1.9434 5.5729 1.9434 0.97177 0 2.1911-0.37153 3.6581-1.1146l0.14288-0.02857 0.02857 0.02857v0.11432c0 0.32395-0.15243 0.76214-0.45729 1.3147-0.38107 0.32394-1.2003 0.73351-2.4578 1.2289-1.6767 0.49539-3.3438 0.74305-5.0014 0.74305l-3.7153-0.31433h-0.22857c-1.2956 0-1.9434 0.68593-1.9434 2.0577 0 1.2003 0.59062 2.6483 1.7719 4.3441v0.11432c-0.07629 0-0.62887-0.23819-1.6576-0.71456-1.3718-0.60964-2.0767-0.97163-2.1149-1.0859-1.2003-1.3908-2.0482-2.3149-2.5435-2.7721-1.2004-0.95268-2.4673-1.429-3.8011-1.429-1.6194 0-2.6961 0.58115-3.2295 1.7433-0.19054 0.59063-0.28584 1.2098-0.28584 1.8576 0 0.40009 0.04765 0.98117 0.14288 1.7433h-0.02857l-2.172-1.0288c-0.4382-0.20962-0.6573-0.33342-0.6573-0.37153-0.1525-0.70495-0.33342-1.3051-0.54311-1.8004-0.32388-0.80025-0.9145-1.6576-1.7719-2.5721-1.429-1.3719-3.039-2.0577-4.8299-2.0577h-0.31433c-1.9625 0-3.4581 0.83836-4.487 2.515-0.40009 0.64775-0.60017 1.3718-0.60017 2.172 0 1.6576 0.74305 3.0104 2.2292 4.0582 0.81927 0.45736 1.6957 0.68586 2.6293 0.68586 1.5813 0 2.6007-0.63821 3.058-1.9147 0.09523-0.28584 0.14288-0.58122 0.14288-0.88594 0-1.0099-0.48585-1.8482-1.4575-2.515-0.4382-0.20962-0.89555-0.3144-1.3718-0.3144-0.66691 0-1.1432 0.27629-1.429 0.82881l-0.05719 0.37146c0 0.45729 0.24766 0.76214 0.74305 0.91457l0.11425 0.02856c0.11432 0 0.39062-0.05719 0.82881-0.17152h0.20007c0.24766 0 0.46683 0.0953 0.6573 0.28577 0.19054 0.20955 0.28584 0.44774 0.28584 0.71449 0 0.68593-0.6288 1.0955-1.8863 1.2289h-0.20001c-0.85738 0-1.6481-0.43813-2.3721-1.3147-0.32395-0.57154-0.48585-1.1241-0.48585-1.6576v-0.02857c0-1.467 0.80025-2.5245 2.4007-3.1723 0.55252-0.13334 1.0098-0.20008 1.3718-0.20008 1.6004 0 2.9627 0.72404 4.0869 2.172 0.59063 0.93359 0.88594 1.8957 0.88594 2.8865v0.14288c0 1.429-0.61919 2.7149-1.8576 3.8582-1.086 0.81927-2.3435 1.229-3.7725 1.229h-0.14288c-2.4006 0-4.4107-0.9717-6.0302-2.9151-0.76207-1.1051-1.2098-2.134-1.3432-3.0865-0.095303-0.38107-0.14288-0.83829-0.14288-1.3718 0-3.0866 1.5909-6.0493 4.7727-8.8882 1.1622-0.93359 2.1625-1.6385 3.0008-2.1148 1.5813-0.95268 3.1342-1.7244 4.6584-2.315 2.7056-1.0289 5.2396-1.5433 7.6022-1.5433zm16.69 5.6015c0 1.0098 0.52402 1.8101 1.5719 2.4007 0.38107 0.13334 0.71442 0.20008 1.0001 0.20008h0.05719c1.0861 0 1.8958-0.56206 2.4292-1.6862 0.0953-0.30486 0.15243-0.60972 0.17152-0.91457 0-1.0098-0.52388-1.8101-1.5718-2.4007-0.38107-0.13341-0.71449-0.20008-1.0003-0.20008h-0.05719c-1.0859 0-1.8958 0.56206-2.4292 1.6862-0.11432 0.38114-0.17152 0.68593-0.17152 0.91457zm2.6008-1.8576 0.0285-1e-6c0.74312 0 1.2956 0.35244 1.6576 1.0575 0.11432 0.22864 0.17152 0.48585 0.17152 0.77162v0.02857c0 0.87639-0.46683 1.4671-1.4004 1.7719l-0.45729 0.05719c-0.72404 0-1.2766-0.36205-1.6576-1.086-0.11432-0.28577-0.17145-0.54297-0.17145-0.77169 0-0.72396 0.35244-1.2765 1.0575-1.6576 0.22871-0.11432 0.48585-0.17152 0.77169-0.17152zm-0.4001 1.429 3e-6 0.08569c0 0.24766 0.26668 0.40963 0.80018 0.48585 0.51434-0.07621 0.77169-0.24766 0.77169-0.51441-0.07628-0.36198-0.33349-0.54298-0.77169-0.54298h-0.02857c-0.51434 0.05712-0.77162 0.2191-0.77162 0.48585z" fill="#fff"/>
 </g>
</svg>
