<?xml version="1.0" encoding="UTF-8"?>
<svg width="52.509" height="52.52" version="1.0" viewBox="0 0 52.509 52.52" xmlns="http://www.w3.org/2000/svg" xmlns:xlink="http://www.w3.org/1999/xlink">
 <defs>
  <linearGradient id="linearGradient13956" x1="46.592" x2="43.592" y1="89.585" y2="-74.733" gradientUnits="userSpaceOnUse">
   <stop stop-color="#5583a3" offset="0"/>
   <stop stop-color="#fff" offset="1"/>
  </linearGradient>
  <linearGradient id="linearGradient13966" x1="26.48" x2="26.48" y1="1.3939" y2="52.843" gradientUnits="userSpaceOnUse">
   <stop stop-color="#fff" offset="0"/>
   <stop stop-color="#fff" stop-opacity="0" offset="1"/>
  </linearGradient>
 </defs>
 <g transform="translate(-3.8191 -6.1557)">
  <g transform="translate(-840.83 182.27)" fill="#71c000" stroke="#71c000" stroke-linejoin="bevel" stroke-width="3.379"></g>
  <g transform="translate(-1426.6 -26.29)" fill="#71c000" stroke="#71c000" stroke-linejoin="bevel" stroke-width="3.379"></g>
  <rect x="4.9083" y="7.2196" width="50.731" height="50.549" ry="7.0914" color="#000000" fill="url(#linearGradient13956)" fill-rule="evenodd" stroke="#2b2b2b" stroke-width=".997"/>
  <g transform="matrix(-.0039739 .6296 -.6296 -.0039739 295.58 -273.62)" fill="#fff"></g>
  <path transform="translate(3.8191 6.1557)" d="m2.1818 45.429-0.18182-37.636s1.0909-5.6364 5.4545-5.8182c4.3636-0.18182 37.455 0 37.455 0s5.8182 0 6 7.2727c0.18182 7.2727-0.18182 36.727-0.18182 36.727" color="black" fill="none" stroke="url(#linearGradient13966)"/>
  <g transform="matrix(.4789 0 0 .4789 8.5884 10.994)" fill="#fff">
   <path d="m14.597 49.891c-2.5798 2.9483-7.0023 2.9483-10.319 0-2.9483-2.9483-2.9483-7.3709 0-10.319l17.322-16.953 4.4225 4.4225-17.322 17.322 1.4743 1.1056 17.321-17.321 4.4225 4.7911-17.321 16.953h-1e-5zm13.636-10.688c2.9483-2.5797 7.3709-2.5797 10.319 0 2.9483 2.9484 2.9483 7.7395 0 10.688l-16.953 16.953-4.7911-4.4225 17.322-17.322-1.4742-1.4742-16.953 17.321-4.791-4.4225 17.321-17.322h-1e-5zm22.113 35.749c2.9483 2.5798 2.9483 7.3709 0 10.319-2.9483 2.9483-7.3709 2.9483-10.319 0l-17.322-16.953 4.7911-4.7911 16.953 17.322 1.4742-1.4742-17.321-16.953 4.7911-4.7911 16.953 17.321zm-10.688-13.636c-2.9484-2.5798-2.9484-7.3709 0-10.319 2.9483-2.9483 7.7394-2.9483 10.688 0l16.953 17.322-4.4225 4.4225-17.322-17.321-1.4742 1.4742 17.321 16.953-4.4225 4.7911-17.321-17.322zm22.112-11.425c-2.9483 2.9483-7.3708 2.9483-10.319 0-2.9483-2.9483-2.9483-7.3709 0-10.319l16.953-16.953 4.4226 4.4225-16.953 17.322 1.1056 1.1056 17.322-17.321 4.7911 4.7911-17.322 16.953h-2e-5zm13.268-10.688c2.9483-2.5797 7.7394-2.5797 10.688 0 2.5798 2.9484 2.5798 7.7395 0 10.688l-17.322 16.953-4.4225-4.4225 16.953-17.322-1.1056-1.4742-16.953 17.321-4.7911-4.4225 16.953-17.322zm-24.692-11.425c2.9483 2.9483 2.9483 7.7394 0 10.319-2.9483 2.9483-7.3709 2.9483-10.319 0l-17.322-16.953 4.7911-4.4226 16.953 16.953 1.4742-1.1057-17.321-17.322 4.7911-4.4225 16.953 16.953v3e-5zm-10.688-13.268c-2.9484-2.9483-2.9484-7.7394 0-10.319 2.9483-2.9484 7.7394-2.9484 10.688 0l16.953 16.953-4.4225 4.4225-17.322-16.953-1.4742 1.1056 17.321 17.322-4.4225 4.4225-17.321-16.953z" fill="#fff"/>
  </g>
 </g>
</svg>
