<?xml version="1.0" encoding="UTF-8"?>
<svg width="52.509" height="52.52" version="1.0" viewBox="0 0 52.509 52.52" xmlns="http://www.w3.org/2000/svg" xmlns:xlink="http://www.w3.org/1999/xlink">
 <defs>
  <linearGradient id="linearGradient13966" x1="26.48" x2="26.48" y1="1.3939" y2="52.843" gradientUnits="userSpaceOnUse">
   <stop stop-color="#fff" offset="0"/>
   <stop stop-color="#fff" stop-opacity="0" offset="1"/>
  </linearGradient>
  <linearGradient id="linearGradient45717" x1="26.48" x2="26.48" y1="1.3939" y2="52.843" gradientTransform="translate(3.8646 6.0875)" gradientUnits="userSpaceOnUse">
   <stop stop-color="#fff" offset="0"/>
   <stop stop-color="#fff" stop-opacity="0" offset="1"/>
  </linearGradient>
  <linearGradient id="linearGradient45721" x1="46.592" x2="43.592" y1="89.585" y2="-74.733" gradientTransform="translate(.045477 -.068185)" gradientUnits="userSpaceOnUse">
   <stop stop-color="#dbdbdb" offset="0"/>
   <stop stop-color="#fff" offset="1"/>
  </linearGradient>
  <style type="text/css">.str1 {stroke:#373435;stroke-width:0.19326}
    .str0 {stroke:#373435;stroke-width:0.19326;stroke-linejoin:bevel}
    .fil1 {fill:none}
    .fil7 {fill:#00AFEF}
    .fil6 {fill:#ED3237}
    .fil5 {fill:#F58634}
    .fil8 {fill:#FFF212}
    .fil2 {fill:#000203}
    .fil3 {fill:#030101}
    .fil4 {fill:#030201}
    .fil0 {fill:#030300}</style>
  <style type="text/css"/>
 </defs>
 <g transform="translate(-3.8191 -6.1557)">
  <rect x="4.9538" y="7.1514" width="50.731" height="50.549" rx="7.0914" ry="7.0914" color="#000000" fill="url(#linearGradient45721)" fill-rule="evenodd" stroke="#2b2b2b" stroke-width=".997"/>
  <path d="m6.0464 51.517-0.18182-37.636s1.0909-5.6364 5.4545-5.8182c4.3636-0.18182 37.455 0 37.455 0s5.8182 0 6 7.2727c0.18182 7.2727-0.18182 36.727-0.18182 36.727" color="#000000" fill="none" stroke="url(#linearGradient45717)"/>
  <g transform="translate(-840.83 182.27)" fill="#71c000" stroke="#71c000" stroke-linejoin="bevel" stroke-width="3.379"></g>
  <g transform="translate(-1426.6 -26.29)" fill="#71c000" stroke="#71c000" stroke-linejoin="bevel" stroke-width="3.379"></g>
  <path transform="translate(3.8191 6.1557)" d="m2.1818 45.429-0.18182-37.636s1.0909-5.6364 5.4545-5.8182c4.3636-0.18182 37.455 0 37.455 0s5.8182 0 6 7.2727c0.18182 7.2727-0.18182 36.727-0.18182 36.727" color="#000000" fill="none" stroke="url(#linearGradient13966)"/>
  <g transform="translate(-754.29 187.45)" fill="#71c000" stroke="#71c000" stroke-linejoin="bevel" stroke-width="3.379"></g>
  <g transform="translate(-1340.1 -21.108)" fill="#71c000" stroke="#71c000" stroke-linejoin="bevel" stroke-width="3.379"></g>
  <g transform="translate(-727.65 184.91)" fill="#71c000" stroke="#71c000" stroke-linejoin="bevel" stroke-width="3.379"></g>
  <g transform="translate(-1313.4 -23.649)" fill="#71c000" stroke="#71c000" stroke-linejoin="bevel" stroke-width="3.379"></g>
  <g transform="translate(-790.62 185.07)" fill="#71c000" stroke="#71c000" stroke-linejoin="bevel" stroke-width="3.379"></g>
  <g transform="translate(-1376.4 -23.49)" fill="#71c000" stroke="#71c000" stroke-linejoin="bevel" stroke-width="3.379"></g>
  <g transform="translate(-787.81 182.24)" fill="#71c000" stroke="#71c000" stroke-linejoin="bevel" stroke-width="3.379"></g>
  <g transform="translate(-1373.6 -26.319)" fill="#71c000" stroke="#71c000" stroke-linejoin="bevel" stroke-width="3.379"></g>
  <g transform="translate(-701.26 187.42)" fill="#71c000" stroke="#71c000" stroke-linejoin="bevel" stroke-width="3.379"></g>
  <g transform="translate(-1287 -21.137)" fill="#71c000" stroke="#71c000" stroke-linejoin="bevel" stroke-width="3.379"></g>
  <g transform="translate(-674.63 184.88)" fill="#71c000" stroke="#71c000" stroke-linejoin="bevel" stroke-width="3.379"></g>
  <g transform="translate(-1260.4 -23.678)" fill="#71c000" stroke="#71c000" stroke-linejoin="bevel" stroke-width="3.379"></g>
  <g transform="translate(-737.6 185.04)" fill="#71c000" stroke="#71c000" stroke-linejoin="bevel" stroke-width="3.379"></g>
  <g transform="translate(-1323.4 -23.52)" fill="#71c000" stroke="#71c000" stroke-linejoin="bevel" stroke-width="3.379"></g>
  <g transform="translate(-786.75 181.68)" fill="#71c000" stroke="#71c000" stroke-linejoin="bevel" stroke-width="3.379"></g>
  <g transform="translate(-1372.5 -26.881)" fill="#71c000" stroke="#71c000" stroke-linejoin="bevel" stroke-width="3.379"></g>
  <g transform="translate(-700.2 186.86)" fill="#71c000" stroke="#71c000" stroke-linejoin="bevel" stroke-width="3.379"></g>
  <g transform="translate(-1286 -21.699)" fill="#71c000" stroke="#71c000" stroke-linejoin="bevel" stroke-width="3.379"></g>
  <g transform="translate(-673.57 184.32)" fill="#71c000" stroke="#71c000" stroke-linejoin="bevel" stroke-width="3.379"></g>
  <g transform="translate(-1259.3 -24.24)" fill="#71c000" stroke="#71c000" stroke-linejoin="bevel" stroke-width="3.379"></g>
  <g transform="translate(-736.54 184.48)" fill="#71c000" stroke="#71c000" stroke-linejoin="bevel" stroke-width="3.379"></g>
  <g transform="translate(-1322.3 -24.081)" fill="#71c000" stroke="#71c000" stroke-linejoin="bevel" stroke-width="3.379"></g>
  <g transform="translate(-787.78 183.3)" fill="#71c000" stroke="#71c000" stroke-linejoin="bevel" stroke-width="3.379"></g>
  <g transform="translate(-1373.6 -25.263)" fill="#71c000" stroke="#71c000" stroke-linejoin="bevel" stroke-width="3.379"></g>
  <g transform="translate(-701.23 188.48)" fill="#71c000" stroke="#71c000" stroke-linejoin="bevel" stroke-width="3.379"></g>
  <g transform="translate(-1287 -20.081)" fill="#71c000" stroke="#71c000" stroke-linejoin="bevel" stroke-width="3.379"></g>
  <g transform="translate(-674.59 185.94)" fill="#71c000" stroke="#71c000" stroke-linejoin="bevel" stroke-width="3.379"></g>
  <g transform="translate(-1260.4 -22.622)" fill="#71c000" stroke="#71c000" stroke-linejoin="bevel" stroke-width="3.379"></g>
  <g transform="translate(-737.57 186.1)" fill="#71c000" stroke="#71c000" stroke-linejoin="bevel" stroke-width="3.379"></g>
  <g transform="translate(-1323.3 -22.464)" fill="#71c000" stroke="#71c000" stroke-linejoin="bevel" stroke-width="3.379"></g>
  <g transform="translate(-784.91 184.78)" fill="#71c000" stroke="#71c000" stroke-linejoin="bevel" stroke-width="3.379"></g>
  <g transform="translate(-1370.7 -23.784)" fill="#71c000" stroke="#71c000" stroke-linejoin="bevel" stroke-width="3.379"></g>
  <g transform="translate(-698.37 189.96)" fill="#71c000" stroke="#71c000" stroke-linejoin="bevel" stroke-width="3.379"></g>
  <g transform="translate(-1284.1 -18.602)" fill="#71c000" stroke="#71c000" stroke-linejoin="bevel" stroke-width="3.379"></g>
  <g transform="translate(-671.73 187.42)" fill="#71c000" stroke="#71c000" stroke-linejoin="bevel" stroke-width="3.379"></g>
  <g transform="translate(-1257.5 -21.143)" fill="#71c000" stroke="#71c000" stroke-linejoin="bevel" stroke-width="3.379"></g>
  <g transform="translate(-734.71 187.58)" fill="#71c000" stroke="#71c000" stroke-linejoin="bevel" stroke-width="3.379"></g>
  <g transform="translate(-1320.5 -20.985)" fill="#71c000" stroke="#71c000" stroke-linejoin="bevel" stroke-width="3.379"></g>
  <g transform="translate(-718 181.35)" fill="#71c000" stroke="#71c000" stroke-linejoin="bevel" stroke-width="3.379"></g>
  <g transform="translate(-1303.8 -27.211)" fill="#71c000" stroke="#71c000" stroke-linejoin="bevel" stroke-width="3.379"></g>
  <g transform="translate(-631.46 186.53)" fill="#71c000" stroke="#71c000" stroke-linejoin="bevel" stroke-width="3.379"></g>
  <g transform="translate(-1217.2 -22.029)" fill="#71c000" stroke="#71c000" stroke-linejoin="bevel" stroke-width="3.379"></g>
  <g transform="translate(-604.82 183.99)" fill="#71c000" stroke="#71c000" stroke-linejoin="bevel" stroke-width="3.379"></g>
  <g transform="translate(-1190.6 -24.57)" fill="#71c000" stroke="#71c000" stroke-linejoin="bevel" stroke-width="3.379"></g>
  <g transform="translate(-667.79 184.15)" fill="#71c000" stroke="#71c000" stroke-linejoin="bevel" stroke-width="3.379"></g>
  <g transform="translate(-1253.6 -24.412)" fill="#71c000" stroke="#71c000" stroke-linejoin="bevel" stroke-width="3.379"></g>
  <g transform="matrix(.1432 0 0 .1432 82.427 -26.735)">
   <g transform="matrix(3.5433 0 0 3.5433 -3.5917 -49.604)" fill-rule="evenodd">
    <path d="m-135.78 119.23c-2.6471-0.35544-4.1196-1.5038-4.7193-3.6806-0.19613-0.7118-0.34674-3.2645-0.22949-3.8895l0.0744-0.39672 4.7116 0.0584 0.0641 1.1941c0.0696 1.2976 0.21222 1.7166 0.7208 2.1178 0.25364 0.20007 0.40635 0.23054 0.97567 0.19464 1.1608-0.0732 1.4987-0.61967 1.4205-2.2974-0.0808-1.7349-0.31377-2.0661-3.1267-4.4456-2.9636-2.507-4.1744-3.8623-4.6246-5.1766-0.29568-0.86329-0.29994-4.201-7e-3 -5.1518 0.6023-1.9519 1.592-2.89 3.6375-3.4478 0.68462-0.18669 1.1653-0.22844 2.7306-0.23715 1.8032-0.01 1.9469 5e-3 2.8285 0.29391 2.1026 0.68931 3.0613 2.0442 3.3605 4.749 0.1327 1.1997 0.0597 2.4919-0.14826 2.6252-0.0684 0.0439-1.1076 0.0805-2.3094 0.0814-1.6194 1e-3 -2.213-0.0335-2.2934-0.13404-0.0597-0.0746-0.13107-0.6278-0.15868-1.2293-0.0734-1.5994-0.37138-2.0003-1.4868-2.0003-0.94695 0-1.4208 0.62663-1.4208 1.879 0 0.83879 0.21152 1.5875 0.58789 2.0809 0.15428 0.20228 1.1232 1.0722 2.1531 1.933 2.6557 2.2198 3.4753 3.0166 4.1393 4.0241 1.026 1.5567 1.0961 1.8363 1.0925 4.3581-2e-3 1.6723-0.0454 2.3397-0.18719 2.9048-0.47561 1.8956-1.4629 2.8844-3.3892 3.3944-0.65088 0.17232-3.5988 0.30502-4.3965 0.19791zm13.081-0.0824c-2.3314-0.39359-3.3993-1.2985-3.9856-3.3772-0.2437-0.86411-0.24436-0.88875-0.24436-9.1167 0-8.2092 1e-3 -8.2545 0.24248-9.1094 0.52539-1.8614 1.3908-2.7248 3.2369-3.2291 0.74368-0.20318 1.1435-0.23471 2.9759-0.23471s2.2322 0.0315 2.9759 0.23471c1.954 0.53384 2.831 1.4957 3.285 3.6029 0.1817 0.84329 0.19789 1.5723 0.19519 8.7899-3e-3 6.9222-0.0247 7.9708-0.18335 8.7043-0.44748 2.0687-1.4064 3.0911-3.396 3.6207-0.90478 0.24083-3.9492 0.30918-5.1021 0.11456zm2.9816-4.2709c0.20694-0.1044 0.47561-0.36078 0.59706-0.56975 0.21605-0.37178 0.2208-0.5363 0.2208-7.6532 0-7.95 0.0236-7.6468-0.6325-8.1319-0.2297-0.16984-0.46419-0.22599-0.93287-0.22335-0.74854 4e-3 -1.0887 0.19583-1.3766 0.77538-0.19629 0.39525-0.2062 0.7597-0.2062 7.5799v7.1647l0.25046 0.46922c0.39493 0.73986 1.2825 0.99124 2.0798 0.58904zm11.076 4.3457c-1.2843-0.14662-2.4811-0.6058-3.1812-1.2205-0.52348-0.45962-1.0077-1.4394-1.2092-2.4465-0.15328-0.76624-0.17025-2.0821-0.14418-11.181l0.0295-10.313h2.3882 2.3882l0.0543 9.9871c0.0504 9.2684 0.068 10.012 0.24538 10.337 0.25148 0.46006 0.4879 0.57313 1.1984 0.57313 0.716 0 1.1026-0.25843 1.2658-0.84624 0.0726-0.26155 0.11249-3.799 0.11396-10.118 1e-3 -5.3437 0.0417-9.7778 0.0898-9.8537 0.0673-0.10603 0.62522-0.13112 2.4137-0.10855l2.3262 0.0293v10.693 10.693l-0.25172 0.76791c-0.72344 2.207-2.5194 3.11-6.0988 3.0663-0.68661-8e-3 -1.4194-0.0347-1.6283-0.0586zm26.759-0.0824c-2.3034-0.36872-3.4075-1.303-3.9821-3.3696-0.2362-0.84939-0.24172-1.014-0.28032-8.3568-0.04797-9.1263 0.01265-9.915 0.87244-11.349 0.46752-0.77982 1.2342-1.3435 2.3045-1.6942 0.76518-0.25076 1.0962-0.29085 2.7836-0.33717 2.7108-0.0744 4.1583 0.21138 5.2496 1.0365 1.3305 1.006 1.8433 2.8366 1.77 6.3191l-0.03312 1.5741-2.3805 0.0293c-1.8319 0.0226-2.4006-2e-3 -2.468-0.10855-0.04813-0.0758-0.08932-0.87062-0.09155-1.7662-0.0046-1.8586-0.15395-2.4009-0.74525-2.7067-0.79851-0.41293-1.8904-0.0566-2.1518 0.70217-0.09507 0.27603-0.13115 2.2982-0.13553 7.5952-0.0055 6.6627 0.0087 7.2482 0.18384 7.5989 0.25926 0.51898 0.80546 0.78817 1.457 0.71809 1.1656-0.12536 1.3297-0.46552 1.3678-2.8349 0.01632-1.015 0.05412-1.9563 0.084-2.0918l0.05433-0.24632 4.8256 0.0584 0.0321 1.7369c0.09818 5.3124-0.95926 7.0561-4.5722 7.5396-1.1144 0.14912-3.0574 0.12714-4.1444-0.0469zm9.6343 0.0886c-0.10746-0.0434-0.1357-2.673-0.1357-12.638v-12.583h5.2129 5.2129l-0.02934 2.2525-0.02934 2.2525-5.4278 0.1086v2.5511 2.5511l5.2107 0.1086 0.02933 2.2506 0.02934 2.2506-5.2694 0.0582-0.0288 3.1191-0.0288 3.1191 5.4854 0.058 0.02945 2.2176c0.0226 1.7016-0.0027 2.238-0.10856 2.3052-0.147 0.0933-9.9228 0.11162-10.152 0.019zm-27.549-0.17019c-0.02888-0.0758-0.03993-5.7312-0.02456-12.568l0.02794-12.43 8.4674 2e-3 0.85666 0.30173c1.6706 0.5884 2.6784 1.5563 3.0475 2.9268 0.15344 0.56973 0.17682 1.1162 0.14738 3.4453l-0.03498 2.7682-0.30514 0.6214c-0.36182 0.73682-0.98972 1.3081-1.7492 1.5914-0.30305 0.11305-0.551 0.23878-0.551 0.27941 0 0.0406 0.25403 0.15987 0.56451 0.26498 1.1673 0.39518 1.8216 1.0721 2.2317 2.309 0.21369 0.64453 0.23055 0.97119 0.27089 5.2467 0.04018 4.2592 0.05677 4.583 0.252 4.9184 0.11494 0.19746 0.20899 0.38065 0.20899 0.40709 0 0.0264-1.0916 0.0481-2.4257 0.0481-2.3275 0-2.4341-9e-3 -2.6325-0.22833-0.19456-0.2148-0.21001-0.49918-0.26108-4.8036-0.06187-5.2149-0.04273-5.1058-0.97949-5.5824-0.41253-0.20989-0.62554-0.24272-1.4087-0.21711l-0.92272 0.0302-0.05428 5.3735-0.05428 5.3735-2.3094 0.0293c-1.7886 0.0227-2.3212-2e-3 -2.3619-0.10856zm6.8888-15.223c0.67349-0.34828 0.76693-0.66618 0.76693-2.6094 0-1.9697-0.08745-2.2536-0.7979-2.5907-0.5269-0.25003-1.7477-0.36151-1.9669-0.17961-0.14008 0.11625-0.16544 0.54996-0.16544 2.8289 0 2.0479 0.03245 2.7064 0.1357 2.7534 0.25704 0.1172 1.6851-0.0255 2.0276-0.20256z"/>
    <path d="m-123.17 171.54c0-0.0611 0.0453-0.11121 0.1007-0.11121s0.11223-0.28984 0.12611-0.6441c0.014-0.35425 0.35718-6.5514 0.76275-13.771 0.40556-7.22 0.72147-13.403 0.70201-13.741l-0.0354-0.61343-3.1285 0.0818v-0.6237-0.62372h1.1159c1.2555 0 1.6456-0.15099 2.0238-0.78341 0.20195-0.33767 0.23862-0.78151 0.31544-3.8173 0.12809-5.0625 0.47539-6.9575 1.7538-9.5695 0.36329-0.74225 0.92713-1.6762 1.253-2.0756 0.64921-0.79559 1.6096-1.5201 2.161-1.6304 0.23055-0.0461 0.30006-0.10318 0.20059-0.16464-0.24759-0.15302 1.2152-0.28778 1.5207-0.14011 0.14738 0.0712 0.19895 0.13326 0.1146 0.13783-0.11336 6e-3 -0.15335 0.37792-0.15335 1.4253v1.417l-0.70206-0.0369-0.70206-0.0368-0.0996-0.50621c-0.12586-0.63963-0.46016-0.96183-0.88681-0.85475-0.45977 0.11539-0.73818 0.44735-1.0305 1.2287-0.35952 0.96089-0.45278 2.0698-0.76275 9.0694-0.23182 5.2347-0.246 6.131-0.0984 6.2244 0.0948 0.06 1.1277 0.10997 2.2954 0.11098l2.123 2e-3 -0.0748 1.1367-2.2384-0.0233c-2.2312-0.0233-2.2388-0.0224-2.3592 0.25977-0.0663 0.15569-0.64615 6.3008-1.2883 13.656-0.64215 7.355-1.1995 13.627-1.2385 13.938l-0.0709 0.56527-0.66725 0.14932c-0.36698 0.0822-0.63954 0.19414-0.6057 0.24892 0.0339 0.0548-0.0483 0.12829-0.18244 0.1634-0.1342 0.035-0.24399 0.0138-0.24399-0.0474zm20.855-10.877c-6.1e-4 -0.0506 0.19742-3.7799 0.4402-8.2873 0.24278-4.5074 0.41069-8.2754 0.37314-8.3733-0.0951-0.24777-0.47903-0.22437-2.1122 0.12873-0.78024 0.1687-1.497 0.30672-1.5928 0.30672-0.12412 0-0.17423-0.15532-0.17423-0.54004v-0.54005l0.76679-0.0859c1.0242-0.11471 3.7589-0.81704 4.7924-1.2308 0.45706-0.18297 0.85937-0.3043 0.89404-0.26963 0.0347 0.0347-0.0461 1.2356-0.17939 2.6687-0.32766 3.5217-0.24135 3.6774 0.8419 1.5182 1.1965-2.3848 2.2615-3.5459 3.644-3.973 0.43918-0.13565 0.93072-0.24664 1.0923-0.24664 0.2936 0 0.29378 8.6e-4 0.29378 1.4722v1.4722l-0.52141 2e-3c-1.4669 8e-3 -2.5871 1.2266-4.2145 4.5862-0.96402 1.9902-1.5479 3.7569-2.0079 6.0754-0.31957 1.6107-0.43338 2.3957-0.68169 4.702l-0.0759 0.70545h-0.78863c-0.43374 0-0.78918-0.0414-0.78985-0.092zm12.87-0.0858c-1.8917-0.52168-3.1795-1.9834-3.8084-4.323-0.31038-1.1545-0.36564-3.8337-0.11721-5.682 0.70089-5.2147 2.4387-8.2589 5.1923-9.0952 0.69501-0.2111 1.0639-0.24947 1.9198-0.19967 1.2358 0.0719 1.7597 0.2635 2.4663 0.9019 1.2447 1.1245 1.6642 3.3292 1.1582 6.0865l-0.1959 1.0674-0.75517 0.24808c-1.5519 0.5098-4.7745 1.2169-6.4969 1.4254-0.39138 0.0473-0.7849 0.15948-0.87452 0.24909-0.23958 0.23958-0.3406 1.5726-0.2008 2.6498 0.4465 3.4406 1.8002 5.1827 4.1534 5.345 2.311 0.15938 4.458-1.8589 4.788-4.5008 0.04678-0.37446 0.12623-0.66704 0.17654-0.65016 0.05034 0.017 0.23291 0.0306 0.40573 0.0306 0.30459 0 0.31171 0.0179 0.23223 0.58276-0.12574 0.89371-0.64133 2.3451-1.1031 3.1052-0.5245 0.86343-1.5463 1.8358-2.365 2.2507-1.2685 0.6428-3.2785 0.8662-4.5754 0.50854zm0.68796-10.626c2.551-0.37682 3.2526-0.78677 3.9762-2.3233 0.28897-0.61361 0.31778-0.81376 0.31778-2.2083 0-1.4598-0.0176-1.5687-0.36806-2.2642-0.48912-0.97094-0.85992-1.2295-1.7545-1.2236-1.6774 0.0113-2.9428 1.4519-3.7637 4.2853-0.45963 1.5864-0.73302 3.4087-0.55991 3.7322 0.16656 0.31122 0.05931 0.31112 2.1522 2e-3zm-21.851 10.344c0.13142-0.64943 0.4437-3.1763 0.63304-5.1221 0.11268-1.1584 0.22002-3.9064 0.26182-6.7049 0.0684-4.5769 0.0627-4.7435-0.16037-4.7888-0.19648-0.0399-0.83503 0.058-2.8996 0.44406-0.32207 0.0602-0.33739 0.0409-0.33739-0.42458 0-0.26822 0.0249-0.48768 0.0551-0.48768 0.38687 0 2.9536-0.60254 4.2389-0.99508 0.91095-0.27822 1.7557-0.53418 1.8773-0.56881 0.19763-0.0563 0.21367 5e-4 0.15151 0.53578-0.0382 0.32929-0.3483 4.4909-0.68902 9.2481-0.34072 4.7571-0.65734 8.6817-0.7036 8.7212-0.10205 0.0871-1.9635 0.48022-2.2743 0.48022-0.17654 0-0.20775-0.0686-0.15335-0.33738zm29.13-19.657c-1.5159-0.82385-1.4774-3.1746 0.06415-3.9208 1.4834-0.7181 3.1345 0.20601 3.239 1.8129 0.05366 0.82482-0.18984 1.3557-0.87681 1.9117-0.5967 0.48296-1.7301 0.5746-2.4264 0.1962zm2.1439-0.44124c0.4908-0.35583 0.86663-1.1988 0.77799-1.745-0.20372-1.2554-1.5697-1.9715-2.6576-1.3934-1.2694 0.67456-1.3196 2.4446-0.09122 3.216 0.50021 0.3141 1.484 0.27538 1.9709-0.0775zm-1.924-0.48732c-0.13839-0.36065-0.0839-2.0856 0.07076-2.2403 0.2096-0.2096 1.0977-0.18224 1.4204 0.0437 0.28965 0.20287 0.37206 0.76471 0.14543 0.99135-0.08787 0.0878-0.08787 0.23082 0 0.46192 0.06998 0.18408 0.12725 0.47316 0.12725 0.64241 0 0.47268-0.39968 0.32451-0.50429-0.18694-0.16001-0.78232-0.74853-0.84068-0.84527-0.0839-0.06486 0.5075-0.28602 0.70588-0.41428 0.37161zm1.1992-1.5629c0.10439-0.16849 0.09331-0.24492-0.0488-0.33551-0.44299-0.2824-0.86266-0.0144-0.68845 0.43962 0.09535 0.24851 0.55935 0.183 0.73727-0.10409zm-29.127-1.346c-0.83664-0.56942-1.1549-1.3559-0.96522-2.3853 0.2416-1.3112 1.2494-2.0894 2.2989-1.775 0.68715 0.20587 1.1884 0.66346 1.4355 1.3103 0.699 1.8303-1.2779 3.8649-2.7692 2.8499z" fill="#ed3c41" fill-rule="evenodd"/>
   </g>
  </g>
 </g>
</svg>
