<?xml version="1.0" encoding="UTF-8"?>
<svg width="52.509" height="52.52" version="1.0" viewBox="0 0 52.509 52.52" xmlns="http://www.w3.org/2000/svg" xmlns:xlink="http://www.w3.org/1999/xlink">
 <defs>
  <linearGradient id="linearGradient13956" x1="46.592" x2="43.592" y1="89.585" y2="-74.733" gradientUnits="userSpaceOnUse">
   <stop stop-color="#bf0e07" offset="0"/>
   <stop stop-color="#dda28e" offset="1"/>
  </linearGradient>
  <linearGradient id="linearGradient13966" x1="26.48" x2="26.48" y1="1.3939" y2="52.843" gradientUnits="userSpaceOnUse">
   <stop stop-color="#fff" offset="0"/>
   <stop stop-color="#fff" stop-opacity="0" offset="1"/>
  </linearGradient>
 </defs>
 <g transform="translate(-3.8191 -6.1557)">
  <g transform="translate(-840.83 182.27)" fill="#71c000" stroke="#71c000" stroke-linejoin="bevel" stroke-width="3.379"></g>
  <g transform="translate(-1426.6 -26.29)" fill="#71c000" stroke="#71c000" stroke-linejoin="bevel" stroke-width="3.379"></g>
  <rect x="4.9083" y="7.2196" width="50.731" height="50.549" ry="7.0914" color="#000000" fill="url(#linearGradient13956)" fill-rule="evenodd" stroke="#2b2b2b" stroke-width=".997"/>
  <g transform="matrix(-.0039739 .6296 -.6296 -.0039739 295.58 -273.62)" fill="#fff"></g>
  <path transform="translate(3.8191 6.1557)" d="m2.1818 45.429-0.18182-37.636s1.0909-5.6364 5.4545-5.8182c4.3636-0.18182 37.455 0 37.455 0s5.8182 0 6 7.2727c0.18182 7.2727-0.18182 36.727-0.18182 36.727" color="black" fill="none" stroke="url(#linearGradient13966)"/>
  <path d="m43.807 13.211-22.237 0.27796c-2.557 1.2996-4.1018 3.5041-4.9275 6.3426-2.2621-0.09613-4.5011 1.984-5.6097 4.1947l-0.45484 22.666c1.3746 1.9833 2.8264 3.925 5.7108 4.7759l22.313 0.15162c2.292-1.3405 4.0589-3.1032 4.6243-5.7866h-6.2162l-0.07577-2.9818c-0.19476 2.3698-1.9059 2.9292-3.4619 3.2597l-10.689 0.27796c-2.215-1.201-4.6469-1.8092-5.7614-5.7614l0.42958-20.872h6.57l-0.07577 19.053c-0.05531 0.97133 2.1454 1.8963 3.5377 2.3248l6.1404 0.15162c1.5437-0.81296 2.9471-1.257 3.4619-3.6135l-0.42957-17.84c2.478 0.70012 5.4235 1.1713 6.6458 6.2162v19.735c2.4026-1.1578 4.7928-2.3255 6.2667-5.1549l-0.58119-23.096c-0.76542-2.2278-2.1337-3.9894-5.1802-4.321z" color="#000000" fill="#fff"/>
 </g>
</svg>
