<?xml version="1.0" encoding="UTF-8"?>
<svg width="52.509" height="52.52" version="1.0" viewBox="0 0 52.509 52.52" xmlns="http://www.w3.org/2000/svg" xmlns:xlink="http://www.w3.org/1999/xlink">
 <defs>
  <linearGradient id="linearGradient13956" x1="46.592" x2="43.592" y1="89.585" y2="-74.733" gradientUnits="userSpaceOnUse">
   <stop stop-color="#0064cd" offset="0"/>
   <stop stop-color="#fff" offset="1"/>
  </linearGradient>
  <linearGradient id="linearGradient13966" x1="26.48" x2="26.48" y1="1.3939" y2="52.843" gradientUnits="userSpaceOnUse">
   <stop stop-color="#fff" offset="0"/>
   <stop stop-color="#fff" stop-opacity="0" offset="1"/>
  </linearGradient>
 </defs>
 <g transform="translate(-3.8191 -6.1557)">
  <g transform="translate(-840.83 182.27)" fill="#71c000" stroke="#71c000" stroke-linejoin="bevel" stroke-width="3.379"></g>
  <g transform="translate(-1426.6 -26.29)" fill="#71c000" stroke="#71c000" stroke-linejoin="bevel" stroke-width="3.379"></g>
  <rect x="4.9083" y="7.2196" width="50.731" height="50.549" ry="7.0914" color="black" fill="url(#linearGradient13956)" fill-rule="evenodd" stroke="#2b2b2b" stroke-width=".9965"/>
  <g transform="matrix(-.0039739 .6296 -.6296 -.0039739 295.58 -273.62)" fill="#fff"></g>
  <path transform="translate(3.8191 6.1557)" d="m2.1818 45.429-0.18182-37.636s1.0909-5.6364 5.4545-5.8182c4.3636-0.18182 37.455 0 37.455 0s5.8182 0 6 7.2727c0.18182 7.2727-0.18182 36.727-0.18182 36.727" color="black" fill="none" stroke="url(#linearGradient13966)"/>
  <g transform="matrix(.57435 0 0 .57435 10.957 15.069)" fill="#fff" fill-rule="evenodd" stroke="#000" stroke-linecap="square" stroke-linejoin="round" stroke-width=".1">
   <path transform="translate(3.8191 6.1557)" d="m6.7273-5.8435s13.636-8.3636 28.182 0.54545c-2.7273 13.818-6.9091 26-6.9091 26s-9.8182-8.7273-27.455-2.1818c4-16.909 6-24.545 6.1818-24.364z"/>
   <path d="m2.4555 28.82s13.636-8.3636 28.182 0.54545c-2.7273 13.818-6.9091 26-6.9091 26s-9.8182-8.7273-27.455-2.1818c4-16.909 6-24.545 6.1818-24.364z"/>
   <path d="m63.728 30.168s-13.636 8.3636-28.182-0.54545c2.7273-13.818 6.9091-26 6.9091-26s9.8182 8.7273 27.455 2.1818c-4 16.909-6 24.545-6.1818 24.364z"/>
   <path d="m55.546 58.896s-13.636 8.3636-28.182-0.54546c2.7273-13.818 6.9091-26 6.9091-26s9.8182 8.7273 27.455 2.1818c-4 16.909-6 24.545-6.1818 24.364z"/>
  </g>
 </g>
</svg>
