<?xml version="1.0" encoding="UTF-8"?>
<svg width="52.509" height="52.52" version="1.0" viewBox="0 0 52.509 52.52" xmlns="http://www.w3.org/2000/svg" xmlns:xlink="http://www.w3.org/1999/xlink">
 <defs>
  <linearGradient id="linearGradient13956" x1="46.592" x2="43.592" y1="89.585" y2="-74.733" gradientUnits="userSpaceOnUse">
   <stop stop-color="#e6e6e6" offset="0"/>
   <stop stop-color="#fff" offset="1"/>
  </linearGradient>
  <linearGradient id="linearGradient13966" x1="26.48" x2="26.48" y1="1.3939" y2="52.843" gradientUnits="userSpaceOnUse">
   <stop stop-color="#fff" offset="0"/>
   <stop stop-color="#fff" stop-opacity="0" offset="1"/>
  </linearGradient>
 </defs>
 <g transform="translate(-3.8191 -6.1557)">
  <g transform="translate(-840.83 182.27)" fill="#71c000" stroke="#71c000" stroke-linejoin="bevel" stroke-width="3.379"></g>
  <g transform="translate(-1426.6 -26.29)" fill="#71c000" stroke="#71c000" stroke-linejoin="bevel" stroke-width="3.379"></g>
  <rect x="4.9083" y="7.2196" width="50.731" height="50.549" ry="7.0914" color="black" fill="url(#linearGradient13956)" fill-rule="evenodd" stroke="#2b2b2b" stroke-width=".997"/>
  <g transform="matrix(-.0039739 .6296 -.6296 -.0039739 295.58 -273.62)" fill="#fff"></g>
  <path transform="translate(3.8191 6.1557)" d="m2.1818 45.429-0.18182-37.636s1.0909-5.6364 5.4545-5.8182c4.3636-0.18182 37.455 0 37.455 0s5.8182 0 6 7.2727c0.18182 7.2727-0.18182 36.727-0.18182 36.727" color="black" fill="none" stroke="url(#linearGradient13966)"/>
  <g fill-rule="evenodd">
   <path d="m29.122 10.327c-0.14184 1.3497-0.28599 2.6942-1.1662 3.6875-1.7345 1.9573-4.0886 3.1592-6.0082 4.104-4.883 2.4033-10.498 8.0032-10.498 16.948 0 4.3326 1.6712 8.9946 4.8242 12.586 3.3564 3.8233 8.3775 6.441 14.34 6.412 5.33-0.0258 9.706-1.7658 12.996-4.6073 3.8474-3.323 6.1682-8.2038 6.1682-14.391 0-4.5576-1.3588-8.5076-3.833-11.53-4.8792-5.9599-8.8163-6.4852-11.306-7.9056-1.782-1.0166-3.4264-2.8071-5.5159-5.3042" fill="#0b6da8"/>
   <path d="m45.137 22.59c0.95292 2.9933 0.49377 6.0505-1.1872 8.822-1.8042 2.975-5.056 5.4715-9.1791 8.3332-6.2208 4.3176-12.57 7.5831-17.769 6.2267-1.0497-0.27391-2.0453-0.77663-2.9849-1.4885-1.6874-2.9558-2.5675-6.2728-2.5675-9.4165 0-8.9449 5.6153-14.545 10.498-16.948 1.9196-0.94479 4.2737-2.1467 6.0082-4.104 0.88018-0.99326 1.0243-2.3378 1.1662-3.6875 2.0895 2.4971 3.7339 4.2876 5.5159 5.3042 2.3512 1.3411 5.9926 1.8852 10.499 6.9586" fill="#008bcb"/>
   <path d="m29.06 10.901c0.86413 1.7069 0.92348 3.887-0.18355 4.7239-0.56114 0.42415-0.43836 0.64706-0.22425 0.82679 0.42507 0.35693 0.11874 1.0728-0.35034 1.7517-2.6254 3.8001-7.7715 6.8305-10.86 8.1975-0.82421 0.36486-2.3991 0.85388-2.8726 0.35029-0.89436-0.95109 0.08578-2.3174 1.143-3.7036 0.70062-0.84134 1.4539-1.5972 2.233-2.2684l2.6701-1.9323c0.44716-0.26844 0.89302-0.51134 1.333-0.72787 1.9196-0.94479 4.2737-2.1467 6.0082-4.104 0.75528-0.85223 0.96857-1.9631 1.1036-3.1139" fill="#b2d7eb"/>
   <path d="m29.089 10.635c1.0743 2.6912 0.80532 4.3398-2.056 5.648-0.09793 0.04472-0.32503 0.24893 0.06711 0.32662 1.161 0.23049-0.38576 2.022-1.0554 2.6446-0.77116 0.71724-1.8079 1.7881-4.3919 3.52-2.584 1.732-5.3706 2.9235-6.0966 2.4352-0.96627-0.64982 0.27438-2.0651 1.5283-3.6441 1.5476-1.5031 3.2453-2.6503 4.8628-3.4465 1.9196-0.94479 4.2737-2.1467 6.0082-4.104 0.81322-0.91767 0.99822-2.1353 1.1335-3.3798" fill="#fff"/>
  </g>
  <g transform="matrix(.1155 0 0 -.1155 4.8633 157.83)">
   <path d="m210.03 1277.1c-1.2279-11.686-2.476-23.327-10.097-31.926-15.017-16.947-35.399-27.353-52.018-35.533-42.277-20.808-90.894-69.291-90.894-146.74 0-37.512 14.469-77.875 41.768-108.97 29.06-33.102 72.532-55.765 124.15-55.514 46.147 0.2233 84.034 15.289 112.52 39.89 33.31 28.77 53.404 71.028 53.404 124.59 0 39.46-11.764 73.658-33.186 99.824-42.244 51.601-76.33 56.149-97.891 68.447-15.428 8.8013-29.666 24.303-47.756 45.923z" fill="none" stroke="#1e5d91" stroke-miterlimit="22.926" stroke-width="2.2677"/>
  </g>
  <path d="m37.568 40.174c-2.6937-0.01755-5.3453-4.7251-10.726-4.8513-4.0471-0.09497-7.2346 3.2969-7.1647 6.562 0.08356 3.9186 2.8549 4.8553 5.426 4.8934 5.0412 0.07462 9.5287-5.0793 12.591-5.1318 2.3272-0.03998 4.6859 4.8284 6.8001 4.9914 2.4354 0.18798 4.2532-4.53 4.0944-7.389-0.10576-1.9051-1.2005-3.273-2.622-3.2389-2.664 0.0638-5.7631 4.1813-8.3986 4.1641zm-4.6633 6.2859c1.163-1.1572 2.3967-1.8423 3.7835-1.808 2.2138 0.05475 2.3081 0.57494 2.9496 1.8709 0.13019 0.26312 0.05593 0.48941-0.02803 0.62308-0.04578 0.07289-0.29953 0.31583-0.38556 0.31583-0.21314 0-0.29067-0.07651-0.37819-0.29472-0.52818-1.3183-1.311-1.324-2.2982-1.3241-1.5208-1.08e-4 -2.1844 0.74234-3.0827 1.4855-0.22322 0.18472-0.43422 0.32375-0.60254 0.18227-0.13565-0.11398-0.24827-0.27326-0.24524-0.39272 0.0072-0.28357 0.08627-0.45803 0.28731-0.65799zm-3.0758 3.1456c1.1951 1.1022 6.8379 2.0277 10.229-0.2522 0.12498-0.08403 0.28543-0.13991 0.42384-0.08066 0.10367 0.04436 0.1647 0.10033 0.17864 0.21676 0.02309 0.19112 0.03571 0.47946-0.11203 0.60271-2.3552 1.9654-8.7242 3.0859-11.753 0.58521-0.29881-0.24679-0.30945-0.6185-0.11214-0.8337 0.14635-0.15948 0.27418-0.2342 0.45196-0.33597 0.22127-0.1266 0.50369-0.07723 0.69357 0.09784" fill="#fff" fill-rule="evenodd"/>
 </g>
</svg>
