<?xml version="1.0" encoding="UTF-8"?>
<svg width="52.509" height="52.52" version="1.0" viewBox="0 0 52.509 52.52" xmlns="http://www.w3.org/2000/svg" xmlns:xlink="http://www.w3.org/1999/xlink">
 <defs>
  <linearGradient id="linearGradient13956" x1="46.592" x2="43.592" y1="89.585" y2="-74.733" gradientUnits="userSpaceOnUse">
   <stop stop-color="#ebebeb" offset="0"/>
   <stop stop-color="#fff" offset="1"/>
  </linearGradient>
  <linearGradient id="linearGradient13966" x1="26.48" x2="26.48" y1="1.3939" y2="52.843" gradientUnits="userSpaceOnUse">
   <stop stop-color="#fff" offset="0"/>
   <stop stop-color="#fff" stop-opacity="0" offset="1"/>
  </linearGradient>
 </defs>
 <g transform="translate(-3.8191 -6.1557)">
  <g transform="translate(-840.83 182.27)" fill="#71c000" stroke="#71c000" stroke-linejoin="bevel" stroke-width="3.379"></g>
  <g transform="translate(-1426.6 -26.29)" fill="#71c000" stroke="#71c000" stroke-linejoin="bevel" stroke-width="3.379"></g>
  <rect x="4.9083" y="7.2196" width="50.731" height="50.549" rx="7.0914" ry="7.0914" color="#000000" fill="url(#linearGradient13956)" fill-rule="evenodd" stroke="#2b2b2b" stroke-width=".997"/>
  <g transform="matrix(-.0039739 .6296 -.6296 -.0039739 295.58 -273.62)" fill="#fff"></g>
  <path transform="translate(3.8191 6.1557)" d="m2.1818 45.429-0.18182-37.636s1.0909-5.6364 5.4545-5.8182c4.3636-0.18182 37.455 0 37.455 0s5.8182 0 6 7.2727c0.18182 7.2727-0.18182 36.727-0.18182 36.727" color="black" fill="none" stroke="url(#linearGradient13966)"/>
  <g transform="matrix(.2761 0 0 .2761 10.783 11.49)" fill="#00618a">
   <path d="m142.07 109.69c-11-1.2245-26.308-3.42-32.692 7.0458 6.023 17.216 11.069 27.928 21.343 36.871-2.889-13.527-6.2347-22.294-10.075-32.578 1.5571-4.3312 11.083-3.1727 13.333-3.6504 4.4688-0.91792 8.3685-0.31278 12.98-1.2135 2.0827-0.46519 4.1654-0.93176 6.2492-1.3955-7.3812-23.247-34.418-28.754-48.583-37.229-14.565-52.215-35.538-57.297-69.384-62.561-1.9024-1.0036-6.6724-5.9743-8.4303-7.3295-6.999-5.3946-22.179-15.034-28.514-1.5249-4.0003 8.5271 2.6168 18.402 5.3779 23.071 1.9384 3.2758 5.8102 6.2834 7.1108 9.9031 2.9634 20.714 9.6193 35.407 3.3012 52.796-5.5552 14.79-5.072 33.71 0.82542 45.384 1.8097 3.5835 6.1193 11.301 12.897 8.9546 8.6337-8.312 6.3059-22.879 14.131-26.986 8.6757 14.302 12.4 24.842 24.644 31.285-5.3967-11.209-13.414-26.146-20.661-46.581-2.0902 2.9424-6.3568 0.59718-16.024 14.993-2.7172 5.6427-3.4852 12.709-4.8333 19.997-0.52488 0.15547-0.28866 0.0395-0.60514 0.26364-11.557-9.8769-4.9865-34.861-0.62138-46.944 7.6308-15.994-2.0931-38.727-7.8909-55.869-2.6002-10.053-6.4198-15.528-9.7012-20.49-1.2996-4.0376-1.8063-5.612 0.18507-7.78 1.7829-1.2492 5.495 0.070003 7.2071 0.96858 4.5454 2.3843 6.8428 4.31 10.625 7.3593 2.9114 3.3387 6.3233 4.7772 9.9296 5.5447 48.925 12.984 55.515 41.442 63.962 60.317 14.087 8.9474 35.352 13.054 43.915 27.379z"/>
  </g>
  <g transform="matrix(.44116 0 0 .44116 21.905 23.624)" fill="#00618a" fill-rule="evenodd">
   <path d="m-0.22667 1.6965v0.29053h0.29105c4.0291 3.2897 6.5819 6.2844 6.9683 11.324 0.095722-0.09611 1.9533-0.48647 2.049-0.58258 6.242-6.4138-1.5041-13.063-9.3084-11.032z"/>
  </g>
 </g>
</svg>
