<?xml version="1.0" encoding="UTF-8"?>
<svg width="52.509" height="52.52" version="1.0" viewBox="0 0 52.509 52.52" xmlns="http://www.w3.org/2000/svg" xmlns:xlink="http://www.w3.org/1999/xlink">
 <defs>
  <linearGradient id="linearGradient13956" x1="46.592" x2="43.592" y1="89.585" y2="-74.733" gradientUnits="userSpaceOnUse">
   <stop stop-color="#f0f0f0" offset="0"/>
   <stop stop-color="#fff" offset="1"/>
  </linearGradient>
  <linearGradient id="linearGradient13966" x1="26.48" x2="26.48" y1="1.3939" y2="52.843" gradientUnits="userSpaceOnUse">
   <stop stop-color="#fff" offset="0"/>
   <stop stop-color="#fff" stop-opacity="0" offset="1"/>
  </linearGradient>
 </defs>
 <g transform="translate(-3.8191 -6.1557)">
  <g transform="translate(-840.83 182.27)" fill="#71c000" stroke="#71c000" stroke-linejoin="bevel" stroke-width="3.379"></g>
  <g transform="translate(-1426.6 -26.29)" fill="#71c000" stroke="#71c000" stroke-linejoin="bevel" stroke-width="3.379"></g>
  <rect x="4.9083" y="7.2196" width="50.731" height="50.549" ry="7.0914" color="black" fill="url(#linearGradient13956)" fill-rule="evenodd" stroke="#2b2b2b" stroke-width=".997"/>
  <g transform="matrix(-.0039739 .6296 -.6296 -.0039739 295.58 -273.62)" fill="#fff"></g>
  <path transform="translate(3.8191 6.1557)" d="m2.1818 45.429-0.18182-37.636s1.0909-5.6364 5.4545-5.8182c4.3636-0.18182 37.455 0 37.455 0s5.8182 0 6 7.2727c0.18182 7.2727-0.18182 36.727-0.18182 36.727" color="black" fill="none" stroke="url(#linearGradient13966)"/>
  <path d="m27.896 39.614 0.59249 0.72081c0.29713 0.34765 1.6776 2.1743 1.6786 2.1752 7e-3 -5e-3 0.0175-0.0223 0.0203-0.0163l0.0387-0.0343c4e-3 -5e-3 0.0129-0.0133 0.0176-0.0187l0.48483-0.66605c0.19428-0.26482 0.38044-0.51632 0.57474-0.75707 0.20123-0.2493 0.37687-0.48844 0.57506-0.72091 0.11464-0.13448 0.54488-0.63185 0.59708-0.74365-0.13699-0.26798-0.381-0.5765-0.5518-0.81912-0.184-0.26148-0.36424-0.51269-0.55918-0.77258-0.13391-0.17852-1.0242-1.3291-1.1934-1.4693-0.0774 0.0478-0.11007 0.0892-0.18748 0.18267-0.43356 0.52379-2.0512 2.6317-2.0875 2.9392" fill="#1c1e21" fill-rule="evenodd"/>
  <path d="m20.547 32.966c0.32999 0.18014 1.8783 1.3873 2.2258 1.6782 0.12485 0.10446 0.63597 0.55323 0.74281 0.57925 0.35203-0.14208 2.7859-1.9746 3.0531-2.2958-0.12078-0.2163-2.6294-2.0657-3.078-2.2602-0.11457 0.0137-0.60356 0.45917-0.73921 0.5722-0.54974 0.45785-1.2581 1.0014-1.8465 1.4282-0.1287 0.0934-0.28617 0.16102-0.3581 0.29815" fill="#1c1e21" fill-rule="evenodd"/>
  <g fill="#b71d5b" fill-rule="evenodd">
   <path d="m36.799 30.571v0.0357l1.4356 1.1671c0.23726 0.19178 0.48119 0.37504 0.73576 0.5597 0.15306 0.11099 0.67081 0.45998 0.76454 0.57433l0.055-0.01c0.16469-0.20189 2.122-1.416 2.4888-1.6311 1.8044-1.0582 3.6562-1.9347 5.6732-2.6385 0.52305-0.18253 1.0372-0.35494 1.5703-0.51721 0.31352-0.0955 1.4011-0.3545 1.6082-0.46701-0.059-0.6112-0.48207-1.6203-0.66474-2.2036-0.82158 0.0336-3.0685 0.54062-3.9259 0.76754-2.3289 0.61646-4.6904 1.5093-6.7705 2.6202-0.82945 0.44301-1.4588 0.80666-2.2434 1.283-0.23568 0.14309-0.49642 0.34454-0.72694 0.45955"/>
   <path d="m24.828 53.917h0.0747c0.10634-0.51222 0.30493-1.0986 0.4637-1.5982 0.89028-2.801 2.3342-6.1306 3.9642-8.5238 0.27823-0.40849 0.54904-0.87983 0.83857-1.2344l-1e-3 -0.0499c-9.6e-4 -9.6e-4 -1.3814-1.8276-1.6786-2.1752l-0.59249-0.72081-0.0379 0.0103c-0.45569 0.63192-1.327 2.2614-1.7007 3.0123-1.3534 2.7199-2.3242 5.696-3.0574 8.6758-0.13511 0.54914-0.37534 1.3692-0.43756 1.9307 0.29631 0.0586 0.76917 0.25493 1.094 0.35545 0.2048 0.0634 0.94008 0.24472 1.0707 0.3179"/>
   <path d="m30.171 36.443v0.0494c0.16914 0.14022 1.0595 1.2908 1.1934 1.4693 0.19495 0.25989 0.37519 0.5111 0.55918 0.77258 0.17081 0.24262 0.41482 0.55114 0.55181 0.81912h0.0358c0.10722-0.15973 0.80457-0.91817 1.0021-1.1473 0.0879-0.10203 0.1768-0.17066 0.26765-0.27129 0.26761-0.29628 0.75035-0.80834 1.0621-1.0974 0.30165-0.27959 0.81271-0.80607 1.1076-1.0515 0.20951-0.17442 0.65626-0.6265 0.863-0.75822v-0.0351c-0.23343-0.0925-1.333-0.87755-1.6059-1.0756l-1.5182-1.188c-0.22057 0.11597-1.6737 1.5239-1.8356 1.6943-0.14749 0.15533-0.30205 0.28857-0.45098 0.44808l-1.232 1.3716z"/>
  </g>
  <g fill="#98d0be" fill-rule="evenodd">
   <path d="m27.787 26.277h0.0434l1.731-2.1883c0.16691-0.22486 0.39272-0.5848 0.5654-0.75806l-3e-3 -0.0506c-0.14386-0.11588-0.69198-0.97275-0.85025-1.2203-0.27441-0.42919-0.53977-0.84929-0.79845-1.2888-1.5003-2.5488-2.906-5.9477-3.5749-8.8536h-0.0834l-2.1655 0.69231c0.0232 0.75928 0.55074 3.0919 0.76622 3.9017 0.83835 3.1506 2.1794 6.3087 3.9182 9.034 0.12229 0.19168 0.37556 0.54522 0.45102 0.73167"/>
   <path d="m36.814 35.193v0.0351c0.10971 0.0409 1.2345 0.73079 1.4865 0.87068 0.50395 0.2797 0.99448 0.54676 1.5298 0.80915 2.74 1.3428 5.6925 2.32 8.6767 3.0518 0.4397 0.10784 1.5648 0.43025 1.9506 0.43389 0.15192-0.55804 0.63645-1.6804 0.67702-2.24-0.15602-0.0769-0.58314-0.17311-0.7745-0.22736-1.9427-0.55059-3.4911-1.1453-5.3379-1.9662-0.9489-0.42177-1.8617-0.92309-2.7196-1.4176-0.38291-0.22075-2.4001-1.4583-2.5131-1.644l-0.055 0.01c-0.0647 0.076-0.62102 0.46549-0.75446 0.56613l-2.1662 1.7187z"/>
   <path d="m30.17 29.345c-0.0679 0.0339-0.017-1e-3 -0.045 0.058 0.10696 0.0542 0.53574 0.56377 0.63006 0.67528 0.35332 0.41794 1.1097 1.1841 1.5264 1.5684 0.22427 0.20686 1.2275 1.157 1.4088 1.2556 0.17282-0.0972 2.5859-2.1477 3.1088-2.296v-0.0357c-0.0991-0.051-0.0772-0.0448-0.16323-0.11413-0.0652-0.0525-0.0961-0.0771-0.15405-0.13274l-0.84969-0.76888c-0.8361-0.72305-1.9203-1.8655-2.6808-2.7176-0.17796-0.19943-0.37246-0.44951-0.51863-0.565-0.1538 0.16305-0.39042 0.58995-0.53582 0.79894-0.46274 0.66515-1.1909 1.6515-1.7268 2.2738"/>
  </g>
  <g fill="#804d5c" fill-rule="evenodd">
   <path d="m9.1561 38.143v0.0934c0.0713 0.12687 0.25321 0.87395 0.31591 1.0757 0.10464 0.33679 0.29503 0.77483 0.36347 1.0853 0.83727-0.0387 3.0528-0.54088 3.9229-0.76817 3.3634-0.87854 6.104-2.1442 9.0117-3.9089 0.16756-0.10171 0.59845-0.41316 0.74594-0.44631v-0.0511c-0.10684-0.026-0.61796-0.47479-0.74281-0.57925-0.34756-0.29091-1.8958-1.498-2.2258-1.6782l-0.0608-0.0565c-0.0186 0.0841 7e-3 0.0226-0.0474 0.084-0.17102 0.19204-2.2726 1.4857-2.444 1.5858-1.8216 1.0644-3.6443 1.9048-5.665 2.6085-0.76036 0.26478-2.4256 0.80878-3.174 0.95554"/>
   <path d="m30.124 23.28 3e-3 0.0506c0.17139 0.18928 1.2414 1.6664 1.6898 2.195 0.21288 0.25093 0.39121 0.49031 0.61553 0.71697 0.29536-0.40047 0.63383-0.9995 0.88505-1.456 0.90516-1.6445 1.5644-3.0368 2.2377-4.8516 0.43771-1.1799 0.7903-2.3348 1.1532-3.5595 0.20014-0.6754 0.86415-3.1853 0.92996-3.7648-0.33765-0.13424-0.69495-0.24465-1.0434-0.35568-0.26625-0.0849-0.92808-0.23045-1.111-0.33781h-0.11195c-0.50762 2.1253-1.3558 4.2642-2.1817 6.1203-0.72205 1.6229-1.6638 3.2029-2.646 4.659-0.0948 0.14055-0.29544 0.47976-0.42019 0.58344"/>
   <path d="m23.491 30.616 8e-5 0.0515c0.44855 0.19447 2.9572 2.0439 3.078 2.2602l0.0511 6e-3c0.0406-0.0566 1.5171-1.3808 1.81-1.6994 0.27857-0.30297 0.58496-0.58147 0.85944-0.9041 0.0757-0.089 0.12122-0.12661 0.21086-0.22017 0.15779-0.16458 0.45598-0.55994 0.62417-0.70619 0.0279-0.0594-0.0229-0.0242 0.045-0.058-0.14213-0.0358-0.20825-0.17175-0.35049-0.34645-0.44877-0.55121-1.8326-2.2925-1.9886-2.7225h-0.0434c-0.0478 0.11924-1.3786 1.5723-1.5232 1.7108-0.24376 0.23355-0.36656 0.36215-0.54191 0.53748l-2.2311 2.0911z"/>
  </g>
  <g fill="#1d5571" fill-rule="evenodd">
   <path d="m30.167 42.51 1e-3 0.0499c0.20526 0.14738 1.4077 2.0984 1.6362 2.4834 0.51343 0.86499 1.0078 1.7721 1.4417 2.7327 0.86091 1.9057 1.6351 3.9552 2.1783 6.1404h0.0589c0.17207-0.10042 0.8308-0.24178 1.0872-0.32162 0.35859-0.11165 0.73095-0.26296 1.0746-0.36203-0.11501-1.2281-0.46536-2.7402-0.76873-3.9046-1.4798-5.6792-4.2956-9.5378-4.3654-9.7751h-0.0358c-0.0522 0.1118-0.48245 0.60917-0.59708 0.74365-0.19819 0.23247-0.37383 0.47161-0.57507 0.72091-0.19428 0.24075-0.38045 0.49225-0.57473 0.75707l-0.48483 0.66605c-5e-3 5e-3 -0.0131 0.0141-0.0176 0.0187l-0.0387 0.0343c-3e-3 -6e-3 -0.0131 0.0115-0.0203 0.0163"/>
   <path d="m9.1561 27.575v0.10354c0.44749 0.0763 1.1529 0.31888 1.5925 0.46072 0.52368 0.169 1.0539 0.33958 1.5589 0.52626 1.009 0.37299 2.0013 0.76372 2.9347 1.2039 1.5111 0.71271 2.6283 1.337 3.9889 2.2005l1.2554 0.83981 0.0608 0.0565c0.0719-0.13713 0.2294-0.20479 0.3581-0.29815 0.58834-0.42676 1.2967-0.97033 1.8465-1.4282 0.13565-0.11303 0.62464-0.55846 0.73921-0.5722l-8e-5 -0.0515c-0.12074-0.0181-1.2379-0.72003-1.485-0.85466-1.6926-0.92221-2.9228-1.5258-4.8195-2.2329-1.1578-0.43167-2.3314-0.81499-3.5572-1.1566-0.70646-0.19691-3.2061-0.88208-3.7897-0.93056-0.0745 0.30355-0.25387 0.72628-0.3584 1.0532-0.072 0.22538-0.24437 0.94106-0.32517 1.0802"/>
   <path d="m23.516 35.223v0.0511c0.66405 0.4889 2.8032 2.5994 3.3234 3.1844l0.7733 0.84558c0.087 0.089 0.18918 0.20072 0.24585 0.32014l0.0379-0.0103c0.0363-0.30748 1.6539-2.4154 2.0875-2.9392 0.0774-0.0935 0.11005-0.13489 0.18748-0.18267v-0.0494l-1.2959-1.3889c-0.14508-0.15578-0.27824-0.28077-0.43044-0.43331l-1.8248-1.6876-0.0511-6e-3c-0.26719 0.32124-2.7011 2.1537-3.0531 2.2958"/>
  </g>
  <path d="m27.831 26.277c0.15606 0.43 1.5398 2.1713 1.9886 2.7225 0.14224 0.1747 0.20836 0.31066 0.35049 0.34645 0.53593-0.62233 1.2641-1.6087 1.7268-2.2738 0.1454-0.20899 0.38202-0.63589 0.53582-0.79894v-0.0306c-0.22432-0.22666-0.40266-0.46604-0.61554-0.71697-0.44841-0.52854-1.5184-2.0057-1.6898-2.195-0.17267 0.17326-0.39849 0.5332-0.56539 0.75806l-1.731 2.1883z" fill="#253d41" fill-rule="evenodd"/>
  <path d="m33.69 32.903v0.0263l1.5182 1.188c0.27286 0.19807 1.3725 0.98312 1.6059 1.0756l2.1662-1.7187c0.13344-0.10063 0.68973-0.49009 0.75446-0.56613-0.0937-0.11435-0.61148-0.46334-0.76454-0.57433-0.25457-0.18467-0.4985-0.36792-0.73576-0.5597l-1.4356-1.1671c-0.52292 0.14827-2.936 2.1988-3.1088 2.296" fill="#392348" fill-rule="evenodd"/>
 </g>
</svg>
