<?xml version="1.0" encoding="UTF-8"?>
<svg width="52.509" height="52.52" version="1.0" viewBox="0 0 52.509 52.52" xmlns="http://www.w3.org/2000/svg" xmlns:xlink="http://www.w3.org/1999/xlink">
 <defs>
  <linearGradient id="linearGradient13956" x1="46.592" x2="43.592" y1="89.585" y2="-74.733" gradientUnits="userSpaceOnUse">
   <stop stop-color="#e6e6e6" offset="0"/>
   <stop stop-color="#fff" offset="1"/>
  </linearGradient>
  <linearGradient id="linearGradient13966" x1="26.48" x2="26.48" y1="1.3939" y2="52.843" gradientUnits="userSpaceOnUse">
   <stop stop-color="#fff" offset="0"/>
   <stop stop-color="#fff" stop-opacity="0" offset="1"/>
  </linearGradient>
 </defs>
 <g transform="translate(-3.8191 -6.1557)">
  <g transform="translate(-840.83 182.27)" fill="#71c000" stroke="#71c000" stroke-linejoin="bevel" stroke-width="3.379"></g>
  <g transform="translate(-1426.6 -26.29)" fill="#71c000" stroke="#71c000" stroke-linejoin="bevel" stroke-width="3.379"></g>
  <rect x="4.9083" y="7.2196" width="50.731" height="50.549" ry="7.0914" color="black" fill="url(#linearGradient13956)" fill-rule="evenodd" stroke="#2b2b2b" stroke-width=".997"/>
  <g transform="matrix(-.0039739 .6296 -.6296 -.0039739 295.58 -273.62)" fill="#fff"></g>
  <g fill="none">
   <path transform="translate(3.8191 6.1557)" d="m2.1818 45.429-0.18182-37.636s1.0909-5.6364 5.4545-5.8182c4.3636-0.18182 37.455 0 37.455 0s5.8182 0 6 7.2727c0.18182 7.2727-0.18182 36.727-0.18182 36.727" color="black" stroke="url(#linearGradient13966)"/>
   <g stroke="#2b2b2a" stroke-miterlimit="22.926" stroke-width=".045245">
    <path d="m16.017 25.056c0.65469-0.38142 0.55099 0.83081 1.2107 1.003 2.3965 0.33005 2.3361-2.7038 2.5488-5.9529-0.01238-0.63987-0.46377-0.704-0.46281-0.25047-0.27309 2.6887-0.31145 5.9485-2.0893 4.9803-0.92964-1.7703-1.6512-3.6268-2.1595-5.5657 3.5169-0.87035 1.3887 0.19901 3.9142-2.6515l2.0469 2.1093c0.2217 0.19397 0.43896 0.18995 0.65117-0.05331 3.4698-3.7318 9.8361-3.2637 11.045 3.8546 4.3492 1.1782 8.3333 0.98446 12.052-0.20732 1.1612-0.37142 0.62117-0.15286 0.06042 0.20029-6.2227 3.9223-11.474 16.208-9.8678 22.631-1.9465-3.4472-5.1262-6.0193-8.8296-7.7494-0.4525-0.20327-0.80946 0.4232-0.11464 0.79749 9.1278 5.7161-9.2839 12.87-8.3166 7.4266 0.04326-0.2151-0.14768-0.16957-0.2023-0.04954-3.4141 6.1804-5.7777 1.4102-1.7369-2.2467 0.25921-0.24592 0.05078-0.44018-0.32698-0.30023-1.0111 0.42237-1.3506 2.2308-2.172 1.51-2.7048-2.2677-2.3604-9.1802 0.82396-10.164 0.27984-0.11152 0.4167-0.37072 0.02321-0.30859-6.3968 1.4536-3.4155-4.9854 0.38172-2.8698 0.3883 0.13561 0.5744-0.21036 0.12648-0.44864-1.5395-0.22342 0.53305-5.1934 1.3939-5.6949z"/>
    <path d="m38.834 44.751c0.28396 0.41411-0.33158-1.3137 0.65337-2.3801 2.8782-5.2615 5.1411-10.575 6.3254-16.127 1.3725-0.861 1.5625-1.9019 0.73981-1.4328-4.4296 3.2191-9.2653 15.893-7.7185 19.94z"/>
    <path d="m43.124 42.979c0.22667 0.32352-0.16046-0.81943 0.62159-1.7267 2.4502-4.319 4.4145-8.9802 5.2036-13.595 1.0906-0.75753 1.1129-1.5166 0.45908-1.1006-3.3279 2.8264-7.1559 13.254-6.2842 16.422z"/>
    <path d="m49.203 22.12c2.4791 1.5148 1.8003 8.3291-1.5162 15.22-3.3165 6.8911-8.0147 11.249-10.494 9.7345-2.4791-1.5148-1.8003-8.3291 1.5162-15.22 3.3165-6.891 8.0147-11.249 10.494-9.7344z"/>
    <path d="m24.845 41.597c-0.02057 0.30313 0.40635 0.41869 0.50862 0.08974 0.13438-0.43269 0.04719-0.58222 0.36241-0.8859 0.22989-0.22146 0.18596-0.633-0.26676-0.37759-0.53625 0.3025-0.57056 0.67578-0.60426 1.1737z"/>
    <path d="m31.993 18.171c0.48747-0.36074 0.90626-1.0848 1.4935-1.3712 0.5708 0.89535 1.2063 1.7671 2.001 2.5806-0.72772 0.30213-1.3708 0.21554-1.9422-0.19988-0.22551-0.21831-0.29304-0.15278-0.25307 0.15166 0.05639 0.43005-0.14391 0.57318-0.39296 0.68084-0.19959-0.74173-0.51416-1.3406-0.90624-1.842z"/>
    <path d="m26.041 20.562c-0.10761 0.32502 0.23631 0.4866 0.40691 0.2029 0.8135-2.5305 1.9144-2.6056 2.568-0.23502-0.92544 0.03886-1.0626 2.0007-0.22682 2.2146 0.33346 0.0492 0.28008-0.33229 0.15748-0.36992-0.32682-0.12248-0.40046-0.5545-0.19585-1.3263 0.05776-0.23966 0.49165-0.15621 0.28727 0.8427-0.13231 0.30482 0.10219 0.48454 0.28284 0.22071 0.23907-0.3004 0.21671-0.79761 0.07966-1.3091 0.48093 0.24297 0.8306 0.06214 1.0737-0.54842 0.07564-0.19757-0.16749-0.41006-0.32081-0.27591-0.15972 0.19285-0.43475 1.1576-0.69377 0.42971-0.93416-3.7565-2.102-2.7541-3.4186 0.1541z"/>
    <path d="m30.746 22.237c-0.83444-2.4607 1.9029-1.3289 0.11994 0.06242-0.06315 0.02743-0.08176 0.03872-0.11994-0.06242z"/>
    <path d="m30.962 21.938c-0.49066-1.0465 0.60836-0.78236 0.04909 0.01742-0.02141 0.01834-0.02749 0.02521-0.04909-0.01742z"/>
   </g>
  </g>
  <g fill="#2b2b2a" fill-rule="evenodd" stroke="#2b2b2a" stroke-miterlimit="22.926" stroke-width=".045245">
   <path d="m50.756 30.44c1.6732-6.8305 0.97434-12.385-4.2388-9.9398-4.4836 2.194-7.7084 2.3036-13.267 1.7425-0.06691-0.52531-0.20777-1.0223-0.38424-1.519 0.85064-1.125 1.1119 0.19432 3.5749-1.1422l-2.8202-3.8166-2.0423 2.1924c-2.9945-3.4006-6.406-3.3166-10.234 0.25228l-2.2467-2.9912-2.3923 2.8446-3.2278 0.60733 2.2912 5.35c-1.0779 1.9277-1.989 4.0227-2.4416 6.2159-4.2267-0.53172-6.2517 4.6928-1.3062 4.6306-1.92 3.2498-1.4924 9.3079 1.1845 10.925-2.595 4.1559 0.7059 5.4614 3.4943 2.0243 3.5565 2.5885 12.428-1.3197 12.614-5.1077 0.49874-0.87342 0.31614-1.7363 0.6882-1.4974 3.8395 2.8167 3.3998 6.5422 7.4887 7.6802 4.0277 0.52172 8.3374-5.3754 11.111-11.983-0.09039-0.34118-0.15314-0.74272-0.17022-1.2159-0.23116 0.54717-0.47938 1.0975-0.74443 1.6483-3.3159 6.8899-8.0151 11.249-10.494 9.7344-2.4787-1.5146 0.16358-16.092 1.4537-17.595 5.8159-4.8898 8.0776-8.8739 10.556-7.3594 1.6982 1.0376 1.9143 4.5636 0.81567 8.8969 0.23086-0.21607 0.47858-0.40855 0.73731-0.57714zm-5.982-8.1175c1.1612-0.37142 0.62117-0.15286 0.06042 0.20029-4.2213 0.71044-9.3185 4.8095-10.762 11.485-0.68429 3.165-0.67221 5.6592 0.89402 11.146-1.9465-3.4472-5.1262-6.0193-8.8296-7.7494-0.45257-0.20328-0.80945 0.42324-0.11462 0.79759 9.1278 5.716-9.2839 12.87-8.3166 7.4266 0.04326-0.2151-0.14774-0.16955-0.20232-0.04961-3.4141 6.1804-5.7776 1.4103-1.7368-2.2466 0.25918-0.24591 0.05075-0.44017-0.32702-0.30022-1.0111 0.42237-1.3506 2.2308-2.172 1.51-2.7048-2.2677-2.3604-9.1802 0.82401-10.164 0.27985-0.11152 0.41664-0.3707 0.02316-0.30858-6.3968 1.4536-3.4155-4.9854 0.38172-2.8698 0.3883 0.13561 0.57434-0.21034 0.12654-0.44865-1.5395-0.2234 0.53299-5.1934 1.3939-5.6949 0.65463-0.3814 0.55099 0.83082 1.2107 1.003 2.3965 0.33005 2.3361-2.7038 2.5488-5.9529-0.01238-0.63987-0.46379-0.70406-0.46281-0.25047-0.27308 2.6887-0.31145 5.9485-2.0893 4.9803-0.92961-1.7703-1.6513-3.6268-2.1595-5.5657 3.517-0.87036 1.3887 0.19899 3.9143-2.6516l2.0468 2.1093c0.22172 0.19403 0.43901 0.1899 0.65116-0.05332 3.4698-3.7318 9.8361-3.2637 11.045 3.8546 4.3492 1.1782 8.3333 0.98446 12.052-0.20732zm-9.2867-2.9416c-0.72772 0.30213-1.3708 0.21554-1.9422-0.19988-0.22551-0.21831-0.29304-0.15278-0.25307 0.15166 0.05639 0.43005-0.14391 0.57318-0.39296 0.68084-0.19959-0.74173-0.51416-1.3406-0.90624-1.842 0.48747-0.36074 0.90626-1.0848 1.4935-1.3712 0.5708 0.89535 1.2063 1.7671 2.001 2.5806z"/>
   <path d="m39.487 42.371c2.8782-5.2615 5.1411-10.575 6.3254-16.127 1.3725-0.861 1.5625-1.9019 0.73981-1.4328-4.4296 3.2191-9.2653 15.893-7.7185 19.94 0.28396 0.41411-0.33158-1.3137 0.65337-2.3801z"/>
   <path d="m49.408 26.557c-3.3279 2.8264-7.1559 13.254-6.2842 16.422 0.22665 0.32345-0.16041-0.81951 0.62156-1.7269 2.4502-4.319 4.4145-8.9802 5.2036-13.595 1.0906-0.75753 1.1129-1.5166 0.45908-1.1006z"/>
   <path d="m50.019 31.017c-0.37682 1.486-0.90817 3.0669-1.5874 4.6749 0.01702 0.47321 0.07983 0.87473 0.17022 1.2159 0.3204-0.76335 0.62033-1.5361 0.89701-2.3096 0.06235-0.68566 0.18113-1.2283 0.35752-1.627 0.1046-0.23859 0.2365-0.46275 0.39549-0.67265 0.18609-0.62655 0.35476-1.2478 0.50444-1.8587-0.25872 0.16859-0.50645 0.36108-0.73731 0.57714z"/>
   <path d="m29.459 20.408c-0.93417-3.7565-2.102-2.7541-3.4186 0.1541-0.10761 0.32502 0.23631 0.4866 0.40691 0.2029 0.8135-2.5305 1.9144-2.6056 2.568-0.23502-0.92544 0.03886-1.0626 2.0007-0.22682 2.2146 0.33346 0.0492 0.28008-0.33229 0.15748-0.36992-0.32682-0.12248-0.40046-0.5545-0.19585-1.3263 0.05776-0.23966 0.49165-0.15621 0.28727 0.8427-0.13231 0.30482 0.10219 0.48454 0.28284 0.22071 0.23907-0.3004 0.21671-0.79761 0.07966-1.3091 0.48093 0.24297 0.8306 0.06214 1.0737-0.54842 0.07564-0.19757-0.16749-0.41006-0.32081-0.27591-0.15972 0.19285-0.43475 1.1576-0.69377 0.42971z"/>
   <path d="m30.866 22.299c1.7829-1.3913-0.95451-2.5231-0.12002-0.06246 0.03818 0.10121 0.05683 0.08989 0.12002 0.06246zm0.09601-0.36094c-0.49059-1.0465 0.60837-0.78231 0.04912 0.01753-0.02143 0.01827-0.0275 0.02515-0.04912-0.01753z"/>
   <path d="m25.716 40.801c0.22989-0.22146 0.18596-0.633-0.26676-0.37759-0.53625 0.3025-0.57056 0.67578-0.60426 1.1737-0.02057 0.30313 0.40635 0.41869 0.50862 0.08974 0.13438-0.43269 0.04719-0.58222 0.36241-0.8859z"/>
  </g>
  <g fill="#f6b3b6" fill-rule="evenodd">
   <path d="m26.023 38.202c-0.69483-0.37435-0.33795-1.0009 0.11462-0.79759 3.7034 1.7301 6.8831 4.3022 8.8296 7.7494-2.981-12.798 4.02-20.459 9.8678-22.631 0.56044-0.35311 1.1005-0.57162-0.06042-0.20029-3.7185 1.1918-7.7027 1.3856-12.052 0.20733-1.2085-7.1183-7.5747-7.5864-11.045-3.8546-0.21216 0.24321-0.42945 0.24735-0.65117 0.05331l-2.0468-2.1093c-2.5256 2.8505-0.39733 1.7812-3.9143 2.6516 0.50825 1.9389 1.2299 3.7954 2.1595 5.5657 1.7778 0.96821 1.8162-2.2916 2.0893-4.9803-9.78e-4 -0.45359 0.45043-0.3894 0.46281 0.25047-0.21277 3.2492-0.15236 6.283-2.5488 5.9529-0.65967-0.17216-0.55603-1.3844-1.2107-1.003-0.86088 0.50149-2.9334 5.4715-1.3939 5.6949 0.44781 0.2383 0.26177 0.58426-0.12654 0.44865-3.7972-2.1156-6.7786 4.3233-0.38172 2.8698 0.39348-0.06213 0.25669 0.19705-0.02316 0.30858-3.1845 0.98347-3.5288 7.896-0.82401 10.164 0.82136 0.72072 1.1609-1.0877 2.172-1.51 0.37776-0.13995 0.58619 0.05432 0.32702 0.30022-4.0408 3.657-1.6773 8.4271 1.7368 2.2466 0.05457-0.11994 0.24559-0.16549 0.20232 0.04961-0.96726 5.443 17.444-1.7106 8.3166-7.4266zm4.7229-15.965c-0.83449-2.4606 1.9029-1.3288 0.12002 0.06247-0.06323 0.02745-0.08184 0.03875-0.12002-0.06247zm-1.7299-1.7064c-0.65367-2.3706-1.7545-2.2955-2.568 0.23502-0.1706 0.2837-0.51452 0.12212-0.40691-0.2029 1.3165-2.9082 2.4844-3.9106 3.4186-0.1541 0.25899 0.72788 0.53404-0.23686 0.69377-0.42971 0.15335-0.13416 0.39645 0.07834 0.32081 0.2759-0.24309 0.61056-0.59275 0.79139-1.0737 0.54842 0.1369 0.51157 0.15941 1.0087-0.07966 1.3091-0.1806 0.26382-0.41515 0.08411-0.28284-0.22071 0.20441-0.99891-0.22945-1.0824-0.28727-0.8427-0.20461 0.77177-0.13097 1.2038 0.19585 1.3263 0.1226 0.03762 0.17599 0.41912-0.15748 0.36992-0.8358-0.21382-0.69861-2.1757 0.22682-2.2146"/>
   <path d="m49.203 22.12c-2.2912-0.88956-7.1779 2.8446-10.494 9.7344-3.3158 6.8899-3.9949 13.706-1.5162 15.22 2.4787 1.5147 7.1779-2.8445 10.494-9.7344 0.26506-0.5508 0.51328-1.1011 0.74443-1.6483-0.0083-0.23096-0.0058-0.47903 0.0098-0.74542-0.05847-1.7092 0.61185-3.0258 1.5776-3.9295 1.0986-4.3333 0.88256-7.8593-0.81567-8.8969zm-10.369 22.631c-1.5468-4.0474 3.2889-16.721 7.7185-19.94 0.82267-0.46913 0.63265 0.57178-0.73981 1.4328-1.1842 5.5527-3.4471 10.866-6.3254 16.127-0.98497 1.0664-0.36941 2.7942-0.65337 2.3801zm4.2903-1.7723c-0.87166-3.1678 2.9564-13.596 6.2842-16.422 0.65383-0.41597 0.63155 0.34307-0.45908 1.1006-0.78911 4.6144-2.7534 9.2756-5.2036 13.595-0.78197 0.90735-0.39491 2.0503-0.62156 1.7269"/>
   <path d="m33.545 19.181c0.57147 0.41542 1.2145 0.50202 1.9422 0.19988-0.79466-0.81348-1.4302-1.6852-2.001-2.5806-0.58729 0.28638-1.0061 1.0105-1.4935 1.3712 0.39209 0.50136 0.70627 1.1003 0.90624 1.842 0.24905-0.10765 0.44937-0.25079 0.39296-0.68084-0.03998-0.30444 0.02755-0.36997 0.25307-0.15166"/>
   <path d="m31.011 21.956c0.55923-0.79984-0.53973-1.064-0.04913-0.01753 0.02161 0.04268 0.02769 0.0358 0.04913 0.01753"/>
  </g>
  <path d="m31.011 21.956c0.55923-0.79984-0.53973-1.064-0.04913-0.01753 0.02161 0.04268 0.02769 0.0358 0.04913 0.01753" fill="#fff" fill-rule="evenodd"/>
  <path d="m26.267 18.634c-0.68754 1.6441-1.4548 0.77589-0.6669 3.0265 0.71512 2.0428 4.6631 2.4338 5.3539 1.5063 0.59088-0.79335 0.9933-0.52853 0.92181-1.8521-0.20449-3.7872-4.4958-5.3424-5.6088-2.6807z" fill="none" stroke="#2b2b2a" stroke-miterlimit="22.926" stroke-width=".045245"/>
  <g fill-rule="evenodd">
   <g stroke-miterlimit="22.926" stroke-width=".045245">
    <path d="m29.016 20.53c-0.65367-2.3706-1.7545-2.2955-2.568 0.23502-0.1706 0.2837-0.51452 0.12212-0.40691-0.2029 1.3165-2.9082 2.4844-3.9106 3.4186-0.1541 0.25899 0.72788 0.53404-0.23686 0.69377-0.42971 0.15335-0.13416 0.39645 0.07834 0.32081 0.2759-0.24309 0.61056-0.59275 0.79139-1.0737 0.54842 0.1369 0.51157 0.15941 1.0087-0.07966 1.3091-0.1806 0.26382-0.41515 0.08411-0.28284-0.22071 0.20441-0.99891-0.22945-1.0824-0.28727-0.8427-0.20461 0.77177-0.13097 1.2038 0.19585 1.3263 0.1226 0.03762 0.17599 0.41912-0.15748 0.36992-0.8358-0.21382-0.69861-2.1757 0.22682-2.2146zm1.9381 2.6371c0.59088-0.79335 0.9933-0.52853 0.92181-1.8521-0.20449-3.7872-4.4958-5.3424-5.6088-2.6807-0.68754 1.6441-1.4548 0.77589-0.6669 3.0265 0.71512 2.0428 4.6631 2.4338 5.3539 1.5063zm-0.20815-0.93066c-0.83449-2.4606 1.9029-1.3288 0.12001 0.06247-0.06323 0.02745-0.08184 0.03875-0.12001-0.06247z" fill="#fff" stroke="#fff"/>
    <path d="m26.448 20.765c0.8135-2.5305 1.9144-2.6056 2.568-0.23502-0.92544 0.03886-1.0626 2.0007-0.22682 2.2146 0.33346 0.0492 0.28008-0.33229 0.15748-0.36992-0.32682-0.12248-0.40046-0.5545-0.19585-1.3263 0.05776-0.23966 0.49165-0.15621 0.28727 0.8427-0.13231 0.30482 0.10219 0.48454 0.28284 0.22071 0.23907-0.3004 0.21671-0.79761 0.07966-1.3091 0.48093 0.24297 0.8306 0.06214 1.0737-0.54842 0.07564-0.19757-0.16749-0.41006-0.32081-0.27591-0.15972 0.19285-0.43475 1.1576-0.69377 0.42971-0.93416-3.7565-2.102-2.7541-3.4186 0.1541-0.10761 0.32502 0.23631 0.4866 0.40691 0.2029z" fill="#2b2b2a" stroke="#2b2b2a"/>
    <path d="m30.866 22.299c1.7829-1.3913-0.95451-2.5231-0.12002-0.06246 0.03818 0.10121 0.05683 0.08989 0.12002 0.06246zm0.09601-0.36094c-0.49059-1.0465 0.60837-0.78231 0.04912 0.01753-0.02143 0.01827-0.0275 0.02515-0.04912-0.01753z" fill="#2b2b2a" stroke="#2b2b2a"/>
   </g>
   <path d="m48.949 27.657c-0.78911 4.6144-2.7534 9.2756-5.2036 13.595-0.78197 0.90735-0.39491 2.0503-0.62156 1.7269-0.87166-3.1678 2.9564-13.596 6.2842-16.422 0.65383-0.41597 0.63155 0.34307-0.45908 1.1006zm-3.1368-1.4139c-1.1842 5.5527-3.4471 10.866-6.3254 16.127-0.98497 1.0664-0.36941 2.7942-0.65337 2.3801-1.5468-4.0474 3.2889-16.721 7.7185-19.94 0.82267-0.46913 0.63265 0.57178-0.73981 1.4328zm3.3905-4.1235c-2.3849-1.2021-9.4591 4.8133-11.994 8.9844-3.2189 6.4175-2.1199 14.956-0.01619 15.97 2.6165 1.2619 7.1779-2.8445 10.494-9.7344 1.3856-3.6998 5.1835-12.695 1.5161-15.22" fill="#fff"/>
  </g>
 </g>
</svg>
