<?xml version="1.0" encoding="UTF-8"?>
<svg width="52.509" height="52.52" version="1.0" viewBox="0 0 52.509 52.52" xmlns="http://www.w3.org/2000/svg" xmlns:xlink="http://www.w3.org/1999/xlink">
 <defs>
  <linearGradient id="linearGradient13956" x1="46.592" x2="43.592" y1="89.585" y2="-74.733" gradientUnits="userSpaceOnUse">
   <stop stop-color="#e6e6e6" offset="0"/>
   <stop stop-color="#fff" offset="1"/>
  </linearGradient>
  <linearGradient id="linearGradient13966" x1="26.48" x2="26.48" y1="1.3939" y2="52.843" gradientUnits="userSpaceOnUse">
   <stop stop-color="#fff" offset="0"/>
   <stop stop-color="#fff" stop-opacity="0" offset="1"/>
  </linearGradient>
 </defs>
 <g transform="translate(-3.8191 -6.1557)">
  <g transform="translate(-840.83 182.27)" fill="#71c000" stroke="#71c000" stroke-linejoin="bevel" stroke-width="3.379"></g>
  <g transform="translate(-1426.6 -26.29)" fill="#71c000" stroke="#71c000" stroke-linejoin="bevel" stroke-width="3.379"></g>
  <rect x="4.9083" y="7.2196" width="50.731" height="50.549" ry="7.0914" color="black" fill="url(#linearGradient13956)" fill-rule="evenodd" stroke="#2b2b2b" stroke-width=".997"/>
  <g transform="matrix(-.0039739 .6296 -.6296 -.0039739 295.58 -273.62)" fill="#fff"></g>
  <path transform="translate(3.8191 6.1557)" d="m2.1818 45.429-0.18182-37.636s1.0909-5.6364 5.4545-5.8182c4.3636-0.18182 37.455 0 37.455 0s5.8182 0 6 7.2727c0.18182 7.2727-0.18182 36.727-0.18182 36.727" color="black" fill="none" stroke="url(#linearGradient13966)"/>
  <g transform="matrix(.28692 0 0 .28692 -20.415 44.739)" fill="#d40000" fill-rule="evenodd">
   <path d="m145.26-56.337v3.3002l8.1-0.30012-0.34375 8.9561c-0.44425 3.9685-0.744 12.653-1.1401 17.46l-1.4722 26.428c-0.32425 2.8924-0.18462 6.0026-0.34238 8.9578-0.13774 2.5852-0.60125 6.0049-0.60125 8.6985 0.68851-0.01525 4.2534-0.7965 4.6464-1.0534 1.0785-0.7055 1.2816-8.7711 1.3591-10.341 0.19463-3.9466 1.3241-12.301 1.4921-16.208l3.5759-40.224c0.0688-1.1022-0.28199-2.0764 0.46488-2.5352 0.4625-0.2845 9.6506 0.16162 11.261 0.16162v-4.2002h-11.1c0-7.127 0.88162-14.121 0.88975-21.31 2e-3 -1.9694 0.3305-2.8835 0.31112-5.0889-0.0259-2.9679 0.231-13.201 3.5989-13.201 1.9549 0 0.224 3.6 2.1001 3.6h3.9001v-8.1c-5.9804 0-8.5021 0.83975-12.547 7.5533-9.0201 14.971-3.0069 33.163-6.9395 35.961-2.1509 1.53-7.2139-0.59675-7.2139 1.486"/>
   <path d="m243.96-46.437c0 5.3061-2.3978 8.6964-7.6259 9.4745-1.2845 0.19125-6.6944 1.1714-7.0988 0.76712-0.682-0.68212 1.4174-15.03 7.1051-18.161 2.1125-1.1629 4.7664-0.77812 6.0498 0.78912 1.1889 1.4516 1.5698 4.5404 1.5698 7.1301zm-22.5 19.2c0 4.5751 1.2826 9.6708 3.1726 12.428 4.4668 6.515 12.538 7.2535 18.933 4.2781 5.2565-2.4459 9.0946-9.4744 9.0946-15.806-1.6654 0-1.7791-0.30012-3.2999-0.30012v1.8c0 10.928-17.589 18.353-20.539-0.16088-0.19563-1.2278-0.39763-3.8488-0.303-4.7611 0.48512-4.6765-1.6409-1.4541 11.546-4.6744 10.185-2.4866 8.8088-1.6521 9.6435-6.5565 1.3061-7.6705-0.70975-16.847-9.3469-16.847-4.353 0-7.0986 0.30188-10.428 3.6722-1.1582 1.1729-1.6954 1.5945-2.6568 3.043-3.8862 5.8561-5.8152 15.78-5.8152 23.885"/>
   <path d="m208.56-43.137c0-0.7675 0.47513-0.04812 0.17825 0 0 0-0.0216 5e-3 -0.0224 5e-3 -0.17713 0.0075-0.15588 0.67462-0.15588-5e-3zm-15.9-9.6002v4.2002c1.5414-0.12825 3.117-0.65762 4.7229-0.97725 1.2781-0.254 3.3371-0.82275 4.877-0.82275l-1.8819 35.918c-0.22388 1.6339-0.21826 3.4132-0.21826 5.4819h5.1002c1.125-13.519 2.9002-21.997 8.9036-32.796 2.7822-5.0049 4.557-6.5038 9.3961-6.5038v-8.3998c-4.6109 0-7.2008 1.3128-9.7778 4.6219-3.6311 4.663-3.4179 6.0332-4.5372 7.763-0.36138 0.55888-0.12325 0.21412-0.38475 0.51488 0-4.6356 0.9-8.4252 0.9-13.2l-7.904 2.5959c-2.424 0.70475-6.2951 1.604-9.196 1.604"/>
   <path d="m173.76-53.037v3.6c1.1926 0 7.712-1.17 8.3997-1.5002 0 2.1998 0.135 14.836-0.0819 16.418-0.232 1.6926-0.0719 3.5079-0.23387 5.4662-0.27138 3.2808-0.59313 6.8599-0.91163 10.188-0.16725 1.7469-0.97625 8.893-1.4726 9.9276 1.535 0 2.3688-0.38725 3.8232-0.67712 1.1746-0.23425 2.723-0.53075 3.977-0.82275 0-1.811 0.16337-3.7279 0.31637-5.6835 0.5375-6.8562 1.1569-13.641 1.484-20.416 0.2895-5.9921 1.4995-14.986 1.4995-20.701-4.4419 1.035-11.9 4.0911-16.8 4.2002"/>
   <path d="m186.06-66.837c7.0845 0 7.7918-12.3 0-12.3-6.8429 0-7.1496 12.3 0 12.3"/>
  </g>
  <path d="m8.4644 25.704c0.04696 1.3899 0.32733 2.2833 1.7115 3.6595 0.44634 0.44378 0.86802 0.92124 1.3293 1.3276l2.9451 2.4707c2.0027 1.5555 1.6928 4.2011 1.1905 4.7831-0.32116 0.37208-2.0118 0.87598-2.417-0.69554-0.22327-0.86585-0.05888-1.4435-0.05888-2.2913h-4.7006v2.4024c0.06639 1.594 0.40155 3.0835 1.8222 4.1547 0.76205 0.57458 2.2324 0.99205 3.2864 1.0053 0.58101 0.0072 0.83639 0.13433 1.3196 0.10031 0.82468-0.05816 1.7808-0.1546 2.5398-0.32963 0.71462-0.16473 1.4007-0.49722 1.8918-0.96927 0.55312-0.53149 0.83617-0.99869 1.0853-1.7759 0.36161-1.1276 0.51672-4.131 0.27713-5.2632-0.14616-0.69094-0.56547-1.461-0.89978-1.9614-0.24558-0.3674-0.32946-0.48772-0.61575-0.81493-0.88165-1.0075-1.9754-1.9432-3.0285-2.7959-0.59885-0.48495-1.8487-1.4535-2.2977-1.9942-0.24597-0.29617-0.40286-0.47252-0.5168-0.91375-0.88369-3.4233 2.0714-3.4875 2.4361-2.0273 0.14242 0.57041 0.15979 1.6379 0.15979 2.2927h4.3939c0.49615 0 0.30655-0.74429 0.30655-2.0437 0-2.2849-0.97191-4.3783-3.2315-5.0454-2.0435-0.60336-5.3726-0.48086-7.0922 0.75055-1.0413 0.74578-1.8363 2.2021-1.8363 3.9882v1.9864z" fill="#241f21" fill-rule="evenodd"/>
 </g>
</svg>
