<?xml version="1.0" encoding="UTF-8" standalone="no"?>
<!-- Created with Inkscape (http://www.inkscape.org/) -->

<svg
   xmlns:dc="http://purl.org/dc/elements/1.1/"
   xmlns:cc="http://creativecommons.org/ns#"
   xmlns:rdf="http://www.w3.org/1999/02/22-rdf-syntax-ns#"
   xmlns:svg="http://www.w3.org/2000/svg"
   xmlns="http://www.w3.org/2000/svg"
   xmlns:xlink="http://www.w3.org/1999/xlink"
   xmlns:sodipodi="http://sodipodi.sourceforge.net/DTD/sodipodi-0.dtd"
   xmlns:inkscape="http://www.inkscape.org/namespaces/inkscape"
   width="225.57492"
   height="242.67583"
   viewBox="0 0 225.57492 242.67583"
   id="svg2"
   version="1.1"
   inkscape:version="0.48.5 r10040"
   sodipodi:docname="alert_sign.svg">
  <defs
     id="defs4">
    <linearGradient
       inkscape:collect="always"
       xlink:href="#linearGradient3179"
       id="linearGradient18199"
       gradientUnits="userSpaceOnUse"
       x1="253.04321"
       y1="43.224865"
       x2="247.99245"
       y2="128.83022" />
    <linearGradient
       id="linearGradient3179"
       inkscape:collect="always">
      <stop
         id="stop3181"
         offset="0"
         style="stop-color:white;stop-opacity:1;" />
      <stop
         id="stop3183"
         offset="1"
         style="stop-color:white;stop-opacity:0;" />
    </linearGradient>
    <linearGradient
       inkscape:collect="always"
       xlink:href="#linearGradient3117"
       id="linearGradient18201"
       gradientUnits="userSpaceOnUse"
       gradientTransform="translate(-10.59173,2.020305)"
       x1="282.85715"
       y1="368.07648"
       x2="663.69843"
       y2="177.61057" />
    <linearGradient
       id="linearGradient3117">
      <stop
         id="stop3119"
         offset="0"
         style="stop-color:#fc0;stop-opacity:1;" />
      <stop
         id="stop3121"
         offset="1"
         style="stop-color:white;stop-opacity:1;" />
    </linearGradient>
    <linearGradient
       inkscape:collect="always"
       xlink:href="#linearGradient3137"
       id="linearGradient18203"
       gradientUnits="userSpaceOnUse"
       gradientTransform="translate(1.010153,-1.010153)"
       x1="427.23581"
       y1="156.51746"
       x2="-31.527491"
       y2="473.74249" />
    <linearGradient
       id="linearGradient3137">
      <stop
         id="stop3139"
         offset="0"
         style="stop-color:white;stop-opacity:1;" />
      <stop
         id="stop3141"
         offset="1"
         style="stop-color:white;stop-opacity:0;" />
    </linearGradient>
    <linearGradient
       inkscape:collect="always"
       xlink:href="#linearGradient3117"
       id="linearGradient18205"
       gradientUnits="userSpaceOnUse"
       x1="190.87553"
       y1="288.08536"
       x2="756.89148"
       y2="452.04697" />
    <linearGradient
       inkscape:collect="always"
       xlink:href="#linearGradient3179"
       id="linearGradient18207"
       gradientUnits="userSpaceOnUse"
       gradientTransform="matrix(1.195144,0,0,1.195144,-55.76356,-46.99685)"
       x1="323.00323"
       y1="248.59642"
       x2="144.17868"
       y2="248.59642" />
    <linearGradient
       inkscape:collect="always"
       xlink:href="#linearGradient3179"
       id="linearGradient18210"
       gradientUnits="userSpaceOnUse"
       gradientTransform="matrix(1.319138,0,0,1.319138,-96.93297,-105.6762)"
       x1="327.53409"
       y1="364.36505"
       x2="261.7886"
       y2="364.36505" />
    <linearGradient
       inkscape:collect="always"
       xlink:href="#linearGradient3137"
       id="linearGradient18212"
       gradientUnits="userSpaceOnUse"
       x1="64.465431"
       y1="495.65863"
       x2="74.844246"
       y2="429.74615" />
    <linearGradient
       y2="367.17575"
       x2="308.5"
       y1="438.89658"
       x1="-37.380043"
       gradientTransform="translate(-8.08122,4.04061)"
       gradientUnits="userSpaceOnUse"
       id="linearGradient18286"
       xlink:href="#linearGradient3137"
       inkscape:collect="always" />
  </defs>
  <sodipodi:namedview
     id="base"
     pagecolor="#ffffff"
     bordercolor="#666666"
     borderopacity="1.0"
     inkscape:pageopacity="0.0"
     inkscape:pageshadow="2"
     inkscape:zoom="0.35"
     inkscape:cx="-63.641116"
     inkscape:cy="-44.376368"
     inkscape:document-units="px"
     inkscape:current-layer="layer1"
     showgrid="false"
     inkscape:window-width="1241"
     inkscape:window-height="709"
     inkscape:window-x="98"
     inkscape:window-y="260"
     inkscape:window-maximized="0" />
  <metadata
     id="metadata7">
    <rdf:RDF>
      <cc:Work
         rdf:about="">
        <dc:format>image/svg+xml</dc:format>
        <dc:type
           rdf:resource="http://purl.org/dc/dcmitype/StillImage" />
        <dc:title />
      </cc:Work>
    </rdf:RDF>
  </metadata>
  <g
     inkscape:label="Layer 1"
     inkscape:groupmode="layer"
     id="layer1"
     transform="translate(-24.355402,-13.881409)">
    <g
       style="display:inline"
       id="g9147"
       inkscape:label="Layer 1"
       transform="matrix(-0.55270644,0,0,0.55270644,284.26536,-12.485739)">
      <path
         sodipodi:nodetypes="csccccccsccc"
         id="path9149"
         d="M 262.67481,49.210343 C 251.11701,52.547131 241.46889,59.648393 234.96875,73.6875 211.91593,123.47732 66.6875,441.09375 66.6875,441.09375 66.687499,441.09374 52.916263,476.70888 79.5,482 l 15.915175,3.66072 23.272155,-9.59394 60.46892,-8.03553 C 271.43794,452.66602 424.07337,427.23065 435.46875,425.25 449.82492,422.74588 463.60609,402.96916 453.75,379.0625 444.45162,356.5086 321.30242,98.213741 302.6875,64.90625 l -12.85354,-15.919121 -27.15915,0.223214 z"
         style="fill:#1a1a1a;fill-opacity:1;fill-rule:evenodd;stroke:#000000;stroke-width:2;stroke-linecap:butt;stroke-linejoin:miter;stroke-miterlimit:4;stroke-opacity:1;stroke-dasharray:none" />
      <path
         sodipodi:nodetypes="ccscc"
         id="path9151"
         d="m 264.15489,49.280704 17.67767,0 c 0,0 -37.16419,13.061006 -51.0127,63.639606 -20.21642,73.83601 -12.62691,-1.51523 -12.62691,-1.51523 5.18396,-6.29959 18.48469,-60.005278 45.96194,-62.124376 z"
         style="fill:url(#linearGradient18199);fill-opacity:1;fill-rule:evenodd;stroke:none" />
      <path
         sodipodi:nodetypes="czszscc"
         id="path9153"
         d="m 108.2513,484.98339 c 0,0 324.12191,-53.94856 339.38273,-56.60107 14.35618,-2.50413 28.14026,-22.27628 18.28417,-46.18294 C 456.53182,359.43204 331.05562,96.286254 314.28297,67.006864 297.36767,37.478444 261.50542,45.801664 247.14244,76.823054 224.08962,126.61287 78.837931,444.20765 78.837931,444.20765 c 0,0 -18.637042,48.27004 29.413369,40.77574 z"
         style="fill:url(#linearGradient18201);fill-opacity:1;fill-rule:evenodd;stroke:#000000;stroke-width:2;stroke-linecap:butt;stroke-linejoin:miter;stroke-miterlimit:4;stroke-opacity:1;stroke-dasharray:none" />
      <path
         sodipodi:nodetypes="czszscc"
         id="path9155"
         d="m 130.26736,465.03292 c 0,0 289.27114,-48.1478 302.891,-50.51511 12.81259,-2.23487 25.11453,-19.88105 16.31826,-41.21718 C 441.09944,352.98132 329.11493,118.12996 314.14575,91.998787 299.04924,65.645378 267.04303,73.073652 254.22442,100.75951 c -20.5741,44.43622 -150.20781,327.88203 -150.20781,327.88203 0,0 -16.633115,43.07987 26.25075,36.39138 z"
         style="fill:#1a1a1a;fill-opacity:1;fill-rule:evenodd;stroke:url(#linearGradient18203);stroke-width:1.79200006;stroke-linecap:butt;stroke-linejoin:miter;stroke-miterlimit:4;stroke-opacity:1;stroke-dasharray:none" />
      <path
         sodipodi:nodetypes="czszscc"
         id="path9157"
         d="m 147.07171,451.00963 c 0,0 260.56442,-43.36971 272.83272,-45.50209 11.54106,-2.01308 22.6222,-17.90809 14.69881,-37.12686 -7.5458,-18.30287 -108.4172,-229.84802 -121.90088,-253.38599 -13.59835,-23.738158 -42.42833,-17.047045 -53.97485,7.89133 -18.53236,40.02646 -135.30147,295.34364 -135.30147,295.34364 0,0 -14.98247,38.8047 23.64567,32.77997 z"
         style="fill:url(#linearGradient18205);fill-opacity:1;fill-rule:evenodd;stroke:#000000;stroke-width:0.80390871px;stroke-linecap:butt;stroke-linejoin:miter;stroke-opacity:1" />
      <g
         transform="matrix(1,0,-0.0127832,1.057507,0.685308,-8.079045)"
         id="g9159">
        <path
           style="fill:#1a1a1a;fill-rule:evenodd;stroke:url(#linearGradient18207);stroke-width:2.39028788;stroke-linecap:butt;stroke-linejoin:miter;stroke-miterlimit:4;stroke-opacity:1;stroke-dasharray:none"
           d="m 260.05877,166.52615 62.74035,2.89235 -5.49801,158.47391 -38.04172,5.80473 -19.20062,-167.17099 z"
           id="path9161"
           sodipodi:nodetypes="ccccc" />
        <path
           style="fill:#1a1a1a;fill-rule:evenodd;stroke:url(#linearGradient18210);stroke-width:2.63827634;stroke-linecap:butt;stroke-linejoin:miter;stroke-miterlimit:4;stroke-opacity:1;stroke-dasharray:none"
           d="m 278.85573,348.44088 40.17873,-6.43307 1.84146,37.165 -42.83494,8.41607 0.81475,-39.148 z"
           id="path9163"
           sodipodi:nodetypes="ccccc" />
      </g>
      <path
         sodipodi:nodetypes="cczccc"
         id="path9165"
         d="M 66.415881,445.60185 C 65.095317,450.8841 58.278957,477.07912 81.4719,481.97441 72.76427,473.571 73.694894,455.67852 77.833938,443.90804 81.914381,432.3042 142.01941,304.38647 142.01941,304.38647 l -10.46393,-2.12492 -65.139599,143.3403 z"
         style="fill:url(#linearGradient18212);fill-opacity:1;fill-rule:evenodd;stroke:none" />
      <path
         sodipodi:nodetypes="ccccc"
         id="path9167"
         d="m 110.66573,482.79839 c 0,0 313.3885,-52.16205 328.14395,-54.7267 C 47.022548,496.0089 215.8952,219.49624 256.06912,70.981816 233.7797,119.12284 82.226391,443.37296 82.226391,443.37296 c 0,0 -18.019874,46.67155 28.439339,39.42543 z"
         style="fill:url(#linearGradient18286);fill-opacity:1;fill-rule:evenodd;stroke:none" />
    </g>
  </g>
</svg>
