<?xml version="1.0" encoding="UTF-8" standalone="no"?>
<!-- Created with Inkscape (http://www.inkscape.org/) -->

<svg
   xmlns:dc="http://purl.org/dc/elements/1.1/"
   xmlns:cc="http://creativecommons.org/ns#"
   xmlns:rdf="http://www.w3.org/1999/02/22-rdf-syntax-ns#"
   xmlns:svg="http://www.w3.org/2000/svg"
   xmlns="http://www.w3.org/2000/svg"
   xmlns:xlink="http://www.w3.org/1999/xlink"
   xmlns:sodipodi="http://sodipodi.sourceforge.net/DTD/sodipodi-0.dtd"
   xmlns:inkscape="http://www.inkscape.org/namespaces/inkscape"
   width="52.509098"
   height="52.52018"
   viewBox="0 0 52.509098 52.52018"
   id="svg5160"
   sodipodi:version="0.32"
   inkscape:version="0.48.5 r10040"
   sodipodi:docname="deb.svg"
   version="1.0"
   inkscape:export-xdpi="27.42"
   inkscape:export-ydpi="27.42"
   inkscape:output_extension="org.inkscape.output.svg.inkscape">
  <defs
     id="defs5162">
    <linearGradient
       inkscape:collect="always"
       id="linearGradient13960">
      <stop
         style="stop-color:white;stop-opacity:1;"
         offset="0"
         id="stop13962" />
      <stop
         style="stop-color:white;stop-opacity:0;"
         offset="1"
         id="stop13964" />
    </linearGradient>
    <linearGradient
       id="linearGradient3898">
      <stop
         style="stop-color:#cd0047;stop-opacity:1;"
         offset="0"
         id="stop3900" />
      <stop
         style="stop-color:white;stop-opacity:1;"
         offset="1"
         id="stop3902" />
    </linearGradient>
    <linearGradient
       inkscape:collect="always"
       xlink:href="#linearGradient3898"
       id="linearGradient13956"
       x1="46.591862"
       y1="89.585007"
       x2="43.591812"
       y2="-74.733185"
       gradientUnits="userSpaceOnUse" />
    <linearGradient
       inkscape:collect="always"
       xlink:href="#linearGradient13960"
       id="linearGradient13966"
       x1="26.48"
       y1="1.3939171"
       x2="26.48"
       y2="52.84341"
       gradientUnits="userSpaceOnUse" />
  </defs>
  <sodipodi:namedview
     id="base"
     pagecolor="#ffffff"
     bordercolor="#666666"
     borderopacity="1.0"
     inkscape:pageopacity="0.0"
     inkscape:pageshadow="2"
     inkscape:zoom="2.75"
     inkscape:cx="32.906299"
     inkscape:cy="25.717235"
     inkscape:current-layer="layer1"
     showgrid="false"
     inkscape:document-units="px"
     inkscape:grid-bbox="true"
     inkscape:window-width="902"
     inkscape:window-height="674"
     inkscape:window-x="253"
     inkscape:window-y="155"
     showguides="true"
     inkscape:guide-bbox="true"
     inkscape:window-maximized="0">
    <sodipodi:guide
       orientation="vertical"
       position="-45.454545"
       id="guide5214" />
    <sodipodi:guide
       orientation="horizontal"
       position="61.454545"
       id="guide5226" />
    <sodipodi:guide
       orientation="vertical"
       position="393.92276"
       id="guide5230" />
    <sodipodi:guide
       orientation="horizontal"
       position="62.181818"
       id="guide5232" />
    <sodipodi:guide
       orientation="vertical"
       position="438.14907"
       id="guide5236" />
  </sodipodi:namedview>
  <metadata
     id="metadata5165">
    <rdf:RDF>
      <cc:Work
         rdf:about="">
        <dc:format>image/svg+xml</dc:format>
        <dc:type
           rdf:resource="http://purl.org/dc/dcmitype/StillImage" />
      </cc:Work>
    </rdf:RDF>
  </metadata>
  <g
     id="layer1"
     inkscape:label="Layer 1"
     inkscape:groupmode="layer"
     transform="translate(-3.819132,-6.155729)">
    <g
       inkscape:label="shadow"
       style="display:inline"
       id="layer4"
       transform="translate(-392.7904,328.2799)" />
    <g
       inkscape:label="shadow"
       id="g3039"
       transform="translate(-840.833,182.2722)" />
    <g
       inkscape:label="color"
       id="g3041"
       transform="translate(-840.833,182.2722)">
      <path
         style="opacity:1;fill:#71c000;fill-opacity:1;stroke:#71c000;stroke-width:3.37896037;stroke-linejoin:bevel;stroke-miterlimit:4;stroke-dasharray:none;stroke-opacity:1"
         d=""
         id="path3043" />
      <path
         style="opacity:1;fill:#71c000;fill-opacity:1;stroke:#71c000;stroke-width:3.37896037;stroke-linejoin:bevel;stroke-miterlimit:4;stroke-dasharray:none;stroke-opacity:1"
         d=""
         id="path3045" />
      <path
         style="opacity:1;fill:#71c000;fill-opacity:1;stroke:#71c000;stroke-width:3.37896037;stroke-linejoin:bevel;stroke-miterlimit:4;stroke-dasharray:none;stroke-opacity:1"
         d=""
         id="path3047" />
    </g>
    <g
       inkscape:label="highlight"
       id="g3049"
       transform="translate(-840.833,182.2722)" />
    <g
       inkscape:label="text"
       id="g3089"
       transform="translate(-840.833,182.2722)" />
    <g
       id="g4774"
       inkscape:label="shadow"
       transform="translate(-1426.607,-26.2895)" />
    <g
       id="layer2"
       inkscape:label="color"
       transform="translate(-1426.607,-26.2895)">
      <path
         style="opacity:1;fill:#71c000;fill-opacity:1;stroke:#71c000;stroke-width:3.37896037;stroke-linejoin:bevel;stroke-miterlimit:4;stroke-dasharray:none;stroke-opacity:1"
         d=""
         id="path3422" />
      <path
         style="opacity:1;fill:#71c000;fill-opacity:1;stroke:#71c000;stroke-width:3.37896037;stroke-linejoin:bevel;stroke-miterlimit:4;stroke-dasharray:none;stroke-opacity:1"
         d=""
         id="path3426" />
      <path
         style="opacity:1;fill:#71c000;fill-opacity:1;stroke:#71c000;stroke-width:3.37896037;stroke-linejoin:bevel;stroke-miterlimit:4;stroke-dasharray:none;stroke-opacity:1"
         d=""
         id="path3428" />
    </g>
    <g
       id="g5777"
       inkscape:label="highlight"
       transform="translate(-1426.607,-26.2895)" />
    <g
       id="layer5"
       inkscape:label="text"
       transform="translate(-1426.607,-26.2895)" />
    <rect
       style="opacity:1;color:black;fill:url(#linearGradient13956);fill-opacity:1.0;fill-rule:evenodd;stroke:#2b2b2b;stroke-width:0.99650371;stroke-linecap:butt;stroke-linejoin:miter;marker:none;marker-start:none;marker-mid:none;marker-end:none;stroke-miterlimit:4;stroke-dasharray:none;stroke-dashoffset:0;stroke-opacity:1;visibility:visible;display:inline;overflow:visible"
       id="rect13948"
       width="50.730724"
       height="50.548958"
       x="4.9082928"
       y="7.219615"
       ry="7.0913997" />
    <g
       id="g6007"
       transform="matrix(-3.973892e-3,0.629601,-0.629601,-3.973892e-3,295.5792,-273.6194)"
       inkscape:export-xdpi="27.42"
       inkscape:export-ydpi="27.42"
       style="fill:white">
      <g
         transform="translate(415.3267,354.416)"
         id="g6011"
         style="fill:white" />
    </g>
    <g
       id="g3192"
       inkscape:label="openvaslogo"
       style="display:inline"
       transform="translate(-996.7028,556.527)" />
    <path
       style="opacity:1;color:black;fill:none;fill-opacity:1;fill-rule:evenodd;stroke:url(#linearGradient13966);stroke-width:1;stroke-linecap:butt;stroke-linejoin:miter;marker:none;marker-start:none;marker-mid:none;marker-end:none;stroke-miterlimit:4;stroke-dasharray:none;stroke-dashoffset:0;stroke-opacity:1;visibility:visible;display:inline;overflow:visible"
       d="M 2.1818182,45.429271 L 2,7.792907 C 2,7.792907 3.0909091,2.1565434 7.4545455,1.9747252 C 11.818182,1.792907 44.909091,1.9747252 44.909091,1.9747252 C 44.909091,1.9747252 50.727273,1.9747252 50.909091,9.2474525 C 51.090909,16.52018 50.727273,45.974725 50.727273,45.974725"
       id="path13958"
       transform="translate(3.819132,6.155729)" />
    <path
       inkscape:export-ydpi="88.747223"
       inkscape:export-xdpi="88.747223"
       sodipodi:nodetypes="csscccsssssssssssssssssssssssssssssssssssssssssssssssssssssssssssssssssssssssssssssssccssssssssssssssssssssssssssssssssssssssssssssssssssssssssssssssccsssssssccssccssssccsssssssccsssssssssccssccsscccsssc"
       id="path2397"
       d="M 29.995691,53.419434 C 28.177684,53.269631 26.092099,52.681399 24.091585,51.7542 C 18.537,49.179765 13.965387,44.163476 12.303218,38.819196 C 11.699027,36.876564 11.163237,36.361478 11.070755,32.167971 C 11.066543,31.118786 11.1945,29.80694 11.468787,28.204281 L 12.078572,26.623181 C 12.854954,24.610128 13.586001,23.216361 13.885101,23.178969 C 14.103383,23.151687 14.550687,22.745925 14.55622,22.570176 C 14.561893,22.390193 15.600708,20.578901 15.69826,20.578901 C 15.753912,20.578901 15.894081,20.409043 16.009751,20.201434 C 16.286077,19.705488 16.991784,19.04617 18.625281,17.757852 C 19.485697,17.07925 19.996,16.746101 20.053552,16.825417 C 20.113688,16.908286 20.429043,16.770715 21.013703,16.406559 C 21.97352,15.808733 23.488451,15.133485 25.739855,14.299975 C 27.23401,13.746812 27.533994,13.667027 27.393934,13.860038 C 27.296046,13.994936 27.254535,13.997552 28.391994,13.797203 C 29.37257,13.624492 29.69518,13.663138 29.304396,13.906511 C 29.118645,14.022193 29.227856,14.052367 30.045316,14.111217 C 30.572649,14.149185 31.02072,14.166091 31.041029,14.148795 C 31.152674,14.053708 30.90242,13.645713 30.728934,13.639981 C 30.57305,13.634827 30.583969,13.612808 30.774843,13.547397 C 31.121169,13.428718 32.590515,13.348056 32.590515,13.447727 C 32.590515,13.492394 32.299115,13.543452 31.942959,13.561182 C 31.245509,13.595897 30.966024,13.821971 31.550036,13.879004 C 31.804365,13.903842 31.89162,13.965063 31.865018,14.099995 C 31.833713,14.258789 31.930256,14.286631 32.512176,14.286631 C 32.888348,14.286631 33.285257,14.315761 33.394196,14.351367 C 33.524172,14.393846 33.592266,14.357182 33.592266,14.244717 C 33.592266,14.150459 33.635046,14.073337 33.687333,14.073337 C 33.967078,14.073337 36.945317,14.961732 37.61678,15.24547 C 38.305802,15.536634 38.479881,15.568005 39.062481,15.506009 C 39.985723,15.407765 40.536179,15.51381 40.700863,15.821652 C 40.774917,15.960079 41.023016,16.184317 41.252194,16.319958 C 41.612814,16.533397 41.639393,16.537626 41.449747,16.351383 C 41.083047,15.991274 41.081525,15.949542 41.87475,16.322018 C 44.702392,17.649788 47.323351,20.382289 48.258308,22.696778 C 48.542416,23.400084 48.551457,23.525639 48.305476,23.351767 C 47.969869,23.114545 48.08346,23.93567 48.604229,25.511401 C 48.870782,26.317932 49.053478,26.977811 49.010221,26.977796 C 48.966962,26.977787 48.744636,26.461873 48.51616,25.831326 C 48.287685,25.200778 47.899178,24.334451 47.652811,23.906155 C 47.210109,23.136533 47.199598,23.127812 46.753425,23.159614 C 46.332128,23.189646 46.304918,23.213161 46.346027,23.51174 C 46.407307,23.956811 46.586706,24.207515 46.795156,24.13939 C 46.89213,24.107697 46.962262,23.969565 47.093085,24.276673 C 47.3491,24.877668 47.278937,24.767825 47.402366,25.424155 C 47.505813,25.974236 47.643552,26.331218 47.57728,26.449464 C 47.558147,26.483597 47.403594,26.301873 47.288689,26.220651 C 47.1006,26.087701 47.089097,26.099481 47.173303,26.338766 C 47.224744,26.48495 47.370911,26.759181 47.498122,26.948177 C 47.631408,27.146197 47.679019,27.318326 47.610483,27.354401 C 47.478331,27.423965 47.448956,28.145611 47.56756,28.408855 C 47.609363,28.501637 47.750235,28.577553 47.880608,28.577553 C 48.010979,28.577553 48.117403,28.58955 48.117101,28.604212 C 48.116803,28.618877 47.977119,28.966816 47.806696,29.377417 C 47.619005,29.82962 47.492665,30.376243 47.486258,30.763851 C 47.477006,31.323483 47.458417,31.370301 47.338039,31.137116 C 47.213714,30.896286 47.136852,30.939791 47.069005,31.670363 C 47.026365,32.129511 47.058005,32.46221 46.777382,32.700217 C 46.485251,32.947987 46.793227,32.493251 46.704943,32.464393 C 46.54379,32.411727 45.613948,34.002915 45.610898,34.336575 C 45.610095,34.42456 45.547879,34.562011 45.49378,34.652282 C 45.297922,34.979082 45.297402,34.815035 45.122532,34.623602 C 44.936068,34.419483 44.928451,34.446664 44.680688,34.782436 C 44.547539,34.96288 44.454014,35.257578 44.459789,35.430533 C 44.472267,35.804341 44.210291,36.333153 44.046462,36.333153 C 43.982336,36.333153 44.109502,36.215561 44.082008,36.016294 C 44.057174,35.836297 43.904989,35.97358 43.225059,36.509697 C 41.466612,37.896222 39.599412,38.767766 37.569842,39.149356 C 35.976574,39.448919 33.663402,39.388657 31.993892,39.004098 C 30.749478,38.717456 30.649266,38.801196 31.643086,39.297239 C 32.318734,39.634477 33.015,39.776963 34.507317,39.943869 C 35.162749,40.016724 36.546955,39.987071 36.546955,40.033315 C 36.546955,40.176092 35.200477,40.348056 34.263067,40.298337 C 32.625603,40.211482 31.889993,39.935014 30.597293,39.396077 C 29.405797,38.89933 27.421238,37.824296 26.698927,36.829722 C 25.817771,35.616431 26.343126,36.22964 27.335614,37.075838 C 27.737935,37.418858 28.223202,37.758483 28.079045,37.516011 C 27.851857,37.133871 26.96943,36.481543 28.401577,37.439646 C 28.908336,37.778665 29.804911,38.424469 30.420617,38.677611 C 31.044057,38.933926 30.366178,38.480962 29.181025,37.628186 C 27.12831,36.151163 26.187835,34.904207 25.735439,33.333639 C 25.621342,32.937532 25.546484,32.159158 25.543843,31.341449 C 25.539914,30.124198 25.640368,30.062881 25.856584,29.421773 C 25.970258,29.084716 26.231095,28.602775 26.391926,28.327034 C 26.549806,28.056346 26.830326,27.586686 27.099375,27.313872 C 28.145436,26.042752 29.411008,25.149976 31.137138,24.611756 C 31.866485,24.422855 32.186811,24.398702 33.203248,24.455956 C 33.938546,24.497377 34.691391,24.575532 35.094891,24.745142 C 37.386867,25.708559 37.115202,25.795964 38.079384,26.671713 C 38.104508,26.694532 36.967205,26.066412 36.455958,25.859627 C 35.134674,25.325206 33.861603,25.180327 32.527906,25.412592 C 29.687595,25.90724 27.602352,27.650171 27.018829,30.017309 C 26.803139,30.892282 26.77552,31.498566 26.955669,31.403742 C 27.027643,31.365851 27.081812,31.465212 27.083062,31.637405 C 27.087549,32.255669 27.468052,33.455381 27.888399,34.176604 C 29.074999,36.212552 31.268579,37.65395 33.7534,38.030488 C 34.843865,38.195733 35.48193,38.163771 36.597518,37.888031 C 36.976304,37.794404 37.413282,37.704145 37.568579,37.687462 C 38.012753,37.639741 38.866695,37.143022 39.309003,36.879006 C 40.082767,36.417143 40.636904,36.027684 39.837233,36.759541 C 39.479775,37.086682 40.423687,36.551865 41.606014,35.68157 C 42.777914,34.818947 43.050254,34.531525 42.935993,34.277922 C 42.817479,34.014879 43.125652,33.481483 43.488465,33.321693 C 43.738917,33.211384 43.919472,32.988612 44.112516,32.551731 C 44.472405,31.737245 44.583338,31.180102 44.362471,31.29636 C 44.23613,31.362862 44.22017,31.312711 44.291379,31.072983 C 44.341883,30.902957 44.412565,29.997902 44.448448,29.061745 C 44.513064,27.375949 44.491697,27.189209 44.033035,25.431415 C 43.330289,22.738171 40.386697,19.604171 37.425675,18.396645 C 35.577292,17.642863 32.740141,17.249902 30.760575,17.473494 C 30.148589,17.542617 29.535177,17.609723 29.397435,17.622617 C 29.259695,17.635517 29.104737,17.694053 29.053083,17.752713 C 28.993547,17.820326 28.918497,17.805617 28.848056,17.712532 C 28.686143,17.498576 27.676327,17.726695 26.80386,18.174318 C 26.423249,18.369594 25.984341,18.563831 25.828508,18.605955 C 25.609792,18.665077 25.584504,18.703252 25.717631,18.773321 C 26.013282,18.928945 25.469717,19.169047 24.639121,19.249712 C 23.720901,19.338885 23.212524,19.521109 22.552468,19.952865 C 22.020814,20.300637 22.090862,20.423856 22.214182,20.374463 C 22.513036,20.254761 22.280559,20.839587 21.608243,20.89885 C 20.883943,20.962301 19.591692,21.713581 18.002522,23.080682 C 16.52202,24.354308 15.707306,25.257496 15.932183,25.375862 C 16.128538,25.479221 15.909732,26.023986 15.297939,26.954945 C 14.582274,28.043965 14.433556,28.527779 14.179975,30.591918 C 13.85317,33.252063 13.860348,34.531316 14.206368,35.296415 C 14.370667,35.659705 14.476359,36.148515 14.48402,36.580558 C 14.492503,37.058654 14.56743,37.37057 14.722159,37.57192 C 14.850047,37.738346 14.915154,37.953614 14.872348,38.068492 C 14.784775,38.303487 15.236111,39.261566 15.541033,39.48795 C 15.655184,39.572702 15.95388,39.698136 16.204801,39.766694 C 16.706705,39.903824 17.138414,40.359265 17.55275,41.188753 C 17.807599,41.698948 17.751832,41.788341 17.305589,41.584932 C 16.960974,41.427853 16.998279,41.536265 17.571707,42.358343 C 17.926723,42.867306 18.055153,43.153833 17.997558,43.308397 C 17.936762,43.471531 18.025326,43.62861 18.33446,43.905935 C 18.605064,44.148691 18.698663,44.299293 18.598315,44.33046 C 18.393722,44.393998 18.521385,44.597584 19.474706,45.728071 C 19.917328,46.252957 20.287657,46.593336 20.382407,46.562368 C 20.482022,46.529812 20.621111,46.685479 20.750771,46.974641 C 21.067195,47.680312 21.773112,48.414199 22.135463,48.414199 C 22.335781,48.414199 22.631143,48.590282 23.011033,48.936186 C 23.326337,49.223283 23.751208,49.517056 23.955194,49.589021 C 24.332932,49.72228 24.437961,49.942448 24.186849,50.074624 C 24.058094,50.142398 24.356391,50.314841 25.729797,50.966597 C 26.23266,51.205227 26.337615,51.230436 26.314746,51.107075 C 26.263265,50.829385 26.422303,50.908371 27.196598,51.54503 C 28.28343,52.438673 29.016289,52.728557 31.05861,53.072668 C 31.935594,53.220433 32.737647,53.383067 32.840954,53.434086 C 33.071105,53.547752 31.451736,53.539408 29.995691,53.419434 z M 25.950442,36.814667 C 25.72463,36.550537 25.654026,36.478143 25.556299,36.317654 C 25.458574,36.15717 25.363898,36.042956 25.306665,36.042956 C 25.249432,36.042956 25.202605,35.94697 25.202605,35.829658 C 25.202605,35.712342 25.258954,35.616359 25.327824,35.616359 C 25.396695,35.616359 25.453044,35.705872 25.453044,35.815276 C 25.453044,35.92468 25.613529,36.128643 25.741001,36.268532 C 25.986377,36.537807 26.753693,37.570228 26.687708,37.570228 C 26.666157,37.570228 26.051836,36.918136 25.950442,36.814667 z M 26.378898,35.456388 C 25.844297,34.628256 25.962972,34.517813 26.514187,35.397767 C 26.734694,35.749783 26.790822,36.072356 26.751124,36.082611 C 26.701345,36.09547 26.566722,35.781326 26.378898,35.456388 z M 46.364585,35.468127 C 46.364585,35.425701 46.561834,34.985151 46.802918,34.489123 C 47.044001,33.993102 47.356781,33.145524 47.497983,32.605618 C 47.75142,31.636567 47.814496,31.483263 47.922069,31.574888 C 48.040114,31.675425 47.358263,33.794607 46.95625,34.576634 C 46.555439,35.356324 46.364585,35.643895 46.364585,35.468127 z M 34.343579,34.976467 C 34.240273,34.919611 34.028967,34.872352 33.874007,34.871451 C 33.707902,34.870489 33.592266,34.804162 33.592266,34.709846 C 33.592266,34.590265 33.742445,34.549577 34.187055,34.548701 C 34.51419,34.548055 35.000713,34.516736 35.26822,34.4791 C 35.65303,34.424962 35.742857,34.441907 35.698385,34.560258 C 35.667469,34.642533 35.519036,34.757221 35.368533,34.81512 C 35.218031,34.873027 35.094891,34.957012 35.094891,35.001757 C 35.094891,35.117378 34.567323,35.099618 34.343579,34.976467 z M 37.630573,33.519407 C 37.436294,33.452636 37.399428,33.029812 37.587796,32.869382 C 37.664641,32.803931 37.744671,32.677543 37.895512,32.514286 C 38.003027,32.397929 38.122582,32.262737 38.214382,32.224028 C 38.533346,32.089536 38.198656,32.304752 38.05603,32.685082 C 37.94106,32.991663 37.650778,33.224705 37.7845,33.250104 C 37.957656,33.282999 38.340722,32.919311 38.562718,32.459488 C 38.687088,32.201877 38.884833,31.88474 38.932305,31.88452 C 39.055111,31.88395 38.600399,32.969918 38.395892,33.171837 C 38.3021,33.264444 38.247538,33.399069 38.225362,33.465122 C 38.147437,33.69723 37.805791,33.587928 37.630573,33.519407 z M 39.193485,30.186486 C 39.028735,29.820826 39.099595,29.457747 39.357526,29.457747 C 39.566225,29.457747 39.75902,29.714737 39.628744,30.052474 C 39.332629,30.820136 39.34924,30.687044 39.193485,30.186486 z M 11.179806,25.937995 C 11.130798,25.51371 11.299,25.270399 11.41154,25.156556 C 11.83781,24.725336 11.564375,25.046458 11.542393,25.618051 C 11.532639,25.871827 11.466011,25.975463 11.463015,26.019455 C 11.17028,26.494567 11.161094,26.695384 11.179806,25.937995 z M 12.245164,22.73854 C 12.295826,22.635889 12.364772,22.443917 12.398378,22.311942 C 12.435428,22.166452 12.552329,22.071983 12.695325,22.071983 C 13.00229,22.071983 13.003337,22.395065 12.697343,22.695557 C 12.410779,22.976964 12.113553,23.005218 12.245164,22.73854 z"
       style="fill:#ffffff;fill-opacity:1;stroke:none;stroke-width:2;stroke-miterlimit:4;stroke-dasharray:none;stroke-opacity:1" />
  </g>
</svg>
