<?xml version="1.0" encoding="UTF-8" standalone="no"?>
<!-- Created with Inkscape (http://www.inkscape.org/) -->

<svg
   xmlns:dc="http://purl.org/dc/elements/1.1/"
   xmlns:cc="http://creativecommons.org/ns#"
   xmlns:rdf="http://www.w3.org/1999/02/22-rdf-syntax-ns#"
   xmlns:svg="http://www.w3.org/2000/svg"
   xmlns="http://www.w3.org/2000/svg"
   xmlns:xlink="http://www.w3.org/1999/xlink"
   xmlns:sodipodi="http://sodipodi.sourceforge.net/DTD/sodipodi-0.dtd"
   xmlns:inkscape="http://www.inkscape.org/namespaces/inkscape"
   width="52.509098"
   height="52.52018"
   viewBox="0 0 52.509098 52.52018"
   id="svg5160"
   sodipodi:version="0.32"
   inkscape:version="0.48.5 r10040"
   sodipodi:docname="os_gos.svg"
   version="1.0"
   inkscape:export-xdpi="27.42"
   inkscape:export-ydpi="27.42">
  <defs
     id="defs5162">
    <linearGradient
       inkscape:collect="always"
       id="linearGradient13960">
      <stop
         style="stop-color:white;stop-opacity:1;"
         offset="0"
         id="stop13962" />
      <stop
         style="stop-color:white;stop-opacity:0;"
         offset="1"
         id="stop13964" />
    </linearGradient>
    <linearGradient
       id="linearGradient3898">
      <stop
         style="stop-color:#668000;stop-opacity:1"
         offset="0"
         id="stop3900" />
      <stop
         style="stop-color:#ddff55;stop-opacity:1"
         offset="1"
         id="stop3902" />
    </linearGradient>
    <linearGradient
       inkscape:collect="always"
       xlink:href="#linearGradient3898"
       id="linearGradient13956"
       x1="46.591862"
       y1="89.585007"
       x2="43.591812"
       y2="-74.733185"
       gradientUnits="userSpaceOnUse" />
    <linearGradient
       inkscape:collect="always"
       xlink:href="#linearGradient13960"
       id="linearGradient13966"
       x1="26.48"
       y1="1.3939171"
       x2="26.48"
       y2="52.84341"
       gradientUnits="userSpaceOnUse" />
  </defs>
  <sodipodi:namedview
     id="base"
     pagecolor="#ffffff"
     bordercolor="#666666"
     borderopacity="1.0"
     inkscape:pageopacity="0.0"
     inkscape:pageshadow="2"
     inkscape:zoom="5.5"
     inkscape:cx="53.550492"
     inkscape:cy="18.957249"
     inkscape:current-layer="layer1"
     showgrid="false"
     inkscape:document-units="px"
     inkscape:grid-bbox="true"
     inkscape:window-width="1680"
     inkscape:window-height="1030"
     inkscape:window-x="-3"
     inkscape:window-y="-3"
     showguides="true"
     inkscape:guide-bbox="true"
     inkscape:window-maximized="1">
    <sodipodi:guide
       orientation="vertical"
       position="393.92276"
       id="guide5230" />
    <sodipodi:guide
       orientation="vertical"
       position="438.14907"
       id="guide5236" />
  </sodipodi:namedview>
  <metadata
     id="metadata5165">
    <rdf:RDF>
      <cc:Work
         rdf:about="">
        <dc:format>image/svg+xml</dc:format>
        <dc:type
           rdf:resource="http://purl.org/dc/dcmitype/StillImage" />
        <dc:title />
      </cc:Work>
    </rdf:RDF>
  </metadata>
  <g
     id="layer1"
     inkscape:label="Layer 1"
     inkscape:groupmode="layer"
     transform="translate(-3.819132,-6.155729)">
    <g
       inkscape:label="shadow"
       style="display:inline"
       id="layer4"
       transform="translate(-392.7904,328.2799)" />
    <g
       inkscape:label="shadow"
       id="g3039"
       transform="translate(-840.833,182.2722)" />
    <g
       inkscape:label="color"
       id="g3041"
       transform="translate(-840.833,182.2722)">
      <path
         style="opacity:1;fill:#71c000;fill-opacity:1;stroke:#71c000;stroke-width:3.37896037;stroke-linejoin:bevel;stroke-miterlimit:4;stroke-dasharray:none;stroke-opacity:1"
         d=""
         id="path3043" />
      <path
         style="opacity:1;fill:#71c000;fill-opacity:1;stroke:#71c000;stroke-width:3.37896037;stroke-linejoin:bevel;stroke-miterlimit:4;stroke-dasharray:none;stroke-opacity:1"
         d=""
         id="path3045" />
      <path
         style="opacity:1;fill:#71c000;fill-opacity:1;stroke:#71c000;stroke-width:3.37896037;stroke-linejoin:bevel;stroke-miterlimit:4;stroke-dasharray:none;stroke-opacity:1"
         d=""
         id="path3047" />
    </g>
    <g
       inkscape:label="highlight"
       id="g3049"
       transform="translate(-840.833,182.2722)" />
    <g
       inkscape:label="text"
       id="g3089"
       transform="translate(-840.833,182.2722)" />
    <g
       id="g4774"
       inkscape:label="shadow"
       transform="translate(-1426.607,-26.2895)" />
    <g
       id="layer2"
       inkscape:label="color"
       transform="translate(-1426.607,-26.2895)">
      <path
         style="opacity:1;fill:#71c000;fill-opacity:1;stroke:#71c000;stroke-width:3.37896037;stroke-linejoin:bevel;stroke-miterlimit:4;stroke-dasharray:none;stroke-opacity:1"
         d=""
         id="path3422" />
      <path
         style="opacity:1;fill:#71c000;fill-opacity:1;stroke:#71c000;stroke-width:3.37896037;stroke-linejoin:bevel;stroke-miterlimit:4;stroke-dasharray:none;stroke-opacity:1"
         d=""
         id="path3426" />
      <path
         style="opacity:1;fill:#71c000;fill-opacity:1;stroke:#71c000;stroke-width:3.37896037;stroke-linejoin:bevel;stroke-miterlimit:4;stroke-dasharray:none;stroke-opacity:1"
         d=""
         id="path3428" />
    </g>
    <g
       id="g5777"
       inkscape:label="highlight"
       transform="translate(-1426.607,-26.2895)" />
    <g
       id="layer5"
       inkscape:label="text"
       transform="translate(-1426.607,-26.2895)" />
    <rect
       style="opacity:1;color:black;fill:url(#linearGradient13956);fill-opacity:1;fill-rule:evenodd;stroke:#2b2b2b;stroke-width:0.997;stroke-linecap:butt;stroke-linejoin:miter;marker:none;marker-start:none;marker-mid:none;marker-end:none;stroke-miterlimit:4;stroke-dasharray:none;stroke-dashoffset:0;stroke-opacity:1;visibility:visible;display:inline;overflow:visible"
       id="rect13948"
       width="50.730724"
       height="50.548958"
       x="4.9082928"
       y="7.219615"
       ry="7.0913997" />
    <g
       id="g6007"
       transform="matrix(-3.973892e-3,0.629601,-0.629601,-3.973892e-3,295.5792,-273.6194)"
       inkscape:export-xdpi="27.42"
       inkscape:export-ydpi="27.42"
       style="fill:white">
      <g
         transform="translate(415.3267,354.416)"
         id="g6011"
         style="fill:white" />
    </g>
    <g
       id="g3192"
       inkscape:label="openvaslogo"
       style="display:inline"
       transform="translate(-996.7028,556.527)" />
    <path
       style="opacity:1;color:black;fill:none;fill-opacity:1;fill-rule:evenodd;stroke:url(#linearGradient13966);stroke-width:1;stroke-linecap:butt;stroke-linejoin:miter;marker:none;marker-start:none;marker-mid:none;marker-end:none;stroke-miterlimit:4;stroke-dasharray:none;stroke-dashoffset:0;stroke-opacity:1;visibility:visible;display:inline;overflow:visible"
       d="M 2.1818182,45.429271 L 2,7.792907 C 2,7.792907 3.0909091,2.1565434 7.4545455,1.9747252 C 11.818182,1.792907 44.909091,1.9747252 44.909091,1.9747252 C 44.909091,1.9747252 50.727273,1.9747252 50.909091,9.2474525 C 51.090909,16.52018 50.727273,45.974725 50.727273,45.974725"
       id="path13958"
       transform="translate(3.819132,6.155729)" />
    <g
       id="layer4-1"
       inkscape:label="shadow"
       transform="matrix(0.67495159,0,0,0.67507552,-506.46745,-12.594227)" />
    <g
       id="layer2-5"
       inkscape:label="color"
       transform="matrix(0.67495159,0,0,0.67507552,-506.46745,-12.594227)">
      <path
         style="fill:#71c000;fill-opacity:1;stroke:#71c000;stroke-width:3.37896037;stroke-linejoin:bevel;stroke-miterlimit:4;stroke-opacity:1;stroke-dasharray:none"
         d=""
         id="path3422-9" />
      <path
         style="fill:#71c000;fill-opacity:1;stroke:#71c000;stroke-width:3.37896037;stroke-linejoin:bevel;stroke-miterlimit:4;stroke-opacity:1;stroke-dasharray:none"
         d=""
         id="path3426-8" />
      <path
         style="fill:#71c000;fill-opacity:1;stroke:#71c000;stroke-width:3.37896037;stroke-linejoin:bevel;stroke-miterlimit:4;stroke-opacity:1;stroke-dasharray:none"
         d=""
         id="path3428-4" />
    </g>
    <g
       id="layer3"
       inkscape:label="highlight"
       transform="matrix(0.67495159,0,0,0.67507552,-506.46745,-12.594227)" />
    <g
       id="layer5-8"
       inkscape:label="text"
       transform="matrix(0.67495159,0,0,0.67507552,-506.46745,-12.594227)" />
    <text
       xml:space="preserve"
       style="font-size:4.11255169px;font-style:normal;font-variant:normal;font-weight:normal;font-stretch:normal;text-align:start;line-height:125%;writing-mode:lr-tb;text-anchor:start;fill:#000000;fill-opacity:1;stroke:none;font-family:Limerick-Serial DB;-inkscape-font-specification:Limerick-Serial DB"
       x="-95.492264"
       y="107.02142"
       id="text5109"
       sodipodi:linespacing="125%"><tspan
         sodipodi:role="line"
         id="tspan5111"
         x="-95.492264"
         y="107.02142" /></text>
    <text
       xml:space="preserve"
       style="font-size:4.11255169px;font-style:normal;font-variant:normal;font-weight:normal;font-stretch:normal;text-align:start;line-height:125%;writing-mode:lr-tb;text-anchor:start;fill:#000000;fill-opacity:1;stroke:none;font-family:Limerick-Serial DB;-inkscape-font-specification:Limerick-Serial DB"
       x="-175.28954"
       y="119.31124"
       id="text9559"
       sodipodi:linespacing="125%"><tspan
         sodipodi:role="line"
         id="tspan9561"
         x="-175.28954"
         y="119.31124" /></text>
    <path
       style="color:#000000;fill:#ffffff;fill-opacity:1;fill-rule:evenodd;stroke:none;stroke-width:0.375;marker:none;visibility:visible;display:inline;overflow:visible;enable-background:accumulate"
       d="m 33.372704,11.133912 c -0.340431,-0.01575 -0.322588,0.1741 -0.322588,1.827998 0,2.212691 -0.351774,2.295689 -0.967764,1.684626 -0.342743,-0.340002 -0.842716,-1.008916 -1.146979,-1.469567 -0.427748,-0.647604 -1.296182,-1.83105 -2.043057,-1.756312 l -0.07169,1.182822 -0.430117,3.763526 c -0.07872,3.50661 0.232604,3.657103 -2.114743,5.30478 -7.177952,5.493648 -13.155897,12.579053 -16.129397,21.219118 -0.4111896,3.980208 3.61062,7.896193 7.491208,7.742111 0.676412,-0.1073 1.556746,-0.462695 2.0789,-0.788548 -0.513012,0.253307 -1.181756,0.488035 -1.720469,0.57349 -3.82015,0.151682 -7.788466,-3.680528 -7.383679,-7.598739 2.927184,-8.505489 8.812349,-15.524294 15.878495,-20.932374 2.31079,-1.622012 2.001407,-1.745258 2.078901,-5.19725 l 0.430117,-3.727683 0.07169,-1.146979 c 0.735245,-0.07357 1.586128,1.082951 2.007214,1.720469 0.299528,0.453475 0.809572,1.099017 1.146979,1.433724 0.606398,0.601545 0.967764,0.529443 0.967764,-1.648783 0,-1.628137 -0.01254,-1.80766 0.322588,-1.792155 0.111705,0.0052 0.224151,0.03584 0.430117,0.03584 3.314786,1.101146 3.89379,5.195381 6.057485,7.598738 0.650011,0.247441 2.303913,2.957013 2.688233,4.372859 0.174825,0.644075 0.679376,1.56989 1.111137,2.0789 0.431751,0.509008 0.788548,1.202514 0.788548,1.541254 0,0.33874 0.166398,1.066485 0.358431,1.61294 0.323754,0.921305 0.427634,0.971061 1.648783,0.896077 l 1.326195,-0.07169 0,2.043057 c 4.414355,2.939373 0.274678,8.667046 -1.541254,8.100542 1.801253,0.775663 6.198661,-5.142614 1.648783,-8.172228 l 0,-2.0789 -1.326195,0.07169 c -1.24046,0.07617 -1.391586,0.0398 -1.720469,-0.896078 -0.195068,-0.5551 -0.322588,-1.304683 -0.322588,-1.648782 0,-0.344099 -0.385804,-1.060036 -0.824391,-1.577097 -0.438587,-0.517065 -0.933541,-1.460478 -1.111137,-2.114743 -0.390402,-1.438249 -2.099626,-4.157348 -2.759919,-4.408702 -2.197932,-2.441385 -2.726092,-6.62354 -6.093328,-7.742111 -0.209224,0 -0.388327,-0.03059 -0.501803,-0.03584 z m 0.967764,1.827998 c -0.163366,-0.0037 -0.224118,0.293246 -0.322588,1.111136 -0.713469,5.925876 -1.08248,7.491209 -1.792156,7.491209 -0.584663,0 -0.662525,-0.649942 -0.179215,-1.577096 0.273423,-0.524513 0.484697,-1.756312 0.394274,-1.756312 -10.211818,7.060668 -16.355109,12.839079 -21.47002,24.982644 1.267525,4.508966 5.464174,7.555202 8.745717,5.376466 1.074873,-1.406702 1.530376,-3.020822 3.046664,-4.1578 0.391959,-0.191483 1.762287,-0.714444 3.046664,-1.146979 3.218136,-0.522523 4.029946,-3.731283 6.236701,-5.483996 1.905858,-0.998491 3.010821,-1.824355 3.010821,-2.258115 0,-0.268809 -0.35789,-0.970364 -0.824392,-1.577097 -1.593815,-2.072882 -1.106471,-3.548988 1.899685,-5.591524 1.700989,-1.155739 1.875482,-1.210737 3.548467,-1.03945 0.974343,0.09975 1.877223,0.265037 1.971371,0.358431 0.09414,0.09339 0.237761,0.880562 0.322588,1.756312 0.166224,1.716093 0.462016,1.854797 0.537647,0.250901 0.02689,-0.57009 0.343608,-1.205584 0.716862,-1.50541 0.633423,-0.508809 0.652593,-0.506961 0.07169,-1.218666 -0.326085,-0.399471 -0.609333,-1.075459 -0.609333,-1.469567 0,-0.887311 -2.210648,-4.838819 -2.795762,-4.838819 -0.291022,0 -0.174747,1.539638 -0.215059,2.54486 -0.03267,0.814655 -0.13832,1.572944 -0.250901,1.684626 -0.545186,0.540825 -0.860235,-0.417599 -0.860235,-2.509017 0,-2.760266 -0.362814,-3.847835 -1.971371,-6.272544 -0.71451,-0.904331 -1.028219,-2.013072 -1.828002,-2.831605 C 34.55311,13.08926 34.438487,12.964079 34.340468,12.96191 z m -4.516232,0.57349 -0.215058,1.899684 c -0.306878,2.73667 -0.289018,4.229487 0,4.229487 0.804367,-0.620023 2.77183,-1.733319 2.114743,-2.795762 -0.278483,-0.229276 -0.803283,-1.069727 -1.182823,-1.863842 L 29.824236,13.5354 z m -3.010821,11.111363 c 0.186096,-0.04415 0.215059,0.236921 0.215059,0.788548 0,0.381713 0.641675,0.537646 1.003607,0.537646 1.03457,0 1.971371,1.349845 1.971371,2.831606 -2.201609,5.73723 -4.403105,2.450706 -6.451759,3.906898 -0.220861,0.299628 -0.51906,0.447692 -0.645176,0.322588 -0.441229,-0.437701 -0.227462,-1.52993 0.716862,-3.512624 0.523622,-1.099371 0.967764,-2.116601 0.967764,-2.258116 0,-0.141513 0.521434,-0.81629 1.146979,-1.541253 0.577672,-0.669484 0.889197,-1.031148 1.075293,-1.075293 z m 1.111137,2.186429 c -0.335775,-0.0077 -0.735435,0.07829 -1.182823,0.143372 -0.653327,0.09504 -2.098097,2.295157 -2.616547,3.978585 -0.201688,0.654889 0.118223,0.967764 1.326195,0.967764 2.091239,-0.0147 4.189651,-2.175254 3.727683,-3.799369 -0.288733,-1.015072 -0.694888,-1.277483 -1.254508,-1.290352 z m 12.186656,1.684626 c -0.934116,0 -4.105997,1.126936 -4.767133,1.720469 -0.939043,0.843022 -0.832049,3.123451 0.215058,4.086114 0.806989,0.74191 0.887041,1.077209 0.322588,2.437331 -0.158951,0.383027 -0.12146,0.537647 0.215059,0.537647 0.856495,0 1.827998,1.983787 1.827998,3.763526 0,1.372798 -0.555642,1.684379 -1.290352,2.365645 -2.695363,2.012309 -9.138308,7.140916 -11.684852,8.351444 -0.831504,0 -0.604645,0.567949 0.394274,0.967763 4.303649,0.875803 8.497997,-3.400504 11.864068,-5.627367 3.970895,-2.791381 10.264866,-8.278543 7.096935,-13.261949 -0.331308,-0.328653 -1.262836,-0.959304 -2.0789,-1.433724 -1.261095,-0.733143 -1.450231,-0.981014 -1.290352,-1.61294 0.291558,-1.152366 -0.125928,-2.293959 -0.824391,-2.293959 z m 4.121957,1.218666 c -0.237534,0.05642 -0.453806,0.334428 -0.645176,1.03945 -0.390326,1.43796 -0.01491,2.044022 0.931921,2.114743 1.513626,0.667904 0.606148,0.661223 1.863841,-0.394274 0.627842,-0.368017 0.556571,-1.803321 -0.107529,-2.007214 -0.305449,-0.09378 -0.843903,-0.269614 -1.14698,-0.430117 -0.401469,-0.212613 -0.658543,-0.379009 -0.896077,-0.322588 z m 3.11835,4.193643 c -0.201841,0.02629 -0.457667,0.149469 -0.681019,0.394274 -0.232005,0.341526 -0.356698,1.057669 -0.322588,1.577097 0.03411,0.519428 -0.0802,1.11197 -0.250902,1.326195 -0.480809,0.603323 -0.02818,1.362038 0.824392,1.362038 2.540276,-0.289031 1.84301,-4.843664 0.430117,-4.659604 z m -13.011047,4.050271 c -1.218963,0.137199 -2.553721,1.21631 -3.405095,2.867448 -0.738725,1.432658 -1.113177,1.807351 -2.867449,2.688233 -1.117073,0.560929 -2.515256,1.032492 -3.082507,1.075293 -1.15428,0.155362 -2.078353,0.917789 -2.724076,1.899685 l -0.788548,1.290352 0.645176,0.967764 c 1.512928,2.199424 2.659877,2.296008 5.376465,0.46596 2.501503,-2.252142 5.590229,-3.671672 8.172229,-5.914112 0.718495,-0.717755 1.107912,-1.43899 1.218665,-2.258116 0.160066,-1.183817 0.159706,-1.254509 -0.788548,-1.254509 -0.8972,0 -1.020465,0.09613 -1.111136,1.182823 -0.08387,1.005476 -0.195633,1.20961 -0.896078,1.290352 -0.55843,0.06437 -0.986843,0.386113 -1.290352,1.03945 -0.345003,0.742646 -0.792387,1.118561 -2.0789,1.541253 -0.916729,0.301199 -1.939345,0.753267 -2.258116,1.03945 -0.318787,0.286187 -0.956012,0.537647 -1.433724,0.537647 -0.999906,0 -1.956758,0.442037 -2.974978,1.362038 -1.183048,1.068926 -0.826124,0.287596 0.57349,-1.218666 1.017046,-1.094536 1.520095,-1.397881 2.293959,-1.397881 0.548138,0 1.557473,-0.364574 2.186429,-0.788548 0.628958,-0.42397 1.475274,-0.862097 1.899685,-0.967764 0.465234,-0.115837 0.89874,-0.552931 1.111136,-1.111136 0.234837,-0.617185 0.56214,-0.931921 1.003607,-0.931921 0.513763,0 0.681019,-0.176423 0.681019,-0.860235 0,-1.136761 0.513645,-1.6363 1.720469,-1.648782 0.919707,-0.0095 0.943767,-0.06261 0.358431,-0.501804 -0.451053,-0.338435 -0.987179,-0.456638 -1.541253,-0.394274 z m -18.961003,1.111136 c 0.232997,0.03668 0.585183,0.265082 0.896077,0.57349 0.98212,0.974261 0.8514,2.183415 -0.250901,2.329802 -0.436347,0.05795 -0.945326,0.235791 -1.111137,0.394274 -0.478501,0.457348 -0.788548,0.344738 -0.788548,-0.286745 0,-0.823218 0.682747,-2.718481 1.075293,-2.974978 0.04532,-0.02961 0.101554,-0.04806 0.179216,-0.03584 z m 30.645855,0.430117 c -0.18054,0 -1.227703,1.296453 -2.293959,2.903292 -2.874118,4.246817 -10.724119,9.747254 -15.448378,10.896304 -2.99047,0.136119 -3.133902,0.315842 -3.906899,-0.645176 -1.058105,-1.073073 -2.643394,-4.179541 -4.229486,-3.082507 -0.08241,0.05822 -0.179757,0.120973 -0.286745,0.179216 1.611187,-1.114393 3.154636,2.099986 4.229486,3.190036 0.785224,0.976223 0.940796,0.747606 3.978585,0.609333 4.799003,-1.167231 12.815527,-6.725664 15.735124,-11.039677 1.083125,-1.632261 2.110555,-2.974977 2.293958,-2.974977 -0.02068,-0.01851 -0.05215,-0.01473 -0.07169,-0.03584 z"
       id="rect4599" />
    <g
       id="layer4-6"
       inkscape:label="shadow"
       transform="matrix(1.9694388,0,0,1.9698004,-714.03111,74.44267)" />
    <g
       id="layer2-58"
       inkscape:label="color"
       transform="matrix(1.9694388,0,0,1.9698004,-714.03111,74.44267)">
      <path
         style="fill:#71c000;fill-opacity:1;stroke:#71c000;stroke-width:3.37896037;stroke-linejoin:bevel;stroke-miterlimit:4;stroke-opacity:1;stroke-dasharray:none"
         d=""
         id="path3422-7" />
      <path
         style="fill:#71c000;fill-opacity:1;stroke:#71c000;stroke-width:3.37896037;stroke-linejoin:bevel;stroke-miterlimit:4;stroke-opacity:1;stroke-dasharray:none"
         d=""
         id="path3426-9" />
      <path
         style="fill:#71c000;fill-opacity:1;stroke:#71c000;stroke-width:3.37896037;stroke-linejoin:bevel;stroke-miterlimit:4;stroke-opacity:1;stroke-dasharray:none"
         d=""
         id="path3428-6" />
    </g>
    <g
       id="layer3-0"
       inkscape:label="highlight"
       transform="matrix(1.9694388,0,0,1.9698004,-714.03111,74.44267)" />
    <g
       id="layer5-4"
       inkscape:label="text"
       transform="matrix(1.9694388,0,0,1.9698004,-714.03111,74.44267)" />
    <text
       xml:space="preserve"
       style="font-size:12px;font-style:normal;font-variant:normal;font-weight:normal;font-stretch:normal;text-align:start;line-height:125%;writing-mode:lr-tb;text-anchor:start;fill:#000000;fill-opacity:1;stroke:none;font-family:Limerick-Serial DB;-inkscape-font-specification:Limerick-Serial DB"
       x="485.15189"
       y="423.46875"
       id="text5109-1"
       sodipodi:linespacing="125%"><tspan
         sodipodi:role="line"
         id="tspan5111-0"
         x="485.15189"
         y="423.46875" /></text>
    <text
       xml:space="preserve"
       style="font-size:12px;font-style:normal;font-variant:normal;font-weight:normal;font-stretch:normal;text-align:start;line-height:125%;writing-mode:lr-tb;text-anchor:start;fill:#000000;fill-opacity:1;stroke:none;font-family:Limerick-Serial DB;-inkscape-font-specification:Limerick-Serial DB"
       x="252.31175"
       y="459.32916"
       id="text9559-4"
       sodipodi:linespacing="125%"><tspan
         sodipodi:role="line"
         id="tspan9561-8"
         x="252.31175"
         y="459.32916" /></text>
  </g>
</svg>
