<?xml version="1.0" encoding="UTF-8" standalone="no"?>
<!-- Created with Inkscape (http://www.inkscape.org/) -->

<svg
   xmlns:dc="http://purl.org/dc/elements/1.1/"
   xmlns:cc="http://creativecommons.org/ns#"
   xmlns:rdf="http://www.w3.org/1999/02/22-rdf-syntax-ns#"
   xmlns:svg="http://www.w3.org/2000/svg"
   xmlns="http://www.w3.org/2000/svg"
   xmlns:xlink="http://www.w3.org/1999/xlink"
   xmlns:sodipodi="http://sodipodi.sourceforge.net/DTD/sodipodi-0.dtd"
   xmlns:inkscape="http://www.inkscape.org/namespaces/inkscape"
   width="52.509098"
   height="52.52018"
   viewBox="0 0 52.509098 52.52018"
   id="svg5160"
   sodipodi:version="0.32"
   inkscape:version="0.48.5 r10040"
   sodipodi:docname="a:drupal:drupal.svg"
   version="1.0"
   inkscape:export-xdpi="27.42"
   inkscape:export-ydpi="27.42">
  <defs
     id="defs5162">
    <linearGradient
       inkscape:collect="always"
       id="linearGradient13960">
      <stop
         style="stop-color:white;stop-opacity:1;"
         offset="0"
         id="stop13962" />
      <stop
         style="stop-color:white;stop-opacity:0;"
         offset="1"
         id="stop13964" />
    </linearGradient>
    <linearGradient
       id="linearGradient3898">
      <stop
         style="stop-color:#e6e6e6;stop-opacity:1;"
         offset="0"
         id="stop3900" />
      <stop
         style="stop-color:white;stop-opacity:1;"
         offset="1"
         id="stop3902" />
    </linearGradient>
    <linearGradient
       inkscape:collect="always"
       xlink:href="#linearGradient3898"
       id="linearGradient13956"
       x1="46.591862"
       y1="89.585007"
       x2="43.591812"
       y2="-74.733185"
       gradientUnits="userSpaceOnUse" />
    <linearGradient
       inkscape:collect="always"
       xlink:href="#linearGradient13960"
       id="linearGradient13966"
       x1="26.48"
       y1="1.3939171"
       x2="26.48"
       y2="52.84341"
       gradientUnits="userSpaceOnUse" />
  </defs>
  <sodipodi:namedview
     id="base"
     pagecolor="#ffffff"
     bordercolor="#666666"
     borderopacity="1.0"
     inkscape:pageopacity="0.0"
     inkscape:pageshadow="2"
     inkscape:zoom="2.8284271"
     inkscape:cx="70.12456"
     inkscape:cy="18.700206"
     inkscape:current-layer="layer1"
     showgrid="false"
     inkscape:document-units="px"
     inkscape:grid-bbox="true"
     inkscape:window-width="1680"
     inkscape:window-height="1030"
     inkscape:window-x="-3"
     inkscape:window-y="-3"
     showguides="true"
     inkscape:guide-bbox="true"
     inkscape:window-maximized="1">
    <sodipodi:guide
       orientation="vertical"
       position="393.92276"
       id="guide5230" />
    <sodipodi:guide
       orientation="vertical"
       position="438.14907"
       id="guide5236" />
  </sodipodi:namedview>
  <metadata
     id="metadata5165">
    <rdf:RDF>
      <cc:Work
         rdf:about="">
        <dc:format>image/svg+xml</dc:format>
        <dc:type
           rdf:resource="http://purl.org/dc/dcmitype/StillImage" />
        <dc:title />
      </cc:Work>
    </rdf:RDF>
  </metadata>
  <g
     id="layer1"
     inkscape:label="Layer 1"
     inkscape:groupmode="layer"
     transform="translate(-3.819132,-6.155729)">
    <g
       inkscape:label="shadow"
       style="display:inline"
       id="layer4"
       transform="translate(-392.7904,328.2799)" />
    <g
       inkscape:label="shadow"
       id="g3039"
       transform="translate(-840.833,182.2722)" />
    <g
       inkscape:label="color"
       id="g3041"
       transform="translate(-840.833,182.2722)">
      <path
         style="opacity:1;fill:#71c000;fill-opacity:1;stroke:#71c000;stroke-width:3.37896037;stroke-linejoin:bevel;stroke-miterlimit:4;stroke-dasharray:none;stroke-opacity:1"
         d=""
         id="path3043" />
      <path
         style="opacity:1;fill:#71c000;fill-opacity:1;stroke:#71c000;stroke-width:3.37896037;stroke-linejoin:bevel;stroke-miterlimit:4;stroke-dasharray:none;stroke-opacity:1"
         d=""
         id="path3045" />
      <path
         style="opacity:1;fill:#71c000;fill-opacity:1;stroke:#71c000;stroke-width:3.37896037;stroke-linejoin:bevel;stroke-miterlimit:4;stroke-dasharray:none;stroke-opacity:1"
         d=""
         id="path3047" />
    </g>
    <g
       inkscape:label="highlight"
       id="g3049"
       transform="translate(-840.833,182.2722)" />
    <g
       inkscape:label="text"
       id="g3089"
       transform="translate(-840.833,182.2722)" />
    <g
       id="g4774"
       inkscape:label="shadow"
       transform="translate(-1426.607,-26.2895)" />
    <g
       id="layer2"
       inkscape:label="color"
       transform="translate(-1426.607,-26.2895)">
      <path
         style="opacity:1;fill:#71c000;fill-opacity:1;stroke:#71c000;stroke-width:3.37896037;stroke-linejoin:bevel;stroke-miterlimit:4;stroke-dasharray:none;stroke-opacity:1"
         d=""
         id="path3422" />
      <path
         style="opacity:1;fill:#71c000;fill-opacity:1;stroke:#71c000;stroke-width:3.37896037;stroke-linejoin:bevel;stroke-miterlimit:4;stroke-dasharray:none;stroke-opacity:1"
         d=""
         id="path3426" />
      <path
         style="opacity:1;fill:#71c000;fill-opacity:1;stroke:#71c000;stroke-width:3.37896037;stroke-linejoin:bevel;stroke-miterlimit:4;stroke-dasharray:none;stroke-opacity:1"
         d=""
         id="path3428" />
    </g>
    <g
       id="g5777"
       inkscape:label="highlight"
       transform="translate(-1426.607,-26.2895)" />
    <g
       id="layer5"
       inkscape:label="text"
       transform="translate(-1426.607,-26.2895)" />
    <rect
       style="opacity:1;color:black;fill:url(#linearGradient13956);fill-opacity:1;fill-rule:evenodd;stroke:#2b2b2b;stroke-width:0.997;stroke-linecap:butt;stroke-linejoin:miter;marker:none;marker-start:none;marker-mid:none;marker-end:none;stroke-miterlimit:4;stroke-dasharray:none;stroke-dashoffset:0;stroke-opacity:1;visibility:visible;display:inline;overflow:visible"
       id="rect13948"
       width="50.730724"
       height="50.548958"
       x="4.9082928"
       y="7.219615"
       ry="7.0913997" />
    <g
       id="g6007"
       transform="matrix(-3.973892e-3,0.629601,-0.629601,-3.973892e-3,295.5792,-273.6194)"
       inkscape:export-xdpi="27.42"
       inkscape:export-ydpi="27.42"
       style="fill:white">
      <g
         transform="translate(415.3267,354.416)"
         id="g6011"
         style="fill:white" />
    </g>
    <g
       id="g3192"
       inkscape:label="openvaslogo"
       style="display:inline"
       transform="translate(-996.7028,556.527)" />
    <path
       style="opacity:1;color:black;fill:none;fill-opacity:1;fill-rule:evenodd;stroke:url(#linearGradient13966);stroke-width:1;stroke-linecap:butt;stroke-linejoin:miter;marker:none;marker-start:none;marker-mid:none;marker-end:none;stroke-miterlimit:4;stroke-dasharray:none;stroke-dashoffset:0;stroke-opacity:1;visibility:visible;display:inline;overflow:visible"
       d="M 2.1818182,45.429271 L 2,7.792907 C 2,7.792907 3.0909091,2.1565434 7.4545455,1.9747252 C 11.818182,1.792907 44.909091,1.9747252 44.909091,1.9747252 C 44.909091,1.9747252 50.727273,1.9747252 50.909091,9.2474525 C 51.090909,16.52018 50.727273,45.974725 50.727273,45.974725"
       id="path13958"
       transform="translate(3.819132,6.155729)" />
    <g
       id="Layer_1"
       transform="translate(-322.18087,-160.58559)" />
    <path
       inkscape:connector-curvature="0"
       d="m 29.122119,10.327157 c -0.14184,1.349722 -0.285989,2.69425 -1.166173,3.687513 -1.734474,1.95733 -4.08862,3.159242 -6.008174,4.104035 -4.882987,2.403302 -10.498276,8.003173 -10.498276,16.948036 0,4.332629 1.671198,8.994578 4.824238,12.58616 3.356443,3.823276 8.377502,6.440961 14.339763,6.411965 5.329966,-0.0258 9.706001,-1.765848 12.995849,-4.607312 3.847351,-3.322956 6.168151,-8.203798 6.168151,-14.390813 0,-4.557633 -1.358788,-8.507584 -3.833028,-11.529784 C 41.065271,17.577039 37.12821,17.051745 34.638012,15.63132 32.85604,14.614742 31.21159,12.824244 29.122119,10.327157"
       style="fill:#0b6da8;fill-opacity:1;fill-rule:evenodd;stroke:none"
       id="path3094" />
    <path
       inkscape:connector-curvature="0"
       d="m 45.13685,22.589911 c 0.952923,2.993276 0.493773,6.050493 -1.187183,8.821974 -1.804203,2.974974 -5.056003,5.471519 -9.179065,8.333179 -6.220808,4.317644 -12.570164,7.583061 -17.768677,6.226668 -1.049739,-0.273908 -2.045256,-0.776626 -2.984891,-1.488461 -1.687391,-2.955806 -2.567538,-6.272776 -2.567538,-9.41653 0,-8.944863 5.615289,-14.544734 10.498276,-16.948036 1.919554,-0.944793 4.2737,-2.146705 6.008174,-4.104035 0.880184,-0.993263 1.024333,-2.337791 1.166173,-3.687513 2.089471,2.497087 3.733921,4.287585 5.515893,5.304163 2.351208,1.341138 5.992629,1.885203 10.498838,6.958591"
       style="fill:#008bcb;fill-opacity:1;fill-rule:evenodd;stroke:none"
       id="path3096" />
    <path
       inkscape:connector-curvature="0"
       d="m 29.059511,10.900759 c 0.864134,1.706865 0.923478,3.886965 -0.183551,4.723907 -0.56114,0.424151 -0.43836,0.647064 -0.224249,0.826791 0.425072,0.356927 0.118741,1.072783 -0.350345,1.751692 -2.62535,3.800069 -7.771459,6.830545 -10.860017,8.197451 -0.824211,0.364862 -2.399117,0.853875 -2.872641,0.350292 -0.894356,-0.951086 0.08578,-2.317379 1.142984,-3.703615 0.700619,-0.841342 1.453893,-1.59723 2.233042,-2.268367 l 2.670068,-1.932339 c 0.447161,-0.268444 0.893022,-0.511336 1.33297,-0.727866 1.919554,-0.944793 4.2737,-2.146705 6.008174,-4.104035 0.755276,-0.852234 0.968573,-1.963066 1.103565,-3.113911"
       style="fill:#b2d7eb;fill-opacity:1;fill-rule:evenodd;stroke:none"
       id="path3098" />
    <path
       inkscape:connector-curvature="0"
       d="m 29.089404,10.634911 c 1.074341,2.691239 0.805317,4.339788 -2.055982,5.648017 -0.09793,0.04472 -0.325031,0.248933 0.06711,0.326616 1.161014,0.230486 -0.385757,2.021994 -1.055361,2.644571 -0.771163,0.717245 -1.807866,1.788136 -4.391866,3.519958 -2.584002,1.731966 -5.370575,2.923455 -6.096602,2.4352 -0.966269,-0.649823 0.274376,-2.065128 1.528275,-3.644109 1.547551,-1.503084 3.245328,-2.650341 4.862791,-3.446459 1.919554,-0.944793 4.2737,-2.146705 6.008174,-4.104035 0.813225,-0.917673 0.998218,-2.135273 1.133458,-3.379759"
       style="fill:#ffffff;fill-opacity:1;fill-rule:evenodd;stroke:none"
       id="path3100" />
    <g
       id="g3102"
       transform="matrix(0.11550107,0,0,-0.11550107,4.8632692,157.83285)">
      <path
         inkscape:connector-curvature="0"
         d="m 210.0319,1277.0974 c -1.2279,-11.6861 -2.476,-23.3268 -10.0967,-31.9263 -15.0168,-16.9466 -35.399,-27.3526 -52.0183,-35.5328 -42.2767,-20.8077 -90.8938,-69.291 -90.8938,-146.7352 0,-37.5117 14.4692,-77.8748 41.7683,-108.9703 29.0599,-33.1018 72.5317,-55.7654 124.1529,-55.5145 46.1466,0.2233 84.0339,15.2886 112.5173,39.89 33.3102,28.7699 53.4036,71.028 53.4036,124.5948 0,39.46 -11.7643,73.6583 -33.1863,99.8243 -42.2436,51.6008 -76.3305,56.1487 -97.8906,68.4468 -15.4281,8.8013 -29.6659,24.3034 -47.7564,45.9232 z"
         style="fill:none;stroke:#1e5d91;stroke-width:2.26769996;stroke-linecap:butt;stroke-linejoin:miter;stroke-miterlimit:22.92560387;stroke-opacity:1;stroke-dasharray:none"
         id="path3104" />
    </g>
    <path
       inkscape:connector-curvature="0"
       d="m 37.567938,40.174372 c -2.693724,-0.01755 -5.345309,-4.725097 -10.726089,-4.851341 -4.047109,-0.09497 -7.234555,3.296937 -7.164735,6.562047 0.08356,3.918594 2.854898,4.855272 5.42597,4.89341 5.04118,0.07462 9.528688,-5.079266 12.590917,-5.131812 2.327248,-0.03998 4.685883,4.828385 6.800128,4.99145 2.435365,0.187985 4.253195,-4.530045 4.09439,-7.388982 -0.10576,-1.905091 -1.200523,-3.272971 -2.621979,-3.238891 -2.663992,0.0638 -5.763061,4.18134 -8.398602,4.164119 z m -4.663332,6.285921 c 1.162963,-1.157193 2.396716,-1.842322 3.783548,-1.808025 2.213786,0.05475 2.308148,0.574936 2.949621,1.870903 0.130194,0.263125 0.05593,0.48941 -0.02803,0.623082 -0.04578,0.07289 -0.29953,0.315832 -0.385563,0.315832 -0.213137,0 -0.290674,-0.07651 -0.378188,-0.294717 -0.528178,-1.318309 -1.311044,-1.323971 -2.298224,-1.324133 -1.52081,-1.08e-4 -2.184433,0.742345 -3.082717,1.485503 -0.223221,0.184721 -0.434216,0.323748 -0.602545,0.182268 -0.135653,-0.113981 -0.248268,-0.273258 -0.245238,-0.392721 0.0072,-0.283573 0.08627,-0.458034 0.28731,-0.657992 z m -3.07583,3.145647 c 1.195118,1.102231 6.837868,2.027657 10.22942,-0.252197 0.124981,-0.08403 0.285428,-0.139911 0.423844,-0.08066 0.103666,0.04436 0.164705,0.100331 0.17864,0.216764 0.02309,0.191123 0.03571,0.479456 -0.112028,0.602706 -2.355158,1.965445 -8.724153,3.085943 -11.753259,0.585214 -0.29881,-0.246788 -0.309448,-0.618502 -0.112141,-0.833697 0.146351,-0.159476 0.274176,-0.234201 0.451955,-0.335974 0.221272,-0.126604 0.503691,-0.07723 0.693569,0.09784"
       style="fill:#ffffff;fill-opacity:1;fill-rule:evenodd;stroke:none"
       id="path3106" />
  </g>
</svg>
