<?xml version="1.0" encoding="UTF-8"?>
<svg width="52.509" height="52.52" version="1.0" viewBox="0 0 52.509 52.52" xmlns="http://www.w3.org/2000/svg" xmlns:xlink="http://www.w3.org/1999/xlink">
 <defs>
  <linearGradient id="linearGradient13956" x1="46.592" x2="43.592" y1="89.585" y2="-74.733" gradientUnits="userSpaceOnUse">
   <stop stop-color="#e6e6e6" offset="0"/>
   <stop stop-color="#fff" offset="1"/>
  </linearGradient>
  <linearGradient id="linearGradient13966" x1="26.48" x2="26.48" y1="1.3939" y2="52.843" gradientUnits="userSpaceOnUse">
   <stop stop-color="#fff" offset="0"/>
   <stop stop-color="#fff" stop-opacity="0" offset="1"/>
  </linearGradient>
 </defs>
 <g transform="translate(-3.8191 -6.1557)">
  <g transform="translate(-840.83 182.27)" fill="#71c000" stroke="#71c000" stroke-linejoin="bevel" stroke-width="3.379"></g>
  <g transform="translate(-1426.6 -26.29)" fill="#71c000" stroke="#71c000" stroke-linejoin="bevel" stroke-width="3.379"></g>
  <rect x="4.9083" y="7.2196" width="50.731" height="50.549" ry="7.0914" color="black" fill="url(#linearGradient13956)" fill-rule="evenodd" stroke="#2b2b2b" stroke-width=".997"/>
  <g transform="matrix(-.0039739 .6296 -.6296 -.0039739 295.58 -273.62)" fill="#fff"></g>
  <path transform="translate(3.8191 6.1557)" d="m2.1818 45.429-0.18182-37.636s1.0909-5.6364 5.4545-5.8182c4.3636-0.18182 37.455 0 37.455 0s5.8182 0 6 7.2727c0.18182 7.2727-0.18182 36.727-0.18182 36.727" color="black" fill="none" stroke="url(#linearGradient13966)"/>
  <path d="m15.311 36.976c0-2.52e-4 -2.3831 0.52992-2.3831 0.52992l1.4054-2.1829 1.609-3.6505-4.8149-2.099-2.9571-4.6611s-0.36647-5.8985-0.36647-5.8985 2.2359-4.6421 2.2359-4.6421l4.6604-2.8672 5.7999-0.30502 3.5361 1.781 2.0037 0.13172-1.5208 1.4123-4.6292-0.46764-4.1118 1.1077-2.3111 2.6492-0.74876 3.7131s1.5266 2.7996 1.5266 2.7996 2.0924 0.24947 2.0924 0.24947l7.438-7.397s3.9061-0.54078 3.9061-0.54078l3.8685 2.1918 1.7408-1.3358s2.5844-0.88015 2.5844-0.88015l3.166 1.0731s5.2914 6.3871 5.2914 6.3871 1.919 0.35654 1.919 0.35654l1.5908-2.1439s-0.14889-3.9121-0.14889-3.9121l-2.1389-3.0527-2.998-1.0126s-2.4254 0.42092-2.4254 0.42092l-3.0287-0.23988-0.42926-0.95539s2.5082-0.98477 2.5082-0.98477l2.0116-1.0184 3.0806-0.20911 4.5367 1.7662s3.19 4.4188 3.19 4.4188 0.41242 6.2705 0.41242 6.2705-2.7523 5.1006-2.7523 5.1006l-3.8717 1.9443 0.101 1.4898 1.0774 0.13467-0.44609 1.0016s-2.5166 0.09258-2.5166 0.09258l-4.8481-2.1463 0.6986 2.9122h2.382l0.70701 2.4661-2.382 2.786 1.2878 1.5319-1.6413 1.5319-0.2525 2.3315s-3.3162 0.97635-3.3162 0.97635l0.80801 2.6092-5.1427 4.6124s-3.5309-4.3936-3.5309-4.3936l-2.5437-0.21842 0.72494-2.6089-2.904-1.334 0.05084-1.969-2.0102-1.9975-1.5879-5.499-5.1927 1.843v2.52e-4z" fill="#fff"/>
  <path d="m39.651 32.436c0.06313 0.27868 0.03619 0.53682 0.06969 0.75987 0.03333 0.22288 0.09519 0.39618 0.13122 0.57697 0.14561 0.13021 0.19216 0.32826 0.43675 0.39054 0.24476 0.0622 0.62798-0.03468 0.87838-0.06835s0.41823-0.1701 0.61468-0.13273c0.19662 0.03729 0.38288 0.17802 0.5476 0.30991 0.16472 0.13189 0.30629 0.15117 0.43961 0.48026 0.13332 0.3291 0.25562 1.003 0.27388 1.4535 0.01826 0.45047-0.03224 0.85708-0.16573 1.2145-0.13349 0.35746-0.25082 0.51595-0.61232 0.86996-0.3615 0.3541-0.95017 0.87366-1.5376 1.2356 0.10816 0.16017 0.15613 0.30679 0.3248 0.4806 0.16867 0.17389 0.52033 0.36874 0.6768 0.55214 0.1563 0.1834 0.23559 0.31496 0.23786 0.52066 0.0024 0.20562-0.0076 0.47294-0.17456 0.69716-0.41588 0.55829-0.90775 0.65828-1.5059 0.92088 0.10058 0.62806 0.18264 1.0768 0.03729 1.7039-0.05934 0.25553-0.19115 0.83495-0.50636 0.98359-0.31529 0.14864-0.92324 0.07668-1.3081 0.13778-0.38482 0.06119-0.6002 0.11927-0.90018 0.17886-0.18231 0.26353-0.45375 0.55433-0.54676 0.79051-0.09317 0.23626-0.06506 0.32093 0.01313 0.56216s0.34442 0.59246 0.41983 0.87493c0.07541 0.28247 0.09006 0.58657 0.0197 0.86979-0.07053 0.28323-0.19115 0.48876-0.43254 0.74026-0.24131 0.25158-0.7161 0.44912-0.95262 0.65298-0.23668 0.20394-0.47227 0.22843-0.40771 0.56586 0.0888 0.46343 0.76593 1.2151 1.2558 1.394 0.29358 0.10731 0.68765 0.07348 1.0442-0.07701-0.02416 0.39584-0.36672 0.66266-0.59052 0.92551 0.6061-0.1733 1.1938-0.50509 1.6004-0.94487-0.12608 0.38196-0.55989 0.99512-1.2087 1.5335s-0.6449 0.42825-0.96743 0.64246c0.5885 0.11826 1.1358 0.08627 1.5916 0.0044-0.2499 0.13778-0.65954 0.33154-1.2022 0.38852-0.54263 0.0569-0.8772 0.01667-1.3662-0.1021-0.4891-0.11884-0.93553-0.56342-1.5282-0.86988 0.05774 0.21985 0.09881 0.48422 0.34804 0.7103 0.24922 0.22608 0.6263 0.34105 1.0271 0.53657-0.51023-0.05791-1.0464-0.07541-1.5478-0.18593-0.37118-0.0819-0.62057-0.16876-0.89218-0.30326-0.27144-0.1345-0.48102-0.3307-0.72149-0.496 0.11523 0.2201 0.1494 0.479 0.34551 0.66047 0.19611 0.18147 0.51486 0.24905 0.77266 0.37371-0.26892-0.0059-0.52756 0.05244-0.80633-0.01767-0.27893-0.07011-0.54053-0.18029-0.83049-0.39391-0.28996-0.21362-0.58901-0.47664-0.83646-0.74556-0.24729-0.26892-0.55265-0.61754-0.64506-0.8655-0.09258-0.24804 0.05555-0.42151 0.08333-0.63202-0.17078 0.1122-0.38086 0.17398-0.51208 0.33684-0.13122 0.16286-0.24754 0.31159-0.18946 0.59549 0.05816 0.2839 0.32018 0.63092 0.50543 0.94672-0.55282-0.45207-0.86154-0.62613-0.9931-1.1715-0.12314-0.51056 0.19544-0.97399 0.43759-1.3601 0.12028-0.19174 0.30023-0.37017 0.41268-0.55526-0.24973-0.24434-0.53514-0.45434-0.74918-0.73302-0.21396-0.2786-0.30385-0.65567-0.52226-0.92223-0.2185-0.26664-0.51242-0.4354-0.76837-0.65281 0.22498 0.48329 0.59473 1.0761 0.67503 1.4501 0.08021 0.37404-0.08998 0.60298-0.22271 0.8049-0.13282 0.20192-0.34711 0.24695-0.55038 0.37101-0.20327 0.12415-0.5194 0.02626-0.64052 0.2105-0.12103 0.18416-0.15352 0.46124-0.03779 0.64372l0.47471 0.74926c-0.1749-0.08829-0.47622-0.34509-0.61207-0.52723-0.13585-0.18214-0.34425-0.35039-0.37278-0.59667-0.02853-0.24619-0.04242-0.4599 0.11708-0.67924 0.15958-0.21926 0.59642-0.29265 0.79194-0.46124 0.19552-0.16859 0.30519-0.27834 0.294-0.49626-0.01111-0.21791-0.22397-0.37379-0.40695-0.51115-0.55862-0.41899-1.2752-0.80507-1.7496-1.3101-0.26799-0.28533-0.3966-0.5157-0.45047-0.71257-0.05378-0.19679 0.0031-0.35031 0.13627-0.59238 0.13315-0.24215 0.58977-0.56544 0.64532-0.82847 0.05547-0.26294-0.17515-0.31942-0.3833-0.41217-0.20815-0.09275-0.60348 0.04755-0.79657-0.1138-0.193-0.16135 0.05673-0.50038-0.16084-0.68631-0.21749-0.18593-0.71534-0.08215-0.97231-0.28213-0.25696-0.20007-0.36318-0.44836-0.45173-0.73858-0.08855-0.29021-0.09856-0.60811-0.03855-0.81828s0.2403-0.24695 0.34904-0.35586c0.10875-0.10891 0.2031-0.19923 0.05816-0.36167-0.14494-0.16236-0.6199 0.0091-0.89294-0.19939-0.27304-0.20848-0.10588-0.70785-0.29896-0.91836-0.193-0.2105-0.53943-0.1281-0.72225-0.19535-0.18273-0.06725-0.25444 0.17002-0.36655-0.2052-0.11211-0.3753-0.11514-1.494-0.26597-1.9115s-0.44702-0.0282-0.58455-0.44314c-0.13753-0.41486-0.0072-1.0784-0.0691-1.705l-0.2807-1.705c-0.26064 1.5671-3.0894 0.99503-4.3338 1.9825-0.21808 0.39104-0.72898 0.45341-0.96751 0.37463-0.39736-0.1313-0.90523-0.22237-1.3972 0.12819-0.49196 0.35048-1.0232 0.08543-0.93006-0.55349 0.09317-0.63884 0.32396-1.2079 0.93654-1.5603 1.3379-0.76963 0.40805-1.3053 1.1423-2.0777 0.73571-0.77393 0.57318-1.0108 0.54878-2.0619-2.4866-0.37354-3.8959-1.0902-5.4696-3.0564-1.5737-1.9663-2.1837-3.5847-2.3469-6.0498-0.16312-2.4651-0.021715-4.0627 1.0433-6.1089 1.0651-2.0462 2.1864-3.0312 4.1297-4.0529 1.9433-1.0215 3.8473-1.2662 5.6073-1.2364 1.76 0.02971 2.9327 0.15866 3.9271 0.72603 0.99436 0.56738 1.9041 1.2814 2.484 1.2865 0.58 0.0051 0.97484-0.14679 1.2567-0.36276 0.07525 1.9109-1.6446 2.0768-3.1832 2.1172-1.5387 0.04032-2.4841-0.59616-3.9013-0.3594s-3.7374 0.88166-4.8677 2.8491-1.1688 2.6629-1.0749 4.3128c0.09393 1.6499 1.514 2.8809 2.3156 2.8943 0.80153 0.01338 0.98048-0.21875 1.6821-0.67638 0.70171-0.45771 4.2838-4.892 5.5061-5.8881 1.2224-0.99605 2.4286-1.3036 3.731-1.3196 1.3024-0.01599 1.6352 0.0282 2.6856 0.45872 1.0504 0.43044 1.6959 1.2232 2.5428 1.7079 0.43288-0.25478 0.70179-0.63522 1.099-0.92551 1.4205-1.0382 2.1586-1.318 3.8469-1.1537 0.97038 0.09444 2.1939 0.64877 2.924 1.2836 1.3 1.1303 2.374 2.7039 3.2418 3.8993 0.67579 0.93098 1.471 2.0449 2.6063 2.3931 1.2395 0.38002 2.1723-1.2254 2.3092-2.1159 0.0776-0.50459 0.17886-0.94681 0.1797-1.5021 8.42e-4 -0.55543-0.05589-1.2294-0.21598-1.8083-0.16009-0.57882-0.43431-1.1548-0.73125-1.6324-0.48329-0.77729-1.1803-1.5907-2.003-2.0092-0.46175-0.23483-1.5481-0.66181-2.2329-0.6768-0.83907-0.01818-1.4783 0.2637-2.2541 0.31656-0.93898 0.06405-2.6163 0.27515-3.3524-0.4503-0.46848-0.46166-0.5274-0.76963-0.60744-1.3716 0.20697 0.17052 0.49642 0.28264 0.75406 0.30444 0.588 0.04966 1.1385-0.43044 1.6132-0.70861 0.39096-0.22919 0.94462-0.63875 1.4581-0.84572 1.3194-0.53194 2.9402-0.51662 4.333-0.37413 1.1164 0.11413 2.4701 0.61081 3.4492 1.1649 0.98376 0.55652 1.9317 1.4949 2.6261 2.3795 0.87358 1.113 1.3512 2.068 1.6675 3.4562 0.40443 1.7728 0.51654 4.4358 0.02761 6.1837-0.38532 1.3774-1.6648 3.4933-2.7539 4.5305-1.0742 1.0231-2.3145 1.5169-3.7249 1.787 0.05521 0.28466 0.0643 0.55012 0.13728 0.78352 0.1037 0.33129 0.302 0.70062 0.70937 0.58379 0.16244-0.04655 0.24939-0.08686 0.4636 0.1005 0.21404 0.18736 0.1026 0.91112-0.49979 1.2359-0.30545 0.16472-0.62781 0.20049-1.117 0.21025-0.48918 0.0098-1.2527 0.01187-1.7838-0.08114-0.53102-0.09292-0.84825-0.51435-1.4364-0.58034-0.90893-0.10168-2.0216-0.96669-2.7504-1.4363m-10.668 3.385c0.03038-0.61822 0.25351-1.1396 0.80751-1.4427 0.28651-0.15672 0.72789-0.3594 1.1335-0.40704 2.1565-0.44133 3.4849 0.35728 5.1121 1.4 0.56174 0.39147 0.891 0.82249 1.2804 1.0809 0.18727 0.12415 0.45072 0.10572 0.69935 0.18164-0.19333 0.0574-0.44601 0.1207-0.65458 0.05404-1.0525-0.11479-1.8619-0.94264-2.626-1.407-1.0279-0.76968-2.0263-0.67608-3.2261-0.66869-1.5625 0.18946-1.9125 1.4436-1.819 2.4238 0.02828 0.15613 0.10437 0.34164 0.15647 0.51242-0.23441-0.23449-0.47429-0.45282-0.62571-0.75557-0.15159-0.30292-0.25427-0.63909-0.23802-0.97172zm-0.07053-7.4525c0.25158-0.02205 0.56401 0.04537 0.7996 0.03198 0.23559-0.01338 0.40375-0.07449 0.60567-0.11178-0.03745-0.35485-0.0019-1.0068-0.32952-1.2438-0.2116-0.15302-1.0806-0.03779-1.3128 0.01229-0.52235 0.11262-1.1306 0.42438-1.6358 0.61931 0.48414-0.33819 0.90237-0.65163 1.483-0.82619 0.34904-0.10496 1.1636-0.2414 1.5239-0.1441 0.16446 0.04436 0.19771 0.11245 0.29745 0.25183 0.3429 0.47875 0.34189 0.89252 0.43086 1.4502 0.08745 0.13627 0.18062 0.22717 0.25149 0.36773 0.0707 0.14056 0.11077 0.36175 0.13054 0.54255-0.08972-0.13012-0.03485-0.29333-0.28339-0.3902-0.24872-0.09688-0.62949-0.0064-0.96457 0.02862 0.24426 0.17625 0.36563 0.34602 0.37497 0.71863 0.01094 0.43751-0.35948 0.75238-0.74624 0.78234-0.53691 0.04166-0.81374-0.07626-1.0309-0.53514-0.09511-0.20099-0.02618-0.44281-0.03409-0.63875-0.64515 0.04486-0.63463 0.02382-1.1061 0.41697 0.25629 0.37547 0.41773 0.59137 0.84126 0.81601 0.23752 0.12608 0.50644 0.24863 0.80078 0.29871 0.29442 0.05008 0.77729 0.09848 1.0865 0.05101 0.30932-0.04747 0.48456-0.13576 0.71383-0.34778 0.22936-0.2121 0.2504-0.51578 0.33996-0.75583-0.02037 0.23104-0.04688 0.52529-0.13265 0.69287-0.26092 0.50947-0.71215 0.66047-1.2509 0.66215-0.51713 0.0017-1.1568-0.11758-1.6379-0.31706-0.38465-0.15941-1.0223-0.61089-1.1736-1.0031-0.10344-0.26799-0.02155-0.59684-0.03241-0.8953 0.53262-0.35418 0.66442-0.26707 1.2946-0.37076 0.26362-0.04343 0.44491-0.14132 0.6965-0.16346zm8.2634 0.58968c-0.33474 0.0218-0.41411-0.02222-0.68193 0.16665 0.14519 0.22591 0.2903 0.45182 0.43532 0.67772-0.01279-0.44592 0.03064-0.53531 0.24661-0.84438zm-0.87703-0.32405c0.4636-0.19746 0.86752-0.35721 1.3719-0.38877 0.20217-0.01271 0.51604 0.0186 0.72023 0.02786 0.17389-0.25604 0.39551-0.45796 0.47673-0.75019 0.05378-0.19384 0.02727-1.0935-0.06792-1.3271-0.27733-0.67974-0.54692-0.70844-0.92863-1.0978-0.277-0.28238-0.28802-0.7124-0.37084-1.1943-0.03038-0.17701-0.11725-0.40098-0.15798-0.58362-0.49895-0.08408-1.0355-0.11178-1.6095-0.08307 0.27834-0.26698 0.54743-0.5109 0.6273-0.91171 0.07971-0.40081 0.01481-0.89361-0.21303-1.253-0.22784-0.3594-0.59179-0.6725-0.92585-0.96532-0.33423-0.29282-0.81323-0.53455-1.1299-0.77409 0.41184-0.14746 0.83234-0.36411 1.2358-0.4423 1.0509-0.20386 1.9564 0.1079 2.97 0.72073 0.58934 0.35645 1.0768 0.69506 1.6929 1.34 0.61594 0.6449 1.3799 1.8279 1.9763 2.5294 0.59633 0.70154 1.0778 1.2564 1.598 1.6748 0.52033 0.41848 0.99125 0.53767 1.4867 0.80642l0.77233 0.82014 0.62503-0.77342 1.0057 0.11371 0.20781-1.1289 0.92307-0.25293-0.15058-1.5218 0.66366-0.471-0.49878-0.94681 0.50678-1.0346-0.66072-1.1826 0.25478-1.1387-0.76492-0.65188-0.09982-1.2101-1.0671-0.40704-0.42808-1.0528-1.106-0.01347-0.5885-0.7815-0.80768 0.05656-0.90035-0.09806-0.50913-0.3759-0.73891 0.49053-0.89412-0.46621-1.7774 0.67478 1.1587-1.0077 1.2004-0.19174 0.91962-0.23441 1.242 0.40788 1.0932-0.27691 0.96029 0.6231 1.1154-0.0617 0.54794 0.98317 1.1106 0.12819 0.60088 1.0931 0.69851 0.38136 0.18542 1.4003 0.62209 0.59002-0.27355 1.2252 0.73285 0.92787-0.68715 0.99419 0.73479 0.62141-0.93932 0.83251 0.95135 0.99074-1.1489 0.37051 0.74834 1.0626-0.93848 0.16194 0.61544 1.1684-1.0577-0.01406 0.53278 0.87518-1.1601-0.13964 0.2775 1.2591-0.8767-0.77123-0.30031 1.526-0.605-1.0957-0.32767 1.3666-0.74682-1.0077 0.02037 1.433-0.82544-1.2885c0.17406 0.73108 0.13921 1.5316 0.61939 2.2209 1.4878-0.20133 2.4602-0.57622 3.6-1.673 1.0381-0.99891 2.2789-3.0816 2.6149-4.4027 0.38339-1.5075 0.39517-4.28 0.01759-5.8147-0.36344-1.4777-0.83579-2.1835-1.6797-3.3893-0.80667-0.85675-1.6-1.7618-2.6239-2.3728-1.5029-0.89681-3.3363-1.1386-5.0491-1.1153-0.94841 0.01296-1.5837 0.1951-2.1507 0.40131-0.99158 0.36058-1.7846 1.1471-2.7927 1.5358-0.32876 0.12667-0.59229 0.13063-0.85119-0.0077 0.25351 0.5072 0.52933 0.7347 1.1616 0.91928 0.45737 0.13349 1.5487 0.04907 2.3-0.02028 0.8065-0.07449 1.2272-0.31428 2.3248-0.29922 1.072 0.01473 1.9214 0.42194 2.3858 0.68749 0.95825 0.54793 1.5517 1.1558 2.1487 2.1187 0.32792 0.52874 0.55761 1.1253 0.71938 1.7341s0.23264 1.2906 0.24299 1.8866c0.01035 0.596-0.03518 1.128-0.18096 1.6643-0.34096 1.2556-1.0932 2.5333-2.6383 2.3359-0.94554-0.12086-2.371-1.8956-2.8484-2.5468-0.9633-1.3141-1.9545-2.7683-3.1649-3.8626-0.73799-0.66703-1.7484-1.1261-2.7407-1.2169-1.8615-0.17036-2.4136 0.18324-3.8148 1.3382 0.28508 0.0909 0.56334 0.14107 0.85548 0.2727 0.64835 0.29215 1.2413 0.66972 1.7585 1.154 0.54196 0.50762 0.78512 0.82889 0.8044 1.5558-1.3315 2.4665-2.9397 1.5985-5.2239 0.71534-0.31858 0.03333-0.6119 0.04065-1.0379 0.18172-0.42598 0.14098-0.89673 0.47664-1.2835 0.55972-0.97399 0.20958-1.1681 0.14746-1.7011 0.0095-0.93847-0.24291-2.1604 0.17296-3.3743 0.56123-0.20184 0.06456-1.0182 0.0022-1.5677 0.19502-0.84875 0.29779-2.0396 1.0189-2.7275 1.5982-1.0422 0.87779-2.4118 3.5048-3.1856 6.52-0.08131 0.91659 0.17936 1.5341-0.39803 1.9818-0.57739 0.44769-0.5614 1.5946-0.75718 1.9163-0.19578 0.32161-0.42244 0.17945-0.84387 0.63118-0.42143 0.45173-0.63597 0.37623-0.62537 1.2304 0.36318-0.23878 0.89269-0.51637 1.3576-0.53312 0.41175-0.0149 0.41613 0.52723 1.4729-0.51755 0.56519-0.55896 1.651-0.57605 2.4044-0.82258 0.75347-0.24653 2.1112-0.75457 3.471-2.2748-0.16702-0.8219 0.94566-0.08924-0.84673 1.5011-0.04966 0.62655-0.06186 1.28 0.14292 1.8796 0.20478 0.59944-0.12162 1.2905 0.03417 1.6853 0.1558 0.39483 0.51612 0.1701 0.63379 0.56982 0.11767 0.39971-0.06144 1.19 0.12103 1.5796 0.18248 0.38962 0.63017 0.15319 0.84715 0.27902 0.21698 0.12592 0.28794 0.29846 0.40401 0.46402 0.11598 0.16547-0.04537 0.55669 0.19064 0.6837 0.23592 0.12709 0.60399 0.01944 0.84951 0.1414 0.24552 0.12196 0.2828 0.41512 0.22397 0.67781-0.05892 0.26269-0.32127 0.38322-0.4365 0.65028-0.11514 0.26715-0.10226 0.45308 0.03611 0.69834 0.13837 0.24535 0.44474 0.38044 0.75011 0.50425 0.30536 0.12381 0.73445 0.05429 1.0496 0.22549 0.31512 0.1712 0.59835 0.51233 0.76475 0.76029 0.1664 0.24788 0.21261 0.42278 0.20411 0.68344-0.0086 0.26058-0.1143 0.56081-0.25343 0.81256s-0.44609 0.55812 0.03316 1.0389c0.47925 0.48068 0.46158 0.27346 0.73614 0.5853-0.02988-0.53943-0.25276-0.97888-0.08981-1.385 0.16303-0.40611 0.65247-0.47673 0.91045-0.65937 0.25798-0.18273 0.40653-0.43372 0.60988-0.65054-0.0029 0.27902 0.02693 0.57899-0.0048 0.78908-0.06464 0.42715-0.19072 0.80633 0.44584 0.87484 0.28676 0.03081 0.55904-0.15512 0.86079-0.26673-0.15807 0.28306-0.43296 0.51065-0.47429 0.84942-0.04133 0.33861 0.0083 0.71063 0.24282 1.0467 0.23458 0.33592 0.63959 0.58539 0.93637 0.78285 0.66387 0.54956 1.5685 0.02072 3.3486-0.16177 0.39601-0.3174 0.52378-0.51183 0.66594-0.81997 0.14216-0.30814 0.1026-0.80456 0.12886-1.0816 0.13038 0.38802 0.14898 0.50863 0.19132 0.91457 0.04259 0.40603-0.2366 0.97551-0.35477 1.2761 0.48986-0.2366 0.80078-0.61476 0.95775-0.98435 0.10504 0.06229 0.0521 0.23306 0.09073 0.56216 0.17456-0.17372 0.37303-0.30738 0.54878-0.47134 0.17591-0.16379 0.36857-0.30789 0.45585-0.53657 0.08711-0.22868 0.05143-0.47185-0.01347-0.73757-0.06489-0.26572-0.36184-0.57386-0.52176-0.86449-0.15975-0.29055 0.02828-0.57579 0.01742-0.92593-0.31992-0.05496-0.59162-0.21791-0.95935-0.16497-0.3679 0.05286-0.78924 0.4657-1.1652 0.4705-0.37598 0.0048-0.58707-0.34745-0.8953-0.44424-0.30822-0.09679-0.62007-0.08619-0.92997-0.12928 0.39256-0.37606 1.9162-0.55517 2.9583-0.72511 0.91701-0.14957 1.827-0.23601 2.7562-0.24905 0.41495-0.0059 0.94824 0.13113 1.2363 0.04831 0.28836-0.08265 0.22683-0.27902 0.31235-0.49306 0.23921-0.59827 0.12129-1.1311-0.0088-1.7335-0.83411-0.0978-1.7032-0.21749-2.5436-0.15293-0.82165 0.06313-1.7946 0.45375-2.6421 0.48018-0.73681 0.02289-1.8279-0.14115-2.4606-0.52681-0.8795-0.33388-1.2955-0.51001-2.0567-1.1109-1.0551-0.85267-2.06-1.0241-0.42471-1.0337 0.87581 0.20919 0.71572 0.83442 2.9583 1.822 0.34568 0.13795 0.93932 0.22448 1.313 0.27068 1.163 0.14401 2.2848-0.22456 3.4271-0.50661 0.83495-0.20621 1.6822-0.12314 2.6977-0.06346 0.34475 0.0202 1.1576-0.18719 1.326-0.5359 0.0909-0.18812 0.08417-0.41419-0.04638-0.61468-0.13071-0.20049-0.47883-0.29745-0.66543-0.47791-0.1866-0.18046-0.29392-0.39466-0.44087-0.59204-0.77561 0.14881-1.4136 0.20596-1.9893 0.22161 0.41293-0.1701 0.80911-0.26715 1.2389-0.43523 0.42976-0.16808 0.91777-0.44399 1.2646-0.67292 0.34686-0.22902 0.5683-0.36184 0.81929-0.62832 0.25082-0.26664 0.5726-0.54129 0.75751-0.86718 0.18508-0.3259 0.2137-0.69043 0.22406-1.0938 0.01035-0.40325-0.0071-0.96911-0.16261-1.294-0.15537-0.3248-0.45501-0.42336-0.69573-0.50021-0.24081-0.07685-0.40569 0.1175-0.65609 0.14376-0.25057 0.02626-0.48464 0.18416-0.8469 0.0138-0.36226-0.17036-0.79168-0.51713-1.158-1.0318-0.36613-0.51477-0.62798-1.3561-1.0013-2.0034-0.64347-1.1157-1.4453-2.158-2.2122-3.1918-0.06313-0.25494-0.15798-0.60727-0.18955-0.95312-0.05505-0.60264-0.0654-1.2287 0.12162-1.8162 0.14334-0.45005 0.35182-0.92543 0.82308-1.11 0.18854-0.0739 0.42707-0.10319 0.59557-0.04074 0.16867 0.06237 0.33406 0.25267 0.26782 0.47252-0.07281 0.24173-0.2403 0.2483-0.3541 0.37034-0.73552 0.20162-0.80183 0.97437-0.97081 1.7496-0.06515 0.18534 0.0092 0.54966 0.04201 0.79333zm3.9806 3.6706c0.23356 0.1156 0.7884 0.61283 1.2553 0.8272 0.46688 0.21438 0.74489 0.33103 1.2327 0.42303 0.48775 0.092 0.87585 0.48708 1.3559 0.5513 0.48001 0.06422 1.3766 0.07718 1.7465 0.04107 0.42-0.04099 0.96566-0.25772 1.0146-0.71821-0.35216 0.08686-0.88999 0.0089-1.1616-0.65373-0.12053-0.29425-0.06144-0.83537-0.24594-1.1833-0.18441-0.34804-0.44155-0.45973-0.74876-0.88848-0.30721-0.42875-0.80978-1.105-1.0919-1.6795-0.28196-0.57436-0.34837-1.225-0.5869-1.7397-0.23853-0.5146-0.59835-0.93031-0.8772-1.327-0.60887-0.86693-1.0999-1.4594-2.103-1.8967-0.48245-0.21034-1.0317-0.26639-1.5476-0.39963-0.20992 0.09401-0.49777 0.19788-0.54886 0.4434-0.05109 0.24552 0.04705 0.60812 0.22523 0.79244 0.29821 0.30814 0.74009 0.64119 0.91381 1.131 0.11161 0.31428 0.14401 1.3679 0.0473 1.6538-0.10033 0.29686-0.33356 0.47639-0.5274 0.6741 0.10226 0.04032 0.14123 0.04915 0.27077 0.14772 0.12954 0.09856 0.30822 0.19695 0.41082 0.43246 0.10277 0.23559 0.09797 0.59987 0.07609 0.74826-0.09006-0.02643-0.21286-0.0086-0.30629-0.08846-0.09317-0.07987-0.14881-0.26075-0.26833-0.33819-0.11969-0.07735-0.21943-0.06043-0.35166-0.07718 0.06792 0.19325 0.10092 0.38658 0.06936 0.56182-0.06851 0.38254-0.29341 0.5763-0.65752 0.62209-0.15899 0.01995-0.4115-0.0324-0.54987-0.05757 0.06414 0.14326 1.9436 2.5187 1.862 2.8703-0.34568-1.7523 1.0925-0.87235 1.0925-0.87235zm-9.0488-10.993c-0.03931 0.42673 0.03291 1.0938 0.12129 1.5117 1.7225 0.3851 4.1569 1.1807 4.2336-1.1794-0.3248-0.83537-1.5797-1.5057-2.3307-1.8335-0.44746-0.32753-1.1653 0.28878-2.0418-0.03283l0.13272 0.0571c-0.6975-0.63656-1.3154-1.2237-2.2938-1.6612-0.97846-0.43742-1.4607-0.50366-2.5825-0.47875-1.1219 0.02483-2.2353 0.11868-3.5346 1.2392-1.2993 1.1205-4.6481 5.4113-5.4602 5.9544-0.81205 0.54305-0.99192 0.72704-2.0067 0.7273-1.0147 2.52e-4 -2.5984-1.4351-2.6605-3.2289-0.06212-1.7939-0.08703-2.4314 1.1599-4.5925 1.247-2.1611 3.5061-2.8247 5.1822-3.0487 1.6762-0.22406 2.6834 0.3663 3.9233 0.36908 1.2398 0.0029 2.4651-0.21118 2.8264-1.1972-0.17684 0.1053-0.41377 0.22397-1.08 0.18904s-1.5901-0.80633-2.6293-1.3232c-1.0392-0.51679-2.1957-0.57731-3.679-0.60534-1.4833-0.02803-3.3342 0.08535-5.1678 1.0752-1.8337 0.9899-3.0854 2.0402-4.1489 3.9776-1.0635 1.9375-1.2225 3.5193-1.051 5.8652s0.89496 4.0905 2.288 5.8074c1.3931 1.7169 2.7853 2.557 5.2957 2.8694l0.52849-2.3311-0.94344 1.3539 0.02332-1.5059-0.85338 1.0589-0.3743-1.4361-0.69136 1.1513-0.34341-1.6034-1.0019 0.81029 0.31714-1.323-1.3256 0.1467 0.60896-0.91962-1.2087 0.01473 0.70331-1.2278-1.0725-0.17026 0.85515-1.1167-1.313-0.38928 1.0871-1.041-1.0734-0.87476 0.83958-0.65298-0.78512-1.0447 0.83747-0.97492-0.3126-1.2874 0.71114-0.6199 0.21168-1.4713 0.79808-0.40081 0.68664-1.1486 1.2692-0.13475 0.62621-1.0331 1.2747 0.06489 1.2046-0.65474 1.2493 0.29097 1.4191-0.42858 1.051 0.24628 1.3716 0.20158 1.3242 1.0588-2.0312-0.70903-1.0218 0.48994-0.84463-0.51553-0.58152 0.395-1.029 0.10302-0.92274-0.05959-0.67267 0.82114-1.3712 0.01414-0.4891 1.1062-1.2193 0.42774-0.11405 1.2715-0.87434 0.68496 0.29131 1.1965-0.75507 1.2427 0.57924 1.087-0.57007 0.99487 0.75844 0.49491-0.17204 1.599 1.0548 0.2658 0.23761 1.1862 1.1494-0.11944 0.71408 0.81273 0.88259-0.8618c1.609-0.80229 2.2715-1.2511 3.5255-2.6073 1.4274-1.5439 2.2455-2.9713 4.1469-4.0284 1.3637-0.75819 2.476-1.0311 4.0078-0.76635 1.9038 0.44614 2.5986 1.8046 3.1254 2.4049z"/>
 </g>
</svg>
