<?xml version="1.0" encoding="UTF-8"?>
<svg width="52.509" height="52.52" version="1.0" viewBox="0 0 52.509 52.52" xmlns="http://www.w3.org/2000/svg" xmlns:xlink="http://www.w3.org/1999/xlink">
 <defs>
  <linearGradient id="linearGradient13956" x1="46.592" x2="43.592" y1="89.585" y2="-74.733" gradientUnits="userSpaceOnUse">
   <stop stop-color="#f0f0f0" offset="0"/>
   <stop stop-color="#fff" offset="1"/>
  </linearGradient>
  <linearGradient id="linearGradient13966" x1="26.48" x2="26.48" y1="1.3939" y2="52.843" gradientUnits="userSpaceOnUse">
   <stop stop-color="#fff" offset="0"/>
   <stop stop-color="#fff" stop-opacity="0" offset="1"/>
  </linearGradient>
 </defs>
 <g transform="translate(-3.8191 -6.1557)">
  <g transform="translate(-840.83 182.27)" fill="#71c000" stroke="#71c000" stroke-linejoin="bevel" stroke-width="3.379"></g>
  <g transform="translate(-1426.6 -26.29)" fill="#71c000" stroke="#71c000" stroke-linejoin="bevel" stroke-width="3.379"></g>
  <rect x="4.9083" y="7.2196" width="50.731" height="50.549" ry="7.0914" color="black" fill="url(#linearGradient13956)" fill-rule="evenodd" stroke="#2b2b2b" stroke-width=".997"/>
  <g transform="matrix(-.0039739 .6296 -.6296 -.0039739 295.58 -273.62)" fill="#fff"></g>
  <path transform="translate(3.8191 6.1557)" d="m2.1818 45.429-0.18182-37.636s1.0909-5.6364 5.4545-5.8182c4.3636-0.18182 37.455 0 37.455 0s5.8182 0 6 7.2727c0.18182 7.2727-0.18182 36.727-0.18182 36.727" color="black" fill="none" stroke="url(#linearGradient13966)"/>
  <g>
   <rect x="9.1224" y="11.653" width="42" height="42" rx="3" ry="3" fill="#fff"/>
   <g>
    <path d="m20.748 36.83c0.0317 0.02994 0.01109 0.05831 0.01109 0.05831s-7.4237 0.07604-11.497 2.8892c-0.16734 0.11605-0.15084 0.09189-0.15084 0.09189v-13.889s2.701 5.834 10.394 4.6472c0.09118-0.01331 0.09289 0.04205 0.09289 0.04205s-1.9917 3.1525 1.1507 6.1601" fill="#3a63ac"/>
    <path d="m15.662 43.005c-2.284 0.88358-3.887 2.9548-3.887 5.3692 0 2.3171 1.4795 4.3836 3.6193 5.3227 0 0 0.19527 0.07946 0.22268 0.08048 0.02737 3.4e-4 11.526 0 11.526 0s0.08777-0.0564 0.13376-0.0964c5.4853-4.8926 1.2231-8.6684-3.4766-11.863-0.08481-0.0577-0.20282-0.07041-0.20282-0.07041l-0.01447-0.0036c-0.97606-0.11613-2.4324-0.05685-4.0352 0.19914-1.5604 0.25089-2.9322 0.6351-3.8268 1.0386l-0.05849 0.02339z" fill="#f2b904"/>
    <path d="m51.044 14.881c0-1.8413-1.3777-3.3344-3.0759-3.3344l-0.01097 3.96e-4h-16.826l-0.08662-0.0079c2.2915 2.0732 3.7607 4.8795 3.7607 8.1228 0 2.3122-0.80836 4.2811-1.7584 5.8269l0.01347-0.0065c1.2177-0.93686 5.5211-2.5544 9.6759-1.8382 3.6749 0.6351 6.5275 2.4391 8.1823 4.2322l0.12581 0.13396v-13.129z" fill="#e22025"/>
    <path d="m51.042 50.184v-22.125l0.0026-0.04789-0.12581-0.13396c-1.6548-1.7931-4.5074-3.5971-8.1823-4.2322-4.1548-0.71625-8.4582 0.9013-9.6759 1.8382l-0.04954 0.04594-0.18218 0.20679s-0.68254 0.79686-1.4283 1.5711c-0.74473 0.7743-1.8289 1.7317-1.8289 1.7317-0.93463 0.76182-1.5033 1.7701-1.5033 2.876 0 1.1096 0.65399 2.1736 1.5942 2.9358 0 0 1.5611 1.2379 2.6078 2.1885 1.0464 0.95116 2.2829 2.2542 2.2829 2.2542 1.4172 1.4452 2.3327 3.7344 2.3327 6.3104 0 2.2186-0.67809 4.2226-1.7712 5.6595l-1.675 2.2771h14.509l0.01795-0.0014c1.6986 0 3.0758-1.4938 3.0758-3.3359v-0.01835z" fill="#1b813e"/>
    <path d="m17.73 11.7c-2.7825 1.461-3.2075 5.0618-2.2941 8.4006 1.2073 4.4127 4.3948 7.4932 7.6309 6.476 4.514-1.4192 4.4659-5.0891 3.2581-9.5019-0.62714-2.2946-2.2652-4.4515-3.8838-5.3763l-0.01198-0.0083h-4.6776l-0.02155 0.0099z" fill="#3a63ac"/>
   </g>
  </g>
 </g>
</svg>
