<?xml version="1.0" encoding="UTF-8" standalone="no"?>
<!-- Created with Inkscape (http://www.inkscape.org/) -->

<svg
   xmlns:dc="http://purl.org/dc/elements/1.1/"
   xmlns:cc="http://creativecommons.org/ns#"
   xmlns:rdf="http://www.w3.org/1999/02/22-rdf-syntax-ns#"
   xmlns:svg="http://www.w3.org/2000/svg"
   xmlns="http://www.w3.org/2000/svg"
   xmlns:xlink="http://www.w3.org/1999/xlink"
   xmlns:sodipodi="http://sodipodi.sourceforge.net/DTD/sodipodi-0.dtd"
   xmlns:inkscape="http://www.inkscape.org/namespaces/inkscape"
   width="52.509098"
   height="52.52018"
   viewBox="0 0 52.509098 52.52018"
   id="svg5160"
   sodipodi:version="0.32"
   inkscape:version="0.48.5 r10040"
   sodipodi:docname="a:otrs:otrs.svg"
   version="1.0"
   inkscape:export-xdpi="27.42"
   inkscape:export-ydpi="27.42">
  <defs
     id="defs5162">
    <linearGradient
       inkscape:collect="always"
       id="linearGradient13960">
      <stop
         style="stop-color:white;stop-opacity:1;"
         offset="0"
         id="stop13962" />
      <stop
         style="stop-color:white;stop-opacity:0;"
         offset="1"
         id="stop13964" />
    </linearGradient>
    <linearGradient
       id="linearGradient3898">
      <stop
         style="stop-color:#f0f0f0;stop-opacity:1;"
         offset="0"
         id="stop3900" />
      <stop
         style="stop-color:white;stop-opacity:1;"
         offset="1"
         id="stop3902" />
    </linearGradient>
    <linearGradient
       inkscape:collect="always"
       xlink:href="#linearGradient3898"
       id="linearGradient13956"
       x1="46.591862"
       y1="89.585007"
       x2="43.591812"
       y2="-74.733185"
       gradientUnits="userSpaceOnUse" />
    <linearGradient
       inkscape:collect="always"
       xlink:href="#linearGradient13960"
       id="linearGradient13966"
       x1="26.48"
       y1="1.3939171"
       x2="26.48"
       y2="52.84341"
       gradientUnits="userSpaceOnUse" />
  </defs>
  <sodipodi:namedview
     id="base"
     pagecolor="#ffffff"
     bordercolor="#666666"
     borderopacity="1.0"
     inkscape:pageopacity="0.0"
     inkscape:pageshadow="2"
     inkscape:zoom="2.8284271"
     inkscape:cx="51.622693"
     inkscape:cy="5.2847485"
     inkscape:current-layer="layer1"
     showgrid="false"
     inkscape:document-units="px"
     inkscape:grid-bbox="true"
     inkscape:window-width="1680"
     inkscape:window-height="1030"
     inkscape:window-x="-3"
     inkscape:window-y="-3"
     showguides="true"
     inkscape:guide-bbox="true"
     inkscape:window-maximized="1">
    <sodipodi:guide
       orientation="vertical"
       position="393.92276"
       id="guide5230" />
    <sodipodi:guide
       orientation="vertical"
       position="438.14907"
       id="guide5236" />
  </sodipodi:namedview>
  <metadata
     id="metadata5165">
    <rdf:RDF>
      <cc:Work
         rdf:about="">
        <dc:format>image/svg+xml</dc:format>
        <dc:type
           rdf:resource="http://purl.org/dc/dcmitype/StillImage" />
        <dc:title />
      </cc:Work>
    </rdf:RDF>
  </metadata>
  <g
     id="layer1"
     inkscape:label="Layer 1"
     inkscape:groupmode="layer"
     transform="translate(-3.819132,-6.155729)">
    <g
       inkscape:label="shadow"
       style="display:inline"
       id="layer4"
       transform="translate(-392.7904,328.2799)" />
    <g
       inkscape:label="shadow"
       id="g3039"
       transform="translate(-840.833,182.2722)" />
    <g
       inkscape:label="color"
       id="g3041"
       transform="translate(-840.833,182.2722)">
      <path
         style="opacity:1;fill:#71c000;fill-opacity:1;stroke:#71c000;stroke-width:3.37896037;stroke-linejoin:bevel;stroke-miterlimit:4;stroke-dasharray:none;stroke-opacity:1"
         d=""
         id="path3043" />
      <path
         style="opacity:1;fill:#71c000;fill-opacity:1;stroke:#71c000;stroke-width:3.37896037;stroke-linejoin:bevel;stroke-miterlimit:4;stroke-dasharray:none;stroke-opacity:1"
         d=""
         id="path3045" />
      <path
         style="opacity:1;fill:#71c000;fill-opacity:1;stroke:#71c000;stroke-width:3.37896037;stroke-linejoin:bevel;stroke-miterlimit:4;stroke-dasharray:none;stroke-opacity:1"
         d=""
         id="path3047" />
    </g>
    <g
       inkscape:label="highlight"
       id="g3049"
       transform="translate(-840.833,182.2722)" />
    <g
       inkscape:label="text"
       id="g3089"
       transform="translate(-840.833,182.2722)" />
    <g
       id="g4774"
       inkscape:label="shadow"
       transform="translate(-1426.607,-26.2895)" />
    <g
       id="layer2"
       inkscape:label="color"
       transform="translate(-1426.607,-26.2895)">
      <path
         style="opacity:1;fill:#71c000;fill-opacity:1;stroke:#71c000;stroke-width:3.37896037;stroke-linejoin:bevel;stroke-miterlimit:4;stroke-dasharray:none;stroke-opacity:1"
         d=""
         id="path3422" />
      <path
         style="opacity:1;fill:#71c000;fill-opacity:1;stroke:#71c000;stroke-width:3.37896037;stroke-linejoin:bevel;stroke-miterlimit:4;stroke-dasharray:none;stroke-opacity:1"
         d=""
         id="path3426" />
      <path
         style="opacity:1;fill:#71c000;fill-opacity:1;stroke:#71c000;stroke-width:3.37896037;stroke-linejoin:bevel;stroke-miterlimit:4;stroke-dasharray:none;stroke-opacity:1"
         d=""
         id="path3428" />
    </g>
    <g
       id="g5777"
       inkscape:label="highlight"
       transform="translate(-1426.607,-26.2895)" />
    <g
       id="layer5"
       inkscape:label="text"
       transform="translate(-1426.607,-26.2895)" />
    <rect
       style="opacity:1;color:black;fill:url(#linearGradient13956);fill-opacity:1;fill-rule:evenodd;stroke:#2b2b2b;stroke-width:0.997;stroke-linecap:butt;stroke-linejoin:miter;marker:none;marker-start:none;marker-mid:none;marker-end:none;stroke-miterlimit:4;stroke-dasharray:none;stroke-dashoffset:0;stroke-opacity:1;visibility:visible;display:inline;overflow:visible"
       id="rect13948"
       width="50.730724"
       height="50.548958"
       x="4.9082928"
       y="7.219615"
       ry="7.0913997" />
    <g
       id="g6007"
       transform="matrix(-3.973892e-3,0.629601,-0.629601,-3.973892e-3,295.5792,-273.6194)"
       inkscape:export-xdpi="27.42"
       inkscape:export-ydpi="27.42"
       style="fill:white">
      <g
         transform="translate(415.3267,354.416)"
         id="g6011"
         style="fill:white" />
    </g>
    <g
       id="g3192"
       inkscape:label="openvaslogo"
       style="display:inline"
       transform="translate(-996.7028,556.527)" />
    <path
       style="opacity:1;color:black;fill:none;fill-opacity:1;fill-rule:evenodd;stroke:url(#linearGradient13966);stroke-width:1;stroke-linecap:butt;stroke-linejoin:miter;marker:none;marker-start:none;marker-mid:none;marker-end:none;stroke-miterlimit:4;stroke-dasharray:none;stroke-dashoffset:0;stroke-opacity:1;visibility:visible;display:inline;overflow:visible"
       d="M 2.1818182,45.429271 L 2,7.792907 C 2,7.792907 3.0909091,2.1565434 7.4545455,1.9747252 C 11.818182,1.792907 44.909091,1.9747252 44.909091,1.9747252 C 44.909091,1.9747252 50.727273,1.9747252 50.909091,9.2474525 C 51.090909,16.52018 50.727273,45.974725 50.727273,45.974725"
       id="path13958"
       transform="translate(3.819132,6.155729)" />
    <g
       id="Layer_1"
       transform="translate(-322.18087,-160.58559)" />
    <path
       inkscape:connector-curvature="0"
       d="m 27.896435,39.614368 0.59249,0.72081 c 0.29713,0.34765 1.67759,2.17433 1.67855,2.17525 0.007,-0.005 0.0175,-0.0223 0.0203,-0.0163 l 0.0387,-0.0343 c 0.004,-0.005 0.0129,-0.0133 0.0176,-0.0187 l 0.48483,-0.66605 c 0.19428,-0.26482 0.38044,-0.51632 0.57474,-0.75707 0.20123,-0.2493 0.37687,-0.48844 0.57506,-0.72091 0.11464,-0.13448 0.54488,-0.63185 0.59708,-0.74365 -0.13699,-0.26798 -0.381,-0.5765 -0.5518,-0.81912 -0.184,-0.26148 -0.36424,-0.51269 -0.55918,-0.77258 -0.13391,-0.17852 -1.02422,-1.32909 -1.19337,-1.46931 -0.0774,0.0478 -0.11007,0.0892 -0.18748,0.18267 -0.43356,0.52379 -2.0512,2.63168 -2.08748,2.93916"
       style="fill:#1c1e21;fill-opacity:1;fill-rule:evenodd;stroke:none"
       id="path3184" />
    <path
       inkscape:connector-curvature="0"
       d="m 20.547395,32.966028 c 0.32999,0.18014 1.87828,1.38727 2.22584,1.67818 0.12485,0.10446 0.63597,0.55323 0.74281,0.57925 0.35203,-0.14208 2.78593,-1.97456 3.05311,-2.2958 -0.12078,-0.2163 -2.62944,-2.06569 -3.07799,-2.26016 -0.11457,0.0137 -0.60356,0.45917 -0.73921,0.5722 -0.54974,0.45785 -1.25812,1.00142 -1.84646,1.42818 -0.1287,0.0934 -0.28617,0.16102 -0.3581,0.29815"
       style="fill:#1c1e21;fill-opacity:1;fill-rule:evenodd;stroke:none"
       id="path3186" />
    <path
       inkscape:connector-curvature="0"
       d="m 36.798775,30.571058 0,0.0357 1.43563,1.16712 c 0.23726,0.19178 0.48119,0.37504 0.73576,0.5597 0.15306,0.11099 0.67081,0.45998 0.76454,0.57433 l 0.055,-0.01 c 0.16469,-0.20189 2.12197,-1.41605 2.48878,-1.63113 1.80444,-1.05818 3.65618,-1.9347 5.67317,-2.63852 0.52305,-0.18253 1.03725,-0.35494 1.57034,-0.51721 0.31352,-0.0955 1.40106,-0.3545 1.6082,-0.46701 -0.059,-0.6112 -0.48207,-1.6203 -0.66474,-2.20363 -0.82158,0.0336 -3.06848,0.54062 -3.92586,0.76754 -2.32891,0.61646 -4.69045,1.50927 -6.77047,2.62025 -0.82945,0.44301 -1.45883,0.80666 -2.24339,1.283 -0.23568,0.14309 -0.49642,0.34454 -0.72694,0.45955"
       style="fill:#b71d5b;fill-opacity:1;fill-rule:evenodd;stroke:none"
       id="path3188" />
    <path
       inkscape:connector-curvature="0"
       d="m 24.827595,53.916828 0.0747,0 c 0.10634,-0.51222 0.30493,-1.09864 0.4637,-1.59825 0.89028,-2.80104 2.33423,-6.13065 3.96419,-8.52383 0.27823,-0.40849 0.54904,-0.87983 0.83857,-1.2344 l -0.001,-0.0499 c -9.6e-4,-9.6e-4 -1.38143,-1.8276 -1.67855,-2.17525 l -0.59249,-0.72081 -0.0379,0.0103 c -0.45569,0.63192 -1.32704,2.26136 -1.70072,3.0123 -1.35342,2.71993 -2.32419,5.69603 -3.05738,8.67578 -0.13511,0.54914 -0.37534,1.36915 -0.43756,1.93073 0.29631,0.0586 0.76917,0.25493 1.094,0.35545 0.2048,0.0634 0.94008,0.24472 1.07066,0.3179"
       style="fill:#b71d5b;fill-opacity:1;fill-rule:evenodd;stroke:none"
       id="path3190" />
    <path
       inkscape:connector-curvature="0"
       d="m 30.171405,36.443138 0,0.0494 c 0.16914,0.14022 1.05946,1.29079 1.19336,1.46931 0.19495,0.25989 0.37519,0.5111 0.55918,0.77258 0.17081,0.24262 0.41482,0.55114 0.55181,0.81912 l 0.0358,0 c 0.10722,-0.15973 0.80457,-0.91817 1.00212,-1.14734 0.0879,-0.10203 0.1768,-0.17066 0.26765,-0.27129 0.26761,-0.29628 0.75035,-0.80834 1.06211,-1.09735 0.30165,-0.27959 0.81271,-0.80607 1.10763,-1.05154 0.20951,-0.17442 0.65626,-0.6265 0.863,-0.75822 l 0,-0.0351 c -0.23343,-0.0925 -1.33305,-0.87755 -1.60592,-1.07563 l -1.51823,-1.18803 c -0.22057,0.11597 -1.67374,1.5239 -1.83557,1.69432 -0.14749,0.15533 -0.30205,0.28857 -0.45098,0.44808 l -1.23199,1.37165 z"
       style="fill:#b71d5b;fill-opacity:1;fill-rule:evenodd;stroke:none"
       id="path3192" />
    <path
       inkscape:connector-curvature="0"
       d="m 27.787205,26.276548 0.0434,0 1.73105,-2.1883 c 0.16691,-0.22486 0.39272,-0.5848 0.5654,-0.75806 l -0.003,-0.0506 c -0.14386,-0.11588 -0.69198,-0.97275 -0.85025,-1.22029 -0.27441,-0.42919 -0.53977,-0.84929 -0.79845,-1.28881 -1.5003,-2.54883 -2.90602,-5.94769 -3.57492,-8.85362 l -0.0834,0 -2.16552,0.69231 c 0.0232,0.75928 0.55074,3.09188 0.76622,3.9017 0.83835,3.15058 2.17941,6.30869 3.91821,9.03402 0.12229,0.19168 0.37556,0.54522 0.45102,0.73167"
       style="fill:#98d0be;fill-opacity:1;fill-rule:evenodd;stroke:none"
       id="path3194" />
    <path
       inkscape:connector-curvature="0"
       d="m 36.814095,35.192748 0,0.0351 c 0.10971,0.0409 1.23448,0.73079 1.48654,0.87068 0.50395,0.2797 0.99448,0.54676 1.52985,0.80915 2.74,1.34284 5.69254,2.31996 8.67669,3.05175 0.4397,0.10784 1.56476,0.43025 1.95061,0.43389 0.15192,-0.55804 0.63645,-1.68039 0.67702,-2.23995 -0.15602,-0.0769 -0.58314,-0.17311 -0.7745,-0.22736 -1.94267,-0.55059 -3.49107,-1.14527 -5.33792,-1.96615 -0.9489,-0.42177 -1.86173,-0.92309 -2.71963,-1.4176 -0.38291,-0.22075 -2.40012,-1.45828 -2.51307,-1.64401 l -0.055,0.01 c -0.0647,0.076 -0.62102,0.46549 -0.75446,0.56613 l -2.16615,1.71873 z"
       style="fill:#98d0be;fill-opacity:1;fill-rule:evenodd;stroke:none"
       id="path3196" />
    <path
       inkscape:connector-curvature="0"
       d="m 30.169755,29.345498 c -0.0679,0.0339 -0.017,-10e-4 -0.045,0.058 0.10696,0.0542 0.53574,0.56377 0.63006,0.67528 0.35332,0.41794 1.10966,1.18409 1.52635,1.5684 0.22427,0.20686 1.22746,1.15704 1.40877,1.25555 0.17282,-0.0972 2.58591,-2.14773 3.10883,-2.296 l 0,-0.0357 c -0.0991,-0.051 -0.0772,-0.0448 -0.16323,-0.11413 -0.0652,-0.0525 -0.0961,-0.0771 -0.15405,-0.13274 l -0.84969,-0.76888 c -0.8361,-0.72305 -1.92029,-1.86549 -2.68075,-2.71757 -0.17796,-0.19943 -0.37246,-0.44951 -0.51863,-0.565 -0.1538,0.16305 -0.39042,0.58995 -0.53582,0.79894 -0.46274,0.66515 -1.19092,1.6515 -1.72685,2.27383"
       style="fill:#98d0be;fill-opacity:1;fill-rule:evenodd;stroke:none"
       id="path3198" />
    <path
       inkscape:connector-curvature="0"
       d="m 9.1561451,38.143408 0,0.0934 c 0.0713,0.12687 0.25321,0.87395 0.31591,1.07573 0.10464,0.33679 0.29503,0.77483 0.36347,1.08533 0.8372699,-0.0387 3.0527799,-0.54088 3.9229099,-0.76817 3.36345,-0.87854 6.10404,-2.14419 9.01167,-3.9089 0.16756,-0.10171 0.59845,-0.41316 0.74594,-0.44631 l 0,-0.0511 c -0.10684,-0.026 -0.61796,-0.47479 -0.74281,-0.57925 -0.34756,-0.29091 -1.89585,-1.49804 -2.22584,-1.67818 l -0.0608,-0.0565 c -0.0186,0.0841 0.007,0.0226 -0.0474,0.084 -0.17102,0.19204 -2.27265,1.48566 -2.44404,1.58581 -1.82156,1.06445 -3.64431,1.90478 -5.66497,2.60853 -0.76036,0.26478 -2.4255999,0.80878 -3.1739999,0.95554"
       style="fill:#804d5c;fill-opacity:1;fill-rule:evenodd;stroke:none"
       id="path3200" />
    <path
       inkscape:connector-curvature="0"
       d="m 30.124325,23.279568 0.003,0.0506 c 0.17139,0.18928 1.24138,1.66645 1.6898,2.19499 0.21288,0.25093 0.39121,0.49031 0.61553,0.71697 0.29536,-0.40047 0.63383,-0.9995 0.88505,-1.456 0.90516,-1.64451 1.56443,-3.03675 2.23774,-4.85155 0.43771,-1.17986 0.7903,-2.33485 1.15325,-3.55948 0.20014,-0.6754 0.86415,-3.18528 0.92996,-3.76478 -0.33765,-0.13424 -0.69495,-0.24465 -1.04335,-0.35568 -0.26625,-0.0849 -0.92808,-0.23045 -1.11095,-0.33781 l -0.11195,0 c -0.50762,2.12534 -1.35584,4.26417 -2.18169,6.12032 -0.72205,1.62287 -1.66382,3.20289 -2.64597,4.65896 -0.0948,0.14055 -0.29544,0.47976 -0.42019,0.58344"
       style="fill:#804d5c;fill-opacity:1;fill-rule:evenodd;stroke:none"
       id="path3202" />
    <path
       inkscape:connector-curvature="0"
       d="m 23.491085,30.615968 8e-5,0.0515 c 0.44855,0.19447 2.95721,2.04386 3.07799,2.26016 l 0.0511,0.006 c 0.0406,-0.0566 1.51713,-1.3808 1.81002,-1.69942 0.27857,-0.30297 0.58496,-0.58147 0.85944,-0.9041 0.0757,-0.089 0.12122,-0.12661 0.21086,-0.22017 0.15779,-0.16458 0.45598,-0.55994 0.62417,-0.70619 0.0279,-0.0594 -0.0229,-0.0242 0.045,-0.058 -0.14213,-0.0358 -0.20825,-0.17175 -0.35049,-0.34645 -0.44877,-0.55121 -1.83256,-2.2925 -1.98862,-2.7225 l -0.0434,0 c -0.0478,0.11924 -1.3786,1.57234 -1.52316,1.71082 -0.24376,0.23355 -0.36656,0.36215 -0.54191,0.53748 l -2.23106,2.09112 z"
       style="fill:#804d5c;fill-opacity:1;fill-rule:evenodd;stroke:none"
       id="path3204" />
    <path
       inkscape:connector-curvature="0"
       d="m 30.167475,42.510428 0.001,0.0499 c 0.20526,0.14738 1.40769,2.09839 1.6362,2.48336 0.51343,0.86499 1.00779,1.7721 1.44174,2.73271 0.86091,1.90571 1.63507,3.95522 2.1783,6.14041 l 0.0589,0 c 0.17207,-0.10042 0.8308,-0.24178 1.08719,-0.32162 0.35859,-0.11165 0.73095,-0.26296 1.07465,-0.36203 -0.11501,-1.22812 -0.46536,-2.74021 -0.76873,-3.90456 -1.47975,-5.6792 -4.2956,-9.53779 -4.36537,-9.77507 l -0.0358,0 c -0.0522,0.1118 -0.48245,0.60917 -0.59708,0.74365 -0.19819,0.23247 -0.37383,0.47161 -0.57507,0.72091 -0.19428,0.24075 -0.38045,0.49225 -0.57473,0.75707 l -0.48483,0.66605 c -0.005,0.005 -0.0131,0.0141 -0.0176,0.0187 l -0.0387,0.0343 c -0.003,-0.006 -0.0131,0.0115 -0.0203,0.0163"
       style="fill:#1d5571;fill-opacity:1;fill-rule:evenodd;stroke:none"
       id="path3206" />
    <path
       inkscape:connector-curvature="0"
       d="m 9.1561451,27.574768 0,0.10354 c 0.44749,0.0763 1.1529199,0.31888 1.5924799,0.46072 0.52368,0.169 1.05394,0.33958 1.55894,0.52626 1.00896,0.37299 2.00131,0.76372 2.93466,1.20393 1.51106,0.71271 2.62826,1.33703 3.98891,2.20054 l 1.25543,0.83981 0.0608,0.0565 c 0.0719,-0.13713 0.2294,-0.20479 0.3581,-0.29815 0.58834,-0.42676 1.29672,-0.97033 1.84646,-1.42818 0.13565,-0.11303 0.62464,-0.55846 0.73921,-0.5722 l -8e-5,-0.0515 c -0.12074,-0.0181 -1.23787,-0.72003 -1.485,-0.85466 -1.69259,-0.92221 -2.92284,-1.52576 -4.81951,-2.23293 -1.15785,-0.43167 -2.33138,-0.81499 -3.55719,-1.15655 -0.70646,-0.19691 -3.20611,-0.88208 -3.7896699,-0.93056 -0.0745,0.30355 -0.25387,0.72628 -0.3584,1.05325 -0.072,0.22538 -0.24437,0.94106 -0.32517,1.08025"
       style="fill:#1d5571;fill-opacity:1;fill-rule:evenodd;stroke:none"
       id="path3208" />
    <path
       inkscape:connector-curvature="0"
       d="m 23.516045,35.223458 0,0.0511 c 0.66405,0.4889 2.80317,2.59939 3.32339,3.18442 l 0.7733,0.84558 c 0.087,0.089 0.18918,0.20072 0.24585,0.32014 l 0.0379,-0.0103 c 0.0363,-0.30748 1.65392,-2.41536 2.08748,-2.93916 0.0774,-0.0935 0.11005,-0.13489 0.18748,-0.18267 l 0,-0.0494 -1.29592,-1.38888 c -0.14508,-0.15578 -0.27824,-0.28077 -0.43044,-0.43331 l -1.82477,-1.68756 -0.0511,-0.006 c -0.26719,0.32124 -2.70108,2.15372 -3.05312,2.2958"
       style="fill:#1d5571;fill-opacity:1;fill-rule:evenodd;stroke:none"
       id="path3210" />
    <path
       inkscape:connector-curvature="0"
       d="m 27.830645,26.276548 c 0.15606,0.43 1.53985,2.17129 1.98862,2.7225 0.14224,0.1747 0.20836,0.31066 0.35049,0.34645 0.53593,-0.62233 1.26411,-1.60867 1.72685,-2.27383 0.1454,-0.20899 0.38202,-0.63589 0.53582,-0.79894 l 0,-0.0306 c -0.22432,-0.22666 -0.40266,-0.46604 -0.61554,-0.71697 -0.44841,-0.52854 -1.51841,-2.00571 -1.6898,-2.19499 -0.17267,0.17326 -0.39849,0.5332 -0.56539,0.75806 l -1.73105,2.1883 z"
       style="fill:#253d41;fill-opacity:1;fill-rule:evenodd;stroke:none"
       id="path3212" />
    <path
       inkscape:connector-curvature="0"
       d="m 33.689945,32.902738 0,0.0263 1.51823,1.18804 c 0.27286,0.19807 1.37249,0.98312 1.60592,1.07563 l 2.16615,-1.71873 c 0.13344,-0.10063 0.68973,-0.49009 0.75446,-0.56613 -0.0937,-0.11435 -0.61148,-0.46334 -0.76454,-0.57433 -0.25457,-0.18467 -0.4985,-0.36792 -0.73576,-0.5597 l -1.43563,-1.16712 c -0.52292,0.14827 -2.93601,2.19881 -3.10883,2.296"
       style="fill:#392348;fill-opacity:1;fill-rule:evenodd;stroke:none"
       id="path3214" />
  </g>
</svg>
