<?xml version="1.0" encoding="UTF-8"?>
<svg width="52.509" height="52.52" version="1.0" viewBox="0 0 52.509 52.52" xmlns="http://www.w3.org/2000/svg" xmlns:xlink="http://www.w3.org/1999/xlink">
 <defs>
  <linearGradient id="linearGradient13956" x1="46.592" x2="43.592" y1="89.585" y2="-74.733" gradientUnits="userSpaceOnUse">
   <stop stop-color="#e6e6e6" offset="0"/>
   <stop stop-color="#fff" offset="1"/>
  </linearGradient>
  <linearGradient id="linearGradient13966" x1="26.48" x2="26.48" y1="1.3939" y2="52.843" gradientUnits="userSpaceOnUse">
   <stop stop-color="#fff" offset="0"/>
   <stop stop-color="#fff" stop-opacity="0" offset="1"/>
  </linearGradient>
 </defs>
 <g transform="translate(-3.8191 -6.1557)">
  <g transform="translate(-840.83 182.27)" fill="#71c000" stroke="#71c000" stroke-linejoin="bevel" stroke-width="3.379"></g>
  <g transform="translate(-1426.6 -26.29)" fill="#71c000" stroke="#71c000" stroke-linejoin="bevel" stroke-width="3.379"></g>
  <rect x="4.9083" y="7.2196" width="50.731" height="50.549" ry="7.0914" color="black" fill="url(#linearGradient13956)" fill-rule="evenodd" stroke="#2b2b2b" stroke-width=".997"/>
  <g transform="matrix(-.0039739 .6296 -.6296 -.0039739 295.58 -273.62)" fill="#fff"></g>
  <path transform="translate(3.8191 6.1557)" d="m2.1818 45.429-0.18182-37.636s1.0909-5.6364 5.4545-5.8182c4.3636-0.18182 37.455 0 37.455 0s5.8182 0 6 7.2727c0.18182 7.2727-0.18182 36.727-0.18182 36.727" color="black" fill="none" stroke="url(#linearGradient13966)"/>
  <g>
   <path d="m50.313 38.233c-5.4031 1.1145-5.7746-0.71484-5.7746-0.71484 5.7048-8.4651 8.0896-19.21 6.0316-21.84-5.6145-7.1736-9.879-3.6901-12.223-3.2383l-1.8704 0.91839c-0.97657-0.76705-1.8076-1.8082-5.0593-1.7392-2.4448-0.04007-4.9357 2.0046-6.3429 3.0717 0 0-16.701-8.5061-15.895 7.6194 0.17154 3.4306 3.5533 26.503 9.2135 19.699 2.3415-2.5789 5.4313-5.1372 5.4313-5.1372 0.99282 0.65952 2.1814 0.99594 3.4274 0.8751l0.09678-0.08217c-0.03007 0.30892-0.01633 0.61108 0.03878 0.96876-1.4581 1.6291-1.3024 3.1879-4.2173 3.7879-2.9495 0.60786-1.2168 1.69-0.0855 1.9729 1.3715 0.34297 4.8171-0.44393 6.9609-3.4451l-0.0855 0.34243c0.57133 0.45758 0.97252 2.9765 0.90528 5.2599-0.06724 2.2835-0.11214 3.8512 0.33803 5.0757 0.45017 1.2245 0.89884 3.9797 4.7307 3.1586 3.2019-0.68616 4.8611-2.4643 5.0919-5.4303 0.1638-2.1086 0.53449-1.7969 0.55791-3.6821l0.29732-0.8925c0.34286-2.8584 0.05445-3.7805 2.0271-3.3516l0.47939 0.04211c1.4519 0.06606 3.3522-0.23352 4.4674-0.7519 2.4016-1.1145 3.8259-2.9754 1.4579-2.4864z" fill="#336791"/>
   <path d="m30.277 39.871c-0.14877 5.3187 0.03739 10.674 0.5578 11.976 0.52074 1.3016 1.6352 3.8334 5.4674 3.0124 3.2016-0.68637 4.3665-2.0147 4.872-4.9465 0.37229-2.1571 1.09-8.1478 1.1821-9.3752" fill="#336791" stroke="#336791" stroke-linecap="round" stroke-linejoin="round" stroke-width="1.3389"/>
   <path d="m25.17 24.136c-0.0973 0.68898 1.2614 2.5275 3.033 2.7732 1.7686 0.2467 3.2824-1.1901 3.3783-1.8784 0.09597-0.68898-1.2611-1.4479-3.0334-1.6946-1.7696-0.24701-3.2841 0.11251-3.3777 0.79982z" fill="#ededed"/>
  </g>
  <path d="m7.0904 15.569" fill="none" stroke="#fff" stroke-linecap="round" stroke-linejoin="round" stroke-width=".32224"/>
  <path d="m41.628 24.003c0.09418 0.66699-1.2211 2.4468-2.9362 2.6846-1.7121 0.23882-3.1776-1.1521-3.2705-1.8184-0.09291-0.66699 1.2208-1.4017 2.9365-1.6405 1.7131-0.23912 3.1792 0.10892 3.2699 0.77428z" fill="#ececec"/>
 </g>
</svg>
