<?xml version="1.0" encoding="UTF-8"?>
<svg width="52.509" height="52.52" version="1.0" viewBox="0 0 52.509 52.52" xmlns="http://www.w3.org/2000/svg" xmlns:xlink="http://www.w3.org/1999/xlink">
 <defs>
  <linearGradient id="linearGradient13956" x1="46.592" x2="43.592" y1="89.585" y2="-74.733" gradientUnits="userSpaceOnUse">
   <stop stop-color="#e6e6e6" offset="0"/>
   <stop stop-color="#fff" offset="1"/>
  </linearGradient>
  <linearGradient id="linearGradient13966" x1="26.48" x2="26.48" y1="1.3939" y2="52.843" gradientUnits="userSpaceOnUse">
   <stop stop-color="#fff" offset="0"/>
   <stop stop-color="#fff" stop-opacity="0" offset="1"/>
  </linearGradient>
 </defs>
 <g transform="translate(-3.8191 -6.1557)">
  <g transform="translate(-840.83 182.27)" fill="#71c000" stroke="#71c000" stroke-linejoin="bevel" stroke-width="3.379"></g>
  <g transform="translate(-1426.6 -26.29)" fill="#71c000" stroke="#71c000" stroke-linejoin="bevel" stroke-width="3.379"></g>
  <rect x="4.9083" y="7.2196" width="50.731" height="50.549" ry="7.0914" color="black" fill="url(#linearGradient13956)" fill-rule="evenodd" stroke="#2b2b2b" stroke-width=".997"/>
  <g transform="matrix(-.0039739 .6296 -.6296 -.0039739 295.58 -273.62)" fill="#fff"></g>
  <path transform="translate(3.8191 6.1557)" d="m2.1818 45.429-0.18182-37.636s1.0909-5.6364 5.4545-5.8182c4.3636-0.18182 37.455 0 37.455 0s5.8182 0 6 7.2727c0.18182 7.2727-0.18182 36.727-0.18182 36.727" color="black" fill="none" stroke="url(#linearGradient13966)"/>
  <g fill="#464342">
   <path d="m9.4528 32.794c0 8.3122 4.8306 15.496 11.835 18.9l-10.017-27.446c-1.1652 2.6117-1.8181 5.5019-1.8181 8.5463z"/>
   <path d="m44.629 31.734c0-2.5953-0.93223-4.3926-1.7318-5.7916-1.0645-1.7298-2.0623-3.1947-2.0623-4.9245 0-1.9304 1.4641-3.7273 3.5263-3.7273 0.0931 0 0.18141 0.01159 0.27212 0.01678-3.7361-3.4228-8.7138-5.5127-14.181-5.5127-7.3364 0-13.791 3.7641-17.546 9.4654 0.49269 0.01479 0.95701 0.02517 1.3514 0.02517 2.1965 0 5.5966-0.26652 5.5966-0.26652 1.132-0.06673 1.2655 1.5959 0.13466 1.7298 0 0-1.1376 0.13386-2.4035 0.20019l7.6473 22.746 4.5956-13.783-3.2718-8.9643c-1.1308-0.06633-2.2021-0.20019-2.2021-0.20019-1.1316-0.06633-0.99896-1.7965 0.13266-1.7298 0 0 3.468 0.26652 5.5315 0.26652 2.1961 0 5.5966-0.26652 5.5966-0.26652 1.1328-0.06673 1.2659 1.5959 0.13466 1.7298 0 0-1.14 0.13386-2.4035 0.20019l7.5889 22.574 2.0946-6.9995c0.90786-2.9046 1.5987-4.9908 1.5987-6.7886z"/>
   <path d="m30.821 34.63-6.3007 18.309c1.8812 0.55302 3.8708 0.85551 5.9322 0.85551 2.4455 0 4.7906-0.42276 6.9736-1.1904-0.05634-0.0899-0.10749-0.18541-0.14944-0.2893l-6.4557-17.684z"/>
   <path d="m48.879 22.718c0.09031 0.66891 0.14145 1.387 0.14145 2.1594 0 2.131-0.39799 4.5265-1.5967 7.5218l-6.4145 18.546c6.2431-3.6406 10.442-10.404 10.442-18.152 4e-4 -3.651-0.93223-7.0842-2.5725-10.076z"/>
  </g>
 </g>
</svg>
