<?xml version="1.0" encoding="UTF-8"?>
<svg width="256" height="256" version="1.1" viewBox="0 0 67.733 67.733" xmlns="http://www.w3.org/2000/svg">
 <g transform="translate(0 -229.27)">
  <g transform="matrix(1.518 0 0 1.518 -91.755 156.07)">
   <path transform="matrix(.1743 0 0 .1743 60.446 48.222)" d="m223.13 129.61c-13.784-0.06276-20.76 2.667-25.943 9.6621-3.3112 4.4689-3.3289 13.385-0.03516 17.797 4.2367 5.6746 7.8919 7.4538 20.33 9.8984 12.578 2.4721 17.42 4.5248 17.42 7.3848 0 2.657-4.8067 5.2773-9.6836 5.2773-3.5423 0-5.2337-0.77403-7.875-3.6016l-3.3633-3.6016-11.068 0.83008c-6.0877 0.45641-11.068 1.3183-11.068 1.9141 0 5.1547 9.5817 14.482 15.977 15.553 2.414 0.40403 4.9126 0.91181 5.5527 1.1289 2.7206 0.92271 18.387 0.47991 23.758-0.67188 15.401-3.303 23.317-17.221 16.275-28.615-3.3652-5.445-9.4022-8.1949-22.695-10.334-6.2275-1.0021-12.315-2.3531-13.527-3.002-2.989-1.5997-2.1504-4.7442 1.7656-6.6211 4.067-1.9493 10.834-0.02222 11.918 3.3926 0.45783 1.4425 1.4596 2.1026 2.6758 1.7656 1.0685-0.29606 6.0003-0.88714 10.961-1.3125 5.33-0.45705 9.0195-1.2982 9.0195-2.0566 0-2.6922-5.3873-8.9758-9.8438-11.48-3.4381-1.9323-7.1371-2.742-14.211-3.1133-2.2616-0.1187-4.3688-0.18439-6.3379-0.19336zm-63.664 0.04883c-5.7301-0.02012-11.568 0.32259-14.666 1.041-12.845 2.9792-19.632 16.191-13.184 25.666 4.2622 6.2625 7.7866 8.0461 21.488 10.875 16.475 3.4015 19.107 5.2523 14.299 10.061-1.5704 1.5704-3.8793 2.3281-7.0977 2.3281-3.8318 0-5.4327-0.709-8.1348-3.6016l-3.3633-3.6016-11.068 0.83008c-6.0877 0.45641-11.068 1.3514-11.068 1.9883 0 2.6464 5.0447 9.8444 8.6152 12.291 2.1107 1.4463 6.1432 3.0819 8.959 3.6348 7.4009 1.4532 20.959 1.4582 27.713 0.00976 14.912-3.198 22.471-15.518 16.824-27.418-2.8262-5.9558-9.6029-9.3357-23.053-11.5-12.344-1.9863-15.783-3.2279-15.783-5.6992 0-5.1513 10.439-6.3849 14.461-1.709 2.4899 2.8947 2.6517 2.9181 12.941 1.8691 5.7312-0.58423 10.59-1.2273 10.797-1.4277 0.20722-0.20046-0.42778-1.9207-1.4121-3.8242-2.4368-4.7123-8.0392-9.2206-13.258-10.67-2.6596-0.73864-8.2797-1.1225-14.01-1.1426zm-124.12 0.50977c-12.136 0-14.616 0.33364-18.652 2.5156-9.437 5.1016-15.177 13.484-16.408 23.959-1.9707 16.768 6.4006 30.116 21.424 34.16 6.6842 1.7996 19.929 1.9844 26.988 0.37695 7.2807-1.6578 13.483-6.0525 17.52-12.418 5.4656-8.6183 5.13-9.0725-7.6367-10.309-9.7304-0.94211-11.137-0.84563-11.658 0.79492-1.2815 4.0375-6.1565 7.207-11.088 7.207-3.8477 0-5.5479-0.73734-8.4844-3.6738-3.3565-3.3565-3.6738-4.3135-3.6738-11.129 0-5.746 0.55998-8.2103 2.4375-10.742 5.5279-7.4544 17.922-6.7985 20.551 1.0879 0.57556 1.7267 21.818-1.4319 21.818-3.2441 0-3.6604-7.802-12.792-13.354-15.629-5.2506-2.6836-7.086-2.957-19.783-2.957z" stroke-width=".95445"/>
   <path d="m75.946 81.727c-0.0731-0.19524-1.2895-3.022-2.3843-5.6438-1.0947-2.6218-1.9905-4.8354-1.9906-4.919-1.24e-4 -0.08367 0.90866-0.15214 2.0195-0.15214h2.0197l0.80813 2.5863c0.44447 1.4225 0.86927 2.8382 0.944 3.146 0.07473 0.30786 0.19888 0.59868 0.27589 0.64628 2.846-7.0332 4.7636-12.494 7.5851-20.172 1.2842-0.04017 2.8364-0.0042 3.9612 0.19053-3.4359 8.6118-6.1945 15.172-10.058 24.36z" fill="#ba0000" stroke-width=".16636"/>
  </g>
 </g>
</svg>
