<?xml version="1.0" encoding="UTF-8" standalone="no"?>
<!-- Created with Inkscape (http://www.inkscape.org/) -->

<svg
   xmlns:dc="http://purl.org/dc/elements/1.1/"
   xmlns:cc="http://creativecommons.org/ns#"
   xmlns:rdf="http://www.w3.org/1999/02/22-rdf-syntax-ns#"
   xmlns:svg="http://www.w3.org/2000/svg"
   xmlns="http://www.w3.org/2000/svg"
   xmlns:sodipodi="http://sodipodi.sourceforge.net/DTD/sodipodi-0.dtd"
   xmlns:inkscape="http://www.inkscape.org/namespaces/inkscape"
   width="256"
   height="256"
   viewBox="0 0 67.733332 67.733335"
   version="1.1"
   id="svg8"
   inkscape:version="0.92.3 (2405546, 2018-03-11)"
   sodipodi:docname="filter.svg"
   inkscape:export-filename="G:\BackUp300714\intevation\green\GUI-Icons_2018\png_16x16\feed.png"
   inkscape:export-xdpi="6"
   inkscape:export-ydpi="6">
  <defs
     id="defs2" />
  <sodipodi:namedview
     id="base"
     pagecolor="#ffffff"
     bordercolor="#666666"
     borderopacity="1.0"
     inkscape:pageopacity="0.0"
     inkscape:pageshadow="2"
     inkscape:zoom="1.82"
     inkscape:cx="132.74947"
     inkscape:cy="121.98112"
     inkscape:document-units="mm"
     inkscape:current-layer="g1117"
     showgrid="true"
     units="px"
     inkscape:window-width="1920"
     inkscape:window-height="976"
     inkscape:window-x="1272"
     inkscape:window-y="-8"
     inkscape:window-maximized="1"
     inkscape:snap-global="true">
    <inkscape:grid
       type="xygrid"
       id="grid4616"
       empspacing="8" />
  </sodipodi:namedview>
  <metadata
     id="metadata5">
    <rdf:RDF>
      <cc:Work
         rdf:about="">
        <dc:format>image/svg+xml</dc:format>
        <dc:type
           rdf:resource="http://purl.org/dc/dcmitype/StillImage" />
        <dc:title></dc:title>
      </cc:Work>
    </rdf:RDF>
  </metadata>
  <g
     inkscape:label="Ebene 1"
     inkscape:groupmode="layer"
     id="layer1"
     transform="translate(0,-229.26665)">
    <g
       id="g1117"
       transform="matrix(2.0877771,0,0,2.2336594,41.672512,-337.40901)">
      <path
         style="opacity:1;fill:#000000;fill-opacity:1;fill-rule:nonzero;stroke:none;stroke-width:18;stroke-linecap:butt;stroke-linejoin:miter;stroke-miterlimit:4;stroke-dasharray:none;stroke-opacity:1;paint-order:normal"
         d="M 0 0 L 0 15.996094 L 0 28.734375 L 96.009766 124.75 L 96.271484 256 L 160 192.55078 L 159.99414 192.54492 L 160 192.54492 L 160 124.73633 L 256 28.742188 L 256 15.986328 L 256 8 L 256 0 L 0 0 z M 16 16 L 240 16 L 240 19.255859 L 144 115.25 L 144 140.73633 L 144 168 L 144 183.06055 L 112 214.91211 L 112 168 L 112 140.74219 L 112 115.25391 L 16 19.248047 L 16 16 z "
         transform="matrix(0.12672968,0,0,0.11845286,-19.96023,253.69833)"
         id="rect843" />
    </g>
    <g
       id="layer1-5"
       inkscape:label="Layer"
       style="opacity:0.52173911"
       transform="matrix(0.76331491,0,0,0.76331491,18.102097,283.062)" />
  </g>
</svg>
