<svg xmlns="http://www.w3.org/2000/svg" xmlns:xlink="http://www.w3.org/1999/xlink" viewBox="0 0 993.26 993.26"><defs><style>.cls-1{fill:#707070;}.cls-2{fill:url(#Label_Lila);}.cls-13,.cls-15,.cls-3,.cls-5{fill:#fff;}.cls-11,.cls-4,.cls-6,.cls-8,.cls-9{fill:none;}.cls-4,.cls-6{stroke:#fff;stroke-width:1.09px;}.cls-11,.cls-4,.cls-8,.cls-9{stroke-linejoin:bevel;}.cls-5{fill-rule:evenodd;}.cls-7{fill:#66c430;}.cls-8{stroke:#73be44;}.cls-11,.cls-8{stroke-width:1.51px;}.cls-11,.cls-9{stroke:#78be43;}.cls-9{stroke-width:3px;}.cls-10{fill:#78be43;}.cls-12{fill:#87d050;}.cls-13{font-size:128.17px;font-family:Greenbone-Bold, Greenbone;font-weight:700;}.cls-14{letter-spacing:-0.01em;}.cls-15{font-size:73.24px;font-family:Greenbone-SemiBold, Greenbone;font-weight:600;}.cls-16{letter-spacing:-0.02em;}.cls-17{letter-spacing:-0.02em;}</style><linearGradient id="Label_Lila" x1="-25.16" y1="496.63" x2="968.1" y2="496.63" gradientTransform="matrix(-1, 0, 0, 1, 968.1, 0)" gradientUnits="userSpaceOnUse"><stop offset="0" stop-color="#639"/><stop offset="0.75" stop-color="#7153a0"/></linearGradient></defs><g id="Layer_2" data-name="Layer 2"><g id="Layer_1-2" data-name="Layer 1"><path class="cls-1" d="M847.59,792.12,440.83,956.89A170.23,170.23,0,0,1,219.14,863L54.37,456.26a170.24,170.24,0,0,1,93.87-221.69L555,69.81a170.23,170.23,0,0,1,221.69,93.86L941.46,570.44A170.22,170.22,0,0,1,847.59,792.12Z"/><path class="cls-2" d="M621,941.73,941.73,621a175.92,175.92,0,0,0,0-248.8L621,51.53a175.92,175.92,0,0,0-248.8,0L51.53,372.23a175.92,175.92,0,0,0,0,248.8l320.7,320.7A175.92,175.92,0,0,0,621,941.73Z"/><path class="cls-3" d="M491.82,211.23c-.7-1.11,1.28-30.66,2.23-33.46.3-.87,2.37,1.74,5,6.3,2.48,4.28,5.29,8.89,6.25,10.25,2.51,3.5.77,7.57-5.33,12.56C493.59,212.09,492.66,212.58,491.82,211.23Z"/><path class="cls-4" d="M491.82,211.23c-.7-1.11,1.28-30.66,2.23-33.46.3-.87,2.37,1.74,5,6.3,2.48,4.28,5.29,8.89,6.25,10.25,2.51,3.5.77,7.57-5.33,12.56C493.59,212.09,492.66,212.58,491.82,211.23Z"/><path class="cls-3" d="M461.61,429.47,458,427.28l6.65-3.37c13.38-6.76,76.34-53.17,80.74-59.5,2.23-3.2,2.44-4.49,2-12.11-.55-10.85-4.71-20-10.16-22.37-2.29-1-3.29-2.05-2.91-3,.32-.83,1.13-3.6,1.77-6.16,1.08-4.19,1-5-1.11-7.75-5.68-7.58-7.3-10.57-8-14.61-1-5.94.89-11.93,4.66-15.06,3.47-2.87,17.24-8.44,25.61-10.36,4.93-1.11,5.49-1,7.66,1.11s2.32,3.31,2.12,9.69c-.25,8.47-.9,7.61,12.6,16.58,7.68,5.1,9.33,6.73,12,12,8.72,17.2-.35,39.37-25.69,62.76-7.78,7.17-34.06,27.06-53.05,40.15-9.63,6.65-23.92,13.64-31.24,15.3C473.71,432.35,465.69,431.92,461.61,429.47Z"/><path class="cls-4" d="M461.61,429.47,458,427.28l6.65-3.37c13.38-6.76,76.34-53.17,80.74-59.5,2.23-3.2,2.44-4.49,2-12.11-.55-10.85-4.71-20-10.16-22.37-2.29-1-3.29-2.05-2.91-3,.32-.83,1.13-3.6,1.77-6.16,1.08-4.19,1-5-1.11-7.75-5.68-7.58-7.3-10.57-8-14.61-1-5.94.89-11.93,4.66-15.06,3.47-2.87,17.24-8.44,25.61-10.36,4.93-1.11,5.49-1,7.66,1.11s2.32,3.31,2.12,9.69c-.25,8.47-.9,7.61,12.6,16.58,7.68,5.1,9.33,6.73,12,12,8.72,17.2-.35,39.37-25.69,62.76-7.78,7.17-34.06,27.06-53.05,40.15-9.63,6.65-23.92,13.64-31.24,15.3C473.71,432.35,465.69,431.92,461.61,429.47Z"/><path class="cls-3" d="M591,300.16c-6.14-2.67-7-5-4.91-13.28,1.81-7.1,3.32-7.57,12-3.66,9.18,4.14,10.26,9,3.56,15.94C597.8,303.09,597.72,303.09,591,300.16Z"/><path class="cls-4" d="M591,300.16c-6.14-2.67-7-5-4.91-13.28,1.81-7.1,3.32-7.57,12-3.66,9.18,4.14,10.26,9,3.56,15.94C597.8,303.09,597.72,303.09,591,300.16Z"/><path class="cls-3" d="M602.57,335c-1.36-1.93-1.37-2.75-.06-6.43a30.15,30.15,0,0,0,1.51-8.33c0-4.28,2.19-10.64,4.07-11.78.6-.37,3.28.78,6,2.56,3.92,2.63,4.87,3.84,4.87,6.33,0,3.66-4.56,15.18-7.08,17.94S604.53,337.75,602.57,335Z"/><path class="cls-4" d="M602.57,335c-1.36-1.93-1.37-2.75-.06-6.43a30.15,30.15,0,0,0,1.51-8.33c0-4.28,2.19-10.64,4.07-11.78.6-.37,3.28.78,6,2.56,3.92,2.63,4.87,3.84,4.87,6.33,0,3.66-4.56,15.18-7.08,17.94S604.53,337.75,602.57,335Z"/><path class="cls-5" d="M518.19,166.69c.77-3.05,0,6.3,0,9.45a23.23,23.23,0,0,1-2.14,8.92A38.41,38.41,0,0,0,513.4,194c-.55,2.69-1.6,5-1.6,7.87v7.87a33.06,33.06,0,0,1-1.06,7.35,33.13,33.13,0,0,0-.52,7.87c0,2.62,5.31,0,8,0,4,0,4-2.71,4.78-5.78.61-2.37.09-6.12.53-7.87.59-2.29,0-5.49,0-7.87v-7.87c0-2.4,1.07-5,1.07-7.87,0-1.77.52-4.81.52-7.34v-8.93c0-3.21-.1-5.46-1.06-7.34-.69-1.36-2.71-1.58-4.25-1.58Z"/><path class="cls-6" d="M518.19,166.69c.77-3.05,0,6.3,0,9.45a23.23,23.23,0,0,1-2.14,8.92A38.41,38.41,0,0,0,513.4,194c-.55,2.69-1.6,5-1.6,7.87v7.87a33.06,33.06,0,0,1-1.06,7.35,33.13,33.13,0,0,0-.52,7.87c0,2.62,5.31,0,8,0,4,0,4-2.71,4.78-5.78.61-2.37.09-6.12.53-7.87.59-2.29,0-5.49,0-7.87v-7.87c0-2.4,1.07-5,1.07-7.87,0-1.77.52-4.81.52-7.34v-8.93c0-3.21-.1-5.46-1.06-7.34-.69-1.36-2.71-1.58-4.25-1.58Z"/><path class="cls-5" d="M565.05,222.49a31.26,31.26,0,0,0,.38,7.06c.41,1.65.41,3.41,1.12,4.82s.68,3.83,1.12,5.57a33.2,33.2,0,0,0,2.26,5.19c1,2,.84,3.7,2.26,5.57,1,1.28,1.53,4.86,2.26,6.3a27,27,0,0,1,1.87,5.57c.49,1.92,1.71,3.41,2.26,5.56s2,3.34,2.64,4.82c.82,2.05,1.7,2.7,2.24,4.84.39,1.48,1.48,2.84,1.88,4.44.45,1.78,2.67,3.76,3.76,5.2a25.56,25.56,0,0,1,2.64,4.08,27.85,27.85,0,0,0,4.52,6.31c1.27,1.26,1.64,3.1,3,4.45a15.53,15.53,0,0,1,2.25,3.71,17,17,0,0,0,3.38,4.46,21.42,21.42,0,0,0,4.15,3.34c1.73.85,2.53,1.42,4.13,2.21a15,15,0,0,1,3.38,2.61c.9.88,3.11,1.22,4.13,1.48-15.49,35.49,12-24.48-.37-11.13-1.87.46-3.48-.6-4.51-1.11a12.18,12.18,0,0,1-3-2.61c-1.14-1.12-1.12-2.55-1.51-4.07s0-3.89,0-5.56a10.32,10.32,0,0,0-.75-4.84c-.94-1.86-.38-3-1.87-4.44-1.33-1.31-.72-2-3-2.61-1.57-.37-2.24-1-4.14-1.48-1-.24-2.9-1.81-3.76-2.23a24.32,24.32,0,0,0-4.13-1.85c-1.44-.35-2-2.25-2.26-3.34-.37-1.5-1-2.95-1.49-4.82-.57-2.22-1.52-3.17-1.52-5.2a13.34,13.34,0,0,0-1.5-4.81c-.65-1.3-.91-2.76-1.88-3.72s-1.67-2.93-2.26-4.08c-.73-1.45-1.49-2.53-1.49-4.09,0-.83-1.26-3.11-1.52-4.08a25.64,25.64,0,0,0-1.49-4.82,11.83,11.83,0,0,0-2.26-3.34c-1-.93-1.32-2.41-2.26-3.34s-1.17-2.8-1.5-4.08c-.27-1-2.71-2.83-3.38-3.34-.84-.63-1.6-3.52-1.89-4.08a6.57,6.57,0,0,0-.75-1.11Z"/><path class="cls-6" d="M565.05,222.49a31.26,31.26,0,0,0,.38,7.06c.41,1.65.41,3.41,1.12,4.82s.68,3.83,1.12,5.57a33.2,33.2,0,0,0,2.26,5.19c1,2,.84,3.7,2.26,5.57,1,1.28,1.53,4.86,2.26,6.3a26.84,26.84,0,0,1,1.87,5.57c.49,1.92,1.71,3.41,2.26,5.56s2,3.34,2.64,4.82c.82,2.05,1.7,2.7,2.24,4.84.39,1.48,1.48,2.84,1.88,4.44.45,1.78,2.67,3.76,3.76,5.2a25.56,25.56,0,0,1,2.64,4.08,27.85,27.85,0,0,0,4.52,6.31c1.27,1.26,1.64,3.1,3,4.45a15.53,15.53,0,0,1,2.25,3.71,17,17,0,0,0,3.38,4.46,21.42,21.42,0,0,0,4.15,3.34c1.73.85,2.53,1.42,4.13,2.21a15,15,0,0,1,3.38,2.61c.9.88,3.11,1.22,4.13,1.48-15.49,35.49,12-24.48-.37-11.13-1.87.46-3.48-.6-4.51-1.11a12.18,12.18,0,0,1-3-2.61c-1.14-1.12-1.12-2.55-1.51-4.07s0-3.89,0-5.56a10.32,10.32,0,0,0-.75-4.84c-.94-1.86-.38-3-1.87-4.44-1.33-1.31-.72-2-3-2.61-1.57-.37-2.24-1-4.14-1.48-1-.24-2.9-1.81-3.76-2.23a24.32,24.32,0,0,0-4.13-1.85c-1.44-.35-2-2.25-2.26-3.34-.37-1.5-1-2.95-1.49-4.82-.57-2.22-1.52-3.17-1.52-5.2a13.34,13.34,0,0,0-1.5-4.81c-.65-1.3-.91-2.76-1.88-3.72s-1.67-2.93-2.26-4.08c-.73-1.45-1.49-2.53-1.49-4.09,0-.83-1.26-3.11-1.52-4.08a25.64,25.64,0,0,0-1.49-4.82,11.83,11.83,0,0,0-2.26-3.34c-1-.93-1.32-2.41-2.26-3.34s-1.17-2.8-1.5-4.08c-.27-1-2.71-2.83-3.38-3.34-.84-.63-1.6-3.52-1.89-4.08a6.57,6.57,0,0,0-.75-1.11Z"/><path class="cls-3" d="M370.3,375c-.05-1.16,1.5-3.69,2.24-5.56s1.92-2.65,2.64-4.09a15.22,15.22,0,0,1,3-3.71c1.19-1.17,2.35-4.07,3.77-5.94,1.3-1.72,2.48-3.13,3-5.19.69-2.67,3.25-4.91,4.52-7.43a38.9,38.9,0,0,1,5.64-8.15c3-3,5.13-7.5,7.89-10.77,3.07-3.62,5.24-7.91,7.53-11.86,3.3-5.73,7.74-10.88,10.89-16.33a126.33,126.33,0,0,1,12-16.33c2-2.35,4.66-4.73,6-7.42a17.26,17.26,0,0,1,3.76-4.46,54.41,54.41,0,0,1,5.27-4.45,20.36,20.36,0,0,0,4.13-4.46c1.22-1.61,2.42-2.53,3.38-4.44,1.07-2.11,2.47-2.29,3-4.46a22.14,22.14,0,0,1,2.26-4.44,10.17,10.17,0,0,1,3.38-3.34c2-1,3.75-1.49,5.27-2.61a34.68,34.68,0,0,1,4.87-2.6c2.09-1,3.7-1.41,5.27-3s4.42-2.61,6.39-4.09c2.7-2,5.47-2.7,8.28-4.07a25.31,25.31,0,0,0,6.39-4.46,27.35,27.35,0,0,1,6-3.71A8.25,8.25,0,0,0,510.9,214c.87-1.7,1.09-3.25,1.89-4.82a14.2,14.2,0,0,1,3-3.71c1.48-1.47-.69-3.31-1.51-3.72-1.36-.67-3.57-.33-4.88,0s-2.89,2.35-4.15,3c-1.91.95-2.17,2.53-3.38,3.71s-1.6,2.09-3.38,3c-1.37.67-2.55,2-3.76,2.59a27.27,27.27,0,0,1-4.89,2.22c-1.46.36-2.59,1.65-3.76,2.24a18.94,18.94,0,0,0-4.5,3.34,22,22,0,0,1-3.77,2.22c-1.41.69-2.69,2.28-3.76,3.34a10.58,10.58,0,0,1-4.51,3c-1.64.4-2.75,2-3.75,3-.83.8-3,1.37-4.15,2.23a23.82,23.82,0,0,0-3,2.6c-1.3,1.29-2.5,2-3.38,3.71s-2.39,2.74-3.38,3.72a17.51,17.51,0,0,1-4.51,3,15.25,15.25,0,0,0-4.14,3.33c-1.29,1.27-1.81,2.16-3,3.34a35.5,35.5,0,0,1-4.13,4.09c-1.06.79-1.87,2.59-3,4.08-1.4,1.84-3,2.56-4.5,4.07l-3.77,3.72a42.55,42.55,0,0,0-4.51,5.2c-1,1.32-1.48,2.58-2.64,3.7-.86.87-1.62,2.87-2.26,4.09-.77,1.54-1.82,2.12-2.63,3.71-.93,1.85-2,2.39-3,4.46-.8,1.59-2,2.51-2.62,3.71-1,2-2.75,3.55-3.77,5.55a19.3,19.3,0,0,1-3.76,4.84c-1.43,1.42-1.89,3-3,4.08s-.75,3-1.87,4.07a15.6,15.6,0,0,0-2.64,5.2c-.35,1.4-2.33,3.42-3,4.08a21.65,21.65,0,0,0-2.63,4.46c-.82,1.63-2.09,3-3,4.82-1,2-1.82,3.23-2.63,4.82a31.19,31.19,0,0,1-3.38,5.19,29.2,29.2,0,0,0-3,5.57,21.3,21.3,0,0,0-1.5,5.19,23.54,23.54,0,0,1-1.88,4.09c-.75,1.47-1.74,3.06-2.27,4.09a21.27,21.27,0,0,0-1.49,4.44,24.19,24.19,0,0,0-.37,5.21,18.19,18.19,0,0,0,.75,5.19c.29,1.15,2,2.32,2.63,3s.19.8.37,1.48Z"/><path class="cls-3" d="M495.86,172.4c-3.31-2-2.63.8-2.63,4.08,0,1.69-.38,3.16-.38,5.19,0,1.38-1.12,3.7-1.49,5.2-.46,1.82-1.45,3.87-1.89,5.56-.48,1.92-1.39,3.3-1.87,5.2a20.29,20.29,0,0,0-.39,5.19v5.57a7.63,7.63,0,0,0,1.89,4.09c.73.71,3.92.37,5.27.37,1.91,0,1.12-3.13,1.12-4.84a9.28,9.28,0,0,0-1.12-5.19c-.6-1.17,0-4.22,0-5.56V191.7c0-1.63,1.12-3,1.12-5.21a15.12,15.12,0,0,1,1.51-4.44c.72-1.46.66-4.12,1.12-5.94C498.71,173.82,497.78,173.16,495.86,172.4Z"/><path class="cls-6" d="M495.86,172.4c-3.31-2-2.63.8-2.63,4.08,0,1.69-.38,3.16-.38,5.19,0,1.38-1.12,3.7-1.49,5.2-.46,1.82-1.45,3.87-1.89,5.56-.48,1.92-1.39,3.3-1.87,5.2a20.29,20.29,0,0,0-.39,5.19v5.57a7.63,7.63,0,0,0,1.89,4.09c.73.71,3.92.37,5.27.37,1.91,0,1.12-3.13,1.12-4.84a9.28,9.28,0,0,0-1.12-5.19c-.6-1.17,0-4.22,0-5.56V191.7c0-1.63,1.12-3,1.12-5.21a15.12,15.12,0,0,1,1.51-4.44c.72-1.46.66-4.12,1.12-5.94C498.71,173.82,497.78,173.16,495.86,172.4Z"/><path class="cls-3" d="M601.25,344.21c-1.19,0-8,8.67-15,19.27-19.06,28-71.28,64.26-102.62,71.85-19.84.9-20.83,2.19-26-4.16-7-7.08-17.27-27.82-27.8-20.58-3.22,2.26-9.76,4.73-14.52,5.48-25.34,1-51.47-24.29-48.79-50.15,19.43-56.13,58.38-102.38,105.27-138.09,15.33-10.7,13.31-11.48,13.83-34.27L488.54,169l.29-7.67c4.88-.48,10.52,7.28,13.3,11.49a71.68,71.68,0,0,0,7.7,9.46c4,4,6.31,3.49,6.31-10.9s-.28-11.58,5.18-11.58c22,7.27,25.64,34.27,40,50.14,4.31,1.63,15.39,19.34,17.95,28.7a42.37,42.37,0,0,0,7.32,13.84c2.85,3.36,5.21,7.94,5.21,10.16a41,41,0,0,0,2.3,10.63c2.16,6.09,3,6.53,11.06,6l8.74-.54v13.52C645.33,313.07,611.36,355.07,601.25,344.21Z"/><path class="cls-7" d="M453.25,299.43c2.79-1.68,5.38-2.1,12.83-2.1,11,0,14.89-1.34,19.79-6.85,3.71-4.18,9.68-15.54,9.68-18.41a31.72,31.72,0,0,0-1.68-6.54c-2.11-6.11-7.26-10.7-13-11.6-3.93-.63-4.41-1-5-4.36-.39-2.06-1.33-3.68-2.15-3.68-1.53,0-12,11.9-14,16-6.79,13.53-12.42,28.28-12.82,33.61C446.31,302.4,447.3,303,453.25,299.43ZM395,363.91a23.5,23.5,0,0,1,6.37-2.69c5.93-1.55,6.95-2.65,6.95-7.47,0-3.47-.71-4.89-4.14-8.27-2.27-2.23-5.1-4.07-6.28-4.07-2.63,0-6.09,6.55-7.87,14.9S390.08,367.6,395,363.91Zm9.84,43.57a43.75,43.75,0,0,1-19.52-11.86,64.68,64.68,0,0,1-14.24-22l-2-5.08,6.35-13.79c17.62-38.27,36.33-65.2,64.69-93.12,17.91-17.63,32.57-29.84,56.42-47,14.73-10.6,15.66-10.61,11.73,0-2.89,7.8-2.59,10.87,1,10.87,4.84,0,7.4-8.49,11.12-36.73.91-6.93,1.91-14.19,2.24-16.13l.6-3.54,2.69,2.49a36.58,36.58,0,0,1,5.41,7.2c3,5.21,5.65,8.81,8,13,3.51,6.22,2.31,4.79,8.64,16.8a39.61,39.61,0,0,1,2.72,5.75,35.53,35.53,0,0,1,1.92,12.59c.1,10.47,1.88,22.14,3,22.16s2.24-9.5,2.75-16.42c.76-10.4-.19-13.79,1.09-14.23,3.85-1.29,16.71,27.74,19,33.42,2,4.85,1.84,6,3.76,9,3,4.67,3,5.36.73,7.24-4.69,3.84-5.51,12.07-5.69,14-.35,3.8.39,6-.06,6.07-.71.17-3.57-4.73-4.11-10.67-.5-5.54,1.3-8.82-.92-11.18-.73-.78-1.75-1.11-3.79-1.65a69,69,0,0,0-12.94-1.32c-8-.14-8.94.09-14.7,3.53-15.61,9.32-24.1,18.62-24.1,26.4a17.44,17.44,0,0,0,.31,3.43c.77,3.89,2.31,6.61,6.37,12.64,4.75,7.06,5.22,7.38,5.13,8.7-.26,4.07-5.14,7.06-8.72,9.25-3.8,2.33-5.87,2.66-8.73,3.93-6.43,2.87-10.79,8.56-19.26,19.82-6.91,9.2-6.08,9.72-9.22,12.09-4.92,3.73-8.11,3.31-19.47,7-9.22,3-13.84,4.52-17,6.84-5.51,4.08-8.88,9.51-15.62,20.38-3.86,6.21-4.34,7.84-7,9.55C417.27,410.91,409.26,408.69,404.88,407.48Z"/><path class="cls-8" d="M453.25,299.43c2.79-1.68,5.38-2.1,12.83-2.1,11,0,14.89-1.34,19.79-6.85,3.71-4.18,9.68-15.54,9.68-18.41a31.72,31.72,0,0,0-1.68-6.54c-2.11-6.11-7.26-10.7-13-11.6-3.93-.63-4.41-1-5-4.36-.39-2.06-1.33-3.68-2.15-3.68-1.53,0-12,11.9-14,16-6.79,13.53-12.42,28.28-12.82,33.61C446.31,302.4,447.3,303,453.25,299.43ZM395,363.91a23.5,23.5,0,0,1,6.37-2.69c5.93-1.55,6.95-2.65,6.95-7.47,0-3.47-.71-4.89-4.14-8.27-2.27-2.23-5.1-4.07-6.28-4.07-2.63,0-6.09,6.55-7.87,14.9S390.08,367.6,395,363.91Zm9.84,43.57c-13.6-3.34-27.2-17-33.76-33.88l-2-5.08,6.35-13.79c17.62-38.27,36.33-65.2,64.69-93.12,17.91-17.63,32.57-29.84,56.42-47,14.73-10.6,15.66-10.61,11.73,0-2.89,7.8-2.59,10.87,1,10.87,4.84,0,7.4-8.49,11.12-36.73.91-6.93,1.91-14.19,2.24-16.13l.6-3.54,2.69,2.49a36.58,36.58,0,0,1,5.41,7.2c1.49,2.6,5.1,8.45,8,13,8.69,13.61,10.38,18.87,11.54,35.75,1.07,15.89,2.33,21.55,4.74,21.55s3.52-4.35,4.3-16.82c.39-6.33,1.06-11.53,1.49-11.53,2.48,0,15,22.86,17.1,31.12a38,38,0,0,0,3.76,9c3,4.67,3,5.36.73,7.24-2.73,2.23-5.63,9.39-5.69,14-.09,5.9-1.66,2.68-2.61-5.25-1.22-10.49-1.42-10.88-6.27-12.18a69,69,0,0,0-12.94-1.32c-8-.14-8.94.09-14.7,3.53-15.61,9.32-24.1,18.62-24.1,26.4,0,4.67,1.26,7.69,6.68,16.07,5.78,8.92,5.33,10.41-5,16.82-9.81,6.1-17.72,13.51-26.57,24.88-8.24,10.63-12.58,13.51-28.69,19.11-7.39,2.58-15,5.66-17,6.84-3.57,2.17-8.89,9.13-15.62,20.38-2.43,4.09-5,6.8-7.5,8.09C418.39,407.89,410.18,408.78,404.88,407.48Z"/><path class="cls-7" d="M491.82,211.23c-.7-1.11,1.28-30.66,2.23-33.46.3-.87,2.37,1.73,5,6.3,2.48,4.28,5.29,8.89,6.25,10.25,2.5,3.5.77,7.57-5.33,12.56C493.59,212.08,492.66,212.58,491.82,211.23Z"/><path class="cls-9" d="M491.82,211.23c-.7-1.11,1.28-30.66,2.23-33.46.3-.87,2.37,1.73,5,6.3,2.48,4.28,5.29,8.89,6.25,10.25,2.5,3.5.77,7.57-5.33,12.56C493.59,212.08,492.66,212.58,491.82,211.23Z"/><path class="cls-7" d="M461.61,429.47,458,427.28l6.65-3.37c13.38-6.76,76.34-53.17,80.74-59.5,2.23-3.2,2.44-4.49,2-12.11-.55-10.85-4.71-20-10.16-22.37-2.29-1-3.29-2.05-2.91-3,.32-.83,1.13-3.6,1.77-6.16,1.08-4.19,1-5-1.11-7.75-5.68-7.58-7.3-10.57-8-14.61-1-5.94.89-11.93,4.66-15.06,3.47-2.87,17.24-8.44,25.61-10.35,4.93-1.12,5.49-1.05,7.66,1.1s2.32,3.31,2.12,9.69c-.1,3.41-.27,5.31.45,6.95,1.47,3.31,4.8,5.56,12.15,9.63,5.8,3.21,7.87,3.67,10.19,6.67a21.78,21.78,0,0,1,3.06,5.8,28.2,28.2,0,0,1,1.63,8.67,70.76,70.76,0,0,1-1.21,17.45C590.18,352.61,573.81,368,566,375.08c-9,8.18-8.35,9.29-53.05,40.15-9.63,6.65-23.92,13.64-31.24,15.3C473.71,432.35,465.69,431.92,461.61,429.47Z"/><path class="cls-8" d="M461.61,429.47,458,427.28l6.65-3.37c13.38-6.76,76.34-53.17,80.74-59.5,2.23-3.2,2.44-4.49,2-12.11-.55-10.85-4.71-20-10.16-22.37-2.29-1-3.29-2.05-2.91-3,.32-.83,1.13-3.6,1.77-6.16,1.08-4.19,1-5-1.11-7.75-5.68-7.58-7.3-10.57-8-14.61-1-5.94.89-11.93,4.66-15.06,3.47-2.87,17.24-8.44,25.61-10.35,4.93-1.12,5.49-1.05,7.66,1.1s2.32,3.31,2.12,9.69c-.25,8.47-.9,7.61,12.6,16.58,7.68,5.1,9.33,6.73,12,12,8.72,17.19-.35,39.36-25.69,62.75-7.78,7.17-34.06,27.06-53.05,40.15-9.63,6.65-23.92,13.64-31.24,15.3C473.71,432.35,465.69,431.92,461.61,429.47Z"/><path class="cls-10" d="M590.42,302.92c-6.36-3.19-7.27-6-5.08-15.89,1.87-8.52,3.44-9.07,12.38-4.39,9.52,5,10.64,10.74,3.69,19.08C597.51,306.43,597.43,306.43,590.42,302.92Z"/><path class="cls-7" d="M591,300.16c-6.14-2.66-7-5-4.91-13.27,1.81-7.11,3.32-7.58,12-3.67,9.18,4.15,10.26,9,3.56,15.94C597.8,303.09,597.72,303.09,591,300.16Z"/><path class="cls-7" d="M600.45,336.76c-1.93-2.05-2-2.93-.09-6.86a24.92,24.92,0,0,0,2.15-8.87c0-4.57,3.09-11.35,5.77-12.56.85-.4,4.65.83,8.44,2.73,5.57,2.79,6.88,4.08,6.88,6.75,0,3.89-6.45,16.18-10,19.12C610.17,339.88,603.23,339.7,600.45,336.76Z"/><path class="cls-11" d="M602.57,335c-1.36-1.93-1.37-2.75-.06-6.43a30.14,30.14,0,0,0,1.51-8.32c0-4.29,2.19-10.65,4.07-11.79.6-.37,3.28.79,6,2.56,3.92,2.62,4.85,3.84,4.85,6.34,0,3.65-4.55,15.17-7.06,17.92S604.53,337.75,602.57,335Z"/><path class="cls-12" d="M518.19,166.69c.77-3.05,0,6.31,0,9.45a23.23,23.23,0,0,1-2.14,8.92A38.41,38.41,0,0,0,513.4,194c-.55,2.69-1.6,5-1.6,7.87v7.87a33.06,33.06,0,0,1-1.06,7.35,33.13,33.13,0,0,0-.52,7.87c0,2.62,5.31,0,8,0,4,0,4-2.71,4.78-5.78.61-2.38.09-6.12.53-7.87.59-2.29,0-5.49,0-7.87v-7.87c0-2.4,1.07-5.05,1.07-7.87,0-1.77.52-4.81.52-7.34v-8.93c0-3.2-.1-5.46-1.06-7.34-.69-1.36-2.71-1.58-4.25-1.58Z"/><path class="cls-12" d="M565.05,222.49a31.26,31.26,0,0,0,.38,7.06c.41,1.65.41,3.41,1.12,4.82s.68,3.83,1.12,5.57a33.2,33.2,0,0,0,2.26,5.19c1,2,.84,3.7,2.26,5.57,1,1.28,1.53,4.86,2.26,6.3a27,27,0,0,1,1.87,5.56c.49,1.94,1.71,3.42,2.26,5.57s2,3.34,2.64,4.82c.82,2.05,1.7,2.7,2.24,4.83.39,1.49,1.48,2.85,1.88,4.45.45,1.78,2.67,3.76,3.76,5.19a26.1,26.1,0,0,1,2.64,4.09,28.14,28.14,0,0,0,4.52,6.32c1.27,1.25,1.64,3.09,3,4.44a15.53,15.53,0,0,1,2.25,3.71,17,17,0,0,0,3.38,4.46,21.81,21.81,0,0,0,4.15,3.34c1.73.85,2.51,1.42,4.13,2.22a14.65,14.65,0,0,1,3.38,2.6c.9.88,3.11,1.23,4.13,1.48-15.49,35.48,12-24.48-.37-11.13-1.87.46-3.48-.6-4.51-1.11a12,12,0,0,1-3-2.61c-1.15-1.12-1.12-2.56-1.51-4.07s0-3.89,0-5.56a10.32,10.32,0,0,0-.75-4.84c-.94-1.86-.38-3-1.87-4.44-1.33-1.31-.72-2-3-2.61-1.57-.37-2.24-1-4.14-1.48-1-.24-2.9-1.81-3.76-2.23a24.32,24.32,0,0,0-4.13-1.85c-1.44-.35-2-2.25-2.26-3.34-.37-1.5-1-2.95-1.49-4.82-.57-2.22-1.52-3.17-1.52-5.19a13.33,13.33,0,0,0-1.5-4.82c-.65-1.31-.91-2.76-1.88-3.71-1.12-1.11-1.67-2.94-2.26-4.09-.73-1.45-1.49-2.53-1.49-4.09,0-.84-1.26-3.11-1.52-4.08a25.41,25.41,0,0,0-1.49-4.82,12,12,0,0,0-2.26-3.34c-1-.93-1.32-2.41-2.26-3.34s-1.19-2.8-1.5-4.08c-.27-1-2.71-2.83-3.38-3.34-.84-.63-1.6-3.52-1.89-4.08a6.57,6.57,0,0,0-.75-1.11Z"/><path class="cls-12" d="M534.13,316.25c0-1.53,5.48,2.19,6.39,2.62a14.55,14.55,0,0,1,4.25,4.73,17.58,17.58,0,0,0,3.73,4.19c1.69,1.69,1.66,5,2.12,6.82.5,2,2.35,4.12,3.19,5.78a13,13,0,0,1,1.59,6.82c0,2.53.54,5.55.54,8.4,0,3.16.33,6.18-1.07,8.92l-3.18,6.3a28.38,28.38,0,0,1-4.79,6.81c-2.44,2.42-5.09,3.46-6.92,5.25-2.26,2.23-7.31,3.52-10.1,4.21-3.25.79-7,3.33-9.56,5.24-3,2.23-5.18,3.93-8.52,5.25-2.87,1.14-5.25,4.18-7.44,5.25-2,1-3,2.4-4.79,4.19-1.61,1.6-3.41,1.8-4.79,3.15-2,2-3.92,2.84-5.31,4.2-1.21,1.2-4,2.29-5.85,3.67s-5.79,2.21-7.44,2.63c-2.44.6-3.94,1.68-5.85,2.62-2.25,1.11-3.69,1.56-5.31,3.14-2.16,2.15-5.58-1-5.85-2.09-.87-3.42.64-4.82,2.12-6.3s5.11-2.25,6.92-3.15,5.07-2,6.37-2.61a48.42,48.42,0,0,0,5.85-3.69c1.95-1.43,3.76-2.65,5.85-4.19s3.51-1.88,5.86-4.2c1.9-1.87,4.26-2.25,6.91-4.19a32.53,32.53,0,0,1,5.84-3.68c3.35-1.65,5.12-3.52,8-6.83,1-1.16,4.9-2.77,6.4-3.14,2.75-.69,3.33-2.4,6.37-3.14,2-.51,4-3,5.32-3.69,2-1,2.91-2.23,4.78-3.14.41-.19,2.52-4.67,2.67-5.25.4-1.63,2.48-3.88,3.18-5.24,1.1-2.17.74-4.61,1.59-6.3,1-2,1.06-3.95,1.06-6.83v-7.87c0-2-2.51-3.61-3.71-4.19s-3.68-4.49-4.27-5.25c-2-2.61-4.24-.57-5.3-4.73a27.22,27.22,0,0,1-.53-7.35c0-.51,1-1.46,1.06-1.57Z"/><path class="cls-12" d="M462.4,251.07c.13-.13-.24.24-.38.36-.7.7-1.94,4.06-3.38,5.94-1.27,1.69-1.37,2.86-3,4.46a20.19,20.19,0,0,0-2.63,4.45c-1.18,2.36-3.5,4.88-4.88,6.67-2,2.62-2.12,4.21-3.38,6.69-.82,1.62-1.06,4.18-1.51,5.93a24,24,0,0,0-.37,5.57v6.31c0,2.56-.08,3.27,1.13,4.45,1.47,1.45,3.43-1.95,3.76-2.59a36.65,36.65,0,0,0,2.63-6.69c.46-1.83,0-4.39,0-6.3,0-2.64-.22-4.91,1.12-6.68s1.37-3.41,3-5.57,2.76-4.95,4.51-6.69c2.44-2.39,4.49-5.89,6.78-8.15,1.25-1.24,2.39-3.11,3.38-4.09a10.38,10.38,0,0,0,2.63-3.71c1-2,1.87-2.3,1.87-4.44,0-2.59-1.4-1.86-3.75-1.86s-4.13,0-5.65,1.11Z"/><path class="cls-12" d="M370.3,375c-.05-1.16,1.5-3.69,2.24-5.56s1.92-2.65,2.64-4.09a15.22,15.22,0,0,1,3-3.71c1.19-1.17,2.35-4.07,3.77-5.94,1.3-1.72,2.48-3.13,3-5.19.69-2.67,3.25-4.91,4.52-7.43a38.9,38.9,0,0,1,5.64-8.15c3-3,5.13-7.5,7.89-10.76,3.07-3.63,5.24-7.92,7.53-11.87,3.3-5.73,7.74-10.88,10.89-16.33a126.33,126.33,0,0,1,12-16.33c2-2.35,4.66-4.73,6-7.42a17.26,17.26,0,0,1,3.76-4.46,54.41,54.41,0,0,1,5.27-4.45,20.14,20.14,0,0,0,4.13-4.46c1.22-1.61,2.42-2.54,3.38-4.44,1.07-2.11,2.47-2.29,3-4.46.4-1.59,1.69-3.34,2.26-4.45a10.39,10.39,0,0,1,3.38-3.35c2-1,3.75-1.46,5.27-2.59a34.68,34.68,0,0,1,4.87-2.6c2.09-1,3.7-1.41,5.27-3s4.42-2.6,6.39-4.08c2.7-2,5.47-2.69,8.28-4.07a25.31,25.31,0,0,0,6.39-4.46,27.35,27.35,0,0,1,6-3.71A8.3,8.3,0,0,0,510.9,214c.87-1.69,1.09-3.25,1.89-4.82a14.43,14.43,0,0,1,3-3.72c1.48-1.46-.69-3.3-1.51-3.71-1.36-.67-3.57-.32-4.88,0s-2.89,2.35-4.15,3c-1.91.95-2.17,2.53-3.38,3.71s-1.6,2.09-3.38,3c-1.37.67-2.55,2-3.76,2.59a28.79,28.79,0,0,1-4.89,2.23c-1.46.36-2.59,1.64-3.76,2.23a19.2,19.2,0,0,0-4.5,3.33,21.42,21.42,0,0,1-3.77,2.23c-1.41.69-2.69,2.28-3.76,3.34a10.45,10.45,0,0,1-4.51,3c-1.64.41-2.75,2-3.75,3-.83.8-3,1.38-4.15,2.23a23.82,23.82,0,0,0-3,2.6c-1.3,1.29-2.5,2-3.38,3.71s-2.39,2.74-3.38,3.71a17.31,17.31,0,0,1-4.51,3,14.92,14.92,0,0,0-4.14,3.34c-1.29,1.27-1.81,2.15-3,3.33a35.5,35.5,0,0,1-4.13,4.09c-1.06.79-1.87,2.59-3,4.08-1.4,1.84-3,2.56-4.5,4.07-1.29,1.26-2.77,2.74-3.77,3.72a42.55,42.55,0,0,0-4.51,5.2c-1,1.32-1.48,2.58-2.64,3.7-.86.87-1.62,2.87-2.26,4.09-.77,1.54-1.82,2.12-2.63,3.71-.93,1.85-2,2.38-3,4.46-.8,1.59-2,2.51-2.62,3.71-1,2-2.75,3.55-3.77,5.55a19.3,19.3,0,0,1-3.76,4.84c-1.43,1.42-1.89,3-3,4.08s-.75,3-1.87,4.07a15.6,15.6,0,0,0-2.64,5.2c-.35,1.4-2.33,3.42-3,4.08a21.65,21.65,0,0,0-2.63,4.46c-.82,1.63-2.09,3-3,4.82-1,2-1.82,3.23-2.63,4.82a30.78,30.78,0,0,1-3.38,5.19,29.2,29.2,0,0,0-3,5.57,21.18,21.18,0,0,0-1.5,5.19,23.54,23.54,0,0,1-1.88,4.09c-.75,1.47-1.74,3.07-2.27,4.09a21.27,21.27,0,0,0-1.49,4.44,24.09,24.09,0,0,0-.37,5.19,18.23,18.23,0,0,0,.75,5.21c.29,1.15,2,2.32,2.63,3s.19.8.37,1.49Z"/><path class="cls-12" d="M495.86,172.39c-3.31-2-2.63.81-2.63,4.09,0,1.69-.38,3.16-.38,5.19,0,1.38-1.12,3.7-1.49,5.2-.46,1.82-1.45,3.87-1.89,5.57-.48,1.91-1.39,3.29-1.87,5.19a20.29,20.29,0,0,0-.39,5.19v5.57a7.52,7.52,0,0,0,1.89,4.08c.73.72,3.92.38,5.27.38,1.91,0,1.12-3.13,1.12-4.82a9.33,9.33,0,0,0-1.12-5.21c-.6-1.17,0-4.22,0-5.57V191.7c0-1.63,1.12-3,1.12-5.21a15.12,15.12,0,0,1,1.51-4.44c.74-1.45.66-4.12,1.12-5.94.59-2.29-.34-3-2.26-3.72"/><path d="M506.52,194.59c-1.86-1.53-5.43-7.05-7.95-12.29L494,172.77l-1.4,12.47c-2,18.06-2.1,28.06-.18,28.06,5.34-4.1,18.46-11.71,14.11-18.71m97.16,103.28c4.16-2.44,3.58-11.76-.84-13.11a49.72,49.72,0,0,1-7.33-3.05c-5.33-2.8-7.71-4.57-10.24,4.74-2.59,9.49-.06,13.61,6.23,14.07C601.54,304.93,595.33,304.83,603.68,297.87ZM605.83,310c-1.54,2.24-2.62,6.9-2.38,10.33s-.52,7.39-1.66,8.8c-3.18,4-.16,8.85,5.49,8.85C626.55,335.79,617.68,297.05,605.83,310Zm-116.3-40.9c-3.07-10.72-8.23-8.76-16.15-7.61-4.32.63-13.84,15-17.28,26.1-1.33,4.33.72,6.54,8.72,6.54C478.7,294,492.59,279.79,489.53,269.08ZM448,301.37c-2.92-2.89-1.47-9.86,4.81-22.94,3.47-7.26,6.31-14,6.31-14.91s3.4-5.61,7.54-10.38c7.67-8.85,8.77-9.24,8.77-1.95,0,2.51,4.08,3.65,6.49,3.65,6.85,0,13,8.76,13,18.53-14.6,37.88-29.12,16.3-42.71,25.91C450.76,301.25,448.87,302.19,448,301.37Zm-58.36,59.76c0-5.43,4.49-17.7,7.09-19.39,1.2-.78,4.43.8,7.18,3.52,6.53,6.43,5.68,14.25-1.63,15.23-2.9.37-6.17,1.54-7.27,2.59C391.86,366.1,389.67,365.31,389.67,361.13Zm37.23,43c7.14-9.28,10.09-20,20.16-27.48,2.59-1.26,11.69-4.64,20.22-7.48,21.34-3.46,26.71-24.56,41.35-36.13,12.64-6.59,20-12.09,20-14.95,0-1.78-2.53-6.51-5.63-10.51-10.56-13.68-7.21-23.4,12.73-36.89,11.28-7.62,12.6-8,23.7-6.87,6.47.66,12.27,1.69,12.89,2.32s1.6,5.84,2.17,11.63c1.09,11.33,3.16,12.27,3.65,1.69.18-3.77,2.13-8,4.61-9.95,4.19-3.35,4.21-3.52.34-8.22-2.15-2.63-3.91-6.93-3.91-9.53,0-5.85-14.54-32-18.43-32-1.93,0-1.09,10.19-1.35,16.82-.22,5.39-1,10.38-1.75,11.12-3.62,3.57-5.85-2.74-5.85-16.55,0-18.22-2.26-25.46-12.93-41.46-4.74-6-6.81-13.39-12.12-18.8-3.85-3.42-4-3.23-5.08,5.41-4.73,39.1-7.23,49.47-11.94,49.47-3.87,0-4.34-4.22-1.12-10.34,1.81-3.46,3.17-11.85,2.57-11.85-67.75,46.6-108.53,84.83-142.46,165C377.11,398.31,405.14,418.48,426.9,404.1Zm51.44,4.36c16.59-14.87,37.08-24.28,54.21-39.08,4.77-4.73,7.43-9.65,8.16-15.07,1.07-7.81.94-8-5.37-8-5.94,0-6.51.61-7.1,7.78-.57,6.64-1.47,7.88-6.13,8.43-3.69.41-6.4,2.66-8.41,7-2.29,4.89-5.49,7.17-14,10-6.09,2-12.8,5.17-14.91,7.05a16.63,16.63,0,0,1-9.6,3.43c-6.63,0-12.95,2.88-19.7,8.94-7.86,7.06-5.34,2,3.95-7.94,6.75-7.22,10.16-9.3,15.3-9.3,3.63,0,10-2.29,14.2-5.09s9.89-5.66,12.7-6.36c3.09-.77,6.05-3.7,7.46-7.38q2.34-6.11,6.73-6.11c3.41,0,4.4-1.3,4.4-5.82,0-7.5,3.46-10.79,11.47-10.86,6.1-.07,6.22-.23,2.33-3.13-9.58-7.14-24.54.18-32.76,16-4.91,9.44-7.51,11.85-19.16,17.68-7.4,3.69-16.55,6.95-20.3,7.24-7.67,1-13.89,6-18.19,12.48l-5.24,8.7,4.4,6.36C452.81,419.87,460.32,420.53,478.34,408.46ZM543,394.26c26.35-18.42,67.91-54.35,46.88-87.25-2.2-2.16-8.42-6.51-13.84-9.64-8.36-4.84-9.65-6.43-8.59-10.6,1.93-7.61-.79-15.3-5.43-15.3-6.2,0-27.21,7.78-31.6,11.7-6.24,5.57-5.34,20.45,1.61,26.79,5.35,4.91,5.61,7.08,1.87,16.06-1.07,2.53-.54,3.64,1.69,3.64,5.69,0,12,13,12,24.75,0,9.07-3.55,11.24-8.41,15.75-17.89,13.27-60.79,47.09-77.69,55.08-5.52,0-4,3.61,2.63,6.25C492.66,437.26,520.68,409,543,394.26Zm58.24-50.06c-1.19,0-8,8.69-15,19.28-19.06,28-71.28,64.27-102.62,71.85-19.84.9-20.83,2.19-26-4.16-7-7.08-17.27-27.82-27.8-20.58-3.22,2.26-9.76,4.73-14.52,5.48-25.34,1-51.47-24.29-48.79-50.15,19.43-56.14,58.38-102.38,105.27-138.09,15.33-10.7,13.31-11.48,13.83-34.27L488.54,169l.29-7.67c4.88-.48,10.51,7.28,13.3,11.49a71.68,71.68,0,0,0,7.7,9.46c4,4,6.31,3.49,6.31-10.9s-.28-11.58,5.18-11.58c22,7.27,25.64,34.27,40,50.13,4.31,1.64,15.39,19.36,17.95,28.71a42.37,42.37,0,0,0,7.32,13.84c2.85,3.36,5.21,7.94,5.21,10.16a41,41,0,0,0,2.3,10.63c2.16,6.09,3,6.53,11.06,6l8.74-.54v13.52C645.33,313.08,611.36,355.07,601.25,344.2Z"/><text class="cls-13" transform="translate(168.83 583.02)">G<tspan class="cls-14" x="82.67" y="0">r</tspan><tspan x="136.25" y="0">eenbone </tspan></text><text class="cls-15" transform="translate(189.56 683.61)">Securit<tspan class="cls-16" x="239.72" y="0">y</tspan><tspan class="cls-17" x="278.1" y="0"> </tspan><tspan x="292.53" y="0">Assistant</tspan></text></g></g></svg>