<?xml version="1.0" encoding="UTF-8"?>
<svg width="52.509" height="52.52" version="1.0" viewBox="0 0 52.509 52.52" xmlns="http://www.w3.org/2000/svg" xmlns:xlink="http://www.w3.org/1999/xlink">
 <defs>
  <linearGradient id="linearGradient13956" x1="46.592" x2="43.592" y1="89.585" y2="-74.733" gradientUnits="userSpaceOnUse">
   <stop stop-color="#848484" offset="0"/>
   <stop stop-color="#fff" offset="1"/>
  </linearGradient>
  <linearGradient id="linearGradient13966" x1="26.48" x2="26.48" y1="1.3939" y2="52.843" gradientUnits="userSpaceOnUse">
   <stop stop-color="#fff" offset="0"/>
   <stop stop-color="#fff" stop-opacity="0" offset="1"/>
  </linearGradient>
  <clipPath id="clp12">
   <path d="m45.315 71.927h12.92v15.867h-12.92v-15.867z"/>
  </clipPath>
 </defs>
 <g transform="translate(-3.8191 -6.1557)">
  <g transform="translate(-840.83 182.27)" fill="#71c000" stroke="#71c000" stroke-linejoin="bevel" stroke-width="3.379"></g>
  <g transform="translate(-1426.6 -26.29)" fill="#71c000" stroke="#71c000" stroke-linejoin="bevel" stroke-width="3.379"></g>
  <rect x="4.9083" y="7.2196" width="50.731" height="50.549" ry="7.0914" color="black" fill="url(#linearGradient13956)" fill-rule="evenodd" stroke="#2b2b2b" stroke-width=".9965"/>
  <g transform="matrix(-.0039739 .6296 -.6296 -.0039739 295.58 -273.62)" fill="#fff"></g>
  <path transform="translate(3.8191 6.1557)" d="m2.1818 45.429-0.18182-37.636s1.0909-5.6364 5.4545-5.8182c4.3636-0.18182 37.455 0 37.455 0s5.8182 0 6 7.2727c0.18182 7.2727-0.18182 36.727-0.18182 36.727" color="black" fill="none" stroke="url(#linearGradient13966)"/>
  <g transform="matrix(.044963 0 0 .044963 -35.036 -61.731)" fill="#fff">
   <g transform="translate(19.489 19.497)" fill="#fff">
    <g transform="matrix(54.85 0 0 -54.85 -1411.3 6454.7)" clip-path="url(#clp12)">
     <path d="m56.105 79.364c-0.018 2.008 1.64 2.972 1.715 3.019-0.933 1.365-2.385 1.552-2.903 1.574-1.235 0.125-2.411-0.727-3.037-0.727s-1.594 0.709-2.618 0.689c-1.348-0.02-2.589-0.783-3.283-1.989-1.399-2.427-0.357-6.024 1.005-7.994 0.667-0.963 1.461-2.048 2.505-2.008 1.006 0.04 1.386 0.65 2.6 0.65s1.556-0.65 2.619-0.631c1.081 0.021 1.767 0.984 2.429 1.95 0.764 1.118 1.08 2.2 1.098 2.257-0.024 0.01-2.108 0.809-2.13 3.21" fill="#fff"/>
    </g>
    <path d="m1556.5 1778.2c30.386-36.804 50.9-87.98 45.25-138.99-43.774 1.7571-96.756 29.181-128.19 65.985-28.137 32.528-52.82 84.634-46.131 134.6 48.818 3.7847 98.675-24.85 129.07-61.6"/>
   </g>
  </g>
 </g>
</svg>
