<?xml version="1.0" encoding="UTF-8"?>
<svg width="52.509" height="52.52" version="1.0" viewBox="0 0 52.509 52.52" xmlns="http://www.w3.org/2000/svg" xmlns:xlink="http://www.w3.org/1999/xlink">
 <defs>
  <linearGradient id="linearGradient13956" x1="46.592" x2="43.592" y1="89.585" y2="-74.733" gradientUnits="userSpaceOnUse">
   <stop stop-color="#bf7c9a" offset="0"/>
   <stop stop-color="#fff" offset="1"/>
  </linearGradient>
  <linearGradient id="linearGradient13966" x1="26.48" x2="26.48" y1="1.3939" y2="52.843" gradientUnits="userSpaceOnUse">
   <stop stop-color="#fff" offset="0"/>
   <stop stop-color="#fff" stop-opacity="0" offset="1"/>
  </linearGradient>
 </defs>
 <g transform="translate(-3.8191 -6.1557)">
  <g transform="translate(-840.83 182.27)" fill="#71c000" stroke="#71c000" stroke-linejoin="bevel" stroke-width="3.379"></g>
  <g transform="translate(-1426.6 -26.29)" fill="#71c000" stroke="#71c000" stroke-linejoin="bevel" stroke-width="3.379"></g>
  <rect x="4.9083" y="7.2196" width="50.731" height="50.549" ry="7.0914" color="black" fill="url(#linearGradient13956)" fill-rule="evenodd" stroke="#2b2b2b" stroke-width=".997"/>
  <g transform="matrix(-.0039739 .6296 -.6296 -.0039739 295.58 -273.62)" fill="#fff"></g>
  <path transform="translate(3.8191 6.1557)" d="m2.1818 45.429-0.18182-37.636s1.0909-5.6364 5.4545-5.8182c4.3636-0.18182 37.455 0 37.455 0s5.8182 0 6 7.2727c0.18182 7.2727-0.18182 36.727-0.18182 36.727" color="black" fill="none" stroke="url(#linearGradient13966)"/>
  <path d="m30.074 10.752-5.8417 5.8432h-9.5755-0.35587v0.36143 9.5725l-5.6336 5.6351-0.25732 0.25191 0.25732 0.25191 5.6336 5.6351v9.5177 0.36143h0.35587 9.488l5.6446 5.6405 0.25732 0.25738 0.25184-0.25738 5.6446-5.6405h9.6193 0.36134v-0.36143-9.5889l5.5625-5.5639 0.25185-0.25191-0.25185-0.25191-5.5625-5.5639v-9.6875-0.36143h-0.36134-9.6905l-5.5406-5.5474-0.25732-0.25191zm0 1.0131 4.785 4.7862h-2.951-0.36134v0.36143 11.681l-1.4727 1.4731-1.4235-1.4238v-11.686-0.36143h-0.36134-3.044l4.8288-4.83zm2.1899 5.5036h3.3123l3.6463 3.6472-6.9586 6.9603v-10.607zm4.3251 0h8.612v8.6087l-3.3725-3.3734-0.25732-0.25191-7.955 7.957h-1.3523v-1.3143l7.7196-7.727 0.25732-0.25191-0.25732-0.25191-3.3944-3.3953zm-21.571 0.04929h8.4915l-3.597 3.5979 8.0207 8.0227v1.2705h-1.4289l-7.6867-7.6887-0.25732-0.25738-0.25185 0.25738-3.2904 3.2912v-8.4937zm9.5044 0h3.4108v10.607l-7.0078-7.0096 3.597-3.5979zm17.049 5.9472 3.6298 3.6308v3.3131h-10.566l6.9367-6.9439zm-23.011 0.01642 6.9257 6.9275h-10.468v-3.3843l3.5422-3.5431zm-4.2594 4.2605v3.0284 0.36143h0.35587 11.552l1.5001 1.5005-1.3742 1.3745h-11.678-0.35587v0.35596 3.1269l-4.8726-4.8739 4.8726-4.8739zm31.623 0.07667 4.796 4.7972-4.796 4.7972v-3.0503-0.35596h-0.36134-11.744l-1.3906-1.391 1.4837-1.4841h11.651 0.36134v-0.36143-2.9517zm-14.377 1.9934v0.95834 0.36143h0.36134 0.98548l-1.4837 1.4841 1.3906 1.391h-0.8924-0.36134v0.35596 1.15l-1.5001-1.5005-0.25732 0.25191-1.1169 1.1172v-1.0186-0.35596h-0.36134-0.96358l1.1223-1.1226 0.25732-0.25191-1.5001-1.5005h1.0621 0.36134v-0.36143-0.91453l1.4235 1.4238 0.25732-0.25191 1.2154-1.2157zm-16.529 4.9122h10.599l-7.0407 7.0425-3.5587-3.5596v-3.4829zm11.612 0h1.3249v1.3745l-8.0426 8.0446 0.25184 0.25738 3.263 3.2638h-8.4094v-8.4444l3.5587 3.5596 0.25184-0.25191 7.8017-7.8037zm5.6336 0h1.2537l8.0535 8.0556 0.25732-0.25191 3.3725-3.3734v8.5101h-8.5408l3.263-3.2638 0.25184-0.25738-0.25184-0.25191-7.6593-7.6613v-1.506zm2.2721 0h10.665v3.4117l-3.6298 3.6308-7.0352-7.0425zm-4.4894 0.30119 1.5001 1.5005v11.495 0.36143h0.36134 3.0167l-4.8781 4.8793-4.8836-4.8793h3.148 0.36134v-0.36143-11.621l1.3742-1.3745zm-2.0914 2.0919v10.547h-3.5094l-3.5203-3.5212 7.0297-7.026zm4.3087 0.12595 6.8983 6.9001-3.5203 3.5212h-3.378v-10.421z" fill="#fff" stroke="#fff" stroke-width="1.161"/>
 </g>
</svg>
