<?xml version="1.0" encoding="UTF-8" standalone="no"?>
<!-- Created with Inkscape (http://www.inkscape.org/) -->

<svg
   xmlns:dc="http://purl.org/dc/elements/1.1/"
   xmlns:cc="http://creativecommons.org/ns#"
   xmlns:rdf="http://www.w3.org/1999/02/22-rdf-syntax-ns#"
   xmlns:svg="http://www.w3.org/2000/svg"
   xmlns="http://www.w3.org/2000/svg"
   xmlns:xlink="http://www.w3.org/1999/xlink"
   xmlns:sodipodi="http://sodipodi.sourceforge.net/DTD/sodipodi-0.dtd"
   xmlns:inkscape="http://www.inkscape.org/namespaces/inkscape"
   width="52.509098"
   height="52.52018"
   viewBox="0 0 52.509098 52.52018"
   id="svg5160"
   sodipodi:version="0.32"
   inkscape:version="0.48.5 r10040"
   sodipodi:docname="os_centos.svg"
   version="1.0"
   inkscape:export-xdpi="27.42"
   inkscape:export-ydpi="27.42">
  <defs
     id="defs5162">
    <linearGradient
       inkscape:collect="always"
       id="linearGradient13960">
      <stop
         style="stop-color:white;stop-opacity:1;"
         offset="0"
         id="stop13962" />
      <stop
         style="stop-color:white;stop-opacity:0;"
         offset="1"
         id="stop13964" />
    </linearGradient>
    <linearGradient
       id="linearGradient3898">
      <stop
         style="stop-color:#bf7c9a;stop-opacity:1;"
         offset="0"
         id="stop3900" />
      <stop
         style="stop-color:white;stop-opacity:1;"
         offset="1"
         id="stop3902" />
    </linearGradient>
    <linearGradient
       inkscape:collect="always"
       xlink:href="#linearGradient3898"
       id="linearGradient13956"
       x1="46.591862"
       y1="89.585007"
       x2="43.591812"
       y2="-74.733185"
       gradientUnits="userSpaceOnUse" />
    <linearGradient
       inkscape:collect="always"
       xlink:href="#linearGradient13960"
       id="linearGradient13966"
       x1="26.48"
       y1="1.3939171"
       x2="26.48"
       y2="52.84341"
       gradientUnits="userSpaceOnUse" />
  </defs>
  <sodipodi:namedview
     id="base"
     pagecolor="#ffffff"
     bordercolor="#666666"
     borderopacity="1.0"
     inkscape:pageopacity="0.0"
     inkscape:pageshadow="2"
     inkscape:zoom="3.8890873"
     inkscape:cx="124.44353"
     inkscape:cy="60.040644"
     inkscape:current-layer="layer1"
     showgrid="false"
     inkscape:document-units="px"
     inkscape:grid-bbox="true"
     inkscape:window-width="1680"
     inkscape:window-height="1030"
     inkscape:window-x="-3"
     inkscape:window-y="-3"
     showguides="true"
     inkscape:guide-bbox="true"
     inkscape:window-maximized="1">
    <sodipodi:guide
       orientation="vertical"
       position="393.92276"
       id="guide5230" />
    <sodipodi:guide
       orientation="vertical"
       position="438.14907"
       id="guide5236" />
  </sodipodi:namedview>
  <metadata
     id="metadata5165">
    <rdf:RDF>
      <cc:Work
         rdf:about="">
        <dc:format>image/svg+xml</dc:format>
        <dc:type
           rdf:resource="http://purl.org/dc/dcmitype/StillImage" />
        <dc:title />
      </cc:Work>
    </rdf:RDF>
  </metadata>
  <g
     id="layer1"
     inkscape:label="Layer 1"
     inkscape:groupmode="layer"
     transform="translate(-3.819132,-6.155729)">
    <g
       inkscape:label="shadow"
       style="display:inline"
       id="layer4"
       transform="translate(-392.7904,328.2799)" />
    <g
       inkscape:label="shadow"
       id="g3039"
       transform="translate(-840.833,182.2722)" />
    <g
       inkscape:label="color"
       id="g3041"
       transform="translate(-840.833,182.2722)">
      <path
         style="opacity:1;fill:#71c000;fill-opacity:1;stroke:#71c000;stroke-width:3.37896037;stroke-linejoin:bevel;stroke-miterlimit:4;stroke-dasharray:none;stroke-opacity:1"
         d=""
         id="path3043" />
      <path
         style="opacity:1;fill:#71c000;fill-opacity:1;stroke:#71c000;stroke-width:3.37896037;stroke-linejoin:bevel;stroke-miterlimit:4;stroke-dasharray:none;stroke-opacity:1"
         d=""
         id="path3045" />
      <path
         style="opacity:1;fill:#71c000;fill-opacity:1;stroke:#71c000;stroke-width:3.37896037;stroke-linejoin:bevel;stroke-miterlimit:4;stroke-dasharray:none;stroke-opacity:1"
         d=""
         id="path3047" />
    </g>
    <g
       inkscape:label="highlight"
       id="g3049"
       transform="translate(-840.833,182.2722)" />
    <g
       inkscape:label="text"
       id="g3089"
       transform="translate(-840.833,182.2722)" />
    <g
       id="g4774"
       inkscape:label="shadow"
       transform="translate(-1426.607,-26.2895)" />
    <g
       id="layer2"
       inkscape:label="color"
       transform="translate(-1426.607,-26.2895)">
      <path
         style="opacity:1;fill:#71c000;fill-opacity:1;stroke:#71c000;stroke-width:3.37896037;stroke-linejoin:bevel;stroke-miterlimit:4;stroke-dasharray:none;stroke-opacity:1"
         d=""
         id="path3422" />
      <path
         style="opacity:1;fill:#71c000;fill-opacity:1;stroke:#71c000;stroke-width:3.37896037;stroke-linejoin:bevel;stroke-miterlimit:4;stroke-dasharray:none;stroke-opacity:1"
         d=""
         id="path3426" />
      <path
         style="opacity:1;fill:#71c000;fill-opacity:1;stroke:#71c000;stroke-width:3.37896037;stroke-linejoin:bevel;stroke-miterlimit:4;stroke-dasharray:none;stroke-opacity:1"
         d=""
         id="path3428" />
    </g>
    <g
       id="g5777"
       inkscape:label="highlight"
       transform="translate(-1426.607,-26.2895)" />
    <g
       id="layer5"
       inkscape:label="text"
       transform="translate(-1426.607,-26.2895)" />
    <rect
       style="opacity:1;color:black;fill:url(#linearGradient13956);fill-opacity:1;fill-rule:evenodd;stroke:#2b2b2b;stroke-width:0.997;stroke-linecap:butt;stroke-linejoin:miter;marker:none;marker-start:none;marker-mid:none;marker-end:none;stroke-miterlimit:4;stroke-dasharray:none;stroke-dashoffset:0;stroke-opacity:1;visibility:visible;display:inline;overflow:visible"
       id="rect13948"
       width="50.730724"
       height="50.548958"
       x="4.9082928"
       y="7.219615"
       ry="7.0913997" />
    <g
       id="g6007"
       transform="matrix(-3.973892e-3,0.629601,-0.629601,-3.973892e-3,295.5792,-273.6194)"
       inkscape:export-xdpi="27.42"
       inkscape:export-ydpi="27.42"
       style="fill:white">
      <g
         transform="translate(415.3267,354.416)"
         id="g6011"
         style="fill:white" />
    </g>
    <g
       id="g3192"
       inkscape:label="openvaslogo"
       style="display:inline"
       transform="translate(-996.7028,556.527)" />
    <path
       style="opacity:1;color:black;fill:none;fill-opacity:1;fill-rule:evenodd;stroke:url(#linearGradient13966);stroke-width:1;stroke-linecap:butt;stroke-linejoin:miter;marker:none;marker-start:none;marker-mid:none;marker-end:none;stroke-miterlimit:4;stroke-dasharray:none;stroke-dashoffset:0;stroke-opacity:1;visibility:visible;display:inline;overflow:visible"
       d="M 2.1818182,45.429271 L 2,7.792907 C 2,7.792907 3.0909091,2.1565434 7.4545455,1.9747252 C 11.818182,1.792907 44.909091,1.9747252 44.909091,1.9747252 C 44.909091,1.9747252 50.727273,1.9747252 50.909091,9.2474525 C 51.090909,16.52018 50.727273,45.974725 50.727273,45.974725"
       id="path13958"
       transform="translate(3.819132,6.155729)" />
    <path
       id="path2289"
       d="m 30.073682,10.751782 -0.251845,0.251907 -5.589842,5.591247 -9.575549,0 -0.355868,0 0,0.361434 0,9.572482 -5.6336385,5.635059 -0.257322,0.251907 0.257322,0.251907 5.6336385,5.63506 0,9.517719 0,0.361432 0.355868,0 9.487951,0 5.644591,5.640536 0.257319,0.257383 0.251844,-0.257383 5.644591,-5.640536 9.619348,0 0.361341,0 0,-0.361432 0,-9.58891 5.562468,-5.563869 0.251846,-0.251907 -0.251846,-0.251907 -5.562468,-5.563868 0,-9.687483 0,-0.361433 -0.361341,0 -9.69052,0 -5.54057,-5.547438 -0.257318,-0.251907 z m 0,1.013106 4.785035,4.786239 -2.950954,0 -0.361342,0 0,0.361433 0,11.680837 -1.472739,1.473111 -1.423467,-1.423824 0,-11.686314 0,-0.361434 -0.361342,0 -3.044027,0 4.828836,-4.830048 z m 2.189948,5.503629 3.312296,0 3.646264,3.647181 -6.95856,6.960311 0,-10.607492 z m 4.325147,0 8.611971,0 0,8.608661 -3.37252,-3.373368 -0.25732,-0.251907 -0.251843,0.251907 -7.703142,7.70508 -1.352293,0 0,-1.314299 7.719566,-7.726986 0.25732,-0.251907 -0.25732,-0.251908 -3.394419,-3.395273 z m -21.57099,0.04929 8.491524,0 -3.345146,3.345988 -0.251844,0.251907 0.251844,0.251908 7.768842,7.770795 0,1.27049 -1.428941,0 -7.686721,-7.688652 -0.257317,-0.257384 -0.251846,0.257384 -3.290395,3.291225 0,-8.493661 z m 9.504375,0 3.410845,0 0,10.607493 -7.007834,-7.009598 3.596989,-3.597895 z m 17.048746,5.947205 3.62984,3.630753 0,3.31313 -10.5665,0 6.93666,-6.943883 z m -23.01088,0.01642 6.925711,6.927454 -10.467952,0 0,-3.384322 3.542241,-3.543132 z m -4.25945,4.260521 0,3.028365 0,0.361433 0.355868,0 11.551977,0 1.500115,1.500492 -1.374193,1.374537 -11.677899,0 -0.355868,0 0,0.355956 0,3.126938 -4.8726345,-4.87386 4.8726345,-4.873861 z m 31.622853,0.07667 4.795987,4.797192 -4.795987,4.797194 0,-3.05027 0,-0.355956 -0.361341,0 -11.743598,0 -1.390617,-1.390968 1.48369,-1.484063 11.650525,0 0.361341,0 0,-0.361432 0,-2.951697 z m -14.37701,1.993354 0,0.958343 0,0.361432 0.361342,0 0.985477,0 -1.231847,1.232156 -0.251843,0.251907 0.251843,0.251907 1.138774,1.139061 -0.892404,0 -0.361342,0 0,0.355956 0,1.150011 -1.24827,-1.248584 -0.251844,-0.251907 -0.257319,0.251907 -1.116873,1.117155 0,-1.018582 0,-0.355956 -0.361342,0 -0.963577,0 1.122348,-1.122632 0.257319,-0.251907 -0.257319,-0.257384 -1.242795,-1.243108 1.062124,0 0.361342,0 0,-0.361432 0,-0.914534 1.171622,1.171918 0.251845,0.251907 0.257318,-0.251907 1.215421,-1.215727 z m -16.528634,4.912194 10.59935,0 -7.040682,7.042454 -3.558668,-3.55956 0,-3.482894 z m 11.612201,0 1.324919,0 0,1.374538 -7.790742,7.792701 -0.251844,0.251907 0.251844,0.257384 3.263024,3.263843 -8.409402,0 0,-8.444374 3.306822,3.307655 0.251846,0.251907 0.251841,-0.251907 7.801692,-7.803654 z m 5.633642,0 1.253745,0 7.80169,7.803654 0.251843,0.251907 0.25732,-0.251907 3.37252,-3.37337 0,8.510089 -8.540798,0 3.263022,-3.263843 0.251845,-0.257384 -0.251845,-0.251907 -7.659342,-7.661271 0,-1.505968 z m 2.272071,0 10.665047,0 0,3.411702 -3.62984,3.630752 -7.035207,-7.042454 z m -4.489394,0.301194 1.500114,1.500491 0,11.494645 0,0.361433 0.361342,0 3.016654,0 -4.87811,4.879337 -4.883584,-4.879337 3.14805,0 0.361342,0 0,-0.361433 0,-11.620598 1.374192,-1.374538 z m -2.0914,2.091926 0,10.547253 -3.509393,0 -3.520341,-3.521227 7.029734,-7.026026 z m 4.308723,0.125954 6.898336,6.900072 -3.520341,3.521227 -3.377995,0 0,-10.421299 z"
       style="fill:#ffffff;fill-opacity:1;stroke:#ffffff;stroke-width:1.16104972;stroke-opacity:1;display:inline" />
  </g>
</svg>
