<?xml version="1.0" encoding="UTF-8"?>
<svg width="52.509" height="52.52" version="1.0" viewBox="0 0 52.509 52.52" xmlns="http://www.w3.org/2000/svg" xmlns:xlink="http://www.w3.org/1999/xlink">
 <defs>
  <linearGradient id="linearGradient13966" x1="26.48" x2="26.48" y1="1.3939" y2="52.843" gradientUnits="userSpaceOnUse">
   <stop stop-color="#fff" offset="0"/>
   <stop stop-color="#fff" stop-opacity="0" offset="1"/>
  </linearGradient>
 </defs>
 <g transform="translate(-3.8191 -6.1557)">
  <g transform="translate(-840.83 182.27)" fill="#71c000" stroke="#71c000" stroke-linejoin="bevel" stroke-width="3.379"></g>
  <g transform="translate(-1426.6 -26.29)" fill="#71c000" stroke="#71c000" stroke-linejoin="bevel" stroke-width="3.379"></g>
  <rect x="4.9083" y="7.2196" width="50.731" height="50.549" ry="7.0914" color="black" fill="#fff" fill-rule="evenodd" stroke="#2b2b2b" stroke-width=".9965"/>
  <g transform="matrix(-.0039739 .6296 -.6296 -.0039739 295.58 -273.62)" fill="#fff"></g>
  <g fill="none">
   <path transform="translate(3.8191 6.1557)" d="m2.1818 45.429-0.18182-37.636s1.0909-5.6364 5.4545-5.8182c4.3636-0.18182 37.455 0 37.455 0s5.8182 0 6 7.2727c0.18182 7.2727-0.18182 36.727-0.18182 36.727" color="black" stroke="url(#linearGradient13966)"/>
   <g stroke="#2b2b2a" stroke-miterlimit="2.6131" stroke-width=".2743">
    <path d="m49.291 38.69c0.0024-0.0061 0.0049-0.01236 0.0065-0.01856"/>
    <path d="m49.297 38.672h-15.36"/>
    <path d="m33.937 38.672c-0.24228 0.46172-0.5065 0.90979-0.79681 1.3394"/>
    <path d="m33.141 40.011 15.275 6.59e-4"/>
    <path d="m48.416 40.012c0.36699-0.44053 0.66087-0.88102 0.88302-1.3215"/>
    <path d="m49.299 38.69h-0.0083"/>
    <path d="m49.299 38.69 3.6727-0.0168 0.0083-2.1767 0.0097-2.5154-2.1318 1.16e-4"/>
    <path d="m50.858 33.981c-0.20614 1.853-0.67343 3.1521-1.5605 4.6902"/>
    <path d="m49.297 38.672h0.01177"/>
    <path d="m49.309 38.672c-0.0033 0.0062-0.0065 0.01243-0.01026 0.01856"/>
    <path d="m35.529 31.587c0.0075 0.18597 0.01416 0.37198 0.01416 0.55963 0 0.62226-0.04453 1.2333-0.12283 1.8336"/>
    <path d="m35.42 33.98 15.437 0.0012"/>
    <path d="m50.858 33.981c0.12436-0.98603 0.12436-1.5797 0.08943-2.3826"/>
    <path d="m50.947 31.599-15.418-0.011768"/>
    <path d="m38.885 45.968 14.01-0.05302v-5.9561l-4.4794 0.05301"/>
    <path d="m48.416 40.012c-2.7549 3.6481-5.8824 5.4348-9.531 5.9561"/>
    <path d="m53.036 22.213v-1.2659l-7.8226 0.0058"/>
    <path d="m45.214 20.953c-2.1595-1.5633-5.1377-2.9038-8.4138-2.7546-2.9985 0.13617-5.1861 0.96021-7.3619 2.354 0.18742 0.12903 0.37186 0.26284 0.5526 0.40058"/>
    <path d="m29.991 20.953h15.209"/>
    <path d="m45.199 20.953c0.42382 0.35318 0.92804 0.71067 1.4237 1.1909"/>
    <path d="m46.623 22.144h0.0057"/>
    <path d="m46.629 22.144c0.01489 0.01538 0.02824 0.03029 0.04313 0.04517 0.01015 0.01061 0.02075 0.01927 0.03136 0.02982"/>
    <path d="m46.703 22.219h6.2037"/>
    <path d="m50.966 31.599 2.0604-0.03487 0.01647-2.6864-2.5273-0.0035"/>
    <path d="m50.515 28.874c0.20876 0.61567 0.35706 1.7288 0.4505 2.7247"/>
    <path d="m35.149 28.845h15.381"/>
    <path d="m50.53 28.845c-0.2889-1.1363-0.52984-1.8414-0.92304-2.6059"/>
    <path d="m49.607 26.239h-15.365"/>
    <path d="m34.242 26.239c0.3841 0.82828 0.68944 1.6995 0.90735 2.6059"/>
    <path d="m31.363 22.144c0.77001 0.76086 1.4505 1.6108 2.0294 2.5318"/>
    <path d="m33.392 24.675h15.247"/>
    <path d="m48.639 24.675c-0.51179-0.87745-1.1687-1.6826-1.9673-2.4866-0.01613-0.01565-0.0326-0.02947-0.04873-0.04517"/>
    <path d="m46.623 22.144h-15.26"/>
    <path d="m53.037 26.219v-1.5633l-4.3974 0.01947"/>
    <path d="m48.639 24.675c0.37198 0.5207 0.6699 1.0422 0.96779 1.5633"/>
    <path d="m49.607 26.239h3.3178"/>
   </g>
  </g>
  <g fill="#2b2b2a" fill-rule="evenodd">
   <path d="m36.329 18.198h-13.379c2.2677 0.51203 4.5331 1.1705 6.4479 2.3227 1.7898-1.2212 4.6785-2.0367 6.9311-2.3227"/>
   <path d="m25.556 39.863h-15.636c-0.29777-0.29789-0.59577-0.7445-0.74462-1.1912h15.679c-0.77566-1.4779-1.295-3.11-1.5016-4.8394l-15.983-3.14e-4 0.017867 12.136h27.321c-3.8199-0.71617-7.0945-2.9742-9.1533-6.1049"/>
   <path d="m23.66 28.77h-15.958c0.14885-0.9681 0.50602-1.7867 0.87824-2.6057h16.004c0.28023-0.59522 0.60134-1.1667 0.95887-1.7125h-15.921c0.44661-0.8189 1.0425-1.5633 1.7125-2.2332h16.018c0.45286-0.4545 0.93761-0.87631 1.4487-1.266h-15.962c1.5635-1.4143 4.0829-2.4236 6.8349-2.829h-12.286v13.326h15.878c0.04495-0.91948 0.18032-1.8149 0.39344-2.6798"/>
  </g>
 </g>
</svg>
