<?xml version="1.0" encoding="UTF-8"?>
<svg width="52.509" height="52.52" version="1.0" viewBox="0 0 52.509 52.52" xmlns="http://www.w3.org/2000/svg" xmlns:xlink="http://www.w3.org/1999/xlink">
 <defs>
  <linearGradient id="linearGradient13956" x1="46.592" x2="43.592" y1="89.585" y2="-74.733" gradientUnits="userSpaceOnUse">
   <stop stop-color="#cd0047" offset="0"/>
   <stop stop-color="#fff" offset="1"/>
  </linearGradient>
  <linearGradient id="linearGradient13966" x1="26.48" x2="26.48" y1="1.3939" y2="52.843" gradientUnits="userSpaceOnUse">
   <stop stop-color="#fff" offset="0"/>
   <stop stop-color="#fff" stop-opacity="0" offset="1"/>
  </linearGradient>
 </defs>
 <g transform="translate(-3.8191 -6.1557)">
  <g transform="translate(-840.83 182.27)" fill="#71c000" stroke="#71c000" stroke-linejoin="bevel" stroke-width="3.379"></g>
  <g transform="translate(-1426.6 -26.29)" fill="#71c000" stroke="#71c000" stroke-linejoin="bevel" stroke-width="3.379"></g>
  <rect x="4.9083" y="7.2196" width="50.731" height="50.549" ry="7.0914" color="black" fill="url(#linearGradient13956)" fill-rule="evenodd" stroke="#2b2b2b" stroke-width=".9965"/>
  <g transform="matrix(-.0039739 .6296 -.6296 -.0039739 295.58 -273.62)" fill="#fff"></g>
  <path transform="translate(3.8191 6.1557)" d="m2.1818 45.429-0.18182-37.636s1.0909-5.6364 5.4545-5.8182c4.3636-0.18182 37.455 0 37.455 0s5.8182 0 6 7.2727c0.18182 7.2727-0.18182 36.727-0.18182 36.727" color="black" fill="none" stroke="url(#linearGradient13966)"/>
  <path d="m29.996 53.419c-1.818-0.1498-3.9036-0.73804-5.9041-1.6652-5.5546-2.5744-10.126-7.5907-11.788-12.935-0.60419-1.9426-1.14-2.4577-1.2325-6.6512-0.004212-1.0492 0.12374-2.361 0.39803-3.9637l0.60978-1.5811c0.77638-2.0131 1.5074-3.4068 1.8065-3.4442 0.21828-0.027282 0.66559-0.43304 0.67112-0.60879 0.005673-0.17998 1.0445-1.9913 1.142-1.9913 0.055652 0 0.19582-0.16986 0.31149-0.37747 0.27633-0.49595 0.98203-1.1553 2.6155-2.4436 0.86042-0.6786 1.3707-1.0118 1.4283-0.93244 0.060136 0.082869 0.37549-0.054702 0.96015-0.41886 0.95982-0.59783 2.4747-1.2731 4.7262-2.1066 1.4942-0.55316 1.7941-0.63295 1.6541-0.43994-0.097888 0.1349-0.1394 0.13751 0.99806-0.062835 0.98058-0.17271 1.3032-0.13406 0.9124 0.10931-0.18575 0.11568-0.07654 0.14586 0.74092 0.20471 0.52733 0.037968 0.9754 0.054874 0.99571 0.037578 0.11164-0.095087-0.13861-0.50308-0.3121-0.50881-0.15588-0.005154-0.14496-0.027173 0.045909-0.092584 0.34633-0.11868 1.8157-0.19934 1.8157-0.09967 0 0.044667-0.2914 0.095725-0.64756 0.11346-0.69745 0.034715-0.97694 0.26079-0.39292 0.31782 0.25433 0.024838 0.34158 0.086059 0.31498 0.22099-0.031305 0.15879 0.065238 0.18664 0.64716 0.18664 0.37617 0 0.77308 0.02913 0.88202 0.064736 0.12998 0.042479 0.19807 0.005815 0.19807-0.10665 0-0.094258 0.04278-0.17138 0.095067-0.17138 0.27974 0 3.258 0.8884 3.9294 1.1721 0.68902 0.29116 0.8631 0.32254 1.4457 0.26054 0.92324-0.098244 1.4737 0.007801 1.6384 0.31564 0.074054 0.13843 0.32215 0.36266 0.55133 0.49831 0.36062 0.21344 0.3872 0.21767 0.19755 0.031425-0.3667-0.36011-0.36822-0.40184 0.425-0.029365 2.8276 1.3278 5.4486 4.0603 6.3836 6.3748 0.28411 0.70331 0.29315 0.82886 0.047168 0.65499-0.33561-0.23722-0.22202 0.5839 0.29875 2.1596 0.26655 0.80653 0.44925 1.4664 0.40599 1.4664-0.043259-9e-6 -0.26558-0.51592-0.49406-1.1465-0.22848-0.63055-0.61698-1.4969-0.86335-1.9252-0.4427-0.76962-0.45321-0.77834-0.89939-0.74654-0.4213 0.030032-0.44851 0.053547-0.4074 0.35213 0.06128 0.44507 0.24068 0.69578 0.44913 0.62765 0.096974-0.031693 0.16711-0.16982 0.29793 0.13728 0.25602 0.601 0.18585 0.49115 0.30928 1.1475 0.10345 0.55008 0.24119 0.90706 0.17491 1.0253-0.019133 0.034133-0.17369-0.14759-0.28859-0.22881-0.18809-0.13295-0.19959-0.12117-0.11539 0.11812 0.051441 0.14618 0.19761 0.42042 0.32482 0.60941 0.13329 0.19802 0.1809 0.37015 0.11236 0.40622-0.13215 0.069564-0.16153 0.79121-0.042923 1.0545 0.041803 0.092782 0.18268 0.1687 0.31305 0.1687 0.13037 0 0.2368 0.011997 0.23649 0.026659-2.98e-4 0.014665-0.13998 0.3626-0.3104 0.7732-0.18769 0.4522-0.31403 0.99883-0.32044 1.3864-0.009252 0.55963-0.027841 0.60645-0.14822 0.37326-0.12432-0.24083-0.20119-0.19732-0.26903 0.53325-0.04264 0.45915-0.011 0.79185-0.29162 1.0299-0.29213 0.24777 0.015845-0.20697-0.072439-0.23582-0.16115-0.052666-1.091 1.5385-1.094 1.8722-8.03e-4 0.087985-0.063019 0.22544-0.11712 0.31571-0.19586 0.3268-0.19638 0.16275-0.37125-0.02868-0.18646-0.20412-0.19408-0.17694-0.44184 0.15883-0.13315 0.18044-0.22667 0.47514-0.2209 0.6481 0.012478 0.37381-0.2495 0.90262-0.41333 0.90262-0.064126 0 0.06304-0.11759 0.035546-0.31686-0.024834-0.18-0.17702-0.042714-0.85695 0.4934-1.7584 1.3865-3.6256 2.2581-5.6552 2.6397-1.5933 0.29956-3.9064 0.2393-5.576-0.14526-1.2444-0.28664-1.3446-0.2029-0.35081 0.29314 0.67565 0.33724 1.3719 0.47972 2.8642 0.64663 0.65543 0.072855 2.0396 0.043202 2.0396 0.089446 0 0.14278-1.3465 0.31474-2.2839 0.26502-1.6375-0.086855-2.3731-0.36332-3.6658-0.90226-1.1915-0.49675-3.1761-1.5718-3.8984-2.5664-0.88116-1.2133-0.3558-0.60008 0.63669 0.24612 0.40232 0.34302 0.88759 0.68264 0.74343 0.44017-0.22719-0.38214-1.1096-1.0345 0.32253-0.076365 0.50676 0.33902 1.4033 0.98482 2.019 1.238 0.62344 0.25632-0.054439-0.19665-1.2396-1.0494-2.0527-1.477-2.9932-2.724-3.4456-4.2945-0.1141-0.39611-0.18896-1.1745-0.1916-1.9922-0.003929-1.2173 0.096525-1.2786 0.31274-1.9197 0.11367-0.33706 0.37451-0.819 0.53534-1.0947 0.15788-0.27069 0.4384-0.74035 0.70745-1.0132 1.0461-1.2711 2.3116-2.1639 4.0378-2.7021 0.72935-0.1889 1.0497-0.21305 2.0661-0.1558 0.7353 0.041421 1.4881 0.11958 1.8916 0.28919 2.292 0.96342 2.0203 1.0508 2.9845 1.9266 0.025124 0.022819-1.1122-0.6053-1.6234-0.81209-1.3213-0.53442-2.5944-0.6793-3.9281-0.44704-2.8403 0.49465-4.9256 2.2376-5.5091 4.6047-0.21569 0.87497-0.24331 1.4813-0.06316 1.3864 0.071974-0.037891 0.12614 0.06147 0.12739 0.23366 0.004487 0.61826 0.38499 1.818 0.80534 2.5392 1.1866 2.0359 3.3802 3.4773 5.865 3.8539 1.0905 0.16524 1.7285 0.13328 2.8441-0.14246 0.37879-0.093627 0.81576-0.18389 0.97106-0.20057 0.44417-0.047721 1.2981-0.54444 1.7404-0.80846 0.77376-0.46186 1.3279-0.85132 0.52823-0.11946-0.35746 0.32714 0.58645-0.20768 1.7688-1.078 1.1719-0.86262 1.4442-1.15 1.33-1.4036-0.11851-0.26304 0.18966-0.79644 0.55247-0.95623 0.25045-0.11031 0.43101-0.33308 0.62405-0.76996 0.35989-0.81449 0.47082-1.3716 0.24996-1.2554-0.12634 0.066502-0.1423 0.016351-0.071092-0.22338 0.050504-0.17003 0.12119-1.0751 0.15707-2.0112 0.064616-1.6858 0.043249-1.8725-0.41541-3.6303-0.70275-2.6932-3.6463-5.8272-6.6074-7.0348-1.8484-0.75378-4.6855-1.1467-6.6651-0.92315-0.61199 0.069123-1.2254 0.13623-1.3631 0.14912-0.13774 0.0129-0.2927 0.071436-0.34435 0.1301-0.059536 0.067613-0.13459 0.052904-0.20503-0.040181-0.16191-0.21396-1.1717 0.014163-2.0442 0.46179-0.38061 0.19528-0.81952 0.38951-0.97535 0.43164-0.21872 0.059122-0.244 0.097297-0.11088 0.16737 0.29565 0.15562-0.24791 0.39573-1.0785 0.47639-0.91822 0.089173-1.4266 0.2714-2.0867 0.70315-0.53165 0.34777-0.46161 0.47099-0.33829 0.4216 0.29885-0.1197 0.066377 0.46512-0.60594 0.52439-0.7243 0.063451-2.0166 0.81473-3.6057 2.1818-1.4805 1.2736-2.2952 2.1768-2.0703 2.2952 0.19636 0.10336-0.022451 0.64812-0.63424 1.5791-0.71566 1.089-0.86438 1.5728-1.118 3.637-0.3268 2.6601-0.31963 3.9394 0.026393 4.7045 0.1643 0.36329 0.26999 0.8521 0.27765 1.2841 0.008483 0.4781 0.08341 0.79001 0.23814 0.99136 0.12789 0.16643 0.193 0.38169 0.15019 0.49657-0.087573 0.235 0.36376 1.1931 0.66868 1.4195 0.11415 0.084752 0.41285 0.21019 0.66377 0.27874 0.5019 0.13713 0.93361 0.59257 1.3479 1.4221 0.25485 0.5102 0.19908 0.59959-0.24716 0.39618-0.34462-0.15708-0.30731-0.048667 0.26612 0.77341 0.35502 0.50896 0.48345 0.79549 0.42585 0.95005-0.060796 0.16313 0.027768 0.32021 0.3369 0.59754 0.2706 0.24276 0.3642 0.39336 0.26386 0.42452-0.20459 0.063538-0.07693 0.26712 0.87639 1.3976 0.44262 0.52489 0.81295 0.86526 0.9077 0.8343 0.099615-0.032556 0.2387 0.12311 0.36836 0.41227 0.31642 0.70567 1.0223 1.4396 1.3847 1.4396 0.20032 0 0.49568 0.17608 0.87557 0.52199 0.3153 0.2871 0.74018 0.58087 0.94416 0.65284 0.37774 0.13326 0.48277 0.35343 0.23166 0.4856-0.12876 0.067774 0.16954 0.24022 1.5429 0.89197 0.50286 0.23863 0.60782 0.26384 0.58495 0.14048-0.051481-0.27769 0.10756-0.1987 0.88185 0.43796 1.0868 0.89364 1.8197 1.1835 3.862 1.5276 0.87698 0.14776 1.679 0.3104 1.7823 0.36142 0.23015 0.11367-1.3892 0.10532-2.8453-0.014652zm-4.0452-16.605c-0.22581-0.26413-0.29642-0.33652-0.39414-0.49701-0.097725-0.16048-0.1924-0.2747-0.24963-0.2747s-0.10406-0.095986-0.10406-0.2133c0-0.11732 0.056349-0.2133 0.12522-0.2133 0.068871 0 0.12522 0.089513 0.12522 0.19892s0.16048 0.31337 0.28796 0.45326c0.24538 0.26928 1.0127 1.3017 0.94671 1.3017-0.021551 0-0.63587-0.65209-0.73727-0.75556zm0.42846-1.3583c-0.5346-0.82813-0.41593-0.93858 0.13529-0.058621 0.22051 0.35202 0.27664 0.67459 0.23694 0.68484-0.049779 0.012859-0.1844-0.30128-0.37223-0.62622zm19.986 0.011739c0-0.042426 0.19725-0.48298 0.43833-0.979 0.24108-0.49602 0.55386-1.3436 0.69506-1.8835 0.25344-0.96905 0.31651-1.1224 0.42409-1.0307 0.11804 0.10054-0.56381 2.2197-0.96582 3.0017-0.40081 0.77969-0.59166 1.0673-0.59166 0.89149zm-12.021-0.49166c-0.10331-0.056856-0.31461-0.10412-0.46957-0.10502-0.1661-9.62e-4 -0.28174-0.067289-0.28174-0.1616 0-0.11958 0.15018-0.16027 0.59479-0.16114 0.32714-6.46e-4 0.81366-0.031965 1.0812-0.069601 0.38481-0.054138 0.47464-0.037193 0.43016 0.081158-0.030916 0.082275-0.17935 0.19696-0.32985 0.25486-0.1505 0.057907-0.27364 0.14189-0.27364 0.18664 0 0.11562-0.52757 0.097861-0.75131-0.02529zm3.287-1.4571c-0.19428-0.066771-0.23114-0.4896-0.042777-0.65002 0.076845-0.065451 0.15688-0.19184 0.30772-0.3551 0.10752-0.11636 0.22707-0.25155 0.31887-0.29026 0.31896-0.13449-0.015726 0.080724-0.15835 0.46105-0.11497 0.30658-0.40525 0.53962-0.27153 0.56502 0.17316 0.032895 0.55622-0.33079 0.77822-0.79062 0.12437-0.25761 0.32212-0.57475 0.36959-0.57497 0.12281-5.7e-4 -0.33191 1.0854-0.53641 1.2873-0.093792 0.092607-0.14835 0.22723-0.17053 0.29328-0.077925 0.23211-0.41957 0.12281-0.59479 0.054285zm1.5629-3.3329c-0.16475-0.36566-0.09389-0.72874 0.16404-0.72874 0.2087 0 0.40149 0.25699 0.27122 0.59473-0.29612 0.76766-0.2795 0.63457-0.43526 0.13401zm-28.014-4.2485c-0.049008-0.42428 0.11919-0.6676 0.23173-0.78144 0.42627-0.43122 0.15284-0.1101 0.13085 0.4615-0.009754 0.25378-0.076382 0.35741-0.079378 0.4014-0.29274 0.47511-0.30192 0.67593-0.28321-0.08146zm1.0654-3.1995c0.050662-0.10265 0.11961-0.29462 0.15321-0.4266 0.03705-0.14549 0.15395-0.23996 0.29695-0.23996 0.30696 0 0.30801 0.32308 0.002018 0.62357-0.28656 0.28141-0.58379 0.30966-0.45218 0.042983z" fill="#fff"/>
 </g>
</svg>
