<?xml version="1.0" encoding="UTF-8"?>
<svg width="52.509" height="52.52" version="1.0" viewBox="0 0 52.509 52.52" xmlns="http://www.w3.org/2000/svg" xmlns:xlink="http://www.w3.org/1999/xlink">
 <defs>
  <linearGradient id="linearGradient13956" x1="46.592" x2="43.592" y1="89.585" y2="-74.733" gradientUnits="userSpaceOnUse">
   <stop stop-color="#bd3f15" offset="0"/>
   <stop stop-color="#ff7e69" offset="1"/>
  </linearGradient>
  <linearGradient id="linearGradient13966" x1="26.48" x2="26.48" y1="1.3939" y2="52.843" gradientUnits="userSpaceOnUse">
   <stop stop-color="#fff" offset="0"/>
   <stop stop-color="#fff" stop-opacity="0" offset="1"/>
  </linearGradient>
 </defs>
 <g transform="translate(-3.8191 -6.1557)">
  <g transform="translate(-840.83 182.27)" fill="#71c000" stroke="#71c000" stroke-linejoin="bevel" stroke-width="3.379"></g>
  <g transform="translate(-1426.6 -26.29)" fill="#71c000" stroke="#71c000" stroke-linejoin="bevel" stroke-width="3.379"></g>
  <rect x="4.9083" y="7.2196" width="50.731" height="50.549" ry="7.0914" color="black" fill="url(#linearGradient13956)" fill-rule="evenodd" stroke="#2b2b2b" stroke-width=".9965"/>
  <g transform="matrix(-.0039739 .6296 -.6296 -.0039739 295.58 -273.62)" fill="#fff"></g>
  <path transform="translate(3.8191 6.1557)" d="m2.1818 45.429-0.18182-37.636s1.0909-5.6364 5.4545-5.8182c4.3636-0.18182 37.455 0 37.455 0s5.8182 0 6 7.2727c0.18182 7.2727-0.18182 36.727-0.18182 36.727" color="black" fill="none" stroke="url(#linearGradient13966)"/>
  <path d="m43.508 14.389c-0.80685-0.41315-5.1921 2.549-7.1028 4.3388-0.99236 1.575-1.2828 2.8223-1.157 3.7603 0.12576 0.93806 0.63109 1.6167 1.4463 2.0891 1.6093 0.93253 4.401 0.89396 6.7493-0.25712 1.3014-6.6031 0.9381-9.6553 0.06428-9.9311zm-25.937 1.5106c-0.22056-5e-3 -0.43399 0.02136-0.61065 0.06428-1.2615 0.72356-1.0203 4.678-0.38567 7.9706 2.1621-2.2049 4.5687-4.1537 6.6207-5.3994-2.0087-1.6065-4.2177-2.6031-5.6244-2.6354zm12.502 1.8641c-1.5159 0-2.9778 0.22574-4.371 0.61065v0.03214c-2.3512 0.86595-6.7154 4.1163-9.8668 7.6813-1.349 2.3744-2.1212 5.1086-2.1212 8.0349 0 9.0297 7.3293 16.359 16.359 16.359 9.0297 0 16.359-7.3293 16.359-16.359 0-3.2731-1.0076-6.2852-2.6676-8.8384-2.588 1.2296-5.5591 1.316-7.5528 0.1607-1.0258-0.59441-1.793-1.5788-1.9605-2.8283-0.15112-1.1272 0.18146-2.4556 1.0285-3.9532-1.6388-0.55719-3.379-0.89991-5.2066-0.89991z" color="#000000" fill="#fff" fill-rule="evenodd"/>
 </g>
</svg>
