<?xml version="1.0" encoding="UTF-8"?>
<svg width="52.509" height="52.52" version="1.0" viewBox="0 0 52.509 52.52" xmlns="http://www.w3.org/2000/svg" xmlns:xlink="http://www.w3.org/1999/xlink">
 <defs>
  <linearGradient id="linearGradient13956" x1="46.592" x2="43.592" y1="89.585" y2="-74.733" gradientUnits="userSpaceOnUse">
   <stop stop-color="#8f82f9" offset="0"/>
   <stop stop-color="#fff" offset="1"/>
  </linearGradient>
  <linearGradient id="linearGradient13966" x1="26.48" x2="26.48" y1="1.3939" y2="52.843" gradientUnits="userSpaceOnUse">
   <stop stop-color="#fff" offset="0"/>
   <stop stop-color="#fff" stop-opacity="0" offset="1"/>
  </linearGradient>
 </defs>
 <g transform="translate(-3.8191 -6.1557)">
  <g transform="translate(-840.83 182.27)" fill="#71c000" stroke="#71c000" stroke-linejoin="bevel" stroke-width="3.379"></g>
  <g transform="translate(-1426.6 -26.29)" fill="#71c000" stroke="#71c000" stroke-linejoin="bevel" stroke-width="3.379"></g>
  <rect x="4.9083" y="7.2196" width="50.731" height="50.549" ry="7.0914" color="black" fill="url(#linearGradient13956)" fill-rule="evenodd" stroke="#2b2b2b" stroke-width=".997"/>
  <g transform="matrix(-.0039739 .6296 -.6296 -.0039739 295.58 -273.62)" fill="#fff"></g>
  <path transform="translate(3.8191 6.1557)" d="m2.1818 45.429-0.18182-37.636s1.0909-5.6364 5.4545-5.8182c4.3636-0.18182 37.455 0 37.455 0s5.8182 0 6 7.2727c0.18182 7.2727-0.18182 36.727-0.18182 36.727" color="black" fill="none" stroke="url(#linearGradient13966)"/>
  <g transform="matrix(.076489 0 0 .076489 8.2597 9.9989)" fill="#fff">
   <path d="m253.35 41.57c-60.634 6.3898-72.246 14.194-127.18 55.753-18.41 13.929-52.293 47.819-60.975 88.026-3.3065 15.313 0.60194 28.533 11.63 37.804 35.313 29.688 94.416 53.774 142.9 77.057 14.202 6.8196 4.7987 19.185-18.104 39.013-57.792 50.032-135.93 110.93-141.38 157.34-2.5704 21.868 4.9161 51.583 31.459 66.79 31.007 17.764 95.372 6.1696 138.35-9.835 62.806-23.388 145.31-75.004 210.81-125.74 68.11-52.76 131.44-119.77 134.57-130.7 3.8467-13.421 3.4632-25.818-3.9604-40.071-11.658-22.382-27.243-39.013-43.978-57.628-44.903-47.339-92.412-88.934-149.25-120.81-41.048-23.018-77.163-42.026-124.89-36.996zm89.068 106.13c43.805 21.179 88.79 76.807-0.39035 108.82-24.25 8.7064-101.16-21.382-98.804-62.444 3.4332-60.656 45.707-72.24 99.194-46.381z" fill="#fff" fill-rule="evenodd"/>
  </g>
 </g>
</svg>
