<?xml version="1.0" encoding="UTF-8"?>
<svg width="52.509" height="52.52" version="1.0" viewBox="0 0 52.509 52.52" xmlns="http://www.w3.org/2000/svg" xmlns:xlink="http://www.w3.org/1999/xlink">
 <defs>
  <linearGradient id="linearGradient13956" x1="46.592" x2="43.592" y1="89.585" y2="-74.733" gradientUnits="userSpaceOnUse">
   <stop stop-color="#668000" offset="0"/>
   <stop stop-color="#df5" offset="1"/>
  </linearGradient>
  <linearGradient id="linearGradient13966" x1="26.48" x2="26.48" y1="1.3939" y2="52.843" gradientUnits="userSpaceOnUse">
   <stop stop-color="#fff" offset="0"/>
   <stop stop-color="#fff" stop-opacity="0" offset="1"/>
  </linearGradient>
 </defs>
 <g transform="translate(-3.8191 -6.1557)">
  <g transform="translate(-840.83 182.27)" fill="#71c000" stroke="#71c000" stroke-linejoin="bevel" stroke-width="3.379"></g>
  <g transform="translate(-1426.6 -26.29)" fill="#71c000" stroke="#71c000" stroke-linejoin="bevel" stroke-width="3.379"></g>
  <rect x="4.9083" y="7.2196" width="50.731" height="50.549" ry="7.0914" color="black" fill="url(#linearGradient13956)" fill-rule="evenodd" stroke="#2b2b2b" stroke-width=".997"/>
  <g transform="matrix(-.0039739 .6296 -.6296 -.0039739 295.58 -273.62)" fill="#fff"></g>
  <path transform="translate(3.8191 6.1557)" d="m2.1818 45.429-0.18182-37.636s1.0909-5.6364 5.4545-5.8182c4.3636-0.18182 37.455 0 37.455 0s5.8182 0 6 7.2727c0.18182 7.2727-0.18182 36.727-0.18182 36.727" color="black" fill="none" stroke="url(#linearGradient13966)"/>
  <g transform="matrix(.67495 0 0 .67508 -506.47 -12.594)" fill="#71c000" stroke="#71c000" stroke-linejoin="bevel" stroke-width="3.379"></g>
  <g>
   <text x="-95.492264" y="107.02142" fill="#000000" font-family="'Limerick-Serial DB'" style="line-height:0%" xml:space="preserve"><tspan x="-95.492264" y="107.02142"> </tspan></text>
   <text x="-175.28954" y="119.31124" fill="#000000" font-family="'Limerick-Serial DB'" style="line-height:0%" xml:space="preserve"><tspan x="-175.28954" y="119.31124"> </tspan></text>
   <path d="m33.373 11.134c-0.34043-0.01575-0.32259 0.1741-0.32259 1.828 0 2.2127-0.35177 2.2957-0.96776 1.6846-0.34274-0.34-0.84272-1.0089-1.147-1.4696-0.42775-0.6476-1.2962-1.831-2.0431-1.7563l-0.07169 1.1828-0.43012 3.7635c-0.07872 3.5066 0.2326 3.6571-2.1147 5.3048-7.178 5.4936-13.156 12.579-16.129 21.219-0.41119 3.9802 3.6106 7.8962 7.4912 7.7421 0.67641-0.1073 1.5567-0.4627 2.0789-0.78855-0.51301 0.25331-1.1818 0.48804-1.7205 0.57349-3.8202 0.15168-7.7885-3.6805-7.3837-7.5987 2.9272-8.5055 8.8123-15.524 15.878-20.932 2.3108-1.622 2.0014-1.7453 2.0789-5.1972l0.43012-3.7277 0.07169-1.147c0.73524-0.07357 1.5861 1.083 2.0072 1.7205 0.29953 0.45348 0.80957 1.099 1.147 1.4337 0.6064 0.60154 0.96776 0.52944 0.96776-1.6488 0-1.6281-0.01254-1.8077 0.32259-1.7922 0.1117 0.0052 0.22415 0.03584 0.43012 0.03584 3.3148 1.1011 3.8938 5.1954 6.0575 7.5987 0.65001 0.24744 2.3039 2.957 2.6882 4.3729 0.17482 0.64408 0.67938 1.5699 1.1111 2.0789 0.43175 0.50901 0.78855 1.2025 0.78855 1.5413s0.1664 1.0665 0.35843 1.6129c0.32375 0.9213 0.42763 0.97106 1.6488 0.89608l1.3262-0.07169v2.0431c4.4144 2.9394 0.27468 8.667-1.5413 8.1005 1.8013 0.77566 6.1987-5.1426 1.6488-8.1722v-2.0789l-1.3262 0.07169c-1.2405 0.07617-1.3916 0.0398-1.7205-0.89608-0.19507-0.5551-0.32259-1.3047-0.32259-1.6488s-0.3858-1.06-0.82439-1.5771c-0.43859-0.51706-0.93354-1.4605-1.1111-2.1147-0.3904-1.4382-2.0996-4.1573-2.7599-4.4087-2.1979-2.4414-2.7261-6.6235-6.0933-7.7421-0.20922 0-0.38833-0.03059-0.5018-0.03584zm0.96776 1.828c-0.16337-0.0037-0.22412 0.29325-0.32259 1.1111-0.71347 5.9259-1.0825 7.4912-1.7922 7.4912-0.58466 0-0.66252-0.64994-0.17922-1.5771 0.27342-0.52451 0.4847-1.7563 0.39427-1.7563-10.212 7.0607-16.355 12.839-21.47 24.983 1.2675 4.509 5.4642 7.5552 8.7457 5.3765 1.0749-1.4067 1.5304-3.0208 3.0467-4.1578 0.39196-0.19148 1.7623-0.71444 3.0467-1.147 3.2181-0.52252 4.0299-3.7313 6.2367-5.484 1.9059-0.99849 3.0108-1.8244 3.0108-2.2581 0-0.26881-0.35789-0.97036-0.82439-1.5771-1.5938-2.0729-1.1065-3.549 1.8997-5.5915 1.701-1.1557 1.8755-1.2107 3.5485-1.0394 0.97434 0.09975 1.8772 0.26504 1.9714 0.35843 0.09414 0.09339 0.23776 0.88056 0.32259 1.7563 0.16622 1.7161 0.46202 1.8548 0.53765 0.2509 0.02689-0.57009 0.34361-1.2056 0.71686-1.5054 0.63342-0.50881 0.65259-0.50696 0.07169-1.2187-0.32608-0.39947-0.60933-1.0755-0.60933-1.4696 0-0.88731-2.2106-4.8388-2.7958-4.8388-0.29102 0-0.17475 1.5396-0.21506 2.5449-0.03267 0.81466-0.13832 1.5729-0.2509 1.6846-0.54519 0.54082-0.86024-0.4176-0.86024-2.509 0-2.7603-0.36281-3.8478-1.9714-6.2725-0.71451-0.90433-1.0282-2.0131-1.828-2.8316-0.21748-0.19524-0.3321-0.32042-0.43012-0.32259zm-4.5162 0.57349-0.21506 1.8997c-0.30688 2.7367-0.28902 4.2295 0 4.2295 0.80437-0.62002 2.7718-1.7333 2.1147-2.7958-0.27848-0.22928-0.80328-1.0697-1.1828-1.8638l-0.71686-1.4696zm-3.0108 11.111c0.1861-0.04415 0.21506 0.23692 0.21506 0.78855 0 0.38171 0.64168 0.53765 1.0036 0.53765 1.0346 0 1.9714 1.3498 1.9714 2.8316-2.2016 5.7372-4.4031 2.4507-6.4518 3.9069-0.22086 0.29963-0.51906 0.44769-0.64518 0.32259-0.44123-0.4377-0.22746-1.5299 0.71686-3.5126 0.52362-1.0994 0.96776-2.1166 0.96776-2.2581 0-0.14151 0.52143-0.81629 1.147-1.5413 0.57767-0.66948 0.8892-1.0311 1.0753-1.0753zm1.1111 2.1864c-0.33578-0.0077-0.73544 0.07829-1.1828 0.14337-0.65333 0.09504-2.0981 2.2952-2.6165 3.9786-0.20169 0.65489 0.11822 0.96776 1.3262 0.96776 2.0912-0.0147 4.1897-2.1753 3.7277-3.7994-0.28873-1.0151-0.69489-1.2775-1.2545-1.2904zm12.187 1.6846c-0.93412 0-4.106 1.1269-4.7671 1.7205-0.93904 0.84302-0.83205 3.1235 0.21506 4.0861 0.80699 0.74191 0.88704 1.0772 0.32259 2.4373-0.15895 0.38303-0.12146 0.53765 0.21506 0.53765 0.8565 0 1.828 1.9838 1.828 3.7635 0 1.3728-0.55564 1.6844-1.2904 2.3656-2.6954 2.0123-9.1383 7.1409-11.685 8.3514-0.8315 0-0.60464 0.56795 0.39427 0.96776 4.3036 0.8758 8.498-3.4005 11.864-5.6274 3.9709-2.7914 10.265-8.2785 7.0969-13.262-0.33131-0.32865-1.2628-0.9593-2.0789-1.4337-1.2611-0.73314-1.4502-0.98101-1.2904-1.6129 0.29156-1.1524-0.12593-2.294-0.82439-2.294zm4.122 1.2187c-0.23753 0.05642-0.45381 0.33443-0.64518 1.0394-0.39033 1.438-0.01491 2.044 0.93192 2.1147 1.5136 0.6679 0.60615 0.66122 1.8638-0.39427 0.62784-0.36802 0.55657-1.8033-0.10753-2.0072-0.30545-0.09378-0.8439-0.26961-1.147-0.43012-0.40147-0.21261-0.65854-0.37901-0.89608-0.32259zm3.1184 4.1936c-0.20184 0.02629-0.45767 0.14947-0.68102 0.39427-0.232 0.34153-0.3567 1.0577-0.32259 1.5771s-0.0802 1.112-0.2509 1.3262c-0.48081 0.60332-0.02818 1.362 0.82439 1.362 2.5403-0.28903 1.843-4.8437 0.43012-4.6596zm-13.011 4.0503c-1.219 0.1372-2.5537 1.2163-3.4051 2.8674-0.73872 1.4327-1.1132 1.8074-2.8674 2.6882-1.1171 0.56093-2.5153 1.0325-3.0825 1.0753-1.1543 0.15536-2.0784 0.91779-2.7241 1.8997l-0.78855 1.2904 0.64518 0.96776c1.5129 2.1994 2.6599 2.296 5.3765 0.46596 2.5015-2.2521 5.5902-3.6717 8.1722-5.9141 0.7185-0.71776 1.1079-1.439 1.2187-2.2581 0.16007-1.1838 0.15971-1.2545-0.78855-1.2545-0.8972 0-1.0205 0.09613-1.1111 1.1828-0.08387 1.0055-0.19563 1.2096-0.89608 1.2904-0.55843 0.06437-0.98684 0.38611-1.2904 1.0394-0.345 0.74265-0.79239 1.1186-2.0789 1.5413-0.91673 0.3012-1.9393 0.75327-2.2581 1.0394-0.31879 0.28619-0.95601 0.53765-1.4337 0.53765-0.99991 0-1.9568 0.44204-2.975 1.362-1.183 1.0689-0.82612 0.2876 0.57349-1.2187 1.017-1.0945 1.5201-1.3979 2.294-1.3979 0.54814 0 1.5575-0.36457 2.1864-0.78855 0.62896-0.42397 1.4753-0.8621 1.8997-0.96776 0.46523-0.11584 0.89874-0.55293 1.1111-1.1111 0.23484-0.61718 0.56214-0.93192 1.0036-0.93192 0.51376 0 0.68102-0.17642 0.68102-0.86024 0-1.1368 0.51364-1.6363 1.7205-1.6488 0.91971-0.0095 0.94377-0.06261 0.35843-0.5018-0.45105-0.33844-0.98718-0.45664-1.5413-0.39427zm-18.961 1.1111c0.233 0.03668 0.58518 0.26508 0.89608 0.57349 0.98212 0.97426 0.8514 2.1834-0.2509 2.3298-0.43635 0.05795-0.94533 0.23579-1.1111 0.39427-0.4785 0.45735-0.78855 0.34474-0.78855-0.28674 0-0.82322 0.68275-2.7185 1.0753-2.975 0.04532-0.02961 0.10155-0.04806 0.17922-0.03584zm30.646 0.43012c-0.18054 0-1.2277 1.2965-2.294 2.9033-2.8741 4.2468-10.724 9.7473-15.448 10.896-2.9905 0.13612-3.1339 0.31584-3.9069-0.64518-1.0581-1.0731-2.6434-4.1795-4.2295-3.0825-0.08241 0.05822-0.17976 0.12097-0.28674 0.17922 1.6112-1.1144 3.1546 2.1 4.2295 3.19 0.78522 0.97622 0.9408 0.74761 3.9786 0.60933 4.799-1.1672 12.816-6.7257 15.735-11.04 1.0831-1.6323 2.1106-2.975 2.294-2.975-0.02068-0.01851-0.05215-0.01473-0.07169-0.03584z" color="#000000" fill="#fff" fill-rule="evenodd"/>
  </g>
  <g transform="matrix(1.9694 0 0 1.9698 -714.03 74.443)" fill="#71c000" stroke="#71c000" stroke-linejoin="bevel" stroke-width="3.379"></g>
  <text x="485.15189" y="423.46875" fill="#000000" font-family="'Limerick-Serial DB'" style="line-height:0%" xml:space="preserve"><tspan x="485.15189" y="423.46875"> </tspan></text>
  <text x="252.31175" y="459.32916" fill="#000000" font-family="'Limerick-Serial DB'" style="line-height:0%" xml:space="preserve"><tspan x="252.31175" y="459.32916"> </tspan></text>
 </g>
</svg>
