<?xml version="1.0" encoding="UTF-8"?>
<svg width="52.509" height="52.52" version="1.0" viewBox="0 0 52.509 52.52" xmlns="http://www.w3.org/2000/svg" xmlns:xlink="http://www.w3.org/1999/xlink">
 <defs>
  <linearGradient id="linearGradient13956" x1="46.592" x2="43.592" y1="89.585" y2="-74.733" gradientUnits="userSpaceOnUse">
   <stop stop-color="#15bd1d" offset="0"/>
   <stop stop-color="#76c771" offset="1"/>
  </linearGradient>
  <linearGradient id="linearGradient13966" x1="26.48" x2="26.48" y1="1.3939" y2="52.843" gradientUnits="userSpaceOnUse">
   <stop stop-color="#fff" offset="0"/>
   <stop stop-color="#fff" stop-opacity="0" offset="1"/>
  </linearGradient>
 </defs>
 <g transform="translate(-3.8191 -6.1557)">
  <g transform="translate(-840.83 182.27)" fill="#71c000" stroke="#71c000" stroke-linejoin="bevel" stroke-width="3.379"></g>
  <g transform="translate(-1426.6 -26.29)" fill="#71c000" stroke="#71c000" stroke-linejoin="bevel" stroke-width="3.379"></g>
  <rect x="4.9083" y="7.2196" width="50.731" height="50.549" ry="7.0914" color="black" fill="url(#linearGradient13956)" fill-rule="evenodd" stroke="#2b2b2b" stroke-width=".9965"/>
  <g transform="matrix(-.0039739 .6296 -.6296 -.0039739 295.58 -273.62)" fill="#fff"></g>
  <path transform="translate(3.8191 6.1557)" d="m2.1818 45.429-0.18182-37.636s1.0909-5.6364 5.4545-5.8182c4.3636-0.18182 37.455 0 37.455 0s5.8182 0 6 7.2727c0.18182 7.2727-0.18182 36.727-0.18182 36.727" color="black" fill="none" stroke="url(#linearGradient13966)"/>
  <g transform="matrix(.96302 0 0 .96302 1.8103 -1.7084)" fill="#fff">
   <path d="m29.699 46.098c0.06064-0.32839-3.3528 2.0951-6.0437 11.557 0.17338-11.34 0.90334-12.404-1.6001-13.238l7.6438 1.6811z" color="#000000"/>
   <path transform="matrix(1.0365 0 0 1.0365 -.92593 5.0634)" d="m43.712 30.407a13.885 13.885 0 0 1-13.885 13.885 13.885 13.885 0 0 1-13.885-13.885 13.885 13.885 0 0 1 13.885-13.885 13.885 13.885 0 0 1 13.885 13.885z" color="#000000" fill-rule="evenodd"/>
   <path d="m25.206 25.629c0 0.32763 2.8615-2.6186 3.7719-12.226 1.853 10.972 1.3383 12.128 3.902 12.486l-7.674-0.26013z" color="#000000"/>
   <path d="m21.977 29.834c0.17355 0.27788 1.0399-3.7368-3.2773-12.368 7.3837 8.3244 7.5596 9.5777 9.9239 8.5237l-6.6466 3.8444z" color="#000000"/>
   <path d="m35.885 27.059c-0.27788 0.17355 3.7368 1.0399 12.368-3.2773-8.3244 7.3837-9.5777 7.5596-8.5237 9.9239l-3.8444-6.6466z" color="#000000"/>
   <path d="m19.557 36.53c0.32711 0.018444-2.4534-3.0044-11.995-4.4543 11.059-1.2324 12.184-0.65334 12.686-3.1928l-0.69176 7.6471z" color="#000000"/>
   <path d="m26.306 44.315c0.1696-0.28031-3.8038 0.75913-9.5564 8.508 4.0944-10.347 5.1333-11.069 3.1254-12.703l6.431 4.1951z" color="#000000"/>
   <path d="m37.266 42.196c-0.17224-0.27869-1.0574 3.7319 3.2192 12.383-7.3445-8.3589-7.5145-9.6131-9.8838-8.5701l6.6646-3.8132z" color="#000000"/>
   <path d="m37.988 36.031c-0.3193-0.07339 1.911 3.3754 11.071 6.4151-11.108-0.65206-12.12-1.4128-13.043 1.0055l1.9727-7.4206z" color="#000000"/>
   <path d="m36.797 29.895c-0.32722-0.01641 2.4719 2.9891 12.022 4.3798-11.051 1.3009-12.18 0.7289-12.666 3.2715l0.64431-7.6513z" color="#000000"/>
   <path d="m27.82 26.505c-0.0779 0.31823 3.402-1.8632 6.5707-10.979-0.80882 11.098-1.5837 12.098 0.8213 13.056l-7.392-2.0773z" color="#000000"/>
   <path d="m20.196 33.414c0.26335 0.1949-0.40262-3.8578-7.5838-10.305 9.9216 5.0375 10.545 6.139 12.358 4.2915l-4.7742 6.0137z" color="#000000"/>
   <path d="m35.42 29.783c-0.31204 0.09984 3.3661 1.9273 12.794-0.13349-9.8852 5.1086-11.143 4.9706-10.703 7.5217l-2.0909-7.3882z" color="#000000"/>
   <path d="m33.324 24.208c-0.19964 0.25978 3.8645-0.33272 10.441-7.396-5.2162 9.8288-6.3289 10.432-4.5145 12.278l-5.9263-4.8823z" color="#000000"/>
   <path d="m22.089 41.928c0.28858-0.15511-3.6613-1.2807-12.555 2.466 8.787-6.8267 10.049-6.9206 9.151-9.3486l3.404 6.8826z" color="#000000"/>
   <path d="m34.321 43.72c0.01016-0.32747-2.9413 2.5286-4.1493 12.103-1.5118-11.024-0.96144-12.164-3.5128-12.601l7.6622 0.49803z" color="#000000"/>
   <path d="m38.606 39.324c-0.26317-0.19515 0.39902 3.8582 7.5742 10.312-9.9169-5.0467-10.539-6.1489-12.354-4.303l4.7798-6.0092z" color="#000000"/>
   <path d="m22.442 40.83c0.32731-0.01439-2.7418-2.7437-12.38-3.2311 10.88-2.3333 12.058-1.8698 12.303-4.4468l0.07727 7.678z" color="#000000"/>
  </g>
 </g>
</svg>
