<?xml version="1.0" encoding="UTF-8"?>
<svg width="52.509" height="52.52" version="1.0" viewBox="0 0 52.509 52.52" xmlns="http://www.w3.org/2000/svg" xmlns:xlink="http://www.w3.org/1999/xlink">
 <defs>
  <linearGradient id="linearGradient13966" x1="26.48" x2="26.48" y1="1.3939" y2="52.843" gradientUnits="userSpaceOnUse">
   <stop stop-color="#fff" offset="0"/>
   <stop stop-color="#fff" stop-opacity="0" offset="1"/>
  </linearGradient>
 </defs>
 <g transform="translate(-3.8191 -6.1557)">
  <g transform="translate(-840.83 182.27)" fill="#71c000" stroke="#71c000" stroke-linejoin="bevel" stroke-width="3.379"></g>
  <g transform="translate(-1426.6 -26.29)" fill="#71c000" stroke="#71c000" stroke-linejoin="bevel" stroke-width="3.379"></g>
  <rect x="4.9083" y="7.2196" width="50.731" height="50.549" rx="7.0914" ry="7.0914" color="#000000" fill="#316989" fill-rule="evenodd" stroke="#2b2b2b" stroke-width=".997"/>
  <g transform="matrix(-.0039739 .6296 -.6296 -.0039739 295.58 -273.62)" fill="#fff"></g>
  <path transform="translate(3.8191 6.1557)" d="m2.1818 45.429-0.18182-37.636s1.0909-5.6364 5.4545-5.8182c4.3636-0.18182 37.455 0 37.455 0s5.8182 0 6 7.2727c0.18182 7.2727-0.18182 36.727-0.18182 36.727" color="black" fill="none" stroke="url(#linearGradient13966)"/>
  <g transform="matrix(.96869 0 0 .96869 -53.224 -49.457)">
   <path d="m92.599 89.503c-0.39078-0.4968-0.54115-0.99166-0.4456-1.4665 0.07932-0.39416 0.84437-4.8018 1.7001-9.7949 1.0928-6.3759 1.7059-9.2854 2.0599-9.7742 1.0314-1.4244 3.4444-1.3752 3.8091 0.07766 0.0908 0.36169-0.59746 5.0482-1.5294 10.415-1.6628 9.5747-1.7102 9.7713-2.536 10.525-1.1089 1.0122-2.2708 1.0191-3.058 0.01832z" fill="#a7c439"/>
   <g fill="#fff">
    <path d="m110.47 85.783h-0.83799c-0.48086 0-1.0899-0.25189-1.4291-0.59107-0.52308-0.52309-0.56937-0.78815-0.40238-2.3045 0.23568-2.1401 0.90537-3.5607 1.9013-4.0331l0.76815-0.3644 0.27934-0.04658v7.3309l-0.27934 0.0087z"/>
    <path d="m76.114 100.93c-0.33847-0.27407-0.62919-0.80829-0.64606-1.1871-0.01686-0.37886 0.71207-4.9626 1.6198-10.186 1.5447-8.8881 1.6992-9.5465 2.4093-10.265 1.3069-1.3231 3.595-0.7719 3.595 0.86599 0 0.42046-0.74583 5.0322-1.6574 10.248-1.6378 9.3717-1.6676 9.493-2.5184 10.253-0.9949 0.88895-1.9278 0.97915-2.8023 0.27096z"/>
    <path d="m83.788 98.526c-0.34459-0.25197-0.52276-0.71327-0.51246-1.3268 0.0087-0.5173 0.98129-6.4713 2.1613-13.231 2.243-12.849 2.3689-13.303 3.8955-14.052 1.1703-0.41245 2.2271 0.34723 2.5218 0.8379 0.3116 0.60735-0.26028 3.7017-1.8789 13.128-1.1951 6.9602-2.3073 13.006-2.4715 13.434-0.56343 1.4701-2.4978 2.0993-3.7158 1.2088z"/>
    <path d="m69.405 96.398c-0.72264-0.72264-0.71274-0.95834 0.27605-6.5731 0.45909-2.6069 0.83618-4.8244 0.83799-4.9278 0.0018-0.10344 0.3287-0.57481 0.72644-1.0475 1.2879-1.5306 3.7666-0.9739 3.7339 0.83855-0.0067 0.37198-0.42692 2.9913-0.93377 5.8206-0.8397 4.6874-0.98886 5.2022-1.6793 5.7961-0.93118 0.80097-2.2131 0.8413-2.9613 0.09316z"/>
    <path d="m63.164 89.462c-0.54031-0.59704-0.58433-1.6859-0.15002-3.711 0.3785-1.7649 1.2759-2.7614 2.4867-2.7614 1.9774 0 2.3826 0.83313 1.8267 3.7567-0.28247 1.4857-0.54436 2.0918-1.1163 2.5838-0.91556 0.78753-2.3958 0.85161-3.0471 0.13192z"/>
    <path d="m101.08 85.57c-0.90812-0.60637-0.90345-1.2968 0.0457-6.7726 0.90391-5.2145 0.98025-5.4768 1.8121-6.228 1.0824-0.97738 2.3392-0.9426 3.1024 0.08586 0.50816 0.68483 0.5019 0.79278-0.32404 5.5866-1.0866 6.3066-1.0271 6.0812-1.8135 6.8676-0.67067 0.67067-2.1471 0.91154-2.8227 0.46049z"/>
   </g>
  </g>
 </g>
</svg>
