<?xml version="1.0" encoding="UTF-8"?>
<svg width="52.509" height="52.52" version="1.0" viewBox="0 0 52.509 52.52" xmlns="http://www.w3.org/2000/svg" xmlns:xlink="http://www.w3.org/1999/xlink">
 <defs>
  <linearGradient id="linearGradient13966" x1="26.48" x2="26.48" y1="1.3939" y2="52.843" gradientUnits="userSpaceOnUse">
   <stop stop-color="#fff" offset="0"/>
   <stop stop-color="#fff" stop-opacity="0" offset="1"/>
  </linearGradient>
  <linearGradient id="linearGradient45717" x1="26.48" x2="26.48" y1="1.3939" y2="52.843" gradientTransform="translate(3.8646 6.0875)" gradientUnits="userSpaceOnUse">
   <stop stop-color="#fff" offset="0"/>
   <stop stop-color="#fff" stop-opacity="0" offset="1"/>
  </linearGradient>
  <linearGradient id="linearGradient45721" x1="46.592" x2="43.592" y1="89.585" y2="-74.733" gradientTransform="translate(.045477 -.068185)" gradientUnits="userSpaceOnUse">
   <stop stop-color="#dbdbdb" offset="0"/>
   <stop stop-color="#fff" offset="1"/>
  </linearGradient>
  <style type="text/css">.str1 {stroke:#373435;stroke-width:0.19326}
    .str0 {stroke:#373435;stroke-width:0.19326;stroke-linejoin:bevel}
    .fil1 {fill:none}
    .fil7 {fill:#00AFEF}
    .fil6 {fill:#ED3237}
    .fil5 {fill:#F58634}
    .fil8 {fill:#FFF212}
    .fil2 {fill:#000203}
    .fil3 {fill:#030101}
    .fil4 {fill:#030201}
    .fil0 {fill:#030300}</style>
 </defs>
 <g transform="translate(-3.8191 -6.1557)">
  <rect x="4.9538" y="7.1514" width="50.731" height="50.549" rx="7.0914" ry="7.0914" color="#000000" fill="url(#linearGradient45721)" fill-rule="evenodd" stroke="#2b2b2b" stroke-width=".997"/>
  <path d="m6.0464 51.517-0.18182-37.636s1.0909-5.6364 5.4545-5.8182c4.3636-0.18182 37.455 0 37.455 0s5.8182 0 6 7.2727c0.18182 7.2727-0.18182 36.727-0.18182 36.727" color="#000000" fill="none" stroke="url(#linearGradient45717)"/>
  <g transform="translate(-840.83 182.27)" fill="#71c000" stroke="#71c000" stroke-linejoin="bevel" stroke-width="3.379"></g>
  <g transform="translate(-1426.6 -26.29)" fill="#71c000" stroke="#71c000" stroke-linejoin="bevel" stroke-width="3.379"></g>
  <path transform="translate(3.8191 6.1557)" d="m2.1818 45.429-0.18182-37.636s1.0909-5.6364 5.4545-5.8182c4.3636-0.18182 37.455 0 37.455 0s5.8182 0 6 7.2727c0.18182 7.2727-0.18182 36.727-0.18182 36.727" color="#000000" fill="none" stroke="url(#linearGradient13966)"/>
  <g transform="translate(-754.29 187.45)" fill="#71c000" stroke="#71c000" stroke-linejoin="bevel" stroke-width="3.379"></g>
  <g transform="translate(-1340.1 -21.108)" fill="#71c000" stroke="#71c000" stroke-linejoin="bevel" stroke-width="3.379"></g>
  <g transform="translate(-727.65 184.91)" fill="#71c000" stroke="#71c000" stroke-linejoin="bevel" stroke-width="3.379"></g>
  <g transform="translate(-1313.4 -23.649)" fill="#71c000" stroke="#71c000" stroke-linejoin="bevel" stroke-width="3.379"></g>
  <g transform="translate(-790.62 185.07)" fill="#71c000" stroke="#71c000" stroke-linejoin="bevel" stroke-width="3.379"></g>
  <g transform="translate(-1376.4 -23.49)" fill="#71c000" stroke="#71c000" stroke-linejoin="bevel" stroke-width="3.379"></g>
  <g transform="translate(-787.81 182.24)" fill="#71c000" stroke="#71c000" stroke-linejoin="bevel" stroke-width="3.379"></g>
  <g transform="translate(-1373.6 -26.319)" fill="#71c000" stroke="#71c000" stroke-linejoin="bevel" stroke-width="3.379"></g>
  <g transform="translate(-701.26 187.42)" fill="#71c000" stroke="#71c000" stroke-linejoin="bevel" stroke-width="3.379"></g>
  <g transform="translate(-1287 -21.137)" fill="#71c000" stroke="#71c000" stroke-linejoin="bevel" stroke-width="3.379"></g>
  <g transform="translate(-674.63 184.88)" fill="#71c000" stroke="#71c000" stroke-linejoin="bevel" stroke-width="3.379"></g>
  <g transform="translate(-1260.4 -23.678)" fill="#71c000" stroke="#71c000" stroke-linejoin="bevel" stroke-width="3.379"></g>
  <g transform="translate(-737.6 185.04)" fill="#71c000" stroke="#71c000" stroke-linejoin="bevel" stroke-width="3.379"></g>
  <g transform="translate(-1323.4 -23.52)" fill="#71c000" stroke="#71c000" stroke-linejoin="bevel" stroke-width="3.379"></g>
  <g transform="translate(-786.75 181.68)" fill="#71c000" stroke="#71c000" stroke-linejoin="bevel" stroke-width="3.379"></g>
  <g transform="translate(-1372.5 -26.881)" fill="#71c000" stroke="#71c000" stroke-linejoin="bevel" stroke-width="3.379"></g>
  <g transform="translate(-700.2 186.86)" fill="#71c000" stroke="#71c000" stroke-linejoin="bevel" stroke-width="3.379"></g>
  <g transform="translate(-1286 -21.699)" fill="#71c000" stroke="#71c000" stroke-linejoin="bevel" stroke-width="3.379"></g>
  <g transform="translate(-673.57 184.32)" fill="#71c000" stroke="#71c000" stroke-linejoin="bevel" stroke-width="3.379"></g>
  <g transform="translate(-1259.3 -24.24)" fill="#71c000" stroke="#71c000" stroke-linejoin="bevel" stroke-width="3.379"></g>
  <g transform="translate(-736.54 184.48)" fill="#71c000" stroke="#71c000" stroke-linejoin="bevel" stroke-width="3.379"></g>
  <g transform="translate(-1322.3 -24.081)" fill="#71c000" stroke="#71c000" stroke-linejoin="bevel" stroke-width="3.379"></g>
  <g transform="translate(-787.78 183.3)" fill="#71c000" stroke="#71c000" stroke-linejoin="bevel" stroke-width="3.379"></g>
  <g transform="translate(-1373.6 -25.263)" fill="#71c000" stroke="#71c000" stroke-linejoin="bevel" stroke-width="3.379"></g>
  <g transform="translate(-701.23 188.48)" fill="#71c000" stroke="#71c000" stroke-linejoin="bevel" stroke-width="3.379"></g>
  <g transform="translate(-1287 -20.081)" fill="#71c000" stroke="#71c000" stroke-linejoin="bevel" stroke-width="3.379"></g>
  <g transform="translate(-674.59 185.94)" fill="#71c000" stroke="#71c000" stroke-linejoin="bevel" stroke-width="3.379"></g>
  <g transform="translate(-1260.4 -22.622)" fill="#71c000" stroke="#71c000" stroke-linejoin="bevel" stroke-width="3.379"></g>
  <g transform="translate(-737.57 186.1)" fill="#71c000" stroke="#71c000" stroke-linejoin="bevel" stroke-width="3.379"></g>
  <g transform="translate(-1323.3 -22.464)" fill="#71c000" stroke="#71c000" stroke-linejoin="bevel" stroke-width="3.379"></g>
  <g transform="translate(-784.91 184.78)" fill="#71c000" stroke="#71c000" stroke-linejoin="bevel" stroke-width="3.379"></g>
  <g transform="translate(-1370.7 -23.784)" fill="#71c000" stroke="#71c000" stroke-linejoin="bevel" stroke-width="3.379"></g>
  <g transform="translate(-698.37 189.96)" fill="#71c000" stroke="#71c000" stroke-linejoin="bevel" stroke-width="3.379"></g>
  <g transform="translate(-1284.1 -18.602)" fill="#71c000" stroke="#71c000" stroke-linejoin="bevel" stroke-width="3.379"></g>
  <g transform="translate(-671.73 187.42)" fill="#71c000" stroke="#71c000" stroke-linejoin="bevel" stroke-width="3.379"></g>
  <g transform="translate(-1257.5 -21.143)" fill="#71c000" stroke="#71c000" stroke-linejoin="bevel" stroke-width="3.379"></g>
  <g transform="translate(-734.71 187.58)" fill="#71c000" stroke="#71c000" stroke-linejoin="bevel" stroke-width="3.379"></g>
  <g transform="translate(-1320.5 -20.985)" fill="#71c000" stroke="#71c000" stroke-linejoin="bevel" stroke-width="3.379"></g>
  <g transform="translate(-718 181.35)" fill="#71c000" stroke="#71c000" stroke-linejoin="bevel" stroke-width="3.379"></g>
  <g transform="translate(-1303.8 -27.211)" fill="#71c000" stroke="#71c000" stroke-linejoin="bevel" stroke-width="3.379"></g>
  <g transform="translate(-631.46 186.53)" fill="#71c000" stroke="#71c000" stroke-linejoin="bevel" stroke-width="3.379"></g>
  <g transform="translate(-1217.2 -22.029)" fill="#71c000" stroke="#71c000" stroke-linejoin="bevel" stroke-width="3.379"></g>
  <g transform="translate(-604.82 183.99)" fill="#71c000" stroke="#71c000" stroke-linejoin="bevel" stroke-width="3.379"></g>
  <g transform="translate(-1190.6 -24.57)" fill="#71c000" stroke="#71c000" stroke-linejoin="bevel" stroke-width="3.379"></g>
  <g transform="translate(-667.79 184.15)" fill="#71c000" stroke="#71c000" stroke-linejoin="bevel" stroke-width="3.379"></g>
  <g transform="translate(-1253.6 -24.412)" fill="#71c000" stroke="#71c000" stroke-linejoin="bevel" stroke-width="3.379"></g>
  <g transform="matrix(.20702 0 0 .20702 -203.86 -287.58)">
   <rect x="1041.4" y="1453.8" width="182.91" height="183.59" stroke="#ef4b41" stroke-linecap="round" stroke-width="8"/>
   <g fill="#ffd42a">
    <rect x="1100.9" y="1538.4" width="13" height="13"/>
    <rect x="1149.1" y="1494.9" width="13" height="13"/>
    <rect x="1195.3" y="1467.7" width="13" height="13"/>
    <rect x="1195.3" y="1522.8" width="13" height="13"/>
    <rect x="1194.6" y="1556.8" width="13" height="13"/>
    <rect x="1149.1" y="1582.7" width="13" height="13"/>
    <rect x="1195.3" y="1611.2" width="13" height="13"/>
   </g>
   <g fill="none" stroke="#ffd42a" stroke-width="2.5">
    <path d="m1056.3 1545 50.554 0.041-0.2403-44.235 48.274 0.6799v-27.876h45.554"/>
    <path d="m1155.2 1502.3-0.1614 26.317h46.114"/>
    <path d="m1154.9 1589.6-0.041-26.956h45.554"/>
    <path d="m1154.9 1594.1-0.041 23.598 46.872-0.041"/>
    <path d="m1107.3 1547.7-0.041 42.154h48.995"/>
   </g>
  </g>
 </g>
</svg>
