<?xml version="1.0" encoding="UTF-8"?>
<svg width="52.509" height="52.52" version="1.0" viewBox="0 0 52.509 52.52" xmlns="http://www.w3.org/2000/svg" xmlns:xlink="http://www.w3.org/1999/xlink">
 <defs>
  <linearGradient id="linearGradient13956" x1="46.592" x2="43.592" y1="89.585" y2="-74.733" gradientUnits="userSpaceOnUse">
   <stop stop-color="#ef1209" offset="0"/>
   <stop stop-color="#fff" offset="1"/>
  </linearGradient>
  <linearGradient id="linearGradient13966" x1="26.48" x2="26.48" y1="1.3939" y2="52.843" gradientUnits="userSpaceOnUse">
   <stop stop-color="#fff" offset="0"/>
   <stop stop-color="#fff" stop-opacity="0" offset="1"/>
  </linearGradient>
 </defs>
 <g transform="translate(-3.8191 -6.1557)">
  <g transform="translate(-840.83 182.27)" fill="#71c000" stroke="#71c000" stroke-linejoin="bevel" stroke-width="3.379"></g>
  <g transform="translate(-1426.6 -26.29)" fill="#71c000" stroke="#71c000" stroke-linejoin="bevel" stroke-width="3.379"></g>
  <rect x="4.9083" y="7.2196" width="50.731" height="50.549" ry="7.0914" color="#000000" fill="url(#linearGradient13956)" fill-rule="evenodd" stroke="#2b2b2b" stroke-width=".997"/>
  <g transform="matrix(-.0039739 .6296 -.6296 -.0039739 295.58 -273.62)" fill="#fff"></g>
  <path transform="translate(3.8191 6.1557)" d="m2.1818 45.429-0.18182-37.636s1.0909-5.6364 5.4545-5.8182c4.3636-0.18182 37.455 0 37.455 0s5.8182 0 6 7.2727c0.18182 7.2727-0.18182 36.727-0.18182 36.727" color="black" fill="none" stroke="url(#linearGradient13966)"/>
  <path d="m27.767 25.625c-3.0405 0.22049-3.3568 0.54895-3.9267 1.1552-0.80277 0.85476-1.8609-1.1103-1.8609-1.1103-0.63407-0.13386-1.4037-1.1573-0.98862-2.1128 0.40843-0.94501 1.1642-0.66187 1.4003-0.36673 0.28847 0.35797 0.9035 0.94367 1.7009 0.92273 0.79782-0.02098 1.7185-0.18927 3.0026-0.18927 1.3013 0 2.1772 0.48631 2.2255 0.9035 0.04189 0.35626-0.10568 0.69348-1.5532 0.79764m3.1934-5.025c-0.0051 0.0022-0.0086 0.0022-0.01371 0.0022-0.04684 0-0.08511-0.0364-0.08511-0.07975 0-0.03137 0.01904-0.05919 0.04856-0.0714 0.58913-0.31265 1.4681-0.55943 2.4742-0.66186 0.30237-0.03137 0.5977-0.047 0.88084-0.05042 0.05027 0 0.10073 0.0022 0.151 0.0022 1.687 0.03843 3.039 0.7089 3.018 1.498-0.02075 0.78868-1.4037 1.3969-3.0908 1.3603-0.54572-0.01392-1.0583-0.09195-1.4995-0.21879-0.05198-0.01413-0.09044-0.05919-0.09044-0.1112 0-0.05384 0.03846-0.09731 0.09044-0.11101 1.053-0.24335 1.7636-0.64131 1.7131-1.0183-0.06607-0.49868-1.442-0.76964-3.0753-0.60455-0.17708 0.01712-0.35283 0.0396-0.52135 0.06573zm13.707 11.81c-0.25877 0.87551-0.62893 1.9928-2.2745 2.839-0.23973 0.12148-0.3317-0.07997-0.22069-0.26924 0.62208-1.0564 0.73156-1.3224 0.91245-1.7394 0.25344-0.60989 0.38577-1.4787-0.11653-3.2892-0.99052-3.5618-3.0563-8.324-4.5577-9.8688-1.4473-1.4909-4.0727-1.9096-6.446-1.3013-0.87228 0.22392-2.582 1.1139-5.7527 0.39948-5.4871-1.2354-6.3001 1.5115-6.6145 2.7088-0.31456 1.1973-1.0703 4.5975-1.0703 4.5975-0.25191 1.3866-0.58209 3.7949 7.9369 5.4176 3.9684 0.75574 4.1698 1.7809 4.3471 2.5193 0.31456 1.3222 0.81839 2.0797 1.3851 2.4567 0.56628 0.37892 0 0.69158-0.62912 0.75574-1.6905 0.17537-7.9369-1.6158-11.633-3.7165-3.0247-1.847-3.0753-3.5114-2.3836-4.9225-4.5661-0.49506-7.9944 0.42767-8.6163 2.5888-1.0669 3.7132 8.1591 10.05 18.664 13.231 11.023 3.3375 22.362 1.0077 23.621-5.9214 0.57161-3.1483-2.0799-5.4762-6.5523-6.4858z" fill="#fff"/>
 </g>
</svg>
