<?xml version="1.0" encoding="UTF-8"?>
<svg width="52.509" height="52.52" version="1.0" viewBox="0 0 52.509 52.52" xmlns="http://www.w3.org/2000/svg" xmlns:xlink="http://www.w3.org/1999/xlink">
 <defs>
  <linearGradient id="linearGradient13966" x1="26.48" x2="26.48" y1="1.3939" y2="52.843" gradientUnits="userSpaceOnUse">
   <stop stop-color="#fff" offset="0"/>
   <stop stop-color="#fff" stop-opacity="0" offset="1"/>
  </linearGradient>
  <linearGradient id="linearGradient45717" x1="26.48" x2="26.48" y1="1.3939" y2="52.843" gradientTransform="translate(3.8646 6.0875)" gradientUnits="userSpaceOnUse">
   <stop stop-color="#fff" offset="0"/>
   <stop stop-color="#fff" stop-opacity="0" offset="1"/>
  </linearGradient>
  <linearGradient id="linearGradient45721" x1="46.592" x2="43.592" y1="89.585" y2="-74.733" gradientTransform="translate(.045477 -.068185)" gradientUnits="userSpaceOnUse">
   <stop stop-color="#dbdbdb" offset="0"/>
   <stop stop-color="#fff" offset="1"/>
  </linearGradient>
  <style type="text/css">.str1 {stroke:#373435;stroke-width:0.19326}
    .str0 {stroke:#373435;stroke-width:0.19326;stroke-linejoin:bevel}
    .fil1 {fill:none}
    .fil7 {fill:#00AFEF}
    .fil6 {fill:#ED3237}
    .fil5 {fill:#F58634}
    .fil8 {fill:#FFF212}
    .fil2 {fill:#000203}
    .fil3 {fill:#030101}
    .fil4 {fill:#030201}
    .fil0 {fill:#030300}</style>
  <style type="text/css"/>
 </defs>
 <g transform="translate(-3.8191 -6.1557)">
  <rect x="4.9538" y="7.1514" width="50.731" height="50.549" rx="7.0914" ry="7.0914" color="#000000" fill="url(#linearGradient45721)" fill-rule="evenodd" stroke="#2b2b2b" stroke-width=".997"/>
  <path d="m6.0464 51.517-0.18182-37.636s1.0909-5.6364 5.4545-5.8182c4.3636-0.18182 37.455 0 37.455 0s5.8182 0 6 7.2727c0.18182 7.2727-0.18182 36.727-0.18182 36.727" color="#000000" fill="none" stroke="url(#linearGradient45717)"/>
  <g transform="translate(-840.83 182.27)" fill="#71c000" stroke="#71c000" stroke-linejoin="bevel" stroke-width="3.379"></g>
  <g transform="translate(-1426.6 -26.29)" fill="#71c000" stroke="#71c000" stroke-linejoin="bevel" stroke-width="3.379"></g>
  <path transform="translate(3.8191 6.1557)" d="m2.1818 45.429-0.18182-37.636s1.0909-5.6364 5.4545-5.8182c4.3636-0.18182 37.455 0 37.455 0s5.8182 0 6 7.2727c0.18182 7.2727-0.18182 36.727-0.18182 36.727" color="#000000" fill="none" stroke="url(#linearGradient13966)"/>
  <g transform="translate(-754.29 187.45)" fill="#71c000" stroke="#71c000" stroke-linejoin="bevel" stroke-width="3.379"></g>
  <g transform="translate(-1340.1 -21.108)" fill="#71c000" stroke="#71c000" stroke-linejoin="bevel" stroke-width="3.379"></g>
  <g transform="translate(-727.65 184.91)" fill="#71c000" stroke="#71c000" stroke-linejoin="bevel" stroke-width="3.379"></g>
  <g transform="translate(-1313.4 -23.649)" fill="#71c000" stroke="#71c000" stroke-linejoin="bevel" stroke-width="3.379"></g>
  <g transform="translate(-790.62 185.07)" fill="#71c000" stroke="#71c000" stroke-linejoin="bevel" stroke-width="3.379"></g>
  <g transform="translate(-1376.4 -23.49)" fill="#71c000" stroke="#71c000" stroke-linejoin="bevel" stroke-width="3.379"></g>
  <g transform="translate(-787.81 182.24)" fill="#71c000" stroke="#71c000" stroke-linejoin="bevel" stroke-width="3.379"></g>
  <g transform="translate(-1373.6 -26.319)" fill="#71c000" stroke="#71c000" stroke-linejoin="bevel" stroke-width="3.379"></g>
  <g transform="translate(-701.26 187.42)" fill="#71c000" stroke="#71c000" stroke-linejoin="bevel" stroke-width="3.379"></g>
  <g transform="translate(-1287 -21.137)" fill="#71c000" stroke="#71c000" stroke-linejoin="bevel" stroke-width="3.379"></g>
  <g transform="translate(-674.63 184.88)" fill="#71c000" stroke="#71c000" stroke-linejoin="bevel" stroke-width="3.379"></g>
  <g transform="translate(-1260.4 -23.678)" fill="#71c000" stroke="#71c000" stroke-linejoin="bevel" stroke-width="3.379"></g>
  <g transform="translate(-737.6 185.04)" fill="#71c000" stroke="#71c000" stroke-linejoin="bevel" stroke-width="3.379"></g>
  <g transform="translate(-1323.4 -23.52)" fill="#71c000" stroke="#71c000" stroke-linejoin="bevel" stroke-width="3.379"></g>
  <g transform="translate(-786.75 181.68)" fill="#71c000" stroke="#71c000" stroke-linejoin="bevel" stroke-width="3.379"></g>
  <g transform="translate(-1372.5 -26.881)" fill="#71c000" stroke="#71c000" stroke-linejoin="bevel" stroke-width="3.379"></g>
  <g transform="translate(-700.2 186.86)" fill="#71c000" stroke="#71c000" stroke-linejoin="bevel" stroke-width="3.379"></g>
  <g transform="translate(-1286 -21.699)" fill="#71c000" stroke="#71c000" stroke-linejoin="bevel" stroke-width="3.379"></g>
  <g transform="translate(-673.57 184.32)" fill="#71c000" stroke="#71c000" stroke-linejoin="bevel" stroke-width="3.379"></g>
  <g transform="translate(-1259.3 -24.24)" fill="#71c000" stroke="#71c000" stroke-linejoin="bevel" stroke-width="3.379"></g>
  <g transform="translate(-736.54 184.48)" fill="#71c000" stroke="#71c000" stroke-linejoin="bevel" stroke-width="3.379"></g>
  <g transform="translate(-1322.3 -24.081)" fill="#71c000" stroke="#71c000" stroke-linejoin="bevel" stroke-width="3.379"></g>
  <g transform="translate(-787.78 183.3)" fill="#71c000" stroke="#71c000" stroke-linejoin="bevel" stroke-width="3.379"></g>
  <g transform="translate(-1373.6 -25.263)" fill="#71c000" stroke="#71c000" stroke-linejoin="bevel" stroke-width="3.379"></g>
  <g transform="translate(-701.23 188.48)" fill="#71c000" stroke="#71c000" stroke-linejoin="bevel" stroke-width="3.379"></g>
  <g transform="translate(-1287 -20.081)" fill="#71c000" stroke="#71c000" stroke-linejoin="bevel" stroke-width="3.379"></g>
  <g transform="translate(-674.59 185.94)" fill="#71c000" stroke="#71c000" stroke-linejoin="bevel" stroke-width="3.379"></g>
  <g transform="translate(-1260.4 -22.622)" fill="#71c000" stroke="#71c000" stroke-linejoin="bevel" stroke-width="3.379"></g>
  <g transform="translate(-737.57 186.1)" fill="#71c000" stroke="#71c000" stroke-linejoin="bevel" stroke-width="3.379"></g>
  <g transform="translate(-1323.3 -22.464)" fill="#71c000" stroke="#71c000" stroke-linejoin="bevel" stroke-width="3.379"></g>
  <g transform="translate(-784.91 184.78)" fill="#71c000" stroke="#71c000" stroke-linejoin="bevel" stroke-width="3.379"></g>
  <g transform="translate(-1370.7 -23.784)" fill="#71c000" stroke="#71c000" stroke-linejoin="bevel" stroke-width="3.379"></g>
  <g transform="translate(-698.37 189.96)" fill="#71c000" stroke="#71c000" stroke-linejoin="bevel" stroke-width="3.379"></g>
  <g transform="translate(-1284.1 -18.602)" fill="#71c000" stroke="#71c000" stroke-linejoin="bevel" stroke-width="3.379"></g>
  <g transform="translate(-671.73 187.42)" fill="#71c000" stroke="#71c000" stroke-linejoin="bevel" stroke-width="3.379"></g>
  <g transform="translate(-1257.5 -21.143)" fill="#71c000" stroke="#71c000" stroke-linejoin="bevel" stroke-width="3.379"></g>
  <g transform="translate(-734.71 187.58)" fill="#71c000" stroke="#71c000" stroke-linejoin="bevel" stroke-width="3.379"></g>
  <g transform="translate(-1320.5 -20.985)" fill="#71c000" stroke="#71c000" stroke-linejoin="bevel" stroke-width="3.379"></g>
  <g transform="translate(-718 181.35)" fill="#71c000" stroke="#71c000" stroke-linejoin="bevel" stroke-width="3.379"></g>
  <g transform="translate(-1303.8 -27.211)" fill="#71c000" stroke="#71c000" stroke-linejoin="bevel" stroke-width="3.379"></g>
  <g transform="translate(-631.46 186.53)" fill="#71c000" stroke="#71c000" stroke-linejoin="bevel" stroke-width="3.379"></g>
  <g transform="translate(-1217.2 -22.029)" fill="#71c000" stroke="#71c000" stroke-linejoin="bevel" stroke-width="3.379"></g>
  <g transform="translate(-604.82 183.99)" fill="#71c000" stroke="#71c000" stroke-linejoin="bevel" stroke-width="3.379"></g>
  <g transform="translate(-1190.6 -24.57)" fill="#71c000" stroke="#71c000" stroke-linejoin="bevel" stroke-width="3.379"></g>
  <g transform="translate(-667.79 184.15)" fill="#71c000" stroke="#71c000" stroke-linejoin="bevel" stroke-width="3.379"></g>
  <g transform="translate(-1253.6 -24.412)" fill="#71c000" stroke="#71c000" stroke-linejoin="bevel" stroke-width="3.379"></g>
  <g transform="matrix(.1432 0 0 .1432 82.427 -26.735)">
   <g transform="matrix(3.5433 0 0 3.5433 -3.5917 -49.604)" fill-rule="evenodd">
    <g transform="translate(-91.605 -12.124)">
     <g transform="matrix(1.5042 0 0 -1.5042 -48.192 122.19)">
      <path d="m0 0 3.45 0.323c0.213-1.158 0.635-2.012 1.27-2.558 0.638-0.542 1.5-0.812 2.583-0.812 1.144 0 2.008 0.245 2.595 0.726 0.58 0.492 0.867 1.053 0.867 1.695 0 0.417-0.123 0.78-0.364 1.072-0.245 0.287-0.671 0.547-1.277 0.753-0.419 0.16-1.367 0.415-2.844 0.79-1.905 0.469-3.243 1.056-4.004 1.745-1.08 0.98-1.622 2.174-1.622 3.572 0 0.9 0.249 1.751 0.765 2.527 0.506 0.788 1.244 1.387 2.205 1.803 0.958 0.4 2.105 0.609 3.472 0.609 2.209 0 3.872-0.489 4.994-1.461 1.119-0.99 1.702-2.289 1.757-3.919l-3.572-0.12c-0.158 0.89-0.474 1.546-0.98 1.948-0.496 0.399-1.247 0.599-2.241 0.599-1.031 0-1.841-0.212-2.421-0.644-0.38-0.278-0.567-0.635-0.567-1.091 0-0.425 0.174-0.775 0.528-1.074 0.445-0.386 1.538-0.779 3.266-1.183 1.732-0.412 3.008-0.838 3.834-1.279 0.828-0.441 1.479-1.042 1.947-1.809 0.464-0.748 0.706-1.704 0.706-2.827 0-1.012-0.284-1.97-0.845-2.851s-1.357-1.547-2.382-1.98c-1.029-0.421-2.308-0.646-3.84-0.646-2.231 0-3.949 0.521-5.143 1.564-1.192 1.037-1.905 2.548-2.137 4.528" fill="#a7a5a6" fill-rule="nonzero"/>
     </g>
     <g transform="matrix(1.5042 0 0 -1.5042 -27.291 111.56)">
      <path d="m0 0h3.582l3.06-9.109 2.982 9.109h3.491l-4.487-12.336-0.822-2.251c-0.297-0.751-0.577-1.32-0.845-1.714-0.268-0.402-0.577-0.726-0.925-0.967-0.355-0.239-0.784-0.432-1.284-0.569-0.512-0.139-1.086-0.216-1.728-0.216-0.647 0-1.286 0.077-1.915 0.216l-0.28 2.665c0.525-0.111 1.002-0.166 1.425-0.166 0.78 0 1.361 0.23 1.734 0.689 0.377 0.472 0.665 1.068 0.864 1.782l-4.852 12.867z" fill="#a7a5a6" fill-rule="nonzero"/>
     </g>
     <g transform="matrix(1.5042 0 0 -1.5042 10.105 130.86)">
      <path d="m0 0h-3.373v6.532c0 1.376-0.07 2.263-0.219 2.673-0.148 0.405-0.377 0.721-0.709 0.947-0.326 0.223-0.726 0.336-1.183 0.336-0.593 0-1.119-0.164-1.593-0.487-0.474-0.319-0.793-0.742-0.967-1.264-0.171-0.536-0.261-1.509-0.261-2.946v-5.791h-3.366v12.832h3.118v-1.879c1.122 1.421 2.53 2.123 4.229 2.123 0.755 0 1.438-0.138 2.061-0.396 0.622-0.278 1.096-0.612 1.408-1.035 0.317-0.419 0.539-0.893 0.665-1.418 0.125-0.523 0.19-1.291 0.19-2.276v-7.951z" fill="#a7a5a6" fill-rule="nonzero"/>
     </g>
     <g transform="matrix(1.5042 0 0 -1.5042 15.328 121.27)">
      <path d="m0 0c0-1.281 0.3-2.26 0.909-2.924 0.607-0.685 1.351-1.026 2.241-1.026s1.635 0.341 2.241 1.026c0.596 0.664 0.896 1.654 0.896 2.94 0 1.268-0.3 2.237-0.896 2.908-0.606 0.671-1.351 1.019-2.241 1.019s-1.634-0.348-2.241-1.019c-0.609-0.671-0.909-1.651-0.909-2.924m-3.453 0.171c0 1.138 0.281 2.218 0.835 3.279 0.554 1.051 1.341 1.857 2.36 2.417 1.019 0.557 2.157 0.828 3.411 0.828 1.944 0 3.531-0.628 4.768-1.888 1.241-1.261 1.864-2.854 1.864-4.775 0-1.941-0.628-3.543-1.88-4.822-1.25-1.272-2.83-1.919-4.729-1.919-1.174 0-2.293 0.271-3.363 0.802-1.067 0.532-1.877 1.31-2.431 2.341-0.554 1.02-0.835 2.267-0.835 3.737" fill="#a7a5a6" fill-rule="nonzero"/>
     </g>
    </g>
    <g transform="translate(-166.24 30.176)">
     <g transform="matrix(1.5042 0 0 -1.5042 36.273 101.66)">
      <path d="m0 0v-16.567c0-0.79 0.058-1.313 0.169-1.563 0.116-0.262 0.289-0.455 0.524-0.586 0.239-0.131 0.681-0.199 1.319-0.199v-0.496h-6.122v0.496c0.574 0 0.964 0.059 1.184 0.184 0.202 0.123 0.366 0.31 0.485 0.587 0.12 0.271 0.175 0.796 0.175 1.577v11.305c0 1.423-0.029 2.293-0.09 2.622-0.058 0.326-0.162 0.544-0.297 0.66-0.139 0.123-0.312 0.191-0.523 0.191-0.228 0-0.522-0.084-0.873-0.223l-0.233 0.485 3.677 1.527h0.605z" fill="#231f20" fill-rule="nonzero"/>
     </g>
     <g transform="matrix(1.5042 0 0 -1.5042 47.812 112.88)">
      <path d="m0 0c-0.484 0-0.967-0.125-1.454-0.419-0.487-0.289-0.883-0.783-1.184-1.493-0.299-0.724-0.45-1.64-0.45-2.764 0-1.817 0.367-3.366 1.085-4.693 0.726-1.304 1.677-1.969 2.857-1.969 0.89 0 1.615 0.372 2.183 1.09 0.577 0.724 0.865 1.969 0.865 3.742 0 2.216-0.478 3.947-1.433 5.22-0.647 0.865-1.47 1.286-2.469 1.286m0.419 0.919c1.899 0 3.418-0.719 4.568-2.157 0.974-1.225 1.461-2.633 1.461-4.223 0-1.122-0.264-2.254-0.803-3.394-0.539-1.144-1.277-2.009-2.225-2.589-0.944-0.583-1.989-0.874-3.146-0.874-1.892 0-3.392 0.751-4.501 2.246-0.938 1.26-1.409 2.68-1.409 4.257 0 1.148 0.284 2.279 0.851 3.405 0.575 1.14 1.322 1.969 2.254 2.524 0.929 0.532 1.912 0.805 2.95 0.805" fill="#231f20" fill-rule="nonzero"/>
     </g>
     <g transform="matrix(1.5042 0 0 -1.5042 65.208 112.54)">
      <path d="m0 0c-0.671 0-1.225-0.28-1.681-0.813-0.45-0.532-0.673-1.331-0.673-2.437 0-1.424 0.306-2.528 0.919-3.318 0.473-0.594 1.064-0.891 1.783-0.891 0.686 0 1.254 0.263 1.692 0.777 0.442 0.515 0.661 1.317 0.661 2.413 0 1.442-0.306 2.56-0.928 3.37-0.468 0.589-1.055 0.899-1.773 0.899m-2.489-12.184c-0.416-0.45-0.726-0.883-0.942-1.29-0.216-0.38-0.316-0.753-0.316-1.078 0-0.447 0.258-0.82 0.784-1.146 0.909-0.555 2.221-0.844 3.934-0.844 1.63 0 2.829 0.289 3.61 0.863 0.78 0.568 1.164 1.176 1.164 1.825 0 0.461-0.232 0.796-0.697 0.996-0.474 0.201-1.408 0.317-2.815 0.346-2.046 0.061-3.624 0.18-4.722 0.328m0.112 4.581c-0.76 0.387-1.338 0.896-1.75 1.563-0.403 0.675-0.607 1.407-0.607 2.21 0 1.238 0.459 2.306 1.387 3.182 0.932 0.889 2.125 1.338 3.576 1.338 1.185 0 2.214-0.28 3.084-0.864h2.642c0.393 0 0.618-0.013 0.686-0.035 0.059-0.03 0.099-0.071 0.132-0.116 0.052-0.085 0.083-0.23 0.083-0.436 0-0.238-0.025-0.413-0.07-0.496-0.028-0.046-0.074-0.088-0.145-0.106-0.068-0.027-0.293-0.039-0.69-0.039h-1.628c0.516-0.657 0.771-1.497 0.771-2.519 0-1.16-0.451-2.162-1.336-2.985-0.89-0.829-2.082-1.248-3.571-1.248-0.619 0-1.249 0.091-1.896 0.294-0.38-0.358-0.639-0.656-0.767-0.915-0.139-0.266-0.207-0.482-0.207-0.657 0-0.167 0.074-0.31 0.229-0.463 0.145-0.141 0.442-0.248 0.877-0.307 0.248-0.047 0.89-0.082 1.902-0.111 1.866-0.059 3.079-0.13 3.627-0.223 0.845-0.117 1.522-0.435 2.025-0.936 0.503-0.505 0.754-1.122 0.754-1.859 0-1.013-0.483-1.978-1.443-2.87-1.407-1.313-3.251-1.971-5.524-1.971-1.747 0-3.224 0.385-4.429 1.175-0.681 0.455-1.016 0.922-1.016 1.416 0 0.209 0.049 0.432 0.142 0.65 0.151 0.342 0.464 0.79 0.934 1.391 0.062 0.086 0.52 0.573 1.361 1.465-0.468 0.294-0.802 0.542-0.992 0.772-0.195 0.223-0.294 0.48-0.294 0.759 0 0.324 0.125 0.695 0.38 1.12 0.258 0.435 0.851 1.047 1.773 1.821" fill="#231f20" fill-rule="nonzero"/>
     </g>
     <g transform="matrix(1.5042 0 0 -1.5042 76.103 112.05)">
      <path d="m0 0h5.845v-0.5h-0.283c-0.413 0-0.719-0.096-0.925-0.265-0.204-0.183-0.303-0.403-0.303-0.66 0-0.362 0.145-0.849 0.451-1.474l3.047-6.322 2.789 6.907c0.154 0.38 0.232 0.744 0.232 1.121 0 0.162-0.039 0.281-0.096 0.361-0.075 0.097-0.188 0.183-0.343 0.236-0.152 0.061-0.428 0.096-0.815 0.096v0.5h4.043v-0.5c-0.336-0.035-0.596-0.112-0.777-0.219-0.185-0.113-0.384-0.312-0.6-0.605-0.084-0.132-0.246-0.475-0.468-1.049l-5.064-12.46c-0.494-1.215-1.139-2.123-1.941-2.742-0.8-0.624-1.571-0.922-2.312-0.922-0.539 0-0.98 0.144-1.332 0.462-0.345 0.305-0.518 0.658-0.518 1.063 0 0.378 0.124 0.673 0.376 0.91 0.251 0.241 0.603 0.348 1.039 0.348 0.303 0 0.719-0.098 1.238-0.291 0.364-0.125 0.596-0.205 0.69-0.205 0.274 0 0.567 0.148 0.896 0.428 0.322 0.278 0.648 0.822 0.974 1.623l0.883 2.176-4.498 9.4c-0.137 0.285-0.357 0.633-0.654 1.055-0.229 0.315-0.416 0.531-0.561 0.648-0.21 0.136-0.549 0.268-1.013 0.38v0.5z" fill="#231f20" fill-rule="nonzero"/>
     </g>
     <g transform="matrix(1.5042 0 0 -1.5042 97.084 108.71)">
      <path d="m0 0h0.705c0.149 0 0.269 9e-3 0.352 0.052 0.087 0.018 0.149 0.08 0.193 0.145 0.049 0.072 0.069 0.149 0.069 0.229 0 0.113-0.042 0.209-0.13 0.287-0.083 0.075-0.219 0.113-0.399 0.113h-0.79v-0.826zm-0.329-1.393v2.502h1.099c0.223 0 0.39-0.028 0.51-0.08 0.12-0.041 0.202-0.119 0.274-0.226 0.071-0.122 0.102-0.248 0.102-0.377 0-0.184-0.054-0.333-0.174-0.449-0.109-0.125-0.286-0.206-0.525-0.238 0.091-0.042 0.155-0.087 0.197-0.123 0.096-0.087 0.187-0.196 0.271-0.325l0.435-0.684h-0.41l-0.332 0.517c-0.096 0.141-0.177 0.264-0.239 0.341-0.067 0.085-0.115 0.135-0.167 0.178-0.046 0.029-0.096 0.041-0.148 0.057-0.038 0.011-0.103 0.017-0.188 0.017h-0.376v-1.11h-0.329z" fill="#231f20" fill-rule="nonzero"/>
     </g>
     <g transform="matrix(1.5042 0 0 -1.5042 100.78 108.78)">
      <path d="m0 0c0-0.999-0.813-1.821-1.809-1.821-1.003 0-1.815 0.822-1.815 1.821 0 1.006 0.812 1.812 1.815 1.812 0.996 0 1.809-0.806 1.809-1.812z" fill="none" stroke="#231f20" stroke-width=".179"/>
     </g>
    </g>
   </g>
  </g>
 </g>
</svg>
