<?xml version="1.0" encoding="UTF-8"?>
<svg width="52.509" height="52.52" version="1.0" viewBox="0 0 52.509 52.52" xmlns="http://www.w3.org/2000/svg" xmlns:xlink="http://www.w3.org/1999/xlink">
 <defs>
  <linearGradient id="linearGradient13956" x1="46.592" x2="43.592" y1="89.585" y2="-74.733" gradientUnits="userSpaceOnUse">
   <stop stop-color="#d6860a" offset="0"/>
   <stop stop-color="#fff" offset="1"/>
  </linearGradient>
  <linearGradient id="linearGradient13966" x1="26.48" x2="26.48" y1="1.3939" y2="52.843" gradientUnits="userSpaceOnUse">
   <stop stop-color="#fff" offset="0"/>
   <stop stop-color="#fff" stop-opacity="0" offset="1"/>
  </linearGradient>
 </defs>
 <g transform="translate(-3.8191 -6.1557)">
  <g transform="translate(-840.83 182.27)" fill="#71c000" stroke="#71c000" stroke-linejoin="bevel" stroke-width="3.379"></g>
  <g transform="translate(-1426.6 -26.29)" fill="#71c000" stroke="#71c000" stroke-linejoin="bevel" stroke-width="3.379"></g>
  <rect x="4.9083" y="7.2196" width="50.731" height="50.549" ry="7.0914" color="black" fill="url(#linearGradient13956)" fill-rule="evenodd" stroke="#2b2b2b" stroke-width=".997"/>
  <g transform="matrix(-.0039739 .6296 -.6296 -.0039739 295.58 -273.62)" fill="#fff"></g>
  <path transform="translate(3.8191 6.1557)" d="m2.1818 45.429-0.18182-37.636s1.0909-5.6364 5.4545-5.8182c4.3636-0.18182 37.455 0 37.455 0s5.8182 0 6 7.2727c0.18182 7.2727-0.18182 36.727-0.18182 36.727" color="black" fill="none" stroke="url(#linearGradient13966)"/>
  <g transform="matrix(.14539 0 0 .14539 6.9788 10.607)" fill="#fff">
   <g transform="matrix(3.0313 0 0 2.9321 12.5 12.494)" fill="#fff">
    <circle cx="9.124" cy="46.904" r="9.124"/>
    <circle cx="74.548" cy="84.667" r="9.124"/>
    <path d="m52.739 24.327c11.361 0 20.787 8.436 22.348 19.373h15.632c-0.71-8.594-4.273-16.604-10.23-22.921-3.815 1.943-8.506 1.98-12.491-0.32-3.988-2.303-6.302-6.387-6.524-10.667-2.831-0.66-5.756-1.002-8.735-1.002-5.704 0-11.216 1.245-16.229 3.606l7.826 13.555c2.599-1.046 5.435-1.624 8.403-1.624z"/>
    <path d="m75.088 50.098c-1.557 10.941-10.985 19.382-22.349 19.382-2.97 0-5.807-0.578-8.406-1.626l-7.827 13.556c5.012 2.362 10.526 3.608 16.232 3.608 2.981 0 5.91-0.344 8.742-1.004 0.218-4.285 2.533-8.376 6.524-10.68 3.986-2.302 8.679-2.265 12.495-0.318 5.952-6.318 9.511-14.327 10.219-22.918h-15.63z"/>
    <path d="m30.163 46.904c0-7.193 3.381-13.61 8.636-17.747l-7.824-13.553c-1.835 1.282-3.571 2.733-5.188 4.349-4.528 4.528-7.775 9.995-9.562 15.962 3.6 2.332 5.984 6.38 5.984 10.989 0 4.608-2.384 8.657-5.984 10.988 1.787 5.967 5.034 11.434 9.562 15.962 1.616 1.616 3.35 3.065 5.184 4.348l7.825-13.554c-5.254-4.137-8.633-10.554-8.633-17.744z"/>
    <circle cx="74.54" cy="9.126" r="9.124"/>
   </g>
  </g>
 </g>
</svg>
