<?xml version="1.0" encoding="UTF-8"?>
<svg width="52.509" height="52.52" version="1.0" viewBox="0 0 52.509 52.52" xmlns="http://www.w3.org/2000/svg" xmlns:xlink="http://www.w3.org/1999/xlink">
 <defs>
  <linearGradient id="linearGradient13956" x1="46.592" x2="43.592" y1="89.585" y2="-74.733" gradientUnits="userSpaceOnUse">
   <stop stop-color="#6787ad" offset="0"/>
   <stop stop-color="#fff" offset="1"/>
  </linearGradient>
  <linearGradient id="linearGradient13966" x1="26.48" x2="26.48" y1="1.3939" y2="52.843" gradientUnits="userSpaceOnUse">
   <stop stop-color="#fff" offset="0"/>
   <stop stop-color="#fff" stop-opacity="0" offset="1"/>
  </linearGradient>
 </defs>
 <g transform="translate(-3.8191 -6.1557)">
  <g transform="translate(-840.83 182.27)" fill="#71c000" stroke="#71c000" stroke-linejoin="bevel" stroke-width="3.379"></g>
  <g transform="translate(-1426.6 -26.29)" fill="#71c000" stroke="#71c000" stroke-linejoin="bevel" stroke-width="3.379"></g>
  <rect x="4.9083" y="7.2196" width="50.731" height="50.549" ry="7.0914" color="black" fill="url(#linearGradient13956)" fill-rule="evenodd" stroke="#2b2b2b" stroke-width=".9965"/>
  <g transform="matrix(-.0039739 .6296 -.6296 -.0039739 295.58 -273.62)" fill="#fff"></g>
  <path transform="translate(3.8191 6.1557)" d="m2.1818 45.429-0.18182-37.636s1.0909-5.6364 5.4545-5.8182c4.3636-0.18182 37.455 0 37.455 0s5.8182 0 6 7.2727c0.18182 7.2727-0.18182 36.727-0.18182 36.727" color="black" fill="none" stroke="url(#linearGradient13966)"/>
  <g transform="matrix(7.0947 0 0 7.0947 -1364.2 -499.06)">
   <path d="m195.11 72.364c-0.2105 0-0.37933 0.16541-0.37933 0.36865v1.2609h-0.46482c-0.21051 0-0.37934 0.16605-0.37934 0.36865v2.7301c0 0.20324 0.16883 0.36865 0.37934 0.36865h2.821c0.2105 0 0.38468-0.16541 0.38468-0.36865v-0.44879h1.3036c0.21029 1e-6 0.37934-0.16605 0.37934-0.36865v-2.7301c0-0.20281-0.16905-0.36331-0.37934-0.36331h-0.46482v-0.44879c0-0.20324-0.16926-0.36865-0.37934-0.36865h-2.821zm0 0.20837h2.821c0.0921 0 0.16563 0.07095 0.16563 0.16028v0.44879h-2.1424c-0.21008 0-0.38468 0.1605-0.38468 0.36331v0.44879h-0.6251v-1.2609c0-0.08933 0.0729-0.16028 0.16562-0.16028zm0.84416 0.8121h2.1424v2.073c0 0.08933-0.0736 0.16562-0.16563 0.16562h-0.45947v-1.2609c0-0.2026-0.17418-0.36865-0.38468-0.36865h-1.3036v-0.44879c0-0.08912 0.0789-0.16028 0.17097-0.16028zm2.3562 0h0.46482c0.0923 0 0.16563 0.07116 0.16563 0.16028v2.7301c0 0.08912-0.0733 0.16028-0.16563 0.16028h-1.3036v-0.60373h0.45947c0.21008 0 0.37934-0.17075 0.37934-0.37399v-2.073zm-4.0445 0.81744h0.46482v1.2555c0 0.20324 0.16883 0.37399 0.37933 0.37399h0.45948v0.44345c0 0.2026 0.1746 0.36865 0.38468 0.36865h1.3036v0.44879c0 0.08912-0.0782 0.16028-0.17097 0.16028h-2.821c-0.0933 0-0.16563-0.07116-0.16563-0.16028v-2.7301c0-0.0889 0.0723-0.16028 0.16563-0.16028zm0.67853 0h0.6251v1.4212h-0.45948c-0.0928 0-0.16562-0.0763-0.16562-0.16562v-1.2555zm0.83881 0h1.3036c0.0928 0 0.17097 0.07138 0.17097 0.16028v1.2609h-1.4746v-1.4212zm0 1.6295h1.4746v0.60373h-1.3036c-0.0921 0-0.17097-0.07116-0.17097-0.16028v-0.44345z" fill="#fff"/>
  </g>
 </g>
</svg>
