<?xml version="1.0" encoding="UTF-8" standalone="no"?>
<!-- Created with Inkscape (http://www.inkscape.org/) -->

<svg
   xmlns:dc="http://purl.org/dc/elements/1.1/"
   xmlns:cc="http://creativecommons.org/ns#"
   xmlns:rdf="http://www.w3.org/1999/02/22-rdf-syntax-ns#"
   xmlns:svg="http://www.w3.org/2000/svg"
   xmlns="http://www.w3.org/2000/svg"
   xmlns:xlink="http://www.w3.org/1999/xlink"
   xmlns:sodipodi="http://sodipodi.sourceforge.net/DTD/sodipodi-0.dtd"
   xmlns:inkscape="http://www.inkscape.org/namespaces/inkscape"
   width="52.509098"
   height="52.52018"
   viewBox="0 0 52.509098 52.52018"
   id="svg5160"
   sodipodi:version="0.32"
   inkscape:version="0.48.5 r10040"
   sodipodi:docname="os_vmware.svg"
   version="1.0"
   inkscape:export-xdpi="27.42"
   inkscape:export-ydpi="27.42"
   inkscape:output_extension="org.inkscape.output.svg.inkscape">
  <defs
     id="defs5162">
    <linearGradient
       inkscape:collect="always"
       id="linearGradient13960">
      <stop
         style="stop-color:white;stop-opacity:1;"
         offset="0"
         id="stop13962" />
      <stop
         style="stop-color:white;stop-opacity:0;"
         offset="1"
         id="stop13964" />
    </linearGradient>
    <linearGradient
       id="linearGradient3898">
      <stop
         style="stop-color:#6787ad;stop-opacity:1;"
         offset="0"
         id="stop3900" />
      <stop
         style="stop-color:white;stop-opacity:1;"
         offset="1"
         id="stop3902" />
    </linearGradient>
    <linearGradient
       inkscape:collect="always"
       xlink:href="#linearGradient3898"
       id="linearGradient13956"
       x1="46.591862"
       y1="89.585007"
       x2="43.591812"
       y2="-74.733185"
       gradientUnits="userSpaceOnUse" />
    <linearGradient
       inkscape:collect="always"
       xlink:href="#linearGradient13960"
       id="linearGradient13966"
       x1="26.48"
       y1="1.3939171"
       x2="26.48"
       y2="52.84341"
       gradientUnits="userSpaceOnUse" />
  </defs>
  <sodipodi:namedview
     id="base"
     pagecolor="#ffffff"
     bordercolor="#666666"
     borderopacity="1.0"
     inkscape:pageopacity="0.0"
     inkscape:pageshadow="2"
     inkscape:zoom="5.5"
     inkscape:cx="30.291118"
     inkscape:cy="34.39904"
     inkscape:current-layer="layer1"
     showgrid="false"
     inkscape:document-units="px"
     inkscape:grid-bbox="true"
     inkscape:window-width="902"
     inkscape:window-height="674"
     inkscape:window-x="407"
     inkscape:window-y="205"
     showguides="false"
     inkscape:guide-bbox="true"
     inkscape:snap-global="false"
     inkscape:window-maximized="0">
    <sodipodi:guide
       orientation="vertical"
       position="-45.454545"
       id="guide5214" />
    <sodipodi:guide
       orientation="horizontal"
       position="61.454545"
       id="guide5226" />
    <sodipodi:guide
       orientation="vertical"
       position="393.92276"
       id="guide5230" />
    <sodipodi:guide
       orientation="horizontal"
       position="62.181818"
       id="guide5232" />
    <sodipodi:guide
       orientation="vertical"
       position="438.14907"
       id="guide5236" />
    <sodipodi:guide
       orientation="vertical"
       position="18.127647"
       id="guide13968" />
  </sodipodi:namedview>
  <metadata
     id="metadata5165">
    <rdf:RDF>
      <cc:Work
         rdf:about="">
        <dc:format>image/svg+xml</dc:format>
        <dc:type
           rdf:resource="http://purl.org/dc/dcmitype/StillImage" />
        <dc:title />
      </cc:Work>
    </rdf:RDF>
  </metadata>
  <g
     id="layer1"
     inkscape:label="Layer 1"
     inkscape:groupmode="layer"
     transform="translate(-3.819132,-6.155729)">
    <g
       inkscape:label="shadow"
       style="display:inline"
       id="layer4"
       transform="translate(-392.7904,328.2799)" />
    <g
       inkscape:label="shadow"
       id="g3039"
       transform="translate(-840.833,182.2722)" />
    <g
       inkscape:label="color"
       id="g3041"
       transform="translate(-840.833,182.2722)">
      <path
         style="opacity:1;fill:#71c000;fill-opacity:1;stroke:#71c000;stroke-width:3.37896037;stroke-linejoin:bevel;stroke-miterlimit:4;stroke-dasharray:none;stroke-opacity:1"
         d=""
         id="path3043" />
      <path
         style="opacity:1;fill:#71c000;fill-opacity:1;stroke:#71c000;stroke-width:3.37896037;stroke-linejoin:bevel;stroke-miterlimit:4;stroke-dasharray:none;stroke-opacity:1"
         d=""
         id="path3045" />
      <path
         style="opacity:1;fill:#71c000;fill-opacity:1;stroke:#71c000;stroke-width:3.37896037;stroke-linejoin:bevel;stroke-miterlimit:4;stroke-dasharray:none;stroke-opacity:1"
         d=""
         id="path3047" />
    </g>
    <g
       inkscape:label="highlight"
       id="g3049"
       transform="translate(-840.833,182.2722)" />
    <g
       inkscape:label="text"
       id="g3089"
       transform="translate(-840.833,182.2722)" />
    <g
       id="g4774"
       inkscape:label="shadow"
       transform="translate(-1426.607,-26.2895)" />
    <g
       id="layer2"
       inkscape:label="color"
       transform="translate(-1426.607,-26.2895)">
      <path
         style="opacity:1;fill:#71c000;fill-opacity:1;stroke:#71c000;stroke-width:3.37896037;stroke-linejoin:bevel;stroke-miterlimit:4;stroke-dasharray:none;stroke-opacity:1"
         d=""
         id="path3422" />
      <path
         style="opacity:1;fill:#71c000;fill-opacity:1;stroke:#71c000;stroke-width:3.37896037;stroke-linejoin:bevel;stroke-miterlimit:4;stroke-dasharray:none;stroke-opacity:1"
         d=""
         id="path3426" />
      <path
         style="opacity:1;fill:#71c000;fill-opacity:1;stroke:#71c000;stroke-width:3.37896037;stroke-linejoin:bevel;stroke-miterlimit:4;stroke-dasharray:none;stroke-opacity:1"
         d=""
         id="path3428" />
    </g>
    <g
       id="g5777"
       inkscape:label="highlight"
       transform="translate(-1426.607,-26.2895)" />
    <g
       id="layer5"
       inkscape:label="text"
       transform="translate(-1426.607,-26.2895)" />
    <rect
       style="opacity:1;color:black;fill:url(#linearGradient13956);fill-opacity:1.0;fill-rule:evenodd;stroke:#2b2b2b;stroke-width:0.99650371;stroke-linecap:butt;stroke-linejoin:miter;marker:none;marker-start:none;marker-mid:none;marker-end:none;stroke-miterlimit:4;stroke-dasharray:none;stroke-dashoffset:0;stroke-opacity:1;visibility:visible;display:inline;overflow:visible"
       id="rect13948"
       width="50.730724"
       height="50.548958"
       x="4.9082928"
       y="7.219615"
       ry="7.0913997" />
    <g
       id="g6007"
       transform="matrix(-3.973892e-3,0.629601,-0.629601,-3.973892e-3,295.5792,-273.6194)"
       inkscape:export-xdpi="27.42"
       inkscape:export-ydpi="27.42"
       style="fill:white">
      <g
         transform="translate(415.3267,354.416)"
         id="g6011"
         style="fill:white" />
    </g>
    <g
       id="g3192"
       inkscape:label="openvaslogo"
       style="display:inline"
       transform="translate(-996.7028,556.527)" />
    <path
       style="opacity:1;color:black;fill:none;fill-opacity:1;fill-rule:evenodd;stroke:url(#linearGradient13966);stroke-width:1;stroke-linecap:butt;stroke-linejoin:miter;marker:none;marker-start:none;marker-mid:none;marker-end:none;stroke-miterlimit:4;stroke-dasharray:none;stroke-dashoffset:0;stroke-opacity:1;visibility:visible;display:inline;overflow:visible"
       d="M 2.1818182,45.429271 L 2,7.792907 C 2,7.792907 3.0909091,2.1565434 7.4545455,1.9747252 C 11.818182,1.792907 44.909091,1.9747252 44.909091,1.9747252 C 44.909091,1.9747252 50.727273,1.9747252 50.909091,9.2474525 C 51.090909,16.52018 50.727273,45.974725 50.727273,45.974725"
       id="path13958"
       transform="translate(3.819132,6.155729)" />
    <g
       id="layer1-6"
       transform="matrix(7.0946558,0,0,7.0946558,-1364.1683,-499.05982)">
      <path
         id="path2985"
         style="fill:#ffffff;fill-opacity:1;fill-rule:nonzero;stroke:none"
         d="m 195.10953,72.363615 c -0.2105,0 -0.37933,0.165411 -0.37933,0.36865 l 0,1.26089 -0.46482,0 c -0.21051,0 -0.37934,0.166054 -0.37934,0.368651 l 0,2.730149 c 0,0.203239 0.16883,0.36865 0.37934,0.36865 l 2.82098,0 c 0.2105,0 0.38468,-0.165411 0.38468,-0.36865 l 0,-0.448792 1.30363,0 c 0.21029,10e-7 0.37934,-0.166053 0.37934,-0.36865 l 0,-2.730148 c 0,-0.202812 -0.16905,-0.363308 -0.37934,-0.363308 l -0.46482,0 0,-0.448792 c 0,-0.203239 -0.16926,-0.36865 -0.37934,-0.36865 l -2.82098,0 z m 0,0.208367 2.82098,0 c 0.0921,0 0.16563,0.07095 0.16563,0.160283 l 0,0.448792 -2.14245,0 c -0.21008,0 -0.38468,0.160496 -0.38468,0.363308 l 0,0.44879 -0.6251,0 0,-1.26089 c 0,-0.08933 0.0729,-0.160283 0.16562,-0.160283 z m 0.84416,0.8121 2.14245,0 0,2.07299 c 0,0.08933 -0.0736,0.165625 -0.16563,0.165625 l -0.45947,0 0,-1.260891 c 0,-0.202597 -0.17418,-0.368651 -0.38468,-0.368651 l -1.30364,0 0,-0.44879 c 0,-0.08912 0.0789,-0.160283 0.17097,-0.160283 z m 2.35616,0 0.46482,0 c 0.0923,0 0.16563,0.07116 0.16563,0.160283 l 0,2.730148 c 0,0.08912 -0.0733,0.160283 -0.16563,0.160283 l -1.30363,0 0,-0.603732 0.45947,0 c 0.21008,0 0.37934,-0.170754 0.37934,-0.373992 l 0,-2.07299 z m -4.04447,0.817442 0.46482,0 0,1.255548 c 0,0.203238 0.16883,0.373992 0.37933,0.373992 l 0.45948,0 0,0.443449 c 0,0.202597 0.1746,0.36865 0.38468,0.36865 l 1.30364,0 0,0.448792 c 0,0.08912 -0.0782,0.160283 -0.17097,0.160283 l -2.82098,0 c -0.0933,0 -0.16563,-0.07116 -0.16563,-0.160283 l 0,-2.730149 c 0,-0.0889 0.0723,-0.160282 0.16563,-0.160282 z m 0.67853,0 0.6251,0 0,1.421173 -0.45948,0 c -0.0928,0 -0.16562,-0.0763 -0.16562,-0.165625 l 0,-1.255548 z m 0.83881,0 1.30364,0 c 0.0928,0 0.17097,0.07138 0.17097,0.160282 l 0,1.260891 -1.47461,0 0,-1.421173 z m 0,1.62954 1.47461,0 0,0.603732 -1.30364,0 c -0.0921,0 -0.17097,-0.07116 -0.17097,-0.160283 l 0,-0.443449 z"
         sodipodi:nodetypes="cccccccccccccccccccccccccccccccccccccccccccccccccccccccccccccccccccccccccccccccc" />
    </g>
  </g>
</svg>
