<?xml version="1.0" encoding="UTF-8"?>
<svg width="256" height="256" version="1.1" viewBox="0 0 67.733 67.733" xmlns="http://www.w3.org/2000/svg">
 <style>.gui_icon_class {
    stroke-linejoin:miter;
    font-size:medium;
    baseline-shift:baseline;
    color-rendering:auto;
    text-decoration-color:#000000;
    color:#000000;
    font-variant-numeric:normal;
    letter-spacing:normal;
    shape-rendering:auto;
    word-spacing:normal;
    stroke:none;
    text-decoration-line:none;
    text-rendering:auto;
    stroke-width:32.00000381;
    font-style:normal;
    fill:#000000;
    solid-opacity:1;
    line-height:normal;
    fill-rule:nonzero;
    font-variant-position:normal;
    mix-blend-mode:normal;
    fill-opacity:1;
    direction:ltr;
    solid-color:#000000;
    color-interpolation-filters:linearRGB;
    font-stretch:normal;
    stroke-miterlimit:4;
    font-feature-settings:normal;
    font-weight:normal;
    opacity:1;
    shape-padding:0;
    vector-effect:none;
    font-variant-alternates:normal;
    font-variant:normal;
    visibility:visible;
    text-indent:0;
    font-variant-ligatures:normal;
    clip-rule:nonzero;
    dominant-baseline:auto;
    font-variant-caps:normal;
    image-rendering:auto;
    white-space:normal;
    overflow:visible;
    font-family:sans-serif;
    text-decoration-style:solid;
    text-align:start;
    text-orientation:mixed;
    writing-mode:lr-tb;
    stroke-opacity:1;
    isolation:auto;
    paint-order:markers fill stroke;
    stroke-dashoffset:0;
    text-anchor:start;
    text-decoration:none;
    stroke-linecap:butt;
    stroke-dasharray:none;
    enable-background:accumulate;
    text-transform:none;
    display:inline;
    color-interpolation:sRGB;
}</style>
 <g transform="translate(0 -229.27)">
  <g transform="matrix(2.0878 0 0 2.2337 41.673 -337.41)">
   <path class="gui_icon_class" transform="matrix(.12673 0 0 .11845 -19.96 253.7)" d="m95.994 0.0078125c-34.499 0-68.093 11.099-95.846 31.855l17.738 27.141c22.377-16.736 49.837-25.904 78.107-25.904v-33.092zm39.115 4.9141-7.1211 32.201c33.567 8.4921 62.063 29.878 79.324 58.963l26.123-17.74c-21.826-36.777-57.265-63.036-98.326-73.424zm24.891 91.078-144 88 0.17969 0.17969a40 40 0 0 0-16.18 32.08 40 40 0 0 0 40 40 40 40 0 0 0 36.287-23.275l83.713-136.98zm89.557 19.592-29.561 9.7793c10.942 37.872 3.5236 78.365-20.467 110.19l24.09 20.775c30.161-40.015 39.913-92.374 25.938-140.75zm-209.56 84.408a16 16 0 0 1 16 16 16 16 0 0 1-16 16 16 16 0 0 1-16-16 16 16 0 0 1 16-16z"/>
  </g>
 </g>
</svg>
