<?xml version="1.0" encoding="UTF-8" standalone="no"?>
<!-- Created with Inkscape (http://www.inkscape.org/) -->

<svg
   xmlns:dc="http://purl.org/dc/elements/1.1/"
   xmlns:cc="http://creativecommons.org/ns#"
   xmlns:rdf="http://www.w3.org/1999/02/22-rdf-syntax-ns#"
   xmlns:svg="http://www.w3.org/2000/svg"
   xmlns="http://www.w3.org/2000/svg"
   xmlns:xlink="http://www.w3.org/1999/xlink"
   xmlns:sodipodi="http://sodipodi.sourceforge.net/DTD/sodipodi-0.dtd"
   xmlns:inkscape="http://www.inkscape.org/namespaces/inkscape"
   width="52.509098"
   height="52.52018"
   viewBox="0 0 52.509098 52.52018"
   id="svg5160"
   sodipodi:version="0.32"
   inkscape:version="0.48.5 r10040"
   sodipodi:docname="prognosis_inactive.svg"
   version="1.0"
   inkscape:export-xdpi="27.42"
   inkscape:export-ydpi="27.42">
  <defs
     id="defs5162">
    <linearGradient
       inkscape:collect="always"
       id="linearGradient13960">
      <stop
         style="stop-color:white;stop-opacity:1;"
         offset="0"
         id="stop13962" />
      <stop
         style="stop-color:white;stop-opacity:0;"
         offset="1"
         id="stop13964" />
    </linearGradient>
    <linearGradient
       id="linearGradient3898">
      <stop
         style="stop-color:#4d4d4d;stop-opacity:1;"
         offset="0"
         id="stop3900" />
      <stop
         style="stop-color:white;stop-opacity:1;"
         offset="1"
         id="stop3902" />
    </linearGradient>
    <linearGradient
       inkscape:collect="always"
       xlink:href="#linearGradient3898"
       id="linearGradient13956"
       x1="46.591862"
       y1="89.585007"
       x2="43.591812"
       y2="-74.733185"
       gradientUnits="userSpaceOnUse" />
    <linearGradient
       inkscape:collect="always"
       xlink:href="#linearGradient13960"
       id="linearGradient13966"
       x1="26.48"
       y1="1.3939171"
       x2="26.48"
       y2="52.84341"
       gradientUnits="userSpaceOnUse" />
  </defs>
  <sodipodi:namedview
     id="base"
     pagecolor="#ffffff"
     bordercolor="#666666"
     borderopacity="1.0"
     inkscape:pageopacity="0.0"
     inkscape:pageshadow="2"
     inkscape:zoom="7.3376207"
     inkscape:cx="-0.8284198"
     inkscape:cy="22.022191"
     inkscape:current-layer="layer1"
     showgrid="false"
     inkscape:document-units="px"
     inkscape:grid-bbox="true"
     inkscape:window-width="1600"
     inkscape:window-height="816"
     inkscape:window-x="37"
     inkscape:window-y="1047"
     showguides="true"
     inkscape:guide-bbox="true"
     inkscape:window-maximized="1"
     inkscape:snap-global="false">
    <sodipodi:guide
       orientation="vertical"
       position="393.92276"
       id="guide5230" />
    <sodipodi:guide
       orientation="vertical"
       position="438.14907"
       id="guide5236" />
    <sodipodi:guide
       orientation="1,0"
       position="26.818182,4.1818182"
       id="guide5186" />
  </sodipodi:namedview>
  <metadata
     id="metadata5165">
    <rdf:RDF>
      <cc:Work
         rdf:about="">
        <dc:format>image/svg+xml</dc:format>
        <dc:type
           rdf:resource="http://purl.org/dc/dcmitype/StillImage" />
        <dc:title />
      </cc:Work>
    </rdf:RDF>
  </metadata>
  <g
     id="layer1"
     inkscape:label="Layer 1"
     inkscape:groupmode="layer"
     transform="translate(-3.819132,-6.155729)">
    <g
       inkscape:label="shadow"
       style="display:inline"
       id="layer4"
       transform="translate(-392.7904,328.2799)" />
    <g
       inkscape:label="shadow"
       id="g3039"
       transform="translate(-840.833,182.2722)" />
    <g
       inkscape:label="color"
       id="g3041"
       transform="translate(-840.833,182.2722)">
      <path
         style="fill:#71c000;fill-opacity:1;stroke:#71c000;stroke-width:3.37896037;stroke-linejoin:bevel;stroke-miterlimit:4;stroke-opacity:1;stroke-dasharray:none"
         d=""
         id="path3043"
         inkscape:connector-curvature="0" />
      <path
         style="fill:#71c000;fill-opacity:1;stroke:#71c000;stroke-width:3.37896037;stroke-linejoin:bevel;stroke-miterlimit:4;stroke-opacity:1;stroke-dasharray:none"
         d=""
         id="path3045"
         inkscape:connector-curvature="0" />
      <path
         style="fill:#71c000;fill-opacity:1;stroke:#71c000;stroke-width:3.37896037;stroke-linejoin:bevel;stroke-miterlimit:4;stroke-opacity:1;stroke-dasharray:none"
         d=""
         id="path3047"
         inkscape:connector-curvature="0" />
    </g>
    <g
       inkscape:label="highlight"
       id="g3049"
       transform="translate(-840.833,182.2722)" />
    <g
       inkscape:label="text"
       id="g3089"
       transform="translate(-840.833,182.2722)" />
    <g
       id="g4774"
       inkscape:label="shadow"
       transform="translate(-1426.607,-26.2895)" />
    <g
       id="layer2"
       inkscape:label="color"
       transform="translate(-1426.607,-26.2895)">
      <path
         style="fill:#71c000;fill-opacity:1;stroke:#71c000;stroke-width:3.37896037;stroke-linejoin:bevel;stroke-miterlimit:4;stroke-opacity:1;stroke-dasharray:none"
         d=""
         id="path3422"
         inkscape:connector-curvature="0" />
      <path
         style="fill:#71c000;fill-opacity:1;stroke:#71c000;stroke-width:3.37896037;stroke-linejoin:bevel;stroke-miterlimit:4;stroke-opacity:1;stroke-dasharray:none"
         d=""
         id="path3426"
         inkscape:connector-curvature="0" />
      <path
         style="fill:#71c000;fill-opacity:1;stroke:#71c000;stroke-width:3.37896037;stroke-linejoin:bevel;stroke-miterlimit:4;stroke-opacity:1;stroke-dasharray:none"
         d=""
         id="path3428"
         inkscape:connector-curvature="0" />
    </g>
    <g
       id="g5777"
       inkscape:label="highlight"
       transform="translate(-1426.607,-26.2895)" />
    <g
       id="layer5"
       inkscape:label="text"
       transform="translate(-1426.607,-26.2895)" />
    <rect
       style="color:#000000;fill:url(#linearGradient13956);fill-opacity:1;fill-rule:evenodd;stroke:#2b2b2b;stroke-width:0.99699998;stroke-linecap:butt;stroke-linejoin:miter;stroke-miterlimit:4;stroke-opacity:1;stroke-dasharray:none;stroke-dashoffset:0;marker:none;visibility:visible;display:inline;overflow:visible"
       id="rect13948"
       width="50.730724"
       height="50.548958"
       x="4.9082928"
       y="7.219615"
       ry="7.0913997" />
    <g
       id="g6007"
       transform="matrix(-0.00397389,0.629601,-0.629601,-0.00397389,295.5792,-273.6194)"
       inkscape:export-filename="/vol1/home/khruskowski/greenbone/GSA/img-src/g6007.png"
       inkscape:export-xdpi="27.42"
       inkscape:export-ydpi="27.42"
       style="fill:#ffffff">
      <g
         transform="translate(415.3267,354.416)"
         id="g6011"
         style="fill:#ffffff" />
    </g>
    <g
       id="g3192"
       inkscape:label="openvaslogo"
       style="display:inline"
       transform="translate(-996.7028,556.527)" />
    <path
       style="color:#000000;fill:none;stroke:url(#linearGradient13966);stroke-width:1;stroke-linecap:butt;stroke-linejoin:miter;stroke-miterlimit:4;stroke-opacity:1;stroke-dasharray:none;stroke-dashoffset:0;marker:none;visibility:visible;display:inline;overflow:visible"
       d="M 2.1818182,45.429271 2,7.792907 c 0,0 1.0909091,-5.6363636 5.4545455,-5.8181818 4.3636365,-0.1818182 37.4545455,0 37.4545455,0 0,0 5.818182,0 6,7.2727273 0.181818,7.2727275 -0.181818,36.7272725 -0.181818,36.7272725"
       id="path13958"
       transform="translate(3.819132,6.155729)"
       inkscape:connector-curvature="0" />
    <g
       id="g4378"
       transform="matrix(0.49442819,0,0,0.49442819,-16.79816,-33.885831)"
       style="fill:#ececec">
      <path
         sodipodi:nodetypes="cssssssscsssscccsscssscsscsccsccccscccccssscsccscscsscccsccscsssssccccssscssscssccsssssscsccssccsccsss"
         inkscape:connector-curvature="0"
         id="path4372"
         d="m 91.37688,179.22633 c -7.743717,-0.33133 -14.624149,-1.36215 -19.246065,-2.88342 -2.813355,-0.92599 -4.624578,-1.90191 -5.811166,-3.13115 -1.029696,-1.06672 -1.28099,-1.83351 -1.210415,-3.69345 0.09933,-2.61783 0.840782,-4.82692 2.480248,-7.38968 1.313341,-2.05297 1.525289,-2.58917 1.907025,-4.82454 0.259956,-1.52224 0.459103,-2.11775 1.019728,-3.0493 0.606617,-1.00797 1.870774,-2.42053 2.805846,-3.13524 l 0.270892,-0.20705 -0.343383,-0.30966 c -0.466966,-0.42111 -1.987799,-2.13213 -2.76869,-3.11494 -7.054106,-8.87809 -9.044361,-21.10445 -5.177961,-31.80881 2.772612,-7.67614 8.144695,-13.95315 15.372753,-17.962289 1.461883,-0.810853 3.309189,-1.618854 3.471619,-1.518467 0.05577,0.03447 0.07167,0.02281 0.03961,-0.02906 -0.03014,-0.04877 0.02568,-0.110538 0.127691,-0.141317 0.09968,-0.03007 0.289279,-0.101607 0.421333,-0.158963 1.97435,-0.857527 5.088335,-1.625558 8.163322,-2.013395 1.598247,-0.201581 5.839772,-0.199327 7.483043,0.004 9.68799,1.198585 17.98484,6.143211 23.50521,14.008251 7.02098,10.00303 7.95654,23.07382 2.43428,34.00961 -1.62382,3.21569 -3.52651,5.86739 -6.02461,8.39626 l -1.01364,1.02613 0.85827,0.85723 c 1.78173,1.77959 2.38521,2.97898 2.76694,5.49913 0.1523,1.00546 0.57201,2.34433 0.93937,2.99659 0.13779,0.24464 0.54,0.89468 0.8938,1.44452 1.65993,2.57968 2.39431,4.77355 2.50703,7.48943 0.0554,1.33387 -0.069,2.05134 -0.48118,2.77656 -1.79022,3.14975 -8.94251,5.4854 -19.90283,6.49945 -3.11848,0.28853 -5.07077,0.37078 -9.483859,0.39953 -2.465003,0.0161 -5.166899,0 -6.004211,-0.0359 z m 7.291174,-8.20608 c 2.572826,-0.21681 4.512046,-0.48565 7.236506,-1.00324 2.66783,-0.50683 4.00096,-0.82619 6.16251,-1.47623 0.33013,-0.0993 0.93363,-0.28075 1.3411,-0.40326 0.8717,-0.26206 0.9396,-0.36254 0.0866,-0.12818 -1.13414,0.31162 -4.32877,0.91406 -5.78951,1.09179 -0.52821,0.0643 -1.21249,0.15114 -1.52062,0.19303 -4.11427,0.55943 -10.906364,0.64283 -16.446689,0.20196 -1.440703,-0.11465 -1.958095,-0.16966 -4.441808,-0.47226 -2.729491,-0.33255 -6.820402,-1.18896 -9.240232,-1.93438 -0.508148,-0.15653 -1.049956,-0.32132 -1.204019,-0.3662 -0.557541,-0.16239 -2.156117,-0.78063 -3.030006,-1.17184 -0.49141,-0.21999 -0.873841,-0.36821 -0.849846,-0.32939 0.02399,0.0388 0.374526,0.29193 0.778959,0.56244 1.271233,0.85032 3.629673,1.95425 5.661935,2.65021 1.635651,0.56015 4.468555,1.30656 6.16019,1.62308 0.372877,0.0698 0.805053,0.16081 0.960391,0.20231 0.155337,0.0415 0.438894,0.0949 0.630126,0.11859 0.191231,0.0237 0.821488,0.11404 1.40057,0.20072 2.0857,0.3122 3.931766,0.50244 5.774798,0.59512 1.121686,0.0564 4.930788,-0.0365 6.329015,-0.15427 z m 0.313689,-8.40813 c 2.256497,-0.19159 4.445317,-0.50652 6.682717,-0.96153 1.24167,-0.25252 3.82601,-0.88884 4.04165,-0.99515 0.15971,-0.0787 0.15971,-0.0788 -4.8e-4,-0.0393 -1.22304,0.30194 -4.34,0.75297 -6.48213,0.93796 -1.6224,0.14011 -8.44633,0.14018 -10.124115,8e-5 -5.112458,-0.42683 -9.481915,-1.11905 -12.525098,-1.98426 -3.112868,-0.88503 -5.00293,-1.5649 -6.801632,-2.4466 -0.596945,-0.29262 -0.403226,-0.11691 0.638626,0.57924 2.940799,1.96501 7.953652,3.6211 13.886149,4.58755 1.556456,0.25356 2.65279,0.36853 4.281743,0.449 1.639406,0.081 4.657801,0.0211 6.402606,-0.12704 z M 98.6653,155.05355 c 4.92119,-0.23945 8.8777,-0.9113 13.9445,-2.3679 0.63375,-0.1822 0.79124,-0.27184 1.93405,-1.10085 3.00575,-2.18043 5.54547,-4.84317 7.56775,-7.93432 2.65425,-4.05714 4.0818,-7.94915 4.81426,-13.12535 0.19631,-1.38732 0.19696,-5.82756 0.001,-7.24294 -0.85804,-6.19916 -3.05555,-11.26496 -6.92426,-15.96207 -0.8584,-1.04221 -3.01502,-3.15976 -4.13404,-4.05916 -4.61336,-3.707892 -9.71542,-5.870667 -15.64637,-6.632534 -1.033722,-0.132787 -1.772497,-0.170686 -3.401387,-0.174491 -2.110414,-0.0049 -3.107617,0.06436 -4.937813,0.343113 -1.278705,0.194755 -2.814695,0.53414 -3.945802,0.871847 -0.264108,0.07885 -0.642262,0.190272 -0.840342,0.247599 -0.198081,0.05733 -0.396162,0.129063 -0.44018,0.159416 -0.04402,0.03035 -0.224091,0.09879 -0.400162,0.152079 -0.176072,0.05329 -0.590241,0.206454 -0.920375,0.34036 -6.450596,2.616451 -11.76366,7.236931 -15.20909,13.226511 -0.625451,1.0873 -1.503289,2.91584 -1.960775,4.08431 -2.53895,6.48476 -2.712439,14.05966 -0.474634,20.72353 2.156359,6.42132 6.292986,11.81907 12.032578,15.70092 l 1.007967,0.68171 1.721741,0.43021 c 5.357751,1.33872 10.884831,1.89719 16.211324,1.63801 z m 10.80512,-3.42095 c 1.60027,-1.08845 2.60866,-1.93523 4.15987,-3.49317 5.09495,-5.1171 8.27927,-12.08817 8.99656,-19.69514 1.97001,-4.62743 -5.20834,-20.32318 -1.84462,-15.95491 1.81552,2.37114 3.08982,5.35212 3.72416,8.71196 0.38238,2.02529 0.40599,2.32728 0.40357,5.1621 -0.002,2.8396 -0.034,3.22883 -0.4477,5.52225 -1.44425,8.00598 -5.98571,14.99067 -12.11509,18.6328 -0.93394,0.55496 -3.33645,1.65546 -3.61404,1.65546 -0.0322,0 0.29954,-0.24361 0.73729,-0.54135 z"
         style="fill:#ececec" />
      <path
         transform="matrix(1.0474446,0.56970671,-0.56970671,1.0474446,64.528739,-53.651118)"
         inkscape:transform-center-y="-2.436076"
         inkscape:transform-center-x="2.2062593"
         d="m 93.312219,124.0541 -2.888172,9.2913 -5.617984,-7.94406 -9.729045,0.12436 5.819194,-7.79787 -3.124708,-9.21444 9.214444,3.1247 7.797869,-5.81919 -0.124355,9.72905 7.944058,5.61798 z"
         inkscape:randomized="0"
         inkscape:rounded="0"
         inkscape:flatsided="false"
         sodipodi:arg2="1.4137167"
         sodipodi:arg1="0.78539816"
         sodipodi:r2="14.651927"
         sodipodi:r1="7.3259635"
         sodipodi:cy="118.87386"
         sodipodi:cx="88.131981"
         sodipodi:sides="5"
         id="path4376"
         style="fill:#ececec;fill-opacity:1;stroke:none"
         sodipodi:type="star" />
    </g>
    <ellipse
       style="fill:none;stroke:#ececec;stroke-width:2.07927346000000002;stroke-linecap:square;stroke-linejoin:round;stroke-miterlimit:4;stroke-opacity:1;stroke-dasharray:none"
       id="path4382"
       cx="31.113876"
       cy="28.622021"
       rx="16.309814"
       ry="16.477133"
       sodipodi:cx="31.113876"
       sodipodi:cy="28.622021"
       sodipodi:rx="16.309814"
       sodipodi:ry="16.477133"
       d="m 47.423691,28.622021 c 0,9.100069 -7.302153,16.477133 -16.309815,16.477133 -9.007661,0 -16.309814,-7.377064 -16.309814,-16.477133 0,-9.100069 7.302153,-16.477133 16.309814,-16.477133 9.007662,0 16.309815,7.377064 16.309815,16.477133 z" />
  </g>
</svg>
