<?xml version="1.0" encoding="UTF-8"?>
<svg width="256" height="256" version="1.1" viewBox="0 0 67.733 67.733" xmlns="http://www.w3.org/2000/svg">
 <style>.gui_icon_class {
    stroke-linejoin:miter;
    font-size:medium;
    baseline-shift:baseline;
    color-rendering:auto;
    text-decoration-color:#000000;
    color:#000000;
    font-variant-numeric:normal;
    letter-spacing:normal;
    shape-rendering:auto;
    word-spacing:normal;
    stroke:none;
    text-decoration-line:none;
    text-rendering:auto;
    stroke-width:18;
    font-style:normal;
    fill:#000000;
    solid-opacity:1;
    line-height:normal;
    fill-rule:nonzero;
    font-variant-position:normal;
    mix-blend-mode:normal;
    fill-opacity:1;
    direction:ltr;
    solid-color:#000000;
    color-interpolation-filters:linearRGB;
    font-stretch:normal;
    stroke-miterlimit:4;
    font-feature-settings:normal;
    font-weight:normal;
    opacity:1;
    shape-padding:0;
    vector-effect:none;
    font-variant-alternates:normal;
    font-variant:normal;
    visibility:visible;
    text-indent:0;
    font-variant-ligatures:normal;
    clip-rule:nonzero;
    dominant-baseline:auto;
    font-variant-caps:normal;
    image-rendering:auto;
    white-space:normal;
    overflow:visible;
    font-family:sans-serif;
    text-decoration-style:solid;
    text-align:start;
    text-orientation:mixed;
    writing-mode:lr-tb;
    stroke-opacity:1;
    isolation:auto;
    paint-order:normal;
    stroke-dashoffset:0;
    text-anchor:start;
    text-decoration:none;
    stroke-linecap:butt;
    stroke-dasharray:none;
    enable-background:accumulate;
    text-transform:none;
    display:inline;
    color-interpolation:sRGB;
}</style>
 <g transform="translate(0 -229.27)">
  <g transform="matrix(2.0878 0 0 2.2337 41.673 -337.41)">
   <path class="gui_icon_class" transform="matrix(.12673 0 0 .11845 -19.96 253.7)" d="m128.13-0.12891-0.11718 31.779c-38.208-0.41132-73.197 22.059-88.406 57.609-15.293 35.745-7.0391 77.492 20.42 104.74l11.836-13.652c-22.31-22.136-28.639-54.797-16.43-83.334 12.155-28.412 40.756-47.126 72.51-46.744l-0.1289 35.045 44.934-42.402-44.617-43.037zm67.771 61.771-11.822 13.652c22.31 22.136 28.639 54.797 16.43 83.334-12.111 28.308-40.546 46.983-72.16 46.742l0.12891-34.811-44.934 42.404 44.617 43.035 0.11914-32.014c38.071 0.2705 72.878-22.168 88.041-57.609 15.293-35.745 7.0392-77.49-20.42-104.73z"/>
  </g>
 </g>
</svg>
