<?xml version="1.0" encoding="UTF-8" standalone="no"?>
<!-- Created with Inkscape (http://www.inkscape.org/) -->

<svg
   xmlns:dc="http://purl.org/dc/elements/1.1/"
   xmlns:cc="http://creativecommons.org/ns#"
   xmlns:rdf="http://www.w3.org/1999/02/22-rdf-syntax-ns#"
   xmlns:svg="http://www.w3.org/2000/svg"
   xmlns="http://www.w3.org/2000/svg"
   xmlns:sodipodi="http://sodipodi.sourceforge.net/DTD/sodipodi-0.dtd"
   xmlns:inkscape="http://www.inkscape.org/namespaces/inkscape"
   width="256"
   height="256"
   viewBox="0 0 67.733332 67.733335"
   version="1.1"
   id="svg8"
   inkscape:version="0.92.3 (2405546, 2018-03-11)"
   sodipodi:docname="result.svg"
   inkscape:export-filename="G:\BackUp300714\intevation\green\GUI-Icons_2018\png_16x16\result.png"
   inkscape:export-xdpi="6"
   inkscape:export-ydpi="6">
  <defs
     id="defs2" />
  <sodipodi:namedview
     id="base"
     pagecolor="#ffffff"
     bordercolor="#666666"
     borderopacity="1.0"
     inkscape:pageopacity="0.0"
     inkscape:pageshadow="2"
     inkscape:zoom="3.1601562"
     inkscape:cx="128"
     inkscape:cy="90.027194"
     inkscape:document-units="mm"
     inkscape:current-layer="g1117"
     showgrid="true"
     units="px"
     inkscape:window-width="1920"
     inkscape:window-height="976"
     inkscape:window-x="1272"
     inkscape:window-y="-8"
     inkscape:window-maximized="1"
     inkscape:snap-global="false"
     inkscape:snap-grids="false"
     inkscape:snap-bbox="true">
    <inkscape:grid
       type="xygrid"
       id="grid4616"
       empspacing="8" />
  </sodipodi:namedview>
  <metadata
     id="metadata5">
    <rdf:RDF>
      <cc:Work
         rdf:about="">
        <dc:format>image/svg+xml</dc:format>
        <dc:type
           rdf:resource="http://purl.org/dc/dcmitype/StillImage" />
        <dc:title />
      </cc:Work>
    </rdf:RDF>
  </metadata>
  <g
     inkscape:label="Ebene 1"
     inkscape:groupmode="layer"
     id="layer1"
     transform="translate(0,-229.26665)">
    <g
       id="g1117"
       transform="matrix(2.0877771,0,0,2.2336594,41.672512,-337.40901)">
      <path
         style="color:#000000;font-style:normal;font-variant:normal;font-weight:normal;font-stretch:normal;font-size:medium;line-height:normal;font-family:sans-serif;font-variant-ligatures:normal;font-variant-position:normal;font-variant-caps:normal;font-variant-numeric:normal;font-variant-alternates:normal;font-feature-settings:normal;text-indent:0;text-align:start;text-decoration:none;text-decoration-line:none;text-decoration-style:solid;text-decoration-color:#000000;letter-spacing:normal;word-spacing:normal;text-transform:none;writing-mode:lr-tb;direction:ltr;text-orientation:mixed;dominant-baseline:auto;baseline-shift:baseline;text-anchor:start;white-space:normal;shape-padding:0;clip-rule:nonzero;display:inline;overflow:visible;visibility:visible;opacity:1;isolation:auto;mix-blend-mode:normal;color-interpolation:sRGB;color-interpolation-filters:linearRGB;solid-color:#000000;solid-opacity:1;vector-effect:none;fill:#000000;fill-opacity:1;fill-rule:evenodd;stroke:none;stroke-width:2.20538521;stroke-linecap:butt;stroke-linejoin:miter;stroke-miterlimit:4;stroke-dasharray:none;stroke-dashoffset:0;stroke-opacity:1;color-rendering:auto;image-rendering:auto;shape-rendering:auto;text-rendering:auto;enable-background:accumulate"
         d="m 10.456559,270.75554 -6.0162299,10.24964 -4.91233401,-2.88969 -1.21054299,1.81605 6.956411,4.09072 7.1809349,-12.23174 z"
         id="path828"
         inkscape:connector-curvature="0" />
      <rect
         style="opacity:1;fill:#000000;fill-opacity:1;fill-rule:nonzero;stroke:none;stroke-width:1.96034265;stroke-linecap:butt;stroke-linejoin:miter;stroke-miterlimit:4;stroke-dasharray:none;stroke-opacity:1;paint-order:normal"
         id="rect818-1"
         width="0.50691873"
         height="30.323921"
         x="-3.992295"
         y="253.69833" />
      <rect
         style="opacity:1;fill:#000000;fill-opacity:1;fill-rule:nonzero;stroke:none;stroke-width:1.96034265;stroke-linecap:butt;stroke-linejoin:miter;stroke-miterlimit:4;stroke-dasharray:none;stroke-opacity:1;paint-order:normal"
         id="rect818-8-8"
         width="0.47381142"
         height="32.442787"
         x="268.62338"
         y="-12.482556"
         transform="rotate(90)" />
      <path
         style="color:#000000;font-style:normal;font-variant:normal;font-weight:normal;font-stretch:normal;font-size:medium;line-height:normal;font-family:sans-serif;font-variant-ligatures:normal;font-variant-position:normal;font-variant-caps:normal;font-variant-numeric:normal;font-variant-alternates:normal;font-feature-settings:normal;text-indent:0;text-align:start;text-decoration:none;text-decoration-line:none;text-decoration-style:solid;text-decoration-color:#000000;letter-spacing:normal;word-spacing:normal;text-transform:none;writing-mode:lr-tb;direction:ltr;text-orientation:mixed;dominant-baseline:auto;baseline-shift:baseline;text-anchor:start;white-space:normal;shape-padding:0;clip-rule:nonzero;display:inline;overflow:visible;visibility:visible;opacity:1;isolation:auto;mix-blend-mode:normal;color-interpolation:sRGB;color-interpolation-filters:linearRGB;solid-color:#000000;solid-opacity:1;vector-effect:none;fill:#000000;fill-opacity:1;fill-rule:nonzero;stroke:none;stroke-width:18;stroke-linecap:butt;stroke-linejoin:miter;stroke-miterlimit:4;stroke-dasharray:none;stroke-dashoffset:0;stroke-opacity:1;paint-order:normal;color-rendering:auto;image-rendering:auto;shape-rendering:auto;text-rendering:auto;enable-background:accumulate"
         d="M 128.00391 0.0078125 C 57.744038 0.0078125 -0.005859375 57.030871 -0.005859375 127.99219 C -0.005859375 198.95341 57.744038 255.99414 128.00391 255.99414 C 128.1613 255.99414 128.31735 255.98885 128.47461 255.98828 L 128.47461 237.37109 C 128.31741 237.37174 128.16127 237.37695 128.00391 237.37695 C 66.489889 237.37695 17.410156 188.13316 17.410156 127.99219 C 17.410156 67.851125 66.489889 18.623047 128.00391 18.623047 C 189.46648 18.623047 238.51568 67.769278 238.59766 127.8418 L 255.99609 127.8418 C 255.91436 56.95052 198.21398 0.0078125 128.00391 0.0078125 z M 128.00391 48.005859 C 84.059974 48.005859 48.001953 83.661804 48.001953 127.99219 C 48.001953 172.32248 84.059974 207.99414 128.00391 207.99414 C 128.1612 207.99414 128.31752 207.98919 128.47461 207.98828 L 128.47461 197.64453 C 128.31696 197.64555 128.16181 197.65625 128.00391 197.65625 C 88.921721 197.65625 57.666016 166.31486 57.666016 127.99219 C 57.666016 89.669426 88.921721 58.34375 128.00391 58.34375 C 167.03467 58.34375 198.24216 89.587882 198.32422 127.8418 L 208.00391 127.8418 C 207.92226 83.581367 171.898 48.005859 128.00391 48.005859 z M 128.00391 88.007812 C 106.16385 88.007812 87.996094 105.73768 87.996094 127.99219 C 87.996094 150.24661 106.16385 167.99414 128.00391 167.99414 C 128.16161 167.99414 128.3173 167.98427 128.47461 167.98242 L 128.47461 157.64453 C 128.31716 157.64685 128.162 157.65625 128.00391 157.65625 C 111.00064 157.65625 97.673828 144.20792 97.673828 127.99219 C 97.673828 111.77637 111.00064 98.345703 128.00391 98.345703 C 144.95431 98.345703 158.24757 111.69375 158.33008 127.8418 L 167.99414 127.8418 C 167.91206 105.6583 149.79442 88.007812 128.00391 88.007812 z "
         transform="matrix(0.12672968,0,0,0.11845286,-19.96023,253.69833)"
         id="path820" />
      <path
         style="opacity:1;fill:#000000;fill-opacity:1;fill-rule:nonzero;stroke:none;stroke-width:2.20538545;stroke-linecap:butt;stroke-linejoin:miter;stroke-miterlimit:4;stroke-dasharray:none;stroke-opacity:1;paint-order:normal"
         id="path820-5"
         sodipodi:type="arc"
         sodipodi:cx="-3.7388313"
         sodipodi:cy="268.86029"
         sodipodi:rx="16.221399"
         sodipodi:ry="15.161965"
         sodipodi:start="5.0614548"
         sodipodi:end="5.846853"
         d="m 1.8092136,254.6127 a 16.221399,15.161965 0 0 1 9.1535354,7.83987 l -14.7015803,6.40772 z" />
    </g>
    <g
       id="layer1-5"
       inkscape:label="Layer"
       style="opacity:0.52173911"
       transform="matrix(0.76331491,0,0,0.76331491,18.102097,283.062)" />
  </g>
</svg>
