<?xml version="1.0" encoding="UTF-8"?>
<svg width="256" height="256" version="1.1" viewBox="0 0 67.733 67.733" xmlns="http://www.w3.org/2000/svg">
 <style>.gui_icon_class {
    stroke-linejoin:miter;
    font-size:medium;
    baseline-shift:baseline;
    color-rendering:auto;
    text-decoration-color:#000000;
    color:#000000;
    font-variant-numeric:normal;
    letter-spacing:normal;
    shape-rendering:auto;
    word-spacing:normal;
    stroke:none;
    text-decoration-line:none;
    text-rendering:auto;
    stroke-width:18;
    font-style:normal;
    fill:#000000;
    solid-opacity:1;
    line-height:normal;
    fill-rule:nonzero;
    font-variant-position:normal;
    mix-blend-mode:normal;
    fill-opacity:1;
    direction:ltr;
    solid-color:#000000;
    color-interpolation-filters:linearRGB;
    font-stretch:normal;
    stroke-miterlimit:4;
    font-feature-settings:normal;
    font-weight:normal;
    opacity:1;
    shape-padding:0;
    vector-effect:none;
    font-variant-alternates:normal;
    font-variant:normal;
    visibility:visible;
    text-indent:0;
    font-variant-ligatures:normal;
    clip-rule:nonzero;
    dominant-baseline:auto;
    font-variant-caps:normal;
    image-rendering:auto;
    white-space:normal;
    overflow:visible;
    font-family:sans-serif;
    text-decoration-style:solid;
    text-align:start;
    text-orientation:mixed;
    writing-mode:lr-tb;
    stroke-opacity:1;
    isolation:auto;
    paint-order:normal;
    stroke-dashoffset:0;
    text-anchor:start;
    text-decoration:none;
    stroke-linecap:butt;
    stroke-dasharray:none;
    enable-background:accumulate;
    text-transform:none;
    display:inline;
    color-interpolation:sRGB;
}</style>
 <g transform="translate(0 -229.27)">
  <g transform="matrix(2.0878 0 0 2.2337 41.673 -337.41)">
   <path class="gui_icon_class" transform="matrix(.12673 0 0 .11845 -19.96 253.7)" d="m128 0.0078125c-70.26 0-128.01 57.023-128.01 127.98 0 70.961 57.75 128 128.01 128s127.99-57.041 127.99-128c0-70.961-57.734-127.98-127.99-127.98zm0 18.615c61.514 0 110.6 49.228 110.6 109.37 0 27.143-9.9997 52.064-26.625 71.242l-155.07-155.07c19.165-15.921 43.917-25.539 71.102-25.539zm-83.98 38.148 155.07 155.07c-19.164 15.919-43.913 25.535-71.092 25.535-61.514 0-110.59-49.244-110.59-109.38 0-27.136 9.995-52.048 26.613-71.221z"/>
  </g>
 </g>
</svg>
